<svg width="20" height="20" viewBox="0 0 20 20" fill="none" xmlns="http://www.w3.org/2000/svg">
<path d="M8.57502 3.21667L1.51668 15C1.37116 15.252 1.29416 15.5378 1.29334 15.8288C1.29253 16.1198 1.36793 16.4059 1.51204 16.6588C1.65615 16.9116 1.86396 17.1223 2.11477 17.2699C2.36559 17.4175 2.65068 17.4968 2.94168 17.5H17.0583C17.3494 17.4968 17.6344 17.4175 17.8853 17.2699C18.1361 17.1223 18.3439 16.9116 18.488 16.6588C18.6321 16.4059 18.7075 16.1198 18.7067 15.8288C18.7059 15.5378 18.6289 15.252 18.4834 15L11.425 3.21667C11.2765 2.97176 11.0673 2.76927 10.8177 2.62874C10.5681 2.48821 10.2865 2.41438 10 2.41438C9.71357 2.41438 9.43196 2.48821 9.18235 2.62874C8.93275 2.76927 8.72358 2.97176 8.57502 3.21667V3.21667Z" stroke="#F1B314" stroke-width="2" stroke-linecap="round" stroke-linejoin="round"/>
<path d="M10 7.5V10.8333" stroke="#F1B314" stroke-width="2" stroke-linecap="round" stroke-linejoin="round"/>
<path d="M10 14.1667H10.0083" stroke="#F1B314" stroke-width="2" stroke-linecap="round" stroke-linejoin="round"/>
</svg>
