<svg width="40" height="40" viewBox="0 0 40 40" fill="none" xmlns="http://www.w3.org/2000/svg">
<circle cx="20" cy="20" r="20" fill="#D6DFFE"/>
<g clip-path="url(#clip0_318_6300)">
<path d="M14.2582 33.4767C13.7062 33.1095 13.2169 32.6557 12.8092 32.1327C12.3608 31.593 11.9453 31.0267 11.565 30.437C10.6726 29.1296 9.97269 27.7007 9.48686 26.1941C8.90323 24.4441 8.62061 22.7667 8.62061 21.1261C8.62061 19.2939 9.01698 17.6944 9.79223 16.3504C10.3669 15.2999 11.2118 14.422 12.2396 13.8076C13.2356 13.189 14.3801 12.8504 15.5524 12.8276C15.9627 12.8276 16.4046 12.8871 16.8736 13.0009C17.2105 13.0963 17.6209 13.2468 18.1222 13.434C18.7601 13.6799 19.111 13.8304 19.23 13.8671C19.6036 14.0036 19.9177 14.0631 20.1645 14.0631C20.3517 14.0631 20.616 14.0036 20.9161 13.9126C21.085 13.8531 21.4035 13.7481 21.8594 13.553C22.3109 13.3885 22.6661 13.2476 22.9487 13.1426C23.3819 13.0149 23.801 12.8967 24.1746 12.8373C24.6175 12.7674 25.0671 12.7489 25.5142 12.7821C26.2891 12.8328 27.0524 12.997 27.7796 13.2695C28.9687 13.7481 29.9304 14.4954 30.6461 15.5576C30.3436 15.7441 30.0597 15.9592 29.7982 16.1999C29.2291 16.7044 28.7444 17.2967 28.3624 17.9543C27.863 18.8529 27.6041 19.8653 27.6107 20.8934C27.6291 22.156 27.9529 23.2681 28.5907 24.2297C29.0597 24.9424 29.6692 25.5519 30.3819 26.0209C30.7467 26.2667 31.0609 26.4356 31.3619 26.5494C31.221 26.9869 31.0705 27.4104 30.8929 27.8304C30.49 28.7722 30.0018 29.6752 29.4342 30.528C28.9285 31.2621 28.5321 31.809 28.2311 32.173C27.7621 32.7286 27.3106 33.153 26.8547 33.4487C26.3534 33.7812 25.761 33.9589 25.159 33.9589C24.7513 33.9745 24.3437 33.9252 23.9515 33.8127C23.6146 33.699 23.2812 33.5756 22.9531 33.4347C22.612 33.2781 22.2602 33.1456 21.9005 33.0384C21.0112 32.81 20.0788 32.8085 19.1889 33.034C18.824 33.139 18.4731 33.2615 18.1266 33.412C17.6392 33.6167 17.3155 33.7541 17.1282 33.8127C16.7546 33.9221 16.367 33.9904 15.975 34.0131C15.3686 34.0131 14.8034 33.8399 14.2434 33.489L14.2582 33.4767ZM22.2557 11.9386C21.463 12.335 20.7061 12.5039 19.9545 12.4488C19.8364 11.6919 19.9545 10.9175 20.2686 10.0696C20.536 9.35131 20.9312 8.68729 21.435 8.10963C21.967 7.50152 22.6126 7.00308 23.3355 6.64225C24.1055 6.24587 24.8396 6.0315 25.5414 6C25.6324 6.79275 25.5414 7.57237 25.25 8.415C24.9803 9.15987 24.5859 9.85344 24.0836 10.466C23.5709 11.0749 22.9417 11.5753 22.233 11.9377L22.2557 11.9386Z" fill="white"/>
</g>
<defs>
<clipPath id="clip0_318_6300">
<rect width="28" height="28" fill="white" transform="translate(6 6)"/>
</clipPath>
</defs>
</svg>
