<svg width="65" height="68" viewBox="0 0 65 68" fill="none" xmlns="http://www.w3.org/2000/svg">
<path d="M65 32.6393C65 50.6797 50.4634 65.2785 32.5 65.2785C14.5366 65.2785 0 50.6797 0 32.6393C0 14.5989 14.5366 0 32.5 0C50.4082 0 65 14.5989 65 32.6393Z" fill="#EDEFF3"/>
<path d="M51.6242 52.6247C49.4686 50.0712 32.1684 44.4648 32.1684 44.4648C32.1684 44.4648 15.2551 50.6818 12.7126 52.6247C10.1701 54.5675 9.23047 67.0015 9.23047 67.0015H54.6641C54.6089 66.946 53.8351 55.1781 51.6242 52.6247Z" fill="#0E2B5B"/>
<path d="M40.017 48.0183L32.1683 51.0158L24.3197 48.0183V43.9662C24.3197 43.9662 27.9124 42.6895 32.3894 42.6895C36.8665 42.6895 40.0723 43.9662 40.0723 43.9662V48.0183H40.017Z" fill="#091D3D"/>
<path d="M38.8563 44.3543L32.1684 47.3517L25.4805 44.3543V39.0254H38.8563V44.3543Z" fill="#DAAE8F"/>
<path d="M45.6548 28.645V21.3733C45.6548 11.1596 41.5646 4.33203 32.3895 4.33203C23.159 4.33203 19.1241 11.1596 19.1241 21.3733V28.645C19.1241 28.645 21.1692 26.9797 22.9932 24.8703C23.8223 23.9267 21.0034 18.7088 21.8325 16.4885C22.8826 13.8241 25.591 11.9368 25.591 11.9368C25.591 11.9368 26.6964 13.2135 31.6709 13.713C36.7559 14.1571 38.5246 11.3817 38.5246 11.3817C38.5246 11.3817 38.9668 23.0385 40.0723 24.5373C42.449 27.8123 45.6548 28.645 45.6548 28.645Z" fill="black"/>
<path d="M46.318 25.5913C46.318 27.8672 44.7151 30.9757 43.6097 30.9757C42.5043 30.9757 41.6752 29.1439 41.6752 26.868C41.6752 24.5921 42.7806 23.4265 43.6097 22.7603C44.6599 21.9277 46.318 22.7603 46.318 25.5913Z" fill="#F4C5A3"/>
<path d="M18.3503 25.5913C18.3503 27.8672 19.9532 30.9757 21.0587 30.9757C22.1641 30.9757 22.9932 29.1439 22.9932 26.868C22.9932 24.5921 21.8878 23.4265 21.0587 22.7603C19.9532 21.9277 18.3503 22.7603 18.3503 25.5913Z" fill="#F4C5A3"/>
<path d="M32.3894 7.60742C24.8172 7.60742 21.4456 12.9363 21.4456 20.9296C21.4456 24.9817 21.4456 28.1457 21.4456 30.9212C21.4456 32.3644 21.9983 36.139 22.551 37.3047C24.375 41.0238 29.6811 45.1315 32.1683 45.1315C34.7109 45.1315 40.6802 41.0238 42.1173 37.5268C42.67 36.139 43.3333 31.9759 43.3333 30.2551C43.3333 27.6462 43.3333 24.6487 43.3333 20.9296C43.3333 12.9363 39.9617 7.60742 32.3894 7.60742Z" fill="#F8CCAC"/>
<path d="M43.3334 26.5891L43.9966 22.4259C44.4941 13.0449 39.9618 6.05078 32.3895 6.05078C24.8172 6.05078 20.6718 13.9886 20.9482 22.4259L21.4456 26.5891C21.4456 26.5891 21.4456 23.4806 22.9932 21.8153C23.6565 21.0937 22.9932 18.7623 23.7118 17.0415C24.5961 14.9877 26.807 13.489 26.807 13.489C26.807 13.489 27.7466 14.4881 31.7815 14.8767C35.9822 15.2653 37.4193 13.0449 37.4193 13.0449C37.4193 13.0449 39.9065 13.2114 41.2883 16.431C42.1727 18.4848 41.5094 19.484 41.3988 20.7607C41.3436 22.0929 43.3334 26.5891 43.3334 26.5891Z" fill="black"/>
</svg>
