<svg width="160" height="180" viewBox="0 0 160 180" fill="none" xmlns="http://www.w3.org/2000/svg">
<rect x="1" y="1" width="158" height="178" rx="3" fill="white"/>
<path d="M28.6314 130V117.636H32.809C33.7749 117.636 34.5678 117.801 35.1875 118.131C35.8073 118.457 36.2661 118.906 36.564 119.478C36.8618 120.049 37.0107 120.699 37.0107 121.428C37.0107 122.156 36.8618 122.802 36.564 123.365C36.2661 123.929 35.8093 124.372 35.1936 124.694C34.5778 125.011 33.791 125.17 32.8331 125.17H29.4525V123.818H32.7848C33.4449 123.818 33.9761 123.722 34.3786 123.528C34.7851 123.335 35.0789 123.062 35.26 122.707C35.4451 122.349 35.5377 121.923 35.5377 121.428C35.5377 120.933 35.4451 120.5 35.26 120.13C35.0749 119.759 34.779 119.474 34.3726 119.272C33.9661 119.067 33.4288 118.964 32.7607 118.964H30.1286V130H28.6314ZM34.451 124.446L37.4937 130H35.755L32.7607 124.446H34.451ZM43.1005 130.193C42.207 130.193 41.4363 129.996 40.7883 129.602C40.1444 129.203 39.6473 128.648 39.2972 127.935C38.9511 127.219 38.778 126.386 38.778 125.436C38.778 124.486 38.9511 123.649 39.2972 122.925C39.6473 122.196 40.1343 121.629 40.7581 121.222C41.386 120.812 42.1184 120.607 42.9556 120.607C43.4385 120.607 43.9154 120.687 44.3863 120.848C44.8572 121.009 45.2858 121.271 45.6722 121.633C46.0585 121.991 46.3664 122.466 46.5958 123.058C46.8252 123.649 46.9399 124.378 46.9399 125.243V125.847H39.7922V124.615H45.4911C45.4911 124.092 45.3864 123.625 45.1772 123.214C44.9719 122.804 44.6781 122.48 44.2958 122.243C43.9175 122.005 43.4707 121.886 42.9556 121.886C42.3881 121.886 41.8971 122.027 41.4826 122.309C41.072 122.587 40.7561 122.949 40.5348 123.396C40.3134 123.842 40.2027 124.321 40.2027 124.832V125.653C40.2027 126.354 40.3235 126.947 40.5649 127.434C40.8104 127.917 41.1505 128.286 41.5852 128.539C42.0198 128.789 42.5249 128.913 43.1005 128.913C43.4747 128.913 43.8128 128.861 44.1147 128.756C44.4205 128.648 44.6841 128.487 44.9055 128.273C45.1268 128.056 45.2979 127.786 45.4186 127.464L46.7951 127.851C46.6502 128.318 46.4067 128.728 46.0646 129.082C45.7225 129.433 45.2999 129.706 44.7968 129.903C44.2938 130.097 43.7283 130.193 43.1005 130.193ZM53.1399 120.727V121.935H48.3345V120.727H53.1399ZM49.735 118.506H51.1598V127.344C51.1598 127.746 51.2181 128.048 51.3348 128.249C51.4556 128.446 51.6085 128.579 51.7936 128.648C51.9828 128.712 52.182 128.744 52.3913 128.744C52.5483 128.744 52.677 128.736 52.7777 128.72C52.8783 128.7 52.9588 128.684 53.0191 128.672L53.3089 129.952C53.2123 129.988 53.0775 130.024 52.9044 130.06C52.7314 130.101 52.512 130.121 52.2464 130.121C51.8439 130.121 51.4495 130.034 51.0632 129.861C50.6808 129.688 50.3629 129.424 50.1093 129.07C49.8598 128.716 49.735 128.269 49.735 127.73V118.506ZM58.0117 130.217C57.4241 130.217 56.8908 130.107 56.4119 129.885C55.933 129.66 55.5526 129.336 55.2709 128.913C54.9892 128.487 54.8483 127.972 54.8483 127.368C54.8483 126.837 54.953 126.406 55.1622 126.076C55.3715 125.742 55.6512 125.48 56.0014 125.291C56.3515 125.102 56.7379 124.961 57.1605 124.869C57.5871 124.772 58.0157 124.696 58.4463 124.639C59.0098 124.567 59.4666 124.512 59.8167 124.476C60.1709 124.436 60.4285 124.37 60.5894 124.277C60.7545 124.184 60.837 124.023 60.837 123.794V123.746C60.837 123.15 60.674 122.687 60.348 122.357C60.026 122.027 59.537 121.862 58.881 121.862C58.2008 121.862 57.6676 122.011 57.2812 122.309C56.8948 122.607 56.6232 122.925 56.4662 123.263L55.1139 122.78C55.3554 122.216 55.6774 121.778 56.0799 121.464C56.4863 121.146 56.9291 120.924 57.408 120.8C57.8909 120.671 58.3658 120.607 58.8327 120.607C59.1305 120.607 59.4726 120.643 59.859 120.715C60.2494 120.784 60.6257 120.926 60.9879 121.144C61.3541 121.361 61.658 121.689 61.8995 122.128C62.1409 122.567 62.2617 123.154 62.2617 123.891V130H60.837V128.744H60.7645C60.6679 128.946 60.5069 129.161 60.2816 129.39C60.0562 129.62 59.7563 129.815 59.3821 129.976C59.0078 130.137 58.551 130.217 58.0117 130.217ZM58.229 128.938C58.7925 128.938 59.2674 128.827 59.6537 128.605C60.0441 128.384 60.3379 128.098 60.5351 127.748C60.7363 127.398 60.837 127.03 60.837 126.643V125.339C60.7766 125.412 60.6438 125.478 60.4385 125.539C60.2373 125.595 60.0039 125.645 59.7382 125.69C59.4766 125.73 59.2211 125.766 58.9715 125.798C58.726 125.826 58.5268 125.851 58.3739 125.871C58.0036 125.919 57.6575 125.998 57.3355 126.106C57.0176 126.211 56.76 126.37 56.5628 126.583C56.3696 126.792 56.273 127.078 56.273 127.44C56.273 127.935 56.4562 128.31 56.8224 128.563C57.1927 128.813 57.6615 128.938 58.229 128.938ZM66.1902 126.619L66.1661 124.857H66.4558L70.5127 120.727H72.2754L67.953 125.098H67.8323L66.1902 126.619ZM64.8621 130V117.636H66.2868V130H64.8621ZM70.7541 130L67.132 125.412L68.1462 124.422L72.5652 130H70.7541ZM77.6151 130.193C76.7216 130.193 75.9509 129.996 75.303 129.602C74.659 129.203 74.162 128.648 73.8118 127.935C73.4657 127.219 73.2927 126.386 73.2927 125.436C73.2927 124.486 73.4657 123.649 73.8118 122.925C74.162 122.196 74.649 121.629 75.2728 121.222C75.9006 120.812 76.6331 120.607 77.4702 120.607C77.9532 120.607 78.4301 120.687 78.901 120.848C79.3718 121.009 79.8005 121.271 80.1868 121.633C80.5732 121.991 80.8811 122.466 81.1105 123.058C81.3399 123.649 81.4546 124.378 81.4546 125.243V125.847H74.3069V124.615H80.0057C80.0057 124.092 79.9011 123.625 79.6918 123.214C79.4866 122.804 79.1928 122.48 78.8104 122.243C78.4321 122.005 77.9854 121.886 77.4702 121.886C76.9027 121.886 76.4117 122.027 75.9972 122.309C75.5867 122.587 75.2708 122.949 75.0494 123.396C74.8281 123.842 74.7174 124.321 74.7174 124.832V125.653C74.7174 126.354 74.8381 126.947 75.0796 127.434C75.3251 127.917 75.6652 128.286 76.0998 128.539C76.5345 128.789 77.0396 128.913 77.6151 128.913C77.9894 128.913 78.3275 128.861 78.6293 128.756C78.9352 128.648 79.1988 128.487 79.4201 128.273C79.6415 128.056 79.8125 127.786 79.9333 127.464L81.3097 127.851C81.1648 128.318 80.9213 128.728 80.5792 129.082C80.2371 129.433 79.8146 129.706 79.3115 129.903C78.8084 130.097 78.2429 130.193 77.6151 130.193ZM88.4031 133.477V120.727H89.7795V122.2H89.9486C90.0532 122.039 90.1981 121.834 90.3832 121.585C90.5724 121.331 90.842 121.106 91.1922 120.908C91.5463 120.707 92.0253 120.607 92.629 120.607C93.4097 120.607 94.0979 120.802 94.6936 121.192C95.2892 121.583 95.7541 122.136 96.0881 122.852C96.4222 123.569 96.5892 124.414 96.5892 125.388C96.5892 126.37 96.4222 127.221 96.0881 127.941C95.7541 128.658 95.2912 129.213 94.6996 129.608C94.108 129.998 93.4258 130.193 92.6531 130.193C92.0575 130.193 91.5805 130.095 91.2223 129.897C90.8642 129.696 90.5885 129.469 90.3953 129.215C90.2021 128.958 90.0532 128.744 89.9486 128.575H89.8278V133.477H88.4031ZM89.8037 125.364C89.8037 126.064 89.9063 126.682 90.1116 127.217C90.3168 127.748 90.6166 128.165 91.0111 128.467C91.4055 128.764 91.8884 128.913 92.4599 128.913C93.0556 128.913 93.5526 128.756 93.951 128.442C94.3535 128.125 94.6553 127.698 94.8566 127.163C95.0618 126.623 95.1645 126.024 95.1645 125.364C95.1645 124.712 95.0638 124.124 94.8626 123.601C94.6654 123.074 94.3656 122.657 93.9631 122.351C93.5647 122.041 93.0636 121.886 92.4599 121.886C91.8804 121.886 91.3934 122.033 90.999 122.327C90.6046 122.617 90.3067 123.023 90.1055 123.547C89.9043 124.066 89.8037 124.671 89.8037 125.364ZM100.187 124.422V130H98.7625V117.636H100.187V122.176H100.308C100.525 121.697 100.851 121.317 101.286 121.035C101.725 120.749 102.308 120.607 103.037 120.607C103.668 120.607 104.222 120.733 104.697 120.987C105.172 121.236 105.54 121.621 105.802 122.14C106.067 122.655 106.2 123.311 106.2 124.108V130H104.775V124.205C104.775 123.468 104.584 122.899 104.202 122.496C103.823 122.09 103.298 121.886 102.626 121.886C102.159 121.886 101.741 121.985 101.37 122.182C101.004 122.379 100.714 122.667 100.501 123.045C100.292 123.424 100.187 123.883 100.187 124.422ZM112.573 130.193C111.736 130.193 111.002 129.994 110.37 129.596C109.742 129.197 109.251 128.64 108.897 127.923C108.547 127.207 108.372 126.37 108.372 125.412C108.372 124.446 108.547 123.603 108.897 122.882C109.251 122.162 109.742 121.603 110.37 121.204C111.002 120.806 111.736 120.607 112.573 120.607C113.411 120.607 114.143 120.806 114.771 121.204C115.403 121.603 115.894 122.162 116.244 122.882C116.598 123.603 116.775 124.446 116.775 125.412C116.775 126.37 116.598 127.207 116.244 127.923C115.894 128.64 115.403 129.197 114.771 129.596C114.143 129.994 113.411 130.193 112.573 130.193ZM112.573 128.913C113.209 128.913 113.733 128.75 114.143 128.424C114.554 128.098 114.857 127.67 115.055 127.138C115.252 126.607 115.35 126.032 115.35 125.412C115.35 124.792 115.252 124.215 115.055 123.679C114.857 123.144 114.554 122.711 114.143 122.381C113.733 122.051 113.209 121.886 112.573 121.886C111.938 121.886 111.414 122.051 111.004 122.381C110.593 122.711 110.289 123.144 110.092 123.679C109.895 124.215 109.796 124.792 109.796 125.412C109.796 126.032 109.895 126.607 110.092 127.138C110.289 127.67 110.593 128.098 111.004 128.424C111.414 128.75 111.938 128.913 112.573 128.913ZM122.983 120.727V121.935H118.177V120.727H122.983ZM119.578 118.506H121.003V127.344C121.003 127.746 121.061 128.048 121.178 128.249C121.298 128.446 121.451 128.579 121.636 128.648C121.826 128.712 122.025 128.744 122.234 128.744C122.391 128.744 122.52 128.736 122.62 128.72C122.721 128.7 122.802 128.684 122.862 128.672L123.152 129.952C123.055 129.988 122.92 130.024 122.747 130.06C122.574 130.101 122.355 130.121 122.089 130.121C121.687 130.121 121.292 130.034 120.906 129.861C120.524 129.688 120.206 129.424 119.952 129.07C119.703 128.716 119.578 128.269 119.578 127.73V118.506ZM128.793 130.193C127.956 130.193 127.222 129.994 126.59 129.596C125.962 129.197 125.471 128.64 125.117 127.923C124.767 127.207 124.591 126.37 124.591 125.412C124.591 124.446 124.767 123.603 125.117 122.882C125.471 122.162 125.962 121.603 126.59 121.204C127.222 120.806 127.956 120.607 128.793 120.607C129.63 120.607 130.363 120.806 130.991 121.204C131.622 121.603 132.114 122.162 132.464 122.882C132.818 123.603 132.995 124.446 132.995 125.412C132.995 126.37 132.818 127.207 132.464 127.923C132.114 128.64 131.622 129.197 130.991 129.596C130.363 129.994 129.63 130.193 128.793 130.193ZM128.793 128.913C129.429 128.913 129.952 128.75 130.363 128.424C130.773 128.098 131.077 127.67 131.274 127.138C131.472 126.607 131.57 126.032 131.57 125.412C131.57 124.792 131.472 124.215 131.274 123.679C131.077 123.144 130.773 122.711 130.363 122.381C129.952 122.051 129.429 121.886 128.793 121.886C128.157 121.886 127.634 122.051 127.224 122.381C126.813 122.711 126.509 123.144 126.312 123.679C126.115 124.215 126.016 124.792 126.016 125.412C126.016 126.032 126.115 126.607 126.312 127.138C126.509 127.67 126.813 128.098 127.224 128.424C127.634 128.75 128.157 128.913 128.793 128.913ZM40.0578 151.193C39.2207 151.193 38.4862 150.994 37.8544 150.596C37.2265 150.197 36.7355 149.64 36.3813 148.923C36.0312 148.207 35.8561 147.37 35.8561 146.412C35.8561 145.446 36.0312 144.603 36.3813 143.882C36.7355 143.162 37.2265 142.603 37.8544 142.204C38.4862 141.806 39.2207 141.607 40.0578 141.607C40.895 141.607 41.6274 141.806 42.2553 142.204C42.8871 142.603 43.3782 143.162 43.7283 143.882C44.0825 144.603 44.2595 145.446 44.2595 146.412C44.2595 147.37 44.0825 148.207 43.7283 148.923C43.3782 149.64 42.8871 150.197 42.2553 150.596C41.6274 150.994 40.895 151.193 40.0578 151.193ZM40.0578 149.913C40.6937 149.913 41.2169 149.75 41.6274 149.424C42.038 149.098 42.3418 148.67 42.539 148.138C42.7362 147.607 42.8348 147.032 42.8348 146.412C42.8348 145.792 42.7362 145.215 42.539 144.679C42.3418 144.144 42.038 143.711 41.6274 143.381C41.2169 143.051 40.6937 142.886 40.0578 142.886C39.4219 142.886 38.8987 143.051 38.4882 143.381C38.0777 143.711 37.7739 144.144 37.5767 144.679C37.3795 145.215 37.2809 145.792 37.2809 146.412C37.2809 147.032 37.3795 147.607 37.5767 148.138C37.7739 148.67 38.0777 149.098 38.4882 149.424C38.8987 149.75 39.4219 149.913 40.0578 149.913ZM50.5636 141.727V142.935H45.565V141.727H50.5636ZM47.0622 151V140.447C47.0622 139.916 47.187 139.473 47.4365 139.119C47.686 138.765 48.01 138.5 48.4084 138.322C48.8069 138.145 49.2274 138.057 49.6701 138.057C50.0203 138.057 50.306 138.085 50.5274 138.141C50.7487 138.198 50.9138 138.25 51.0224 138.298L50.6119 139.53C50.5395 139.506 50.4388 139.475 50.3101 139.439C50.1853 139.403 50.0203 139.385 49.815 139.385C49.3441 139.385 49.0041 139.504 48.7948 139.741C48.5895 139.979 48.4869 140.327 48.4869 140.786V151H47.0622ZM61.3742 141.727V142.935H56.5688V141.727H61.3742ZM57.9694 139.506H59.3941V148.344C59.3941 148.746 59.4525 149.048 59.5692 149.249C59.6899 149.446 59.8429 149.579 60.028 149.648C60.2172 149.712 60.4164 149.744 60.6257 149.744C60.7826 149.744 60.9114 149.736 61.012 149.72C61.1126 149.7 61.1931 149.684 61.2535 149.672L61.5433 150.952C61.4467 150.988 61.3119 151.024 61.1388 151.06C60.9657 151.101 60.7464 151.121 60.4808 151.121C60.0783 151.121 59.6839 151.034 59.2975 150.861C58.9152 150.688 58.5973 150.424 58.3437 150.07C58.0942 149.716 57.9694 149.269 57.9694 148.73V139.506ZM65.1413 145.422V151H63.7166V138.636H65.1413V143.176H65.262C65.4794 142.697 65.8054 142.317 66.24 142.035C66.6787 141.749 67.2623 141.607 67.9907 141.607C68.6226 141.607 69.176 141.733 69.6509 141.987C70.1258 142.236 70.494 142.621 70.7556 143.14C71.0213 143.655 71.1541 144.311 71.1541 145.108V151H69.7294V145.205C69.7294 144.468 69.5382 143.899 69.1559 143.496C68.7775 143.09 68.2523 142.886 67.5802 142.886C67.1134 142.886 66.6948 142.985 66.3245 143.182C65.9583 143.379 65.6685 143.667 65.4552 144.045C65.2459 144.424 65.1413 144.883 65.1413 145.422ZM77.6483 151.193C76.7548 151.193 75.9841 150.996 75.3362 150.602C74.6922 150.203 74.1952 149.648 73.845 148.935C73.4989 148.219 73.3259 147.386 73.3259 146.436C73.3259 145.486 73.4989 144.649 73.845 143.925C74.1952 143.196 74.6822 142.629 75.306 142.222C75.9338 141.812 76.6663 141.607 77.5034 141.607C77.9864 141.607 78.4633 141.687 78.9342 141.848C79.4051 142.009 79.8337 142.271 80.22 142.633C80.6064 142.991 80.9143 143.466 81.1437 144.058C81.3731 144.649 81.4878 145.378 81.4878 146.243V146.847H74.3401V145.615H80.0389C80.0389 145.092 79.9343 144.625 79.725 144.214C79.5198 143.804 79.226 143.48 78.8436 143.243C78.4653 143.005 78.0186 142.886 77.5034 142.886C76.9359 142.886 76.4449 143.027 76.0304 143.309C75.6199 143.587 75.304 143.949 75.0826 144.396C74.8613 144.842 74.7506 145.321 74.7506 145.832V146.653C74.7506 147.354 74.8713 147.947 75.1128 148.434C75.3583 148.917 75.6984 149.286 76.133 149.539C76.5677 149.789 77.0728 149.913 77.6483 149.913C78.0226 149.913 78.3607 149.861 78.6625 149.756C78.9684 149.648 79.232 149.487 79.4533 149.273C79.6747 149.056 79.8457 148.786 79.9665 148.464L81.3429 148.851C81.198 149.318 80.9545 149.728 80.6124 150.082C80.2703 150.433 79.8478 150.706 79.3447 150.903C78.8416 151.097 78.2761 151.193 77.6483 151.193ZM88.6295 151V138.636H90.0542V143.2H90.1749C90.2796 143.039 90.4245 142.834 90.6096 142.585C90.7988 142.331 91.0684 142.106 91.4185 141.908C91.7727 141.707 92.2516 141.607 92.8553 141.607C93.6361 141.607 94.3243 141.802 94.92 142.192C95.5156 142.583 95.9805 143.136 96.3145 143.852C96.6485 144.569 96.8156 145.414 96.8156 146.388C96.8156 147.37 96.6485 148.221 96.3145 148.941C95.9805 149.658 95.5176 150.213 94.926 150.608C94.3344 150.998 93.6522 151.193 92.8795 151.193C92.2838 151.193 91.8069 151.095 91.4487 150.897C91.0905 150.696 90.8149 150.469 90.6217 150.215C90.4285 149.958 90.2796 149.744 90.1749 149.575H90.0059V151H88.6295ZM90.0301 146.364C90.0301 147.064 90.1327 147.682 90.3379 148.217C90.5432 148.748 90.843 149.165 91.2374 149.467C91.6319 149.764 92.1148 149.913 92.6863 149.913C93.2819 149.913 93.779 149.756 94.1774 149.442C94.5799 149.125 94.8817 148.698 95.083 148.163C95.2882 147.623 95.3908 147.024 95.3908 146.364C95.3908 145.712 95.2902 145.124 95.089 144.601C94.8918 144.074 94.592 143.657 94.1895 143.351C93.7911 143.041 93.29 142.886 92.6863 142.886C92.1068 142.886 91.6198 143.033 91.2254 143.327C90.831 143.617 90.5331 144.023 90.3319 144.547C90.1307 145.066 90.0301 145.671 90.0301 146.364ZM101.724 151.217C101.136 151.217 100.603 151.107 100.124 150.885C99.6449 150.66 99.2645 150.336 98.9828 149.913C98.7011 149.487 98.5602 148.972 98.5602 148.368C98.5602 147.837 98.6649 147.406 98.8742 147.076C99.0834 146.742 99.3631 146.48 99.7133 146.291C100.063 146.102 100.45 145.961 100.872 145.869C101.299 145.772 101.728 145.696 102.158 145.639C102.722 145.567 103.178 145.512 103.529 145.476C103.883 145.436 104.14 145.37 104.301 145.277C104.466 145.184 104.549 145.023 104.549 144.794V144.746C104.549 144.15 104.386 143.687 104.06 143.357C103.738 143.027 103.249 142.862 102.593 142.862C101.913 142.862 101.379 143.011 100.993 143.309C100.607 143.607 100.335 143.925 100.178 144.263L98.8259 143.78C99.0673 143.216 99.3893 142.778 99.7918 142.464C100.198 142.146 100.641 141.924 101.12 141.8C101.603 141.671 102.078 141.607 102.545 141.607C102.842 141.607 103.185 141.643 103.571 141.715C103.961 141.784 104.338 141.926 104.7 142.144C105.066 142.361 105.37 142.689 105.611 143.128C105.853 143.567 105.974 144.154 105.974 144.891V151H104.549V149.744H104.476C104.38 149.946 104.219 150.161 103.993 150.39C103.768 150.62 103.468 150.815 103.094 150.976C102.72 151.137 102.263 151.217 101.724 151.217ZM101.941 149.938C102.504 149.938 102.979 149.827 103.366 149.605C103.756 149.384 104.05 149.098 104.247 148.748C104.448 148.398 104.549 148.03 104.549 147.643V146.339C104.489 146.412 104.356 146.478 104.15 146.539C103.949 146.595 103.716 146.645 103.45 146.69C103.189 146.73 102.933 146.766 102.683 146.798C102.438 146.826 102.239 146.851 102.086 146.871C101.716 146.919 101.369 146.998 101.047 147.106C100.73 147.211 100.472 147.37 100.275 147.583C100.082 147.792 99.985 148.078 99.985 148.44C99.985 148.935 100.168 149.31 100.534 149.563C100.905 149.813 101.373 149.938 101.941 149.938ZM112.341 151.193C111.472 151.193 110.723 150.988 110.095 150.577C109.467 150.167 108.985 149.601 108.646 148.881C108.308 148.161 108.139 147.338 108.139 146.412C108.139 145.47 108.312 144.639 108.659 143.919C109.009 143.194 109.496 142.629 110.119 142.222C110.747 141.812 111.48 141.607 112.317 141.607C112.969 141.607 113.556 141.727 114.08 141.969C114.603 142.21 115.032 142.548 115.366 142.983C115.7 143.418 115.907 143.925 115.987 144.504H114.563C114.454 144.082 114.212 143.707 113.838 143.381C113.468 143.051 112.969 142.886 112.341 142.886C111.786 142.886 111.299 143.031 110.88 143.321C110.466 143.607 110.142 144.011 109.908 144.534C109.679 145.054 109.564 145.663 109.564 146.364C109.564 147.08 109.677 147.704 109.902 148.235C110.132 148.766 110.453 149.179 110.868 149.473C111.287 149.766 111.778 149.913 112.341 149.913C112.711 149.913 113.047 149.849 113.349 149.72C113.651 149.591 113.907 149.406 114.116 149.165C114.325 148.923 114.474 148.634 114.563 148.295H115.987C115.907 148.843 115.708 149.336 115.39 149.775C115.076 150.209 114.659 150.555 114.14 150.813C113.625 151.066 113.025 151.193 112.341 151.193ZM119.398 147.619L119.374 145.857H119.664L123.721 141.727H125.483L121.161 146.098H121.04L119.398 147.619ZM118.07 151V138.636H119.495V151H118.07ZM123.962 151L120.34 146.412L121.354 145.422L125.773 151H123.962Z" fill="#F1B314"/>
<path d="M76.2957 53.3634L57.944 84C57.5656 84.6553 57.3654 85.3982 57.3633 86.1548C57.3612 86.9115 57.5572 87.6555 57.9319 88.3128C58.3066 88.9702 58.8469 89.518 59.499 89.9017C60.1512 90.2854 60.8924 90.4917 61.649 90.5H98.3523C99.1089 90.4917 99.8502 90.2854 100.502 89.9017C101.154 89.518 101.695 88.9702 102.069 88.3128C102.444 87.6555 102.64 86.9115 102.638 86.1548C102.636 85.3982 102.436 84.6553 102.057 84L83.7057 53.3634C83.3194 52.7266 82.7756 52.2001 82.1266 51.8347C81.4776 51.4694 80.7454 51.2774 80.0007 51.2774C79.2559 51.2774 78.5237 51.4694 77.8747 51.8347C77.2258 52.2001 76.6819 52.7266 76.2957 53.3634V53.3634Z" stroke="#F1B314" stroke-width="2" stroke-linecap="round" stroke-linejoin="round"/>
<path d="M80 64.5V73.1667" stroke="#F1B314" stroke-width="2" stroke-linecap="round" stroke-linejoin="round"/>
<path d="M80 81.8333H80.0217" stroke="#F1B314" stroke-width="2" stroke-linecap="round" stroke-linejoin="round"/>
<rect x="1" y="1" width="158" height="178" rx="3" stroke="#F1B314" stroke-width="2"/>
</svg>
