<svg width="160" height="180" viewBox="0 0 160 180" fill="none" xmlns="http://www.w3.org/2000/svg">
<rect x="1" y="1" width="158" height="178" rx="3" fill="white"/>
<path d="M28.6314 130V117.636H32.809C33.7749 117.636 34.5678 117.801 35.1875 118.131C35.8073 118.457 36.2661 118.906 36.564 119.478C36.8618 120.049 37.0107 120.699 37.0107 121.428C37.0107 122.156 36.8618 122.802 36.564 123.365C36.2661 123.929 35.8093 124.372 35.1936 124.694C34.5778 125.011 33.791 125.17 32.8331 125.17H29.4525V123.818H32.7848C33.4449 123.818 33.9761 123.722 34.3786 123.528C34.7851 123.335 35.0789 123.062 35.26 122.707C35.4451 122.349 35.5377 121.923 35.5377 121.428C35.5377 120.933 35.4451 120.5 35.26 120.13C35.0749 119.759 34.779 119.474 34.3726 119.272C33.9661 119.067 33.4288 118.964 32.7607 118.964H30.1286V130H28.6314ZM34.451 124.446L37.4937 130H35.755L32.7607 124.446H34.451ZM43.1005 130.193C42.207 130.193 41.4363 129.996 40.7883 129.602C40.1444 129.203 39.6473 128.648 39.2972 127.935C38.9511 127.219 38.778 126.386 38.778 125.436C38.778 124.486 38.9511 123.649 39.2972 122.925C39.6473 122.196 40.1343 121.629 40.7581 121.222C41.386 120.812 42.1184 120.607 42.9556 120.607C43.4385 120.607 43.9154 120.687 44.3863 120.848C44.8572 121.009 45.2858 121.271 45.6722 121.633C46.0585 121.991 46.3664 122.466 46.5958 123.058C46.8252 123.649 46.9399 124.378 46.9399 125.243V125.847H39.7922V124.615H45.4911C45.4911 124.092 45.3864 123.625 45.1772 123.214C44.9719 122.804 44.6781 122.48 44.2958 122.243C43.9175 122.005 43.4707 121.886 42.9556 121.886C42.3881 121.886 41.8971 122.027 41.4826 122.309C41.072 122.587 40.7561 122.949 40.5348 123.396C40.3134 123.842 40.2027 124.321 40.2027 124.832V125.653C40.2027 126.354 40.3235 126.947 40.5649 127.434C40.8104 127.917 41.1505 128.286 41.5852 128.539C42.0198 128.789 42.5249 128.913 43.1005 128.913C43.4747 128.913 43.8128 128.861 44.1147 128.756C44.4205 128.648 44.6841 128.487 44.9055 128.273C45.1268 128.056 45.2979 127.786 45.4186 127.464L46.7951 127.851C46.6502 128.318 46.4067 128.728 46.0646 129.082C45.7225 129.433 45.2999 129.706 44.7968 129.903C44.2938 130.097 43.7283 130.193 43.1005 130.193ZM53.1399 120.727V121.935H48.3345V120.727H53.1399ZM49.735 118.506H51.1598V127.344C51.1598 127.746 51.2181 128.048 51.3348 128.249C51.4556 128.446 51.6085 128.579 51.7936 128.648C51.9828 128.712 52.182 128.744 52.3913 128.744C52.5483 128.744 52.677 128.736 52.7777 128.72C52.8783 128.7 52.9588 128.684 53.0191 128.672L53.3089 129.952C53.2123 129.988 53.0775 130.024 52.9044 130.06C52.7314 130.101 52.512 130.121 52.2464 130.121C51.8439 130.121 51.4495 130.034 51.0632 129.861C50.6808 129.688 50.3629 129.424 50.1093 129.07C49.8598 128.716 49.735 128.269 49.735 127.73V118.506ZM58.0117 130.217C57.4241 130.217 56.8908 130.107 56.4119 129.885C55.933 129.66 55.5526 129.336 55.2709 128.913C54.9892 128.487 54.8483 127.972 54.8483 127.368C54.8483 126.837 54.953 126.406 55.1622 126.076C55.3715 125.742 55.6512 125.48 56.0014 125.291C56.3515 125.102 56.7379 124.961 57.1605 124.869C57.5871 124.772 58.0157 124.696 58.4463 124.639C59.0098 124.567 59.4666 124.512 59.8167 124.476C60.1709 124.436 60.4285 124.37 60.5894 124.277C60.7545 124.184 60.837 124.023 60.837 123.794V123.746C60.837 123.15 60.674 122.687 60.348 122.357C60.026 122.027 59.537 121.862 58.881 121.862C58.2008 121.862 57.6676 122.011 57.2812 122.309C56.8948 122.607 56.6232 122.925 56.4662 123.263L55.1139 122.78C55.3554 122.216 55.6774 121.778 56.0799 121.464C56.4863 121.146 56.9291 120.924 57.408 120.8C57.8909 120.671 58.3658 120.607 58.8327 120.607C59.1305 120.607 59.4726 120.643 59.859 120.715C60.2494 120.784 60.6257 120.926 60.9879 121.144C61.3541 121.361 61.658 121.689 61.8995 122.128C62.1409 122.567 62.2617 123.154 62.2617 123.891V130H60.837V128.744H60.7645C60.6679 128.946 60.5069 129.161 60.2816 129.39C60.0562 129.62 59.7563 129.815 59.3821 129.976C59.0078 130.137 58.551 130.217 58.0117 130.217ZM58.229 128.938C58.7925 128.938 59.2674 128.827 59.6537 128.605C60.0441 128.384 60.3379 128.098 60.5351 127.748C60.7363 127.398 60.837 127.03 60.837 126.643V125.339C60.7766 125.412 60.6438 125.478 60.4385 125.539C60.2373 125.595 60.0039 125.645 59.7382 125.69C59.4766 125.73 59.2211 125.766 58.9715 125.798C58.726 125.826 58.5268 125.851 58.3739 125.871C58.0036 125.919 57.6575 125.998 57.3355 126.106C57.0176 126.211 56.76 126.37 56.5628 126.583C56.3696 126.792 56.273 127.078 56.273 127.44C56.273 127.935 56.4562 128.31 56.8224 128.563C57.1927 128.813 57.6615 128.938 58.229 128.938ZM66.1902 126.619L66.1661 124.857H66.4558L70.5127 120.727H72.2754L67.953 125.098H67.8323L66.1902 126.619ZM64.8621 130V117.636H66.2868V130H64.8621ZM70.7541 130L67.132 125.412L68.1462 124.422L72.5652 130H70.7541ZM77.6151 130.193C76.7216 130.193 75.9509 129.996 75.303 129.602C74.659 129.203 74.162 128.648 73.8118 127.935C73.4657 127.219 73.2927 126.386 73.2927 125.436C73.2927 124.486 73.4657 123.649 73.8118 122.925C74.162 122.196 74.649 121.629 75.2728 121.222C75.9006 120.812 76.6331 120.607 77.4702 120.607C77.9532 120.607 78.4301 120.687 78.901 120.848C79.3718 121.009 79.8005 121.271 80.1868 121.633C80.5732 121.991 80.8811 122.466 81.1105 123.058C81.3399 123.649 81.4546 124.378 81.4546 125.243V125.847H74.3069V124.615H80.0057C80.0057 124.092 79.9011 123.625 79.6918 123.214C79.4866 122.804 79.1928 122.48 78.8104 122.243C78.4321 122.005 77.9854 121.886 77.4702 121.886C76.9027 121.886 76.4117 122.027 75.9972 122.309C75.5867 122.587 75.2708 122.949 75.0494 123.396C74.8281 123.842 74.7174 124.321 74.7174 124.832V125.653C74.7174 126.354 74.8381 126.947 75.0796 127.434C75.3251 127.917 75.6652 128.286 76.0998 128.539C76.5345 128.789 77.0396 128.913 77.6151 128.913C77.9894 128.913 78.3275 128.861 78.6293 128.756C78.9352 128.648 79.1988 128.487 79.4201 128.273C79.6415 128.056 79.8125 127.786 79.9333 127.464L81.3097 127.851C81.1648 128.318 80.9213 128.728 80.5792 129.082C80.2371 129.433 79.8146 129.706 79.3115 129.903C78.8084 130.097 78.2429 130.193 77.6151 130.193ZM88.4031 133.477V120.727H89.7795V122.2H89.9486C90.0532 122.039 90.1981 121.834 90.3832 121.585C90.5724 121.331 90.842 121.106 91.1922 120.908C91.5463 120.707 92.0253 120.607 92.629 120.607C93.4097 120.607 94.0979 120.802 94.6936 121.192C95.2892 121.583 95.7541 122.136 96.0881 122.852C96.4222 123.569 96.5892 124.414 96.5892 125.388C96.5892 126.37 96.4222 127.221 96.0881 127.941C95.7541 128.658 95.2912 129.213 94.6996 129.608C94.108 129.998 93.4258 130.193 92.6531 130.193C92.0575 130.193 91.5805 130.095 91.2223 129.897C90.8642 129.696 90.5885 129.469 90.3953 129.215C90.2021 128.958 90.0532 128.744 89.9486 128.575H89.8278V133.477H88.4031ZM89.8037 125.364C89.8037 126.064 89.9063 126.682 90.1116 127.217C90.3168 127.748 90.6166 128.165 91.0111 128.467C91.4055 128.764 91.8884 128.913 92.4599 128.913C93.0556 128.913 93.5526 128.756 93.951 128.442C94.3535 128.125 94.6553 127.698 94.8566 127.163C95.0618 126.623 95.1645 126.024 95.1645 125.364C95.1645 124.712 95.0638 124.124 94.8626 123.601C94.6654 123.074 94.3656 122.657 93.9631 122.351C93.5647 122.041 93.0636 121.886 92.4599 121.886C91.8804 121.886 91.3934 122.033 90.999 122.327C90.6046 122.617 90.3067 123.023 90.1055 123.547C89.9043 124.066 89.8037 124.671 89.8037 125.364ZM100.187 124.422V130H98.7625V117.636H100.187V122.176H100.308C100.525 121.697 100.851 121.317 101.286 121.035C101.725 120.749 102.308 120.607 103.037 120.607C103.668 120.607 104.222 120.733 104.697 120.987C105.172 121.236 105.54 121.621 105.802 122.14C106.067 122.655 106.2 123.311 106.2 124.108V130H104.775V124.205C104.775 123.468 104.584 122.899 104.202 122.496C103.823 122.09 103.298 121.886 102.626 121.886C102.159 121.886 101.741 121.985 101.37 122.182C101.004 122.379 100.714 122.667 100.501 123.045C100.292 123.424 100.187 123.883 100.187 124.422ZM112.573 130.193C111.736 130.193 111.002 129.994 110.37 129.596C109.742 129.197 109.251 128.64 108.897 127.923C108.547 127.207 108.372 126.37 108.372 125.412C108.372 124.446 108.547 123.603 108.897 122.882C109.251 122.162 109.742 121.603 110.37 121.204C111.002 120.806 111.736 120.607 112.573 120.607C113.411 120.607 114.143 120.806 114.771 121.204C115.403 121.603 115.894 122.162 116.244 122.882C116.598 123.603 116.775 124.446 116.775 125.412C116.775 126.37 116.598 127.207 116.244 127.923C115.894 128.64 115.403 129.197 114.771 129.596C114.143 129.994 113.411 130.193 112.573 130.193ZM112.573 128.913C113.209 128.913 113.733 128.75 114.143 128.424C114.554 128.098 114.857 127.67 115.055 127.138C115.252 126.607 115.35 126.032 115.35 125.412C115.35 124.792 115.252 124.215 115.055 123.679C114.857 123.144 114.554 122.711 114.143 122.381C113.733 122.051 113.209 121.886 112.573 121.886C111.938 121.886 111.414 122.051 111.004 122.381C110.593 122.711 110.289 123.144 110.092 123.679C109.895 124.215 109.796 124.792 109.796 125.412C109.796 126.032 109.895 126.607 110.092 127.138C110.289 127.67 110.593 128.098 111.004 128.424C111.414 128.75 111.938 128.913 112.573 128.913ZM122.983 120.727V121.935H118.177V120.727H122.983ZM119.578 118.506H121.003V127.344C121.003 127.746 121.061 128.048 121.178 128.249C121.298 128.446 121.451 128.579 121.636 128.648C121.826 128.712 122.025 128.744 122.234 128.744C122.391 128.744 122.52 128.736 122.62 128.72C122.721 128.7 122.802 128.684 122.862 128.672L123.152 129.952C123.055 129.988 122.92 130.024 122.747 130.06C122.574 130.101 122.355 130.121 122.089 130.121C121.687 130.121 121.292 130.034 120.906 129.861C120.524 129.688 120.206 129.424 119.952 129.07C119.703 128.716 119.578 128.269 119.578 127.73V118.506ZM128.793 130.193C127.956 130.193 127.222 129.994 126.59 129.596C125.962 129.197 125.471 128.64 125.117 127.923C124.767 127.207 124.591 126.37 124.591 125.412C124.591 124.446 124.767 123.603 125.117 122.882C125.471 122.162 125.962 121.603 126.59 121.204C127.222 120.806 127.956 120.607 128.793 120.607C129.63 120.607 130.363 120.806 130.991 121.204C131.622 121.603 132.114 122.162 132.464 122.882C132.818 123.603 132.995 124.446 132.995 125.412C132.995 126.37 132.818 127.207 132.464 127.923C132.114 128.64 131.622 129.197 130.991 129.596C130.363 129.994 129.63 130.193 128.793 130.193ZM128.793 128.913C129.429 128.913 129.952 128.75 130.363 128.424C130.773 128.098 131.077 127.67 131.274 127.138C131.472 126.607 131.57 126.032 131.57 125.412C131.57 124.792 131.472 124.215 131.274 123.679C131.077 123.144 130.773 122.711 130.363 122.381C129.952 122.051 129.429 121.886 128.793 121.886C128.157 121.886 127.634 122.051 127.224 122.381C126.813 122.711 126.509 123.144 126.312 123.679C126.115 124.215 126.016 124.792 126.016 125.412C126.016 126.032 126.115 126.607 126.312 127.138C126.509 127.67 126.813 128.098 127.224 128.424C127.634 128.75 128.157 128.913 128.793 128.913ZM40.282 151.193C39.4448 151.193 38.7103 150.994 38.0785 150.596C37.4506 150.197 36.9596 149.64 36.6055 148.923C36.2553 148.207 36.0803 147.37 36.0803 146.412C36.0803 145.446 36.2553 144.603 36.6055 143.882C36.9596 143.162 37.4506 142.603 38.0785 142.204C38.7103 141.806 39.4448 141.607 40.282 141.607C41.1191 141.607 41.8516 141.806 42.4794 142.204C43.1113 142.603 43.6023 143.162 43.9524 143.882C44.3066 144.603 44.4837 145.446 44.4837 146.412C44.4837 147.37 44.3066 148.207 43.9524 148.923C43.6023 149.64 43.1113 150.197 42.4794 150.596C41.8516 150.994 41.1191 151.193 40.282 151.193ZM40.282 149.913C40.9179 149.913 41.4411 149.75 41.8516 149.424C42.2621 149.098 42.5659 148.67 42.7631 148.138C42.9603 147.607 43.0589 147.032 43.0589 146.412C43.0589 145.792 42.9603 145.215 42.7631 144.679C42.5659 144.144 42.2621 143.711 41.8516 143.381C41.4411 143.051 40.9179 142.886 40.282 142.886C39.6461 142.886 39.1229 143.051 38.7124 143.381C38.3018 143.711 37.998 144.144 37.8008 144.679C37.6036 145.215 37.505 145.792 37.505 146.412C37.505 147.032 37.6036 147.607 37.8008 148.138C37.998 148.67 38.3018 149.098 38.7124 149.424C39.1229 149.75 39.6461 149.913 40.282 149.913ZM50.7877 141.727V142.935H45.7892V141.727H50.7877ZM47.2863 151V140.447C47.2863 139.916 47.4111 139.473 47.6606 139.119C47.9101 138.765 48.2341 138.5 48.6325 138.322C49.031 138.145 49.4516 138.057 49.8943 138.057C50.2444 138.057 50.5302 138.085 50.7515 138.141C50.9729 138.198 51.1379 138.25 51.2465 138.298L50.836 139.53C50.7636 139.506 50.663 139.475 50.5342 139.439C50.4094 139.403 50.2444 139.385 50.0392 139.385C49.5683 139.385 49.2282 139.504 49.0189 139.741C48.8137 139.979 48.711 140.327 48.711 140.786V151H47.2863ZM61.5984 141.727V142.935H56.793V141.727H61.5984ZM58.1935 139.506H59.6183V148.344C59.6183 148.746 59.6766 149.048 59.7933 149.249C59.9141 149.446 60.067 149.579 60.2521 149.648C60.4413 149.712 60.6405 149.744 60.8498 149.744C61.0067 149.744 61.1355 149.736 61.2362 149.72C61.3368 149.7 61.4173 149.684 61.4776 149.672L61.7674 150.952C61.6708 150.988 61.536 151.024 61.3629 151.06C61.1899 151.101 60.9705 151.121 60.7049 151.121C60.3024 151.121 59.908 151.034 59.5217 150.861C59.1393 150.688 58.8214 150.424 58.5678 150.07C58.3183 149.716 58.1935 149.269 58.1935 148.73V139.506ZM65.3654 145.422V151H63.9407V138.636H65.3654V143.176H65.4862C65.7035 142.697 66.0295 142.317 66.4641 142.035C66.9028 141.749 67.4864 141.607 68.2148 141.607C68.8467 141.607 69.4001 141.733 69.875 141.987C70.3499 142.236 70.7182 142.621 70.9798 143.14C71.2454 143.655 71.3782 144.311 71.3782 145.108V151H69.9535V145.205C69.9535 144.468 69.7623 143.899 69.38 143.496C69.0017 143.09 68.4764 142.886 67.8043 142.886C67.3375 142.886 66.9189 142.985 66.5487 143.182C66.1824 143.379 65.8926 143.667 65.6793 144.045C65.4701 144.424 65.3654 144.883 65.3654 145.422ZM77.8724 151.193C76.979 151.193 76.2082 150.996 75.5603 150.602C74.9163 150.203 74.4193 149.648 74.0692 148.935C73.723 148.219 73.55 147.386 73.55 146.436C73.55 145.486 73.723 144.649 74.0692 143.925C74.4193 143.196 74.9063 142.629 75.5301 142.222C76.1579 141.812 76.8904 141.607 77.7275 141.607C78.2105 141.607 78.6874 141.687 79.1583 141.848C79.6292 142.009 80.0578 142.271 80.4442 142.633C80.8305 142.991 81.1384 143.466 81.3678 144.058C81.5972 144.649 81.7119 145.378 81.7119 146.243V146.847H74.5642V145.615H80.2631C80.2631 145.092 80.1584 144.625 79.9491 144.214C79.7439 143.804 79.4501 143.48 79.0677 143.243C78.6894 143.005 78.2427 142.886 77.7275 142.886C77.1601 142.886 76.6691 143.027 76.2545 143.309C75.844 143.587 75.5281 143.949 75.3067 144.396C75.0854 144.842 74.9747 145.321 74.9747 145.832V146.653C74.9747 147.354 75.0954 147.947 75.3369 148.434C75.5824 148.917 75.9225 149.286 76.3572 149.539C76.7918 149.789 77.2969 149.913 77.8724 149.913C78.2467 149.913 78.5848 149.861 78.8866 149.756C79.1925 149.648 79.4561 149.487 79.6775 149.273C79.8988 149.056 80.0699 148.786 80.1906 148.464L81.567 148.851C81.4221 149.318 81.1787 149.728 80.8366 150.082C80.4945 150.433 80.0719 150.706 79.5688 150.903C79.0657 151.097 78.5003 151.193 77.8724 151.193ZM92.7897 141.727V142.935H87.7911V141.727H92.7897ZM89.2883 151V140.447C89.2883 139.916 89.413 139.473 89.6626 139.119C89.9121 138.765 90.2361 138.5 90.6345 138.322C91.0329 138.145 91.4535 138.057 91.8962 138.057C92.2464 138.057 92.5321 138.085 92.7535 138.141C92.9748 138.198 93.1398 138.25 93.2485 138.298L92.838 139.53C92.7655 139.506 92.6649 139.475 92.5361 139.439C92.4114 139.403 92.2464 139.385 92.0411 139.385C91.5702 139.385 91.2301 139.504 91.0209 139.741C90.8156 139.979 90.713 140.327 90.713 140.786V151H89.2883ZM94.7864 151V141.727H96.1628V143.128H96.2594C96.4284 142.669 96.7343 142.297 97.177 142.011C97.6197 141.725 98.1188 141.582 98.6742 141.582C98.7788 141.582 98.9096 141.584 99.0666 141.588C99.2235 141.592 99.3423 141.598 99.4228 141.607V143.055C99.3745 143.043 99.2638 143.025 99.0907 143.001C98.9217 142.973 98.7426 142.959 98.5534 142.959C98.1027 142.959 97.7002 143.053 97.3461 143.243C96.9959 143.428 96.7182 143.685 96.513 144.015C96.3117 144.341 96.2111 144.714 96.2111 145.132V151H94.7864ZM104.596 151.193C103.759 151.193 103.025 150.994 102.393 150.596C101.765 150.197 101.274 149.64 100.92 148.923C100.57 148.207 100.395 147.37 100.395 146.412C100.395 145.446 100.57 144.603 100.92 143.882C101.274 143.162 101.765 142.603 102.393 142.204C103.025 141.806 103.759 141.607 104.596 141.607C105.434 141.607 106.166 141.806 106.794 142.204C107.426 142.603 107.917 143.162 108.267 143.882C108.621 144.603 108.798 145.446 108.798 146.412C108.798 147.37 108.621 148.207 108.267 148.923C107.917 149.64 107.426 150.197 106.794 150.596C106.166 150.994 105.434 151.193 104.596 151.193ZM104.596 149.913C105.232 149.913 105.756 149.75 106.166 149.424C106.577 149.098 106.88 148.67 107.078 148.138C107.275 147.607 107.373 147.032 107.373 146.412C107.373 145.792 107.275 145.215 107.078 144.679C106.88 144.144 106.577 143.711 106.166 143.381C105.756 143.051 105.232 142.886 104.596 142.886C103.961 142.886 103.437 143.051 103.027 143.381C102.616 143.711 102.312 144.144 102.115 144.679C101.918 145.215 101.819 145.792 101.819 146.412C101.819 147.032 101.918 147.607 102.115 148.138C102.312 148.67 102.616 149.098 103.027 149.424C103.437 149.75 103.961 149.913 104.596 149.913ZM112.398 145.422V151H110.973V141.727H112.349V143.176H112.47C112.687 142.705 113.017 142.327 113.46 142.041C113.903 141.751 114.474 141.607 115.175 141.607C115.802 141.607 116.352 141.735 116.823 141.993C117.294 142.246 117.66 142.633 117.921 143.152C118.183 143.667 118.314 144.319 118.314 145.108V151H116.889V145.205C116.889 144.476 116.7 143.909 116.322 143.502C115.943 143.092 115.424 142.886 114.764 142.886C114.309 142.886 113.903 142.985 113.545 143.182C113.19 143.379 112.911 143.667 112.706 144.045C112.5 144.424 112.398 144.883 112.398 145.422ZM124.95 141.727V142.935H120.145V141.727H124.95ZM121.545 139.506H122.97V148.344C122.97 148.746 123.028 149.048 123.145 149.249C123.266 149.446 123.419 149.579 123.604 149.648C123.793 149.712 123.992 149.744 124.201 149.744C124.358 149.744 124.487 149.736 124.588 149.72C124.688 149.7 124.769 149.684 124.829 149.672L125.119 150.952C125.022 150.988 124.888 151.024 124.714 151.06C124.541 151.101 124.322 151.121 124.056 151.121C123.654 151.121 123.26 151.034 122.873 150.861C122.491 150.688 122.173 150.424 121.919 150.07C121.67 149.716 121.545 149.269 121.545 148.73V139.506Z" fill="#F1B314"/>
<path d="M76.2957 53.3634L57.944 84C57.5656 84.6553 57.3654 85.3982 57.3633 86.1548C57.3612 86.9115 57.5572 87.6555 57.9319 88.3128C58.3066 88.9702 58.8469 89.518 59.499 89.9017C60.1512 90.2854 60.8924 90.4917 61.649 90.5H98.3523C99.1089 90.4917 99.8502 90.2854 100.502 89.9017C101.154 89.518 101.695 88.9702 102.069 88.3128C102.444 87.6555 102.64 86.9115 102.638 86.1548C102.636 85.3982 102.436 84.6553 102.057 84L83.7057 53.3634C83.3194 52.7266 82.7756 52.2001 82.1266 51.8347C81.4776 51.4694 80.7454 51.2774 80.0007 51.2774C79.2559 51.2774 78.5237 51.4694 77.8747 51.8347C77.2258 52.2001 76.6819 52.7266 76.2957 53.3634V53.3634Z" stroke="#F1B314" stroke-width="2" stroke-linecap="round" stroke-linejoin="round"/>
<path d="M80 64.5V73.1667" stroke="#F1B314" stroke-width="2" stroke-linecap="round" stroke-linejoin="round"/>
<path d="M80 81.8333H80.0217" stroke="#F1B314" stroke-width="2" stroke-linecap="round" stroke-linejoin="round"/>
<rect x="1" y="1" width="158" height="178" rx="3" stroke="#F1B314" stroke-width="2"/>
</svg>
