<svg width="160" height="180" viewBox="0 0 160 180" fill="none" xmlns="http://www.w3.org/2000/svg">
<rect x="1" y="1" width="158" height="178" rx="3" fill="white"/>
<path d="M28.1314 133V120.636H32.309C33.2749 120.636 34.0678 120.801 34.6875 121.131C35.3073 121.457 35.7661 121.906 36.064 122.478C36.3618 123.049 36.5107 123.699 36.5107 124.428C36.5107 125.156 36.3618 125.802 36.064 126.365C35.7661 126.929 35.3093 127.372 34.6936 127.694C34.0778 128.011 33.291 128.17 32.3331 128.17H28.9525V126.818H32.2848C32.9449 126.818 33.4761 126.722 33.8786 126.528C34.2851 126.335 34.5789 126.062 34.76 125.707C34.9451 125.349 35.0377 124.923 35.0377 124.428C35.0377 123.933 34.9451 123.5 34.76 123.13C34.5749 122.759 34.279 122.474 33.8726 122.272C33.4661 122.067 32.9288 121.964 32.2607 121.964H29.6286V133H28.1314ZM33.951 127.446L36.9937 133H35.255L32.2607 127.446H33.951ZM42.6005 133.193C41.707 133.193 40.9363 132.996 40.2883 132.602C39.6444 132.203 39.1473 131.648 38.7972 130.935C38.4511 130.219 38.278 129.386 38.278 128.436C38.278 127.486 38.4511 126.649 38.7972 125.925C39.1473 125.196 39.6343 124.629 40.2581 124.222C40.886 123.812 41.6184 123.607 42.4556 123.607C42.9385 123.607 43.4154 123.687 43.8863 123.848C44.3572 124.009 44.7858 124.271 45.1722 124.633C45.5585 124.991 45.8664 125.466 46.0958 126.058C46.3252 126.649 46.4399 127.378 46.4399 128.243V128.847H39.2922V127.615H44.9911C44.9911 127.092 44.8864 126.625 44.6772 126.214C44.4719 125.804 44.1781 125.48 43.7958 125.243C43.4175 125.005 42.9707 124.886 42.4556 124.886C41.8881 124.886 41.3971 125.027 40.9826 125.309C40.572 125.587 40.2561 125.949 40.0348 126.396C39.8134 126.842 39.7027 127.321 39.7027 127.832V128.653C39.7027 129.354 39.8235 129.947 40.0649 130.434C40.3104 130.917 40.6505 131.286 41.0852 131.539C41.5198 131.789 42.0249 131.913 42.6005 131.913C42.9747 131.913 43.3128 131.861 43.6147 131.756C43.9205 131.648 44.1841 131.487 44.4055 131.273C44.6268 131.056 44.7979 130.786 44.9186 130.464L46.2951 130.851C46.1502 131.318 45.9067 131.728 45.5646 132.082C45.2225 132.433 44.7999 132.706 44.2968 132.903C43.7938 133.097 43.2283 133.193 42.6005 133.193ZM52.6399 123.727V124.935H47.8345V123.727H52.6399ZM49.235 121.506H50.6598V130.344C50.6598 130.746 50.7181 131.048 50.8348 131.249C50.9556 131.446 51.1085 131.579 51.2936 131.648C51.4828 131.712 51.682 131.744 51.8913 131.744C52.0483 131.744 52.177 131.736 52.2777 131.72C52.3783 131.7 52.4588 131.684 52.5191 131.672L52.8089 132.952C52.7123 132.988 52.5775 133.024 52.4044 133.06C52.2314 133.101 52.012 133.121 51.7464 133.121C51.3439 133.121 50.9495 133.034 50.5632 132.861C50.1808 132.688 49.8629 132.424 49.6093 132.07C49.3598 131.716 49.235 131.269 49.235 130.73V121.506ZM57.5117 133.217C56.9241 133.217 56.3908 133.107 55.9119 132.885C55.433 132.66 55.0526 132.336 54.7709 131.913C54.4892 131.487 54.3483 130.972 54.3483 130.368C54.3483 129.837 54.453 129.406 54.6622 129.076C54.8715 128.742 55.1512 128.48 55.5014 128.291C55.8515 128.102 56.2379 127.961 56.6605 127.869C57.0871 127.772 57.5157 127.696 57.9463 127.639C58.5098 127.567 58.9666 127.512 59.3167 127.476C59.6709 127.436 59.9285 127.37 60.0894 127.277C60.2545 127.184 60.337 127.023 60.337 126.794V126.746C60.337 126.15 60.174 125.687 59.848 125.357C59.526 125.027 59.037 124.862 58.381 124.862C57.7008 124.862 57.1676 125.011 56.7812 125.309C56.3948 125.607 56.1232 125.925 55.9662 126.263L54.6139 125.78C54.8554 125.216 55.1774 124.778 55.5799 124.464C55.9863 124.146 56.4291 123.924 56.908 123.8C57.3909 123.671 57.8658 123.607 58.3327 123.607C58.6305 123.607 58.9726 123.643 59.359 123.715C59.7494 123.784 60.1257 123.926 60.4879 124.144C60.8541 124.361 61.158 124.689 61.3995 125.128C61.6409 125.567 61.7617 126.154 61.7617 126.891V133H60.337V131.744H60.2645C60.1679 131.946 60.0069 132.161 59.7816 132.39C59.5562 132.62 59.2563 132.815 58.8821 132.976C58.5078 133.137 58.051 133.217 57.5117 133.217ZM57.729 131.938C58.2925 131.938 58.7674 131.827 59.1537 131.605C59.5441 131.384 59.8379 131.098 60.0351 130.748C60.2363 130.398 60.337 130.03 60.337 129.643V128.339C60.2766 128.412 60.1438 128.478 59.9385 128.539C59.7373 128.595 59.5039 128.645 59.2382 128.69C58.9766 128.73 58.7211 128.766 58.4715 128.798C58.226 128.826 58.0268 128.851 57.8739 128.871C57.5036 128.919 57.1575 128.998 56.8355 129.106C56.5176 129.211 56.26 129.37 56.0628 129.583C55.8696 129.792 55.773 130.078 55.773 130.44C55.773 130.935 55.9562 131.31 56.3224 131.563C56.6927 131.813 57.1615 131.938 57.729 131.938ZM65.6902 129.619L65.6661 127.857H65.9558L70.0127 123.727H71.7754L67.453 128.098H67.3323L65.6902 129.619ZM64.3621 133V120.636H65.7868V133H64.3621ZM70.2541 133L66.632 128.412L67.6462 127.422L72.0652 133H70.2541ZM77.1151 133.193C76.2216 133.193 75.4509 132.996 74.803 132.602C74.159 132.203 73.662 131.648 73.3118 130.935C72.9657 130.219 72.7927 129.386 72.7927 128.436C72.7927 127.486 72.9657 126.649 73.3118 125.925C73.662 125.196 74.149 124.629 74.7728 124.222C75.4006 123.812 76.1331 123.607 76.9702 123.607C77.4532 123.607 77.9301 123.687 78.401 123.848C78.8718 124.009 79.3005 124.271 79.6868 124.633C80.0732 124.991 80.3811 125.466 80.6105 126.058C80.8399 126.649 80.9546 127.378 80.9546 128.243V128.847H73.8069V127.615H79.5057C79.5057 127.092 79.4011 126.625 79.1918 126.214C78.9866 125.804 78.6928 125.48 78.3104 125.243C77.9321 125.005 77.4854 124.886 76.9702 124.886C76.4027 124.886 75.9117 125.027 75.4972 125.309C75.0867 125.587 74.7708 125.949 74.5494 126.396C74.3281 126.842 74.2174 127.321 74.2174 127.832V128.653C74.2174 129.354 74.3381 129.947 74.5796 130.434C74.8251 130.917 75.1652 131.286 75.5998 131.539C76.0345 131.789 76.5396 131.913 77.1151 131.913C77.4894 131.913 77.8275 131.861 78.1293 131.756C78.4352 131.648 78.6988 131.487 78.9201 131.273C79.1415 131.056 79.3125 130.786 79.4333 130.464L80.8097 130.851C80.6648 131.318 80.4213 131.728 80.0792 132.082C79.7371 132.433 79.3146 132.706 78.8115 132.903C78.3084 133.097 77.7429 133.193 77.1151 133.193ZM87.9031 136.477V123.727H89.2795V125.2H89.4486C89.5532 125.039 89.6981 124.834 89.8832 124.585C90.0724 124.331 90.342 124.106 90.6922 123.908C91.0463 123.707 91.5253 123.607 92.129 123.607C92.9097 123.607 93.5979 123.802 94.1936 124.192C94.7892 124.583 95.2541 125.136 95.5881 125.852C95.9222 126.569 96.0892 127.414 96.0892 128.388C96.0892 129.37 95.9222 130.221 95.5881 130.941C95.2541 131.658 94.7912 132.213 94.1996 132.608C93.608 132.998 92.9258 133.193 92.1531 133.193C91.5575 133.193 91.0805 133.095 90.7223 132.897C90.3642 132.696 90.0885 132.469 89.8953 132.215C89.7021 131.958 89.5532 131.744 89.4486 131.575H89.3278V136.477H87.9031ZM89.3037 128.364C89.3037 129.064 89.4063 129.682 89.6116 130.217C89.8168 130.748 90.1166 131.165 90.5111 131.467C90.9055 131.764 91.3884 131.913 91.9599 131.913C92.5556 131.913 93.0526 131.756 93.451 131.442C93.8535 131.125 94.1553 130.698 94.3566 130.163C94.5618 129.623 94.6645 129.024 94.6645 128.364C94.6645 127.712 94.5638 127.124 94.3626 126.601C94.1654 126.074 93.8656 125.657 93.4631 125.351C93.0647 125.041 92.5636 124.886 91.9599 124.886C91.3804 124.886 90.8934 125.033 90.499 125.327C90.1046 125.617 89.8067 126.023 89.6055 126.547C89.4043 127.066 89.3037 127.671 89.3037 128.364ZM99.6872 127.422V133H98.2625V120.636H99.6872V125.176H99.8079C100.025 124.697 100.351 124.317 100.786 124.035C101.225 123.749 101.808 123.607 102.537 123.607C103.168 123.607 103.722 123.733 104.197 123.987C104.672 124.236 105.04 124.621 105.302 125.14C105.567 125.655 105.7 126.311 105.7 127.108V133H104.275V127.205C104.275 126.468 104.084 125.899 103.702 125.496C103.323 125.09 102.798 124.886 102.126 124.886C101.659 124.886 101.241 124.985 100.87 125.182C100.504 125.379 100.214 125.667 100.001 126.045C99.7918 126.424 99.6872 126.883 99.6872 127.422ZM112.073 133.193C111.236 133.193 110.502 132.994 109.87 132.596C109.242 132.197 108.751 131.64 108.397 130.923C108.047 130.207 107.872 129.37 107.872 128.412C107.872 127.446 108.047 126.603 108.397 125.882C108.751 125.162 109.242 124.603 109.87 124.204C110.502 123.806 111.236 123.607 112.073 123.607C112.911 123.607 113.643 123.806 114.271 124.204C114.903 124.603 115.394 125.162 115.744 125.882C116.098 126.603 116.275 127.446 116.275 128.412C116.275 129.37 116.098 130.207 115.744 130.923C115.394 131.64 114.903 132.197 114.271 132.596C113.643 132.994 112.911 133.193 112.073 133.193ZM112.073 131.913C112.709 131.913 113.233 131.75 113.643 131.424C114.054 131.098 114.357 130.67 114.555 130.138C114.752 129.607 114.85 129.032 114.85 128.412C114.85 127.792 114.752 127.215 114.555 126.679C114.357 126.144 114.054 125.711 113.643 125.381C113.233 125.051 112.709 124.886 112.073 124.886C111.438 124.886 110.914 125.051 110.504 125.381C110.093 125.711 109.789 126.144 109.592 126.679C109.395 127.215 109.296 127.792 109.296 128.412C109.296 129.032 109.395 129.607 109.592 130.138C109.789 130.67 110.093 131.098 110.504 131.424C110.914 131.75 111.438 131.913 112.073 131.913ZM122.483 123.727V124.935H117.677V123.727H122.483ZM119.078 121.506H120.503V130.344C120.503 130.746 120.561 131.048 120.678 131.249C120.798 131.446 120.951 131.579 121.136 131.648C121.326 131.712 121.525 131.744 121.734 131.744C121.891 131.744 122.02 131.736 122.12 131.72C122.221 131.7 122.302 131.684 122.362 131.672L122.652 132.952C122.555 132.988 122.42 133.024 122.247 133.06C122.074 133.101 121.855 133.121 121.589 133.121C121.187 133.121 120.792 133.034 120.406 132.861C120.024 132.688 119.706 132.424 119.452 132.07C119.203 131.716 119.078 131.269 119.078 130.73V121.506ZM128.293 133.193C127.456 133.193 126.722 132.994 126.09 132.596C125.462 132.197 124.971 131.64 124.617 130.923C124.267 130.207 124.091 129.37 124.091 128.412C124.091 127.446 124.267 126.603 124.617 125.882C124.971 125.162 125.462 124.603 126.09 124.204C126.722 123.806 127.456 123.607 128.293 123.607C129.13 123.607 129.863 123.806 130.491 124.204C131.122 124.603 131.614 125.162 131.964 125.882C132.318 126.603 132.495 127.446 132.495 128.412C132.495 129.37 132.318 130.207 131.964 130.923C131.614 131.64 131.122 132.197 130.491 132.596C129.863 132.994 129.13 133.193 128.293 133.193ZM128.293 131.913C128.929 131.913 129.452 131.75 129.863 131.424C130.273 131.098 130.577 130.67 130.774 130.138C130.972 129.607 131.07 129.032 131.07 128.412C131.07 127.792 130.972 127.215 130.774 126.679C130.577 126.144 130.273 125.711 129.863 125.381C129.452 125.051 128.929 124.886 128.293 124.886C127.657 124.886 127.134 125.051 126.724 125.381C126.313 125.711 126.009 126.144 125.812 126.679C125.615 127.215 125.516 127.792 125.516 128.412C125.516 129.032 125.615 129.607 125.812 130.138C126.009 130.67 126.313 131.098 126.724 131.424C127.134 131.75 127.657 131.913 128.293 131.913ZM26.8078 154.193C25.9707 154.193 25.2362 153.994 24.6044 153.596C23.9765 153.197 23.4855 152.64 23.1313 151.923C22.7812 151.207 22.6061 150.37 22.6061 149.412C22.6061 148.446 22.7812 147.603 23.1313 146.882C23.4855 146.162 23.9765 145.603 24.6044 145.204C25.2362 144.806 25.9707 144.607 26.8078 144.607C27.645 144.607 28.3774 144.806 29.0053 145.204C29.6371 145.603 30.1282 146.162 30.4783 146.882C30.8325 147.603 31.0095 148.446 31.0095 149.412C31.0095 150.37 30.8325 151.207 30.4783 151.923C30.1282 152.64 29.6371 153.197 29.0053 153.596C28.3774 153.994 27.645 154.193 26.8078 154.193ZM26.8078 152.913C27.4437 152.913 27.9669 152.75 28.3774 152.424C28.788 152.098 29.0918 151.67 29.289 151.138C29.4862 150.607 29.5848 150.032 29.5848 149.412C29.5848 148.792 29.4862 148.215 29.289 147.679C29.0918 147.144 28.788 146.711 28.3774 146.381C27.9669 146.051 27.4437 145.886 26.8078 145.886C26.1719 145.886 25.6487 146.051 25.2382 146.381C24.8277 146.711 24.5239 147.144 24.3267 147.679C24.1295 148.215 24.0309 148.792 24.0309 149.412C24.0309 150.032 24.1295 150.607 24.3267 151.138C24.5239 151.67 24.8277 152.098 25.2382 152.424C25.6487 152.75 26.1719 152.913 26.8078 152.913ZM37.3136 144.727V145.935H32.315V144.727H37.3136ZM33.8122 154V143.447C33.8122 142.916 33.937 142.473 34.1865 142.119C34.436 141.765 34.76 141.5 35.1584 141.322C35.5569 141.145 35.9774 141.057 36.4201 141.057C36.7703 141.057 37.056 141.085 37.2774 141.141C37.4987 141.198 37.6638 141.25 37.7724 141.298L37.3619 142.53C37.2895 142.506 37.1888 142.475 37.0601 142.439C36.9353 142.403 36.7703 142.385 36.565 142.385C36.0941 142.385 35.7541 142.504 35.5448 142.741C35.3395 142.979 35.2369 143.327 35.2369 143.786V154H33.8122ZM48.1242 144.727V145.935H43.3188V144.727H48.1242ZM44.7194 142.506H46.1441V151.344C46.1441 151.746 46.2025 152.048 46.3192 152.249C46.4399 152.446 46.5929 152.579 46.778 152.648C46.9672 152.712 47.1664 152.744 47.3757 152.744C47.5326 152.744 47.6614 152.736 47.762 152.72C47.8626 152.7 47.9431 152.684 48.0035 152.672L48.2933 153.952C48.1967 153.988 48.0619 154.024 47.8888 154.06C47.7157 154.101 47.4964 154.121 47.2308 154.121C46.8283 154.121 46.4339 154.034 46.0475 153.861C45.6652 153.688 45.3473 153.424 45.0937 153.07C44.8442 152.716 44.7194 152.269 44.7194 151.73V142.506ZM51.8913 148.422V154H50.4666V141.636H51.8913V146.176H52.012C52.2294 145.697 52.5554 145.317 52.99 145.035C53.4287 144.749 54.0123 144.607 54.7407 144.607C55.3726 144.607 55.926 144.733 56.4009 144.987C56.8758 145.236 57.244 145.621 57.5056 146.14C57.7713 146.655 57.9041 147.311 57.9041 148.108V154H56.4794V148.205C56.4794 147.468 56.2882 146.899 55.9059 146.496C55.5275 146.09 55.0023 145.886 54.3302 145.886C53.8634 145.886 53.4448 145.985 53.0745 146.182C52.7083 146.379 52.4185 146.667 52.2052 147.045C51.9959 147.424 51.8913 147.883 51.8913 148.422ZM64.3983 154.193C63.5048 154.193 62.7341 153.996 62.0862 153.602C61.4422 153.203 60.9452 152.648 60.595 151.935C60.2489 151.219 60.0759 150.386 60.0759 149.436C60.0759 148.486 60.2489 147.649 60.595 146.925C60.9452 146.196 61.4322 145.629 62.056 145.222C62.6838 144.812 63.4163 144.607 64.2534 144.607C64.7364 144.607 65.2133 144.687 65.6842 144.848C66.1551 145.009 66.5837 145.271 66.97 145.633C67.3564 145.991 67.6643 146.466 67.8937 147.058C68.1231 147.649 68.2378 148.378 68.2378 149.243V149.847H61.0901V148.615H66.7889C66.7889 148.092 66.6843 147.625 66.475 147.214C66.2698 146.804 65.976 146.48 65.5936 146.243C65.2153 146.005 64.7686 145.886 64.2534 145.886C63.6859 145.886 63.1949 146.027 62.7804 146.309C62.3699 146.587 62.054 146.949 61.8326 147.396C61.6113 147.842 61.5006 148.321 61.5006 148.832V149.653C61.5006 150.354 61.6213 150.947 61.8628 151.434C62.1083 151.917 62.4484 152.286 62.883 152.539C63.3177 152.789 63.8228 152.913 64.3983 152.913C64.7726 152.913 65.1107 152.861 65.4125 152.756C65.7184 152.648 65.982 152.487 66.2033 152.273C66.4247 152.056 66.5957 151.786 66.7165 151.464L68.0929 151.851C67.948 152.318 67.7045 152.728 67.3624 153.082C67.0203 153.433 66.5978 153.706 66.0947 153.903C65.5916 154.097 65.0261 154.193 64.3983 154.193ZM76.611 141.636V154H75.1863V141.636H76.611ZM83.1083 154.193C82.2148 154.193 81.4441 153.996 80.7961 153.602C80.1522 153.203 79.6551 152.648 79.305 151.935C78.9589 151.219 78.7858 150.386 78.7858 149.436C78.7858 148.486 78.9589 147.649 79.305 146.925C79.6551 146.196 80.1421 145.629 80.7659 145.222C81.3938 144.812 82.1263 144.607 82.9634 144.607C83.4463 144.607 83.9233 144.687 84.3941 144.848C84.865 145.009 85.2936 145.271 85.68 145.633C86.0664 145.991 86.3742 146.466 86.6036 147.058C86.8331 147.649 86.9478 148.378 86.9478 149.243V149.847H79.8V148.615H85.4989C85.4989 148.092 85.3943 147.625 85.185 147.214C84.9797 146.804 84.6859 146.48 84.3036 146.243C83.9253 146.005 83.4785 145.886 82.9634 145.886C82.3959 145.886 81.9049 146.027 81.4904 146.309C81.0799 146.587 80.7639 146.949 80.5426 147.396C80.3212 147.842 80.2105 148.321 80.2105 148.832V149.653C80.2105 150.354 80.3313 150.947 80.5728 151.434C80.8183 151.917 81.1583 152.286 81.593 152.539C82.0277 152.789 82.5327 152.913 83.1083 152.913C83.4826 152.913 83.8206 152.861 84.1225 152.756C84.4283 152.648 84.692 152.487 84.9133 152.273C85.1347 152.056 85.3057 151.786 85.4264 151.464L86.8029 151.851C86.658 152.318 86.4145 152.728 86.0724 153.082C85.7303 153.433 85.3077 153.706 84.8046 153.903C84.3016 154.097 83.7361 154.193 83.1083 154.193ZM93.2443 144.727V145.935H88.2457V144.727H93.2443ZM89.7429 154V143.447C89.7429 142.916 89.8676 142.473 90.1171 142.119C90.3667 141.765 90.6907 141.5 91.0891 141.322C91.4875 141.145 91.9081 141.057 92.3508 141.057C92.701 141.057 92.9867 141.085 93.2081 141.141C93.4294 141.198 93.5944 141.25 93.7031 141.298L93.2926 142.53C93.2201 142.506 93.1195 142.475 92.9907 142.439C92.866 142.403 92.701 142.385 92.4957 142.385C92.0248 142.385 91.6847 142.504 91.4755 142.741C91.2702 142.979 91.1676 143.327 91.1676 143.786V154H89.7429ZM99.2737 144.727V145.935H94.4683V144.727H99.2737ZM95.8688 142.506H97.2935V151.344C97.2935 151.746 97.3519 152.048 97.4686 152.249C97.5894 152.446 97.7423 152.579 97.9274 152.648C98.1166 152.712 98.3158 152.744 98.5251 152.744C98.682 152.744 98.8108 152.736 98.9114 152.72C99.0121 152.7 99.0926 152.684 99.1529 152.672L99.4427 153.952C99.3461 153.988 99.2113 154.024 99.0382 154.06C98.8652 154.101 98.6458 154.121 98.3802 154.121C97.9777 154.121 97.5833 154.034 97.197 153.861C96.8146 153.688 96.4967 153.424 96.2431 153.07C95.9936 152.716 95.8688 152.269 95.8688 151.73V142.506ZM112.766 146.804L111.486 147.166C111.406 146.953 111.287 146.746 111.13 146.544C110.977 146.339 110.768 146.17 110.502 146.037C110.237 145.904 109.897 145.838 109.482 145.838C108.915 145.838 108.442 145.969 108.063 146.23C107.689 146.488 107.502 146.816 107.502 147.214C107.502 147.569 107.631 147.848 107.888 148.054C108.146 148.259 108.548 148.43 109.096 148.567L110.472 148.905C111.301 149.106 111.919 149.414 112.326 149.828C112.732 150.239 112.935 150.768 112.935 151.416C112.935 151.947 112.782 152.422 112.476 152.841C112.175 153.259 111.752 153.589 111.209 153.831C110.665 154.072 110.033 154.193 109.313 154.193C108.367 154.193 107.585 153.988 106.965 153.577C106.345 153.167 105.953 152.567 105.788 151.778L107.14 151.44C107.269 151.939 107.512 152.314 107.87 152.563C108.232 152.813 108.705 152.938 109.289 152.938C109.953 152.938 110.48 152.797 110.871 152.515C111.265 152.229 111.462 151.887 111.462 151.489C111.462 151.167 111.35 150.897 111.124 150.68C110.899 150.458 110.553 150.293 110.086 150.185L108.54 149.822C107.691 149.621 107.067 149.309 106.669 148.887C106.274 148.46 106.077 147.927 106.077 147.287C106.077 146.764 106.224 146.301 106.518 145.898C106.816 145.496 107.22 145.18 107.731 144.951C108.247 144.721 108.83 144.607 109.482 144.607C110.4 144.607 111.12 144.808 111.643 145.21C112.171 145.613 112.545 146.144 112.766 146.804ZM115.08 154V144.727H116.505V154H115.08ZM115.804 143.182C115.527 143.182 115.287 143.087 115.086 142.898C114.889 142.709 114.79 142.482 114.79 142.216C114.79 141.95 114.889 141.723 115.086 141.534C115.287 141.345 115.527 141.25 115.804 141.25C116.082 141.25 116.319 141.345 116.517 141.534C116.718 141.723 116.818 141.95 116.818 142.216C116.818 142.482 116.718 142.709 116.517 142.898C116.319 143.087 116.082 143.182 115.804 143.182ZM122.615 154.193C121.843 154.193 121.161 153.998 120.569 153.608C119.977 153.213 119.514 152.658 119.18 151.941C118.846 151.221 118.679 150.37 118.679 149.388C118.679 148.414 118.846 147.569 119.18 146.852C119.514 146.136 119.979 145.583 120.575 145.192C121.171 144.802 121.859 144.607 122.64 144.607C123.243 144.607 123.72 144.707 124.07 144.908C124.425 145.106 124.694 145.331 124.879 145.585C125.068 145.834 125.215 146.039 125.32 146.2H125.441V141.636H126.865V154H125.489V152.575H125.32C125.215 152.744 125.066 152.958 124.873 153.215C124.68 153.469 124.404 153.696 124.046 153.897C123.688 154.095 123.211 154.193 122.615 154.193ZM122.809 152.913C123.38 152.913 123.863 152.764 124.258 152.467C124.652 152.165 124.952 151.748 125.157 151.217C125.362 150.682 125.465 150.064 125.465 149.364C125.465 148.671 125.364 148.066 125.163 147.547C124.962 147.023 124.664 146.617 124.27 146.327C123.875 146.033 123.388 145.886 122.809 145.886C122.205 145.886 121.702 146.041 121.299 146.351C120.901 146.657 120.601 147.074 120.4 147.601C120.203 148.124 120.104 148.712 120.104 149.364C120.104 150.024 120.205 150.623 120.406 151.163C120.611 151.698 120.913 152.125 121.311 152.442C121.714 152.756 122.213 152.913 122.809 152.913ZM133.56 154.193C132.667 154.193 131.896 153.996 131.248 153.602C130.604 153.203 130.107 152.648 129.757 151.935C129.411 151.219 129.238 150.386 129.238 149.436C129.238 148.486 129.411 147.649 129.757 146.925C130.107 146.196 130.594 145.629 131.218 145.222C131.846 144.812 132.578 144.607 133.416 144.607C133.898 144.607 134.375 144.687 134.846 144.848C135.317 145.009 135.746 145.271 136.132 145.633C136.519 145.991 136.826 146.466 137.056 147.058C137.285 147.649 137.4 148.378 137.4 149.243V149.847H130.252V148.615H135.951C135.951 148.092 135.846 147.625 135.637 147.214C135.432 146.804 135.138 146.48 134.756 146.243C134.377 146.005 133.931 145.886 133.416 145.886C132.848 145.886 132.357 146.027 131.943 146.309C131.532 146.587 131.216 146.949 130.995 147.396C130.773 147.842 130.663 148.321 130.663 148.832V149.653C130.663 150.354 130.783 150.947 131.025 151.434C131.27 151.917 131.61 152.286 132.045 152.539C132.48 152.789 132.985 152.913 133.56 152.913C133.935 152.913 134.273 152.861 134.575 152.756C134.88 152.648 135.144 152.487 135.365 152.273C135.587 152.056 135.758 151.786 135.879 151.464L137.255 151.851C137.11 152.318 136.867 152.728 136.525 153.082C136.182 153.433 135.76 153.706 135.257 153.903C134.754 154.097 134.188 154.193 133.56 154.193Z" fill="#F1B314"/>
<path d="M76.2957 53.3634L57.944 84C57.5656 84.6553 57.3654 85.3982 57.3633 86.1548C57.3612 86.9115 57.5572 87.6555 57.9319 88.3128C58.3066 88.9702 58.8469 89.518 59.499 89.9017C60.1512 90.2854 60.8924 90.4917 61.649 90.5H98.3523C99.1089 90.4917 99.8502 90.2854 100.502 89.9017C101.154 89.518 101.695 88.9702 102.069 88.3128C102.444 87.6555 102.64 86.9115 102.638 86.1548C102.636 85.3982 102.436 84.6553 102.057 84L83.7057 53.3634C83.3194 52.7266 82.7756 52.2001 82.1266 51.8347C81.4776 51.4694 80.7454 51.2774 80.0007 51.2774C79.2559 51.2774 78.5237 51.4694 77.8747 51.8347C77.2258 52.2001 76.6819 52.7266 76.2957 53.3634V53.3634Z" stroke="#F1B314" stroke-width="2" stroke-linecap="round" stroke-linejoin="round"/>
<path d="M80 64.5V73.1667" stroke="#F1B314" stroke-width="2" stroke-linecap="round" stroke-linejoin="round"/>
<path d="M80 81.8333H80.0217" stroke="#F1B314" stroke-width="2" stroke-linecap="round" stroke-linejoin="round"/>
<rect x="1" y="1" width="158" height="178" rx="3" stroke="#F1B314" stroke-width="2"/>
</svg>
