<svg width="188" height="208" viewBox="0 0 188 208" fill="none" xmlns="http://www.w3.org/2000/svg">
<g filter="url(#filter0_d_595_3217)">
<rect x="14" y="10" width="160" height="180" rx="4" fill="white"/>
<path d="M42.6314 140V127.636H46.809C47.7749 127.636 48.5678 127.801 49.1875 128.131C49.8073 128.457 50.2661 128.906 50.564 129.478C50.8618 130.049 51.0107 130.699 51.0107 131.428C51.0107 132.156 50.8618 132.802 50.564 133.365C50.2661 133.929 49.8093 134.372 49.1936 134.694C48.5778 135.011 47.791 135.17 46.8331 135.17H43.4525V133.818H46.7848C47.4449 133.818 47.9761 133.722 48.3786 133.528C48.7851 133.335 49.0789 133.062 49.26 132.707C49.4451 132.349 49.5377 131.923 49.5377 131.428C49.5377 130.933 49.4451 130.5 49.26 130.13C49.0749 129.759 48.779 129.474 48.3726 129.272C47.9661 129.067 47.4288 128.964 46.7607 128.964H44.1286V140H42.6314ZM48.451 134.446L51.4937 140H49.755L46.7607 134.446H48.451ZM57.1005 140.193C56.207 140.193 55.4363 139.996 54.7883 139.602C54.1444 139.203 53.6473 138.648 53.2972 137.935C52.9511 137.219 52.778 136.386 52.778 135.436C52.778 134.486 52.9511 133.649 53.2972 132.925C53.6473 132.196 54.1343 131.629 54.7581 131.222C55.386 130.812 56.1184 130.607 56.9556 130.607C57.4385 130.607 57.9154 130.687 58.3863 130.848C58.8572 131.009 59.2858 131.271 59.6722 131.633C60.0585 131.991 60.3664 132.466 60.5958 133.058C60.8252 133.649 60.9399 134.378 60.9399 135.243V135.847H53.7922V134.615H59.4911C59.4911 134.092 59.3864 133.625 59.1772 133.214C58.9719 132.804 58.6781 132.48 58.2958 132.243C57.9175 132.005 57.4707 131.886 56.9556 131.886C56.3881 131.886 55.8971 132.027 55.4826 132.309C55.072 132.587 54.7561 132.949 54.5348 133.396C54.3134 133.842 54.2027 134.321 54.2027 134.832V135.653C54.2027 136.354 54.3235 136.947 54.5649 137.434C54.8104 137.917 55.1505 138.286 55.5852 138.539C56.0198 138.789 56.5249 138.913 57.1005 138.913C57.4747 138.913 57.8128 138.861 58.1147 138.756C58.4205 138.648 58.6841 138.487 58.9055 138.273C59.1268 138.056 59.2979 137.786 59.4186 137.464L60.7951 137.851C60.6502 138.318 60.4067 138.728 60.0646 139.082C59.7225 139.433 59.2999 139.706 58.7968 139.903C58.2938 140.097 57.7283 140.193 57.1005 140.193ZM67.1399 130.727V131.935H62.3345V130.727H67.1399ZM63.735 128.506H65.1598V137.344C65.1598 137.746 65.2181 138.048 65.3348 138.249C65.4556 138.446 65.6085 138.579 65.7936 138.648C65.9828 138.712 66.182 138.744 66.3913 138.744C66.5483 138.744 66.677 138.736 66.7777 138.72C66.8783 138.7 66.9588 138.684 67.0191 138.672L67.3089 139.952C67.2123 139.988 67.0775 140.024 66.9044 140.06C66.7314 140.101 66.512 140.121 66.2464 140.121C65.8439 140.121 65.4495 140.034 65.0632 139.861C64.6808 139.688 64.3629 139.424 64.1093 139.07C63.8598 138.716 63.735 138.269 63.735 137.73V128.506ZM72.0117 140.217C71.4241 140.217 70.8908 140.107 70.4119 139.885C69.933 139.66 69.5526 139.336 69.2709 138.913C68.9892 138.487 68.8483 137.972 68.8483 137.368C68.8483 136.837 68.953 136.406 69.1622 136.076C69.3715 135.742 69.6512 135.48 70.0014 135.291C70.3515 135.102 70.7379 134.961 71.1605 134.869C71.5871 134.772 72.0157 134.696 72.4463 134.639C73.0098 134.567 73.4666 134.512 73.8167 134.476C74.1709 134.436 74.4285 134.37 74.5894 134.277C74.7545 134.184 74.837 134.023 74.837 133.794V133.746C74.837 133.15 74.674 132.687 74.348 132.357C74.026 132.027 73.537 131.862 72.881 131.862C72.2008 131.862 71.6676 132.011 71.2812 132.309C70.8948 132.607 70.6232 132.925 70.4662 133.263L69.1139 132.78C69.3554 132.216 69.6774 131.778 70.0799 131.464C70.4863 131.146 70.9291 130.924 71.408 130.8C71.8909 130.671 72.3658 130.607 72.8327 130.607C73.1305 130.607 73.4726 130.643 73.859 130.715C74.2494 130.784 74.6257 130.926 74.9879 131.144C75.3541 131.361 75.658 131.689 75.8995 132.128C76.1409 132.567 76.2617 133.154 76.2617 133.891V140H74.837V138.744H74.7645C74.6679 138.946 74.5069 139.161 74.2816 139.39C74.0562 139.62 73.7563 139.815 73.3821 139.976C73.0078 140.137 72.551 140.217 72.0117 140.217ZM72.229 138.938C72.7925 138.938 73.2674 138.827 73.6537 138.605C74.0441 138.384 74.3379 138.098 74.5351 137.748C74.7363 137.398 74.837 137.03 74.837 136.643V135.339C74.7766 135.412 74.6438 135.478 74.4385 135.539C74.2373 135.595 74.0039 135.645 73.7382 135.69C73.4766 135.73 73.2211 135.766 72.9715 135.798C72.726 135.826 72.5268 135.851 72.3739 135.871C72.0036 135.919 71.6575 135.998 71.3355 136.106C71.0176 136.211 70.76 136.37 70.5628 136.583C70.3696 136.792 70.273 137.078 70.273 137.44C70.273 137.935 70.4562 138.31 70.8224 138.563C71.1927 138.813 71.6615 138.938 72.229 138.938ZM80.1902 136.619L80.1661 134.857H80.4558L84.5127 130.727H86.2754L81.953 135.098H81.8323L80.1902 136.619ZM78.8621 140V127.636H80.2868V140H78.8621ZM84.7541 140L81.132 135.412L82.1462 134.422L86.5652 140H84.7541ZM91.6151 140.193C90.7216 140.193 89.9509 139.996 89.303 139.602C88.659 139.203 88.162 138.648 87.8118 137.935C87.4657 137.219 87.2927 136.386 87.2927 135.436C87.2927 134.486 87.4657 133.649 87.8118 132.925C88.162 132.196 88.649 131.629 89.2728 131.222C89.9006 130.812 90.6331 130.607 91.4702 130.607C91.9532 130.607 92.4301 130.687 92.901 130.848C93.3718 131.009 93.8005 131.271 94.1868 131.633C94.5732 131.991 94.8811 132.466 95.1105 133.058C95.3399 133.649 95.4546 134.378 95.4546 135.243V135.847H88.3069V134.615H94.0057C94.0057 134.092 93.9011 133.625 93.6918 133.214C93.4866 132.804 93.1928 132.48 92.8104 132.243C92.4321 132.005 91.9854 131.886 91.4702 131.886C90.9027 131.886 90.4117 132.027 89.9972 132.309C89.5867 132.587 89.2708 132.949 89.0494 133.396C88.8281 133.842 88.7174 134.321 88.7174 134.832V135.653C88.7174 136.354 88.8381 136.947 89.0796 137.434C89.3251 137.917 89.6652 138.286 90.0998 138.539C90.5345 138.789 91.0396 138.913 91.6151 138.913C91.9894 138.913 92.3275 138.861 92.6293 138.756C92.9352 138.648 93.1988 138.487 93.4201 138.273C93.6415 138.056 93.8125 137.786 93.9333 137.464L95.3097 137.851C95.1648 138.318 94.9213 138.728 94.5792 139.082C94.2371 139.433 93.8146 139.706 93.3115 139.903C92.8084 140.097 92.2429 140.193 91.6151 140.193ZM102.403 143.477V130.727H103.78V132.2H103.949C104.053 132.039 104.198 131.834 104.383 131.585C104.572 131.331 104.842 131.106 105.192 130.908C105.546 130.707 106.025 130.607 106.629 130.607C107.41 130.607 108.098 130.802 108.694 131.192C109.289 131.583 109.754 132.136 110.088 132.852C110.422 133.569 110.589 134.414 110.589 135.388C110.589 136.37 110.422 137.221 110.088 137.941C109.754 138.658 109.291 139.213 108.7 139.608C108.108 139.998 107.426 140.193 106.653 140.193C106.057 140.193 105.581 140.095 105.222 139.897C104.864 139.696 104.588 139.469 104.395 139.215C104.202 138.958 104.053 138.744 103.949 138.575H103.828V143.477H102.403ZM103.804 135.364C103.804 136.064 103.906 136.682 104.112 137.217C104.317 137.748 104.617 138.165 105.011 138.467C105.405 138.764 105.888 138.913 106.46 138.913C107.056 138.913 107.553 138.756 107.951 138.442C108.354 138.125 108.655 137.698 108.857 137.163C109.062 136.623 109.164 136.024 109.164 135.364C109.164 134.712 109.064 134.124 108.863 133.601C108.665 133.074 108.366 132.657 107.963 132.351C107.565 132.041 107.064 131.886 106.46 131.886C105.88 131.886 105.393 132.033 104.999 132.327C104.605 132.617 104.307 133.023 104.106 133.547C103.904 134.066 103.804 134.671 103.804 135.364ZM114.187 134.422V140H112.762V127.636H114.187V132.176H114.308C114.525 131.697 114.851 131.317 115.286 131.035C115.725 130.749 116.308 130.607 117.037 130.607C117.668 130.607 118.222 130.733 118.697 130.987C119.172 131.236 119.54 131.621 119.802 132.14C120.067 132.655 120.2 133.311 120.2 134.108V140H118.775V134.205C118.775 133.468 118.584 132.899 118.202 132.496C117.823 132.09 117.298 131.886 116.626 131.886C116.159 131.886 115.741 131.985 115.37 132.182C115.004 132.379 114.714 132.667 114.501 133.045C114.292 133.424 114.187 133.883 114.187 134.422ZM126.573 140.193C125.736 140.193 125.002 139.994 124.37 139.596C123.742 139.197 123.251 138.64 122.897 137.923C122.547 137.207 122.372 136.37 122.372 135.412C122.372 134.446 122.547 133.603 122.897 132.882C123.251 132.162 123.742 131.603 124.37 131.204C125.002 130.806 125.736 130.607 126.573 130.607C127.411 130.607 128.143 130.806 128.771 131.204C129.403 131.603 129.894 132.162 130.244 132.882C130.598 133.603 130.775 134.446 130.775 135.412C130.775 136.37 130.598 137.207 130.244 137.923C129.894 138.64 129.403 139.197 128.771 139.596C128.143 139.994 127.411 140.193 126.573 140.193ZM126.573 138.913C127.209 138.913 127.733 138.75 128.143 138.424C128.554 138.098 128.857 137.67 129.055 137.138C129.252 136.607 129.35 136.032 129.35 135.412C129.35 134.792 129.252 134.215 129.055 133.679C128.857 133.144 128.554 132.711 128.143 132.381C127.733 132.051 127.209 131.886 126.573 131.886C125.938 131.886 125.414 132.051 125.004 132.381C124.593 132.711 124.289 133.144 124.092 133.679C123.895 134.215 123.796 134.792 123.796 135.412C123.796 136.032 123.895 136.607 124.092 137.138C124.289 137.67 124.593 138.098 125.004 138.424C125.414 138.75 125.938 138.913 126.573 138.913ZM136.983 130.727V131.935H132.177V130.727H136.983ZM133.578 128.506H135.003V137.344C135.003 137.746 135.061 138.048 135.178 138.249C135.298 138.446 135.451 138.579 135.636 138.648C135.826 138.712 136.025 138.744 136.234 138.744C136.391 138.744 136.52 138.736 136.62 138.72C136.721 138.7 136.802 138.684 136.862 138.672L137.152 139.952C137.055 139.988 136.92 140.024 136.747 140.06C136.574 140.101 136.355 140.121 136.089 140.121C135.687 140.121 135.292 140.034 134.906 139.861C134.524 139.688 134.206 139.424 133.952 139.07C133.703 138.716 133.578 138.269 133.578 137.73V128.506ZM142.793 140.193C141.956 140.193 141.222 139.994 140.59 139.596C139.962 139.197 139.471 138.64 139.117 137.923C138.767 137.207 138.591 136.37 138.591 135.412C138.591 134.446 138.767 133.603 139.117 132.882C139.471 132.162 139.962 131.603 140.59 131.204C141.222 130.806 141.956 130.607 142.793 130.607C143.63 130.607 144.363 130.806 144.991 131.204C145.622 131.603 146.114 132.162 146.464 132.882C146.818 133.603 146.995 134.446 146.995 135.412C146.995 136.37 146.818 137.207 146.464 137.923C146.114 138.64 145.622 139.197 144.991 139.596C144.363 139.994 143.63 140.193 142.793 140.193ZM142.793 138.913C143.429 138.913 143.952 138.75 144.363 138.424C144.773 138.098 145.077 137.67 145.274 137.138C145.472 136.607 145.57 136.032 145.57 135.412C145.57 134.792 145.472 134.215 145.274 133.679C145.077 133.144 144.773 132.711 144.363 132.381C143.952 132.051 143.429 131.886 142.793 131.886C142.157 131.886 141.634 132.051 141.224 132.381C140.813 132.711 140.509 133.144 140.312 133.679C140.115 134.215 140.016 134.792 140.016 135.412C140.016 136.032 140.115 136.607 140.312 137.138C140.509 137.67 140.813 138.098 141.224 138.424C141.634 138.75 142.157 138.913 142.793 138.913ZM54.0578 161.193C53.2207 161.193 52.4862 160.994 51.8544 160.596C51.2265 160.197 50.7355 159.64 50.3813 158.923C50.0312 158.207 49.8561 157.37 49.8561 156.412C49.8561 155.446 50.0312 154.603 50.3813 153.882C50.7355 153.162 51.2265 152.603 51.8544 152.204C52.4862 151.806 53.2207 151.607 54.0578 151.607C54.895 151.607 55.6274 151.806 56.2553 152.204C56.8871 152.603 57.3782 153.162 57.7283 153.882C58.0825 154.603 58.2595 155.446 58.2595 156.412C58.2595 157.37 58.0825 158.207 57.7283 158.923C57.3782 159.64 56.8871 160.197 56.2553 160.596C55.6274 160.994 54.895 161.193 54.0578 161.193ZM54.0578 159.913C54.6937 159.913 55.2169 159.75 55.6274 159.424C56.038 159.098 56.3418 158.67 56.539 158.138C56.7362 157.607 56.8348 157.032 56.8348 156.412C56.8348 155.792 56.7362 155.215 56.539 154.679C56.3418 154.144 56.038 153.711 55.6274 153.381C55.2169 153.051 54.6937 152.886 54.0578 152.886C53.4219 152.886 52.8987 153.051 52.4882 153.381C52.0777 153.711 51.7739 154.144 51.5767 154.679C51.3795 155.215 51.2809 155.792 51.2809 156.412C51.2809 157.032 51.3795 157.607 51.5767 158.138C51.7739 158.67 52.0777 159.098 52.4882 159.424C52.8987 159.75 53.4219 159.913 54.0578 159.913ZM64.5636 151.727V152.935H59.565V151.727H64.5636ZM61.0622 161V150.447C61.0622 149.916 61.187 149.473 61.4365 149.119C61.686 148.765 62.01 148.5 62.4084 148.322C62.8069 148.145 63.2274 148.057 63.6701 148.057C64.0203 148.057 64.306 148.085 64.5274 148.141C64.7487 148.198 64.9138 148.25 65.0224 148.298L64.6119 149.53C64.5395 149.506 64.4388 149.475 64.3101 149.439C64.1853 149.403 64.0203 149.385 63.815 149.385C63.3441 149.385 63.0041 149.504 62.7948 149.741C62.5895 149.979 62.4869 150.327 62.4869 150.786V161H61.0622ZM75.3742 151.727V152.935H70.5688V151.727H75.3742ZM71.9694 149.506H73.3941V158.344C73.3941 158.746 73.4525 159.048 73.5692 159.249C73.6899 159.446 73.8429 159.579 74.028 159.648C74.2172 159.712 74.4164 159.744 74.6257 159.744C74.7826 159.744 74.9114 159.736 75.012 159.72C75.1126 159.7 75.1931 159.684 75.2535 159.672L75.5433 160.952C75.4467 160.988 75.3119 161.024 75.1388 161.06C74.9657 161.101 74.7464 161.121 74.4808 161.121C74.0783 161.121 73.6839 161.034 73.2975 160.861C72.9152 160.688 72.5973 160.424 72.3437 160.07C72.0942 159.716 71.9694 159.269 71.9694 158.73V149.506ZM79.1413 155.422V161H77.7166V148.636H79.1413V153.176H79.262C79.4794 152.697 79.8054 152.317 80.24 152.035C80.6787 151.749 81.2623 151.607 81.9907 151.607C82.6226 151.607 83.176 151.733 83.6509 151.987C84.1258 152.236 84.494 152.621 84.7556 153.14C85.0213 153.655 85.1541 154.311 85.1541 155.108V161H83.7294V155.205C83.7294 154.468 83.5382 153.899 83.1559 153.496C82.7775 153.09 82.2523 152.886 81.5802 152.886C81.1134 152.886 80.6948 152.985 80.3245 153.182C79.9583 153.379 79.6685 153.667 79.4552 154.045C79.2459 154.424 79.1413 154.883 79.1413 155.422ZM91.6483 161.193C90.7548 161.193 89.9841 160.996 89.3362 160.602C88.6922 160.203 88.1952 159.648 87.845 158.935C87.4989 158.219 87.3259 157.386 87.3259 156.436C87.3259 155.486 87.4989 154.649 87.845 153.925C88.1952 153.196 88.6822 152.629 89.306 152.222C89.9338 151.812 90.6663 151.607 91.5034 151.607C91.9864 151.607 92.4633 151.687 92.9342 151.848C93.4051 152.009 93.8337 152.271 94.22 152.633C94.6064 152.991 94.9143 153.466 95.1437 154.058C95.3731 154.649 95.4878 155.378 95.4878 156.243V156.847H88.3401V155.615H94.0389C94.0389 155.092 93.9343 154.625 93.725 154.214C93.5198 153.804 93.226 153.48 92.8436 153.243C92.4653 153.005 92.0186 152.886 91.5034 152.886C90.9359 152.886 90.4449 153.027 90.0304 153.309C89.6199 153.587 89.304 153.949 89.0826 154.396C88.8613 154.842 88.7506 155.321 88.7506 155.832V156.653C88.7506 157.354 88.8713 157.947 89.1128 158.434C89.3583 158.917 89.6984 159.286 90.133 159.539C90.5677 159.789 91.0728 159.913 91.6483 159.913C92.0226 159.913 92.3607 159.861 92.6625 159.756C92.9684 159.648 93.232 159.487 93.4533 159.273C93.6747 159.056 93.8457 158.786 93.9665 158.464L95.3429 158.851C95.198 159.318 94.9545 159.728 94.6124 160.082C94.2703 160.433 93.8478 160.706 93.3447 160.903C92.8416 161.097 92.2761 161.193 91.6483 161.193ZM102.629 161V148.636H104.054V153.2H104.175C104.28 153.039 104.424 152.834 104.61 152.585C104.799 152.331 105.068 152.106 105.419 151.908C105.773 151.707 106.252 151.607 106.855 151.607C107.636 151.607 108.324 151.802 108.92 152.192C109.516 152.583 109.98 153.136 110.314 153.852C110.649 154.569 110.816 155.414 110.816 156.388C110.816 157.37 110.649 158.221 110.314 158.941C109.98 159.658 109.518 160.213 108.926 160.608C108.334 160.998 107.652 161.193 106.879 161.193C106.284 161.193 105.807 161.095 105.449 160.897C105.091 160.696 104.815 160.469 104.622 160.215C104.428 159.958 104.28 159.744 104.175 159.575H104.006V161H102.629ZM104.03 156.364C104.03 157.064 104.133 157.682 104.338 158.217C104.543 158.748 104.843 159.165 105.237 159.467C105.632 159.764 106.115 159.913 106.686 159.913C107.282 159.913 107.779 159.756 108.177 159.442C108.58 159.125 108.882 158.698 109.083 158.163C109.288 157.623 109.391 157.024 109.391 156.364C109.391 155.712 109.29 155.124 109.089 154.601C108.892 154.074 108.592 153.657 108.189 153.351C107.791 153.041 107.29 152.886 106.686 152.886C106.107 152.886 105.62 153.033 105.225 153.327C104.831 153.617 104.533 154.023 104.332 154.547C104.131 155.066 104.03 155.671 104.03 156.364ZM115.724 161.217C115.136 161.217 114.603 161.107 114.124 160.885C113.645 160.66 113.265 160.336 112.983 159.913C112.701 159.487 112.56 158.972 112.56 158.368C112.56 157.837 112.665 157.406 112.874 157.076C113.083 156.742 113.363 156.48 113.713 156.291C114.063 156.102 114.45 155.961 114.872 155.869C115.299 155.772 115.728 155.696 116.158 155.639C116.722 155.567 117.178 155.512 117.529 155.476C117.883 155.436 118.14 155.37 118.301 155.277C118.466 155.184 118.549 155.023 118.549 154.794V154.746C118.549 154.15 118.386 153.687 118.06 153.357C117.738 153.027 117.249 152.862 116.593 152.862C115.913 152.862 115.379 153.011 114.993 153.309C114.607 153.607 114.335 153.925 114.178 154.263L112.826 153.78C113.067 153.216 113.389 152.778 113.792 152.464C114.198 152.146 114.641 151.924 115.12 151.8C115.603 151.671 116.078 151.607 116.545 151.607C116.842 151.607 117.185 151.643 117.571 151.715C117.961 151.784 118.338 151.926 118.7 152.144C119.066 152.361 119.37 152.689 119.611 153.128C119.853 153.567 119.974 154.154 119.974 154.891V161H118.549V159.744H118.476C118.38 159.946 118.219 160.161 117.993 160.39C117.768 160.62 117.468 160.815 117.094 160.976C116.72 161.137 116.263 161.217 115.724 161.217ZM115.941 159.938C116.504 159.938 116.979 159.827 117.366 159.605C117.756 159.384 118.05 159.098 118.247 158.748C118.448 158.398 118.549 158.03 118.549 157.643V156.339C118.489 156.412 118.356 156.478 118.15 156.539C117.949 156.595 117.716 156.645 117.45 156.69C117.189 156.73 116.933 156.766 116.683 156.798C116.438 156.826 116.239 156.851 116.086 156.871C115.716 156.919 115.369 156.998 115.047 157.106C114.73 157.211 114.472 157.37 114.275 157.583C114.082 157.792 113.985 158.078 113.985 158.44C113.985 158.935 114.168 159.31 114.534 159.563C114.905 159.813 115.373 159.938 115.941 159.938ZM126.341 161.193C125.472 161.193 124.723 160.988 124.095 160.577C123.467 160.167 122.985 159.601 122.646 158.881C122.308 158.161 122.139 157.338 122.139 156.412C122.139 155.47 122.312 154.639 122.659 153.919C123.009 153.194 123.496 152.629 124.119 152.222C124.747 151.812 125.48 151.607 126.317 151.607C126.969 151.607 127.556 151.727 128.08 151.969C128.603 152.21 129.032 152.548 129.366 152.983C129.7 153.418 129.907 153.925 129.987 154.504H128.563C128.454 154.082 128.212 153.707 127.838 153.381C127.468 153.051 126.969 152.886 126.341 152.886C125.786 152.886 125.299 153.031 124.88 153.321C124.466 153.607 124.142 154.011 123.908 154.534C123.679 155.054 123.564 155.663 123.564 156.364C123.564 157.08 123.677 157.704 123.902 158.235C124.132 158.766 124.453 159.179 124.868 159.473C125.287 159.766 125.778 159.913 126.341 159.913C126.711 159.913 127.047 159.849 127.349 159.72C127.651 159.591 127.907 159.406 128.116 159.165C128.325 158.923 128.474 158.634 128.563 158.295H129.987C129.907 158.843 129.708 159.336 129.39 159.775C129.076 160.209 128.659 160.555 128.14 160.813C127.625 161.066 127.025 161.193 126.341 161.193ZM133.398 157.619L133.374 155.857H133.664L137.721 151.727H139.483L135.161 156.098H135.04L133.398 157.619ZM132.07 161V148.636H133.495V161H132.07ZM137.962 161L134.34 156.412L135.354 155.422L139.773 161H137.962Z" fill="#F1B314"/>
<path d="M90.2947 63.3633L71.943 94C71.5646 94.6553 71.3644 95.3982 71.3623 96.1548C71.3602 96.9114 71.5562 97.6555 71.9309 98.3128C72.3056 98.9702 72.8459 99.518 73.498 99.9017C74.1502 100.285 74.8914 100.492 75.648 100.5H112.351C113.108 100.492 113.849 100.285 114.501 99.9017C115.153 99.518 115.694 98.9702 116.068 98.3128C116.443 97.6555 116.639 96.9114 116.637 96.1548C116.635 95.3982 116.435 94.6553 116.056 94L97.7047 63.3633C97.3184 62.7266 96.7746 62.2001 96.1256 61.8347C95.4766 61.4693 94.7444 61.2774 93.9997 61.2774C93.2549 61.2774 92.5227 61.4693 91.8738 61.8347C91.2248 62.2001 90.6809 62.7266 90.2947 63.3633V63.3633Z" stroke="#F1B314" stroke-width="2" stroke-linecap="round" stroke-linejoin="round"/>
<path d="M94 74.5V83.1667" stroke="#F1B314" stroke-width="2" stroke-linecap="round" stroke-linejoin="round"/>
<path d="M94 91.8333H94.0217" stroke="#F1B314" stroke-width="2" stroke-linecap="round" stroke-linejoin="round"/>
<rect x="15" y="11" width="158" height="178" rx="3" stroke="#F1B314" stroke-width="2"/>
</g>
<defs>
<filter id="filter0_d_595_3217" x="0" y="0" width="188" height="208" filterUnits="userSpaceOnUse" color-interpolation-filters="sRGB">
<feFlood flood-opacity="0" result="BackgroundImageFix"/>
<feColorMatrix in="SourceAlpha" type="matrix" values="0 0 0 0 0 0 0 0 0 0 0 0 0 0 0 0 0 0 127 0" result="hardAlpha"/>
<feOffset dy="4"/>
<feGaussianBlur stdDeviation="7"/>
<feComposite in2="hardAlpha" operator="out"/>
<feColorMatrix type="matrix" values="0 0 0 0 0.491667 0 0 0 0 0.354 0 0 0 0 0 0 0 0 0.12 0"/>
<feBlend mode="normal" in2="BackgroundImageFix" result="effect1_dropShadow_595_3217"/>
<feBlend mode="normal" in="SourceGraphic" in2="effect1_dropShadow_595_3217" result="shape"/>
</filter>
</defs>
</svg>
