<svg width="160" height="180" viewBox="0 0 160 180" fill="none" xmlns="http://www.w3.org/2000/svg">
<rect x="1" y="1" width="158" height="178" rx="3" fill="white"/>
<path d="M29.1314 133V120.636H33.309C34.2749 120.636 35.0678 120.801 35.6875 121.131C36.3073 121.457 36.7661 121.906 37.064 122.478C37.3618 123.049 37.5107 123.699 37.5107 124.428C37.5107 125.156 37.3618 125.802 37.064 126.365C36.7661 126.929 36.3093 127.372 35.6936 127.694C35.0778 128.011 34.291 128.17 33.3331 128.17H29.9525V126.818H33.2848C33.9449 126.818 34.4761 126.722 34.8786 126.528C35.2851 126.335 35.5789 126.062 35.76 125.707C35.9451 125.349 36.0377 124.923 36.0377 124.428C36.0377 123.933 35.9451 123.5 35.76 123.13C35.5749 122.759 35.279 122.474 34.8726 122.272C34.4661 122.067 33.9288 121.964 33.2607 121.964H30.6286V133H29.1314ZM34.951 127.446L37.9937 133H36.255L33.2607 127.446H34.951ZM43.6005 133.193C42.707 133.193 41.9363 132.996 41.2883 132.602C40.6444 132.203 40.1473 131.648 39.7972 130.935C39.4511 130.219 39.278 129.386 39.278 128.436C39.278 127.486 39.4511 126.649 39.7972 125.925C40.1473 125.196 40.6343 124.629 41.2581 124.222C41.886 123.812 42.6184 123.607 43.4556 123.607C43.9385 123.607 44.4154 123.687 44.8863 123.848C45.3572 124.009 45.7858 124.271 46.1722 124.633C46.5585 124.991 46.8664 125.466 47.0958 126.058C47.3252 126.649 47.4399 127.378 47.4399 128.243V128.847H40.2922V127.615H45.9911C45.9911 127.092 45.8864 126.625 45.6772 126.214C45.4719 125.804 45.1781 125.48 44.7958 125.243C44.4175 125.005 43.9707 124.886 43.4556 124.886C42.8881 124.886 42.3971 125.027 41.9826 125.309C41.572 125.587 41.2561 125.949 41.0348 126.396C40.8134 126.842 40.7027 127.321 40.7027 127.832V128.653C40.7027 129.354 40.8235 129.947 41.0649 130.434C41.3104 130.917 41.6505 131.286 42.0852 131.539C42.5198 131.789 43.0249 131.913 43.6005 131.913C43.9747 131.913 44.3128 131.861 44.6147 131.756C44.9205 131.648 45.1841 131.487 45.4055 131.273C45.6268 131.056 45.7979 130.786 45.9186 130.464L47.2951 130.851C47.1502 131.318 46.9067 131.728 46.5646 132.082C46.2225 132.433 45.7999 132.706 45.2968 132.903C44.7938 133.097 44.2283 133.193 43.6005 133.193ZM53.6399 123.727V124.935H48.8345V123.727H53.6399ZM50.235 121.506H51.6598V130.344C51.6598 130.746 51.7181 131.048 51.8348 131.249C51.9556 131.446 52.1085 131.579 52.2936 131.648C52.4828 131.712 52.682 131.744 52.8913 131.744C53.0483 131.744 53.177 131.736 53.2777 131.72C53.3783 131.7 53.4588 131.684 53.5191 131.672L53.8089 132.952C53.7123 132.988 53.5775 133.024 53.4044 133.06C53.2314 133.101 53.012 133.121 52.7464 133.121C52.3439 133.121 51.9495 133.034 51.5632 132.861C51.1808 132.688 50.8629 132.424 50.6093 132.07C50.3598 131.716 50.235 131.269 50.235 130.73V121.506ZM58.5117 133.217C57.9241 133.217 57.3908 133.107 56.9119 132.885C56.433 132.66 56.0526 132.336 55.7709 131.913C55.4892 131.487 55.3483 130.972 55.3483 130.368C55.3483 129.837 55.453 129.406 55.6622 129.076C55.8715 128.742 56.1512 128.48 56.5014 128.291C56.8515 128.102 57.2379 127.961 57.6605 127.869C58.0871 127.772 58.5157 127.696 58.9463 127.639C59.5098 127.567 59.9666 127.512 60.3167 127.476C60.6709 127.436 60.9285 127.37 61.0894 127.277C61.2545 127.184 61.337 127.023 61.337 126.794V126.746C61.337 126.15 61.174 125.687 60.848 125.357C60.526 125.027 60.037 124.862 59.381 124.862C58.7008 124.862 58.1676 125.011 57.7812 125.309C57.3948 125.607 57.1232 125.925 56.9662 126.263L55.6139 125.78C55.8554 125.216 56.1774 124.778 56.5799 124.464C56.9863 124.146 57.4291 123.924 57.908 123.8C58.3909 123.671 58.8658 123.607 59.3327 123.607C59.6305 123.607 59.9726 123.643 60.359 123.715C60.7494 123.784 61.1257 123.926 61.4879 124.144C61.8541 124.361 62.158 124.689 62.3995 125.128C62.6409 125.567 62.7617 126.154 62.7617 126.891V133H61.337V131.744H61.2645C61.1679 131.946 61.0069 132.161 60.7816 132.39C60.5562 132.62 60.2563 132.815 59.8821 132.976C59.5078 133.137 59.051 133.217 58.5117 133.217ZM58.729 131.938C59.2925 131.938 59.7674 131.827 60.1537 131.605C60.5441 131.384 60.8379 131.098 61.0351 130.748C61.2363 130.398 61.337 130.03 61.337 129.643V128.339C61.2766 128.412 61.1438 128.478 60.9385 128.539C60.7373 128.595 60.5039 128.645 60.2382 128.69C59.9766 128.73 59.7211 128.766 59.4715 128.798C59.226 128.826 59.0268 128.851 58.8739 128.871C58.5036 128.919 58.1575 128.998 57.8355 129.106C57.5176 129.211 57.26 129.37 57.0628 129.583C56.8696 129.792 56.773 130.078 56.773 130.44C56.773 130.935 56.9562 131.31 57.3224 131.563C57.6927 131.813 58.1615 131.938 58.729 131.938ZM66.6902 129.619L66.6661 127.857H66.9558L71.0127 123.727H72.7754L68.453 128.098H68.3323L66.6902 129.619ZM65.3621 133V120.636H66.7868V133H65.3621ZM71.2541 133L67.632 128.412L68.6462 127.422L73.0652 133H71.2541ZM78.1151 133.193C77.2216 133.193 76.4509 132.996 75.803 132.602C75.159 132.203 74.662 131.648 74.3118 130.935C73.9657 130.219 73.7927 129.386 73.7927 128.436C73.7927 127.486 73.9657 126.649 74.3118 125.925C74.662 125.196 75.149 124.629 75.7728 124.222C76.4006 123.812 77.1331 123.607 77.9702 123.607C78.4532 123.607 78.9301 123.687 79.401 123.848C79.8718 124.009 80.3005 124.271 80.6868 124.633C81.0732 124.991 81.3811 125.466 81.6105 126.058C81.8399 126.649 81.9546 127.378 81.9546 128.243V128.847H74.8069V127.615H80.5057C80.5057 127.092 80.4011 126.625 80.1918 126.214C79.9866 125.804 79.6928 125.48 79.3104 125.243C78.9321 125.005 78.4854 124.886 77.9702 124.886C77.4027 124.886 76.9117 125.027 76.4972 125.309C76.0867 125.587 75.7708 125.949 75.5494 126.396C75.3281 126.842 75.2174 127.321 75.2174 127.832V128.653C75.2174 129.354 75.3381 129.947 75.5796 130.434C75.8251 130.917 76.1652 131.286 76.5998 131.539C77.0345 131.789 77.5396 131.913 78.1151 131.913C78.4894 131.913 78.8275 131.861 79.1293 131.756C79.4352 131.648 79.6988 131.487 79.9201 131.273C80.1415 131.056 80.3125 130.786 80.4333 130.464L81.8097 130.851C81.6648 131.318 81.4213 131.728 81.0792 132.082C80.7371 132.433 80.3146 132.706 79.8115 132.903C79.3084 133.097 78.7429 133.193 78.1151 133.193ZM88.9031 136.477V123.727H90.2795V125.2H90.4486C90.5532 125.039 90.6981 124.834 90.8832 124.585C91.0724 124.331 91.342 124.106 91.6922 123.908C92.0463 123.707 92.5253 123.607 93.129 123.607C93.9097 123.607 94.5979 123.802 95.1936 124.192C95.7892 124.583 96.2541 125.136 96.5881 125.852C96.9222 126.569 97.0892 127.414 97.0892 128.388C97.0892 129.37 96.9222 130.221 96.5881 130.941C96.2541 131.658 95.7912 132.213 95.1996 132.608C94.608 132.998 93.9258 133.193 93.1531 133.193C92.5575 133.193 92.0805 133.095 91.7223 132.897C91.3642 132.696 91.0885 132.469 90.8953 132.215C90.7021 131.958 90.5532 131.744 90.4486 131.575H90.3278V136.477H88.9031ZM90.3037 128.364C90.3037 129.064 90.4063 129.682 90.6116 130.217C90.8168 130.748 91.1166 131.165 91.5111 131.467C91.9055 131.764 92.3884 131.913 92.9599 131.913C93.5556 131.913 94.0526 131.756 94.451 131.442C94.8535 131.125 95.1553 130.698 95.3566 130.163C95.5618 129.623 95.6645 129.024 95.6645 128.364C95.6645 127.712 95.5638 127.124 95.3626 126.601C95.1654 126.074 94.8656 125.657 94.4631 125.351C94.0647 125.041 93.5636 124.886 92.9599 124.886C92.3804 124.886 91.8934 125.033 91.499 125.327C91.1046 125.617 90.8067 126.023 90.6055 126.547C90.4043 127.066 90.3037 127.671 90.3037 128.364ZM100.687 127.422V133H99.2625V120.636H100.687V125.176H100.808C101.025 124.697 101.351 124.317 101.786 124.035C102.225 123.749 102.808 123.607 103.537 123.607C104.168 123.607 104.722 123.733 105.197 123.987C105.672 124.236 106.04 124.621 106.302 125.14C106.567 125.655 106.7 126.311 106.7 127.108V133H105.275V127.205C105.275 126.468 105.084 125.899 104.702 125.496C104.323 125.09 103.798 124.886 103.126 124.886C102.659 124.886 102.241 124.985 101.87 125.182C101.504 125.379 101.214 125.667 101.001 126.045C100.792 126.424 100.687 126.883 100.687 127.422ZM113.073 133.193C112.236 133.193 111.502 132.994 110.87 132.596C110.242 132.197 109.751 131.64 109.397 130.923C109.047 130.207 108.872 129.37 108.872 128.412C108.872 127.446 109.047 126.603 109.397 125.882C109.751 125.162 110.242 124.603 110.87 124.204C111.502 123.806 112.236 123.607 113.073 123.607C113.911 123.607 114.643 123.806 115.271 124.204C115.903 124.603 116.394 125.162 116.744 125.882C117.098 126.603 117.275 127.446 117.275 128.412C117.275 129.37 117.098 130.207 116.744 130.923C116.394 131.64 115.903 132.197 115.271 132.596C114.643 132.994 113.911 133.193 113.073 133.193ZM113.073 131.913C113.709 131.913 114.233 131.75 114.643 131.424C115.054 131.098 115.357 130.67 115.555 130.138C115.752 129.607 115.85 129.032 115.85 128.412C115.85 127.792 115.752 127.215 115.555 126.679C115.357 126.144 115.054 125.711 114.643 125.381C114.233 125.051 113.709 124.886 113.073 124.886C112.438 124.886 111.914 125.051 111.504 125.381C111.093 125.711 110.789 126.144 110.592 126.679C110.395 127.215 110.296 127.792 110.296 128.412C110.296 129.032 110.395 129.607 110.592 130.138C110.789 130.67 111.093 131.098 111.504 131.424C111.914 131.75 112.438 131.913 113.073 131.913ZM123.483 123.727V124.935H118.677V123.727H123.483ZM120.078 121.506H121.503V130.344C121.503 130.746 121.561 131.048 121.678 131.249C121.798 131.446 121.951 131.579 122.136 131.648C122.326 131.712 122.525 131.744 122.734 131.744C122.891 131.744 123.02 131.736 123.12 131.72C123.221 131.7 123.302 131.684 123.362 131.672L123.652 132.952C123.555 132.988 123.42 133.024 123.247 133.06C123.074 133.101 122.855 133.121 122.589 133.121C122.187 133.121 121.792 133.034 121.406 132.861C121.024 132.688 120.706 132.424 120.452 132.07C120.203 131.716 120.078 131.269 120.078 130.73V121.506ZM129.293 133.193C128.456 133.193 127.722 132.994 127.09 132.596C126.462 132.197 125.971 131.64 125.617 130.923C125.267 130.207 125.091 129.37 125.091 128.412C125.091 127.446 125.267 126.603 125.617 125.882C125.971 125.162 126.462 124.603 127.09 124.204C127.722 123.806 128.456 123.607 129.293 123.607C130.13 123.607 130.863 123.806 131.491 124.204C132.122 124.603 132.614 125.162 132.964 125.882C133.318 126.603 133.495 127.446 133.495 128.412C133.495 129.37 133.318 130.207 132.964 130.923C132.614 131.64 132.122 132.197 131.491 132.596C130.863 132.994 130.13 133.193 129.293 133.193ZM129.293 131.913C129.929 131.913 130.452 131.75 130.863 131.424C131.273 131.098 131.577 130.67 131.774 130.138C131.972 129.607 132.07 129.032 132.07 128.412C132.07 127.792 131.972 127.215 131.774 126.679C131.577 126.144 131.273 125.711 130.863 125.381C130.452 125.051 129.929 124.886 129.293 124.886C128.657 124.886 128.134 125.051 127.724 125.381C127.313 125.711 127.009 126.144 126.812 126.679C126.615 127.215 126.516 127.792 126.516 128.412C126.516 129.032 126.615 129.607 126.812 130.138C127.009 130.67 127.313 131.098 127.724 131.424C128.134 131.75 128.657 131.913 129.293 131.913ZM22.4538 154.193C21.6167 154.193 20.8822 153.994 20.2504 153.596C19.6225 153.197 19.1315 152.64 18.7773 151.923C18.4272 151.207 18.2521 150.37 18.2521 149.412C18.2521 148.446 18.4272 147.603 18.7773 146.882C19.1315 146.162 19.6225 145.603 20.2504 145.204C20.8822 144.806 21.6167 144.607 22.4538 144.607C23.291 144.607 24.0234 144.806 24.6513 145.204C25.2831 145.603 25.7741 146.162 26.1243 146.882C26.4785 147.603 26.6555 148.446 26.6555 149.412C26.6555 150.37 26.4785 151.207 26.1243 151.923C25.7741 152.64 25.2831 153.197 24.6513 153.596C24.0234 153.994 23.291 154.193 22.4538 154.193ZM22.4538 152.913C23.0897 152.913 23.6129 152.75 24.0234 152.424C24.4339 152.098 24.7378 151.67 24.935 151.138C25.1322 150.607 25.2308 150.032 25.2308 149.412C25.2308 148.792 25.1322 148.215 24.935 147.679C24.7378 147.144 24.4339 146.711 24.0234 146.381C23.6129 146.051 23.0897 145.886 22.4538 145.886C21.8179 145.886 21.2947 146.051 20.8842 146.381C20.4737 146.711 20.1699 147.144 19.9727 147.679C19.7754 148.215 19.6768 148.792 19.6768 149.412C19.6768 150.032 19.7754 150.607 19.9727 151.138C20.1699 151.67 20.4737 152.098 20.8842 152.424C21.2947 152.75 21.8179 152.913 22.4538 152.913ZM32.9596 144.727V145.935H27.961V144.727H32.9596ZM29.4582 154V143.447C29.4582 142.916 29.5829 142.473 29.8325 142.119C30.082 141.765 30.406 141.5 30.8044 141.322C31.2029 141.145 31.6234 141.057 32.0661 141.057C32.4163 141.057 32.702 141.085 32.9234 141.141C33.1447 141.198 33.3097 141.25 33.4184 141.298L33.0079 142.53C32.9355 142.506 32.8348 142.475 32.7061 142.439C32.5813 142.403 32.4163 142.385 32.211 142.385C31.7401 142.385 31.4001 142.504 31.1908 142.741C30.9855 142.979 30.8829 143.327 30.8829 143.786V154H29.4582ZM43.7702 144.727V145.935H38.9648V144.727H43.7702ZM40.3654 142.506H41.7901V151.344C41.7901 151.746 41.8485 152.048 41.9652 152.249C42.0859 152.446 42.2389 152.579 42.424 152.648C42.6132 152.712 42.8124 152.744 43.0217 152.744C43.1786 152.744 43.3074 152.736 43.408 152.72C43.5086 152.7 43.5891 152.684 43.6495 152.672L43.9393 153.952C43.8427 153.988 43.7079 154.024 43.5348 154.06C43.3617 154.101 43.1424 154.121 42.8768 154.121C42.4743 154.121 42.0799 154.034 41.6935 153.861C41.3112 153.688 40.9933 153.424 40.7397 153.07C40.4902 152.716 40.3654 152.269 40.3654 151.73V142.506ZM47.5373 148.422V154H46.1126V141.636H47.5373V146.176H47.658C47.8754 145.697 48.2013 145.317 48.636 145.035C49.0747 144.749 49.6583 144.607 50.3867 144.607C51.0186 144.607 51.572 144.733 52.0469 144.987C52.5218 145.236 52.89 145.621 53.1516 146.14C53.4173 146.655 53.5501 147.311 53.5501 148.108V154H52.1254V148.205C52.1254 147.468 51.9342 146.899 51.5518 146.496C51.1735 146.09 50.6483 145.886 49.9762 145.886C49.5094 145.886 49.0908 145.985 48.7205 146.182C48.3543 146.379 48.0645 146.667 47.8512 147.045C47.6419 147.424 47.5373 147.883 47.5373 148.422ZM60.0443 154.193C59.1508 154.193 58.3801 153.996 57.7322 153.602C57.0882 153.203 56.5912 152.648 56.241 151.935C55.8949 151.219 55.7219 150.386 55.7219 149.436C55.7219 148.486 55.8949 147.649 56.241 146.925C56.5912 146.196 57.0782 145.629 57.702 145.222C58.3298 144.812 59.0623 144.607 59.8994 144.607C60.3824 144.607 60.8593 144.687 61.3302 144.848C61.801 145.009 62.2297 145.271 62.616 145.633C63.0024 145.991 63.3103 146.466 63.5397 147.058C63.7691 147.649 63.8838 148.378 63.8838 149.243V149.847H56.7361V148.615H62.4349C62.4349 148.092 62.3303 147.625 62.121 147.214C61.9157 146.804 61.622 146.48 61.2396 146.243C60.8613 146.005 60.4146 145.886 59.8994 145.886C59.3319 145.886 58.8409 146.027 58.4264 146.309C58.0159 146.587 57.7 146.949 57.4786 147.396C57.2573 147.842 57.1466 148.321 57.1466 148.832V149.653C57.1466 150.354 57.2673 150.947 57.5088 151.434C57.7543 151.917 58.0944 152.286 58.529 152.539C58.9637 152.789 59.4688 152.913 60.0443 152.913C60.4186 152.913 60.7567 152.861 61.0585 152.756C61.3644 152.648 61.628 152.487 61.8493 152.273C62.0707 152.056 62.2417 151.786 62.3625 151.464L63.7389 151.851C63.594 152.318 63.3505 152.728 63.0084 153.082C62.6663 153.433 62.2438 153.706 61.7407 153.903C61.2376 154.097 60.6721 154.193 60.0443 154.193ZM70.8323 154V144.727H72.2087V146.128H72.3053C72.4743 145.669 72.7802 145.297 73.2229 145.011C73.6656 144.725 74.1647 144.582 74.7201 144.582C74.8247 144.582 74.9555 144.584 75.1125 144.588C75.2694 144.592 75.3882 144.598 75.4687 144.607V146.055C75.4204 146.043 75.3097 146.025 75.1366 146.001C74.9676 145.973 74.7885 145.959 74.5993 145.959C74.1486 145.959 73.7461 146.053 73.392 146.243C73.0418 146.428 72.7641 146.685 72.5589 147.015C72.3576 147.341 72.257 147.714 72.257 148.132V154H70.8323ZM77.1575 154V144.727H78.5822V154H77.1575ZM77.8819 143.182C77.6042 143.182 77.3648 143.087 77.1635 142.898C76.9663 142.709 76.8677 142.482 76.8677 142.216C76.8677 141.95 76.9663 141.723 77.1635 141.534C77.3648 141.345 77.6042 141.25 77.8819 141.25C78.1596 141.25 78.3971 141.345 78.5943 141.534C78.7955 141.723 78.8961 141.95 78.8961 142.216C78.8961 142.482 78.7955 142.709 78.5943 142.898C78.3971 143.087 78.1596 143.182 77.8819 143.182ZM84.9346 157.67C84.2464 157.67 83.6547 157.582 83.1597 157.405C82.6647 157.232 82.2522 157.002 81.9221 156.717C81.5961 156.435 81.3366 156.133 81.1434 155.811L82.2783 155.014C82.4071 155.183 82.5701 155.376 82.7673 155.594C82.9645 155.815 83.2342 156.006 83.5763 156.167C83.9224 156.332 84.3751 156.415 84.9346 156.415C85.6832 156.415 86.3009 156.234 86.7879 155.871C87.2749 155.509 87.5184 154.942 87.5184 154.169V152.286H87.3976C87.293 152.455 87.1441 152.664 86.9509 152.913C86.7617 153.159 86.4881 153.378 86.1299 153.571C85.7757 153.761 85.2968 153.855 84.6931 153.855C83.9445 153.855 83.2724 153.678 82.6768 153.324C82.0851 152.97 81.6163 152.455 81.2702 151.778C80.9281 151.102 80.757 150.281 80.757 149.315C80.757 148.366 80.924 147.538 81.2581 146.834C81.5921 146.126 82.057 145.578 82.6526 145.192C83.2483 144.802 83.9365 144.607 84.7172 144.607C85.3209 144.607 85.7999 144.707 86.154 144.908C86.5122 145.106 86.7859 145.331 86.9751 145.585C87.1682 145.834 87.3171 146.039 87.4218 146.2H87.5667V144.727H88.9431V154.266C88.9431 155.062 88.762 155.71 88.3998 156.21C88.0416 156.713 87.5586 157.081 86.9509 157.314C86.3472 157.552 85.6751 157.67 84.9346 157.67ZM84.8863 152.575C85.4578 152.575 85.9407 152.444 86.3351 152.183C86.7296 151.921 87.0294 151.545 87.2346 151.054C87.4399 150.563 87.5425 149.975 87.5425 149.291C87.5425 148.623 87.4419 148.033 87.2407 147.522C87.0394 147.011 86.7416 146.611 86.3472 146.321C85.9528 146.031 85.4658 145.886 84.8863 145.886C84.2826 145.886 83.7795 146.039 83.377 146.345C82.9786 146.651 82.6788 147.062 82.4775 147.577C82.2803 148.092 82.1817 148.663 82.1817 149.291C82.1817 149.935 82.2823 150.505 82.4836 151C82.6888 151.491 82.9907 151.877 83.3891 152.159C83.7916 152.436 84.2906 152.575 84.8863 152.575ZM92.9758 148.422V154H91.551V141.636H92.9758V146.176H93.0965C93.3138 145.697 93.6398 145.317 94.0745 145.035C94.5132 144.749 95.0967 144.607 95.8252 144.607C96.4571 144.607 97.0104 144.733 97.4854 144.987C97.9603 145.236 98.3285 145.621 98.5901 146.14C98.8557 146.655 98.9885 147.311 98.9885 148.108V154H97.5638V148.205C97.5638 147.468 97.3727 146.899 96.9903 146.496C96.612 146.09 96.0868 145.886 95.4147 145.886C94.9478 145.886 94.5293 145.985 94.159 146.182C93.7928 146.379 93.503 146.667 93.2897 147.045C93.0804 147.424 92.9758 147.883 92.9758 148.422ZM105.628 144.727V145.935H100.822V144.727H105.628ZM102.223 142.506H103.648V151.344C103.648 151.746 103.706 152.048 103.823 152.249C103.943 152.446 104.096 152.579 104.281 152.648C104.471 152.712 104.67 152.744 104.879 152.744C105.036 152.744 105.165 152.736 105.265 152.72C105.366 152.7 105.447 152.684 105.507 152.672L105.797 153.952C105.7 153.988 105.565 154.024 105.392 154.06C105.219 154.101 105 154.121 104.734 154.121C104.332 154.121 103.937 154.034 103.551 153.861C103.169 153.688 102.851 153.424 102.597 153.07C102.348 152.716 102.223 152.269 102.223 151.73V142.506ZM119.12 146.804L117.84 147.166C117.76 146.953 117.641 146.746 117.484 146.544C117.331 146.339 117.122 146.17 116.856 146.037C116.591 145.904 116.251 145.838 115.836 145.838C115.269 145.838 114.796 145.969 114.417 146.23C114.043 146.488 113.856 146.816 113.856 147.214C113.856 147.569 113.985 147.848 114.242 148.054C114.5 148.259 114.902 148.43 115.45 148.567L116.826 148.905C117.655 149.106 118.273 149.414 118.68 149.828C119.086 150.239 119.289 150.768 119.289 151.416C119.289 151.947 119.136 152.422 118.83 152.841C118.529 153.259 118.106 153.589 117.563 153.831C117.019 154.072 116.387 154.193 115.667 154.193C114.721 154.193 113.939 153.988 113.319 153.577C112.699 153.167 112.307 152.567 112.142 151.778L113.494 151.44C113.623 151.939 113.866 152.314 114.224 152.563C114.586 152.813 115.059 152.938 115.643 152.938C116.307 152.938 116.834 152.797 117.225 152.515C117.619 152.229 117.816 151.887 117.816 151.489C117.816 151.167 117.704 150.897 117.478 150.68C117.253 150.458 116.907 150.293 116.44 150.185L114.894 149.822C114.045 149.621 113.421 149.309 113.023 148.887C112.628 148.46 112.431 147.927 112.431 147.287C112.431 146.764 112.578 146.301 112.872 145.898C113.17 145.496 113.574 145.18 114.085 144.951C114.601 144.721 115.184 144.607 115.836 144.607C116.754 144.607 117.474 144.808 117.997 145.21C118.525 145.613 118.899 146.144 119.12 146.804ZM121.434 154V144.727H122.859V154H121.434ZM122.158 143.182C121.881 143.182 121.641 143.087 121.44 142.898C121.243 142.709 121.144 142.482 121.144 142.216C121.144 141.95 121.243 141.723 121.44 141.534C121.641 141.345 121.881 141.25 122.158 141.25C122.436 141.25 122.673 141.345 122.871 141.534C123.072 141.723 123.172 141.95 123.172 142.216C123.172 142.482 123.072 142.709 122.871 142.898C122.673 143.087 122.436 143.182 122.158 143.182ZM128.969 154.193C128.197 154.193 127.515 153.998 126.923 153.608C126.331 153.213 125.868 152.658 125.534 151.941C125.2 151.221 125.033 150.37 125.033 149.388C125.033 148.414 125.2 147.569 125.534 146.852C125.868 146.136 126.333 145.583 126.929 145.192C127.525 144.802 128.213 144.607 128.994 144.607C129.597 144.607 130.074 144.707 130.424 144.908C130.779 145.106 131.048 145.331 131.233 145.585C131.422 145.834 131.569 146.039 131.674 146.2H131.795V141.636H133.219V154H131.843V152.575H131.674C131.569 152.744 131.42 152.958 131.227 153.215C131.034 153.469 130.758 153.696 130.4 153.897C130.042 154.095 129.565 154.193 128.969 154.193ZM129.163 152.913C129.734 152.913 130.217 152.764 130.612 152.467C131.006 152.165 131.306 151.748 131.511 151.217C131.716 150.682 131.819 150.064 131.819 149.364C131.819 148.671 131.718 148.066 131.517 147.547C131.316 147.023 131.018 146.617 130.624 146.327C130.229 146.033 129.742 145.886 129.163 145.886C128.559 145.886 128.056 146.041 127.653 146.351C127.255 146.657 126.955 147.074 126.754 147.601C126.557 148.124 126.458 148.712 126.458 149.364C126.458 150.024 126.559 150.623 126.76 151.163C126.965 151.698 127.267 152.125 127.665 152.442C128.068 152.756 128.567 152.913 129.163 152.913ZM139.914 154.193C139.021 154.193 138.25 153.996 137.602 153.602C136.958 153.203 136.461 152.648 136.111 151.935C135.765 151.219 135.592 150.386 135.592 149.436C135.592 148.486 135.765 147.649 136.111 146.925C136.461 146.196 136.948 145.629 137.572 145.222C138.2 144.812 138.932 144.607 139.77 144.607C140.252 144.607 140.729 144.687 141.2 144.848C141.671 145.009 142.1 145.271 142.486 145.633C142.873 145.991 143.18 146.466 143.41 147.058C143.639 147.649 143.754 148.378 143.754 149.243V149.847H136.606V148.615H142.305C142.305 148.092 142.2 147.625 141.991 147.214C141.786 146.804 141.492 146.48 141.11 146.243C140.731 146.005 140.285 145.886 139.77 145.886C139.202 145.886 138.711 146.027 138.297 146.309C137.886 146.587 137.57 146.949 137.349 147.396C137.127 147.842 137.017 148.321 137.017 148.832V149.653C137.017 150.354 137.137 150.947 137.379 151.434C137.624 151.917 137.964 152.286 138.399 152.539C138.834 152.789 139.339 152.913 139.914 152.913C140.289 152.913 140.627 152.861 140.929 152.756C141.234 152.648 141.498 152.487 141.719 152.273C141.941 152.056 142.112 151.786 142.233 151.464L143.609 151.851C143.464 152.318 143.221 152.728 142.879 153.082C142.536 153.433 142.114 153.706 141.611 153.903C141.108 154.097 140.542 154.193 139.914 154.193Z" fill="#F1B314"/>
<path d="M76.2957 53.3634L57.944 84C57.5656 84.6553 57.3654 85.3982 57.3633 86.1548C57.3612 86.9115 57.5572 87.6555 57.9319 88.3128C58.3066 88.9702 58.8469 89.518 59.499 89.9017C60.1512 90.2854 60.8924 90.4917 61.649 90.5H98.3523C99.1089 90.4917 99.8502 90.2854 100.502 89.9017C101.154 89.518 101.695 88.9702 102.069 88.3128C102.444 87.6555 102.64 86.9115 102.638 86.1548C102.636 85.3982 102.436 84.6553 102.057 84L83.7057 53.3634C83.3194 52.7266 82.7756 52.2001 82.1266 51.8347C81.4776 51.4694 80.7454 51.2774 80.0007 51.2774C79.2559 51.2774 78.5237 51.4694 77.8747 51.8347C77.2258 52.2001 76.6819 52.7266 76.2957 53.3634V53.3634Z" stroke="#F1B314" stroke-width="2" stroke-linecap="round" stroke-linejoin="round"/>
<path d="M80 64.5V73.1667" stroke="#F1B314" stroke-width="2" stroke-linecap="round" stroke-linejoin="round"/>
<path d="M80 81.8333H80.0217" stroke="#F1B314" stroke-width="2" stroke-linecap="round" stroke-linejoin="round"/>
<rect x="1" y="1" width="158" height="178" rx="3" stroke="#F1B314" stroke-width="2"/>
</svg>
