<svg width="24" height="24" viewBox="0 0 24 24" fill="none" xmlns="http://www.w3.org/2000/svg">
<path d="M12 14.2484C13.2426 14.2484 14.25 13.2411 14.25 11.9984C14.25 10.7558 13.2426 9.74841 12 9.74841C10.7574 9.74841 9.75 10.7558 9.75 11.9984C9.75 13.2411 10.7574 14.2484 12 14.2484Z" fill="white"/>
<path d="M12 21.7484C13.2426 21.7484 14.25 20.7411 14.25 19.4984C14.25 18.2558 13.2426 17.2484 12 17.2484C10.7574 17.2484 9.75 18.2558 9.75 19.4984C9.75 20.7411 10.7574 21.7484 12 21.7484Z" fill="white"/>
<path d="M12 6.7439C13.2426 6.7439 14.25 5.73654 14.25 4.4939C14.25 3.25126 13.2426 2.2439 12 2.2439C10.7574 2.2439 9.75 3.25126 9.75 4.4939C9.75 5.73654 10.7574 6.7439 12 6.7439Z" fill="white"/>
</svg>
