<svg width="184" height="228" viewBox="0 0 184 228" fill="none" xmlns="http://www.w3.org/2000/svg">
<g filter="url(#filter0_d_251_2431)">
<rect x="12" y="10" width="156" height="200" rx="6" fill="#F8F8F8" shape-rendering="crispEdges"/>
<path d="M85.03 148C86.3118 147.617 89.5519 147.081 92.2589 148H98.1035C98.8725 147.344 99.8568 145.965 97.642 145.702L97.6174 145.699C94.8481 145.371 90.5638 144.863 89.4904 138.645C88.6291 133.656 89.7467 127.157 90.4132 124.531V118.787C91.2335 118.295 92.628 116.128 91.6437 111.402C95.2119 107.857 95.4888 95.1539 95.1812 89.2456C95.8476 85.9632 97.1499 79.2343 97.0268 78.5779C97.4882 77.5932 96.5654 70.7002 98.1035 61.6737C98.7187 62.0675 98.7699 61.2907 98.7187 60.8531C98.0522 58.063 95.3657 51.3998 89.9518 47.0671C90.3209 45.7541 90.6183 44.4412 90.7208 43.9488C91.2848 44.4959 92.8126 45.4259 94.4121 44.7694C95.0274 44.5068 94.6685 43.1282 94.4121 42.4718C94.8736 42.0888 95.6118 40.9947 94.8736 39.6818C95.6118 39.6818 96.104 39.3535 96.2578 39.1894L94.8736 36.8917C95.2324 35.3053 95.4272 31.7384 93.3355 30.1629V28.6858C88.8752 27.3729 80.3544 27.0446 81.954 36.2353C85.5223 41.2245 84.056 45.5353 82.8769 47.0671C80.9286 49.5289 78.0165 56.4875 81.954 64.6278C84.4149 73.8184 84.3124 78.742 83.9536 80.0549C81.9541 82.7902 79.1549 89.6723 83.9536 95.318C81.9541 105.001 82.8769 109.432 83.9536 110.909C83.646 113.043 84.1074 112.386 83.3383 114.192C82.7231 115.636 83.082 117.529 83.3383 118.295C82.3642 120.702 81.0005 127.584 83.3383 135.855C84.6917 140.057 84.3124 143.405 83.9536 144.554C83.5433 145.429 83.1843 147.343 85.03 148Z" fill="#00A499"/>
<path d="M80.3506 180.502C80.3506 181.264 80.1631 181.92 79.7881 182.471C79.4189 183.021 78.8857 183.443 78.1885 183.736C77.4971 184.029 76.6709 184.176 75.71 184.176C75.2412 184.176 74.793 184.149 74.3652 184.097C73.9375 184.044 73.5332 183.968 73.1523 183.868C72.7773 183.763 72.4346 183.637 72.124 183.49V181.504C72.6455 181.732 73.2285 181.94 73.873 182.128C74.5176 182.31 75.1738 182.4 75.8418 182.4C76.3867 182.4 76.8379 182.33 77.1953 182.189C77.5586 182.043 77.8281 181.838 78.0039 181.574C78.1797 181.305 78.2676 180.991 78.2676 180.634C78.2676 180.253 78.165 179.931 77.96 179.667C77.7549 179.403 77.4443 179.163 77.0283 178.946C76.6182 178.724 76.1025 178.486 75.4814 178.234C75.0596 178.064 74.6553 177.871 74.2686 177.654C73.8877 177.438 73.5479 177.183 73.249 176.89C72.9502 176.597 72.7129 176.251 72.5371 175.853C72.3672 175.448 72.2822 174.974 72.2822 174.429C72.2822 173.702 72.4551 173.081 72.8008 172.565C73.1523 172.05 73.6445 171.654 74.2773 171.379C74.916 171.104 75.6602 170.966 76.5098 170.966C77.1836 170.966 77.8164 171.036 78.4082 171.177C79.0059 171.317 79.5918 171.517 80.166 171.774L79.498 173.471C78.9707 173.254 78.458 173.081 77.96 172.952C77.4678 172.823 76.9639 172.759 76.4482 172.759C76.0029 172.759 75.625 172.826 75.3145 172.961C75.0039 173.096 74.7666 173.286 74.6025 173.532C74.4443 173.772 74.3652 174.06 74.3652 174.394C74.3652 174.769 74.4561 175.085 74.6377 175.343C74.8252 175.595 75.1123 175.826 75.499 176.037C75.8916 176.248 76.3955 176.482 77.0107 176.74C77.7197 177.033 78.3203 177.341 78.8125 177.663C79.3105 177.985 79.6914 178.372 79.9551 178.823C80.2188 179.269 80.3506 179.828 80.3506 180.502ZM84.6836 174.271V184H82.6182V174.271H84.6836ZM83.6641 170.544C83.9805 170.544 84.2529 170.629 84.4814 170.799C84.7158 170.969 84.833 171.262 84.833 171.678C84.833 172.088 84.7158 172.381 84.4814 172.557C84.2529 172.727 83.9805 172.812 83.6641 172.812C83.3359 172.812 83.0576 172.727 82.8291 172.557C82.6064 172.381 82.4951 172.088 82.4951 171.678C82.4951 171.262 82.6064 170.969 82.8291 170.799C83.0576 170.629 83.3359 170.544 83.6641 170.544ZM90.915 184.176C89.7549 184.176 88.8232 183.754 88.1201 182.91C87.4229 182.061 87.0742 180.81 87.0742 179.157C87.0742 177.487 87.4287 176.225 88.1377 175.369C88.8525 174.514 89.793 174.086 90.959 174.086C91.4512 174.086 91.8818 174.153 92.251 174.288C92.6201 174.417 92.9365 174.593 93.2002 174.815C93.4697 175.038 93.6982 175.287 93.8857 175.562H93.9824C93.9531 175.381 93.918 175.12 93.877 174.78C93.8418 174.435 93.8242 174.115 93.8242 173.822V170.324H95.8984V184H94.2812L93.9121 182.673H93.8242C93.6484 182.954 93.4258 183.209 93.1562 183.438C92.8926 183.66 92.5762 183.839 92.207 183.974C91.8438 184.108 91.4131 184.176 90.915 184.176ZM91.4951 182.497C92.3799 182.497 93.0039 182.242 93.3672 181.732C93.7305 181.223 93.918 180.458 93.9297 179.438V179.166C93.9297 178.076 93.7539 177.241 93.4023 176.661C93.0508 176.075 92.4092 175.782 91.4775 175.782C90.7334 175.782 90.165 176.084 89.7725 176.688C89.3857 177.285 89.1924 178.12 89.1924 179.192C89.1924 180.265 89.3857 181.085 89.7725 181.653C90.165 182.216 90.7393 182.497 91.4951 182.497ZM102.736 174.086C103.604 174.086 104.348 174.265 104.969 174.622C105.59 174.979 106.067 175.486 106.401 176.143C106.735 176.799 106.902 177.584 106.902 178.498V179.605H100.407C100.431 180.549 100.683 181.275 101.163 181.785C101.649 182.295 102.329 182.55 103.202 182.55C103.823 182.55 104.38 182.491 104.872 182.374C105.37 182.251 105.883 182.072 106.41 181.838V183.517C105.924 183.745 105.429 183.912 104.925 184.018C104.421 184.123 103.817 184.176 103.114 184.176C102.159 184.176 101.318 183.991 100.592 183.622C99.8711 183.247 99.3057 182.69 98.8955 181.952C98.4912 181.214 98.2891 180.297 98.2891 179.201C98.2891 178.111 98.4736 177.186 98.8428 176.424C99.2119 175.662 99.7305 175.082 100.398 174.684C101.066 174.285 101.846 174.086 102.736 174.086ZM102.736 175.642C102.086 175.642 101.559 175.853 101.154 176.274C100.756 176.696 100.521 177.314 100.451 178.129H104.881C104.875 177.643 104.793 177.212 104.635 176.837C104.482 176.462 104.248 176.169 103.932 175.958C103.621 175.747 103.223 175.642 102.736 175.642Z" fill="#00A499"/>
</g>
<defs>
<filter id="filter0_d_251_2431" x="0" y="0" width="184" height="228" filterUnits="userSpaceOnUse" color-interpolation-filters="sRGB">
<feFlood flood-opacity="0" result="BackgroundImageFix"/>
<feColorMatrix in="SourceAlpha" type="matrix" values="0 0 0 0 0 0 0 0 0 0 0 0 0 0 0 0 0 0 127 0" result="hardAlpha"/>
<feOffset dx="2" dy="4"/>
<feGaussianBlur stdDeviation="7"/>
<feComposite in2="hardAlpha" operator="out"/>
<feColorMatrix type="matrix" values="0 0 0 0 0 0 0 0 0 0 0 0 0 0 0 0 0 0 0.06 0"/>
<feBlend mode="normal" in2="BackgroundImageFix" result="effect1_dropShadow_251_2431"/>
<feBlend mode="normal" in="SourceGraphic" in2="effect1_dropShadow_251_2431" result="shape"/>
</filter>
</defs>
</svg>
