<svg width="67" height="40" viewBox="0 0 67 40" fill="none" xmlns="http://www.w3.org/2000/svg">
<path d="M36 4H29C28.4696 4 27.9609 4.21071 27.5858 4.58579C27.2107 4.96086 27 5.46957 27 6V20C27 20.5304 27.2107 21.0391 27.5858 21.4142C27.9609 21.7893 28.4696 22 29 22H43C43.5304 22 44.0391 21.7893 44.4142 21.4142C44.7893 21.0391 45 20.5304 45 20V13" stroke="#00A499" stroke-width="2" stroke-linecap="round" stroke-linejoin="round"/>
<path d="M43.5 2.50001C43.8978 2.10219 44.4374 1.87869 45 1.87869C45.5626 1.87869 46.1022 2.10219 46.5 2.50001C46.8978 2.89784 47.1213 3.4374 47.1213 4.00001C47.1213 4.56262 46.8978 5.10219 46.5 5.50001L37 15L33 16L34 12L43.5 2.50001Z" stroke="#00A499" stroke-width="2" stroke-linecap="round" stroke-linejoin="round"/>
<path d="M12.9414 37H8.17188V28.4336H12.9414V29.3125H9.16797V32.084H12.7246V32.9512H9.16797V36.1211H12.9414V37ZM16.9785 37.1172C16.166 37.1172 15.5215 36.8398 15.0449 36.2852C14.5723 35.7305 14.3359 34.9062 14.3359 33.8125C14.3359 32.707 14.5781 31.873 15.0625 31.3105C15.5469 30.7441 16.1914 30.4609 16.9961 30.4609C17.3359 30.4609 17.6328 30.5059 17.8867 30.5957C18.1406 30.6855 18.3594 30.8066 18.543 30.959C18.7266 31.1074 18.8809 31.2773 19.0059 31.4688H19.0762C19.0605 31.3477 19.0449 31.1816 19.0293 30.9707C19.0137 30.7598 19.0059 30.5879 19.0059 30.4551V27.8828H19.9785V37H19.1934L19.0469 36.0859H19.0059C18.8848 36.2773 18.7305 36.4512 18.543 36.6074C18.3594 36.7637 18.1387 36.8887 17.8809 36.9824C17.627 37.0723 17.3262 37.1172 16.9785 37.1172ZM17.1309 36.3086C17.8184 36.3086 18.3047 36.1133 18.5898 35.7227C18.875 35.332 19.0176 34.752 19.0176 33.9824V33.8066C19.0176 32.9902 18.8809 32.3633 18.6074 31.9258C18.3379 31.4883 17.8457 31.2695 17.1309 31.2695C16.5332 31.2695 16.0859 31.5 15.7891 31.9609C15.4922 32.418 15.3438 33.043 15.3438 33.8359C15.3438 34.625 15.4902 35.2344 15.7832 35.6641C16.0801 36.0938 16.5293 36.3086 17.1309 36.3086ZM23.0137 30.5781V37H22.041V30.5781H23.0137ZM22.5391 28.1758C22.6992 28.1758 22.8359 28.2285 22.9492 28.334C23.0664 28.4355 23.125 28.5957 23.125 28.8145C23.125 29.0293 23.0664 29.1895 22.9492 29.2949C22.8359 29.4004 22.6992 29.4531 22.5391 29.4531C22.3711 29.4531 22.2305 29.4004 22.1172 29.2949C22.0078 29.1895 21.9531 29.0293 21.9531 28.8145C21.9531 28.5957 22.0078 28.4355 22.1172 28.334C22.2305 28.2285 22.3711 28.1758 22.5391 28.1758ZM27.1504 36.3203C27.3105 36.3203 27.4746 36.3066 27.6426 36.2793C27.8105 36.252 27.9473 36.2188 28.0527 36.1797V36.9355C27.9395 36.9863 27.7812 37.0293 27.5781 37.0645C27.3789 37.0996 27.1836 37.1172 26.9922 37.1172C26.6523 37.1172 26.3438 37.0586 26.0664 36.9414C25.7891 36.8203 25.5664 36.6172 25.3984 36.332C25.2344 36.0469 25.1523 35.6523 25.1523 35.1484V31.3398H24.2383V30.8652L25.1582 30.4844L25.5449 29.0898H26.1309V30.5781H28.0117V31.3398H26.1309V35.1191C26.1309 35.5215 26.2227 35.8223 26.4062 36.0215C26.5938 36.2207 26.8418 36.3203 27.1504 36.3203ZM35.4883 30.4609C36.2891 30.4609 36.9277 30.7363 37.4043 31.2871C37.8809 31.8379 38.1191 32.666 38.1191 33.7715C38.1191 34.502 38.0098 35.1152 37.791 35.6113C37.5723 36.1074 37.2637 36.4824 36.8652 36.7363C36.4707 36.9902 36.0039 37.1172 35.4648 37.1172C35.125 37.1172 34.8262 37.0723 34.5684 36.9824C34.3105 36.8926 34.0898 36.7715 33.9062 36.6191C33.7227 36.4668 33.5703 36.3008 33.4492 36.1211H33.3789C33.3906 36.2734 33.4043 36.457 33.4199 36.6719C33.4395 36.8867 33.4492 37.0742 33.4492 37.2344V39.8711H32.4707V30.5781H33.2734L33.4023 31.5273H33.4492C33.5742 31.332 33.7266 31.1543 33.9062 30.9941C34.0859 30.8301 34.3047 30.7012 34.5625 30.6074C34.8242 30.5098 35.1328 30.4609 35.4883 30.4609ZM35.3184 31.2812C34.873 31.2812 34.5137 31.3672 34.2402 31.5391C33.9707 31.7109 33.7734 31.9688 33.6484 32.3125C33.5234 32.6523 33.457 33.0801 33.4492 33.5957V33.7832C33.4492 34.3262 33.5078 34.7852 33.625 35.1602C33.7461 35.5352 33.9434 35.8203 34.2168 36.0156C34.4941 36.2109 34.8652 36.3086 35.3301 36.3086C35.7285 36.3086 36.0605 36.2012 36.3262 35.9863C36.5918 35.7715 36.7891 35.4727 36.918 35.0898C37.0508 34.7031 37.1172 34.2598 37.1172 33.7598C37.1172 33.002 36.9688 32.4004 36.6719 31.9551C36.3789 31.5059 35.9277 31.2812 35.3184 31.2812ZM45.3555 33.7773C45.3555 34.3047 45.2871 34.7754 45.1504 35.1895C45.0137 35.6035 44.8164 35.9531 44.5586 36.2383C44.3008 36.5234 43.9883 36.7422 43.6211 36.8945C43.2578 37.043 42.8457 37.1172 42.3848 37.1172C41.9551 37.1172 41.5605 37.043 41.2012 36.8945C40.8457 36.7422 40.5371 36.5234 40.2754 36.2383C40.0176 35.9531 39.8164 35.6035 39.6719 35.1895C39.5312 34.7754 39.4609 34.3047 39.4609 33.7773C39.4609 33.0742 39.5801 32.4766 39.8184 31.9844C40.0566 31.4883 40.3965 31.1113 40.8379 30.8535C41.2832 30.5918 41.8125 30.4609 42.4258 30.4609C43.0117 30.4609 43.5234 30.5918 43.9609 30.8535C44.4023 31.1152 44.7441 31.4941 44.9863 31.9902C45.2324 32.4824 45.3555 33.0781 45.3555 33.7773ZM40.4688 33.7773C40.4688 34.293 40.5371 34.7402 40.6738 35.1191C40.8105 35.498 41.0215 35.791 41.3066 35.998C41.5918 36.2051 41.959 36.3086 42.4082 36.3086C42.8535 36.3086 43.2188 36.2051 43.5039 35.998C43.793 35.791 44.0059 35.498 44.1426 35.1191C44.2793 34.7402 44.3477 34.293 44.3477 33.7773C44.3477 33.2656 44.2793 32.8242 44.1426 32.4531C44.0059 32.0781 43.7949 31.7891 43.5098 31.5859C43.2246 31.3828 42.8555 31.2812 42.4023 31.2812C41.7344 31.2812 41.2441 31.502 40.9316 31.9434C40.623 32.3848 40.4688 32.9961 40.4688 33.7773ZM48.0098 30.5781V37H47.0371V30.5781H48.0098ZM47.5352 28.1758C47.6953 28.1758 47.832 28.2285 47.9453 28.334C48.0625 28.4355 48.1211 28.5957 48.1211 28.8145C48.1211 29.0293 48.0625 29.1895 47.9453 29.2949C47.832 29.4004 47.6953 29.4531 47.5352 29.4531C47.3672 29.4531 47.2266 29.4004 47.1133 29.2949C47.0039 29.1895 46.9492 29.0293 46.9492 28.8145C46.9492 28.5957 47.0039 28.4355 47.1133 28.334C47.2266 28.2285 47.3672 28.1758 47.5352 28.1758ZM53.1133 30.4609C53.875 30.4609 54.4512 30.6484 54.8418 31.0234C55.2324 31.3945 55.4277 31.9922 55.4277 32.8164V37H54.4668V32.8809C54.4668 32.3457 54.3438 31.9453 54.0977 31.6797C53.8555 31.4141 53.4824 31.2812 52.9785 31.2812C52.2676 31.2812 51.7676 31.4824 51.4785 31.8848C51.1895 32.2871 51.0449 32.8711 51.0449 33.6367V37H50.0723V30.5781H50.8574L51.0039 31.5039H51.0566C51.1934 31.2773 51.3672 31.0879 51.5781 30.9355C51.7891 30.7793 52.0254 30.6621 52.2871 30.584C52.5488 30.502 52.8242 30.4609 53.1133 30.4609ZM59.5059 36.3203C59.666 36.3203 59.8301 36.3066 59.998 36.2793C60.166 36.252 60.3027 36.2188 60.4082 36.1797V36.9355C60.2949 36.9863 60.1367 37.0293 59.9336 37.0645C59.7344 37.0996 59.5391 37.1172 59.3477 37.1172C59.0078 37.1172 58.6992 37.0586 58.4219 36.9414C58.1445 36.8203 57.9219 36.6172 57.7539 36.332C57.5898 36.0469 57.5078 35.6523 57.5078 35.1484V31.3398H56.5938V30.8652L57.5137 30.4844L57.9004 29.0898H58.4863V30.5781H60.3672V31.3398H58.4863V35.1191C58.4863 35.5215 58.5781 35.8223 58.7617 36.0215C58.9492 36.2207 59.1973 36.3203 59.5059 36.3203ZM65.8633 35.2422C65.8633 35.6523 65.7598 35.998 65.5527 36.2793C65.3496 36.5566 65.0566 36.7656 64.6738 36.9062C64.2949 37.0469 63.8418 37.1172 63.3145 37.1172C62.8652 37.1172 62.4766 37.082 62.1484 37.0117C61.8203 36.9414 61.5332 36.8418 61.2871 36.7129V35.8164C61.5488 35.9453 61.8613 36.0625 62.2246 36.168C62.5879 36.2734 62.959 36.3262 63.3379 36.3262C63.8926 36.3262 64.2949 36.2363 64.5449 36.0566C64.7949 35.877 64.9199 35.6328 64.9199 35.3242C64.9199 35.1484 64.8691 34.9941 64.7676 34.8613C64.6699 34.7246 64.5039 34.5938 64.2695 34.4688C64.0352 34.3398 63.7109 34.1992 63.2969 34.0469C62.8867 33.8906 62.5312 33.7363 62.2305 33.584C61.9336 33.4277 61.7031 33.2383 61.5391 33.0156C61.3789 32.793 61.2988 32.5039 61.2988 32.1484C61.2988 31.6055 61.5176 31.1895 61.9551 30.9004C62.3965 30.6074 62.9746 30.4609 63.6895 30.4609C64.0762 30.4609 64.4375 30.5 64.7734 30.5781C65.1133 30.6523 65.4297 30.7539 65.7227 30.8828L65.3945 31.6621C65.1289 31.5488 64.8457 31.4531 64.5449 31.375C64.2441 31.2969 63.9375 31.2578 63.625 31.2578C63.1758 31.2578 62.8301 31.332 62.5879 31.4805C62.3496 31.6289 62.2305 31.832 62.2305 32.0898C62.2305 32.2891 62.2852 32.4531 62.3945 32.582C62.5078 32.7109 62.6875 32.832 62.9336 32.9453C63.1797 33.0586 63.5039 33.1914 63.9062 33.3438C64.3086 33.4922 64.6562 33.6465 64.9492 33.8066C65.2422 33.9629 65.4668 34.1543 65.623 34.3809C65.7832 34.6035 65.8633 34.8906 65.8633 35.2422Z" fill="#00A499"/>
</svg>
