<svg width="75" height="40" viewBox="0 0 75 40" fill="none" xmlns="http://www.w3.org/2000/svg">
<path d="M33 21V19C33 17.9391 32.5786 16.9217 31.8284 16.1716C31.0783 15.4214 30.0609 15 29 15H22C20.9391 15 19.9217 15.4214 19.1716 16.1716C18.4214 16.9217 18 17.9391 18 19V21" stroke="#00A499" stroke-width="2" stroke-linecap="round" stroke-linejoin="round"/>
<path d="M25.5 11C27.7091 11 29.5 9.20914 29.5 7C29.5 4.79086 27.7091 3 25.5 3C23.2909 3 21.5 4.79086 21.5 7C21.5 9.20914 23.2909 11 25.5 11Z" stroke="#00A499" stroke-width="2" stroke-linecap="round" stroke-linejoin="round"/>
<path d="M37 8V14" stroke="#00A499" stroke-width="2" stroke-linecap="round" stroke-linejoin="round"/>
<path d="M40 11H34" stroke="#00A499" stroke-width="2" stroke-linecap="round" stroke-linejoin="round"/>
<path d="M7.86914 37H6.7207L2.05078 29.8047H2.00391C2.01562 29.9961 2.0293 30.2148 2.04492 30.4609C2.06055 30.7031 2.07227 30.9629 2.08008 31.2402C2.0918 31.5137 2.09766 31.793 2.09766 32.0781V37H1.17188V28.4336H2.31445L6.9668 35.6055H7.00781C7 35.4688 6.99023 35.2754 6.97852 35.0254C6.9668 34.7715 6.95508 34.5 6.94336 34.2109C6.93555 33.918 6.93164 33.6465 6.93164 33.3965V28.4336H7.86914V37ZM12.5332 30.4609C13.0801 30.4609 13.5488 30.582 13.9395 30.8242C14.3301 31.0664 14.6289 31.4062 14.8359 31.8438C15.043 32.2773 15.1465 32.7852 15.1465 33.3672V33.9707H10.7109C10.7227 34.7246 10.9102 35.2988 11.2734 35.6934C11.6367 36.0879 12.1484 36.2852 12.8086 36.2852C13.2148 36.2852 13.5742 36.248 13.8867 36.1738C14.1992 36.0996 14.5234 35.9902 14.8594 35.8457V36.7012C14.5352 36.8457 14.2129 36.9512 13.8926 37.0176C13.5762 37.084 13.2012 37.1172 12.7676 37.1172C12.1504 37.1172 11.6113 36.9922 11.1504 36.7422C10.6934 36.4883 10.3379 36.1172 10.084 35.6289C9.83008 35.1406 9.70312 34.543 9.70312 33.8359C9.70312 33.1445 9.81836 32.5469 10.0488 32.043C10.2832 31.5352 10.6113 31.1445 11.0332 30.8711C11.459 30.5977 11.959 30.4609 12.5332 30.4609ZM12.5215 31.2578C12.002 31.2578 11.5879 31.4277 11.2793 31.7676C10.9707 32.1074 10.7871 32.582 10.7285 33.1914H14.127C14.123 32.8086 14.0625 32.4727 13.9453 32.1836C13.832 31.8906 13.6582 31.6641 13.4238 31.5039C13.1895 31.3398 12.8887 31.2578 12.5215 31.2578ZM22.0254 36.9883L20.8828 33.25C20.832 33.0898 20.7832 32.9336 20.7363 32.7812C20.6934 32.625 20.6523 32.4766 20.6133 32.3359C20.5781 32.1914 20.5449 32.0586 20.5137 31.9375C20.4863 31.8125 20.4629 31.7051 20.4434 31.6152H20.4023C20.3867 31.7051 20.3652 31.8125 20.3379 31.9375C20.3105 32.0586 20.2773 32.1914 20.2383 32.3359C20.2031 32.4805 20.1641 32.6328 20.1211 32.793C20.0781 32.9492 20.0293 33.1074 19.9746 33.2676L18.7793 36.9883H17.6836L15.9141 30.5664H16.9219L17.8477 34.1113C17.9102 34.3457 17.9688 34.5781 18.0234 34.8086C18.082 35.0352 18.1309 35.25 18.1699 35.4531C18.2129 35.6523 18.2441 35.8262 18.2637 35.9746H18.3105C18.334 35.877 18.3594 35.7598 18.3867 35.623C18.418 35.4863 18.4512 35.3418 18.4863 35.1895C18.5254 35.0332 18.5664 34.8789 18.6094 34.7266C18.6523 34.5703 18.6953 34.4238 18.7383 34.2871L19.9219 30.5664H20.9707L22.1133 34.2812C22.1719 34.4688 22.2285 34.6641 22.2832 34.8672C22.3418 35.0703 22.3945 35.2676 22.4414 35.459C22.4883 35.6465 22.5215 35.8145 22.541 35.9629H22.5879C22.6035 35.8301 22.6328 35.666 22.6758 35.4707C22.7188 35.2754 22.7676 35.0605 22.8223 34.8262C22.8809 34.5918 22.9414 34.3535 23.0039 34.1113L23.9414 30.5664H24.9316L23.1562 36.9883H22.0254ZM31.793 37.1172C31.2148 37.1172 30.7051 36.998 30.2637 36.7598C29.8223 36.5215 29.4785 36.1582 29.2324 35.6699C28.9863 35.1816 28.8633 34.5664 28.8633 33.8242C28.8633 33.0469 28.9922 32.4121 29.25 31.9199C29.5117 31.4238 29.8711 31.0566 30.3281 30.8184C30.7852 30.5801 31.3047 30.4609 31.8867 30.4609C32.207 30.4609 32.5156 30.4941 32.8125 30.5605C33.1133 30.623 33.3594 30.7031 33.5508 30.8008L33.2578 31.6152C33.0625 31.5371 32.8359 31.4668 32.5781 31.4043C32.3242 31.3418 32.0859 31.3105 31.8633 31.3105C31.418 31.3105 31.0469 31.4062 30.75 31.5977C30.457 31.7891 30.2363 32.0703 30.0879 32.4414C29.9434 32.8125 29.8711 33.2695 29.8711 33.8125C29.8711 34.332 29.9414 34.7754 30.082 35.1426C30.2266 35.5098 30.4395 35.791 30.7207 35.9863C31.0059 36.1777 31.3613 36.2734 31.7871 36.2734C32.127 36.2734 32.4336 36.2383 32.707 36.168C32.9805 36.0938 33.2285 36.0078 33.4512 35.9102V36.7773C33.2363 36.8867 32.9961 36.9707 32.7305 37.0293C32.4688 37.0879 32.1562 37.1172 31.793 37.1172ZM35.9531 37H34.9746V27.8828H35.9531V37ZM38.9824 30.5781V37H38.0098V30.5781H38.9824ZM38.5078 28.1758C38.668 28.1758 38.8047 28.2285 38.918 28.334C39.0352 28.4355 39.0938 28.5957 39.0938 28.8145C39.0938 29.0293 39.0352 29.1895 38.918 29.2949C38.8047 29.4004 38.668 29.4531 38.5078 29.4531C38.3398 29.4531 38.1992 29.4004 38.0859 29.2949C37.9766 29.1895 37.9219 29.0293 37.9219 28.8145C37.9219 28.5957 37.9766 28.4355 38.0859 28.334C38.1992 28.2285 38.3398 28.1758 38.5078 28.1758ZM43.5176 30.4609C44.0645 30.4609 44.5332 30.582 44.9238 30.8242C45.3145 31.0664 45.6133 31.4062 45.8203 31.8438C46.0273 32.2773 46.1309 32.7852 46.1309 33.3672V33.9707H41.6953C41.707 34.7246 41.8945 35.2988 42.2578 35.6934C42.6211 36.0879 43.1328 36.2852 43.793 36.2852C44.1992 36.2852 44.5586 36.248 44.8711 36.1738C45.1836 36.0996 45.5078 35.9902 45.8438 35.8457V36.7012C45.5195 36.8457 45.1973 36.9512 44.877 37.0176C44.5605 37.084 44.1855 37.1172 43.752 37.1172C43.1348 37.1172 42.5957 36.9922 42.1348 36.7422C41.6777 36.4883 41.3223 36.1172 41.0684 35.6289C40.8145 35.1406 40.6875 34.543 40.6875 33.8359C40.6875 33.1445 40.8027 32.5469 41.0332 32.043C41.2676 31.5352 41.5957 31.1445 42.0176 30.8711C42.4434 30.5977 42.9434 30.4609 43.5176 30.4609ZM43.5059 31.2578C42.9863 31.2578 42.5723 31.4277 42.2637 31.7676C41.9551 32.1074 41.7715 32.582 41.7129 33.1914H45.1113C45.1074 32.8086 45.0469 32.4727 44.9297 32.1836C44.8164 31.8906 44.6426 31.6641 44.4082 31.5039C44.1738 31.3398 43.873 31.2578 43.5059 31.2578ZM50.8242 30.4609C51.5859 30.4609 52.1621 30.6484 52.5527 31.0234C52.9434 31.3945 53.1387 31.9922 53.1387 32.8164V37H52.1777V32.8809C52.1777 32.3457 52.0547 31.9453 51.8086 31.6797C51.5664 31.4141 51.1934 31.2812 50.6895 31.2812C49.9785 31.2812 49.4785 31.4824 49.1895 31.8848C48.9004 32.2871 48.7559 32.8711 48.7559 33.6367V37H47.7832V30.5781H48.5684L48.7148 31.5039H48.7676C48.9043 31.2773 49.0781 31.0879 49.2891 30.9355C49.5 30.7793 49.7363 30.6621 49.998 30.584C50.2598 30.502 50.5352 30.4609 50.8242 30.4609ZM57.2168 36.3203C57.377 36.3203 57.541 36.3066 57.709 36.2793C57.877 36.252 58.0137 36.2188 58.1191 36.1797V36.9355C58.0059 36.9863 57.8477 37.0293 57.6445 37.0645C57.4453 37.0996 57.25 37.1172 57.0586 37.1172C56.7188 37.1172 56.4102 37.0586 56.1328 36.9414C55.8555 36.8203 55.6328 36.6172 55.4648 36.332C55.3008 36.0469 55.2188 35.6523 55.2188 35.1484V31.3398H54.3047V30.8652L55.2246 30.4844L55.6113 29.0898H56.1973V30.5781H58.0781V31.3398H56.1973V35.1191C56.1973 35.5215 56.2891 35.8223 56.4727 36.0215C56.6602 36.2207 56.9082 36.3203 57.2168 36.3203Z" fill="#00A499"/>
</svg>
