<svg width="76" height="40" viewBox="0 0 76 40" fill="none" xmlns="http://www.w3.org/2000/svg">
<path d="M47 19C47 19.5304 46.7893 20.0391 46.4142 20.4142C46.0391 20.7893 45.5304 21 45 21H29C28.4696 21 27.9609 20.7893 27.5858 20.4142C27.2107 20.0391 27 19.5304 27 19V5C27 4.46957 27.2107 3.96086 27.5858 3.58579C27.9609 3.21071 28.4696 3 29 3H34L36 6H45C45.5304 6 46.0391 6.21071 46.4142 6.58579C46.7893 6.96086 47 7.46957 47 8V19Z" stroke="#00A499" stroke-width="2" stroke-linecap="round" stroke-linejoin="round"/>
<path d="M1.05682 39V30.2727H2.11364V38.0625H6.17045V39H1.05682ZM7.67045 39V32.4545H8.67614V39H7.67045ZM8.18182 31.3636C7.9858 31.3636 7.81676 31.2969 7.67472 31.1634C7.53551 31.0298 7.46591 30.8693 7.46591 30.6818C7.46591 30.4943 7.53551 30.3338 7.67472 30.2003C7.81676 30.0668 7.9858 30 8.18182 30C8.37784 30 8.54545 30.0668 8.68466 30.2003C8.8267 30.3338 8.89773 30.4943 8.89773 30.6818C8.89773 30.8693 8.8267 31.0298 8.68466 31.1634C8.54545 31.2969 8.37784 31.3636 8.18182 31.3636ZM15.1545 33.9205L14.2511 34.1761C14.1942 34.0256 14.1104 33.8793 13.9996 33.7372C13.8917 33.5923 13.744 33.473 13.5565 33.3793C13.369 33.2855 13.1289 33.2386 12.8363 33.2386C12.4357 33.2386 12.1019 33.331 11.8349 33.5156C11.5707 33.6974 11.4386 33.929 11.4386 34.2102C11.4386 34.4602 11.5295 34.6577 11.7113 34.8026C11.8931 34.9474 12.1772 35.0682 12.5636 35.1648L13.5352 35.4034C14.1204 35.5455 14.5565 35.7628 14.8434 36.0554C15.1303 36.3452 15.2738 36.7187 15.2738 37.1761C15.2738 37.5511 15.1658 37.8864 14.9499 38.1818C14.7369 38.4773 14.4386 38.7102 14.055 38.8807C13.6715 39.0511 13.2255 39.1364 12.717 39.1364C12.0494 39.1364 11.4968 38.9915 11.0593 38.7017C10.6218 38.4119 10.3448 37.9886 10.2283 37.4318L11.1829 37.1932C11.2738 37.5455 11.4457 37.8097 11.6985 37.9858C11.9542 38.1619 12.288 38.25 12.6999 38.25C13.1687 38.25 13.5408 38.1506 13.8164 37.9517C14.0948 37.75 14.234 37.5085 14.234 37.2273C14.234 37 14.1545 36.8097 13.9954 36.6562C13.8363 36.5 13.592 36.3835 13.2624 36.3068L12.1715 36.0511C11.5721 35.9091 11.1317 35.6889 10.8505 35.3906C10.5721 35.0895 10.4329 34.7131 10.4329 34.2614C10.4329 33.892 10.5366 33.5653 10.744 33.2812C10.9542 32.9972 11.2397 32.7741 11.6005 32.6122C11.9641 32.4503 12.3761 32.3693 12.8363 32.3693C13.484 32.3693 13.9925 32.5114 14.3619 32.7955C14.734 33.0795 14.9982 33.4545 15.1545 33.9205ZM19.6342 32.4545V33.3068H16.2422V32.4545H19.6342ZM17.2308 30.8864H18.2365V37.125C18.2365 37.4091 18.2777 37.6222 18.3601 37.7642C18.4453 37.9034 18.5533 37.9972 18.6839 38.0455C18.8175 38.0909 18.9581 38.1136 19.1058 38.1136C19.2166 38.1136 19.3075 38.108 19.3786 38.0966C19.4496 38.0824 19.5064 38.071 19.549 38.0625L19.7536 38.9659C19.6854 38.9915 19.5902 39.017 19.468 39.0426C19.3459 39.071 19.1911 39.0852 19.0036 39.0852C18.7195 39.0852 18.4411 39.0241 18.1683 38.902C17.8984 38.7798 17.674 38.5938 17.495 38.3438C17.3189 38.0938 17.2308 37.7784 17.2308 37.3977V30.8864ZM27.1811 39.1364C26.5902 39.1364 26.0717 38.9957 25.6257 38.7145C25.1825 38.4332 24.8359 38.0398 24.5859 37.5341C24.3388 37.0284 24.2152 36.4375 24.2152 35.7614C24.2152 35.0795 24.3388 34.4844 24.5859 33.9759C24.8359 33.4673 25.1825 33.0724 25.6257 32.7912C26.0717 32.5099 26.5902 32.3693 27.1811 32.3693C27.772 32.3693 28.2891 32.5099 28.7322 32.7912C29.1783 33.0724 29.5249 33.4673 29.772 33.9759C30.022 34.4844 30.147 35.0795 30.147 35.7614C30.147 36.4375 30.022 37.0284 29.772 37.5341C29.5249 38.0398 29.1783 38.4332 28.7322 38.7145C28.2891 38.9957 27.772 39.1364 27.1811 39.1364ZM27.1811 38.233C27.63 38.233 27.9993 38.1179 28.2891 37.8878C28.5788 37.6577 28.7933 37.3551 28.9325 36.9801C29.0717 36.6051 29.1413 36.1989 29.1413 35.7614C29.1413 35.3239 29.0717 34.9162 28.9325 34.5384C28.7933 34.1605 28.5788 33.8551 28.2891 33.6222C27.9993 33.3892 27.63 33.2727 27.1811 33.2727C26.7322 33.2727 26.3629 33.3892 26.0732 33.6222C25.7834 33.8551 25.5689 34.1605 25.4297 34.5384C25.2905 34.9162 25.2209 35.3239 25.2209 35.7614C25.2209 36.1989 25.2905 36.6051 25.4297 36.9801C25.5689 37.3551 25.7834 37.6577 26.0732 37.8878C26.3629 38.1179 26.7322 38.233 27.1811 38.233ZM34.5969 32.4545V33.3068H31.0685V32.4545H34.5969ZM32.1254 39V31.5511C32.1254 31.1761 32.2134 30.8636 32.3896 30.6136C32.5657 30.3636 32.7944 30.1761 33.0756 30.0511C33.3569 29.9261 33.6538 29.8636 33.9663 29.8636C34.2134 29.8636 34.4151 29.8835 34.5714 29.9233C34.7276 29.9631 34.8441 30 34.9208 30.0341L34.631 30.9034C34.5799 30.8864 34.5089 30.8651 34.418 30.8395C34.3299 30.8139 34.2134 30.8011 34.0685 30.8011C33.7362 30.8011 33.4961 30.8849 33.3484 31.0526C33.2035 31.2202 33.131 31.4659 33.131 31.7898V39H32.1254ZM39.3814 39V32.4545H40.353V33.4432H40.4212C40.5405 33.1193 40.7564 32.8565 41.0689 32.6548C41.3814 32.4531 41.7337 32.3523 42.1257 32.3523C42.1996 32.3523 42.2919 32.3537 42.4027 32.3565C42.5135 32.3594 42.5973 32.3636 42.6541 32.3693V33.392C42.62 33.3835 42.5419 33.3707 42.4197 33.3537C42.3004 33.3338 42.174 33.3239 42.0405 33.3239C41.7223 33.3239 41.4382 33.3906 41.1882 33.5241C40.9411 33.6548 40.745 33.8366 40.6001 34.0696C40.4581 34.2997 40.3871 34.5625 40.3871 34.858V39H39.3814ZM46.3913 39.1364C45.7607 39.1364 45.2166 38.9972 44.7592 38.7188C44.3047 38.4375 43.9538 38.0455 43.7067 37.5426C43.4624 37.0369 43.3402 36.4489 43.3402 35.7784C43.3402 35.108 43.4624 34.517 43.7067 34.0057C43.9538 33.4915 44.2976 33.0909 44.7379 32.804C45.1811 32.5142 45.6982 32.3693 46.2891 32.3693C46.63 32.3693 46.9666 32.4261 47.299 32.5398C47.6314 32.6534 47.9339 32.8381 48.2067 33.0938C48.4794 33.3466 48.6967 33.6818 48.8587 34.0994C49.0206 34.517 49.1016 35.0312 49.1016 35.642V36.0682H44.0561V35.1989H48.0788C48.0788 34.8295 48.005 34.5 47.8572 34.2102C47.7124 33.9205 47.505 33.6918 47.2351 33.5241C46.968 33.3565 46.6527 33.2727 46.2891 33.2727C45.8885 33.2727 45.5419 33.3722 45.2493 33.571C44.9595 33.767 44.7365 34.0227 44.5803 34.3381C44.424 34.6534 44.3459 34.9915 44.3459 35.3523V35.9318C44.3459 36.4261 44.4311 36.8452 44.6016 37.1889C44.7749 37.5298 45.0149 37.7898 45.3217 37.9688C45.6286 38.1449 45.9851 38.233 46.3913 38.233C46.6555 38.233 46.8942 38.196 47.1072 38.1222C47.3232 38.0455 47.5092 37.9318 47.6655 37.7812C47.8217 37.6278 47.9425 37.4375 48.0277 37.2102L48.9993 37.483C48.897 37.8125 48.7251 38.1023 48.4837 38.3523C48.2422 38.5994 47.9439 38.7926 47.5888 38.9318C47.2337 39.0682 46.8345 39.1364 46.3913 39.1364ZM55.2678 33.9205L54.3643 34.1761C54.3075 34.0256 54.2237 33.8793 54.1129 33.7372C54.005 33.5923 53.8572 33.473 53.6697 33.3793C53.4822 33.2855 53.2422 33.2386 52.9496 33.2386C52.549 33.2386 52.2152 33.331 51.9482 33.5156C51.6839 33.6974 51.5518 33.929 51.5518 34.2102C51.5518 34.4602 51.6428 34.6577 51.8246 34.8026C52.0064 34.9474 52.2905 35.0682 52.6768 35.1648L53.6484 35.4034C54.2337 35.5455 54.6697 35.7628 54.9567 36.0554C55.2436 36.3452 55.3871 36.7187 55.3871 37.1761C55.3871 37.5511 55.2791 37.8864 55.0632 38.1818C54.8501 38.4773 54.5518 38.7102 54.1683 38.8807C53.7848 39.0511 53.3388 39.1364 52.8303 39.1364C52.1626 39.1364 51.6101 38.9915 51.1726 38.7017C50.7351 38.4119 50.4581 37.9886 50.3416 37.4318L51.2962 37.1932C51.3871 37.5455 51.5589 37.8097 51.8118 37.9858C52.0675 38.1619 52.4013 38.25 52.8132 38.25C53.282 38.25 53.6541 38.1506 53.9297 37.9517C54.2081 37.75 54.3473 37.5085 54.3473 37.2273C54.3473 37 54.2678 36.8097 54.1087 36.6562C53.9496 36.5 53.7053 36.3835 53.3757 36.3068L52.2848 36.0511C51.6854 35.9091 51.245 35.6889 50.9638 35.3906C50.6854 35.0895 50.5462 34.7131 50.5462 34.2614C50.5462 33.892 50.6499 33.5653 50.8572 33.2812C51.0675 32.9972 51.353 32.7741 51.7138 32.6122C52.0774 32.4503 52.4893 32.3693 52.9496 32.3693C53.5973 32.3693 54.1058 32.5114 54.4751 32.7955C54.8473 33.0795 55.1115 33.4545 55.2678 33.9205ZM61.0259 36.3239V32.4545H62.0316V39H61.0259V37.892H60.9577C60.8043 38.2244 60.5657 38.5071 60.2418 38.7401C59.918 38.9702 59.5089 39.0852 59.0146 39.0852C58.6055 39.0852 58.2418 38.9957 57.9237 38.8168C57.6055 38.6349 57.3555 38.3622 57.1737 37.9986C56.9918 37.6321 56.9009 37.1705 56.9009 36.6136V32.4545H57.9066V36.5455C57.9066 37.0227 58.0401 37.4034 58.3072 37.6875C58.5771 37.9716 58.9208 38.1136 59.3384 38.1136C59.5884 38.1136 59.8427 38.0497 60.1012 37.9219C60.3626 37.794 60.5813 37.598 60.7575 37.3338C60.9364 37.0696 61.0259 36.733 61.0259 36.3239ZM64.8793 30.2727V39H63.8736V30.2727H64.8793ZM69.5678 32.4545V33.3068H66.1758V32.4545H69.5678ZM67.1644 30.8864H68.1701V37.125C68.1701 37.4091 68.2113 37.6222 68.2937 37.7642C68.3789 37.9034 68.4869 37.9972 68.6175 38.0455C68.7511 38.0909 68.8917 38.1136 69.0394 38.1136C69.1502 38.1136 69.2411 38.108 69.3121 38.0966C69.3832 38.0824 69.44 38.071 69.4826 38.0625L69.6871 38.9659C69.619 38.9915 69.5238 39.017 69.4016 39.0426C69.2795 39.071 69.1246 39.0852 68.9371 39.0852C68.6531 39.0852 68.3746 39.0241 68.1019 38.902C67.832 38.7798 67.6076 38.5938 67.4286 38.3438C67.2525 38.0938 67.1644 37.7784 67.1644 37.3977V30.8864ZM75.5998 33.9205L74.6964 34.1761C74.6396 34.0256 74.5558 33.8793 74.445 33.7372C74.337 33.5923 74.1893 33.473 74.0018 33.3793C73.8143 33.2855 73.5742 33.2386 73.2816 33.2386C72.881 33.2386 72.5472 33.331 72.2802 33.5156C72.016 33.6974 71.8839 33.929 71.8839 34.2102C71.8839 34.4602 71.9748 34.6577 72.1566 34.8026C72.3384 34.9474 72.6225 35.0682 73.0089 35.1648L73.9805 35.4034C74.5657 35.5455 75.0018 35.7628 75.2887 36.0554C75.5756 36.3452 75.7191 36.7187 75.7191 37.1761C75.7191 37.5511 75.6112 37.8864 75.3952 38.1818C75.1822 38.4773 74.8839 38.7102 74.5004 38.8807C74.1168 39.0511 73.6708 39.1364 73.1623 39.1364C72.4947 39.1364 71.9421 38.9915 71.5046 38.7017C71.0671 38.4119 70.7901 37.9886 70.6737 37.4318L71.6282 37.1932C71.7191 37.5455 71.891 37.8097 72.1438 37.9858C72.3995 38.1619 72.7333 38.25 73.1452 38.25C73.614 38.25 73.9862 38.1506 74.2617 37.9517C74.5401 37.75 74.6793 37.5085 74.6793 37.2273C74.6793 37 74.5998 36.8097 74.4407 36.6562C74.2816 36.5 74.0373 36.3835 73.7077 36.3068L72.6168 36.0511C72.0174 35.9091 71.5771 35.6889 71.2958 35.3906C71.0174 35.0895 70.8782 34.7131 70.8782 34.2614C70.8782 33.892 70.9819 33.5653 71.1893 33.2812C71.3995 32.9972 71.685 32.7741 72.0458 32.6122C72.4094 32.4503 72.8214 32.3693 73.2816 32.3693C73.9293 32.3693 74.4379 32.5114 74.8072 32.7955C75.1793 33.0795 75.4435 33.4545 75.5998 33.9205Z" fill="#00A499"/>
</svg>
