<svg width="81" height="40" viewBox="0 0 81 40" fill="none" xmlns="http://www.w3.org/2000/svg">
<path d="M47 19C47 19.5304 46.7893 20.0391 46.4142 20.4142C46.0391 20.7893 45.5304 21 45 21H29C28.4696 21 27.9609 20.7893 27.5858 20.4142C27.2107 20.0391 27 19.5304 27 19V5C27 4.46957 27.2107 3.96086 27.5858 3.58579C27.9609 3.21071 28.4696 3 29 3H34L36 6H45C45.5304 6 46.0391 6.21071 46.4142 6.58579C46.7893 6.96086 47 7.46957 47 8V19Z" stroke="#00A499" stroke-width="2" stroke-linecap="round" stroke-linejoin="round"/>
<path d="M4.83398 29.1895C4.36133 29.1895 3.93555 29.2715 3.55664 29.4355C3.18164 29.5957 2.86133 29.8301 2.5957 30.1387C2.33398 30.4434 2.13281 30.8125 1.99219 31.2461C1.85156 31.6797 1.78125 32.168 1.78125 32.7109C1.78125 33.4297 1.89258 34.0547 2.11523 34.5859C2.3418 35.1133 2.67773 35.5215 3.12305 35.8105C3.57227 36.0996 4.13281 36.2441 4.80469 36.2441C5.1875 36.2441 5.54688 36.2129 5.88281 36.1504C6.22266 36.084 6.55273 36.002 6.87305 35.9043V36.7715C6.56055 36.8887 6.23242 36.9746 5.88867 37.0293C5.54492 37.0879 5.13672 37.1172 4.66406 37.1172C3.79297 37.1172 3.06445 36.9375 2.47852 36.5781C1.89648 36.2148 1.45898 35.7031 1.16602 35.043C0.876953 34.3828 0.732422 33.6035 0.732422 32.7051C0.732422 32.0566 0.822266 31.4648 1.00195 30.9297C1.18555 30.3906 1.45117 29.9258 1.79883 29.5352C2.15039 29.1445 2.58008 28.8438 3.08789 28.6328C3.59961 28.418 4.18555 28.3105 4.8457 28.3105C5.2793 28.3105 5.69727 28.3535 6.09961 28.4395C6.50195 28.5254 6.86523 28.6484 7.18945 28.8086L6.79102 29.6523C6.51758 29.5273 6.2168 29.4199 5.88867 29.3301C5.56445 29.2363 5.21289 29.1895 4.83398 29.1895ZM9.5625 37H8.58398V27.8828H9.5625V37ZM12.5918 30.5781V37H11.6191V30.5781H12.5918ZM12.1172 28.1758C12.2773 28.1758 12.4141 28.2285 12.5273 28.334C12.6445 28.4355 12.7031 28.5957 12.7031 28.8145C12.7031 29.0293 12.6445 29.1895 12.5273 29.2949C12.4141 29.4004 12.2773 29.4531 12.1172 29.4531C11.9492 29.4531 11.8086 29.4004 11.6953 29.2949C11.5859 29.1895 11.5312 29.0293 11.5312 28.8145C11.5312 28.5957 11.5859 28.4355 11.6953 28.334C11.8086 28.2285 11.9492 28.1758 12.1172 28.1758ZM17.127 30.4609C17.6738 30.4609 18.1426 30.582 18.5332 30.8242C18.9238 31.0664 19.2227 31.4062 19.4297 31.8438C19.6367 32.2773 19.7402 32.7852 19.7402 33.3672V33.9707H15.3047C15.3164 34.7246 15.5039 35.2988 15.8672 35.6934C16.2305 36.0879 16.7422 36.2852 17.4023 36.2852C17.8086 36.2852 18.168 36.248 18.4805 36.1738C18.793 36.0996 19.1172 35.9902 19.4531 35.8457V36.7012C19.1289 36.8457 18.8066 36.9512 18.4863 37.0176C18.1699 37.084 17.7949 37.1172 17.3613 37.1172C16.7441 37.1172 16.2051 36.9922 15.7441 36.7422C15.2871 36.4883 14.9316 36.1172 14.6777 35.6289C14.4238 35.1406 14.2969 34.543 14.2969 33.8359C14.2969 33.1445 14.4121 32.5469 14.6426 32.043C14.877 31.5352 15.2051 31.1445 15.627 30.8711C16.0527 30.5977 16.5527 30.4609 17.127 30.4609ZM17.1152 31.2578C16.5957 31.2578 16.1816 31.4277 15.873 31.7676C15.5645 32.1074 15.3809 32.582 15.3223 33.1914H18.7207C18.7168 32.8086 18.6562 32.4727 18.5391 32.1836C18.4258 31.8906 18.252 31.6641 18.0176 31.5039C17.7832 31.3398 17.4824 31.2578 17.1152 31.2578ZM24.4336 30.4609C25.1953 30.4609 25.7715 30.6484 26.1621 31.0234C26.5527 31.3945 26.748 31.9922 26.748 32.8164V37H25.7871V32.8809C25.7871 32.3457 25.6641 31.9453 25.418 31.6797C25.1758 31.4141 24.8027 31.2812 24.2988 31.2812C23.5879 31.2812 23.0879 31.4824 22.7988 31.8848C22.5098 32.2871 22.3652 32.8711 22.3652 33.6367V37H21.3926V30.5781H22.1777L22.3242 31.5039H22.377C22.5137 31.2773 22.6875 31.0879 22.8984 30.9355C23.1094 30.7793 23.3457 30.6621 23.6074 30.584C23.8691 30.502 24.1445 30.4609 24.4336 30.4609ZM30.8262 36.3203C30.9863 36.3203 31.1504 36.3066 31.3184 36.2793C31.4863 36.252 31.623 36.2188 31.7285 36.1797V36.9355C31.6152 36.9863 31.457 37.0293 31.2539 37.0645C31.0547 37.0996 30.8594 37.1172 30.668 37.1172C30.3281 37.1172 30.0195 37.0586 29.7422 36.9414C29.4648 36.8203 29.2422 36.6172 29.0742 36.332C28.9102 36.0469 28.8281 35.6523 28.8281 35.1484V31.3398H27.9141V30.8652L28.834 30.4844L29.2207 29.0898H29.8066V30.5781H31.6875V31.3398H29.8066V35.1191C29.8066 35.5215 29.8984 35.8223 30.082 36.0215C30.2695 36.2207 30.5176 36.3203 30.8262 36.3203ZM33.8496 28.4336L33.627 31.5273H33.0117L32.7949 28.4336H33.8496ZM39.8203 35.2422C39.8203 35.6523 39.7168 35.998 39.5098 36.2793C39.3066 36.5566 39.0137 36.7656 38.6309 36.9062C38.252 37.0469 37.7988 37.1172 37.2715 37.1172C36.8223 37.1172 36.4336 37.082 36.1055 37.0117C35.7773 36.9414 35.4902 36.8418 35.2441 36.7129V35.8164C35.5059 35.9453 35.8184 36.0625 36.1816 36.168C36.5449 36.2734 36.916 36.3262 37.2949 36.3262C37.8496 36.3262 38.252 36.2363 38.502 36.0566C38.752 35.877 38.877 35.6328 38.877 35.3242C38.877 35.1484 38.8262 34.9941 38.7246 34.8613C38.627 34.7246 38.4609 34.5938 38.2266 34.4688C37.9922 34.3398 37.668 34.1992 37.2539 34.0469C36.8438 33.8906 36.4883 33.7363 36.1875 33.584C35.8906 33.4277 35.6602 33.2383 35.4961 33.0156C35.3359 32.793 35.2559 32.5039 35.2559 32.1484C35.2559 31.6055 35.4746 31.1895 35.9121 30.9004C36.3535 30.6074 36.9316 30.4609 37.6465 30.4609C38.0332 30.4609 38.3945 30.5 38.7305 30.5781C39.0703 30.6523 39.3867 30.7539 39.6797 30.8828L39.3516 31.6621C39.0859 31.5488 38.8027 31.4531 38.502 31.375C38.2012 31.2969 37.8945 31.2578 37.582 31.2578C37.1328 31.2578 36.7871 31.332 36.5449 31.4805C36.3066 31.6289 36.1875 31.832 36.1875 32.0898C36.1875 32.2891 36.2422 32.4531 36.3516 32.582C36.4648 32.7109 36.6445 32.832 36.8906 32.9453C37.1367 33.0586 37.4609 33.1914 37.8633 33.3438C38.2656 33.4922 38.6133 33.6465 38.9062 33.8066C39.1992 33.9629 39.4238 34.1543 39.5801 34.3809C39.7402 34.6035 39.8203 34.8906 39.8203 35.2422ZM47.4199 30.4609C47.5488 30.4609 47.6836 30.4688 47.8242 30.4844C47.9648 30.4961 48.0898 30.5137 48.1992 30.5371L48.0762 31.4395C47.9707 31.4121 47.8535 31.3906 47.7246 31.375C47.5957 31.3594 47.4746 31.3516 47.3613 31.3516C47.1035 31.3516 46.8594 31.4043 46.6289 31.5098C46.4023 31.6113 46.2031 31.7598 46.0312 31.9551C45.8594 32.1465 45.7246 32.3789 45.627 32.6523C45.5293 32.9219 45.4805 33.2227 45.4805 33.5547V37H44.502V30.5781H45.3105L45.416 31.7617H45.457C45.5898 31.5234 45.75 31.3066 45.9375 31.1113C46.125 30.9121 46.3418 30.7539 46.5879 30.6367C46.8379 30.5195 47.1152 30.4609 47.4199 30.4609ZM51.8848 30.4609C52.4316 30.4609 52.9004 30.582 53.291 30.8242C53.6816 31.0664 53.9805 31.4062 54.1875 31.8438C54.3945 32.2773 54.498 32.7852 54.498 33.3672V33.9707H50.0625C50.0742 34.7246 50.2617 35.2988 50.625 35.6934C50.9883 36.0879 51.5 36.2852 52.1602 36.2852C52.5664 36.2852 52.9258 36.248 53.2383 36.1738C53.5508 36.0996 53.875 35.9902 54.2109 35.8457V36.7012C53.8867 36.8457 53.5645 36.9512 53.2441 37.0176C52.9277 37.084 52.5527 37.1172 52.1191 37.1172C51.502 37.1172 50.9629 36.9922 50.502 36.7422C50.0449 36.4883 49.6895 36.1172 49.4355 35.6289C49.1816 35.1406 49.0547 34.543 49.0547 33.8359C49.0547 33.1445 49.1699 32.5469 49.4004 32.043C49.6348 31.5352 49.9629 31.1445 50.3848 30.8711C50.8105 30.5977 51.3105 30.4609 51.8848 30.4609ZM51.873 31.2578C51.3535 31.2578 50.9395 31.4277 50.6309 31.7676C50.3223 32.1074 50.1387 32.582 50.0801 33.1914H53.4785C53.4746 32.8086 53.4141 32.4727 53.2969 32.1836C53.1836 31.8906 53.0098 31.6641 52.7754 31.5039C52.541 31.3398 52.2402 31.2578 51.873 31.2578ZM60.3047 35.2422C60.3047 35.6523 60.2012 35.998 59.9941 36.2793C59.791 36.5566 59.498 36.7656 59.1152 36.9062C58.7363 37.0469 58.2832 37.1172 57.7559 37.1172C57.3066 37.1172 56.918 37.082 56.5898 37.0117C56.2617 36.9414 55.9746 36.8418 55.7285 36.7129V35.8164C55.9902 35.9453 56.3027 36.0625 56.666 36.168C57.0293 36.2734 57.4004 36.3262 57.7793 36.3262C58.334 36.3262 58.7363 36.2363 58.9863 36.0566C59.2363 35.877 59.3613 35.6328 59.3613 35.3242C59.3613 35.1484 59.3105 34.9941 59.209 34.8613C59.1113 34.7246 58.9453 34.5938 58.7109 34.4688C58.4766 34.3398 58.1523 34.1992 57.7383 34.0469C57.3281 33.8906 56.9727 33.7363 56.6719 33.584C56.375 33.4277 56.1445 33.2383 55.9805 33.0156C55.8203 32.793 55.7402 32.5039 55.7402 32.1484C55.7402 31.6055 55.959 31.1895 56.3965 30.9004C56.8379 30.6074 57.416 30.4609 58.1309 30.4609C58.5176 30.4609 58.8789 30.5 59.2148 30.5781C59.5547 30.6523 59.8711 30.7539 60.1641 30.8828L59.8359 31.6621C59.5703 31.5488 59.2871 31.4531 58.9863 31.375C58.6855 31.2969 58.3789 31.2578 58.0664 31.2578C57.6172 31.2578 57.2715 31.332 57.0293 31.4805C56.791 31.6289 56.6719 31.832 56.6719 32.0898C56.6719 32.2891 56.7266 32.4531 56.8359 32.582C56.9492 32.7109 57.1289 32.832 57.375 32.9453C57.6211 33.0586 57.9453 33.1914 58.3477 33.3438C58.75 33.4922 59.0977 33.6465 59.3906 33.8066C59.6836 33.9629 59.9082 34.1543 60.0645 34.3809C60.2246 34.6035 60.3047 34.8906 60.3047 35.2422ZM67.1719 30.5781V37H66.375L66.2344 36.0977H66.1816C66.0488 36.3203 65.877 36.5078 65.666 36.6602C65.4551 36.8125 65.2168 36.9258 64.9512 37C64.6895 37.0781 64.4102 37.1172 64.1133 37.1172C63.6055 37.1172 63.1797 37.0352 62.8359 36.8711C62.4922 36.707 62.2324 36.4531 62.0566 36.1094C61.8848 35.7656 61.7988 35.3242 61.7988 34.7852V30.5781H62.7832V34.7148C62.7832 35.25 62.9043 35.6504 63.1465 35.916C63.3887 36.1777 63.7578 36.3086 64.2539 36.3086C64.7305 36.3086 65.1094 36.2188 65.3906 36.0391C65.6758 35.8594 65.8809 35.5957 66.0059 35.248C66.1309 34.8965 66.1934 34.4668 66.1934 33.959V30.5781H67.1719ZM70.207 37H69.2285V27.8828H70.207V37ZM74.3379 36.3203C74.498 36.3203 74.6621 36.3066 74.8301 36.2793C74.998 36.252 75.1348 36.2188 75.2402 36.1797V36.9355C75.127 36.9863 74.9688 37.0293 74.7656 37.0645C74.5664 37.0996 74.3711 37.1172 74.1797 37.1172C73.8398 37.1172 73.5312 37.0586 73.2539 36.9414C72.9766 36.8203 72.7539 36.6172 72.5859 36.332C72.4219 36.0469 72.3398 35.6523 72.3398 35.1484V31.3398H71.4258V30.8652L72.3457 30.4844L72.7324 29.0898H73.3184V30.5781H75.1992V31.3398H73.3184V35.1191C73.3184 35.5215 73.4102 35.8223 73.5938 36.0215C73.7812 36.2207 74.0293 36.3203 74.3379 36.3203ZM80.6953 35.2422C80.6953 35.6523 80.5918 35.998 80.3848 36.2793C80.1816 36.5566 79.8887 36.7656 79.5059 36.9062C79.127 37.0469 78.6738 37.1172 78.1465 37.1172C77.6973 37.1172 77.3086 37.082 76.9805 37.0117C76.6523 36.9414 76.3652 36.8418 76.1191 36.7129V35.8164C76.3809 35.9453 76.6934 36.0625 77.0566 36.168C77.4199 36.2734 77.791 36.3262 78.1699 36.3262C78.7246 36.3262 79.127 36.2363 79.377 36.0566C79.627 35.877 79.752 35.6328 79.752 35.3242C79.752 35.1484 79.7012 34.9941 79.5996 34.8613C79.502 34.7246 79.3359 34.5938 79.1016 34.4688C78.8672 34.3398 78.543 34.1992 78.1289 34.0469C77.7188 33.8906 77.3633 33.7363 77.0625 33.584C76.7656 33.4277 76.5352 33.2383 76.3711 33.0156C76.2109 32.793 76.1309 32.5039 76.1309 32.1484C76.1309 31.6055 76.3496 31.1895 76.7871 30.9004C77.2285 30.6074 77.8066 30.4609 78.5215 30.4609C78.9082 30.4609 79.2695 30.5 79.6055 30.5781C79.9453 30.6523 80.2617 30.7539 80.5547 30.8828L80.2266 31.6621C79.9609 31.5488 79.6777 31.4531 79.377 31.375C79.0762 31.2969 78.7695 31.2578 78.457 31.2578C78.0078 31.2578 77.6621 31.332 77.4199 31.4805C77.1816 31.6289 77.0625 31.832 77.0625 32.0898C77.0625 32.2891 77.1172 32.4531 77.2266 32.582C77.3398 32.7109 77.5195 32.832 77.7656 32.9453C78.0117 33.0586 78.3359 33.1914 78.7383 33.3438C79.1406 33.4922 79.4883 33.6465 79.7812 33.8066C80.0742 33.9629 80.2988 34.1543 80.4551 34.3809C80.6152 34.6035 80.6953 34.8906 80.6953 35.2422Z" fill="#00A499"/>
</svg>
