<svg width="75" height="40" viewBox="0 0 75 40" fill="none" xmlns="http://www.w3.org/2000/svg">
<path d="M48 19C48 19.5304 47.7893 20.0391 47.4142 20.4142C47.0391 20.7893 46.5304 21 46 21H28C27.4696 21 26.9609 20.7893 26.5858 20.4142C26.2107 20.0391 26 19.5304 26 19V8C26 7.46957 26.2107 6.96086 26.5858 6.58579C26.9609 6.21071 27.4696 6 28 6H32L34 3H40L42 6H46C46.5304 6 47.0391 6.21071 47.4142 6.58579C47.7893 6.96086 48 7.46957 48 8V19Z" stroke="#00A499" stroke-width="2" stroke-linecap="round" stroke-linejoin="round"/>
<path d="M37 17C39.2091 17 41 15.2091 41 13C41 10.7909 39.2091 9 37 9C34.7909 9 33 10.7909 33 13C33 15.2091 34.7909 17 37 17Z" stroke="#00A499" stroke-width="2" stroke-linecap="round" stroke-linejoin="round"/>
<path d="M3.48633 28.4336C4.18945 28.4336 4.76953 28.5215 5.22656 28.6973C5.6875 28.8691 6.03125 29.1328 6.25781 29.4883C6.48438 29.8438 6.59766 30.2969 6.59766 30.8477C6.59766 31.3008 6.51562 31.6797 6.35156 31.9844C6.1875 32.2852 5.97266 32.5293 5.70703 32.7168C5.44141 32.9043 5.1582 33.0488 4.85742 33.1504L7.20703 37H6.04688L3.94922 33.4258H2.16797V37H1.17188V28.4336H3.48633ZM3.42773 29.2949H2.16797V32.582H3.52734C4.22656 32.582 4.74023 32.4395 5.06836 32.1543C5.40039 31.8691 5.56641 31.4492 5.56641 30.8945C5.56641 30.3125 5.39062 29.9004 5.03906 29.6582C4.69141 29.416 4.1543 29.2949 3.42773 29.2949ZM10.9043 30.4609C11.4512 30.4609 11.9199 30.582 12.3105 30.8242C12.7012 31.0664 13 31.4062 13.207 31.8438C13.4141 32.2773 13.5176 32.7852 13.5176 33.3672V33.9707H9.08203C9.09375 34.7246 9.28125 35.2988 9.64453 35.6934C10.0078 36.0879 10.5195 36.2852 11.1797 36.2852C11.5859 36.2852 11.9453 36.248 12.2578 36.1738C12.5703 36.0996 12.8945 35.9902 13.2305 35.8457V36.7012C12.9062 36.8457 12.584 36.9512 12.2637 37.0176C11.9473 37.084 11.5723 37.1172 11.1387 37.1172C10.5215 37.1172 9.98242 36.9922 9.52148 36.7422C9.06445 36.4883 8.70898 36.1172 8.45508 35.6289C8.20117 35.1406 8.07422 34.543 8.07422 33.8359C8.07422 33.1445 8.18945 32.5469 8.41992 32.043C8.6543 31.5352 8.98242 31.1445 9.4043 30.8711C9.83008 30.5977 10.3301 30.4609 10.9043 30.4609ZM10.8926 31.2578C10.373 31.2578 9.95898 31.4277 9.65039 31.7676C9.3418 32.1074 9.1582 32.582 9.09961 33.1914H12.498C12.4941 32.8086 12.4336 32.4727 12.3164 32.1836C12.2031 31.8906 12.0293 31.6641 11.7949 31.5039C11.5605 31.3398 11.2598 31.2578 10.8926 31.2578ZM17.2441 36.3203C17.4043 36.3203 17.5684 36.3066 17.7363 36.2793C17.9043 36.252 18.041 36.2188 18.1465 36.1797V36.9355C18.0332 36.9863 17.875 37.0293 17.6719 37.0645C17.4727 37.0996 17.2773 37.1172 17.0859 37.1172C16.7461 37.1172 16.4375 37.0586 16.1602 36.9414C15.8828 36.8203 15.6602 36.6172 15.4922 36.332C15.3281 36.0469 15.2461 35.6523 15.2461 35.1484V31.3398H14.332V30.8652L15.252 30.4844L15.6387 29.0898H16.2246V30.5781H18.1055V31.3398H16.2246V35.1191C16.2246 35.5215 16.3164 35.8223 16.5 36.0215C16.6875 36.2207 16.9355 36.3203 17.2441 36.3203ZM21.8496 30.4727C22.6152 30.4727 23.1836 30.6445 23.5547 30.9883C23.9258 31.332 24.1113 31.8809 24.1113 32.6348V37H23.4023L23.2148 36.0508H23.168C22.9883 36.2852 22.8008 36.4824 22.6055 36.6426C22.4102 36.7988 22.1836 36.918 21.9258 37C21.6719 37.0781 21.3594 37.1172 20.9883 37.1172C20.5977 37.1172 20.25 37.0488 19.9453 36.9121C19.6445 36.7754 19.4062 36.5684 19.2305 36.291C19.0586 36.0137 18.9727 35.6621 18.9727 35.2363C18.9727 34.5957 19.2266 34.1035 19.7344 33.7598C20.2422 33.416 21.0156 33.2285 22.0547 33.1973L23.1621 33.1504V32.7578C23.1621 32.2031 23.043 31.8145 22.8047 31.5918C22.5664 31.3691 22.2305 31.2578 21.7969 31.2578C21.4609 31.2578 21.1406 31.3066 20.8359 31.4043C20.5312 31.502 20.2422 31.6172 19.9688 31.75L19.6699 31.0117C19.959 30.8633 20.291 30.7363 20.666 30.6309C21.041 30.5254 21.4355 30.4727 21.8496 30.4727ZM23.1504 33.8359L22.1719 33.877C21.3711 33.9082 20.8066 34.0391 20.4785 34.2695C20.1504 34.5 19.9863 34.8262 19.9863 35.248C19.9863 35.6152 20.0977 35.8867 20.3203 36.0625C20.543 36.2383 20.8379 36.3262 21.2051 36.3262C21.7754 36.3262 22.2422 36.168 22.6055 35.8516C22.9688 35.5352 23.1504 35.0605 23.1504 34.4277V33.8359ZM27.082 27.8828V32.6172C27.082 32.7734 27.0762 32.9648 27.0645 33.1914C27.0527 33.4141 27.043 33.6113 27.0352 33.7832H27.0762C27.1582 33.6816 27.2773 33.5312 27.4336 33.332C27.5938 33.1328 27.7285 32.9727 27.8379 32.8516L29.9707 30.5781H31.1133L28.5293 33.3203L31.3008 37H30.1289L27.8613 33.959L27.082 34.6738V37H26.1152V27.8828H27.082ZM34.8926 30.4609C35.4395 30.4609 35.9082 30.582 36.2988 30.8242C36.6895 31.0664 36.9883 31.4062 37.1953 31.8438C37.4023 32.2773 37.5059 32.7852 37.5059 33.3672V33.9707H33.0703C33.082 34.7246 33.2695 35.2988 33.6328 35.6934C33.9961 36.0879 34.5078 36.2852 35.168 36.2852C35.5742 36.2852 35.9336 36.248 36.2461 36.1738C36.5586 36.0996 36.8828 35.9902 37.2188 35.8457V36.7012C36.8945 36.8457 36.5723 36.9512 36.252 37.0176C35.9355 37.084 35.5605 37.1172 35.127 37.1172C34.5098 37.1172 33.9707 36.9922 33.5098 36.7422C33.0527 36.4883 32.6973 36.1172 32.4434 35.6289C32.1895 35.1406 32.0625 34.543 32.0625 33.8359C32.0625 33.1445 32.1777 32.5469 32.4082 32.043C32.6426 31.5352 32.9707 31.1445 33.3926 30.8711C33.8184 30.5977 34.3184 30.4609 34.8926 30.4609ZM34.8809 31.2578C34.3613 31.2578 33.9473 31.4277 33.6387 31.7676C33.3301 32.1074 33.1465 32.582 33.0879 33.1914H36.4863C36.4824 32.8086 36.4219 32.4727 36.3047 32.1836C36.1914 31.8906 36.0176 31.6641 35.7832 31.5039C35.5488 31.3398 35.248 31.2578 34.8809 31.2578ZM45.293 30.4609C46.0938 30.4609 46.7324 30.7363 47.209 31.2871C47.6855 31.8379 47.9238 32.666 47.9238 33.7715C47.9238 34.502 47.8145 35.1152 47.5957 35.6113C47.377 36.1074 47.0684 36.4824 46.6699 36.7363C46.2754 36.9902 45.8086 37.1172 45.2695 37.1172C44.9297 37.1172 44.6309 37.0723 44.373 36.9824C44.1152 36.8926 43.8945 36.7715 43.7109 36.6191C43.5273 36.4668 43.375 36.3008 43.2539 36.1211H43.1836C43.1953 36.2734 43.209 36.457 43.2246 36.6719C43.2441 36.8867 43.2539 37.0742 43.2539 37.2344V39.8711H42.2754V30.5781H43.0781L43.207 31.5273H43.2539C43.3789 31.332 43.5312 31.1543 43.7109 30.9941C43.8906 30.8301 44.1094 30.7012 44.3672 30.6074C44.6289 30.5098 44.9375 30.4609 45.293 30.4609ZM45.123 31.2812C44.6777 31.2812 44.3184 31.3672 44.0449 31.5391C43.7754 31.7109 43.5781 31.9688 43.4531 32.3125C43.3281 32.6523 43.2617 33.0801 43.2539 33.5957V33.7832C43.2539 34.3262 43.3125 34.7852 43.4297 35.1602C43.5508 35.5352 43.748 35.8203 44.0215 36.0156C44.2988 36.2109 44.6699 36.3086 45.1348 36.3086C45.5332 36.3086 45.8652 36.2012 46.1309 35.9863C46.3965 35.7715 46.5938 35.4727 46.7227 35.0898C46.8555 34.7031 46.9219 34.2598 46.9219 33.7598C46.9219 33.002 46.7734 32.4004 46.4766 31.9551C46.1836 31.5059 45.7324 31.2812 45.123 31.2812ZM50.5957 27.8828V30.6074C50.5957 30.7637 50.5918 30.9219 50.584 31.082C50.5762 31.2383 50.5625 31.3828 50.543 31.5156H50.6074C50.7402 31.2891 50.9082 31.0996 51.1113 30.9473C51.3184 30.791 51.5527 30.6738 51.8145 30.5957C52.0762 30.5137 52.3535 30.4727 52.6465 30.4727C53.1621 30.4727 53.5918 30.5547 53.9355 30.7188C54.2832 30.8828 54.543 31.1367 54.7148 31.4805C54.8906 31.8242 54.9785 32.2695 54.9785 32.8164V37H54.0176V32.8809C54.0176 32.3457 53.8945 31.9453 53.6484 31.6797C53.4062 31.4141 53.0332 31.2812 52.5293 31.2812C52.0527 31.2812 51.6719 31.373 51.3867 31.5566C51.1055 31.7363 50.9023 32.002 50.7773 32.3535C50.6562 32.7051 50.5957 33.1348 50.5957 33.6426V37H49.623V27.8828H50.5957ZM62.5195 33.7773C62.5195 34.3047 62.4512 34.7754 62.3145 35.1895C62.1777 35.6035 61.9805 35.9531 61.7227 36.2383C61.4648 36.5234 61.1523 36.7422 60.7852 36.8945C60.4219 37.043 60.0098 37.1172 59.5488 37.1172C59.1191 37.1172 58.7246 37.043 58.3652 36.8945C58.0098 36.7422 57.7012 36.5234 57.4395 36.2383C57.1816 35.9531 56.9805 35.6035 56.8359 35.1895C56.6953 34.7754 56.625 34.3047 56.625 33.7773C56.625 33.0742 56.7441 32.4766 56.9824 31.9844C57.2207 31.4883 57.5605 31.1113 58.002 30.8535C58.4473 30.5918 58.9766 30.4609 59.5898 30.4609C60.1758 30.4609 60.6875 30.5918 61.125 30.8535C61.5664 31.1152 61.9082 31.4941 62.1504 31.9902C62.3965 32.4824 62.5195 33.0781 62.5195 33.7773ZM57.6328 33.7773C57.6328 34.293 57.7012 34.7402 57.8379 35.1191C57.9746 35.498 58.1855 35.791 58.4707 35.998C58.7559 36.2051 59.123 36.3086 59.5723 36.3086C60.0176 36.3086 60.3828 36.2051 60.668 35.998C60.957 35.791 61.1699 35.498 61.3066 35.1191C61.4434 34.7402 61.5117 34.293 61.5117 33.7773C61.5117 33.2656 61.4434 32.8242 61.3066 32.4531C61.1699 32.0781 60.959 31.7891 60.6738 31.5859C60.3887 31.3828 60.0195 31.2812 59.5664 31.2812C58.8984 31.2812 58.4082 31.502 58.0957 31.9434C57.7871 32.3848 57.6328 32.9961 57.6328 33.7773ZM66.2754 36.3203C66.4355 36.3203 66.5996 36.3066 66.7676 36.2793C66.9355 36.252 67.0723 36.2188 67.1777 36.1797V36.9355C67.0645 36.9863 66.9062 37.0293 66.7031 37.0645C66.5039 37.0996 66.3086 37.1172 66.1172 37.1172C65.7773 37.1172 65.4688 37.0586 65.1914 36.9414C64.9141 36.8203 64.6914 36.6172 64.5234 36.332C64.3594 36.0469 64.2773 35.6523 64.2773 35.1484V31.3398H63.3633V30.8652L64.2832 30.4844L64.6699 29.0898H65.2559V30.5781H67.1367V31.3398H65.2559V35.1191C65.2559 35.5215 65.3477 35.8223 65.5312 36.0215C65.7188 36.2207 65.9668 36.3203 66.2754 36.3203ZM74.0156 33.7773C74.0156 34.3047 73.9473 34.7754 73.8105 35.1895C73.6738 35.6035 73.4766 35.9531 73.2188 36.2383C72.9609 36.5234 72.6484 36.7422 72.2812 36.8945C71.918 37.043 71.5059 37.1172 71.0449 37.1172C70.6152 37.1172 70.2207 37.043 69.8613 36.8945C69.5059 36.7422 69.1973 36.5234 68.9355 36.2383C68.6777 35.9531 68.4766 35.6035 68.332 35.1895C68.1914 34.7754 68.1211 34.3047 68.1211 33.7773C68.1211 33.0742 68.2402 32.4766 68.4785 31.9844C68.7168 31.4883 69.0566 31.1113 69.498 30.8535C69.9434 30.5918 70.4727 30.4609 71.0859 30.4609C71.6719 30.4609 72.1836 30.5918 72.6211 30.8535C73.0625 31.1152 73.4043 31.4941 73.6465 31.9902C73.8926 32.4824 74.0156 33.0781 74.0156 33.7773ZM69.1289 33.7773C69.1289 34.293 69.1973 34.7402 69.334 35.1191C69.4707 35.498 69.6816 35.791 69.9668 35.998C70.252 36.2051 70.6191 36.3086 71.0684 36.3086C71.5137 36.3086 71.8789 36.2051 72.1641 35.998C72.4531 35.791 72.666 35.498 72.8027 35.1191C72.9395 34.7402 73.0078 34.293 73.0078 33.7773C73.0078 33.2656 72.9395 32.8242 72.8027 32.4531C72.666 32.0781 72.4551 31.7891 72.1699 31.5859C71.8848 31.3828 71.5156 31.2812 71.0625 31.2812C70.3945 31.2812 69.9043 31.502 69.5918 31.9434C69.2832 32.3848 69.1289 32.9961 69.1289 33.7773Z" fill="#00A499"/>
</svg>
