<svg width="24" height="24" viewBox="0 0 24 24" fill="none" xmlns="http://www.w3.org/2000/svg">
<path d="M12.0001 14.248C13.2427 14.248 14.2501 13.2407 14.2501 11.998C14.2501 10.7554 13.2427 9.74805 12.0001 9.74805C10.7574 9.74805 9.75006 10.7554 9.75006 11.998C9.75006 13.2407 10.7574 14.248 12.0001 14.248Z" fill="white"/>
<path d="M12.0001 21.748C13.2427 21.748 14.2501 20.7407 14.2501 19.498C14.2501 18.2554 13.2427 17.248 12.0001 17.248C10.7574 17.248 9.75006 18.2554 9.75006 19.498C9.75006 20.7407 10.7574 21.748 12.0001 21.748Z" fill="white"/>
<path d="M12.0001 6.74414C13.2427 6.74414 14.2501 5.73678 14.2501 4.49414C14.2501 3.2515 13.2427 2.24414 12.0001 2.24414C10.7574 2.24414 9.75006 3.2515 9.75006 4.49414C9.75006 5.73678 10.7574 6.74414 12.0001 6.74414Z" fill="white"/>
</svg>
