<svg width="24" height="24" viewBox="0 0 24 24" fill="none" xmlns="http://www.w3.org/2000/svg">
<path d="M20.25 20.9981C20.1515 20.9983 20.0539 20.979 19.9629 20.9412C19.8719 20.9035 19.7893 20.8481 19.7198 20.7783L3.2198 4.2783C3.08509 4.1365 3.01109 3.94769 3.0136 3.75212C3.0161 3.55655 3.0949 3.36969 3.23321 3.23139C3.37151 3.09309 3.55836 3.01428 3.75393 3.01178C3.94951 3.00928 4.13832 3.08327 4.28011 3.21798L20.7801 19.718C20.8849 19.8229 20.9563 19.9565 20.9852 20.1019C21.0141 20.2474 20.9993 20.3981 20.9425 20.5351C20.8858 20.6721 20.7897 20.7892 20.6665 20.8716C20.5432 20.9541 20.3982 20.9981 20.25 20.9981ZM11.984 17.9981C10.0392 17.9981 8.16371 17.4225 6.40965 16.2872C4.81262 15.256 3.37496 13.7789 2.25183 12.0216V12.0178C3.18652 10.6786 4.21027 9.54611 5.30996 8.63299C5.31991 8.62467 5.32802 8.61438 5.33379 8.60277C5.33956 8.59115 5.34285 8.57847 5.34347 8.56552C5.34409 8.55257 5.34201 8.53963 5.33737 8.52752C5.33273 8.51541 5.32563 8.5044 5.31652 8.49517L4.38277 7.56283C4.36618 7.5461 4.34389 7.53623 4.32036 7.53519C4.29682 7.53415 4.27375 7.54201 4.25574 7.5572C3.08762 8.54158 2.0034 9.74908 1.01761 11.1628C0.848014 11.4063 0.754608 11.6946 0.749266 11.9912C0.743924 12.2879 0.826888 12.5794 0.987615 12.8288C2.22558 14.7661 3.81886 16.3978 5.59449 17.5467C7.59371 18.8419 9.74527 19.4981 11.984 19.4981C13.1924 19.4944 14.3923 19.2953 15.5371 18.9085C15.5523 18.9033 15.5658 18.8944 15.5765 18.8826C15.5872 18.8708 15.5947 18.8565 15.5983 18.8409C15.602 18.8254 15.6016 18.8092 15.5972 18.7939C15.5928 18.7785 15.5845 18.7646 15.5732 18.7533L14.5617 17.7417C14.5384 17.719 14.5096 17.7028 14.4781 17.6945C14.4466 17.6863 14.4136 17.6864 14.3821 17.6949C13.5987 17.8966 12.793 17.9985 11.984 17.9981ZM23.0081 11.1825C21.7678 9.26439 20.1586 7.63502 18.3548 6.47017C16.3593 5.18017 14.1562 4.49814 11.984 4.49814C10.7884 4.50026 9.60169 4.70357 8.47355 5.09955C8.45852 5.10478 8.44507 5.11375 8.43446 5.12562C8.42386 5.13748 8.41645 5.15185 8.41293 5.16737C8.40942 5.18289 8.40991 5.19906 8.41436 5.21433C8.41882 5.22961 8.42709 5.24351 8.4384 5.2547L9.44855 6.26486C9.47207 6.28798 9.50127 6.30448 9.5332 6.31271C9.56513 6.32094 9.59867 6.32061 9.63043 6.31174C10.3978 6.10416 11.1891 5.99872 11.984 5.99814C13.8914 5.99814 15.7612 6.5808 17.5411 7.73252C19.1681 8.78252 20.6226 10.2581 21.7486 11.9981C21.7494 11.9992 21.7498 12.0005 21.7498 12.0019C21.7498 12.0033 21.7494 12.0046 21.7486 12.0056C20.9313 13.2923 19.917 14.4427 18.7429 15.4149C18.7329 15.4231 18.7247 15.4334 18.7188 15.4451C18.7129 15.4567 18.7096 15.4694 18.7089 15.4825C18.7083 15.4955 18.7103 15.5085 18.715 15.5206C18.7196 15.5328 18.7267 15.5439 18.7359 15.5531L19.6687 16.4855C19.6852 16.5022 19.7074 16.512 19.7308 16.5132C19.7542 16.5143 19.7772 16.5066 19.7953 16.4916C21.0487 15.4362 22.1337 14.1957 23.0128 12.8128C23.1682 12.5692 23.2503 12.286 23.2495 11.997C23.2486 11.708 23.1649 11.4253 23.0081 11.1825Z" fill="#D6DFFE"/>
<path d="M12.0002 7.49609C11.6631 7.49591 11.3271 7.53365 10.9985 7.60859C10.9819 7.61204 10.9665 7.61992 10.9541 7.6314C10.9416 7.64288 10.9325 7.65753 10.9277 7.67379C10.9229 7.69005 10.9225 7.7073 10.9268 7.72372C10.931 7.74014 10.9396 7.75511 10.9516 7.76703L16.2293 13.0433C16.2412 13.0553 16.2562 13.0639 16.2726 13.0681C16.289 13.0724 16.3063 13.0721 16.3225 13.0672C16.3388 13.0624 16.3534 13.0533 16.3649 13.0408C16.3764 13.0284 16.3843 13.013 16.3877 12.9964C16.538 12.3374 16.5378 11.6529 16.3873 10.994C16.2368 10.335 15.9397 9.71837 15.5182 9.18994C15.0967 8.66151 14.5615 8.23483 13.9525 7.94159C13.3434 7.64835 12.6762 7.49608 12.0002 7.49609ZM7.77115 10.9489C7.75923 10.9369 7.74426 10.9283 7.72784 10.924C7.71142 10.9198 7.69417 10.9201 7.67791 10.9249C7.66165 10.9298 7.64701 10.9389 7.63553 10.9514C7.62405 10.9638 7.61616 10.9792 7.61272 10.9958C7.44272 11.7384 7.46407 12.5121 7.67475 13.2443C7.88544 13.9764 8.27856 14.6431 8.81729 15.1818C9.35601 15.7206 10.0227 16.1137 10.7549 16.3244C11.487 16.5351 12.2607 16.5564 13.0033 16.3864C13.0199 16.383 13.0353 16.3751 13.0478 16.3636C13.0602 16.3521 13.0694 16.3375 13.0742 16.3212C13.079 16.305 13.0793 16.2877 13.0751 16.2713C13.0709 16.2549 13.0623 16.2399 13.0502 16.228L7.77115 10.9489Z" fill="#D6DFFE"/>
</svg>
