<svg width="199" height="50" viewBox="0 0 199 50" fill="none" xmlns="http://www.w3.org/2000/svg">
<path d="M0 10C0 4.47715 4.47715 0 10 0H189C194.523 0 199 4.47715 199 10V40C199 45.5228 194.523 50 189 50H10C4.47715 50 0 45.5228 0 40V10Z" fill="#EDEDED" fill-opacity="0.6"/>
<path d="M15.1875 24.5L13.2669 27.0608C12.7135 27.7987 12.7641 28.826 13.3874 29.506L17.0136 33.4619C17.3766 33.8578 17.8884 34.0833 18.4256 34.0833C19.4666 34.0833 21.1689 34.0833 22.8542 34.0833C25.1542 34.0833 26.6875 32.1667 26.6875 30.25C26.6875 30.25 26.6875 23.6786 26.6875 22.0357" stroke="#464646" stroke-width="1.5" stroke-linecap="round" stroke-linejoin="round"/>
<path d="M23.8125 22.5833C23.8125 22.5833 23.8125 22.4634 23.8125 22.0357C23.8125 19.8452 26.6875 19.8452 26.6875 22.0357" stroke="#464646" stroke-width="1.5" stroke-linecap="round" stroke-linejoin="round"/>
<path d="M20.9375 22.5833C20.9375 22.5833 20.9375 21.7959 20.9375 20.9405C20.9375 18.75 23.8125 18.75 23.8125 20.9405C23.8125 21.1543 23.8125 21.8218 23.8125 22.0357C23.8125 22.4634 23.8125 22.5833 23.8125 22.5833" stroke="#464646" stroke-width="1.5" stroke-linecap="round" stroke-linejoin="round"/>
<path d="M18.0625 22.5834C18.0625 22.5834 18.0625 21.2568 18.0625 20.1875C18.0625 17.9971 20.9375 17.9971 20.9375 20.1875C20.9375 20.1875 20.9375 20.7267 20.9375 20.9405C20.9375 21.796 20.9375 22.5834 20.9375 22.5834" stroke="#464646" stroke-width="1.5" stroke-linecap="round" stroke-linejoin="round"/>
<path d="M18.0625 22.5833C18.0625 22.5833 18.0625 21.2568 18.0625 20.1875C18.0625 19.0773 18.0625 17.4943 18.0625 16.3532C18.0625 15.5593 17.4189 14.9167 16.625 14.9167C15.8311 14.9167 15.1875 15.5603 15.1875 16.3542V24.5V27.375" stroke="#464646" stroke-width="1.5" stroke-linecap="round" stroke-linejoin="round"/>
<path d="M43.3049 30V21.2727H46.2537C46.9384 21.2727 47.498 21.3963 47.9327 21.6435C48.3702 21.8878 48.6941 22.2188 48.9043 22.6364C49.1145 23.054 49.2196 23.5199 49.2196 24.0341C49.2196 24.5483 49.1145 25.0156 48.9043 25.4361C48.6969 25.8565 48.3759 26.1918 47.9412 26.4418C47.5066 26.6889 46.9498 26.8125 46.2708 26.8125H44.1571V25.875H46.2367C46.7054 25.875 47.0819 25.794 47.3659 25.6321C47.65 25.4702 47.856 25.2514 47.9838 24.9759C48.1145 24.6974 48.1799 24.3835 48.1799 24.0341C48.1799 23.6847 48.1145 23.3722 47.9838 23.0966C47.856 22.821 47.6486 22.6051 47.3617 22.4489C47.0748 22.2898 46.6941 22.2102 46.2196 22.2102H44.3617V30H43.3049ZM51.7914 21.2727V30H50.7857V21.2727H51.7914ZM56.3777 30.1364C55.747 30.1364 55.2029 29.9972 54.7456 29.7188C54.291 29.4375 53.9402 29.0455 53.693 28.5426C53.4487 28.0369 53.3265 27.4489 53.3265 26.7784C53.3265 26.108 53.4487 25.517 53.693 25.0057C53.9402 24.4915 54.2839 24.0909 54.7243 23.804C55.1674 23.5142 55.6845 23.3693 56.2754 23.3693C56.6163 23.3693 56.9529 23.4261 57.2853 23.5398C57.6177 23.6534 57.9203 23.8381 58.193 24.0938C58.4657 24.3466 58.6831 24.6818 58.845 25.0994C59.0069 25.517 59.0879 26.0312 59.0879 26.642V27.0682H54.0424V26.1989H58.0652C58.0652 25.8295 57.9913 25.5 57.8436 25.2102C57.6987 24.9205 57.4913 24.6918 57.2214 24.5241C56.9544 24.3565 56.639 24.2727 56.2754 24.2727C55.8748 24.2727 55.5282 24.3722 55.2356 24.571C54.9458 24.767 54.7228 25.0227 54.5666 25.3381C54.4103 25.6534 54.3322 25.9915 54.3322 26.3523V26.9318C54.3322 27.4261 54.4174 27.8452 54.5879 28.1889C54.7612 28.5298 55.0012 28.7898 55.3081 28.9688C55.6149 29.1449 55.9714 29.233 56.3777 29.233C56.6419 29.233 56.8805 29.196 57.0936 29.1222C57.3095 29.0455 57.4956 28.9318 57.6518 28.7812C57.8081 28.6278 57.9288 28.4375 58.014 28.2102L58.9856 28.483C58.8833 28.8125 58.7115 29.1023 58.47 29.3523C58.2285 29.5994 57.9302 29.7926 57.5751 29.9318C57.22 30.0682 56.8208 30.1364 56.3777 30.1364ZM62.5439 30.1534C62.1291 30.1534 61.7527 30.0753 61.4146 29.919C61.0765 29.7599 60.8081 29.5312 60.6092 29.233C60.4103 28.9318 60.3109 28.5682 60.3109 28.142C60.3109 27.767 60.3848 27.4631 60.5325 27.2301C60.6802 26.9943 60.8777 26.8097 61.1248 26.6761C61.372 26.5426 61.6447 26.4432 61.943 26.3778C62.2441 26.3097 62.5467 26.2557 62.8507 26.2159C63.2484 26.1648 63.5708 26.1264 63.818 26.1009C64.068 26.0724 64.2498 26.0256 64.3635 25.9602C64.4799 25.8949 64.5382 25.7812 64.5382 25.6193V25.5852C64.5382 25.1648 64.4231 24.8381 64.193 24.6051C63.9657 24.3722 63.6206 24.2557 63.1575 24.2557C62.6774 24.2557 62.301 24.3608 62.0282 24.571C61.7555 24.7812 61.5637 25.0057 61.4529 25.2443L60.4984 24.9034C60.6689 24.5057 60.8961 24.196 61.1802 23.9744C61.4672 23.75 61.7797 23.5937 62.1177 23.5057C62.4586 23.4148 62.7939 23.3693 63.1234 23.3693C63.3336 23.3693 63.5751 23.3949 63.8478 23.446C64.1234 23.4943 64.389 23.5952 64.6447 23.7486C64.9032 23.902 65.1177 24.1335 65.2882 24.4432C65.4586 24.7528 65.5439 25.1676 65.5439 25.6875V30H64.5382V29.1136H64.487C64.4189 29.2557 64.3052 29.4077 64.1461 29.5696C63.987 29.7315 63.7754 29.8693 63.5112 29.983C63.247 30.0966 62.9245 30.1534 62.5439 30.1534ZM62.6973 29.25C63.095 29.25 63.4302 29.1719 63.7029 29.0156C63.9785 28.8594 64.1859 28.6577 64.3251 28.4105C64.4672 28.1634 64.5382 27.9034 64.5382 27.6307V26.7102C64.4956 26.7614 64.4018 26.8082 64.2569 26.8509C64.1149 26.8906 63.9501 26.9261 63.7626 26.9574C63.5779 26.9858 63.3975 27.0114 63.2214 27.0341C63.0481 27.054 62.9075 27.071 62.7995 27.0852C62.5382 27.1193 62.2939 27.1747 62.0666 27.2514C61.8422 27.3253 61.6603 27.4375 61.5211 27.5881C61.3848 27.7358 61.3166 27.9375 61.3166 28.1932C61.3166 28.5426 61.4458 28.8068 61.7044 28.9858C61.9657 29.1619 62.2967 29.25 62.6973 29.25ZM72.0158 24.9205L71.1124 25.1761C71.0556 25.0256 70.9718 24.8793 70.861 24.7372C70.753 24.5923 70.6053 24.473 70.4178 24.3793C70.2303 24.2855 69.9902 24.2386 69.6976 24.2386C69.2971 24.2386 68.9632 24.331 68.6962 24.5156C68.432 24.6974 68.2999 24.929 68.2999 25.2102C68.2999 25.4602 68.3908 25.6577 68.5726 25.8026C68.7544 25.9474 69.0385 26.0682 69.4249 26.1648L70.3965 26.4034C70.9817 26.5455 71.4178 26.7628 71.7047 27.0554C71.9917 27.3452 72.1351 27.7187 72.1351 28.1761C72.1351 28.5511 72.0272 28.8864 71.8113 29.1818C71.5982 29.4773 71.2999 29.7102 70.9164 29.8807C70.5328 30.0511 70.0868 30.1364 69.5783 30.1364C68.9107 30.1364 68.3581 29.9915 67.9206 29.7017C67.4831 29.4119 67.2061 28.9886 67.0897 28.4318L68.0442 28.1932C68.1351 28.5455 68.307 28.8097 68.5598 28.9858C68.8155 29.1619 69.1493 29.25 69.5613 29.25C70.03 29.25 70.4022 29.1506 70.6777 28.9517C70.9561 28.75 71.0953 28.5085 71.0953 28.2273C71.0953 28 71.0158 27.8097 70.8567 27.6562C70.6976 27.5 70.4533 27.3835 70.1238 27.3068L69.0328 27.0511C68.4334 26.9091 67.9931 26.6889 67.7118 26.3906C67.4334 26.0895 67.2942 25.7131 67.2942 25.2614C67.2942 24.892 67.3979 24.5653 67.6053 24.2812C67.8155 23.9972 68.101 23.7741 68.4618 23.6122C68.8255 23.4503 69.2374 23.3693 69.6976 23.3693C70.3453 23.3693 70.8539 23.5114 71.2232 23.7955C71.5953 24.0795 71.8596 24.4545 72.0158 24.9205ZM76.3933 30.1364C75.7626 30.1364 75.2186 29.9972 74.7612 29.7188C74.3066 29.4375 73.9558 29.0455 73.7086 28.5426C73.4643 28.0369 73.3422 27.4489 73.3422 26.7784C73.3422 26.108 73.4643 25.517 73.7086 25.0057C73.9558 24.4915 74.2995 24.0909 74.7399 23.804C75.1831 23.5142 75.7001 23.3693 76.291 23.3693C76.6319 23.3693 76.9686 23.4261 77.301 23.5398C77.6333 23.6534 77.9359 23.8381 78.2086 24.0938C78.4814 24.3466 78.6987 24.6818 78.8606 25.0994C79.0225 25.517 79.1035 26.0312 79.1035 26.642V27.0682H74.0581V26.1989H78.0808C78.0808 25.8295 78.0069 25.5 77.8592 25.2102C77.7143 24.9205 77.5069 24.6918 77.237 24.5241C76.97 24.3565 76.6547 24.2727 76.291 24.2727C75.8904 24.2727 75.5439 24.3722 75.2512 24.571C74.9615 24.767 74.7385 25.0227 74.5822 25.3381C74.426 25.6534 74.3478 25.9915 74.3478 26.3523V26.9318C74.3478 27.4261 74.4331 27.8452 74.6035 28.1889C74.7768 28.5298 75.0169 28.7898 75.3237 28.9688C75.6305 29.1449 75.987 29.233 76.3933 29.233C76.6575 29.233 76.8961 29.196 77.1092 29.1222C77.3251 29.0455 77.5112 28.9318 77.6674 28.7812C77.8237 28.6278 77.9444 28.4375 78.0297 28.2102L79.0012 28.483C78.899 28.8125 78.7271 29.1023 78.4856 29.3523C78.2441 29.5994 77.9458 29.7926 77.5907 29.9318C77.2356 30.0682 76.8365 30.1364 76.3933 30.1364ZM86.6674 30.1364C86.0538 30.1364 85.5254 29.9915 85.0822 29.7017C84.639 29.4119 84.2981 29.0128 84.0595 28.5043C83.8208 27.9957 83.7015 27.4148 83.7015 26.7614C83.7015 26.0966 83.8237 25.5099 84.068 25.0014C84.3152 24.4901 84.6589 24.0909 85.0993 23.804C85.5424 23.5142 86.0595 23.3693 86.6504 23.3693C87.1106 23.3693 87.5254 23.4545 87.8947 23.625C88.264 23.7955 88.5666 24.0341 88.8024 24.3409C89.0382 24.6477 89.1845 25.0057 89.2413 25.4148H88.2356C88.1589 25.1165 87.9885 24.8523 87.7243 24.6222C87.4629 24.3892 87.1106 24.2727 86.6674 24.2727C86.2754 24.2727 85.9316 24.375 85.6362 24.5795C85.3436 24.7812 85.1149 25.0668 84.9501 25.4361C84.7882 25.8026 84.7072 26.233 84.7072 26.7273C84.7072 27.233 84.7868 27.6733 84.9458 28.0483C85.1078 28.4233 85.335 28.7145 85.6277 28.9219C85.9231 29.1293 86.2697 29.233 86.6674 29.233C86.9288 29.233 87.166 29.1875 87.3791 29.0966C87.5922 29.0057 87.7725 28.875 87.9203 28.7045C88.068 28.5341 88.1731 28.3295 88.2356 28.0909H89.2413C89.1845 28.4773 89.0439 28.8253 88.8194 29.1349C88.5978 29.4418 88.3038 29.6861 87.9373 29.8679C87.5737 30.0469 87.1504 30.1364 86.6674 30.1364ZM93.3706 30.1364C92.7797 30.1364 92.2612 29.9957 91.8152 29.7145C91.372 29.4332 91.0254 29.0398 90.7754 28.5341C90.5282 28.0284 90.4047 27.4375 90.4047 26.7614C90.4047 26.0795 90.5282 25.4844 90.7754 24.9759C91.0254 24.4673 91.372 24.0724 91.8152 23.7912C92.2612 23.5099 92.7797 23.3693 93.3706 23.3693C93.9615 23.3693 94.4785 23.5099 94.9217 23.7912C95.3677 24.0724 95.7143 24.4673 95.9615 24.9759C96.2115 25.4844 96.3365 26.0795 96.3365 26.7614C96.3365 27.4375 96.2115 28.0284 95.9615 28.5341C95.7143 29.0398 95.3677 29.4332 94.9217 29.7145C94.4785 29.9957 93.9615 30.1364 93.3706 30.1364ZM93.3706 29.233C93.8194 29.233 94.1887 29.1179 94.4785 28.8878C94.7683 28.6577 94.9828 28.3551 95.122 27.9801C95.2612 27.6051 95.3308 27.1989 95.3308 26.7614C95.3308 26.3239 95.2612 25.9162 95.122 25.5384C94.9828 25.1605 94.7683 24.8551 94.4785 24.6222C94.1887 24.3892 93.8194 24.2727 93.3706 24.2727C92.9217 24.2727 92.5524 24.3892 92.2626 24.6222C91.9728 24.8551 91.7583 25.1605 91.6191 25.5384C91.4799 25.9162 91.4103 26.3239 91.4103 26.7614C91.4103 27.1989 91.4799 27.6051 91.6191 27.9801C91.7583 28.3551 91.9728 28.6577 92.2626 28.8878C92.5524 29.1179 92.9217 29.233 93.3706 29.233ZM97.8716 30V23.4545H98.8432V24.4432H98.9114C99.0307 24.1193 99.2466 23.8565 99.5591 23.6548C99.8716 23.4531 100.224 23.3523 100.616 23.3523C100.69 23.3523 100.782 23.3537 100.893 23.3565C101.004 23.3594 101.088 23.3636 101.144 23.3693V24.392C101.11 24.3835 101.032 24.3707 100.91 24.3537C100.791 24.3338 100.664 24.3239 100.531 24.3239C100.213 24.3239 99.9284 24.3906 99.6784 24.5241C99.4313 24.6548 99.2353 24.8366 99.0904 25.0696C98.9483 25.2997 98.8773 25.5625 98.8773 25.858V30H97.8716ZM102.336 30V23.4545H103.308V24.4432H103.376C103.496 24.1193 103.711 23.8565 104.024 23.6548C104.336 23.4531 104.689 23.3523 105.081 23.3523C105.155 23.3523 105.247 23.3537 105.358 23.3565C105.469 23.3594 105.552 23.3636 105.609 23.3693V24.392C105.575 24.3835 105.497 24.3707 105.375 24.3537C105.256 24.3338 105.129 24.3239 104.996 24.3239C104.677 24.3239 104.393 24.3906 104.143 24.5241C103.896 24.6548 103.7 24.8366 103.555 25.0696C103.413 25.2997 103.342 25.5625 103.342 25.858V30H102.336ZM109.346 30.1364C108.716 30.1364 108.172 29.9972 107.714 29.7188C107.26 29.4375 106.909 29.0455 106.662 28.5426C106.417 28.0369 106.295 27.4489 106.295 26.7784C106.295 26.108 106.417 25.517 106.662 25.0057C106.909 24.4915 107.253 24.0909 107.693 23.804C108.136 23.5142 108.653 23.3693 109.244 23.3693C109.585 23.3693 109.922 23.4261 110.254 23.5398C110.586 23.6534 110.889 23.8381 111.162 24.0938C111.434 24.3466 111.652 24.6818 111.814 25.0994C111.976 25.517 112.057 26.0312 112.057 26.642V27.0682H107.011V26.1989H111.034C111.034 25.8295 110.96 25.5 110.812 25.2102C110.667 24.9205 110.46 24.6918 110.19 24.5241C109.923 24.3565 109.608 24.2727 109.244 24.2727C108.844 24.2727 108.497 24.3722 108.204 24.571C107.915 24.767 107.692 25.0227 107.535 25.3381C107.379 25.6534 107.301 25.9915 107.301 26.3523V26.9318C107.301 27.4261 107.386 27.8452 107.557 28.1889C107.73 28.5298 107.97 28.7898 108.277 28.9688C108.584 29.1449 108.94 29.233 109.346 29.233C109.611 29.233 109.849 29.196 110.062 29.1222C110.278 29.0455 110.464 28.9318 110.621 28.7812C110.777 28.6278 110.898 28.4375 110.983 28.2102L111.954 28.483C111.852 28.8125 111.68 29.1023 111.439 29.3523C111.197 29.5994 110.899 29.7926 110.544 29.9318C110.189 30.0682 109.79 30.1364 109.346 30.1364ZM116.246 30.1364C115.632 30.1364 115.104 29.9915 114.66 29.7017C114.217 29.4119 113.876 29.0128 113.638 28.5043C113.399 27.9957 113.28 27.4148 113.28 26.7614C113.28 26.0966 113.402 25.5099 113.646 25.0014C113.893 24.4901 114.237 24.0909 114.677 23.804C115.121 23.5142 115.638 23.3693 116.229 23.3693C116.689 23.3693 117.104 23.4545 117.473 23.625C117.842 23.7955 118.145 24.0341 118.381 24.3409C118.616 24.6477 118.763 25.0057 118.819 25.4148H117.814C117.737 25.1165 117.567 24.8523 117.302 24.6222C117.041 24.3892 116.689 24.2727 116.246 24.2727C115.854 24.2727 115.51 24.375 115.214 24.5795C114.922 24.7812 114.693 25.0668 114.528 25.4361C114.366 25.8026 114.285 26.233 114.285 26.7273C114.285 27.233 114.365 27.6733 114.524 28.0483C114.686 28.4233 114.913 28.7145 115.206 28.9219C115.501 29.1293 115.848 29.233 116.246 29.233C116.507 29.233 116.744 29.1875 116.957 29.0966C117.17 29.0057 117.351 28.875 117.498 28.7045C117.646 28.5341 117.751 28.3295 117.814 28.0909H118.819C118.763 28.4773 118.622 28.8253 118.398 29.1349C118.176 29.4418 117.882 29.6861 117.515 29.8679C117.152 30.0469 116.729 30.1364 116.246 30.1364ZM123.136 23.4545V24.3068H119.744V23.4545H123.136ZM120.733 21.8864H121.738V28.125C121.738 28.4091 121.78 28.6222 121.862 28.7642C121.947 28.9034 122.055 28.9972 122.186 29.0455C122.319 29.0909 122.46 29.1136 122.608 29.1136C122.719 29.1136 122.809 29.108 122.881 29.0966C122.952 29.0824 123.008 29.071 123.051 29.0625L123.256 29.9659C123.187 29.9915 123.092 30.017 122.97 30.0426C122.848 30.071 122.693 30.0852 122.506 30.0852C122.221 30.0852 121.943 30.0241 121.67 29.902C121.4 29.7798 121.176 29.5938 120.997 29.3438C120.821 29.0938 120.733 28.7784 120.733 28.3977V21.8864ZM130.871 23.4545V24.3068H127.479V23.4545H130.871ZM128.467 21.8864H129.473V28.125C129.473 28.4091 129.514 28.6222 129.596 28.7642C129.682 28.9034 129.79 28.9972 129.92 29.0455C130.054 29.0909 130.194 29.1136 130.342 29.1136C130.453 29.1136 130.544 29.108 130.615 29.0966C130.686 29.0824 130.743 29.071 130.785 29.0625L130.99 29.9659C130.922 29.9915 130.827 30.017 130.704 30.0426C130.582 30.071 130.427 30.0852 130.24 30.0852C129.956 30.0852 129.677 30.0241 129.405 29.902C129.135 29.7798 128.91 29.5938 128.731 29.3438C128.555 29.0938 128.467 28.7784 128.467 28.3977V21.8864ZM133.53 26.0625V30H132.524V21.2727H133.53V24.4773H133.615C133.768 24.1392 133.998 23.8707 134.305 23.6719C134.615 23.4702 135.027 23.3693 135.541 23.3693C135.987 23.3693 136.378 23.4588 136.713 23.6378C137.048 23.8139 137.308 24.0852 137.493 24.4517C137.68 24.8153 137.774 25.2784 137.774 25.8409V30H136.768V25.9091C136.768 25.3892 136.633 24.9872 136.363 24.7031C136.096 24.4162 135.726 24.2727 135.251 24.2727C134.922 24.2727 134.626 24.3423 134.365 24.4815C134.106 24.6207 133.902 24.8239 133.751 25.0909C133.604 25.358 133.53 25.6818 133.53 26.0625ZM142.358 30.1364C141.727 30.1364 141.183 29.9972 140.726 29.7188C140.271 29.4375 139.921 29.0455 139.673 28.5426C139.429 28.0369 139.307 27.4489 139.307 26.7784C139.307 26.108 139.429 25.517 139.673 25.0057C139.921 24.4915 140.264 24.0909 140.705 23.804C141.148 23.5142 141.665 23.3693 142.256 23.3693C142.597 23.3693 142.933 23.4261 143.266 23.5398C143.598 23.6534 143.901 23.8381 144.173 24.0938C144.446 24.3466 144.664 24.6818 144.825 25.0994C144.987 25.517 145.068 26.0312 145.068 26.642V27.0682H140.023V26.1989H144.046C144.046 25.8295 143.972 25.5 143.824 25.2102C143.679 24.9205 143.472 24.6918 143.202 24.5241C142.935 24.3565 142.619 24.2727 142.256 24.2727C141.855 24.2727 141.509 24.3722 141.216 24.571C140.926 24.767 140.703 25.0227 140.547 25.3381C140.391 25.6534 140.313 25.9915 140.313 26.3523V26.9318C140.313 27.4261 140.398 27.8452 140.568 28.1889C140.742 28.5298 140.982 28.7898 141.289 28.9688C141.595 29.1449 141.952 29.233 142.358 29.233C142.622 29.233 142.861 29.196 143.074 29.1222C143.29 29.0455 143.476 28.9318 143.632 28.7812C143.789 28.6278 143.909 28.4375 143.994 28.2102L144.966 28.483C144.864 28.8125 144.692 29.1023 144.45 29.3523C144.209 29.5994 143.911 29.7926 143.556 29.9318C143.2 30.0682 142.801 30.1364 142.358 30.1364ZM149.973 32.4545V23.4545H150.945V24.4943H151.064C151.138 24.3807 151.24 24.2358 151.371 24.0597C151.504 23.8807 151.695 23.7216 151.942 23.5824C152.192 23.4403 152.53 23.3693 152.956 23.3693C153.507 23.3693 153.993 23.5071 154.414 23.7827C154.834 24.0582 155.162 24.4489 155.398 24.9545C155.634 25.4602 155.752 26.0568 155.752 26.7443C155.752 27.4375 155.634 28.0384 155.398 28.5469C155.162 29.0526 154.835 29.4446 154.418 29.723C154 29.9986 153.519 30.1364 152.973 30.1364C152.553 30.1364 152.216 30.0668 151.963 29.9276C151.71 29.7855 151.516 29.625 151.379 29.446C151.243 29.2642 151.138 29.1136 151.064 28.9943H150.979V32.4545H149.973ZM150.962 26.7273C150.962 27.2216 151.034 27.6577 151.179 28.0355C151.324 28.4105 151.536 28.7045 151.814 28.9176C152.093 29.1278 152.433 29.233 152.837 29.233C153.257 29.233 153.608 29.1222 153.889 28.9006C154.173 28.6761 154.387 28.375 154.529 27.9972C154.673 27.6165 154.746 27.1932 154.746 26.7273C154.746 26.267 154.675 25.8523 154.533 25.483C154.394 25.1108 154.182 24.8168 153.898 24.6009C153.617 24.3821 153.263 24.2727 152.837 24.2727C152.428 24.2727 152.084 24.3764 151.806 24.5838C151.527 24.7884 151.317 25.0753 151.175 25.4446C151.033 25.8111 150.962 26.2386 150.962 26.7273ZM159.945 30.1364C159.354 30.1364 158.835 29.9957 158.389 29.7145C157.946 29.4332 157.6 29.0398 157.35 28.5341C157.102 28.0284 156.979 27.4375 156.979 26.7614C156.979 26.0795 157.102 25.4844 157.35 24.9759C157.6 24.4673 157.946 24.0724 158.389 23.7912C158.835 23.5099 159.354 23.3693 159.945 23.3693C160.536 23.3693 161.053 23.5099 161.496 23.7912C161.942 24.0724 162.289 24.4673 162.536 24.9759C162.786 25.4844 162.911 26.0795 162.911 26.7614C162.911 27.4375 162.786 28.0284 162.536 28.5341C162.289 29.0398 161.942 29.4332 161.496 29.7145C161.053 29.9957 160.536 30.1364 159.945 30.1364ZM159.945 29.233C160.394 29.233 160.763 29.1179 161.053 28.8878C161.343 28.6577 161.557 28.3551 161.696 27.9801C161.835 27.6051 161.905 27.1989 161.905 26.7614C161.905 26.3239 161.835 25.9162 161.696 25.5384C161.557 25.1605 161.343 24.8551 161.053 24.6222C160.763 24.3892 160.394 24.2727 159.945 24.2727C159.496 24.2727 159.127 24.3892 158.837 24.6222C158.547 24.8551 158.333 25.1605 158.193 25.5384C158.054 25.9162 157.985 26.3239 157.985 26.7614C157.985 27.1989 158.054 27.6051 158.193 27.9801C158.333 28.3551 158.547 28.6577 158.837 28.8878C159.127 29.1179 159.496 29.233 159.945 29.233ZM164.446 30V23.4545H165.452V30H164.446ZM164.957 22.3636C164.761 22.3636 164.592 22.2969 164.45 22.1634C164.311 22.0298 164.241 21.8693 164.241 21.6818C164.241 21.4943 164.311 21.3338 164.45 21.2003C164.592 21.0668 164.761 21 164.957 21C165.153 21 165.321 21.0668 165.46 21.2003C165.602 21.3338 165.673 21.4943 165.673 21.6818C165.673 21.8693 165.602 22.0298 165.46 22.1634C165.321 22.2969 165.153 22.3636 164.957 22.3636ZM168.299 26.0625V30H167.294V23.4545H168.265V24.4773H168.35C168.504 24.1449 168.737 23.8778 169.049 23.6761C169.362 23.4716 169.765 23.3693 170.259 23.3693C170.703 23.3693 171.09 23.4602 171.423 23.642C171.755 23.821 172.014 24.0938 172.198 24.4602C172.383 24.8239 172.475 25.2841 172.475 25.8409V30H171.47V25.9091C171.47 25.3949 171.336 24.9943 171.069 24.7074C170.802 24.4176 170.436 24.2727 169.97 24.2727C169.649 24.2727 169.362 24.3423 169.109 24.4815C168.859 24.6207 168.661 24.8239 168.517 25.0909C168.372 25.358 168.299 25.6818 168.299 26.0625ZM177.16 23.4545V24.3068H173.768V23.4545H177.16ZM174.756 21.8864H175.762V28.125C175.762 28.4091 175.803 28.6222 175.885 28.7642C175.971 28.9034 176.079 28.9972 176.209 29.0455C176.343 29.0909 176.483 29.1136 176.631 29.1136C176.742 29.1136 176.833 29.108 176.904 29.0966C176.975 29.0824 177.032 29.071 177.074 29.0625L177.279 29.9659C177.211 29.9915 177.116 30.017 176.993 30.0426C176.871 30.071 176.716 30.0852 176.529 30.0852C176.245 30.0852 175.966 30.0241 175.694 29.902C175.424 29.7798 175.199 29.5938 175.02 29.3438C174.844 29.0938 174.756 28.7784 174.756 28.3977V21.8864Z" fill="#464646"/>
</svg>
