<svg width="160" height="180" viewBox="0 0 160 180" fill="none" xmlns="http://www.w3.org/2000/svg">
<path d="M77.1769 113C77.9864 112.735 80.0328 112.364 81.7424 113H85.4338C85.9195 112.546 86.5412 111.592 85.1423 111.411L85.1268 111.409C83.3777 111.182 80.6719 110.83 79.9939 106.53C79.4499 103.079 80.1558 98.5836 80.5768 96.7673V92.7943C81.0948 92.4537 81.9756 90.9553 81.3539 87.6861C83.6075 85.2342 83.7824 76.4481 83.5881 72.3615C84.009 70.0912 84.8315 65.4371 84.7538 64.983C85.0452 64.3019 84.4624 59.5343 85.4338 53.2909C85.8223 53.5634 85.8547 53.0261 85.8223 52.7234C85.4014 50.7936 83.7047 46.1849 80.2853 43.1881C80.5185 42.2799 80.7063 41.3718 80.771 41.0313C81.1272 41.4097 82.0921 42.0529 83.1024 41.5989C83.491 41.4172 83.2643 40.4637 83.1024 40.0096C83.3938 39.7448 83.8601 38.988 83.3938 38.0799C83.8601 38.0799 84.1709 37.8528 84.2681 37.7393L83.3938 36.1501C83.6205 35.0528 83.7435 32.5857 82.4224 31.496V30.4744C79.6054 29.5662 74.2238 29.3392 75.2341 35.6961C77.4878 39.1469 76.5617 42.1286 75.817 43.1881C74.5865 44.8908 72.7472 49.7039 75.2341 55.3342C76.7884 61.6911 76.7236 65.0965 76.497 66.0047C75.2342 67.8966 73.4662 72.6567 76.497 76.5616C75.2342 83.259 75.817 86.3239 76.497 87.3456C76.3027 88.8213 76.5941 88.3672 76.1084 89.6159C75.7199 90.6148 75.9465 91.924 76.1084 92.4537C75.4932 94.1186 74.6319 98.8787 76.1084 104.6C76.9632 107.506 76.7236 109.822 76.497 110.616C76.2379 111.222 76.0111 112.546 77.1769 113Z" fill="#B9BCC8"/>
<path d="M53.3011 131.636V144H51.8523L45.1151 134.293H44.9943V144H43.4972V131.636H44.946L51.7074 141.368H51.8281V131.636H53.3011ZM59.8708 144.193C59.0337 144.193 58.2992 143.994 57.6673 143.596C57.0395 143.197 56.5485 142.64 56.1943 141.923C55.8442 141.207 55.6691 140.37 55.6691 139.412C55.6691 138.446 55.8442 137.603 56.1943 136.882C56.5485 136.162 57.0395 135.603 57.6673 135.204C58.2992 134.806 59.0337 134.607 59.8708 134.607C60.7079 134.607 61.4404 134.806 62.0683 135.204C62.7001 135.603 63.1911 136.162 63.5413 136.882C63.8954 137.603 64.0725 138.446 64.0725 139.412C64.0725 140.37 63.8954 141.207 63.5413 141.923C63.1911 142.64 62.7001 143.197 62.0683 143.596C61.4404 143.994 60.7079 144.193 59.8708 144.193ZM59.8708 142.913C60.5067 142.913 61.0299 142.75 61.4404 142.424C61.8509 142.098 62.1548 141.67 62.352 141.138C62.5492 140.607 62.6478 140.032 62.6478 139.412C62.6478 138.792 62.5492 138.215 62.352 137.679C62.1548 137.144 61.8509 136.711 61.4404 136.381C61.0299 136.051 60.5067 135.886 59.8708 135.886C59.2349 135.886 58.7117 136.051 58.3012 136.381C57.8907 136.711 57.5869 137.144 57.3896 137.679C57.1924 138.215 57.0938 138.792 57.0938 139.412C57.0938 140.032 57.1924 140.607 57.3896 141.138C57.5869 141.67 57.8907 142.098 58.3012 142.424C58.7117 142.75 59.2349 142.913 59.8708 142.913ZM71.0286 147.477V134.727H72.405V136.2H72.574C72.6787 136.039 72.8236 135.834 73.0087 135.585C73.1979 135.331 73.4675 135.106 73.8176 134.908C74.1718 134.707 74.6507 134.607 75.2544 134.607C76.0352 134.607 76.7234 134.802 77.3191 135.192C77.9147 135.583 78.3796 136.136 78.7136 136.852C79.0476 137.569 79.2147 138.414 79.2147 139.388C79.2147 140.37 79.0476 141.221 78.7136 141.941C78.3796 142.658 77.9167 143.213 77.3251 143.608C76.7335 143.998 76.0513 144.193 75.2786 144.193C74.6829 144.193 74.206 144.095 73.8478 143.897C73.4896 143.696 73.214 143.469 73.0208 143.215C72.8276 142.958 72.6787 142.744 72.574 142.575H72.4533V147.477H71.0286ZM72.4292 139.364C72.4292 140.064 72.5318 140.682 72.737 141.217C72.9423 141.748 73.2421 142.165 73.6365 142.467C74.031 142.764 74.5139 142.913 75.0854 142.913C75.681 142.913 76.1781 142.756 76.5765 142.442C76.979 142.125 77.2808 141.698 77.4821 141.163C77.6873 140.623 77.79 140.024 77.79 139.364C77.79 138.712 77.6893 138.124 77.4881 137.601C77.2909 137.074 76.9911 136.657 76.5886 136.351C76.1902 136.041 75.6891 135.886 75.0854 135.886C74.5059 135.886 74.0189 136.033 73.6245 136.327C73.2301 136.617 72.9322 137.023 72.731 137.547C72.5298 138.066 72.4292 138.671 72.4292 139.364ZM82.8127 138.422V144H81.388V131.636H82.8127V136.176H82.9334C83.1507 135.697 83.4767 135.317 83.9114 135.035C84.3501 134.749 84.9337 134.607 85.6621 134.607C86.294 134.607 86.8474 134.733 87.3223 134.987C87.7972 135.236 88.1654 135.621 88.427 136.14C88.6926 136.655 88.8255 137.311 88.8255 138.108V144H87.4007V138.205C87.4007 137.468 87.2096 136.899 86.8272 136.496C86.4489 136.09 85.9237 135.886 85.2516 135.886C84.7847 135.886 84.3662 135.985 83.9959 136.182C83.6297 136.379 83.3399 136.667 83.1266 137.045C82.9173 137.424 82.8127 137.883 82.8127 138.422ZM95.199 144.193C94.3618 144.193 93.6273 143.994 92.9955 143.596C92.3676 143.197 91.8766 142.64 91.5225 141.923C91.1723 141.207 90.9972 140.37 90.9972 139.412C90.9972 138.446 91.1723 137.603 91.5225 136.882C91.8766 136.162 92.3676 135.603 92.9955 135.204C93.6273 134.806 94.3618 134.607 95.199 134.607C96.0361 134.607 96.7686 134.806 97.3964 135.204C98.0283 135.603 98.5193 136.162 98.8694 136.882C99.2236 137.603 99.4007 138.446 99.4007 139.412C99.4007 140.37 99.2236 141.207 98.8694 141.923C98.5193 142.64 98.0283 143.197 97.3964 143.596C96.7686 143.994 96.0361 144.193 95.199 144.193ZM95.199 142.913C95.8348 142.913 96.358 142.75 96.7686 142.424C97.1791 142.098 97.4829 141.67 97.6801 141.138C97.8773 140.607 97.9759 140.032 97.9759 139.412C97.9759 138.792 97.8773 138.215 97.6801 137.679C97.4829 137.144 97.1791 136.711 96.7686 136.381C96.358 136.051 95.8348 135.886 95.199 135.886C94.5631 135.886 94.0399 136.051 93.6294 136.381C93.2188 136.711 92.915 137.144 92.7178 137.679C92.5206 138.215 92.422 138.792 92.422 139.412C92.422 140.032 92.5206 140.607 92.7178 141.138C92.915 141.67 93.2188 142.098 93.6294 142.424C94.0399 142.75 94.5631 142.913 95.199 142.913ZM105.608 134.727V135.935H100.803V134.727H105.608ZM102.203 132.506H103.628V141.344C103.628 141.746 103.686 142.048 103.803 142.249C103.924 142.446 104.077 142.579 104.262 142.648C104.451 142.712 104.65 142.744 104.86 142.744C105.017 142.744 105.145 142.736 105.246 142.72C105.347 142.7 105.427 142.684 105.487 142.672L105.777 143.952C105.681 143.988 105.546 144.024 105.373 144.06C105.2 144.101 104.98 144.121 104.715 144.121C104.312 144.121 103.918 144.034 103.531 143.861C103.149 143.688 102.831 143.424 102.578 143.07C102.328 142.716 102.203 142.269 102.203 141.73V132.506ZM111.419 144.193C110.582 144.193 109.847 143.994 109.215 143.596C108.587 143.197 108.096 142.64 107.742 141.923C107.392 141.207 107.217 140.37 107.217 139.412C107.217 138.446 107.392 137.603 107.742 136.882C108.096 136.162 108.587 135.603 109.215 135.204C109.847 134.806 110.582 134.607 111.419 134.607C112.256 134.607 112.988 134.806 113.616 135.204C114.248 135.603 114.739 136.162 115.089 136.882C115.443 137.603 115.62 138.446 115.62 139.412C115.62 140.37 115.443 141.207 115.089 141.923C114.739 142.64 114.248 143.197 113.616 143.596C112.988 143.994 112.256 144.193 111.419 144.193ZM111.419 142.913C112.055 142.913 112.578 142.75 112.988 142.424C113.399 142.098 113.703 141.67 113.9 141.138C114.097 140.607 114.196 140.032 114.196 139.412C114.196 138.792 114.097 138.215 113.9 137.679C113.703 137.144 113.399 136.711 112.988 136.381C112.578 136.051 112.055 135.886 111.419 135.886C110.783 135.886 110.26 136.051 109.849 136.381C109.439 136.711 109.135 137.144 108.938 137.679C108.74 138.215 108.642 138.792 108.642 139.412C108.642 140.032 108.74 140.607 108.938 141.138C109.135 141.67 109.439 142.098 109.849 142.424C110.26 142.75 110.783 142.913 111.419 142.913Z" fill="#B9BCC8"/>
<rect x="0.5" y="0.5" width="159" height="179" rx="3.5" stroke="#B9BCC8" stroke-dasharray="20 20"/>
</svg>
