<svg width="160" height="180" viewBox="0 0 160 180" fill="none" xmlns="http://www.w3.org/2000/svg">
<path fill-rule="evenodd" clip-rule="evenodd" d="M79.5216 27.0125C78.7712 26.9501 77.6482 27.1091 76.7307 27.7799C75.8067 28.4556 75.1077 29.6383 75.1912 31.5935C75.1182 31.6082 75.0456 31.6408 74.9813 31.6958C74.8822 31.7803 74.8108 31.9106 74.7796 32.0909C74.7182 32.4454 74.807 33.0204 75.1946 33.9242C75.1644 34.5437 75.4322 36.0389 76.7257 37.3632C76.7391 37.5977 76.7174 37.9652 76.6095 38.3385C76.4961 38.7309 76.291 39.1175 75.9457 39.368C75.4944 39.6953 74.565 40.1438 73.5105 40.5374C72.4574 40.9305 71.2948 41.2631 70.3814 41.3651C69.4157 41.4728 68.6386 42.1983 68.1021 43.1594C67.5652 44.1211 67.2545 45.3428 67.2317 46.501C66.9215 47.5012 66.5051 49.1547 66.2578 50.8855C66.0125 52.6028 65.9315 54.4091 66.2951 55.7289C66.1025 56.021 65.8348 56.4871 65.6266 56.9838C65.4115 57.4972 65.2523 58.0606 65.322 58.5009C65.353 58.6968 65.3486 59.1267 65.3183 59.7064C65.2881 60.2821 65.233 60.9956 65.1657 61.752C65.0318 63.2582 64.8501 64.9315 64.7229 66.0179C64.3054 66.9712 63.9014 68.5857 64.0215 70.3779C64.1423 72.1794 64.7932 74.1659 66.4991 75.8384C66.5489 75.8872 66.621 75.9094 66.6899 75.8974C66.7618 75.885 66.8223 75.8361 66.8395 75.7632C66.9147 75.4453 66.8843 74.7894 66.4122 73.7833C66.4105 73.4504 66.3671 72.7103 66.1979 72.2454C66.2749 71.9213 66.4463 71.1596 66.6435 70.1802C66.7543 70.8923 67.0202 71.8323 67.5768 72.5656C67.6404 72.6493 67.708 72.7167 67.7826 72.748C67.823 72.7649 67.8694 72.773 67.9178 72.763C67.9655 72.7531 68.0026 72.7281 68.0301 72.6998C68.0816 72.6467 68.1131 72.5676 68.1347 72.484C68.1572 72.3968 68.1727 72.2899 68.1825 72.1686C68.2216 71.6847 68.1746 70.9255 68.0824 70.1386C67.9901 69.3503 67.8514 68.5268 67.7046 67.9121C67.6314 67.6055 67.5552 67.3468 67.4803 67.1695C67.4434 67.0822 67.4036 67.0069 67.3597 66.9554C67.35 66.9439 67.3388 66.9322 67.3261 66.9212C67.908 65.854 68.7495 64.2059 69.4489 62.6072C69.8091 61.7835 70.1323 60.9716 70.3629 60.2582C70.5925 59.5476 70.7335 58.9252 70.7222 58.4847C70.6937 57.3776 70.6482 56.8635 70.6082 56.6558C70.6082 56.6549 70.6082 56.6539 70.6083 56.6528C70.6085 56.6486 70.6089 56.6432 70.6093 56.6367C70.6106 56.6193 70.6126 56.5966 70.6149 56.5737C70.6172 56.5508 70.6197 56.5284 70.6219 56.5115C70.6226 56.5067 70.6232 56.5026 70.6237 56.4993C70.8793 56.0582 71.2973 54.915 71.5079 52.8817C71.645 53.1242 71.8006 53.4118 71.9344 53.6837C72.032 53.8821 72.117 54.0703 72.1748 54.2258C72.2037 54.3035 72.2251 54.3714 72.238 54.4272C72.2513 54.4851 72.2535 54.5218 72.2506 54.5411C72.2385 54.6215 72.2321 54.8894 72.2286 55.2587C72.2252 55.6326 72.2248 56.1204 72.2264 56.649C72.2296 57.6968 72.2403 58.9059 72.2494 59.7084C71.8937 60.4376 71.3388 62.594 71.8111 65.6733C71.3195 67.3287 70.7246 70.104 70.5285 73.0823C70.3322 76.0636 70.5345 79.2604 71.6503 81.7417C71.6865 82.5523 71.7296 83.8146 71.7422 84.9891C71.755 86.1767 71.7363 87.2616 71.6511 87.7061C71.4305 88.8565 70.7211 95.3902 73.3987 103.168C73.433 103.318 73.48 103.702 73.3976 104.054C73.3732 104.158 73.3445 104.205 73.3182 104.24C73.313 104.247 73.307 104.255 73.3006 104.263C73.2735 104.297 73.2377 104.343 73.2109 104.409C73.1778 104.492 73.1568 104.606 73.1498 104.791C73.1429 104.977 73.1498 105.241 73.1769 105.627C73.1394 106.197 72.7361 107.583 71.417 108.551L71.399 108.565L71.3885 108.583C71.3108 108.721 71.2249 108.944 71.2239 109.164C71.2229 109.389 71.3119 109.626 71.6025 109.752L71.6189 109.759L71.6369 109.761C71.7237 109.77 71.8564 109.776 71.9711 109.762C72.0274 109.755 72.0894 109.742 72.1404 109.716C72.1511 109.727 72.1635 109.738 72.1766 109.749C72.2451 109.805 72.3436 109.845 72.4748 109.832C72.5816 109.821 72.7026 109.776 72.842 109.687C72.9357 109.758 73.0658 109.829 73.2128 109.854C73.3095 109.871 73.415 109.867 73.5204 109.83C73.595 109.804 73.6659 109.761 73.7316 109.701C73.8306 109.776 73.9628 109.849 74.1072 109.876C74.2064 109.894 74.3146 109.891 74.4196 109.848C74.4899 109.819 74.5541 109.774 74.6111 109.712C74.8989 109.938 75.5863 110.212 76.3483 109.744C77.0899 109.289 77.2255 108.835 77.1594 108.612L77.051 105.321C77.1062 104.921 77.0692 103.938 76.4889 103.091C76.4291 103.004 76.3808 102.867 76.3472 102.681C76.3139 102.497 76.2963 102.274 76.2923 102.019C76.2842 101.511 76.3305 100.888 76.4078 100.23C76.5623 98.9142 76.8399 97.4685 77.0486 96.5391L77.049 96.5376L77.0493 96.536C77.1969 95.7483 77.3776 92.8973 76.9426 87.7307C77.0913 87.1577 77.399 85.4836 77.4865 83.1893C77.9372 82.1269 78.9134 78.7885 79.5 73.3946C80.0866 78.7885 81.0628 82.1269 81.5135 83.1893C81.601 85.4836 81.9087 87.1577 82.0574 87.7307C81.6224 92.8973 81.8031 95.7483 81.9507 96.536L81.951 96.5376L81.9514 96.5391C82.1601 97.4685 82.4377 98.9142 82.5922 100.23C82.6695 100.888 82.7158 101.511 82.7077 102.019C82.7037 102.274 82.6861 102.497 82.6528 102.681C82.6192 102.867 82.5709 103.004 82.5111 103.091C81.9308 103.938 81.8938 104.921 81.949 105.321L81.8406 108.612C81.7745 108.835 81.9101 109.289 82.6517 109.744C83.4137 110.212 84.1011 109.938 84.3889 109.712C84.4459 109.774 84.5101 109.819 84.5804 109.848C84.6854 109.891 84.7936 109.894 84.8928 109.876C85.0372 109.849 85.1694 109.776 85.2684 109.701C85.3341 109.761 85.405 109.804 85.4796 109.83C85.585 109.867 85.6905 109.871 85.7872 109.854C85.9342 109.829 86.0643 109.758 86.158 109.687C86.2974 109.776 86.4184 109.821 86.5252 109.832C86.6564 109.845 86.7549 109.805 86.8234 109.749C86.8365 109.738 86.8484 109.727 86.8592 109.716C86.9101 109.742 86.9726 109.755 87.0289 109.762C87.1436 109.776 87.2763 109.77 87.3631 109.761L87.3811 109.759L87.3975 109.752C87.6881 109.626 87.7771 109.389 87.7761 109.164C87.7751 108.944 87.6892 108.721 87.6115 108.583L87.601 108.565L87.583 108.551C86.2639 107.583 85.8606 106.197 85.8231 105.627C85.8502 105.241 85.8571 104.977 85.8502 104.791C85.8432 104.606 85.8222 104.492 85.7891 104.409C85.7623 104.343 85.7265 104.297 85.6994 104.263C85.6968 104.26 85.6942 104.256 85.6917 104.253C85.6882 104.249 85.6848 104.244 85.6818 104.24C85.6555 104.205 85.6268 104.158 85.6024 104.054C85.52 103.702 85.567 103.318 85.6013 103.168C88.2789 95.3902 87.5695 88.8565 87.3489 87.7061C87.2637 87.2616 87.245 86.1767 87.2578 84.9891C87.2704 83.8146 87.3135 82.5523 87.3497 81.7417C88.4655 79.2604 88.6678 76.0636 88.4715 73.0823C88.2754 70.104 87.6805 67.3288 87.1889 65.6733C87.6612 62.594 87.1063 60.4376 86.7506 59.7084C86.7597 58.906 86.7704 57.6968 86.7736 56.649C86.7752 56.1204 86.7748 55.6326 86.7714 55.2587C86.7679 54.8894 86.7615 54.6215 86.7494 54.5411C86.7465 54.5218 86.7487 54.4851 86.762 54.4272C86.7749 54.3714 86.7963 54.3036 86.8252 54.2258C86.883 54.0703 86.968 53.8821 87.0656 53.6837C87.1994 53.4118 87.355 53.1242 87.4921 52.8817C87.7027 54.915 88.1207 56.0582 88.3763 56.4993C88.3768 56.5026 88.3774 56.5067 88.3781 56.5115C88.3803 56.5284 88.3828 56.5508 88.3851 56.5737C88.3866 56.5884 88.3879 56.6029 88.389 56.616C88.3897 56.6234 88.3902 56.6304 88.3907 56.6367C88.3913 56.6448 88.3916 56.6513 88.3919 56.6559C88.3518 56.8635 88.3063 57.3776 88.2778 58.4847C88.2665 58.9252 88.4075 59.5476 88.6371 60.2582C88.8677 60.9716 89.1909 61.7836 89.5511 62.6072C90.2505 64.2059 91.092 65.8541 91.6739 66.9212C91.6612 66.9322 91.65 66.9439 91.6403 66.9554C91.5964 67.0069 91.5566 67.0822 91.5197 67.1695C91.4448 67.3468 91.3686 67.6055 91.2954 67.9121C91.1486 68.5268 91.0099 69.3503 90.9176 70.1386C90.8254 70.9255 90.7784 71.6847 90.8175 72.1686C90.8273 72.2899 90.8428 72.3968 90.8653 72.484C90.8869 72.5676 90.9184 72.6467 90.9699 72.6998C90.9974 72.7282 91.0345 72.7531 91.0822 72.763C91.1306 72.773 91.177 72.7649 91.2174 72.748C91.292 72.7167 91.3596 72.6493 91.4232 72.5656C91.9798 71.8323 92.2457 70.8923 92.3565 70.1802C92.5537 71.1596 92.7251 71.9214 92.8021 72.2454C92.6329 72.7103 92.5895 73.4504 92.5878 73.7833C92.1157 74.7894 92.0853 75.4453 92.1605 75.7632C92.1777 75.8361 92.2382 75.885 92.3101 75.8974C92.379 75.9094 92.4511 75.8872 92.5009 75.8384C94.2068 74.1659 94.8577 72.1794 94.9785 70.3779C95.0986 68.5857 94.6946 66.9712 94.2771 66.0179C94.1499 64.9315 93.9682 63.2582 93.8343 61.752C93.767 60.9957 93.7119 60.2821 93.6817 59.7064C93.6514 59.1267 93.647 58.6968 93.678 58.5009C93.7475 58.0615 93.5891 57.4994 93.3747 56.987C93.1663 56.489 92.8979 56.0216 92.7049 55.7289C93.0687 54.4085 92.9875 52.601 92.7418 50.8829C92.4945 49.1531 92.0783 47.5007 91.7683 46.501C91.7455 45.3428 91.4348 44.1211 90.8979 43.1594C90.3614 42.1983 89.5843 41.4728 88.6186 41.3651C87.7052 41.2631 86.5426 40.9305 85.4895 40.5374C84.435 40.1438 83.5056 39.6953 83.0543 39.368C82.709 39.1175 82.5039 38.7309 82.3905 38.3385C82.2826 37.9652 82.2609 37.5977 82.2743 37.3632C83.5678 36.0389 83.8356 34.5437 83.8054 33.9242C84.1929 33.0204 84.2818 32.4454 84.2204 32.0909C84.1892 31.9106 84.1178 31.7803 84.0187 31.6958C83.9544 31.6408 83.8818 31.6082 83.8088 31.5935C83.8927 29.6388 83.2046 28.4562 82.2914 27.7803C81.3844 27.1091 80.2716 26.9501 79.5216 27.0125ZM79.5054 27.2091C78.8 27.1496 77.7345 27.2997 76.8682 27.9332C75.9942 28.5723 75.3062 29.716 75.4139 31.6783L75.42 31.788L75.2985 31.7816C75.2448 31.7787 75.1848 31.7934 75.1313 31.839C75.0769 31.8855 75.0215 31.9709 74.9954 32.1214C74.9427 32.4257 75.0158 32.9662 75.4066 33.8724L75.4152 33.8923L75.4139 33.9136C75.379 34.477 75.6259 35.9546 76.9139 37.2577L76.9389 37.2829L76.9414 37.3166C76.9603 37.5676 76.9405 37.9742 76.8208 38.3883C76.7015 38.8013 76.4791 39.234 76.0825 39.5217C75.6063 39.8671 74.6535 40.3241 73.594 40.7196C72.533 41.1157 71.3496 41.4557 70.4082 41.5607C69.5512 41.6564 68.8218 42.3083 68.2971 43.2481C67.7748 44.1838 67.4701 45.3812 67.4499 46.517C67.4492 46.5572 67.4488 46.5973 67.4488 46.6374H67.4165C67.1117 47.6367 66.7135 49.2377 66.4745 50.9107C66.2272 52.6411 66.1524 54.4352 66.5179 55.72L66.5293 55.7601L66.5055 55.7956C66.3175 56.0758 66.0424 56.549 65.8309 57.0536C65.6178 57.5622 65.4769 58.0854 65.5382 58.473C65.5727 58.6911 65.5666 59.1409 65.5365 59.7157C65.5061 60.2946 65.4508 61.0105 65.3835 61.7677C65.2488 63.2823 65.0659 64.9649 64.9386 66.0521L64.937 66.0656L64.9314 66.0782C64.523 67.0046 64.1209 68.5967 64.2395 70.366C64.3574 72.125 64.9894 74.0538 66.6346 75.68C66.6859 75.3949 66.6501 74.7904 66.2043 73.8459C66.1979 73.8322 66.1938 73.8166 66.1938 73.7997C66.1934 73.4717 66.1493 72.7256 65.9834 72.2882C65.9761 72.2689 65.974 72.2473 65.9793 72.2252C66.0708 71.8424 66.3168 70.747 66.5773 69.3884L66.7941 69.4052C66.7941 70 66.9893 71.4428 67.757 72.4541C67.8107 72.5248 67.8484 72.5555 67.8689 72.5664C67.8834 72.5492 67.9035 72.5105 67.922 72.4391C67.9409 72.3659 67.9552 72.2702 67.9646 72.1542C68.0022 71.6889 67.9571 70.9442 67.8652 70.1594C67.7734 69.376 67.6359 68.5598 67.4911 67.9536C67.4185 67.6497 67.3451 67.4028 67.2762 67.2398C67.2418 67.1585 67.2115 67.1055 67.1878 67.077L66.9397 67.1815L67.078 66.9294C67.659 65.8705 68.5278 64.1758 69.2457 62.5347C69.6046 61.7142 69.9252 60.9084 70.1532 60.203C70.382 59.4949 70.5143 58.8974 70.5038 58.4893C70.4749 57.3643 70.4284 56.8667 70.3915 56.6824C70.3895 56.6725 70.3896 56.6632 70.3896 56.6614C70.3896 56.6576 70.3897 56.6534 70.3898 56.6498C70.3901 56.6424 70.3907 56.6334 70.3914 56.6238C70.3928 56.6044 70.3949 56.5801 70.3973 56.556C70.3997 56.532 70.4025 56.5075 70.4051 56.488C70.4064 56.4783 70.4077 56.4689 70.4092 56.4611C70.4098 56.4572 70.4108 56.4526 70.4119 56.448C70.4123 56.4463 70.4155 56.4328 70.4234 56.4194C70.6716 55.9992 71.1244 54.7828 71.3225 52.5285L71.3519 52.1935L71.5276 52.4898C71.6921 52.7672 71.9362 53.2015 72.134 53.6036C72.2328 53.8045 72.321 53.9992 72.3819 54.1631C72.4123 54.2449 72.4366 54.3208 72.4518 54.387C72.4666 54.4511 72.475 54.5144 72.467 54.5676C72.4573 54.6321 72.4505 54.8829 72.447 55.2604C72.4436 55.6332 72.4432 56.1201 72.4448 56.6485C72.448 57.705 72.4589 58.926 72.468 59.7278L72.4683 59.7496L72.4583 59.7695C72.1231 60.4387 71.5526 62.5752 72.0305 65.6659L72.0336 65.6858L72.0278 65.7051C71.5386 67.3464 70.9425 70.1185 70.7466 73.094C70.5505 76.0716 70.7561 79.2406 71.8598 81.6832L71.867 81.6992L71.8678 81.7165C71.9042 82.5279 71.9479 83.8019 71.9606 84.9872C71.9733 86.1679 71.9557 87.2735 71.8663 87.7397C71.6504 88.8658 70.9416 95.3695 73.6088 103.114L73.6103 103.118L73.6113 103.122C73.6497 103.286 73.7028 103.705 73.6113 104.095C73.5812 104.223 73.5418 104.293 73.4998 104.35C73.4893 104.364 73.4801 104.376 73.4718 104.386C73.4478 104.417 73.4321 104.437 73.4162 104.477C73.3947 104.53 73.3748 104.62 73.3681 104.798C73.3615 104.975 73.3681 105.234 73.3953 105.62L73.3957 105.626L73.3953 105.632C73.3578 106.236 72.941 107.676 71.5733 108.691C71.5086 108.812 71.4431 108.993 71.4423 109.165C71.4416 109.337 71.5035 109.484 71.6807 109.567C71.7565 109.574 71.8589 109.576 71.9418 109.566C71.9861 109.561 72.0156 109.553 72.0315 109.545L72.0317 109.541C72.0319 109.536 72.0323 109.531 72.033 109.527C72.0334 109.523 72.0357 109.506 72.0456 109.489C72.0509 109.48 72.0657 109.458 72.0973 109.444C72.1344 109.429 72.1699 109.435 72.1919 109.445C72.2105 109.453 72.222 109.464 72.2265 109.469C72.232 109.474 72.2358 109.479 72.238 109.482C72.2423 109.488 72.2456 109.494 72.2473 109.497C72.2498 109.501 72.253 109.507 72.2556 109.512L72.2579 109.517C72.2723 109.544 72.292 109.577 72.3228 109.602C72.3497 109.624 72.3876 109.642 72.4508 109.636C72.5196 109.629 72.6267 109.592 72.7822 109.482L72.8603 109.426L72.9289 109.491C73.001 109.56 73.1235 109.638 73.2533 109.66C73.3162 109.671 73.3792 109.668 73.4405 109.647C73.5018 109.625 73.5687 109.581 73.6349 109.501L73.7123 109.406L73.8018 109.491C73.8847 109.57 74.0187 109.658 74.1511 109.683C74.2147 109.694 74.2743 109.691 74.329 109.668C74.3838 109.646 74.4441 109.6 74.5008 109.51L74.6665 109.596L74.7262 109.54C74.937 109.725 75.5384 110.003 76.2255 109.581C76.9515 109.136 76.9793 108.751 76.9466 108.658L76.942 108.645L76.8321 105.311L76.8333 105.303C76.8856 104.939 76.8537 103.998 76.3031 103.195C76.221 103.075 76.1669 102.908 76.1316 102.713C76.0959 102.516 76.078 102.282 76.0739 102.022C76.0656 101.502 76.1128 100.87 76.1906 100.209C76.346 98.8862 76.6246 97.435 76.8342 96.5015C76.9773 95.7353 77.1596 92.8995 76.7236 87.7304L76.7223 87.715L76.7262 87.7001C76.8697 87.1558 77.1818 85.479 77.2689 83.166L77.2695 83.1493L77.2762 83.1338C77.742 82.0462 78.8217 78.3516 79.3904 72.3124C79.3887 72.2948 79.3871 72.2771 79.3854 72.2594L79.3954 72.2586C79.3959 72.2534 79.3964 72.2481 79.3969 72.2429L79.5 72.2507L79.6031 72.2429C79.6036 72.2481 79.6041 72.2534 79.6046 72.2586L79.6146 72.2594C79.6129 72.2771 79.6113 72.2948 79.6096 72.3124C80.1783 78.3516 81.258 82.0462 81.7238 83.1338L81.7305 83.1493L81.7311 83.166C81.8182 85.479 82.1303 87.1558 82.2738 87.7001L82.2777 87.715L82.2764 87.7304C81.8404 92.8995 82.0227 95.7353 82.1658 96.5015C82.3754 97.435 82.654 98.8862 82.8094 100.209C82.8872 100.87 82.9344 101.502 82.9261 102.022C82.922 102.282 82.9041 102.516 82.8684 102.713C82.8331 102.908 82.779 103.075 82.6969 103.195C82.1463 103.998 82.1144 104.939 82.1667 105.303L82.1679 105.311L82.058 108.645L82.0534 108.658C82.0207 108.751 82.0485 109.136 82.7745 109.581C83.4616 110.003 84.063 109.725 84.2738 109.54L84.3335 109.596L84.4992 109.51C84.5559 109.6 84.6162 109.646 84.671 109.668C84.7257 109.691 84.7853 109.694 84.8489 109.683C84.9813 109.658 85.1153 109.57 85.1982 109.491L85.2877 109.406L85.3651 109.501C85.4313 109.581 85.4982 109.625 85.5595 109.647C85.6208 109.668 85.6838 109.671 85.7467 109.66C85.8765 109.638 85.999 109.56 86.0711 109.491L86.1397 109.426L86.2178 109.482C86.3733 109.592 86.4804 109.629 86.5492 109.636C86.6124 109.642 86.6503 109.624 86.6772 109.602C86.708 109.577 86.7277 109.544 86.7421 109.517L86.7444 109.512C86.747 109.507 86.7502 109.501 86.7527 109.497L86.7546 109.493C86.7565 109.49 86.759 109.486 86.762 109.482C86.7642 109.479 86.768 109.474 86.7735 109.469C86.778 109.464 86.7895 109.453 86.8081 109.445C86.8301 109.435 86.8656 109.429 86.9027 109.444C86.9343 109.458 86.9491 109.48 86.9544 109.489C86.9643 109.506 86.9665 109.523 86.967 109.526C86.9678 109.532 86.9683 109.539 86.9685 109.545C86.9844 109.553 87.0139 109.561 87.0582 109.566C87.1411 109.576 87.2435 109.574 87.3193 109.567C87.4965 109.484 87.5584 109.337 87.5576 109.165C87.5569 108.993 87.4914 108.812 87.4267 108.691C86.059 107.676 85.6422 106.236 85.6047 105.632L85.6043 105.626L85.6047 105.62C85.6319 105.234 85.6385 104.975 85.6319 104.798C85.6252 104.62 85.6053 104.53 85.5838 104.477C85.5679 104.437 85.5522 104.417 85.5282 104.386C85.5234 104.38 85.5182 104.374 85.5127 104.366C85.5087 104.361 85.5045 104.356 85.5002 104.35C85.4582 104.293 85.4188 104.223 85.3887 104.095C85.2972 103.705 85.3503 103.286 85.3887 103.122L85.3897 103.118L85.3912 103.114C88.0584 95.3695 87.3496 88.8658 87.1337 87.7397C87.0443 87.2735 87.0267 86.1679 87.0394 84.9872C87.0521 83.8019 87.0958 82.5279 87.1322 81.7165L87.133 81.6992L87.1402 81.6832C88.2439 79.2406 88.4495 76.0716 88.2534 73.094C88.0575 70.1185 87.4614 67.3464 86.9722 65.7051L86.9664 65.6858L86.9695 65.6659C87.4474 62.5752 86.8769 60.4387 86.5417 59.7695L86.5317 59.7496L86.532 59.7279C86.5411 58.926 86.552 57.705 86.5552 56.6485C86.5568 56.1202 86.5564 55.6332 86.553 55.2604C86.5495 54.8829 86.5427 54.6321 86.533 54.5677C86.525 54.5144 86.5334 54.4511 86.5482 54.387C86.5634 54.3208 86.5877 54.2449 86.6181 54.1631C86.679 53.9992 86.7672 53.8046 86.866 53.6037C87.0638 53.2015 87.3079 52.7672 87.4724 52.4898L87.6481 52.1935L87.6775 52.5285C87.8756 54.7828 88.3284 55.9992 88.5766 56.4194C88.5846 56.4328 88.5877 56.4461 88.5881 56.4478C88.5892 56.4525 88.5902 56.4572 88.5908 56.4611C88.5923 56.4689 88.5936 56.4783 88.5949 56.488C88.5975 56.5075 88.6003 56.532 88.6027 56.556C88.6051 56.5801 88.6072 56.6044 88.6086 56.6238C88.6089 56.6273 88.6091 56.6307 88.6093 56.634C88.6097 56.6397 88.61 56.6451 88.6102 56.6498C88.6103 56.6534 88.6104 56.6574 88.6104 56.6611C88.6104 56.663 88.6104 56.6725 88.6085 56.6825C88.5716 56.8668 88.5251 57.3643 88.4962 58.4893C88.4857 58.8974 88.618 59.4949 88.8468 60.203C89.0748 60.9084 89.3954 61.7142 89.7543 62.5347C90.4722 64.1758 91.341 65.8705 91.922 66.9294L92.0603 67.1815L91.8122 67.077C91.7885 67.1055 91.7582 67.1585 91.7238 67.2398C91.6549 67.4028 91.5815 67.6498 91.5089 67.9536C91.3641 68.5598 91.2266 69.376 91.1348 70.1594C91.0429 70.9442 90.9978 71.6889 91.0354 72.1542C91.0448 72.2702 91.0591 72.3659 91.078 72.4391C91.0965 72.5105 91.1166 72.5492 91.1311 72.5664C91.1516 72.5555 91.1893 72.5248 91.243 72.4541C92.0107 71.4428 92.2059 70 92.2059 69.4052L92.4227 69.3884C92.6832 70.747 92.9292 71.8424 93.0207 72.2252C93.0261 72.2473 93.0239 72.2689 93.0166 72.2882C92.8507 72.7257 92.8066 73.4717 92.8062 73.7997C92.8062 73.8166 92.8021 73.8322 92.7957 73.8459C92.3499 74.7905 92.3141 75.3949 92.3654 75.68C94.0106 74.0538 94.6426 72.125 94.7605 70.366C94.8791 68.5967 94.477 67.0046 94.0686 66.0782L94.063 66.0656L94.0614 66.0521C93.9341 64.9649 93.7512 63.2823 93.6165 61.7677C93.5492 61.0105 93.4939 60.2946 93.4635 59.7157C93.4334 59.1409 93.4273 58.6911 93.4618 58.4731C93.523 58.0862 93.3828 57.5643 93.1703 57.0566C92.9596 56.553 92.6851 56.0802 92.4967 55.7989C92.4796 55.7734 92.4754 55.7435 92.4832 55.7161C92.8477 54.4309 92.7724 52.6375 92.5252 50.9081C92.2861 49.2361 91.8881 47.6362 91.5835 46.6374H91.5512C91.5512 46.5973 91.5508 46.5572 91.5501 46.517C91.5299 45.3812 91.2252 44.1838 90.7029 43.2481C90.1782 42.3083 89.4488 41.6564 88.5918 41.5607C87.6504 41.4557 86.467 41.1157 85.406 40.7196C84.3465 40.3241 83.3937 39.8671 82.9175 39.5217C82.5209 39.234 82.2985 38.8013 82.1792 38.3883C82.0595 37.9742 82.0397 37.5676 82.0586 37.3166L82.0611 37.2829L82.0861 37.2577C83.3741 35.9546 83.621 34.477 83.5861 33.9137L83.5848 33.8923L83.5934 33.8724C83.9842 32.9662 84.0573 32.4257 84.0046 32.1214C83.9785 31.9709 83.9231 31.8855 83.8687 31.839C83.8152 31.7934 83.7552 31.7787 83.7015 31.7816L83.58 31.788L83.5861 31.6783C83.6938 29.7154 83.0162 28.5717 82.1529 27.9328C81.2974 27.2997 80.2427 27.1496 79.5378 27.2091L79.5374 27.212C79.5322 27.2115 79.5269 27.211 79.5216 27.2105C79.5163 27.211 79.511 27.2115 79.5057 27.212L79.5054 27.2091Z" fill="#B9BCC8"/>
<path d="M76.8682 27.9332C77.7345 27.2997 78.8 27.1496 79.5054 27.2091L79.5057 27.212L79.5216 27.2105L79.5374 27.212L79.5378 27.2091C80.2427 27.1496 81.2974 27.2997 82.1529 27.9328C83.0162 28.5717 83.6938 29.7154 83.5861 31.6783L83.58 31.788L83.7015 31.7816C83.7552 31.7787 83.8152 31.7934 83.8687 31.839C83.9231 31.8855 83.9785 31.9709 84.0046 32.1214C84.0573 32.4257 83.9842 32.9662 83.5934 33.8724L83.5848 33.8923L83.5861 33.9137C83.621 34.477 83.3741 35.9546 82.0861 37.2577L82.0611 37.2829L82.0586 37.3166C82.0397 37.5676 82.0595 37.9742 82.1792 38.3883C82.2985 38.8013 82.5209 39.234 82.9175 39.5217C83.3937 39.8671 84.3465 40.3241 85.406 40.7196C86.467 41.1157 87.6504 41.4557 88.5918 41.5607C89.4488 41.6564 90.1782 42.3083 90.7029 43.2481C91.2252 44.1838 91.5299 45.3812 91.5501 46.517C91.5508 46.5572 91.5512 46.5973 91.5512 46.6374H91.5835C91.8881 47.6362 92.2861 49.2361 92.5252 50.9081C92.7724 52.6375 92.8477 54.4309 92.4832 55.7161C92.4754 55.7435 92.4796 55.7734 92.4967 55.7989C92.6851 56.0802 92.9596 56.553 93.1703 57.0566C93.3828 57.5643 93.523 58.0862 93.4618 58.4731C93.4273 58.6911 93.4334 59.1409 93.4635 59.7157C93.4939 60.2946 93.5492 61.0105 93.6165 61.7677C93.7512 63.2823 93.9341 64.9649 94.0614 66.0521L94.063 66.0656L94.0686 66.0782C94.477 67.0046 94.8791 68.5967 94.7605 70.366C94.6426 72.125 94.0106 74.0538 92.3654 75.68C92.3141 75.3949 92.3499 74.7905 92.7957 73.8459C92.8021 73.8322 92.8062 73.8166 92.8062 73.7997C92.8066 73.4717 92.8507 72.7257 93.0166 72.2882C93.0239 72.2689 93.0261 72.2473 93.0207 72.2252C92.9292 71.8424 92.6832 70.747 92.4227 69.3884L92.2059 69.4052C92.2059 70 92.0107 71.4428 91.243 72.4541C91.1893 72.5248 91.1516 72.5555 91.1311 72.5664C91.1166 72.5492 91.0965 72.5105 91.078 72.4391C91.0591 72.3659 91.0448 72.2702 91.0354 72.1542C90.9978 71.6889 91.0429 70.9442 91.1348 70.1594C91.2266 69.376 91.3641 68.5598 91.5089 67.9536C91.5815 67.6498 91.6549 67.4028 91.7238 67.2398C91.7582 67.1585 91.7885 67.1055 91.8122 67.077L92.0603 67.1815L91.922 66.9294C91.341 65.8705 90.4722 64.1758 89.7543 62.5347C89.3954 61.7142 89.0748 60.9084 88.8468 60.203C88.618 59.4949 88.4857 58.8974 88.4962 58.4893C88.5251 57.3643 88.5716 56.8668 88.6085 56.6825C88.6104 56.6725 88.6104 56.663 88.6104 56.6611C88.6104 56.6574 88.6103 56.6534 88.6102 56.6498L88.6093 56.634L88.6086 56.6238C88.6072 56.6044 88.6051 56.5801 88.6027 56.556C88.6003 56.532 88.5975 56.5075 88.5949 56.488C88.5936 56.4783 88.5923 56.4689 88.5908 56.4611C88.5902 56.4572 88.5892 56.4525 88.5881 56.4478C88.5877 56.4461 88.5846 56.4328 88.5766 56.4194C88.3284 55.9992 87.8756 54.7828 87.6775 52.5285L87.6481 52.1935L87.4724 52.4898C87.3079 52.7672 87.0638 53.2015 86.866 53.6037C86.7672 53.8046 86.679 53.9992 86.6181 54.1631C86.5877 54.2449 86.5634 54.3208 86.5482 54.387C86.5334 54.4511 86.525 54.5144 86.533 54.5677C86.5427 54.6321 86.5495 54.8829 86.553 55.2604C86.5564 55.6332 86.5568 56.1202 86.5552 56.6485C86.552 57.705 86.5411 58.926 86.532 59.7279L86.5317 59.7496L86.5417 59.7695C86.8769 60.4387 87.4474 62.5752 86.9695 65.6659L86.9664 65.6858L86.9722 65.7051C87.4614 67.3464 88.0575 70.1185 88.2534 73.094C88.4495 76.0716 88.2439 79.2406 87.1402 81.6832L87.133 81.6992L87.1322 81.7165C87.0958 82.5279 87.0521 83.8019 87.0394 84.9872C87.0267 86.1679 87.0443 87.2735 87.1337 87.7397C87.3496 88.8658 88.0584 95.3695 85.3912 103.114L85.3897 103.118L85.3887 103.122C85.3503 103.286 85.2972 103.705 85.3887 104.095C85.4188 104.223 85.4582 104.293 85.5002 104.35L85.5127 104.366L85.5282 104.386C85.5522 104.417 85.5679 104.437 85.5838 104.477C85.6053 104.53 85.6252 104.62 85.6319 104.798C85.6385 104.975 85.6319 105.234 85.6047 105.62L85.6043 105.626L85.6047 105.632C85.6422 106.236 86.059 107.676 87.4267 108.691C87.4914 108.812 87.5569 108.993 87.5576 109.165C87.5584 109.337 87.4965 109.484 87.3193 109.567C87.2435 109.574 87.1411 109.576 87.0582 109.566C87.0139 109.561 86.9844 109.553 86.9685 109.545C86.9683 109.539 86.9678 109.532 86.967 109.526C86.9665 109.523 86.9643 109.506 86.9544 109.489C86.9491 109.48 86.9343 109.458 86.9027 109.444C86.8656 109.429 86.8301 109.435 86.8081 109.445C86.7895 109.453 86.778 109.464 86.7735 109.469C86.768 109.474 86.7642 109.479 86.762 109.482C86.759 109.486 86.7565 109.49 86.7546 109.493L86.7527 109.497C86.7502 109.501 86.747 109.507 86.7444 109.512L86.7421 109.517C86.7277 109.544 86.708 109.577 86.6772 109.602C86.6503 109.624 86.6124 109.642 86.5492 109.636C86.4804 109.629 86.3733 109.592 86.2178 109.482L86.1397 109.426L86.0711 109.491C85.999 109.56 85.8765 109.638 85.7467 109.66C85.6838 109.671 85.6208 109.668 85.5595 109.647C85.4982 109.625 85.4313 109.581 85.3651 109.501L85.2877 109.406L85.1982 109.491C85.1153 109.57 84.9813 109.658 84.8489 109.683C84.7853 109.694 84.7257 109.691 84.671 109.668C84.6162 109.646 84.5559 109.6 84.4992 109.51L84.3335 109.596L84.2738 109.54C84.063 109.725 83.4616 110.003 82.7745 109.581C82.0485 109.136 82.0207 108.751 82.0534 108.658L82.058 108.645L82.1679 105.311L82.1667 105.303C82.1144 104.939 82.1463 103.998 82.6969 103.195C82.779 103.075 82.8331 102.908 82.8684 102.713C82.9041 102.516 82.922 102.282 82.9261 102.022C82.9344 101.502 82.8872 100.87 82.8094 100.209C82.654 98.8862 82.3754 97.435 82.1658 96.5015C82.0227 95.7353 81.8404 92.8995 82.2764 87.7304L82.2777 87.715L82.2738 87.7001C82.1303 87.1558 81.8182 85.479 81.7311 83.166L81.7305 83.1493L81.7238 83.1338C81.258 82.0462 80.1783 78.3516 79.6096 72.3124L79.6146 72.2594L79.6046 72.2586L79.6031 72.2429L79.5 72.2507L79.3969 72.2429L79.3954 72.2586L79.3854 72.2594L79.3904 72.3124C78.8217 78.3516 77.742 82.0462 77.2762 83.1338L77.2695 83.1493L77.2689 83.166C77.1818 85.479 76.8697 87.1558 76.7262 87.7001L76.7223 87.715L76.7236 87.7304C77.1596 92.8995 76.9773 95.7353 76.8342 96.5015C76.6246 97.435 76.346 98.8862 76.1906 100.209C76.1128 100.87 76.0656 101.502 76.0739 102.022C76.078 102.282 76.0959 102.516 76.1316 102.713C76.1669 102.908 76.221 103.075 76.3031 103.195C76.8537 103.998 76.8856 104.939 76.8333 105.303L76.8321 105.311L76.942 108.645L76.9466 108.658C76.9793 108.751 76.9515 109.136 76.2255 109.581C75.5384 110.003 74.937 109.725 74.7262 109.54L74.6665 109.596L74.5008 109.51C74.4441 109.6 74.3838 109.646 74.329 109.668C74.2743 109.691 74.2147 109.694 74.1511 109.683C74.0187 109.658 73.8847 109.57 73.8018 109.491L73.7123 109.406L73.6349 109.501C73.5687 109.581 73.5018 109.625 73.4405 109.647C73.3792 109.668 73.3162 109.671 73.2533 109.66C73.1235 109.638 73.001 109.56 72.9289 109.491L72.8603 109.426L72.7822 109.482C72.6267 109.592 72.5196 109.629 72.4508 109.636C72.3876 109.642 72.3497 109.624 72.3228 109.602C72.292 109.577 72.2723 109.544 72.2579 109.517L72.2556 109.512C72.253 109.507 72.2498 109.501 72.2473 109.497C72.2456 109.494 72.2423 109.488 72.238 109.482C72.2358 109.479 72.232 109.474 72.2265 109.469C72.222 109.464 72.2105 109.453 72.1919 109.445C72.1699 109.435 72.1344 109.429 72.0973 109.444C72.0657 109.458 72.0509 109.48 72.0456 109.489C72.0357 109.506 72.0334 109.523 72.033 109.527C72.0323 109.531 72.0319 109.536 72.0317 109.541L72.0315 109.545C72.0156 109.553 71.9861 109.561 71.9418 109.566C71.8589 109.576 71.7565 109.574 71.6807 109.567C71.5035 109.484 71.4416 109.337 71.4423 109.165C71.4431 108.993 71.5086 108.812 71.5733 108.691C72.941 107.676 73.3578 106.236 73.3953 105.632L73.3957 105.626L73.3953 105.62C73.3681 105.234 73.3615 104.975 73.3681 104.798C73.3748 104.62 73.3947 104.53 73.4162 104.477C73.4321 104.437 73.4478 104.417 73.4718 104.386C73.4801 104.376 73.4893 104.364 73.4998 104.35C73.5418 104.293 73.5812 104.223 73.6113 104.095C73.7028 103.705 73.6497 103.286 73.6113 103.122L73.6103 103.118L73.6088 103.114C70.9416 95.3695 71.6504 88.8658 71.8663 87.7397C71.9557 87.2735 71.9733 86.1679 71.9606 84.9872C71.9479 83.8019 71.9042 82.5279 71.8678 81.7165L71.867 81.6992L71.8598 81.6832C70.7561 79.2406 70.5505 76.0716 70.7466 73.094C70.9425 70.1185 71.5386 67.3464 72.0278 65.7051L72.0336 65.6858L72.0305 65.6659C71.5526 62.5752 72.1231 60.4387 72.4583 59.7695L72.4683 59.7496L72.468 59.7278C72.4589 58.926 72.448 57.705 72.4448 56.6485C72.4432 56.1201 72.4436 55.6332 72.447 55.2604C72.4505 54.8829 72.4573 54.6321 72.467 54.5676C72.475 54.5144 72.4666 54.4511 72.4518 54.387C72.4366 54.3208 72.4123 54.2449 72.3819 54.1631C72.321 53.9992 72.2328 53.8045 72.134 53.6036C71.9362 53.2015 71.6921 52.7672 71.5276 52.4898L71.3519 52.1935L71.3225 52.5285C71.1244 54.7828 70.6716 55.9992 70.4234 56.4194C70.4155 56.4328 70.4123 56.4463 70.4119 56.448C70.4108 56.4526 70.4098 56.4572 70.4092 56.4611C70.4077 56.4689 70.4064 56.4783 70.4051 56.488C70.4025 56.5075 70.3997 56.532 70.3973 56.556C70.3949 56.5801 70.3928 56.6044 70.3914 56.6238C70.3907 56.6334 70.3901 56.6424 70.3898 56.6498C70.3897 56.6534 70.3896 56.6576 70.3896 56.6614C70.3896 56.6632 70.3895 56.6725 70.3915 56.6824C70.4284 56.8667 70.4749 57.3643 70.5038 58.4893C70.5143 58.8974 70.382 59.4949 70.1532 60.203C69.9252 60.9084 69.6046 61.7142 69.2457 62.5347C68.5278 64.1758 67.659 65.8705 67.078 66.9294L66.9397 67.1815L67.1878 67.077C67.2115 67.1055 67.2418 67.1585 67.2762 67.2398C67.3451 67.4028 67.4185 67.6497 67.4911 67.9536C67.6359 68.5598 67.7734 69.376 67.8652 70.1594C67.9571 70.9442 68.0022 71.6889 67.9646 72.1542C67.9552 72.2702 67.9409 72.3659 67.922 72.4391C67.9035 72.5105 67.8834 72.5492 67.8689 72.5664C67.8484 72.5555 67.8107 72.5248 67.757 72.4541C66.9893 71.4428 66.7941 70 66.7941 69.4052L66.5773 69.3884C66.3168 70.747 66.0708 71.8424 65.9793 72.2252C65.974 72.2473 65.9761 72.2689 65.9834 72.2882C66.1493 72.7256 66.1934 73.4717 66.1938 73.7997C66.1938 73.8166 66.1979 73.8322 66.2043 73.8459C66.6501 74.7904 66.6859 75.3949 66.6346 75.68C64.9894 74.0538 64.3574 72.125 64.2395 70.366C64.1209 68.5967 64.523 67.0046 64.9314 66.0782L64.937 66.0656L64.9386 66.0521C65.0659 64.9649 65.2488 63.2823 65.3835 61.7677C65.4508 61.0105 65.5061 60.2946 65.5365 59.7157C65.5666 59.1409 65.5727 58.6911 65.5382 58.473C65.4769 58.0854 65.6178 57.5622 65.8309 57.0536C66.0424 56.549 66.3175 56.0758 66.5055 55.7956L66.5293 55.7601L66.5179 55.72C66.1524 54.4352 66.2272 52.6411 66.4745 50.9107C66.7135 49.2377 67.1117 47.6367 67.4165 46.6374H67.4488C67.4488 46.5973 67.4492 46.5572 67.4499 46.517C67.4701 45.3812 67.7748 44.1838 68.2971 43.2481C68.8218 42.3083 69.5512 41.6564 70.4082 41.5607C71.3496 41.4557 72.533 41.1157 73.594 40.7196C74.6535 40.3241 75.6063 39.8671 76.0825 39.5217C76.4791 39.234 76.7015 38.8013 76.8208 38.3883C76.9405 37.9742 76.9603 37.5676 76.9414 37.3166L76.9389 37.2829L76.9139 37.2577C75.6259 35.9546 75.379 34.477 75.4139 33.9136L75.4152 33.8923L75.4066 33.8724C75.0158 32.9662 74.9427 32.4257 74.9954 32.1214C75.0215 31.9709 75.0769 31.8855 75.1313 31.839C75.1848 31.7934 75.2448 31.7787 75.2985 31.7816L75.42 31.788L75.4139 31.6783C75.3062 29.716 75.9942 28.5723 76.8682 27.9332Z" fill="#B9BCC8"/>
<path d="M54.3011 131.636V144H52.8523L46.1151 134.293H45.9943V144H44.4972V131.636H45.946L52.7074 141.368H52.8281V131.636H54.3011ZM60.8708 144.193C60.0337 144.193 59.2992 143.994 58.6673 143.596C58.0395 143.197 57.5485 142.64 57.1943 141.923C56.8442 141.207 56.6691 140.37 56.6691 139.412C56.6691 138.446 56.8442 137.603 57.1943 136.882C57.5485 136.162 58.0395 135.603 58.6673 135.204C59.2992 134.806 60.0337 134.607 60.8708 134.607C61.7079 134.607 62.4404 134.806 63.0683 135.204C63.7001 135.603 64.1911 136.162 64.5413 136.882C64.8954 137.603 65.0725 138.446 65.0725 139.412C65.0725 140.37 64.8954 141.207 64.5413 141.923C64.1911 142.64 63.7001 143.197 63.0683 143.596C62.4404 143.994 61.7079 144.193 60.8708 144.193ZM60.8708 142.913C61.5067 142.913 62.0299 142.75 62.4404 142.424C62.8509 142.098 63.1548 141.67 63.352 141.138C63.5492 140.607 63.6478 140.032 63.6478 139.412C63.6478 138.792 63.5492 138.215 63.352 137.679C63.1548 137.144 62.8509 136.711 62.4404 136.381C62.0299 136.051 61.5067 135.886 60.8708 135.886C60.2349 135.886 59.7117 136.051 59.3012 136.381C58.8907 136.711 58.5869 137.144 58.3896 137.679C58.1924 138.215 58.0938 138.792 58.0938 139.412C58.0938 140.032 58.1924 140.607 58.3896 141.138C58.5869 141.67 58.8907 142.098 59.3012 142.424C59.7117 142.75 60.2349 142.913 60.8708 142.913ZM72.0286 147.477V134.727H73.405V136.2H73.574C73.6787 136.039 73.8236 135.834 74.0087 135.585C74.1979 135.331 74.4675 135.106 74.8176 134.908C75.1718 134.707 75.6507 134.607 76.2544 134.607C77.0352 134.607 77.7234 134.802 78.3191 135.192C78.9147 135.583 79.3796 136.136 79.7136 136.852C80.0476 137.569 80.2147 138.414 80.2147 139.388C80.2147 140.37 80.0476 141.221 79.7136 141.941C79.3796 142.658 78.9167 143.213 78.3251 143.608C77.7335 143.998 77.0513 144.193 76.2786 144.193C75.6829 144.193 75.206 144.095 74.8478 143.897C74.4896 143.696 74.214 143.469 74.0208 143.215C73.8276 142.958 73.6787 142.744 73.574 142.575H73.4533V147.477H72.0286ZM73.4292 139.364C73.4292 140.064 73.5318 140.682 73.737 141.217C73.9423 141.748 74.2421 142.165 74.6365 142.467C75.031 142.764 75.5139 142.913 76.0854 142.913C76.681 142.913 77.1781 142.756 77.5765 142.442C77.979 142.125 78.2808 141.698 78.4821 141.163C78.6873 140.623 78.79 140.024 78.79 139.364C78.79 138.712 78.6893 138.124 78.4881 137.601C78.2909 137.074 77.9911 136.657 77.5886 136.351C77.1902 136.041 76.6891 135.886 76.0854 135.886C75.5059 135.886 75.0189 136.033 74.6245 136.327C74.2301 136.617 73.9322 137.023 73.731 137.547C73.5298 138.066 73.4292 138.671 73.4292 139.364ZM83.8127 138.422V144H82.388V131.636H83.8127V136.176H83.9334C84.1507 135.697 84.4767 135.317 84.9114 135.035C85.3501 134.749 85.9337 134.607 86.6621 134.607C87.294 134.607 87.8474 134.733 88.3223 134.987C88.7972 135.236 89.1654 135.621 89.427 136.14C89.6926 136.655 89.8255 137.311 89.8255 138.108V144H88.4007V138.205C88.4007 137.468 88.2096 136.899 87.8272 136.496C87.4489 136.09 86.9237 135.886 86.2516 135.886C85.7847 135.886 85.3662 135.985 84.9959 136.182C84.6297 136.379 84.3399 136.667 84.1266 137.045C83.9173 137.424 83.8127 137.883 83.8127 138.422ZM96.199 144.193C95.3618 144.193 94.6273 143.994 93.9955 143.596C93.3676 143.197 92.8766 142.64 92.5225 141.923C92.1723 141.207 91.9972 140.37 91.9972 139.412C91.9972 138.446 92.1723 137.603 92.5225 136.882C92.8766 136.162 93.3676 135.603 93.9955 135.204C94.6273 134.806 95.3618 134.607 96.199 134.607C97.0361 134.607 97.7686 134.806 98.3964 135.204C99.0283 135.603 99.5193 136.162 99.8694 136.882C100.224 137.603 100.401 138.446 100.401 139.412C100.401 140.37 100.224 141.207 99.8694 141.923C99.5193 142.64 99.0283 143.197 98.3964 143.596C97.7686 143.994 97.0361 144.193 96.199 144.193ZM96.199 142.913C96.8348 142.913 97.358 142.75 97.7686 142.424C98.1791 142.098 98.4829 141.67 98.6801 141.138C98.8773 140.607 98.9759 140.032 98.9759 139.412C98.9759 138.792 98.8773 138.215 98.6801 137.679C98.4829 137.144 98.1791 136.711 97.7686 136.381C97.358 136.051 96.8348 135.886 96.199 135.886C95.5631 135.886 95.0399 136.051 94.6294 136.381C94.2188 136.711 93.915 137.144 93.7178 137.679C93.5206 138.215 93.422 138.792 93.422 139.412C93.422 140.032 93.5206 140.607 93.7178 141.138C93.915 141.67 94.2188 142.098 94.6294 142.424C95.0399 142.75 95.5631 142.913 96.199 142.913ZM106.608 134.727V135.935H101.803V134.727H106.608ZM103.203 132.506H104.628V141.344C104.628 141.746 104.686 142.048 104.803 142.249C104.924 142.446 105.077 142.579 105.262 142.648C105.451 142.712 105.65 142.744 105.86 142.744C106.017 142.744 106.145 142.736 106.246 142.72C106.347 142.7 106.427 142.684 106.487 142.672L106.777 143.952C106.681 143.988 106.546 144.024 106.373 144.06C106.2 144.101 105.98 144.121 105.715 144.121C105.312 144.121 104.918 144.034 104.531 143.861C104.149 143.688 103.831 143.424 103.578 143.07C103.328 142.716 103.203 142.269 103.203 141.73V132.506ZM112.419 144.193C111.582 144.193 110.847 143.994 110.215 143.596C109.587 143.197 109.096 142.64 108.742 141.923C108.392 141.207 108.217 140.37 108.217 139.412C108.217 138.446 108.392 137.603 108.742 136.882C109.096 136.162 109.587 135.603 110.215 135.204C110.847 134.806 111.582 134.607 112.419 134.607C113.256 134.607 113.988 134.806 114.616 135.204C115.248 135.603 115.739 136.162 116.089 136.882C116.443 137.603 116.62 138.446 116.62 139.412C116.62 140.37 116.443 141.207 116.089 141.923C115.739 142.64 115.248 143.197 114.616 143.596C113.988 143.994 113.256 144.193 112.419 144.193ZM112.419 142.913C113.055 142.913 113.578 142.75 113.988 142.424C114.399 142.098 114.703 141.67 114.9 141.138C115.097 140.607 115.196 140.032 115.196 139.412C115.196 138.792 115.097 138.215 114.9 137.679C114.703 137.144 114.399 136.711 113.988 136.381C113.578 136.051 113.055 135.886 112.419 135.886C111.783 135.886 111.26 136.051 110.849 136.381C110.439 136.711 110.135 137.144 109.938 137.679C109.74 138.215 109.642 138.792 109.642 139.412C109.642 140.032 109.74 140.607 109.938 141.138C110.135 141.67 110.439 142.098 110.849 142.424C111.26 142.75 111.783 142.913 112.419 142.913Z" fill="#B9BCC8"/>
<rect x="0.5" y="0.5" width="159" height="179" rx="3.5" stroke="#B9BCC8" stroke-dasharray="20 20"/>
</svg>
