<svg width="160" height="180" viewBox="0 0 160 180" fill="none" xmlns="http://www.w3.org/2000/svg">
<path fill-rule="evenodd" clip-rule="evenodd" d="M84.5842 30.0125C83.8308 29.9501 82.7032 30.1091 81.782 30.7799C80.8543 31.4556 80.1524 32.6383 80.2363 34.5935C80.1631 34.6082 80.0901 34.6408 80.0255 34.6958C79.9261 34.7803 79.8544 34.9106 79.8231 35.0909C79.7614 35.4454 79.8506 36.0204 80.2398 36.9242C80.2095 37.5437 80.4783 39.0389 81.777 40.3632C81.7904 40.5977 81.7686 40.9652 81.6603 41.3385C81.5465 41.7309 81.3406 42.1175 80.9939 42.368C80.5408 42.6953 79.6076 43.1438 78.5488 43.5374C77.4915 43.9305 76.3242 44.2631 75.4071 44.3651C74.4375 44.4728 73.6573 45.1983 73.1186 46.1594C72.5796 47.1211 72.2676 48.3428 72.2447 49.501C71.9333 50.5012 71.5152 52.1547 71.2669 53.8855C71.0206 55.6028 70.9393 57.4091 71.3044 58.7289C71.111 59.021 70.8422 59.4871 70.6332 59.9838C70.4172 60.4972 70.2574 61.0606 70.3273 61.5009C70.3584 61.6968 70.3541 62.1267 70.3236 62.7064C70.2933 63.2821 70.238 63.9956 70.1704 64.752C70.036 66.2582 69.8535 67.9315 69.7259 69.0179C69.3066 69.9712 68.901 71.5857 69.0216 73.3779C69.1428 75.1794 69.7964 77.1659 71.5092 78.8384C71.5592 78.8872 71.6316 78.9094 71.7007 78.8974C71.773 78.885 71.8337 78.8361 71.851 78.7632C71.9264 78.4453 71.8959 77.7894 71.4219 76.7833C71.4202 76.4504 71.3767 75.7103 71.2067 75.2454C71.2841 74.9213 71.4562 74.1596 71.6542 73.1802C71.7654 73.8923 72.0324 74.8323 72.5913 75.5656C72.6551 75.6493 72.7229 75.7167 72.7978 75.748C72.8384 75.7649 72.885 75.773 72.9336 75.763C72.9815 75.7531 73.0187 75.7281 73.0463 75.6998C73.0981 75.6467 73.1296 75.5676 73.1514 75.484C73.174 75.3968 73.1895 75.2899 73.1993 75.1686C73.2386 74.6847 73.1914 73.9255 73.0989 73.1386C73.0061 72.3503 72.867 71.5268 72.7196 70.9121C72.6461 70.6055 72.5696 70.3468 72.4943 70.1695C72.4573 70.0822 72.4173 70.0069 72.3733 69.9554C72.3635 69.9439 72.3523 69.9322 72.3395 69.9212C72.9238 68.854 73.7686 67.2059 74.4708 65.6072C74.8326 64.7835 75.1571 63.9716 75.3885 63.2582C75.6191 62.5476 75.7607 61.9252 75.7493 61.4847C75.7207 60.3776 75.675 59.8635 75.6348 59.6558C75.6348 59.6549 75.6349 59.6539 75.6349 59.6528C75.6352 59.6486 75.6355 59.6432 75.636 59.6367C75.6373 59.6193 75.6393 59.5966 75.6416 59.5737C75.6439 59.5508 75.6464 59.5284 75.6486 59.5115C75.6493 59.5067 75.6499 59.5026 75.6504 59.4993C75.907 59.0582 76.3267 57.915 76.5382 55.8817C76.6758 56.1242 76.8321 56.4118 76.9664 56.6837C77.0643 56.8821 77.1498 57.0703 77.2078 57.2258C77.2368 57.3035 77.2583 57.3714 77.2712 57.4272C77.2846 57.4851 77.2868 57.5218 77.2839 57.5411C77.2717 57.6215 77.2652 57.8894 77.2618 58.2587C77.2583 58.6326 77.258 59.1204 77.2596 59.649C77.2627 60.6968 77.2735 61.9059 77.2826 62.7084C76.9255 63.4376 76.3684 65.594 76.8426 68.6733C76.349 70.3287 75.7517 73.104 75.5548 76.0823C75.3577 79.0636 75.5608 82.2604 76.6812 84.7417C76.7175 85.5523 76.7608 86.8146 76.7734 87.9891C76.7863 89.1767 76.7675 90.2616 76.6819 90.7061C76.4605 91.8565 75.7482 98.3902 78.4366 106.168C78.471 106.318 78.5182 106.702 78.4355 107.054C78.411 107.158 78.3821 107.205 78.3558 107.24C78.3505 107.247 78.3446 107.255 78.3381 107.263C78.3109 107.297 78.2749 107.343 78.248 107.409C78.2148 107.492 78.1937 107.606 78.1867 107.791C78.1797 107.977 78.1867 108.241 78.2139 108.627C78.1762 109.197 77.7713 110.583 76.4469 111.551L76.4288 111.565L76.4183 111.583C76.3403 111.721 76.2541 111.944 76.2531 112.164C76.252 112.389 76.3413 112.626 76.6332 112.752L76.6496 112.759L76.6677 112.761C76.7548 112.77 76.8881 112.776 77.0032 112.762C77.0598 112.755 77.122 112.742 77.1732 112.716C77.184 112.727 77.1964 112.738 77.2096 112.749C77.2784 112.805 77.3772 112.845 77.509 112.832C77.6162 112.821 77.7377 112.776 77.8777 112.687C77.9717 112.758 78.1023 112.829 78.25 112.854C78.3471 112.871 78.453 112.867 78.5588 112.83C78.6337 112.804 78.7049 112.761 78.7709 112.701C78.8702 112.776 79.003 112.849 79.1479 112.876C79.2475 112.894 79.3561 112.891 79.4616 112.848C79.5322 112.819 79.5966 112.774 79.6539 112.712C79.9428 112.938 80.633 113.212 81.3981 112.744C82.1426 112.289 82.2788 111.835 82.2125 111.612L82.1036 108.321C82.159 107.921 82.1219 106.938 81.5392 106.091C81.4792 106.004 81.4307 105.867 81.397 105.681C81.3635 105.497 81.3459 105.274 81.3418 105.019C81.3338 104.511 81.3802 103.888 81.4578 103.23C81.613 101.914 81.8917 100.468 82.1012 99.5391L82.1016 99.5376L82.1019 99.536C82.2501 98.7483 82.4316 95.8973 81.9948 90.7307C82.1441 90.1577 82.453 88.4836 82.5409 86.1893C82.9933 85.1269 83.9735 81.7885 84.5625 76.3946C85.1515 81.7885 86.1316 85.1269 86.5841 86.1893C86.672 88.4836 86.9809 90.1577 87.1302 90.7307C86.6934 95.8973 86.8749 98.7483 87.0231 99.536L87.0234 99.5376L87.0238 99.5391C87.2333 100.468 87.512 101.914 87.6672 103.23C87.7448 103.888 87.7912 104.511 87.7832 105.019C87.7791 105.274 87.7615 105.497 87.728 105.681C87.6943 105.867 87.6458 106.004 87.5858 106.091C87.0031 106.938 86.966 107.921 87.0214 108.321L86.9125 111.612C86.8462 111.835 86.9824 112.289 87.7269 112.744C88.492 113.212 89.1822 112.938 89.4711 112.712C89.5284 112.774 89.5928 112.819 89.6633 112.848C89.7689 112.891 89.8775 112.894 89.9771 112.876C90.122 112.849 90.2548 112.776 90.3541 112.701C90.4201 112.761 90.4913 112.804 90.5662 112.83C90.672 112.867 90.7779 112.871 90.875 112.854C91.0227 112.829 91.1533 112.758 91.2473 112.687C91.3873 112.776 91.5088 112.821 91.616 112.832C91.7478 112.845 91.8466 112.805 91.9154 112.749C91.9286 112.738 91.9405 112.727 91.9513 112.716C92.0025 112.742 92.0652 112.755 92.1218 112.762C92.2369 112.776 92.3702 112.77 92.4573 112.761L92.4754 112.759L92.4918 112.752C92.7837 112.626 92.873 112.389 92.8719 112.164C92.8709 111.944 92.7847 111.721 92.7067 111.583L92.6962 111.565L92.6781 111.551C91.3537 110.583 90.9488 109.197 90.9111 108.627C90.9383 108.241 90.9453 107.977 90.9383 107.791C90.9313 107.606 90.9102 107.492 90.877 107.409C90.8501 107.343 90.8141 107.297 90.7869 107.263C90.7842 107.26 90.7816 107.256 90.7791 107.253C90.7756 107.249 90.7723 107.244 90.7692 107.24C90.7429 107.205 90.714 107.158 90.6895 107.054C90.6068 106.702 90.654 106.318 90.6884 106.168C93.3768 98.3902 92.6645 91.8565 92.4431 90.7061C92.3575 90.2616 92.3387 89.1767 92.3516 87.9891C92.3642 86.8146 92.4075 85.5523 92.4438 84.7417C93.5642 82.2604 93.7673 79.0636 93.5702 76.0823C93.3733 73.104 92.776 70.3288 92.2824 68.6733C92.7566 65.594 92.1995 63.4376 91.8424 62.7084C91.8515 61.906 91.8623 60.6968 91.8654 59.649C91.867 59.1204 91.8667 58.6326 91.8632 58.2587C91.8598 57.8894 91.8533 57.6215 91.8411 57.5411C91.8382 57.5218 91.8404 57.4851 91.8538 57.4272C91.8667 57.3714 91.8882 57.3036 91.9172 57.2258C91.9752 57.0703 92.0606 56.8821 92.1586 56.6837C92.2929 56.4118 92.4492 56.1242 92.5868 55.8817C92.7983 57.915 93.218 59.0582 93.4746 59.4993C93.4751 59.5026 93.4757 59.5067 93.4764 59.5115C93.4786 59.5284 93.4811 59.5508 93.4834 59.5737C93.4849 59.5884 93.4863 59.6029 93.4874 59.616C93.488 59.6234 93.4885 59.6304 93.489 59.6367C93.4896 59.6448 93.49 59.6513 93.4902 59.6559C93.45 59.8635 93.4043 60.3776 93.3757 61.4847C93.3643 61.9252 93.5059 62.5476 93.7365 63.2582C93.9679 63.9716 94.2924 64.7836 94.6542 65.6072C95.3563 67.2059 96.2012 68.8541 96.7855 69.9212C96.7727 69.9322 96.7615 69.9439 96.7517 69.9554C96.7077 70.0069 96.6677 70.0822 96.6307 70.1695C96.5554 70.3468 96.4789 70.6055 96.4054 70.9121C96.258 71.5268 96.1189 72.3503 96.0261 73.1386C95.9336 73.9255 95.8864 74.6847 95.9257 75.1686C95.9355 75.2899 95.951 75.3968 95.9736 75.484C95.9954 75.5676 96.0269 75.6467 96.0787 75.6998C96.1063 75.7282 96.1435 75.7531 96.1914 75.763C96.24 75.773 96.2866 75.7649 96.3272 75.748C96.4021 75.7167 96.4699 75.6493 96.5337 75.5656C97.0926 74.8323 97.3596 73.8923 97.4708 73.1802C97.6688 74.1596 97.8409 74.9214 97.9183 75.2454C97.7483 75.7103 97.7048 76.4504 97.7031 76.7833C97.2291 77.7894 97.1986 78.4453 97.274 78.7632C97.2913 78.8361 97.352 78.885 97.4243 78.8974C97.4934 78.9094 97.5658 78.8872 97.6158 78.8384C99.3286 77.1659 99.9822 75.1794 100.103 73.3779C100.224 71.5857 99.8184 69.9712 99.3991 69.0179C99.2715 67.9315 99.089 66.2582 98.9546 64.752C98.887 63.9957 98.8317 63.2821 98.8014 62.7064C98.7709 62.1267 98.7666 61.6968 98.7977 61.5009C98.8675 61.0615 98.7084 60.4994 98.4931 59.987C98.2839 59.489 98.0144 59.0216 97.8206 58.7289C98.1859 57.4085 98.1043 55.601 97.8577 53.8829C97.6093 52.1531 97.1915 50.5007 96.8803 49.501C96.8574 48.3428 96.5454 47.1211 96.0064 46.1594C95.4677 45.1983 94.6875 44.4728 93.7179 44.3651C92.8008 44.2631 91.6335 43.9305 90.5761 43.5374C89.5174 43.1438 88.5842 42.6953 88.1311 42.368C87.7844 42.1175 87.5785 41.7309 87.4647 41.3385C87.3564 40.9652 87.3346 40.5977 87.348 40.3632C88.6467 39.0389 88.9155 37.5437 88.8852 36.9242C89.2744 36.0204 89.3636 35.4454 89.3019 35.0909C89.2706 34.9106 89.1989 34.7803 89.0995 34.6958C89.0349 34.6408 88.9619 34.6082 88.8887 34.5935C88.9729 32.6388 88.2821 31.4562 87.3651 30.7803C86.4545 30.1091 85.3372 29.9501 84.5842 30.0125ZM84.5679 30.2091C83.8597 30.1496 82.7898 30.2997 81.9201 30.9332C81.0425 31.5723 80.3518 32.716 80.46 34.6783L80.466 34.788L80.3441 34.7816C80.2902 34.7787 80.2299 34.7934 80.1762 34.839C80.1216 34.8855 80.0659 34.9709 80.0397 35.1214C79.9868 35.4257 80.0602 35.9662 80.4526 36.8724L80.4613 36.8923L80.4599 36.9136C80.4249 37.477 80.6728 38.9546 81.966 40.2577L81.9911 40.2829L81.9936 40.3166C82.0126 40.5676 81.9927 40.9742 81.8725 41.3883C81.7527 41.8013 81.5295 42.234 81.1312 42.5217C80.6531 42.8671 79.6965 43.3241 78.6327 43.7196C77.5674 44.1157 76.3793 44.4557 75.434 44.5607C74.5736 44.6564 73.8412 45.3083 73.3145 46.2481C72.79 47.1838 72.4841 48.3812 72.4638 49.517C72.4631 49.5572 72.4627 49.5973 72.4627 49.6374H72.4302C72.1243 50.6367 71.7244 52.2377 71.4844 53.9107C71.2362 55.6411 71.161 57.4352 71.528 58.72L71.5395 58.7601L71.5156 58.7956C71.3269 59.0758 71.0506 59.549 70.8383 60.0536C70.6243 60.5622 70.4829 61.0854 70.5444 61.473C70.579 61.6911 70.5729 62.1409 70.5427 62.7157C70.5122 63.2946 70.4566 64.0105 70.3891 64.7677C70.2538 66.2823 70.0702 67.9649 69.9424 69.0521L69.9408 69.0656L69.9352 69.0782C69.5251 70.0046 69.1214 71.5967 69.2405 73.366C69.3589 75.125 69.9934 77.0538 71.6452 78.68C71.6967 78.3949 71.6608 77.7904 71.2132 76.8459C71.2067 76.8322 71.2027 76.8166 71.2026 76.7997C71.2023 76.4717 71.158 75.7256 70.9914 75.2882C70.9841 75.2689 70.9819 75.2473 70.9872 75.2252C71.0792 74.8424 71.3262 73.747 71.5877 72.3884L71.8054 72.4052C71.8054 73 72.0014 74.4428 72.7722 75.4541C72.826 75.5248 72.8639 75.5555 72.8845 75.5664C72.8991 75.5492 72.9193 75.5105 72.9378 75.4391C72.9568 75.3659 72.9712 75.2702 72.9806 75.1542C73.0184 74.6889 72.9731 73.9442 72.8808 73.1594C72.7886 72.376 72.6505 71.5598 72.5052 70.9536C72.4323 70.6497 72.3586 70.4028 72.2894 70.2398C72.2549 70.1585 72.2245 70.1055 72.2006 70.077L71.9516 70.1815L72.0905 69.9294C72.6737 68.8705 73.5461 67.1758 74.2668 65.5347C74.6272 64.7142 74.9491 63.9084 75.178 63.203C75.4078 62.4949 75.5406 61.8974 75.53 61.4893C75.501 60.3643 75.4543 59.8667 75.4173 59.6824C75.4153 59.6725 75.4153 59.6632 75.4153 59.6614C75.4153 59.6576 75.4154 59.6534 75.4156 59.6498C75.4159 59.6424 75.4164 59.6334 75.4171 59.6238C75.4186 59.6044 75.4207 59.5801 75.4231 59.556C75.4255 59.532 75.4283 59.5075 75.4309 59.488C75.4322 59.4783 75.4336 59.4689 75.435 59.4611C75.4357 59.4572 75.4366 59.4526 75.4378 59.448C75.4382 59.4463 75.4413 59.4328 75.4493 59.4194C75.6985 58.9992 76.1531 57.7828 76.352 55.5285L76.3815 55.1935L76.558 55.4898C76.7232 55.7672 76.9682 56.2015 77.1668 56.6036C77.266 56.8045 77.3545 56.9992 77.4157 57.1631C77.4462 57.2449 77.4706 57.3208 77.4859 57.387C77.5007 57.4511 77.5092 57.5144 77.5012 57.5676C77.4914 57.6321 77.4846 57.8829 77.4811 58.2604C77.4776 58.6332 77.4773 59.1201 77.4789 59.6485C77.4821 60.705 77.493 61.926 77.5022 62.7278L77.5024 62.7496L77.4924 62.7695C77.1559 63.4387 76.583 65.5752 77.0629 68.6659L77.066 68.6858L77.0602 68.7051C76.569 70.3464 75.9705 73.1185 75.7738 76.094C75.5769 79.0716 75.7833 82.2406 76.8915 84.6832L76.8988 84.6992L76.8995 84.7165C76.9361 85.5279 76.9799 86.8019 76.9927 87.9872C77.0055 89.1679 76.9877 90.2735 76.898 90.7397C76.6813 91.8658 75.9696 98.3695 78.6475 106.114L78.649 106.118L78.6501 106.122C78.6886 106.286 78.7419 106.705 78.6501 107.095C78.6199 107.223 78.5803 107.293 78.5381 107.35C78.5276 107.364 78.5183 107.376 78.51 107.386C78.4859 107.417 78.4701 107.437 78.4542 107.477C78.4326 107.53 78.4126 107.62 78.4059 107.798C78.3992 107.975 78.4058 108.234 78.4331 108.62L78.4336 108.626L78.4332 108.632C78.3956 109.236 77.9771 110.676 76.6038 111.691C76.5389 111.812 76.4731 111.993 76.4724 112.165C76.4716 112.337 76.5337 112.484 76.7117 112.567C76.7878 112.574 76.8906 112.576 76.9738 112.566C77.0183 112.561 77.0479 112.553 77.0639 112.545L77.0641 112.541C77.0643 112.536 77.0647 112.531 77.0653 112.527C77.0658 112.523 77.0681 112.506 77.078 112.489C77.0834 112.48 77.0982 112.458 77.1299 112.444C77.1672 112.429 77.2028 112.435 77.2249 112.445C77.2436 112.453 77.2552 112.464 77.2597 112.469C77.2652 112.474 77.269 112.479 77.2712 112.482C77.2755 112.488 77.2788 112.494 77.2805 112.497C77.2831 112.501 77.2863 112.507 77.2889 112.512L77.2912 112.517C77.3056 112.544 77.3254 112.577 77.3563 112.602C77.3834 112.624 77.4215 112.642 77.4849 112.636C77.5539 112.629 77.6615 112.592 77.8176 112.482L77.8961 112.426L77.9649 112.491C78.0372 112.56 78.1603 112.638 78.2906 112.66C78.3538 112.671 78.417 112.668 78.4786 112.647C78.5401 112.625 78.6073 112.581 78.6738 112.501L78.7514 112.406L78.8414 112.491C78.9246 112.57 79.0591 112.658 79.1921 112.683C79.2559 112.694 79.3157 112.691 79.3707 112.668C79.4257 112.646 79.4862 112.6 79.5431 112.51L79.7095 112.596L79.7695 112.54C79.9811 112.725 80.5849 113.003 81.2748 112.581C82.0037 112.136 82.0317 111.751 81.9988 111.658L81.9942 111.645L81.8839 108.311L81.885 108.303C81.9376 107.939 81.9055 106.998 81.3527 106.195C81.2703 106.075 81.216 105.908 81.1805 105.713C81.1447 105.516 81.1267 105.282 81.1225 105.022C81.1143 104.502 81.1617 103.87 81.2397 103.209C81.3958 101.886 81.6755 100.435 81.8859 99.5015C82.0296 98.7353 82.2126 95.8995 81.7749 90.7304L81.7736 90.715L81.7775 90.7001C81.9216 90.1558 82.2349 88.479 82.3224 86.166L82.323 86.1493L82.3297 86.1338C82.7974 85.0462 83.8814 81.3516 84.4524 75.3124C84.4508 75.2948 84.4491 75.2771 84.4475 75.2594L84.4575 75.2586C84.458 75.2534 84.4585 75.2481 84.459 75.2429L84.5625 75.2507L84.666 75.2429C84.6665 75.2481 84.667 75.2534 84.6675 75.2586L84.6775 75.2594C84.6759 75.2771 84.6742 75.2948 84.6725 75.3124C85.2435 81.3516 86.3276 85.0462 86.7953 86.1338L86.802 86.1493L86.8026 86.166C86.8901 88.479 87.2034 90.1558 87.3475 90.7001L87.3514 90.715L87.3501 90.7304C86.9124 95.8995 87.0954 98.7353 87.2391 99.5015C87.4495 100.435 87.7292 101.886 87.8853 103.209C87.9633 103.87 88.0107 104.502 88.0025 105.022C87.9983 105.282 87.9803 105.516 87.9445 105.713C87.909 105.908 87.8547 106.075 87.7723 106.195C87.2195 106.998 87.1874 107.939 87.24 108.303L87.2411 108.311L87.1308 111.645L87.1262 111.658C87.0933 111.751 87.1212 112.136 87.8502 112.581C88.5401 113.003 89.1439 112.725 89.3555 112.54L89.4155 112.596L89.5819 112.51C89.6388 112.6 89.6993 112.646 89.7543 112.668C89.8093 112.691 89.8691 112.694 89.9329 112.683C90.0659 112.658 90.2004 112.57 90.2836 112.491L90.3736 112.406L90.4512 112.501C90.5177 112.581 90.5849 112.625 90.6464 112.647C90.708 112.668 90.7712 112.671 90.8344 112.66C90.9647 112.638 91.0877 112.56 91.1601 112.491L91.2289 112.426L91.3074 112.482C91.4635 112.592 91.5711 112.629 91.6401 112.636C91.7035 112.642 91.7416 112.624 91.7687 112.602C91.7996 112.577 91.8194 112.544 91.8338 112.517L91.8361 112.512C91.8387 112.507 91.8419 112.501 91.8445 112.497L91.8464 112.493C91.8482 112.49 91.8507 112.486 91.8538 112.482C91.8559 112.479 91.8598 112.474 91.8653 112.469C91.8698 112.464 91.8813 112.453 91.9001 112.445C91.9222 112.435 91.9578 112.429 91.9951 112.444C92.0268 112.458 92.0416 112.48 92.047 112.489C92.0569 112.506 92.0591 112.523 92.0596 112.526C92.0604 112.532 92.0609 112.539 92.0611 112.545C92.0771 112.553 92.1067 112.561 92.1512 112.566C92.2344 112.576 92.3372 112.574 92.4133 112.567C92.5913 112.484 92.6534 112.337 92.6526 112.165C92.6519 111.993 92.5861 111.812 92.5212 111.691C91.1479 110.676 90.7294 109.236 90.6918 108.632L90.6914 108.626L90.6919 108.62C90.7192 108.234 90.7258 107.975 90.7191 107.798C90.7124 107.62 90.6924 107.53 90.6708 107.477C90.6549 107.437 90.6391 107.417 90.615 107.386C90.6102 107.38 90.605 107.374 90.5994 107.366C90.5954 107.361 90.5913 107.356 90.5868 107.35C90.5447 107.293 90.5051 107.223 90.4749 107.095C90.3831 106.705 90.4364 106.286 90.4749 106.122L90.476 106.118L90.4775 106.114C93.1554 98.3695 92.4437 91.8658 92.227 90.7397C92.1373 90.2735 92.1195 89.1679 92.1323 87.9872C92.1451 86.8019 92.1889 85.5279 92.2255 84.7165L92.2262 84.6992L92.2335 84.6832C93.3417 82.2406 93.5481 79.0716 93.3512 76.094C93.1545 73.1185 92.556 70.3464 92.0648 68.7051L92.059 68.6858L92.0621 68.6659C92.542 65.5752 91.9691 63.4387 91.6326 62.7695L91.6226 62.7496L91.6228 62.7279C91.632 61.926 91.6429 60.705 91.6461 59.6485C91.6477 59.1202 91.6474 58.6332 91.6439 58.2604C91.6404 57.8829 91.6336 57.6321 91.6238 57.5677C91.6158 57.5144 91.6242 57.4511 91.6391 57.387C91.6544 57.3208 91.6788 57.2449 91.7093 57.1631C91.7705 56.9992 91.859 56.8046 91.9582 56.6037C92.1568 56.2015 92.4018 55.7672 92.567 55.4898L92.7434 55.1935L92.773 55.5285C92.9719 57.7828 93.4265 58.9992 93.6757 59.4194C93.6837 59.4328 93.6868 59.4461 93.6872 59.4478C93.6884 59.4525 93.6893 59.4572 93.69 59.4611C93.6914 59.4689 93.6928 59.4783 93.6941 59.488C93.6967 59.5075 93.6995 59.532 93.7019 59.556C93.7043 59.5801 93.7064 59.6044 93.7078 59.6238C93.7081 59.6273 93.7083 59.6307 93.7085 59.634C93.7089 59.6397 93.7092 59.6451 93.7094 59.6498C93.7096 59.6534 93.7097 59.6574 93.7097 59.6611C93.7097 59.663 93.7097 59.6725 93.7077 59.6825C93.6707 59.8668 93.624 60.3643 93.595 61.4893C93.5844 61.8974 93.7172 62.4949 93.947 63.203C94.1759 63.9084 94.4977 64.7142 94.8582 65.5347C95.5789 67.1758 96.4513 68.8705 97.0345 69.9294L97.1734 70.1815L96.9244 70.077C96.9005 70.1055 96.8701 70.1585 96.8356 70.2398C96.7664 70.4028 96.6927 70.6498 96.6198 70.9536C96.4745 71.5598 96.3364 72.376 96.2442 73.1594C96.1519 73.9442 96.1066 74.6889 96.1444 75.1542C96.1538 75.2702 96.1682 75.3659 96.1872 75.4391C96.2057 75.5105 96.2259 75.5492 96.2405 75.5664C96.261 75.5555 96.299 75.5248 96.3528 75.4541C97.1236 74.4428 97.3196 73 97.3196 72.4052L97.5373 72.3884C97.7988 73.747 98.0458 74.8424 98.1378 75.2252C98.1431 75.2473 98.1409 75.2689 98.1336 75.2882C97.967 75.7257 97.9227 76.4717 97.9224 76.7997C97.9223 76.8166 97.9183 76.8322 97.9118 76.8459C97.4642 77.7905 97.4282 78.3949 97.4798 78.68C99.1316 77.0538 99.7661 75.125 99.8845 73.366C100.004 71.5967 99.5999 70.0046 99.1898 69.0782L99.1842 69.0656L99.1826 69.0521C99.0548 67.9649 98.8712 66.2823 98.7359 64.7677C98.6683 64.0105 98.6128 63.2946 98.5823 62.7157C98.5521 62.1409 98.546 61.6911 98.5806 61.4731C98.642 61.0862 98.5013 60.5643 98.2879 60.0566C98.0763 59.553 97.8007 59.0802 97.6116 58.7989C97.5944 58.7734 97.5902 58.7435 97.598 58.7161C97.964 57.4309 97.8885 55.6375 97.6402 53.9081C97.4001 52.2361 97.0006 50.6362 96.6948 49.6374H96.6623C96.6623 49.5973 96.6619 49.5572 96.6612 49.517C96.6409 48.3812 96.335 47.1838 95.8105 46.2481C95.2838 45.3083 94.5514 44.6564 93.691 44.5607C92.7457 44.4557 91.5576 44.1157 90.4923 43.7196C89.4285 43.3241 88.4719 42.8671 87.9938 42.5217C87.5955 42.234 87.3723 41.8013 87.2525 41.3883C87.1323 40.9742 87.1124 40.5676 87.1314 40.3166L87.1339 40.2829L87.159 40.2577C88.4522 38.9546 88.7001 37.477 88.6651 36.9137L88.6637 36.8923L88.6724 36.8724C89.0648 35.9662 89.1382 35.4257 89.0852 35.1214C89.0591 34.9709 89.0034 34.8855 88.9488 34.839C88.8951 34.7934 88.8348 34.7787 88.7809 34.7816L88.659 34.788L88.665 34.6783C88.7732 32.7154 88.0929 31.5717 87.2261 30.9328C86.3672 30.2997 85.3082 30.1496 84.6004 30.2091L84.6001 30.212C84.5948 30.2115 84.5895 30.211 84.5842 30.2105C84.5788 30.211 84.5735 30.2115 84.5682 30.212L84.5679 30.2091Z" fill="#B9BCC8"/>
<path d="M81.9201 30.9332C82.7898 30.2997 83.8597 30.1496 84.5679 30.2091L84.5682 30.212L84.5842 30.2105L84.6001 30.212L84.6004 30.2091C85.3082 30.1496 86.3672 30.2997 87.2261 30.9328C88.0929 31.5717 88.7732 32.7154 88.665 34.6783L88.659 34.788L88.7809 34.7816C88.8348 34.7787 88.8951 34.7934 88.9488 34.839C89.0034 34.8855 89.0591 34.9709 89.0852 35.1214C89.1382 35.4257 89.0648 35.9662 88.6724 36.8724L88.6637 36.8923L88.6651 36.9137C88.7001 37.477 88.4522 38.9546 87.159 40.2577L87.1339 40.2829L87.1314 40.3166C87.1124 40.5676 87.1323 40.9742 87.2525 41.3883C87.3723 41.8013 87.5955 42.234 87.9938 42.5217C88.4719 42.8671 89.4285 43.3241 90.4923 43.7196C91.5576 44.1157 92.7457 44.4557 93.691 44.5607C94.5514 44.6564 95.2838 45.3083 95.8105 46.2481C96.335 47.1838 96.6409 48.3812 96.6612 49.517C96.6619 49.5572 96.6623 49.5973 96.6623 49.6374H96.6948C97.0006 50.6362 97.4001 52.2361 97.6402 53.9081C97.8885 55.6375 97.964 57.4309 97.598 58.7161C97.5902 58.7435 97.5944 58.7734 97.6116 58.7989C97.8007 59.0802 98.0763 59.553 98.2879 60.0566C98.5013 60.5643 98.642 61.0862 98.5806 61.4731C98.546 61.6911 98.5521 62.1409 98.5823 62.7157C98.6128 63.2946 98.6683 64.0105 98.7359 64.7677C98.8712 66.2823 99.0548 67.9649 99.1826 69.0521L99.1842 69.0656L99.1898 69.0782C99.5999 70.0046 100.004 71.5967 99.8845 73.366C99.7661 75.125 99.1316 77.0538 97.4798 78.68C97.4282 78.3949 97.4642 77.7905 97.9118 76.8459C97.9183 76.8322 97.9223 76.8166 97.9224 76.7997C97.9227 76.4717 97.967 75.7257 98.1336 75.2882C98.1409 75.2689 98.1431 75.2473 98.1378 75.2252C98.0458 74.8424 97.7988 73.747 97.5373 72.3884L97.3196 72.4052C97.3196 73 97.1236 74.4428 96.3528 75.4541C96.299 75.5248 96.261 75.5555 96.2405 75.5664C96.2259 75.5492 96.2057 75.5105 96.1872 75.4391C96.1682 75.3659 96.1538 75.2702 96.1444 75.1542C96.1066 74.6889 96.1519 73.9442 96.2442 73.1594C96.3364 72.376 96.4745 71.5598 96.6198 70.9536C96.6927 70.6498 96.7664 70.4028 96.8356 70.2398C96.8701 70.1585 96.9005 70.1055 96.9244 70.077L97.1734 70.1815L97.0345 69.9294C96.4513 68.8705 95.5789 67.1758 94.8582 65.5347C94.4977 64.7142 94.1759 63.9084 93.947 63.203C93.7172 62.4949 93.5844 61.8974 93.595 61.4893C93.624 60.3643 93.6707 59.8668 93.7077 59.6825C93.7097 59.6725 93.7097 59.663 93.7097 59.6611C93.7097 59.6574 93.7096 59.6534 93.7094 59.6498L93.7085 59.634L93.7078 59.6238C93.7064 59.6044 93.7043 59.5801 93.7019 59.556C93.6995 59.532 93.6967 59.5075 93.6941 59.488C93.6928 59.4783 93.6914 59.4689 93.69 59.4611C93.6893 59.4572 93.6884 59.4525 93.6872 59.4478C93.6868 59.4461 93.6837 59.4328 93.6757 59.4194C93.4265 58.9992 92.9719 57.7828 92.773 55.5285L92.7434 55.1935L92.567 55.4898C92.4018 55.7672 92.1568 56.2015 91.9582 56.6037C91.859 56.8046 91.7705 56.9992 91.7093 57.1631C91.6788 57.2449 91.6544 57.3208 91.6391 57.387C91.6242 57.4511 91.6158 57.5144 91.6238 57.5677C91.6336 57.6321 91.6404 57.8829 91.6439 58.2604C91.6474 58.6332 91.6477 59.1202 91.6461 59.6485C91.6429 60.705 91.632 61.926 91.6228 62.7279L91.6226 62.7496L91.6326 62.7695C91.9691 63.4387 92.542 65.5752 92.0621 68.6659L92.059 68.6858L92.0648 68.7051C92.556 70.3464 93.1545 73.1185 93.3512 76.094C93.5481 79.0716 93.3417 82.2406 92.2335 84.6832L92.2262 84.6992L92.2255 84.7165C92.1889 85.5279 92.1451 86.8019 92.1323 87.9872C92.1195 89.1679 92.1373 90.2735 92.227 90.7397C92.4437 91.8658 93.1554 98.3695 90.4775 106.114L90.476 106.118L90.4749 106.122C90.4364 106.286 90.3831 106.705 90.4749 107.095C90.5051 107.223 90.5447 107.293 90.5868 107.35L90.5994 107.366L90.615 107.386C90.6391 107.417 90.6549 107.437 90.6708 107.477C90.6924 107.53 90.7124 107.62 90.7191 107.798C90.7258 107.975 90.7192 108.234 90.6919 108.62L90.6914 108.626L90.6918 108.632C90.7294 109.236 91.1479 110.676 92.5212 111.691C92.5861 111.812 92.6519 111.993 92.6526 112.165C92.6534 112.337 92.5913 112.484 92.4133 112.567C92.3372 112.574 92.2344 112.576 92.1512 112.566C92.1067 112.561 92.0771 112.553 92.0611 112.545C92.0609 112.539 92.0604 112.532 92.0596 112.526C92.0591 112.523 92.0569 112.506 92.047 112.489C92.0416 112.48 92.0268 112.458 91.9951 112.444C91.9578 112.429 91.9222 112.435 91.9001 112.445C91.8813 112.453 91.8698 112.464 91.8653 112.469C91.8598 112.474 91.8559 112.479 91.8538 112.482C91.8507 112.486 91.8482 112.49 91.8464 112.493L91.8445 112.497C91.8419 112.501 91.8387 112.507 91.8361 112.512L91.8338 112.517C91.8194 112.544 91.7996 112.577 91.7687 112.602C91.7416 112.624 91.7035 112.642 91.6401 112.636C91.5711 112.629 91.4635 112.592 91.3074 112.482L91.2289 112.426L91.1601 112.491C91.0877 112.56 90.9647 112.638 90.8344 112.66C90.7712 112.671 90.708 112.668 90.6464 112.647C90.5849 112.625 90.5177 112.581 90.4512 112.501L90.3736 112.406L90.2836 112.491C90.2004 112.57 90.0659 112.658 89.9329 112.683C89.8691 112.694 89.8093 112.691 89.7543 112.668C89.6993 112.646 89.6388 112.6 89.5819 112.51L89.4155 112.596L89.3555 112.54C89.1439 112.725 88.5401 113.003 87.8502 112.581C87.1212 112.136 87.0933 111.751 87.1262 111.658L87.1308 111.645L87.2411 108.311L87.24 108.303C87.1874 107.939 87.2195 106.998 87.7723 106.195C87.8547 106.075 87.909 105.908 87.9445 105.713C87.9803 105.516 87.9983 105.282 88.0025 105.022C88.0107 104.502 87.9633 103.87 87.8853 103.209C87.7292 101.886 87.4495 100.435 87.2391 99.5015C87.0954 98.7353 86.9124 95.8995 87.3501 90.7304L87.3514 90.715L87.3475 90.7001C87.2034 90.1558 86.8901 88.479 86.8026 86.166L86.802 86.1493L86.7953 86.1338C86.3276 85.0462 85.2435 81.3516 84.6725 75.3124L84.6775 75.2594L84.6675 75.2586L84.666 75.2429L84.5625 75.2507L84.459 75.2429L84.4575 75.2586L84.4475 75.2594L84.4524 75.3124C83.8814 81.3516 82.7974 85.0462 82.3297 86.1338L82.323 86.1493L82.3224 86.166C82.2349 88.479 81.9216 90.1558 81.7775 90.7001L81.7736 90.715L81.7749 90.7304C82.2126 95.8995 82.0296 98.7353 81.8859 99.5015C81.6755 100.435 81.3958 101.886 81.2397 103.209C81.1617 103.87 81.1143 104.502 81.1225 105.022C81.1267 105.282 81.1447 105.516 81.1805 105.713C81.216 105.908 81.2703 106.075 81.3527 106.195C81.9055 106.998 81.9376 107.939 81.885 108.303L81.8839 108.311L81.9942 111.645L81.9988 111.658C82.0317 111.751 82.0037 112.136 81.2748 112.581C80.5849 113.003 79.9811 112.725 79.7695 112.54L79.7095 112.596L79.5431 112.51C79.4862 112.6 79.4257 112.646 79.3707 112.668C79.3157 112.691 79.2559 112.694 79.1921 112.683C79.0591 112.658 78.9246 112.57 78.8414 112.491L78.7514 112.406L78.6738 112.501C78.6073 112.581 78.5401 112.625 78.4786 112.647C78.417 112.668 78.3538 112.671 78.2906 112.66C78.1603 112.638 78.0372 112.56 77.9649 112.491L77.8961 112.426L77.8176 112.482C77.6615 112.592 77.5539 112.629 77.4849 112.636C77.4215 112.642 77.3834 112.624 77.3563 112.602C77.3254 112.577 77.3056 112.544 77.2912 112.517L77.2889 112.512C77.2863 112.507 77.2831 112.501 77.2805 112.497C77.2788 112.494 77.2755 112.488 77.2712 112.482C77.269 112.479 77.2652 112.474 77.2597 112.469C77.2552 112.464 77.2436 112.453 77.2249 112.445C77.2028 112.435 77.1672 112.429 77.1299 112.444C77.0982 112.458 77.0834 112.48 77.078 112.489C77.0681 112.506 77.0658 112.523 77.0653 112.527C77.0647 112.531 77.0643 112.536 77.0641 112.541L77.0639 112.545C77.0479 112.553 77.0183 112.561 76.9738 112.566C76.8906 112.576 76.7878 112.574 76.7117 112.567C76.5337 112.484 76.4716 112.337 76.4724 112.165C76.4731 111.993 76.5389 111.812 76.6038 111.691C77.9771 110.676 78.3956 109.236 78.4332 108.632L78.4336 108.626L78.4331 108.62C78.4058 108.234 78.3992 107.975 78.4059 107.798C78.4126 107.62 78.4326 107.53 78.4542 107.477C78.4701 107.437 78.4859 107.417 78.51 107.386C78.5183 107.376 78.5276 107.364 78.5381 107.35C78.5803 107.293 78.6199 107.223 78.6501 107.095C78.7419 106.705 78.6886 106.286 78.6501 106.122L78.649 106.118L78.6475 106.114C75.9696 98.3695 76.6813 91.8658 76.898 90.7397C76.9877 90.2735 77.0055 89.1679 76.9927 87.9872C76.9799 86.8019 76.9361 85.5279 76.8995 84.7165L76.8988 84.6992L76.8915 84.6832C75.7833 82.2406 75.5769 79.0716 75.7738 76.094C75.9705 73.1185 76.569 70.3464 77.0602 68.7051L77.066 68.6858L77.0629 68.6659C76.583 65.5752 77.1559 63.4387 77.4924 62.7695L77.5024 62.7496L77.5022 62.7278C77.493 61.926 77.4821 60.705 77.4789 59.6485C77.4773 59.1201 77.4776 58.6332 77.4811 58.2604C77.4846 57.8829 77.4914 57.6321 77.5012 57.5676C77.5092 57.5144 77.5007 57.4511 77.4859 57.387C77.4706 57.3208 77.4462 57.2449 77.4157 57.1631C77.3545 56.9992 77.266 56.8045 77.1668 56.6036C76.9682 56.2015 76.7232 55.7672 76.558 55.4898L76.3815 55.1935L76.352 55.5285C76.1531 57.7828 75.6985 58.9992 75.4493 59.4194C75.4413 59.4328 75.4382 59.4463 75.4378 59.448C75.4366 59.4526 75.4357 59.4572 75.435 59.4611C75.4336 59.4689 75.4322 59.4783 75.4309 59.488C75.4283 59.5075 75.4255 59.532 75.4231 59.556C75.4207 59.5801 75.4186 59.6044 75.4171 59.6238C75.4164 59.6334 75.4159 59.6424 75.4156 59.6498C75.4154 59.6534 75.4153 59.6576 75.4153 59.6614C75.4153 59.6632 75.4153 59.6725 75.4173 59.6824C75.4543 59.8667 75.501 60.3643 75.53 61.4893C75.5406 61.8974 75.4078 62.4949 75.178 63.203C74.9491 63.9084 74.6272 64.7142 74.2668 65.5347C73.5461 67.1758 72.6737 68.8705 72.0905 69.9294L71.9516 70.1815L72.2006 70.077C72.2245 70.1055 72.2549 70.1585 72.2894 70.2398C72.3586 70.4028 72.4323 70.6497 72.5052 70.9536C72.6505 71.5598 72.7886 72.376 72.8808 73.1594C72.9731 73.9442 73.0184 74.6889 72.9806 75.1542C72.9712 75.2702 72.9568 75.3659 72.9378 75.4391C72.9193 75.5105 72.8991 75.5492 72.8845 75.5664C72.8639 75.5555 72.826 75.5248 72.7722 75.4541C72.0014 74.4428 71.8054 73 71.8054 72.4052L71.5877 72.3884C71.3262 73.747 71.0792 74.8424 70.9872 75.2252C70.9819 75.2473 70.9841 75.2689 70.9914 75.2882C71.158 75.7256 71.2023 76.4717 71.2026 76.7997C71.2027 76.8166 71.2067 76.8322 71.2132 76.8459C71.6608 77.7904 71.6967 78.3949 71.6452 78.68C69.9934 77.0538 69.3589 75.125 69.2405 73.366C69.1214 71.5967 69.5251 70.0046 69.9352 69.0782L69.9408 69.0656L69.9424 69.0521C70.0702 67.9649 70.2538 66.2823 70.3891 64.7677C70.4566 64.0105 70.5122 63.2946 70.5427 62.7157C70.5729 62.1409 70.579 61.6911 70.5444 61.473C70.4829 61.0854 70.6243 60.5622 70.8383 60.0536C71.0506 59.549 71.3269 59.0758 71.5156 58.7956L71.5395 58.7601L71.528 58.72C71.161 57.4352 71.2362 55.6411 71.4844 53.9107C71.7244 52.2377 72.1243 50.6367 72.4302 49.6374H72.4627C72.4627 49.5973 72.4631 49.5572 72.4638 49.517C72.4841 48.3812 72.79 47.1838 73.3145 46.2481C73.8412 45.3083 74.5736 44.6564 75.434 44.5607C76.3793 44.4557 77.5674 44.1157 78.6327 43.7196C79.6965 43.3241 80.6531 42.8671 81.1312 42.5217C81.5295 42.234 81.7527 41.8013 81.8725 41.3883C81.9927 40.9742 82.0126 40.5676 81.9936 40.3166L81.9911 40.2829L81.966 40.2577C80.6728 38.9546 80.4249 37.477 80.4599 36.9136L80.4613 36.8923L80.4526 36.8724C80.0602 35.9662 79.9868 35.4257 80.0397 35.1214C80.0659 34.9709 80.1216 34.8855 80.1762 34.839C80.2299 34.7934 80.2902 34.7787 80.3441 34.7816L80.466 34.788L80.46 34.6783C80.3518 32.716 81.0425 31.5723 81.9201 30.9332Z" fill="#B9BCC8"/>
<path d="M53.3011 131.636V144H51.8523L45.1151 134.293H44.9943V144H43.4972V131.636H44.946L51.7074 141.368H51.8281V131.636H53.3011ZM59.8708 144.193C59.0337 144.193 58.2992 143.994 57.6673 143.596C57.0395 143.197 56.5485 142.64 56.1943 141.923C55.8442 141.207 55.6691 140.37 55.6691 139.412C55.6691 138.446 55.8442 137.603 56.1943 136.882C56.5485 136.162 57.0395 135.603 57.6673 135.204C58.2992 134.806 59.0337 134.607 59.8708 134.607C60.7079 134.607 61.4404 134.806 62.0683 135.204C62.7001 135.603 63.1911 136.162 63.5413 136.882C63.8954 137.603 64.0725 138.446 64.0725 139.412C64.0725 140.37 63.8954 141.207 63.5413 141.923C63.1911 142.64 62.7001 143.197 62.0683 143.596C61.4404 143.994 60.7079 144.193 59.8708 144.193ZM59.8708 142.913C60.5067 142.913 61.0299 142.75 61.4404 142.424C61.8509 142.098 62.1548 141.67 62.352 141.138C62.5492 140.607 62.6478 140.032 62.6478 139.412C62.6478 138.792 62.5492 138.215 62.352 137.679C62.1548 137.144 61.8509 136.711 61.4404 136.381C61.0299 136.051 60.5067 135.886 59.8708 135.886C59.2349 135.886 58.7117 136.051 58.3012 136.381C57.8907 136.711 57.5869 137.144 57.3896 137.679C57.1924 138.215 57.0938 138.792 57.0938 139.412C57.0938 140.032 57.1924 140.607 57.3896 141.138C57.5869 141.67 57.8907 142.098 58.3012 142.424C58.7117 142.75 59.2349 142.913 59.8708 142.913ZM71.0286 147.477V134.727H72.405V136.2H72.574C72.6787 136.039 72.8236 135.834 73.0087 135.585C73.1979 135.331 73.4675 135.106 73.8176 134.908C74.1718 134.707 74.6507 134.607 75.2544 134.607C76.0352 134.607 76.7234 134.802 77.3191 135.192C77.9147 135.583 78.3796 136.136 78.7136 136.852C79.0476 137.569 79.2147 138.414 79.2147 139.388C79.2147 140.37 79.0476 141.221 78.7136 141.941C78.3796 142.658 77.9167 143.213 77.3251 143.608C76.7335 143.998 76.0513 144.193 75.2786 144.193C74.6829 144.193 74.206 144.095 73.8478 143.897C73.4896 143.696 73.214 143.469 73.0208 143.215C72.8276 142.958 72.6787 142.744 72.574 142.575H72.4533V147.477H71.0286ZM72.4292 139.364C72.4292 140.064 72.5318 140.682 72.737 141.217C72.9423 141.748 73.2421 142.165 73.6365 142.467C74.031 142.764 74.5139 142.913 75.0854 142.913C75.681 142.913 76.1781 142.756 76.5765 142.442C76.979 142.125 77.2808 141.698 77.4821 141.163C77.6873 140.623 77.79 140.024 77.79 139.364C77.79 138.712 77.6893 138.124 77.4881 137.601C77.2909 137.074 76.9911 136.657 76.5886 136.351C76.1902 136.041 75.6891 135.886 75.0854 135.886C74.5059 135.886 74.0189 136.033 73.6245 136.327C73.2301 136.617 72.9322 137.023 72.731 137.547C72.5298 138.066 72.4292 138.671 72.4292 139.364ZM82.8127 138.422V144H81.388V131.636H82.8127V136.176H82.9334C83.1507 135.697 83.4767 135.317 83.9114 135.035C84.3501 134.749 84.9337 134.607 85.6621 134.607C86.294 134.607 86.8474 134.733 87.3223 134.987C87.7972 135.236 88.1654 135.621 88.427 136.14C88.6926 136.655 88.8255 137.311 88.8255 138.108V144H87.4007V138.205C87.4007 137.468 87.2096 136.899 86.8272 136.496C86.4489 136.09 85.9237 135.886 85.2516 135.886C84.7847 135.886 84.3662 135.985 83.9959 136.182C83.6297 136.379 83.3399 136.667 83.1266 137.045C82.9173 137.424 82.8127 137.883 82.8127 138.422ZM95.199 144.193C94.3618 144.193 93.6273 143.994 92.9955 143.596C92.3676 143.197 91.8766 142.64 91.5225 141.923C91.1723 141.207 90.9972 140.37 90.9972 139.412C90.9972 138.446 91.1723 137.603 91.5225 136.882C91.8766 136.162 92.3676 135.603 92.9955 135.204C93.6273 134.806 94.3618 134.607 95.199 134.607C96.0361 134.607 96.7686 134.806 97.3964 135.204C98.0283 135.603 98.5193 136.162 98.8694 136.882C99.2236 137.603 99.4007 138.446 99.4007 139.412C99.4007 140.37 99.2236 141.207 98.8694 141.923C98.5193 142.64 98.0283 143.197 97.3964 143.596C96.7686 143.994 96.0361 144.193 95.199 144.193ZM95.199 142.913C95.8348 142.913 96.358 142.75 96.7686 142.424C97.1791 142.098 97.4829 141.67 97.6801 141.138C97.8773 140.607 97.9759 140.032 97.9759 139.412C97.9759 138.792 97.8773 138.215 97.6801 137.679C97.4829 137.144 97.1791 136.711 96.7686 136.381C96.358 136.051 95.8348 135.886 95.199 135.886C94.5631 135.886 94.0399 136.051 93.6294 136.381C93.2188 136.711 92.915 137.144 92.7178 137.679C92.5206 138.215 92.422 138.792 92.422 139.412C92.422 140.032 92.5206 140.607 92.7178 141.138C92.915 141.67 93.2188 142.098 93.6294 142.424C94.0399 142.75 94.5631 142.913 95.199 142.913ZM105.608 134.727V135.935H100.803V134.727H105.608ZM102.203 132.506H103.628V141.344C103.628 141.746 103.686 142.048 103.803 142.249C103.924 142.446 104.077 142.579 104.262 142.648C104.451 142.712 104.65 142.744 104.86 142.744C105.017 142.744 105.145 142.736 105.246 142.72C105.347 142.7 105.427 142.684 105.487 142.672L105.777 143.952C105.681 143.988 105.546 144.024 105.373 144.06C105.2 144.101 104.98 144.121 104.715 144.121C104.312 144.121 103.918 144.034 103.531 143.861C103.149 143.688 102.831 143.424 102.578 143.07C102.328 142.716 102.203 142.269 102.203 141.73V132.506ZM111.419 144.193C110.582 144.193 109.847 143.994 109.215 143.596C108.587 143.197 108.096 142.64 107.742 141.923C107.392 141.207 107.217 140.37 107.217 139.412C107.217 138.446 107.392 137.603 107.742 136.882C108.096 136.162 108.587 135.603 109.215 135.204C109.847 134.806 110.582 134.607 111.419 134.607C112.256 134.607 112.988 134.806 113.616 135.204C114.248 135.603 114.739 136.162 115.089 136.882C115.443 137.603 115.62 138.446 115.62 139.412C115.62 140.37 115.443 141.207 115.089 141.923C114.739 142.64 114.248 143.197 113.616 143.596C112.988 143.994 112.256 144.193 111.419 144.193ZM111.419 142.913C112.055 142.913 112.578 142.75 112.988 142.424C113.399 142.098 113.703 141.67 113.9 141.138C114.097 140.607 114.196 140.032 114.196 139.412C114.196 138.792 114.097 138.215 113.9 137.679C113.703 137.144 113.399 136.711 112.988 136.381C112.578 136.051 112.055 135.886 111.419 135.886C110.783 135.886 110.26 136.051 109.849 136.381C109.439 136.711 109.135 137.144 108.938 137.679C108.74 138.215 108.642 138.792 108.642 139.412C108.642 140.032 108.74 140.607 108.938 141.138C109.135 141.67 109.439 142.098 109.849 142.424C110.26 142.75 110.783 142.913 111.419 142.913Z" fill="#B9BCC8"/>
<rect x="0.5" y="0.5" width="159" height="179" rx="3.5" stroke="#B9BCC8" stroke-dasharray="20 20"/>
</svg>
