<svg width="80" height="80" viewBox="0 0 80 80" fill="none" xmlns="http://www.w3.org/2000/svg">
<g filter="url(#filter0_d_298_2502)">
<rect x="4" y="4" width="72" height="72" rx="8" fill="white"/>
<path fill-rule="evenodd" clip-rule="evenodd" d="M40.2657 10.009C39.7211 9.96394 38.9059 10.0788 38.24 10.5638C37.5694 11.0522 37.062 11.9072 37.1226 13.3206C37.0697 13.3312 37.017 13.3548 36.9703 13.3945C36.8984 13.4556 36.8466 13.5499 36.8239 13.6802C36.7793 13.9365 36.8438 14.3521 37.1251 15.0055C37.1032 15.4533 37.2976 16.5341 38.2364 17.4915C38.2461 17.661 38.2303 17.9266 38.152 18.1965C38.0697 18.4802 37.9209 18.7597 37.6703 18.9407C37.3427 19.1773 36.6682 19.5015 35.9028 19.7861C35.1385 20.0702 34.2946 20.3107 33.6316 20.3844C32.9307 20.4623 32.3667 20.9867 31.9773 21.6815C31.5877 22.3767 31.3621 23.2599 31.3456 24.0971C31.1205 24.8201 30.8182 26.0155 30.6388 27.2666C30.4607 28.508 30.4019 29.8138 30.6658 30.7679C30.526 30.9791 30.3317 31.3159 30.1806 31.6751C30.0245 32.0462 29.909 32.4535 29.9595 32.7717C29.982 32.9134 29.9788 33.2241 29.9568 33.6432C29.9349 34.0594 29.8949 34.5752 29.8461 35.1219C29.7489 36.2108 29.617 37.4203 29.5247 38.2057C29.2216 38.8948 28.9284 40.062 29.0156 41.3575C29.1033 42.6598 29.5757 44.0958 30.8139 45.3049C30.85 45.3402 30.9023 45.3562 30.9523 45.3475C31.0045 45.3385 31.0484 45.3032 31.0609 45.2505C31.1155 45.0207 31.0934 44.5465 30.7508 43.8192C30.7495 43.5786 30.7181 43.0436 30.5952 42.7075C30.6512 42.4733 30.7756 41.9226 30.9187 41.2146C30.9991 41.7294 31.1921 42.4089 31.5961 42.939C31.6422 42.9995 31.6913 43.0482 31.7454 43.0708C31.7747 43.0831 31.8085 43.0889 31.8435 43.0816C31.8782 43.0745 31.9051 43.0565 31.9251 43.036C31.9625 42.9976 31.9853 42.9404 32.001 42.88C32.0173 42.817 32.0285 42.7397 32.0357 42.652C32.064 42.3022 32.0299 41.7534 31.963 41.1845C31.896 40.6146 31.7954 40.0194 31.6888 39.575C31.6357 39.3534 31.5804 39.1664 31.526 39.0382C31.4992 38.9751 31.4704 38.9207 31.4385 38.8834C31.4314 38.8751 31.4234 38.8666 31.4141 38.8587C31.8365 38.0873 32.4472 36.8958 32.9548 35.7401C33.2163 35.1447 33.4509 34.5578 33.6182 34.0421C33.7849 33.5284 33.8872 33.0785 33.879 32.76C33.8583 31.9597 33.8253 31.588 33.7962 31.438C33.7963 31.4373 33.7963 31.4366 33.7963 31.4358C33.7965 31.4327 33.7968 31.4288 33.7971 31.4241C33.798 31.4116 33.7995 31.3952 33.8011 31.3786C33.8028 31.362 33.8046 31.3458 33.8062 31.3336C33.8067 31.3301 33.8071 31.3272 33.8075 31.3248C33.993 31.0059 34.2964 30.1795 34.4493 28.7097C34.5488 28.8849 34.6617 29.0928 34.7588 29.2894C34.8296 29.4328 34.8914 29.5689 34.9333 29.6813C34.9543 29.7375 34.9698 29.7866 34.9792 29.8269C34.9889 29.8687 34.9904 29.8953 34.9883 29.9092C34.9795 29.9673 34.9749 30.161 34.9724 30.428C34.9699 30.6983 34.9696 31.0509 34.9708 31.433C34.9731 32.1905 34.9809 33.0645 34.9874 33.6446C34.7293 34.1718 34.3265 35.7306 34.6694 37.9566C34.3125 39.1533 33.8808 41.1595 33.7384 43.3125C33.596 45.4676 33.7428 47.7786 34.5527 49.5723C34.5789 50.1583 34.6102 51.0708 34.6194 51.9199C34.6286 52.7783 34.615 53.5626 34.5532 53.8839C34.3931 54.7155 33.8782 59.4387 35.8216 65.061C35.8465 65.1693 35.8806 65.4475 35.8209 65.7016C35.8031 65.7771 35.7823 65.8107 35.7632 65.8363C35.7594 65.8414 35.7551 65.8469 35.7504 65.8528C35.7308 65.8775 35.7048 65.9103 35.6853 65.9586C35.6613 66.018 35.6461 66.1004 35.641 66.2347C35.636 66.3689 35.641 66.5597 35.6606 66.8387C35.6334 67.2505 35.3407 68.2526 34.3833 68.9528L34.3702 68.9623L34.3626 68.9758C34.3062 69.0757 34.2439 69.2365 34.2432 69.3959C34.2424 69.5581 34.307 69.7299 34.5179 69.8205L34.5298 69.8256L34.5429 69.827C34.6059 69.8336 34.7022 69.8379 34.7855 69.8278C34.8263 69.8228 34.8713 69.8135 34.9083 69.7948C34.9162 69.8029 34.9251 69.8108 34.9346 69.8185C34.9844 69.8588 35.0558 69.8879 35.1511 69.8785C35.2286 69.8708 35.3164 69.838 35.4176 69.7741C35.4856 69.8254 35.58 69.8764 35.6867 69.8945C35.7569 69.9064 35.8335 69.9042 35.91 69.8771C35.9641 69.858 36.0156 69.8274 36.0633 69.7841C36.1351 69.8379 36.2311 69.8908 36.3359 69.9102C36.4078 69.9235 36.4864 69.9213 36.5626 69.89C36.6136 69.8691 36.6602 69.8366 36.7016 69.792C36.9105 69.955 37.4094 70.1532 37.9625 69.8151C38.5007 69.4861 38.5991 69.1581 38.5512 68.9969L38.4725 66.6176C38.5126 66.3283 38.4857 65.6177 38.0645 65.0056C38.0211 64.9425 37.9861 64.8435 37.9617 64.7092C37.9375 64.5763 37.9247 64.4146 37.9218 64.2308C37.916 63.8631 37.9495 63.4128 38.0056 62.9371C38.1178 61.9861 38.3193 60.9411 38.4708 60.2692L38.471 60.2681L38.4712 60.267C38.5784 59.6976 38.7096 57.6366 38.3939 53.9017C38.5018 53.4875 38.7251 52.2773 38.7886 50.6187C39.1157 49.8508 39.8242 47.4375 40.25 43.5382C40.6758 47.4375 41.3843 49.8508 41.7114 50.6187C41.7749 52.2773 41.9982 53.4875 42.1061 53.9017C41.7904 57.6366 41.9216 59.6976 42.0288 60.267L42.029 60.2681L42.0292 60.2692C42.1807 60.9411 42.3822 61.9861 42.4944 62.9371C42.5505 63.4128 42.584 63.8631 42.5782 64.2308C42.5753 64.4146 42.5625 64.5763 42.5383 64.7092C42.5139 64.8435 42.4789 64.9425 42.4355 65.0056C42.0143 65.6177 41.9874 66.3283 42.0275 66.6176L41.9488 68.9969C41.9009 69.1581 41.9993 69.4861 42.5375 69.8151C43.0906 70.1532 43.5895 69.955 43.7984 69.792C43.8398 69.8366 43.8864 69.8691 43.9374 69.89C44.0136 69.9213 44.0922 69.9235 44.1641 69.9102C44.2689 69.8908 44.3649 69.8379 44.4367 69.7841C44.4844 69.8274 44.5359 69.858 44.59 69.8771C44.6665 69.9042 44.7431 69.9064 44.8133 69.8945C44.92 69.8764 45.0144 69.8254 45.0824 69.7741C45.1836 69.838 45.2714 69.8708 45.3489 69.8785C45.4442 69.8879 45.5156 69.8588 45.5654 69.8185C45.5749 69.8108 45.5835 69.8028 45.5913 69.7947C45.6283 69.8134 45.6737 69.8228 45.7145 69.8278C45.7978 69.8379 45.8941 69.8336 45.9571 69.827L45.9702 69.8256L45.9821 69.8205C46.193 69.7299 46.2576 69.5581 46.2568 69.3959C46.2561 69.2365 46.1938 69.0757 46.1374 68.9758L46.1298 68.9623L46.1167 68.9528C45.1593 68.2526 44.8666 67.2505 44.8394 66.8387C44.859 66.5597 44.864 66.3689 44.859 66.2347C44.8539 66.1004 44.8387 66.018 44.8147 65.9586C44.7952 65.9103 44.7692 65.8775 44.7496 65.8528C44.7476 65.8503 44.7458 65.848 44.744 65.8457C44.7414 65.8424 44.739 65.8393 44.7368 65.8363C44.7177 65.8107 44.6969 65.7771 44.6791 65.7016C44.6194 65.4475 44.6535 65.1693 44.6784 65.061C46.6218 59.4387 46.1069 54.7155 45.9468 53.8839C45.885 53.5626 45.8714 52.7783 45.8806 51.9199C45.8898 51.0708 45.9211 50.1583 45.9473 49.5723C46.7572 47.7786 46.904 45.4676 46.7616 43.3125C46.6192 41.1595 46.1875 39.1533 45.8306 37.9566C46.1735 35.7306 45.7707 34.1718 45.5126 33.6446C45.5191 33.0645 45.5269 32.1905 45.5292 31.433C45.5304 31.0509 45.5301 30.6983 45.5276 30.428C45.5251 30.161 45.5205 29.9673 45.5117 29.9092C45.5096 29.8953 45.5111 29.8687 45.5208 29.8269C45.5302 29.7866 45.5457 29.7375 45.5667 29.6813C45.6086 29.5689 45.6703 29.4328 45.7412 29.2894C45.8383 29.0928 45.9512 28.8849 46.0507 28.7097C46.2036 30.1795 46.507 31.0059 46.6925 31.3248C46.6929 31.3272 46.6933 31.3301 46.6938 31.3336C46.6954 31.3458 46.6972 31.362 46.6989 31.3786C46.6999 31.3892 46.7009 31.3997 46.7017 31.4092C46.7022 31.4145 46.7026 31.4196 46.7029 31.4241C46.7033 31.43 46.7036 31.4347 46.7038 31.438C46.6747 31.588 46.6417 31.9597 46.621 32.76C46.6128 33.0785 46.7151 33.5284 46.8818 34.0421C47.0491 34.5578 47.2837 35.1447 47.5452 35.7401C48.0528 36.8958 48.6635 38.0873 49.0859 38.8587C49.0766 38.8666 49.0686 38.8751 49.0615 38.8834C49.0296 38.9207 49.0008 38.9751 48.974 39.0382C48.9196 39.1664 48.8643 39.3534 48.8111 39.575C48.7046 40.0194 48.604 40.6146 48.537 41.1846C48.4701 41.7534 48.436 42.3022 48.4643 42.652C48.4715 42.7397 48.4827 42.817 48.499 42.88C48.5147 42.9405 48.5375 42.9976 48.5749 43.036C48.5949 43.0565 48.6218 43.0745 48.6565 43.0817C48.6915 43.0889 48.7253 43.0831 48.7546 43.0708C48.8087 43.0482 48.8578 42.9995 48.9039 42.939C49.3079 42.4089 49.5009 41.7294 49.5813 41.2146C49.7244 41.9226 49.8488 42.4733 49.9048 42.7075C49.7819 43.0436 49.7505 43.5786 49.7492 43.8192C49.4066 44.5465 49.3845 45.0207 49.4391 45.2505C49.4516 45.3032 49.4955 45.3385 49.5477 45.3475C49.5977 45.3562 49.65 45.3402 49.6861 45.3049C50.9243 44.0958 51.3967 42.6598 51.4844 41.3575C51.5716 40.062 51.2784 38.8948 50.9753 38.2057C50.883 37.4203 50.7511 36.2108 50.6539 35.1219C50.6051 34.5752 50.5651 34.0594 50.5432 33.6432C50.5211 33.2241 50.518 32.9134 50.5405 32.7717C50.5909 32.4541 50.476 32.0478 50.3203 31.6773C50.1691 31.3173 49.9743 30.9795 49.8342 30.7679C50.0982 29.8133 50.0393 28.5067 49.861 27.2647C49.6815 26.0143 49.3794 24.8198 49.1544 24.0971C49.1379 23.2599 48.9123 22.3767 48.5227 21.6815C48.1333 20.9867 47.5693 20.4623 46.8684 20.3844C46.2054 20.3107 45.3615 20.0702 44.5972 19.7861C43.8318 19.5015 43.1573 19.1773 42.8297 18.9407C42.5791 18.7597 42.4303 18.4802 42.348 18.1965C42.2697 17.9267 42.2539 17.661 42.2636 17.4915C43.2024 16.5341 43.3968 15.4533 43.3749 15.0055C43.6562 14.3521 43.7207 13.9365 43.6761 13.6802C43.6534 13.5499 43.6016 13.4556 43.5297 13.3945C43.483 13.3548 43.4303 13.3312 43.3774 13.3206C43.4382 11.9076 42.9389 11.0527 42.276 10.5641C41.6177 10.0789 40.81 9.96393 40.2657 10.009ZM40.2539 10.1512C39.742 10.1081 38.9686 10.2167 38.3398 10.6746C37.7054 11.1366 37.2061 11.9634 37.2843 13.3819L37.2887 13.4612L37.2005 13.4566C37.1616 13.4545 37.118 13.4651 37.0792 13.4981C37.0397 13.5317 36.9995 13.5934 36.9805 13.7022C36.9423 13.9222 36.9953 14.3129 37.279 14.968L37.2853 14.9824L37.2843 14.9978C37.2589 15.405 37.4382 16.4732 38.373 17.4152L38.3911 17.4334L38.393 17.4578C38.4067 17.6392 38.3923 17.9332 38.3054 18.2325C38.2188 18.5311 38.0574 18.8439 37.7696 19.0518C37.424 19.3015 36.7324 19.6319 35.9634 19.9178C35.1933 20.2041 34.3344 20.4499 33.6511 20.5258C33.0291 20.595 32.4997 21.0662 32.1189 21.7456C31.7398 22.422 31.5186 23.2876 31.5039 24.1086C31.5034 24.1377 31.5032 24.1668 31.5032 24.1957H31.4797C31.2585 24.9181 30.9695 26.0755 30.796 27.2849C30.6165 28.5357 30.5622 29.8327 30.8275 30.7614L30.8358 30.7904L30.8185 30.8161C30.6821 31.0187 30.4824 31.3608 30.3289 31.7255C30.1742 32.0932 30.0719 32.4714 30.1164 32.7516C30.1415 32.9092 30.137 33.2344 30.1152 33.6499C30.0932 34.0684 30.053 34.5859 30.0041 35.1333C29.9064 36.2282 29.7737 37.4445 29.6812 38.2304L29.6801 38.2402L29.676 38.2493C29.3796 38.919 29.0878 40.0699 29.1738 41.3489C29.2594 42.6204 29.7181 44.0148 30.9122 45.1904C30.9495 44.9843 30.9234 44.5473 30.5999 43.8645C30.5952 43.8546 30.5923 43.8433 30.5923 43.8311C30.592 43.594 30.56 43.0547 30.4396 42.7385C30.4343 42.7245 30.4327 42.7089 30.4366 42.6929C30.503 42.4162 30.6816 41.6244 30.8706 40.6422L31.028 40.6543C31.028 41.0843 31.1697 42.1273 31.7269 42.8584C31.7658 42.9095 31.7932 42.9317 31.8081 42.9396C31.8186 42.9271 31.8332 42.8991 31.8466 42.8476C31.8604 42.7946 31.8707 42.7254 31.8775 42.6416C31.9048 42.3052 31.8721 41.7669 31.8054 41.1995C31.7388 40.6332 31.6389 40.0432 31.5339 39.605C31.4812 39.3854 31.4279 39.2068 31.3779 39.089C31.3529 39.0302 31.331 38.9919 31.3137 38.9713L31.1337 39.0469L31.2341 38.8646C31.6557 38.0991 32.2863 36.8741 32.8074 35.6878C33.0679 35.0946 33.3006 34.5121 33.466 34.0022C33.6321 33.4903 33.7281 33.0583 33.7205 32.7633C33.6995 31.9501 33.6658 31.5904 33.639 31.4572C33.6376 31.45 33.6376 31.4433 33.6376 31.442C33.6376 31.4392 33.6377 31.4362 33.6378 31.4336C33.638 31.4282 33.6384 31.4218 33.6389 31.4148C33.6399 31.4008 33.6415 31.3832 33.6432 31.3658C33.645 31.3485 33.647 31.3308 33.6488 31.3166C33.6498 31.3096 33.6508 31.3028 33.6518 31.2972C33.6523 31.2944 33.653 31.291 33.6538 31.2877C33.6541 31.2864 33.6564 31.2767 33.6621 31.267C33.8423 30.9633 34.1709 30.084 34.3147 28.4544L34.3361 28.2122L34.4636 28.4264C34.583 28.6269 34.7601 28.9409 34.9037 29.2316C34.9754 29.3768 35.0394 29.5175 35.0836 29.6359C35.1057 29.6951 35.1233 29.75 35.1344 29.7978C35.1451 29.8441 35.1512 29.89 35.1454 29.9284C35.1384 29.975 35.1335 30.1563 35.1309 30.4292C35.1284 30.6987 35.1282 31.0507 35.1293 31.4326C35.1316 32.1964 35.1395 33.079 35.1461 33.6587L35.1463 33.6744L35.1391 33.6888C34.8958 34.1726 34.4817 35.717 34.8286 37.9513L34.8308 37.9656L34.8266 37.9796C34.4715 39.1661 34.0389 41.17 33.8967 43.3209C33.7544 45.4734 33.9036 47.7643 34.7047 49.5301L34.7099 49.5416L34.7105 49.5541C34.7369 50.1406 34.7686 51.0616 34.7779 51.9185C34.7871 52.772 34.7743 53.5712 34.7094 53.9082C34.5527 54.7223 34.0382 59.4238 35.9741 65.0219L35.9752 65.0251L35.976 65.0283C36.0038 65.1467 36.0423 65.4491 35.976 65.7311C35.9541 65.824 35.9255 65.8745 35.895 65.9155C35.8874 65.9258 35.8807 65.9343 35.8747 65.942C35.8573 65.9641 35.8459 65.9786 35.8344 66.0072C35.8187 66.0459 35.8043 66.1108 35.7995 66.2395C35.7946 66.3676 35.7994 66.5543 35.8191 66.834L35.8194 66.8383L35.8192 66.8425C35.792 67.2793 35.4894 68.3202 34.4967 69.0535C34.4498 69.141 34.4023 69.2724 34.4017 69.3965C34.4011 69.5205 34.4461 69.6266 34.5747 69.6867C34.6297 69.6917 34.704 69.6938 34.7642 69.6865C34.7963 69.6826 34.8177 69.6767 34.8293 69.6712L34.8295 69.6684C34.8296 69.6649 34.8299 69.6613 34.8304 69.6579C34.8307 69.6552 34.8323 69.6431 34.8395 69.6306C34.8434 69.6239 34.8541 69.6079 34.8771 69.5983C34.904 69.5871 34.9297 69.5919 34.9457 69.5989C34.9593 69.6048 34.9676 69.6127 34.9709 69.6159C34.9748 69.6199 34.9776 69.6235 34.9792 69.6257C34.9823 69.63 34.9847 69.6341 34.9859 69.6363C34.9878 69.6395 34.9901 69.6439 34.992 69.6475L34.9937 69.6508C35.0041 69.6704 35.0184 69.6945 35.0407 69.7126C35.0603 69.7284 35.0878 69.7414 35.1336 69.7368C35.1836 69.7318 35.2613 69.7054 35.3742 69.6254L35.4309 69.5852L35.4807 69.6323C35.533 69.6816 35.6219 69.7385 35.7161 69.7544C35.7618 69.7622 35.8074 69.7602 35.852 69.7445C35.8965 69.7287 35.945 69.6974 35.9931 69.639L36.0492 69.5708L36.1142 69.6323C36.1744 69.6891 36.2717 69.7528 36.3678 69.7706C36.4139 69.7791 36.4572 69.7766 36.4969 69.7603C36.5366 69.744 36.5804 69.7108 36.6215 69.646L36.7418 69.7078L36.7852 69.6676C36.9381 69.801 37.3746 70.0021 37.8733 69.6973C38.4003 69.3752 38.4205 69.097 38.3967 69.0296L38.3934 69.0201L38.3137 66.6105L38.3145 66.6049C38.3525 66.3418 38.3293 65.6613 37.9297 65.0805C37.8701 64.9939 37.8308 64.8732 37.8052 64.7322C37.7793 64.5899 37.7663 64.4207 37.7633 64.2328C37.7573 63.857 37.7916 63.4003 37.848 62.9221C37.9608 61.9659 38.163 60.9169 38.3151 60.2421C38.419 59.6882 38.5513 57.6382 38.2348 53.9015L38.2339 53.8904L38.2368 53.8796C38.3409 53.4861 38.5674 52.274 38.6306 50.6019L38.6311 50.5899L38.6359 50.5786C38.974 49.7924 39.7577 47.1216 40.1704 42.756C40.1692 42.7432 40.168 42.7304 40.1668 42.7176L40.1741 42.7171C40.1745 42.7133 40.1748 42.7095 40.1752 42.7057L40.25 42.7113L40.3248 42.7057C40.3252 42.7095 40.3255 42.7133 40.3259 42.7171L40.3332 42.7176C40.332 42.7304 40.3308 42.7432 40.3296 42.756C40.7423 47.1216 41.526 49.7924 41.8641 50.5786L41.8689 50.5899L41.8694 50.6019C41.9326 52.274 42.1591 53.4861 42.2632 53.8796L42.2661 53.8904L42.2652 53.9015C41.9487 57.6382 42.081 59.6882 42.1849 60.2421C42.337 60.9169 42.5392 61.9659 42.652 62.9221C42.7084 63.4003 42.7427 63.857 42.7367 64.2328C42.7337 64.4207 42.7207 64.5899 42.6948 64.7322C42.6692 64.8732 42.6299 64.9939 42.5703 65.0805C42.1707 65.6613 42.1475 66.3418 42.1855 66.6049L42.1863 66.6105L42.1066 69.0201L42.1033 69.0296C42.0795 69.097 42.0997 69.3752 42.6267 69.6973C43.1254 70.0021 43.5618 69.801 43.7148 69.6676L43.7582 69.7078L43.8785 69.646C43.9196 69.7108 43.9634 69.744 44.0031 69.7603C44.0428 69.7766 44.0861 69.7791 44.1322 69.7706C44.2283 69.7528 44.3256 69.6891 44.3858 69.6323L44.4508 69.5708L44.5069 69.639C44.555 69.6974 44.6035 69.7287 44.648 69.7445C44.6925 69.7602 44.7382 69.7622 44.7839 69.7544C44.8781 69.7385 44.967 69.6816 45.0193 69.6323L45.0691 69.5852L45.1258 69.6254C45.2387 69.7054 45.3164 69.7318 45.3664 69.7368C45.4122 69.7414 45.4397 69.7284 45.4593 69.7126C45.4816 69.6945 45.4959 69.6704 45.5063 69.6508L45.508 69.6476C45.5099 69.6439 45.5122 69.6395 45.5141 69.6363L45.5155 69.6339C45.5168 69.6316 45.5186 69.6287 45.5208 69.6257C45.5224 69.6235 45.5252 69.6199 45.5291 69.6159C45.5324 69.6127 45.5407 69.6048 45.5543 69.5989C45.5703 69.5919 45.596 69.5871 45.6229 69.5983C45.6459 69.6079 45.6566 69.6239 45.6605 69.6306C45.6677 69.6431 45.6692 69.6549 45.6696 69.6576C45.6702 69.6619 45.6705 69.6668 45.6707 69.6712C45.6822 69.6767 45.7037 69.6826 45.7358 69.6865C45.796 69.6938 45.8703 69.6917 45.9253 69.6867C46.0539 69.6266 46.0989 69.5205 46.0983 69.3965C46.0977 69.2724 46.0502 69.141 46.0033 69.0535C45.0106 68.3202 44.708 67.2793 44.6808 66.8425L44.6806 66.8383L44.6809 66.834C44.7006 66.5543 44.7054 66.3676 44.7005 66.2395C44.6957 66.1108 44.6813 66.0459 44.6656 66.0072C44.6541 65.9786 44.6427 65.9641 44.6253 65.9419C44.6218 65.9375 44.6181 65.9327 44.614 65.9275C44.6112 65.9238 44.6081 65.9198 44.605 65.9155C44.5745 65.8745 44.5459 65.824 44.524 65.7311C44.4577 65.4491 44.4962 65.1467 44.524 65.0283L44.5248 65.0251L44.5259 65.0219C46.4618 59.4238 45.9473 54.7223 45.7906 53.9082C45.7257 53.5712 45.7129 52.772 45.7221 51.9185C45.7314 51.0616 45.7631 50.1406 45.7895 49.5541L45.7901 49.5416L45.7953 49.5301C46.5964 47.7643 46.7456 45.4734 46.6033 43.3209C46.4611 41.17 46.0285 39.1661 45.6734 37.9796L45.6692 37.9656L45.6714 37.9513C46.0183 35.717 45.6042 34.1726 45.3609 33.6888L45.3537 33.6744L45.3539 33.6587C45.3605 33.079 45.3684 32.1964 45.3707 31.4326C45.3718 31.0507 45.3716 30.6987 45.3691 30.4292C45.3665 30.1563 45.3616 29.975 45.3546 29.9284C45.3488 29.89 45.3549 29.8441 45.3656 29.7978C45.3767 29.75 45.3943 29.6951 45.4164 29.636C45.4606 29.5175 45.5246 29.3768 45.5963 29.2316C45.7398 28.9409 45.917 28.6269 46.0364 28.4264L46.1639 28.2122L46.1853 28.4544C46.3291 30.084 46.6577 30.9633 46.8379 31.267C46.8436 31.2767 46.8459 31.2864 46.8462 31.2876C46.847 31.2909 46.8477 31.2944 46.8482 31.2972C46.8492 31.3029 46.8502 31.3096 46.8512 31.3166C46.853 31.3308 46.855 31.3485 46.8568 31.3658C46.8585 31.3832 46.8601 31.4008 46.8611 31.4148C46.8613 31.4173 46.8614 31.4198 46.8616 31.4222C46.8619 31.4263 46.8621 31.4302 46.8622 31.4336C46.8623 31.4362 46.8624 31.439 46.8624 31.4418C46.8624 31.4431 46.8624 31.45 46.861 31.4572C46.8342 31.5904 46.8005 31.9501 46.7795 32.7633C46.7719 33.0583 46.8679 33.4903 47.034 34.0022C47.1994 34.5121 47.4321 35.0946 47.6926 35.6878C48.2137 36.8741 48.8443 38.0991 49.2659 38.8646L49.3663 39.0469L49.1863 38.9713C49.169 38.9919 49.1471 39.0302 49.1221 39.089C49.0721 39.2068 49.0188 39.3854 48.9661 39.605C48.8611 40.0432 48.7612 40.6332 48.6946 41.1995C48.6279 41.7669 48.5952 42.3052 48.6225 42.6416C48.6293 42.7254 48.6396 42.7946 48.6534 42.8476C48.6668 42.8991 48.6814 42.9271 48.6919 42.9396C48.7068 42.9317 48.7342 42.9095 48.7731 42.8584C49.3303 42.1274 49.472 41.0843 49.472 40.6543L49.6294 40.6422C49.8184 41.6244 49.997 42.4162 50.0634 42.6929C50.0673 42.7089 50.0657 42.7245 50.0604 42.7385C49.94 43.0547 49.908 43.594 49.9077 43.8311C49.9077 43.8433 49.9048 43.8546 49.9001 43.8645C49.5765 44.5473 49.5505 44.9843 49.5878 45.1904C50.7819 44.0148 51.2406 42.6205 51.3261 41.3489C51.4122 40.0699 51.1204 38.919 50.8239 38.2493L50.8199 38.2402L50.8188 38.2304C50.7263 37.4445 50.5936 36.2282 50.4959 35.1333C50.447 34.5859 50.4068 34.0684 50.3848 33.6499C50.363 33.2344 50.3585 32.9092 50.3836 32.7516C50.428 32.472 50.3262 32.0947 50.172 31.7277C50.019 31.3636 49.8198 31.0218 49.6831 30.8185C49.6707 30.8 49.6676 30.7785 49.6733 30.7586C49.9378 29.8296 49.8832 28.5332 49.7037 27.283C49.5302 26.0743 49.2414 24.9177 49.0203 24.1957H48.9968C48.9968 24.1668 48.9966 24.1377 48.9961 24.1086C48.9814 23.2876 48.7602 22.422 48.3811 21.7456C48.0003 21.0662 47.4709 20.595 46.8489 20.5258C46.1656 20.4499 45.3067 20.2041 44.5366 19.9178C43.7676 19.6319 43.076 19.3015 42.7304 19.0518C42.4426 18.8439 42.2812 18.5311 42.1946 18.2325C42.1077 17.9332 42.0933 17.6392 42.107 17.4578L42.1089 17.4334L42.127 17.4152C43.0618 16.4732 43.2411 15.405 43.2157 14.9978L43.2147 14.9824L43.221 14.968C43.5047 14.3129 43.5577 13.9222 43.5195 13.7022C43.5005 13.5934 43.4603 13.5317 43.4208 13.4981C43.382 13.4651 43.3384 13.4545 43.2995 13.4566L43.2113 13.4612L43.2157 13.3819C43.2939 11.963 42.8021 11.1362 42.1755 10.6743C41.5546 10.2167 40.7891 10.1082 40.2774 10.1512L40.2772 10.1532C40.2733 10.1529 40.2695 10.1525 40.2657 10.1522C40.2618 10.1525 40.258 10.1529 40.2542 10.1532L40.2539 10.1512Z" fill="#252525"/>
<path d="M38.3398 10.6746C38.9686 10.2167 39.742 10.1081 40.2539 10.1512L40.2542 10.1532L40.2657 10.1522L40.2772 10.1532L40.2774 10.1512C40.7891 10.1082 41.5546 10.2167 42.1755 10.6743C42.8021 11.1362 43.2939 11.963 43.2157 13.3819L43.2113 13.4612L43.2995 13.4566C43.3384 13.4545 43.382 13.4651 43.4208 13.4981C43.4603 13.5317 43.5005 13.5934 43.5195 13.7022C43.5577 13.9222 43.5047 14.3129 43.221 14.968L43.2147 14.9824L43.2157 14.9978C43.2411 15.405 43.0618 16.4732 42.127 17.4152L42.1089 17.4334L42.107 17.4578C42.0933 17.6392 42.1077 17.9332 42.1946 18.2325C42.2812 18.5311 42.4426 18.8439 42.7304 19.0518C43.076 19.3015 43.7676 19.6319 44.5366 19.9178C45.3067 20.2041 46.1656 20.4499 46.8489 20.5258C47.4709 20.595 48.0003 21.0662 48.3811 21.7456C48.7602 22.422 48.9814 23.2876 48.9961 24.1086C48.9966 24.1377 48.9968 24.1668 48.9968 24.1957H49.0203C49.2414 24.9177 49.5302 26.0743 49.7037 27.283C49.8832 28.5332 49.9378 29.8296 49.6733 30.7586C49.6676 30.7785 49.6707 30.8 49.6831 30.8185C49.8198 31.0218 50.019 31.3636 50.172 31.7277C50.3262 32.0947 50.428 32.472 50.3836 32.7516C50.3585 32.9092 50.363 33.2344 50.3848 33.6499C50.4068 34.0684 50.447 34.5859 50.4959 35.1333C50.5936 36.2282 50.7263 37.4445 50.8188 38.2304L50.8199 38.2402L50.8239 38.2493C51.1204 38.919 51.4122 40.0699 51.3261 41.3489C51.2406 42.6205 50.7819 44.0148 49.5878 45.1904C49.5505 44.9843 49.5765 44.5473 49.9001 43.8645C49.9048 43.8546 49.9077 43.8433 49.9077 43.8311C49.908 43.594 49.94 43.0547 50.0604 42.7385C50.0657 42.7245 50.0673 42.7089 50.0634 42.6929C49.997 42.4162 49.8184 41.6244 49.6294 40.6422L49.472 40.6543C49.472 41.0843 49.3303 42.1274 48.7731 42.8584C48.7342 42.9095 48.7068 42.9317 48.6919 42.9396C48.6814 42.9271 48.6668 42.8991 48.6534 42.8476C48.6396 42.7946 48.6293 42.7254 48.6225 42.6416C48.5952 42.3052 48.6279 41.7669 48.6946 41.1995C48.7612 40.6332 48.8611 40.0432 48.9661 39.605C49.0188 39.3854 49.0721 39.2068 49.1221 39.089C49.1471 39.0302 49.169 38.9919 49.1863 38.9713L49.3663 39.0469L49.2659 38.8646C48.8443 38.0991 48.2137 36.8741 47.6926 35.6878C47.4321 35.0946 47.1994 34.5121 47.034 34.0022C46.8679 33.4903 46.7719 33.0583 46.7795 32.7633C46.8005 31.9501 46.8342 31.5904 46.861 31.4572C46.8624 31.45 46.8624 31.4431 46.8624 31.4418C46.8624 31.439 46.8623 31.4362 46.8622 31.4336L46.8616 31.4222L46.8611 31.4148C46.8601 31.4008 46.8585 31.3832 46.8568 31.3658C46.855 31.3485 46.853 31.3308 46.8512 31.3166C46.8502 31.3096 46.8492 31.3029 46.8482 31.2972C46.8477 31.2944 46.847 31.2909 46.8462 31.2876C46.8459 31.2864 46.8436 31.2767 46.8379 31.267C46.6577 30.9633 46.3291 30.084 46.1853 28.4544L46.1639 28.2122L46.0364 28.4264C45.917 28.6269 45.7398 28.9409 45.5963 29.2316C45.5246 29.3768 45.4606 29.5175 45.4164 29.636C45.3943 29.6951 45.3767 29.75 45.3656 29.7978C45.3549 29.8441 45.3488 29.89 45.3546 29.9284C45.3616 29.975 45.3665 30.1563 45.3691 30.4292C45.3716 30.6987 45.3718 31.0507 45.3707 31.4326C45.3684 32.1964 45.3605 33.079 45.3539 33.6587L45.3537 33.6744L45.3609 33.6888C45.6042 34.1726 46.0183 35.717 45.6714 37.9513L45.6692 37.9656L45.6734 37.9796C46.0285 39.1661 46.4611 41.17 46.6033 43.3209C46.7456 45.4734 46.5964 47.7643 45.7953 49.5301L45.7901 49.5416L45.7895 49.5541C45.7631 50.1406 45.7314 51.0616 45.7221 51.9185C45.7129 52.772 45.7257 53.5712 45.7906 53.9082C45.9473 54.7223 46.4618 59.4238 44.5259 65.0219L44.5248 65.0251L44.524 65.0283C44.4962 65.1467 44.4577 65.4491 44.524 65.7311C44.5459 65.824 44.5745 65.8745 44.605 65.9155L44.614 65.9275L44.6253 65.9419C44.6427 65.9641 44.6541 65.9786 44.6656 66.0072C44.6813 66.0459 44.6957 66.1108 44.7005 66.2395C44.7054 66.3676 44.7006 66.5543 44.6809 66.834L44.6806 66.8383L44.6808 66.8425C44.708 67.2793 45.0106 68.3202 46.0033 69.0535C46.0502 69.141 46.0977 69.2724 46.0983 69.3965C46.0989 69.5205 46.0539 69.6266 45.9253 69.6867C45.8703 69.6917 45.796 69.6938 45.7358 69.6865C45.7037 69.6826 45.6822 69.6767 45.6707 69.6712C45.6705 69.6668 45.6702 69.6619 45.6696 69.6576C45.6692 69.6549 45.6677 69.6431 45.6605 69.6306C45.6566 69.6239 45.6459 69.6079 45.6229 69.5983C45.596 69.5871 45.5703 69.5919 45.5543 69.5989C45.5407 69.6048 45.5324 69.6127 45.5291 69.6159C45.5252 69.6199 45.5224 69.6235 45.5208 69.6257C45.5186 69.6287 45.5168 69.6316 45.5155 69.6339L45.5141 69.6363C45.5122 69.6395 45.5099 69.6439 45.508 69.6476L45.5063 69.6508C45.4959 69.6704 45.4816 69.6945 45.4593 69.7126C45.4397 69.7284 45.4122 69.7414 45.3664 69.7368C45.3164 69.7318 45.2387 69.7054 45.1258 69.6254L45.0691 69.5852L45.0193 69.6323C44.967 69.6816 44.8781 69.7385 44.7839 69.7544C44.7382 69.7622 44.6925 69.7602 44.648 69.7445C44.6035 69.7287 44.555 69.6974 44.5069 69.639L44.4508 69.5708L44.3858 69.6323C44.3256 69.6891 44.2283 69.7528 44.1322 69.7706C44.0861 69.7791 44.0428 69.7766 44.0031 69.7603C43.9634 69.744 43.9196 69.7108 43.8785 69.646L43.7582 69.7078L43.7148 69.6676C43.5618 69.801 43.1254 70.0021 42.6267 69.6973C42.0997 69.3752 42.0795 69.097 42.1033 69.0296L42.1066 69.0201L42.1863 66.6105L42.1855 66.6049C42.1475 66.3418 42.1707 65.6613 42.5703 65.0805C42.6299 64.9939 42.6692 64.8732 42.6948 64.7322C42.7207 64.5899 42.7337 64.4207 42.7367 64.2328C42.7427 63.857 42.7084 63.4003 42.652 62.9221C42.5392 61.9659 42.337 60.9169 42.1849 60.2421C42.081 59.6882 41.9487 57.6382 42.2652 53.9015L42.2661 53.8904L42.2632 53.8796C42.1591 53.4861 41.9326 52.274 41.8694 50.6019L41.8689 50.5899L41.8641 50.5786C41.526 49.7924 40.7423 47.1216 40.3296 42.756L40.3332 42.7176L40.3259 42.7171L40.3248 42.7057L40.25 42.7113L40.1752 42.7057L40.1741 42.7171L40.1668 42.7176L40.1704 42.756C39.7577 47.1216 38.974 49.7924 38.6359 50.5786L38.6311 50.5899L38.6306 50.6019C38.5674 52.274 38.3409 53.4861 38.2368 53.8796L38.2339 53.8904L38.2348 53.9015C38.5513 57.6382 38.419 59.6882 38.3151 60.2421C38.163 60.9169 37.9608 61.9659 37.848 62.9221C37.7916 63.4003 37.7573 63.857 37.7633 64.2328C37.7663 64.4207 37.7793 64.5899 37.8052 64.7322C37.8308 64.8732 37.8701 64.9939 37.9297 65.0805C38.3293 65.6613 38.3525 66.3418 38.3145 66.6049L38.3137 66.6105L38.3934 69.0201L38.3967 69.0296C38.4205 69.097 38.4003 69.3752 37.8733 69.6973C37.3746 70.0021 36.9381 69.801 36.7852 69.6676L36.7418 69.7078L36.6215 69.646C36.5804 69.7108 36.5366 69.744 36.4969 69.7603C36.4572 69.7766 36.4139 69.7791 36.3678 69.7706C36.2717 69.7528 36.1744 69.6891 36.1142 69.6323L36.0492 69.5708L35.9931 69.639C35.945 69.6974 35.8965 69.7287 35.852 69.7445C35.8074 69.7602 35.7618 69.7622 35.7161 69.7544C35.6219 69.7385 35.533 69.6816 35.4807 69.6323L35.4309 69.5852L35.3742 69.6254C35.2613 69.7054 35.1836 69.7318 35.1336 69.7368C35.0878 69.7414 35.0603 69.7284 35.0407 69.7126C35.0184 69.6945 35.0041 69.6704 34.9937 69.6508L34.992 69.6475C34.9901 69.6439 34.9878 69.6395 34.9859 69.6363C34.9847 69.6341 34.9823 69.63 34.9792 69.6257C34.9776 69.6235 34.9748 69.6199 34.9709 69.6159C34.9676 69.6127 34.9593 69.6048 34.9457 69.5989C34.9297 69.5919 34.904 69.5871 34.8771 69.5983C34.8541 69.6079 34.8434 69.6239 34.8395 69.6306C34.8323 69.6431 34.8307 69.6552 34.8304 69.6579C34.8299 69.6613 34.8296 69.6649 34.8295 69.6684L34.8293 69.6712C34.8177 69.6767 34.7963 69.6826 34.7642 69.6865C34.704 69.6938 34.6297 69.6917 34.5747 69.6867C34.4461 69.6266 34.4011 69.5205 34.4017 69.3965C34.4023 69.2724 34.4498 69.141 34.4967 69.0535C35.4894 68.3202 35.792 67.2793 35.8192 66.8425L35.8194 66.8383L35.8191 66.834C35.7994 66.5543 35.7946 66.3676 35.7995 66.2395C35.8043 66.1108 35.8187 66.0459 35.8344 66.0072C35.8459 65.9786 35.8573 65.9641 35.8747 65.942C35.8807 65.9343 35.8874 65.9258 35.895 65.9155C35.9255 65.8745 35.9541 65.824 35.976 65.7311C36.0423 65.4491 36.0038 65.1467 35.976 65.0283L35.9752 65.0251L35.9741 65.0219C34.0382 59.4238 34.5527 54.7223 34.7094 53.9082C34.7743 53.5712 34.7871 52.772 34.7779 51.9185C34.7686 51.0616 34.7369 50.1406 34.7105 49.5541L34.7099 49.5416L34.7047 49.5301C33.9036 47.7643 33.7544 45.4734 33.8967 43.3209C34.0389 41.17 34.4715 39.1661 34.8266 37.9796L34.8308 37.9656L34.8286 37.9513C34.4817 35.717 34.8958 34.1726 35.1391 33.6888L35.1463 33.6744L35.1461 33.6587C35.1395 33.079 35.1316 32.1964 35.1293 31.4326C35.1282 31.0507 35.1284 30.6987 35.1309 30.4292C35.1335 30.1563 35.1384 29.975 35.1454 29.9284C35.1512 29.89 35.1451 29.8441 35.1344 29.7978C35.1233 29.75 35.1057 29.6951 35.0836 29.6359C35.0394 29.5175 34.9754 29.3768 34.9037 29.2316C34.7601 28.9409 34.583 28.6269 34.4636 28.4264L34.3361 28.2122L34.3147 28.4544C34.1709 30.084 33.8423 30.9633 33.6621 31.267C33.6564 31.2767 33.6541 31.2864 33.6538 31.2877C33.653 31.291 33.6523 31.2944 33.6518 31.2972C33.6508 31.3028 33.6498 31.3096 33.6488 31.3166C33.647 31.3308 33.645 31.3485 33.6432 31.3658C33.6415 31.3832 33.6399 31.4008 33.6389 31.4148C33.6384 31.4218 33.638 31.4282 33.6378 31.4336C33.6377 31.4362 33.6376 31.4392 33.6376 31.442C33.6376 31.4433 33.6376 31.45 33.639 31.4572C33.6658 31.5904 33.6995 31.9501 33.7205 32.7633C33.7281 33.0583 33.6321 33.4903 33.466 34.0022C33.3006 34.5121 33.0679 35.0946 32.8074 35.6878C32.2863 36.8741 31.6557 38.0991 31.2341 38.8646L31.1337 39.0469L31.3137 38.9713C31.331 38.9919 31.3529 39.0302 31.3779 39.089C31.4279 39.2068 31.4812 39.3854 31.5339 39.605C31.6389 40.0432 31.7388 40.6332 31.8054 41.1995C31.8721 41.7669 31.9048 42.3052 31.8775 42.6416C31.8707 42.7254 31.8604 42.7946 31.8466 42.8476C31.8332 42.8991 31.8186 42.9271 31.8081 42.9396C31.7932 42.9317 31.7658 42.9095 31.7269 42.8584C31.1697 42.1273 31.028 41.0843 31.028 40.6543L30.8706 40.6422C30.6816 41.6244 30.503 42.4162 30.4366 42.6929C30.4327 42.7089 30.4343 42.7245 30.4396 42.7385C30.56 43.0547 30.592 43.594 30.5923 43.8311C30.5923 43.8433 30.5952 43.8546 30.5999 43.8645C30.9234 44.5473 30.9495 44.9843 30.9122 45.1904C29.7181 44.0148 29.2594 42.6204 29.1738 41.3489C29.0878 40.0699 29.3796 38.919 29.676 38.2493L29.6801 38.2402L29.6812 38.2304C29.7737 37.4445 29.9064 36.2282 30.0041 35.1333C30.053 34.5859 30.0932 34.0684 30.1152 33.6499C30.137 33.2344 30.1415 32.9092 30.1164 32.7516C30.0719 32.4714 30.1742 32.0932 30.3289 31.7255C30.4824 31.3608 30.6821 31.0187 30.8185 30.8161L30.8358 30.7904L30.8275 30.7614C30.5622 29.8327 30.6165 28.5357 30.796 27.2849C30.9695 26.0755 31.2585 24.9181 31.4797 24.1957H31.5032C31.5032 24.1668 31.5034 24.1377 31.5039 24.1086C31.5186 23.2876 31.7398 22.422 32.1189 21.7456C32.4997 21.0662 33.0291 20.595 33.6511 20.5258C34.3344 20.4499 35.1933 20.2041 35.9634 19.9178C36.7324 19.6319 37.424 19.3015 37.7696 19.0518C38.0574 18.8439 38.2188 18.5311 38.3054 18.2325C38.3923 17.9332 38.4067 17.6392 38.393 17.4578L38.3911 17.4334L38.373 17.4152C37.4382 16.4732 37.2589 15.405 37.2843 14.9978L37.2853 14.9824L37.279 14.968C36.9953 14.3129 36.9423 13.9222 36.9805 13.7022C36.9995 13.5934 37.0397 13.5317 37.0792 13.4981C37.118 13.4651 37.1616 13.4545 37.2005 13.4566L37.2887 13.4612L37.2843 13.3819C37.2061 11.9634 37.7054 11.1366 38.3398 10.6746Z" fill="#252525"/>
</g>
<defs>
<filter id="filter0_d_298_2502" x="0" y="0" width="80" height="80" filterUnits="userSpaceOnUse" color-interpolation-filters="sRGB">
<feFlood flood-opacity="0" result="BackgroundImageFix"/>
<feColorMatrix in="SourceAlpha" type="matrix" values="0 0 0 0 0 0 0 0 0 0 0 0 0 0 0 0 0 0 127 0" result="hardAlpha"/>
<feOffset/>
<feGaussianBlur stdDeviation="2"/>
<feComposite in2="hardAlpha" operator="out"/>
<feColorMatrix type="matrix" values="0 0 0 0 0 0 0 0 0 0 0 0 0 0 0 0 0 0 0.25 0"/>
<feBlend mode="normal" in2="BackgroundImageFix" result="effect1_dropShadow_298_2502"/>
<feBlend mode="normal" in="SourceGraphic" in2="effect1_dropShadow_298_2502" result="shape"/>
</filter>
</defs>
</svg>
