<svg width="23" height="60" viewBox="0 0 23 60" fill="none" xmlns="http://www.w3.org/2000/svg">
<path fill-rule="evenodd" clip-rule="evenodd" d="M11.2657 0.00900339C10.7211 -0.036062 9.90592 0.0788442 9.24003 0.563812C8.56939 1.05223 8.06201 1.9072 8.12262 3.3206C8.06969 3.33124 8.01696 3.35482 7.97027 3.39452C7.89839 3.45563 7.84657 3.54985 7.82391 3.68017C7.77934 3.93647 7.84383 4.35206 8.12513 5.00546C8.10323 5.45327 8.29759 6.53414 9.23638 7.49148C9.24609 7.66096 9.23034 7.92665 9.15204 8.1965C9.06973 8.48019 8.92091 8.75966 8.67027 8.94072C8.34272 9.17733 7.66816 9.50154 6.90278 9.78608C6.13845 10.0702 5.29462 10.3107 4.63163 10.3844C3.93074 10.4623 3.36671 10.9867 2.97731 11.6815C2.58766 12.3767 2.36211 13.2599 2.3456 14.0971C2.12045 14.8201 1.81824 16.0155 1.63875 17.2666C1.46066 18.508 1.40191 19.8138 1.6658 20.7679C1.526 20.9791 1.33173 21.3159 1.18063 21.6751C1.02449 22.0462 0.908961 22.4535 0.9595 22.7717C0.981989 22.9134 0.978849 23.2241 0.956813 23.6432C0.934928 24.0594 0.894912 24.5752 0.846105 25.1219C0.748901 26.2108 0.617008 27.4203 0.524711 28.2057C0.221635 28.8948 -0.0715997 30.062 0.0156013 31.3575C0.103256 32.6598 0.575733 34.0958 1.81389 35.3049C1.85003 35.3402 1.90233 35.3562 1.95233 35.3475C2.00455 35.3385 2.04843 35.3032 2.06093 35.2505C2.11549 35.0207 2.09343 34.5465 1.75076 33.8192C1.74954 33.5786 1.71808 33.0436 1.59523 32.7075C1.65116 32.4733 1.77555 31.9226 1.91867 31.2146C1.9991 31.7294 2.19207 32.4089 2.59609 32.939C2.64224 32.9995 2.69127 33.0482 2.74543 33.0708C2.77473 33.0831 2.80845 33.0889 2.84354 33.0816C2.87821 33.0745 2.90511 33.0565 2.92506 33.036C2.96247 32.9976 2.98529 32.9404 3.00099 32.88C3.01735 32.817 3.02854 32.7397 3.03566 32.652C3.06404 32.3022 3.02995 31.7534 2.96304 31.1845C2.89601 30.6146 2.79539 30.0194 2.68885 29.575C2.63572 29.3534 2.58042 29.1664 2.52602 29.0382C2.49923 28.9751 2.47037 28.9207 2.43852 28.8834C2.43145 28.8751 2.42335 28.8666 2.41412 28.8587C2.83646 28.0873 3.44722 26.8958 3.95481 25.7401C4.21631 25.1447 4.45088 24.5578 4.61821 24.0421C4.7849 23.5284 4.88722 23.0785 4.87899 22.76C4.85833 21.9597 4.82527 21.588 4.79624 21.438C4.79627 21.4373 4.7963 21.4366 4.79635 21.4358C4.79651 21.4327 4.79676 21.4288 4.7971 21.4241C4.79802 21.4116 4.79947 21.3952 4.80113 21.3786C4.80279 21.362 4.80461 21.3458 4.80625 21.3336C4.80671 21.3301 4.80713 21.3272 4.80751 21.3248C4.99303 21.0059 5.29641 20.1795 5.4493 18.7097C5.54881 18.8849 5.66175 19.0928 5.75882 19.2894C5.82965 19.4328 5.89139 19.5689 5.93331 19.6813C5.95429 19.7375 5.96984 19.7866 5.97918 19.8269C5.98888 19.8687 5.99043 19.8953 5.98833 19.9092C5.97954 19.9673 5.97488 20.161 5.97239 20.428C5.96987 20.6983 5.96962 21.0509 5.97078 21.433C5.97307 22.1905 5.98087 23.0645 5.98743 23.6446C5.72929 24.1718 5.32653 25.7306 5.66936 27.9566C5.3125 29.1533 4.88078 31.1595 4.73844 33.3125C4.59595 35.4676 4.74278 37.7786 5.55265 39.5723C5.57892 40.1583 5.61019 41.0708 5.61935 41.9199C5.62862 42.7783 5.61504 43.5626 5.55319 43.8839C5.39313 44.7155 4.87823 49.4387 6.82161 55.061C6.8465 55.1693 6.88064 55.4475 6.82087 55.7016C6.80312 55.7771 6.78226 55.8107 6.76321 55.8363C6.75942 55.8414 6.7551 55.8469 6.7504 55.8528C6.73078 55.8775 6.70477 55.9103 6.68531 55.9586C6.66133 56.018 6.64607 56.1004 6.64101 56.2347C6.63596 56.3689 6.64101 56.5597 6.66062 56.8387C6.63342 57.2505 6.34069 58.2526 5.38329 58.9528L5.37024 58.9623L5.36263 58.9758C5.30622 59.0757 5.2439 59.2365 5.24317 59.3959C5.24243 59.5581 5.30699 59.7299 5.51794 59.8205L5.52983 59.8256L5.54291 59.827C5.60588 59.8336 5.70221 59.8379 5.78548 59.8278C5.82634 59.8228 5.87135 59.8135 5.90835 59.7948C5.91615 59.8029 5.92511 59.8108 5.93463 59.8185C5.98435 59.8588 6.05584 59.8879 6.15107 59.8785C6.22857 59.8708 6.31638 59.838 6.41759 59.7741C6.4856 59.8254 6.58001 59.8764 6.68673 59.8945C6.75692 59.9064 6.83348 59.9042 6.90998 59.8771C6.9641 59.858 7.01557 59.8274 7.06328 59.7841C7.13508 59.8379 7.2311 59.8908 7.33586 59.9102C7.40784 59.9235 7.48637 59.9213 7.56264 59.89C7.61362 59.8691 7.66021 59.8366 7.7016 59.792C7.91049 59.955 8.40939 60.1532 8.96247 59.8151C9.50071 59.4861 9.59913 59.1581 9.5512 58.9969L9.47249 56.6176C9.51255 56.3283 9.48574 55.6177 9.06451 55.0056C9.02114 54.9425 8.98608 54.8435 8.96165 54.7092C8.93748 54.5763 8.92472 54.4146 8.9218 54.2308C8.91597 53.8631 8.94953 53.4128 9.00564 52.9371C9.11782 51.9861 9.3193 50.9411 9.47076 50.2692L9.47102 50.2681L9.47123 50.267C9.57839 49.6976 9.70955 47.6366 9.39385 43.9017C9.50179 43.4875 9.72506 42.2773 9.78862 40.6187C10.1157 39.8508 10.8242 37.4375 11.25 33.5382C11.6758 37.4375 12.3843 39.8508 12.7114 40.6187C12.7749 42.2773 12.9982 43.4875 13.1061 43.9017C12.7904 47.6366 12.9216 49.6976 13.0288 50.267L13.029 50.2681L13.0292 50.2692C13.1807 50.9411 13.3822 51.9861 13.4944 52.9371C13.5505 53.4128 13.584 53.8631 13.5782 54.2308C13.5753 54.4146 13.5625 54.5763 13.5383 54.7092C13.5139 54.8435 13.4789 54.9425 13.4355 55.0056C13.0143 55.6177 12.9874 56.3283 13.0275 56.6176L12.9488 58.9969C12.9009 59.1581 12.9993 59.4861 13.5375 59.8151C14.0906 60.1532 14.5895 59.955 14.7984 59.792C14.8398 59.8366 14.8864 59.8691 14.9374 59.89C15.0136 59.9213 15.0922 59.9235 15.1641 59.9102C15.2689 59.8908 15.3649 59.8379 15.4367 59.7841C15.4844 59.8274 15.5359 59.858 15.59 59.8771C15.6665 59.9042 15.7431 59.9064 15.8133 59.8945C15.92 59.8764 16.0144 59.8254 16.0824 59.7741C16.1836 59.838 16.2714 59.8708 16.3489 59.8785C16.4442 59.8879 16.5156 59.8588 16.5654 59.8185C16.5749 59.8108 16.5835 59.8028 16.5913 59.7947C16.6283 59.8134 16.6737 59.8228 16.7145 59.8278C16.7978 59.8379 16.8941 59.8336 16.9571 59.827L16.9702 59.8256L16.9821 59.8205C17.193 59.7299 17.2576 59.5581 17.2568 59.3959C17.2561 59.2365 17.1938 59.0757 17.1374 58.9758L17.1298 58.9623L17.1167 58.9528C16.1593 58.2526 15.8666 57.2505 15.8394 56.8387C15.859 56.5597 15.864 56.3689 15.859 56.2347C15.8539 56.1004 15.8387 56.018 15.8147 55.9586C15.7952 55.9103 15.7692 55.8775 15.7496 55.8528C15.7476 55.8503 15.7458 55.848 15.744 55.8457C15.7414 55.8424 15.739 55.8393 15.7368 55.8363C15.7177 55.8107 15.6969 55.7771 15.6791 55.7016C15.6194 55.4475 15.6535 55.1693 15.6784 55.061C17.6218 49.4387 17.1069 44.7155 16.9468 43.8839C16.885 43.5626 16.8714 42.7783 16.8806 41.9199C16.8898 41.0708 16.9211 40.1583 16.9473 39.5723C17.7572 37.7786 17.904 35.4676 17.7616 33.3125C17.6192 31.1595 17.1875 29.1533 16.8306 27.9566C17.1735 25.7306 16.7707 24.1718 16.5126 23.6446C16.5191 23.0645 16.5269 22.1905 16.5292 21.433C16.5304 21.0509 16.5301 20.6983 16.5276 20.428C16.5251 20.161 16.5205 19.9673 16.5117 19.9092C16.5096 19.8953 16.5111 19.8687 16.5208 19.8269C16.5302 19.7866 16.5457 19.7375 16.5667 19.6813C16.6086 19.5689 16.6703 19.4328 16.7412 19.2894C16.8383 19.0928 16.9512 18.8849 17.0507 18.7097C17.2036 20.1795 17.507 21.0059 17.6925 21.3248C17.6929 21.3272 17.6933 21.3301 17.6938 21.3336C17.6954 21.3458 17.6972 21.362 17.6989 21.3786C17.6999 21.3892 17.7009 21.3997 17.7017 21.4092C17.7022 21.4145 17.7026 21.4196 17.7029 21.4241C17.7033 21.43 17.7036 21.4347 17.7038 21.438C17.6747 21.588 17.6417 21.9597 17.621 22.76C17.6128 23.0785 17.7151 23.5284 17.8818 24.0421C18.0491 24.5578 18.2837 25.1447 18.5452 25.7401C19.0528 26.8958 19.6635 28.0873 20.0859 28.8587C20.0766 28.8666 20.0686 28.8751 20.0615 28.8834C20.0296 28.9207 20.0008 28.9751 19.974 29.0382C19.9196 29.1664 19.8643 29.3534 19.8111 29.575C19.7046 30.0194 19.604 30.6146 19.537 31.1846C19.4701 31.7534 19.436 32.3022 19.4643 32.652C19.4715 32.7397 19.4827 32.817 19.499 32.88C19.5147 32.9405 19.5375 32.9976 19.5749 33.036C19.5949 33.0565 19.6218 33.0745 19.6565 33.0817C19.6915 33.0889 19.7253 33.0831 19.7546 33.0708C19.8087 33.0482 19.8578 32.9995 19.9039 32.939C20.3079 32.4089 20.5009 31.7294 20.5813 31.2146C20.7244 31.9226 20.8488 32.4733 20.9048 32.7075C20.7819 33.0436 20.7505 33.5786 20.7492 33.8192C20.4066 34.5465 20.3845 35.0207 20.4391 35.2505C20.4516 35.3032 20.4955 35.3385 20.5477 35.3475C20.5977 35.3562 20.65 35.3402 20.6861 35.3049C21.9243 34.0958 22.3967 32.6598 22.4844 31.3575C22.5716 30.062 22.2784 28.8948 21.9753 28.2057C21.883 27.4203 21.7511 26.2108 21.6539 25.1219C21.6051 24.5752 21.5651 24.0594 21.5432 23.6432C21.5211 23.2241 21.518 22.9134 21.5405 22.7717C21.5909 22.4541 21.476 22.0478 21.3203 21.6773C21.1691 21.3173 20.9743 20.9795 20.8342 20.7679C21.0982 19.8133 21.0393 18.5067 20.861 17.2647C20.6815 16.0143 20.3794 14.8198 20.1544 14.0971C20.1379 13.2599 19.9123 12.3767 19.5227 11.6815C19.1333 10.9867 18.5693 10.4623 17.8684 10.3844C17.2054 10.3107 16.3615 10.0702 15.5972 9.78608C14.8318 9.50154 14.1573 9.17734 13.8297 8.94072C13.5791 8.75966 13.4303 8.48019 13.348 8.1965C13.2697 7.92665 13.2539 7.66096 13.2636 7.49148C14.2024 6.53415 14.3968 5.45327 14.3749 5.00547C14.6562 4.35207 14.7207 3.93647 14.6761 3.68018C14.6534 3.54985 14.6016 3.45563 14.5297 3.39452C14.483 3.35483 14.4303 3.33125 14.3774 3.3206C14.4382 1.90758 13.9389 1.05265 13.276 0.564078C12.6177 0.0788601 11.81 -0.0360659 11.2657 0.00900339ZM11.2539 0.15117C10.742 0.108149 9.96855 0.216665 9.33982 0.674568C8.70543 1.13659 8.20611 1.96336 8.28432 3.38188L8.28869 3.46119L8.20052 3.45656C8.16156 3.45451 8.11801 3.46509 8.07919 3.49809C8.0397 3.53166 7.99945 3.59344 7.98054 3.70219C7.94228 3.92221 7.99532 4.31289 8.27901 4.96798L8.28525 4.98238L8.28429 4.99782C8.25893 5.40503 8.43816 6.47319 9.37303 7.41518L9.39112 7.43342L9.39296 7.4578C9.40668 7.63923 9.39229 7.93316 9.30545 8.23248C9.21881 8.53108 9.05745 8.84387 8.76956 9.05183C8.42395 9.30149 7.7324 9.6319 6.96336 9.9178C6.19328 10.2041 5.33441 10.4499 4.65108 10.5258C4.02912 10.595 3.49968 11.0662 3.11888 11.7456C2.73977 12.422 2.51863 13.2876 2.50394 14.1086C2.50342 14.1377 2.50316 14.1668 2.50316 14.1957H2.47969C2.25851 14.9181 1.96948 16.0755 1.79599 17.2849C1.61654 18.5357 1.5622 19.8327 1.82751 20.7614L1.8358 20.7904L1.81853 20.8161C1.68206 21.0187 1.48238 21.3608 1.32891 21.7255C1.17421 22.0932 1.07195 22.4714 1.11644 22.7516C1.14147 22.9092 1.13702 23.2344 1.11517 23.6499C1.09317 24.0684 1.053 24.5859 1.00413 25.1333C0.90639 26.2282 0.773668 27.4445 0.681227 28.2304L0.680079 28.2402L0.676047 28.2493C0.379573 28.919 0.0877605 30.0699 0.173848 31.3489C0.259431 32.6204 0.718098 34.0148 1.9122 35.1904C1.94946 34.9843 1.92345 34.5473 1.5999 33.8645C1.59522 33.8546 1.59228 33.8433 1.59227 33.8311C1.59202 33.594 1.55999 33.0547 1.43957 32.7385C1.43426 32.7245 1.43271 32.7089 1.43656 32.6929C1.50302 32.4162 1.68157 31.6244 1.87061 30.6422L2.02799 30.6543C2.02799 31.0843 2.16966 32.1273 2.72686 32.8584C2.7658 32.9095 2.79322 32.9317 2.80808 32.9396C2.8186 32.9271 2.83322 32.8991 2.84661 32.8476C2.86036 32.7946 2.87074 32.7254 2.87754 32.6416C2.90484 32.3052 2.87212 31.7669 2.80538 31.1995C2.73878 30.6332 2.63893 30.0432 2.53387 29.605C2.4812 29.3854 2.42791 29.2068 2.37791 29.089C2.35293 29.0302 2.33096 28.9919 2.3137 28.9713L2.13367 29.0469L2.23406 28.8646C2.6557 28.0991 3.28632 26.8741 3.80735 25.6878C4.06789 25.0946 4.30057 24.5121 4.46602 24.0022C4.63212 23.4903 4.72812 23.0583 4.7205 22.7633C4.6995 21.9501 4.66579 21.5904 4.63902 21.4572C4.63758 21.45 4.63759 21.4433 4.63759 21.442C4.63758 21.4392 4.63767 21.4362 4.63777 21.4336C4.63799 21.4282 4.6384 21.4218 4.6389 21.4148C4.63993 21.4008 4.64149 21.3832 4.64323 21.3658C4.64497 21.3485 4.64695 21.3308 4.64884 21.3166C4.64977 21.3096 4.65077 21.3028 4.6518 21.2972C4.65231 21.2944 4.65296 21.291 4.6538 21.2877C4.6541 21.2864 4.65638 21.2767 4.66213 21.267C4.8423 20.9633 5.17094 20.084 5.31469 18.4544L5.33606 18.2122L5.4636 18.4264C5.58301 18.6269 5.76015 18.9409 5.90372 19.2316C5.97544 19.3768 6.03942 19.5175 6.08362 19.6359C6.1057 19.6951 6.12331 19.75 6.13439 19.7978C6.14512 19.8441 6.15123 19.89 6.14542 19.9284C6.13837 19.975 6.13346 20.1563 6.13092 20.4292C6.12841 20.6987 6.12816 21.0507 6.12931 21.4326C6.13162 22.1964 6.13954 23.079 6.14614 23.6587L6.14632 23.6744L6.1391 23.6888C5.89583 24.1726 5.48171 25.717 5.8286 27.9513L5.83083 27.9656L5.82664 27.9796C5.47154 29.1661 5.0389 31.17 4.8967 33.3209C4.75439 35.4734 4.9036 37.7643 5.7047 39.5301L5.70994 39.5416L5.7105 39.5541C5.73692 40.1406 5.76863 41.0616 5.77788 41.9185C5.78709 42.772 5.77427 43.5712 5.70941 43.9082C5.55272 44.7223 5.03825 49.4238 6.97412 55.0219L6.97521 55.0251L6.97598 55.0283C7.00383 55.1467 7.04233 55.4491 6.97598 55.7311C6.95413 55.824 6.92549 55.8745 6.89505 55.9155C6.88739 55.9258 6.88069 55.9343 6.87469 55.942C6.8573 55.9641 6.84587 55.9786 6.83435 56.0072C6.81873 56.0459 6.8043 56.1108 6.79946 56.2395C6.79463 56.3676 6.7994 56.5543 6.81914 56.834L6.81944 56.8383L6.81918 56.8425C6.79198 57.2793 6.48944 58.3202 5.49675 59.0535C5.44979 59.141 5.40227 59.2724 5.4017 59.3965C5.40114 59.5205 5.44608 59.6266 5.57473 59.6867C5.62971 59.6917 5.70404 59.6938 5.7642 59.6865C5.79634 59.6826 5.81775 59.6767 5.82935 59.6712L5.82946 59.6684C5.82962 59.6649 5.8299 59.6613 5.83037 59.6579C5.83073 59.6552 5.83234 59.6431 5.83953 59.6306C5.84343 59.6239 5.85413 59.6079 5.87706 59.5983C5.90402 59.5871 5.92974 59.5919 5.9457 59.5989C5.95926 59.6048 5.96761 59.6127 5.97087 59.6159C5.97484 59.6199 5.97763 59.6235 5.9792 59.6257C5.98232 59.63 5.98467 59.6341 5.98592 59.6363C5.98775 59.6395 5.99008 59.6439 5.99198 59.6475L5.99367 59.6508C6.00406 59.6704 6.01839 59.6945 6.04073 59.7126C6.0603 59.7284 6.08781 59.7414 6.13364 59.7368C6.18357 59.7318 6.2613 59.7054 6.37419 59.6254L6.4309 59.5852L6.48067 59.6323C6.53295 59.6816 6.62187 59.7385 6.71611 59.7544C6.76175 59.7622 6.80745 59.7602 6.85197 59.7445C6.89646 59.7287 6.945 59.6974 6.9931 59.639L7.04921 59.5708L7.11423 59.6323C7.17441 59.6891 7.27166 59.7528 7.36777 59.7706C7.41393 59.7791 7.45716 59.7766 7.49688 59.7603C7.53662 59.744 7.58039 59.7108 7.62154 59.646L7.74183 59.7078L7.78516 59.6676C7.93815 59.801 8.37465 60.0021 8.87334 59.6973C9.4003 59.3752 9.42048 59.097 9.39671 59.0296L9.39337 59.0201L9.31365 56.6105L9.31447 56.6049C9.35245 56.3418 9.32929 55.6613 8.92969 55.0805C8.8701 54.9939 8.83084 54.8732 8.8052 54.7322C8.77931 54.5899 8.76626 54.4207 8.76328 54.2328C8.75732 53.857 8.79158 53.4003 8.84799 52.9221C8.96078 51.9659 9.16304 50.9169 9.31513 50.2421C9.41902 49.6882 9.55129 47.6382 9.23484 43.9015L9.2339 43.8904L9.23676 43.8796C9.3409 43.4861 9.56742 42.274 9.63063 40.6019L9.63109 40.5899L9.63592 40.5786C9.97403 39.7924 10.7577 37.1216 11.1704 32.756C11.1692 32.7432 11.168 32.7304 11.1668 32.7176L11.1741 32.7171C11.1745 32.7133 11.1748 32.7095 11.1752 32.7057L11.25 32.7113L11.3248 32.7057C11.3252 32.7095 11.3255 32.7133 11.3259 32.7171L11.3332 32.7176C11.332 32.7304 11.3308 32.7432 11.3296 32.756C11.7423 37.1216 12.526 39.7924 12.8641 40.5786L12.8689 40.5899L12.8694 40.6019C12.9326 42.274 13.1591 43.4861 13.2632 43.8796L13.2661 43.8904L13.2652 43.9015C12.9487 47.6382 13.081 49.6882 13.1849 50.2421C13.337 50.9169 13.5392 51.9659 13.652 52.9221C13.7084 53.4003 13.7427 53.857 13.7367 54.2328C13.7337 54.4207 13.7207 54.5899 13.6948 54.7322C13.6692 54.8732 13.6299 54.9939 13.5703 55.0805C13.1707 55.6613 13.1475 56.3418 13.1855 56.6049L13.1863 56.6105L13.1066 59.0201L13.1033 59.0296C13.0795 59.097 13.0997 59.3752 13.6267 59.6973C14.1254 60.0021 14.5618 59.801 14.7148 59.6676L14.7582 59.7078L14.8785 59.646C14.9196 59.7108 14.9634 59.744 15.0031 59.7603C15.0428 59.7766 15.0861 59.7791 15.1322 59.7706C15.2283 59.7528 15.3256 59.6891 15.3858 59.6323L15.4508 59.5708L15.5069 59.639C15.555 59.6974 15.6035 59.7287 15.648 59.7445C15.6925 59.7602 15.7382 59.7622 15.7839 59.7544C15.8781 59.7385 15.967 59.6816 16.0193 59.6323L16.0691 59.5852L16.1258 59.6254C16.2387 59.7054 16.3164 59.7318 16.3664 59.7368C16.4122 59.7414 16.4397 59.7284 16.4593 59.7126C16.4816 59.6945 16.4959 59.6704 16.5063 59.6508L16.508 59.6476C16.5099 59.6439 16.5122 59.6395 16.5141 59.6363L16.5155 59.6339C16.5168 59.6316 16.5186 59.6287 16.5208 59.6257C16.5224 59.6235 16.5252 59.6199 16.5291 59.6159C16.5324 59.6127 16.5407 59.6048 16.5543 59.5989C16.5703 59.5919 16.596 59.5871 16.6229 59.5983C16.6459 59.6079 16.6566 59.6239 16.6605 59.6306C16.6677 59.6431 16.6692 59.6549 16.6696 59.6576C16.6702 59.6619 16.6705 59.6668 16.6707 59.6712C16.6822 59.6767 16.7037 59.6826 16.7358 59.6865C16.796 59.6938 16.8703 59.6917 16.9253 59.6867C17.0539 59.6266 17.0989 59.5205 17.0983 59.3965C17.0977 59.2724 17.0502 59.141 17.0033 59.0535C16.0106 58.3202 15.708 57.2793 15.6808 56.8425L15.6806 56.8383L15.6809 56.834C15.7006 56.5543 15.7054 56.3676 15.7005 56.2395C15.6957 56.1108 15.6813 56.0459 15.6656 56.0072C15.6541 55.9786 15.6427 55.9641 15.6253 55.9419C15.6218 55.9375 15.6181 55.9327 15.614 55.9275C15.6112 55.9238 15.6081 55.9198 15.605 55.9155C15.5745 55.8745 15.5459 55.824 15.524 55.7311C15.4577 55.4491 15.4962 55.1467 15.524 55.0283L15.5248 55.0251L15.5259 55.0219C17.4618 49.4238 16.9473 44.7223 16.7906 43.9082C16.7257 43.5712 16.7129 42.772 16.7221 41.9185C16.7314 41.0616 16.7631 40.1406 16.7895 39.5541L16.7901 39.5416L16.7953 39.5301C17.5964 37.7643 17.7456 35.4734 17.6033 33.3209C17.4611 31.17 17.0285 29.1661 16.6734 27.9796L16.6692 27.9656L16.6714 27.9513C17.0183 25.717 16.6042 24.1726 16.3609 23.6888L16.3537 23.6744L16.3539 23.6587C16.3605 23.079 16.3684 22.1964 16.3707 21.4326C16.3718 21.0507 16.3716 20.6987 16.3691 20.4292C16.3665 20.1563 16.3616 19.975 16.3546 19.9284C16.3488 19.89 16.3549 19.8441 16.3656 19.7978C16.3767 19.75 16.3943 19.6951 16.4164 19.636C16.4606 19.5175 16.5246 19.3768 16.5963 19.2316C16.7398 18.9409 16.917 18.6269 17.0364 18.4264L17.1639 18.2122L17.1853 18.4544C17.3291 20.084 17.6577 20.9633 17.8379 21.267C17.8436 21.2767 17.8459 21.2864 17.8462 21.2876C17.847 21.2909 17.8477 21.2944 17.8482 21.2972C17.8492 21.3029 17.8502 21.3096 17.8512 21.3166C17.853 21.3308 17.855 21.3485 17.8568 21.3658C17.8585 21.3832 17.8601 21.4008 17.8611 21.4148C17.8613 21.4173 17.8614 21.4198 17.8616 21.4222C17.8619 21.4263 17.8621 21.4302 17.8622 21.4336C17.8623 21.4362 17.8624 21.439 17.8624 21.4418C17.8624 21.4431 17.8624 21.45 17.861 21.4572C17.8342 21.5904 17.8005 21.9501 17.7795 22.7633C17.7719 23.0583 17.8679 23.4903 18.034 24.0022C18.1994 24.5121 18.4321 25.0946 18.6926 25.6878C19.2137 26.8741 19.8443 28.0991 20.2659 28.8646L20.3663 29.0469L20.1863 28.9713C20.169 28.9919 20.1471 29.0302 20.1221 29.089C20.0721 29.2068 20.0188 29.3854 19.9661 29.605C19.8611 30.0432 19.7612 30.6332 19.6946 31.1995C19.6279 31.7669 19.5952 32.3052 19.6225 32.6416C19.6293 32.7254 19.6396 32.7946 19.6534 32.8476C19.6668 32.8991 19.6814 32.9271 19.6919 32.9396C19.7068 32.9317 19.7342 32.9095 19.7731 32.8584C20.3303 32.1274 20.472 31.0843 20.472 30.6543L20.6294 30.6422C20.8184 31.6244 20.997 32.4162 21.0634 32.6929C21.0673 32.7089 21.0657 32.7245 21.0604 32.7385C20.94 33.0547 20.908 33.594 20.9077 33.8311C20.9077 33.8433 20.9048 33.8546 20.9001 33.8645C20.5765 34.5473 20.5505 34.9843 20.5878 35.1904C21.7819 34.0148 22.2406 32.6205 22.3261 31.3489C22.4122 30.0699 22.1204 28.919 21.8239 28.2493L21.8199 28.2402L21.8188 28.2304C21.7263 27.4445 21.5936 26.2282 21.4959 25.1333C21.447 24.5859 21.4068 24.0684 21.3848 23.6499C21.363 23.2344 21.3585 22.9092 21.3836 22.7516C21.428 22.472 21.3262 22.0947 21.172 21.7277C21.019 21.3636 20.8198 21.0218 20.6831 20.8185C20.6707 20.8 20.6676 20.7785 20.6733 20.7586C20.9378 19.8296 20.8832 18.5332 20.7037 17.283C20.5302 16.0743 20.2414 14.9177 20.0203 14.1957H19.9968C19.9968 14.1668 19.9966 14.1377 19.9961 14.1086C19.9814 13.2876 19.7602 12.422 19.3811 11.7456C19.0003 11.0662 18.4709 10.595 17.8489 10.5258C17.1656 10.4499 16.3067 10.2041 15.5366 9.9178C14.7676 9.6319 14.076 9.3015 13.7304 9.05183C13.4426 8.84387 13.2812 8.53108 13.1946 8.23248C13.1077 7.93316 13.0933 7.63924 13.107 7.4578L13.1089 7.43342L13.127 7.41519C14.0618 6.47319 14.2411 5.40504 14.2157 4.99782L14.2147 4.98239L14.221 4.96798C14.5047 4.31289 14.5577 3.92221 14.5195 3.7022C14.5005 3.59344 14.4603 3.53166 14.4208 3.49809C14.382 3.46509 14.3384 3.45451 14.2995 3.45656L14.2113 3.46119L14.2157 3.38188C14.2939 1.96297 13.8021 1.13617 13.1755 0.674305C12.5546 0.216652 11.7891 0.108153 11.2774 0.151169L11.2772 0.153244C11.2733 0.152883 11.2695 0.152531 11.2657 0.152187C11.2618 0.152531 11.258 0.152883 11.2542 0.153244L11.2539 0.15117Z" fill="#252525"/>
<path d="M9.33982 0.674568C9.96855 0.216665 10.742 0.108149 11.2539 0.15117L11.2542 0.153244L11.2657 0.152187L11.2772 0.153244L11.2774 0.151169C11.7891 0.108153 12.5546 0.216652 13.1755 0.674305C13.8021 1.13617 14.2939 1.96297 14.2157 3.38188L14.2113 3.46119L14.2995 3.45656C14.3384 3.45451 14.382 3.46509 14.4208 3.49809C14.4603 3.53166 14.5005 3.59344 14.5195 3.7022C14.5577 3.92221 14.5047 4.31289 14.221 4.96798L14.2147 4.98239L14.2157 4.99782C14.2411 5.40504 14.0618 6.47319 13.127 7.41519L13.1089 7.43342L13.107 7.4578C13.0933 7.63924 13.1077 7.93316 13.1946 8.23248C13.2812 8.53108 13.4426 8.84387 13.7304 9.05183C14.076 9.3015 14.7676 9.6319 15.5366 9.9178C16.3067 10.2041 17.1656 10.4499 17.8489 10.5258C18.4709 10.595 19.0003 11.0662 19.3811 11.7456C19.7602 12.422 19.9814 13.2876 19.9961 14.1086C19.9966 14.1377 19.9968 14.1668 19.9968 14.1957H20.0203C20.2414 14.9177 20.5302 16.0743 20.7037 17.283C20.8832 18.5332 20.9378 19.8296 20.6733 20.7586C20.6676 20.7785 20.6707 20.8 20.6831 20.8185C20.8198 21.0218 21.019 21.3636 21.172 21.7277C21.3262 22.0947 21.428 22.472 21.3836 22.7516C21.3585 22.9092 21.363 23.2344 21.3848 23.6499C21.4068 24.0684 21.447 24.5859 21.4959 25.1333C21.5936 26.2282 21.7263 27.4445 21.8188 28.2304L21.8199 28.2402L21.8239 28.2493C22.1204 28.919 22.4122 30.0699 22.3261 31.3489C22.2406 32.6205 21.7819 34.0148 20.5878 35.1904C20.5505 34.9843 20.5765 34.5473 20.9001 33.8645C20.9048 33.8546 20.9077 33.8433 20.9077 33.8311C20.908 33.594 20.94 33.0547 21.0604 32.7385C21.0657 32.7245 21.0673 32.7089 21.0634 32.6929C20.997 32.4162 20.8184 31.6244 20.6294 30.6422L20.472 30.6543C20.472 31.0843 20.3303 32.1274 19.7731 32.8584C19.7342 32.9095 19.7068 32.9317 19.6919 32.9396C19.6814 32.9271 19.6668 32.8991 19.6534 32.8476C19.6396 32.7946 19.6293 32.7254 19.6225 32.6416C19.5952 32.3052 19.6279 31.7669 19.6946 31.1995C19.7612 30.6332 19.8611 30.0432 19.9661 29.605C20.0188 29.3854 20.0721 29.2068 20.1221 29.089C20.1471 29.0302 20.169 28.9919 20.1863 28.9713L20.3663 29.0469L20.2659 28.8646C19.8443 28.0991 19.2137 26.8741 18.6926 25.6878C18.4321 25.0946 18.1994 24.5121 18.034 24.0022C17.8679 23.4903 17.7719 23.0583 17.7795 22.7633C17.8005 21.9501 17.8342 21.5904 17.861 21.4572C17.8624 21.45 17.8624 21.4431 17.8624 21.4418C17.8624 21.439 17.8623 21.4362 17.8622 21.4336L17.8616 21.4222L17.8611 21.4148C17.8601 21.4008 17.8585 21.3832 17.8568 21.3658C17.855 21.3485 17.853 21.3308 17.8512 21.3166C17.8502 21.3096 17.8492 21.3029 17.8482 21.2972C17.8477 21.2944 17.847 21.2909 17.8462 21.2876C17.8459 21.2864 17.8436 21.2767 17.8379 21.267C17.6577 20.9633 17.3291 20.084 17.1853 18.4544L17.1639 18.2122L17.0364 18.4264C16.917 18.6269 16.7398 18.9409 16.5963 19.2316C16.5246 19.3768 16.4606 19.5175 16.4164 19.636C16.3943 19.6951 16.3767 19.75 16.3656 19.7978C16.3549 19.8441 16.3488 19.89 16.3546 19.9284C16.3616 19.975 16.3665 20.1563 16.3691 20.4292C16.3716 20.6987 16.3718 21.0507 16.3707 21.4326C16.3684 22.1964 16.3605 23.079 16.3539 23.6587L16.3537 23.6744L16.3609 23.6888C16.6042 24.1726 17.0183 25.717 16.6714 27.9513L16.6692 27.9656L16.6734 27.9796C17.0285 29.1661 17.4611 31.17 17.6033 33.3209C17.7456 35.4734 17.5964 37.7643 16.7953 39.5301L16.7901 39.5416L16.7895 39.5541C16.7631 40.1406 16.7314 41.0616 16.7221 41.9185C16.7129 42.772 16.7257 43.5712 16.7906 43.9082C16.9473 44.7223 17.4618 49.4238 15.5259 55.0219L15.5248 55.0251L15.524 55.0283C15.4962 55.1467 15.4577 55.4491 15.524 55.7311C15.5459 55.824 15.5745 55.8745 15.605 55.9155L15.614 55.9275L15.6253 55.9419C15.6427 55.9641 15.6541 55.9786 15.6656 56.0072C15.6813 56.0459 15.6957 56.1108 15.7005 56.2395C15.7054 56.3676 15.7006 56.5543 15.6809 56.834L15.6806 56.8383L15.6808 56.8425C15.708 57.2793 16.0106 58.3202 17.0033 59.0535C17.0502 59.141 17.0977 59.2724 17.0983 59.3965C17.0989 59.5205 17.0539 59.6266 16.9253 59.6867C16.8703 59.6917 16.796 59.6938 16.7358 59.6865C16.7037 59.6826 16.6822 59.6767 16.6707 59.6712C16.6705 59.6668 16.6702 59.6619 16.6696 59.6576C16.6692 59.6549 16.6677 59.6431 16.6605 59.6306C16.6566 59.6239 16.6459 59.6079 16.6229 59.5983C16.596 59.5871 16.5703 59.5919 16.5543 59.5989C16.5407 59.6048 16.5324 59.6127 16.5291 59.6159C16.5252 59.6199 16.5224 59.6235 16.5208 59.6257C16.5186 59.6287 16.5168 59.6316 16.5155 59.6339L16.5141 59.6363C16.5122 59.6395 16.5099 59.6439 16.508 59.6476L16.5063 59.6508C16.4959 59.6704 16.4816 59.6945 16.4593 59.7126C16.4397 59.7284 16.4122 59.7414 16.3664 59.7368C16.3164 59.7318 16.2387 59.7054 16.1258 59.6254L16.0691 59.5852L16.0193 59.6323C15.967 59.6816 15.8781 59.7385 15.7839 59.7544C15.7382 59.7622 15.6925 59.7602 15.648 59.7445C15.6035 59.7287 15.555 59.6974 15.5069 59.639L15.4508 59.5708L15.3858 59.6323C15.3256 59.6891 15.2283 59.7528 15.1322 59.7706C15.0861 59.7791 15.0428 59.7766 15.0031 59.7603C14.9634 59.744 14.9196 59.7108 14.8785 59.646L14.7582 59.7078L14.7148 59.6676C14.5618 59.801 14.1254 60.0021 13.6267 59.6973C13.0997 59.3752 13.0795 59.097 13.1033 59.0296L13.1066 59.0201L13.1863 56.6105L13.1855 56.6049C13.1475 56.3418 13.1707 55.6613 13.5703 55.0805C13.6299 54.9939 13.6692 54.8732 13.6948 54.7322C13.7207 54.5899 13.7337 54.4207 13.7367 54.2328C13.7427 53.857 13.7084 53.4003 13.652 52.9221C13.5392 51.9659 13.337 50.9169 13.1849 50.2421C13.081 49.6882 12.9487 47.6382 13.2652 43.9015L13.2661 43.8904L13.2632 43.8796C13.1591 43.4861 12.9326 42.274 12.8694 40.6019L12.8689 40.5899L12.8641 40.5786C12.526 39.7924 11.7423 37.1216 11.3296 32.756L11.3332 32.7176L11.3259 32.7171L11.3248 32.7057L11.25 32.7113L11.1752 32.7057L11.1741 32.7171L11.1668 32.7176L11.1704 32.756C10.7577 37.1216 9.97403 39.7924 9.63592 40.5786L9.63109 40.5899L9.63063 40.6019C9.56742 42.274 9.3409 43.4861 9.23676 43.8796L9.2339 43.8904L9.23484 43.9015C9.55129 47.6382 9.41902 49.6882 9.31513 50.2421C9.16304 50.9169 8.96078 51.9659 8.84799 52.9221C8.79158 53.4003 8.75732 53.857 8.76328 54.2328C8.76626 54.4207 8.77931 54.5899 8.8052 54.7322C8.83084 54.8732 8.8701 54.9939 8.92969 55.0805C9.32929 55.6613 9.35245 56.3418 9.31447 56.6049L9.31365 56.6105L9.39337 59.0201L9.39671 59.0296C9.42048 59.097 9.4003 59.3752 8.87334 59.6973C8.37465 60.0021 7.93815 59.801 7.78516 59.6676L7.74183 59.7078L7.62154 59.646C7.58039 59.7108 7.53662 59.744 7.49688 59.7603C7.45716 59.7766 7.41393 59.7791 7.36777 59.7706C7.27166 59.7528 7.17441 59.6891 7.11423 59.6323L7.04921 59.5708L6.9931 59.639C6.945 59.6974 6.89646 59.7287 6.85197 59.7445C6.80745 59.7602 6.76175 59.7622 6.71611 59.7544C6.62187 59.7385 6.53295 59.6816 6.48067 59.6323L6.4309 59.5852L6.37419 59.6254C6.2613 59.7054 6.18357 59.7318 6.13364 59.7368C6.08781 59.7414 6.0603 59.7284 6.04073 59.7126C6.01839 59.6945 6.00406 59.6704 5.99367 59.6508L5.99198 59.6475C5.99008 59.6439 5.98775 59.6395 5.98592 59.6363C5.98467 59.6341 5.98232 59.63 5.9792 59.6257C5.97763 59.6235 5.97484 59.6199 5.97087 59.6159C5.96761 59.6127 5.95926 59.6048 5.9457 59.5989C5.92974 59.5919 5.90402 59.5871 5.87706 59.5983C5.85413 59.6079 5.84343 59.6239 5.83953 59.6306C5.83234 59.6431 5.83073 59.6552 5.83037 59.6579C5.8299 59.6613 5.82962 59.6649 5.82946 59.6684L5.82935 59.6712C5.81775 59.6767 5.79634 59.6826 5.7642 59.6865C5.70404 59.6938 5.62971 59.6917 5.57473 59.6867C5.44608 59.6266 5.40114 59.5205 5.4017 59.3965C5.40227 59.2724 5.44979 59.141 5.49675 59.0535C6.48944 58.3202 6.79198 57.2793 6.81918 56.8425L6.81944 56.8383L6.81914 56.834C6.7994 56.5543 6.79463 56.3676 6.79946 56.2395C6.8043 56.1108 6.81873 56.0459 6.83435 56.0072C6.84587 55.9786 6.8573 55.9641 6.87469 55.942C6.88069 55.9343 6.88739 55.9258 6.89505 55.9155C6.92549 55.8745 6.95413 55.824 6.97598 55.7311C7.04233 55.4491 7.00383 55.1467 6.97598 55.0283L6.97521 55.0251L6.97412 55.0219C5.03825 49.4238 5.55272 44.7223 5.70941 43.9082C5.77427 43.5712 5.78709 42.772 5.77788 41.9185C5.76863 41.0616 5.73692 40.1406 5.7105 39.5541L5.70994 39.5416L5.7047 39.5301C4.9036 37.7643 4.75439 35.4734 4.8967 33.3209C5.0389 31.17 5.47154 29.1661 5.82664 27.9796L5.83083 27.9656L5.8286 27.9513C5.48171 25.717 5.89583 24.1726 6.1391 23.6888L6.14632 23.6744L6.14614 23.6587C6.13954 23.079 6.13162 22.1964 6.12931 21.4326C6.12816 21.0507 6.12841 20.6987 6.13092 20.4292C6.13346 20.1563 6.13837 19.975 6.14542 19.9284C6.15123 19.89 6.14512 19.8441 6.13439 19.7978C6.12331 19.75 6.1057 19.6951 6.08362 19.6359C6.03942 19.5175 5.97544 19.3768 5.90372 19.2316C5.76015 18.9409 5.58301 18.6269 5.4636 18.4264L5.33606 18.2122L5.31469 18.4544C5.17094 20.084 4.8423 20.9633 4.66213 21.267C4.65638 21.2767 4.6541 21.2864 4.6538 21.2877C4.65296 21.291 4.65231 21.2944 4.6518 21.2972C4.65077 21.3028 4.64977 21.3096 4.64884 21.3166C4.64695 21.3308 4.64497 21.3485 4.64323 21.3658C4.64149 21.3832 4.63993 21.4008 4.6389 21.4148C4.6384 21.4218 4.63799 21.4282 4.63777 21.4336C4.63767 21.4362 4.63758 21.4392 4.63759 21.442C4.63759 21.4433 4.63758 21.45 4.63902 21.4572C4.66579 21.5904 4.6995 21.9501 4.7205 22.7633C4.72812 23.0583 4.63212 23.4903 4.46602 24.0022C4.30057 24.5121 4.06789 25.0946 3.80735 25.6878C3.28632 26.8741 2.6557 28.0991 2.23406 28.8646L2.13367 29.0469L2.3137 28.9713C2.33096 28.9919 2.35293 29.0302 2.37791 29.089C2.42791 29.2068 2.4812 29.3854 2.53387 29.605C2.63893 30.0432 2.73878 30.6332 2.80538 31.1995C2.87212 31.7669 2.90484 32.3052 2.87754 32.6416C2.87074 32.7254 2.86036 32.7946 2.84661 32.8476C2.83322 32.8991 2.8186 32.9271 2.80808 32.9396C2.79322 32.9317 2.7658 32.9095 2.72686 32.8584C2.16966 32.1273 2.02799 31.0843 2.02799 30.6543L1.87061 30.6422C1.68157 31.6244 1.50302 32.4162 1.43656 32.6929C1.43271 32.7089 1.43426 32.7245 1.43957 32.7385C1.55999 33.0547 1.59202 33.594 1.59227 33.8311C1.59228 33.8433 1.59522 33.8546 1.5999 33.8645C1.92345 34.5473 1.94946 34.9843 1.9122 35.1904C0.718098 34.0148 0.259431 32.6204 0.173848 31.3489C0.0877605 30.0699 0.379573 28.919 0.676047 28.2493L0.680079 28.2402L0.681227 28.2304C0.773668 27.4445 0.90639 26.2282 1.00413 25.1333C1.053 24.5859 1.09317 24.0684 1.11517 23.6499C1.13702 23.2344 1.14147 22.9092 1.11644 22.7516C1.07195 22.4714 1.17421 22.0932 1.32891 21.7255C1.48238 21.3608 1.68206 21.0187 1.81853 20.8161L1.8358 20.7904L1.82751 20.7614C1.5622 19.8327 1.61654 18.5357 1.79599 17.2849C1.96948 16.0755 2.25851 14.9181 2.47969 14.1957H2.50316C2.50316 14.1668 2.50342 14.1377 2.50394 14.1086C2.51863 13.2876 2.73977 12.422 3.11888 11.7456C3.49968 11.0662 4.02912 10.595 4.65108 10.5258C5.33441 10.4499 6.19328 10.2041 6.96336 9.9178C7.7324 9.6319 8.42395 9.30149 8.76956 9.05183C9.05745 8.84387 9.21881 8.53108 9.30545 8.23248C9.39229 7.93316 9.40668 7.63923 9.39296 7.4578L9.39112 7.43342L9.37303 7.41518C8.43816 6.47319 8.25893 5.40503 8.28429 4.99782L8.28525 4.98238L8.27901 4.96798C7.99532 4.31289 7.94228 3.92221 7.98054 3.70219C7.99945 3.59344 8.0397 3.53166 8.07919 3.49809C8.11801 3.46509 8.16156 3.45451 8.20052 3.45656L8.28869 3.46119L8.28432 3.38188C8.20611 1.96336 8.70543 1.13659 9.33982 0.674568Z" fill="#252525"/>
</svg>
