<svg width="184" height="228" viewBox="0 0 184 228" fill="none" xmlns="http://www.w3.org/2000/svg">
<g filter="url(#filter0_d_251_2421)">
<rect x="12" y="10" width="156" height="200" rx="6" fill="#F8F8F8" shape-rendering="crispEdges"/>
<path fill-rule="evenodd" clip-rule="evenodd" d="M89.5313 28.018C88.4421 27.9279 86.8118 28.1577 85.4801 29.1276C84.1388 30.1045 83.124 31.8144 83.2452 34.6412C83.1394 34.6625 83.0339 34.7096 82.9405 34.789C82.7968 34.9113 82.6931 35.0997 82.6478 35.3604C82.5587 35.8729 82.6877 36.7041 83.2503 38.0109C83.2065 38.9065 83.5952 41.0683 85.4728 42.983C85.4922 43.3219 85.4607 43.8533 85.3041 44.393C85.1395 44.9604 84.8418 45.5193 84.3405 45.8814C83.6854 46.3547 82.3363 47.0031 80.8056 47.5722C79.2769 48.1405 77.5892 48.6214 76.2633 48.7688C74.8615 48.9246 73.7334 49.9734 72.9546 51.363C72.1753 52.7534 71.7242 54.5197 71.6912 56.1942C71.2409 57.6403 70.6365 60.031 70.2775 62.5332C69.9213 65.0161 69.8038 67.6276 70.3316 69.5358C70.052 69.9581 69.6635 70.6319 69.3613 71.3501C69.049 72.0923 68.8179 72.9069 68.919 73.5435C68.964 73.8267 68.9577 74.4482 68.9136 75.2864C68.8699 76.1188 68.7898 77.1503 68.6922 78.2438C68.4978 80.4215 68.234 82.8407 68.0494 84.4115C67.4433 85.7896 66.8568 88.1239 67.0312 90.715C67.2065 93.3197 68.1515 96.1916 70.6278 98.6097C70.7001 98.6803 70.8047 98.7124 70.9047 98.6951C71.0091 98.6771 71.0969 98.6063 71.1219 98.501C71.231 98.0414 71.1869 97.0931 70.5015 95.6385C70.4991 95.1572 70.4362 94.0872 70.1905 93.415C70.3023 92.9465 70.5511 91.8452 70.8373 90.4292C70.9982 91.4587 71.3841 92.8178 72.1922 93.878C72.2845 93.9991 72.3825 94.0964 72.4909 94.1417C72.5495 94.1662 72.6169 94.1778 72.6871 94.1633C72.7564 94.149 72.8102 94.113 72.8501 94.072C72.9249 93.9952 72.9706 93.8809 73.002 93.7599C73.0347 93.634 73.0571 93.4794 73.0713 93.3039C73.1281 92.6044 73.0599 91.5068 72.9261 90.3691C72.792 89.2293 72.5908 88.0388 72.3777 87.15C72.2714 86.7068 72.1608 86.3327 72.052 86.0764C71.9985 85.9502 71.9407 85.8413 71.877 85.7668C71.8629 85.7503 71.8467 85.7333 71.8282 85.7174C72.6729 84.1745 73.8944 81.7917 74.9096 79.4802C75.4326 78.2895 75.9018 77.1156 76.2364 76.0842C76.5698 75.0567 76.7744 74.1569 76.758 73.52C76.7167 71.9194 76.6506 71.1761 76.5925 70.8759C76.5925 70.8746 76.5926 70.8731 76.5927 70.8716C76.593 70.8654 76.5935 70.8576 76.5942 70.8483C76.596 70.8231 76.5989 70.7903 76.6023 70.7572C76.6056 70.724 76.6092 70.6917 76.6125 70.6672C76.6134 70.6603 76.6143 70.6544 76.615 70.6495C76.9861 70.0118 77.5928 68.359 77.8986 65.4194C78.0976 65.7699 78.3235 66.1857 78.5176 66.5788C78.6593 66.8656 78.7828 67.1378 78.8666 67.3626C78.9086 67.475 78.9397 67.5731 78.9584 67.6538C78.9778 67.7375 78.9809 67.7906 78.9767 67.8184C78.9591 67.9347 78.9498 68.3221 78.9448 68.856C78.9397 69.3966 78.9392 70.1018 78.9416 70.866C78.9461 72.3809 78.9617 74.1291 78.9749 75.2892C78.4586 76.3436 77.6531 79.4613 78.3387 83.9132C77.625 86.3066 76.7616 90.3191 76.4769 94.625C76.1919 98.9353 76.4856 103.557 78.1053 107.145C78.1578 108.317 78.2204 110.142 78.2387 111.84C78.2572 113.557 78.2301 115.125 78.1064 115.768C77.7863 117.431 76.7565 126.877 80.6432 138.122C80.693 138.339 80.7613 138.895 80.6417 139.403C80.6062 139.554 80.5645 139.621 80.5264 139.673C80.5189 139.683 80.5102 139.694 80.5008 139.706C80.4616 139.755 80.4095 139.821 80.3706 139.917C80.3227 140.036 80.2921 140.201 80.282 140.469C80.2719 140.738 80.282 141.119 80.3212 141.677C80.2669 142.501 79.6814 144.505 77.7666 145.906L77.7405 145.925L77.7253 145.952C77.6124 146.151 77.4878 146.473 77.4863 146.792C77.4849 147.116 77.614 147.46 78.0359 147.641L78.0597 147.651L78.0858 147.654C78.2118 147.667 78.4044 147.676 78.571 147.656C78.6527 147.646 78.7427 147.627 78.8167 147.59C78.8323 147.606 78.8502 147.622 78.8693 147.637C78.9687 147.718 79.1117 147.776 79.3021 147.757C79.4571 147.742 79.6328 147.676 79.8352 147.548C79.9712 147.651 80.16 147.753 80.3735 147.789C80.5138 147.813 80.667 147.808 80.82 147.754C80.9282 147.716 81.0311 147.655 81.1266 147.568C81.2702 147.676 81.4622 147.782 81.6717 147.82C81.8157 147.847 81.9727 147.843 82.1253 147.78C82.2272 147.738 82.3204 147.673 82.4032 147.584C82.821 147.91 83.8188 148.306 84.9249 147.63C86.0014 146.972 86.1983 146.316 86.1024 145.994L85.945 141.235C86.0251 140.657 85.9715 139.235 85.129 138.011C85.0423 137.885 84.9722 137.687 84.9233 137.418C84.875 137.153 84.8494 136.829 84.8436 136.462C84.8319 135.726 84.8991 134.826 85.0113 133.874C85.2357 131.972 85.6386 129.882 85.9415 128.538L85.942 128.536L85.9425 128.534C86.1568 127.395 86.4191 123.273 85.7877 115.803C86.0036 114.975 86.4501 112.555 86.5772 109.238C87.2313 107.702 88.6485 102.875 89.5 95.0765C90.3515 102.875 91.7687 107.702 92.4228 109.238C92.5499 112.555 92.9964 114.975 93.2123 115.803C92.5809 123.273 92.8432 127.395 93.0575 128.534L93.058 128.536L93.0585 128.538C93.3614 129.882 93.7643 131.972 93.9887 133.874C94.1009 134.826 94.1681 135.726 94.1564 136.462C94.1506 136.829 94.125 137.153 94.0767 137.418C94.0278 137.687 93.9577 137.885 93.871 138.011C93.0285 139.235 92.9749 140.657 93.055 141.235L92.8976 145.994C92.8017 146.316 92.9986 146.972 94.0751 147.63C95.1812 148.306 96.179 147.91 96.5968 147.584C96.6796 147.673 96.7728 147.738 96.8747 147.78C97.0273 147.843 97.1843 147.847 97.3283 147.82C97.5378 147.782 97.7298 147.676 97.8734 147.568C97.9689 147.655 98.0718 147.716 98.18 147.754C98.333 147.808 98.4862 147.813 98.6265 147.789C98.84 147.753 99.0288 147.651 99.1648 147.548C99.3672 147.676 99.5429 147.742 99.6979 147.757C99.8883 147.776 100.031 147.718 100.131 147.637C100.15 147.622 100.167 147.606 100.183 147.589C100.257 147.627 100.347 147.646 100.429 147.656C100.596 147.676 100.788 147.667 100.914 147.654L100.94 147.651L100.964 147.641C101.386 147.46 101.515 147.116 101.514 146.792C101.512 146.473 101.388 146.151 101.275 145.952L101.26 145.925L101.233 145.906C99.3186 144.505 98.7331 142.501 98.6788 141.677C98.718 141.119 98.7281 140.738 98.718 140.469C98.7079 140.201 98.6773 140.036 98.6294 139.917C98.5905 139.821 98.5384 139.755 98.4992 139.706C98.4953 139.701 98.4915 139.696 98.4879 139.691C98.4828 139.685 98.478 139.679 98.4736 139.673C98.4355 139.621 98.3938 139.554 98.3583 139.403C98.2387 138.895 98.307 138.339 98.3568 138.122C102.244 126.877 101.214 117.431 100.894 115.768C100.77 115.125 100.743 113.557 100.761 111.84C100.78 110.142 100.842 108.317 100.895 107.145C102.514 103.557 102.808 98.9353 102.523 94.625C102.238 90.3191 101.375 86.3066 100.661 83.9132C101.347 79.4613 100.541 76.3436 100.025 75.2892C100.038 74.1291 100.054 72.381 100.058 70.866C100.061 70.1019 100.06 69.3966 100.055 68.856C100.05 68.3221 100.041 67.9347 100.023 67.8184C100.019 67.7906 100.022 67.7375 100.042 67.6538C100.06 67.5731 100.091 67.475 100.133 67.3626C100.217 67.1378 100.341 66.8656 100.482 66.5788C100.677 66.1857 100.902 65.7699 101.101 65.4194C101.407 68.359 102.014 70.0118 102.385 70.6495C102.386 70.6544 102.387 70.6603 102.388 70.6672C102.391 70.6917 102.394 70.724 102.398 70.7572C102.4 70.7784 102.402 70.7994 102.403 70.8183C102.404 70.8291 102.405 70.8392 102.406 70.8483C102.407 70.86 102.407 70.8693 102.408 70.8759C102.349 71.1761 102.283 71.9194 102.242 73.5201C102.226 74.1569 102.43 75.0568 102.764 76.0842C103.098 77.1156 103.567 78.2895 104.09 79.4802C105.106 81.7917 106.327 84.1745 107.172 85.7174C107.153 85.7333 107.137 85.7503 107.123 85.7668C107.059 85.8414 107.002 85.9502 106.948 86.0764C106.839 86.3327 106.729 86.7068 106.622 87.15C106.409 88.0388 106.208 89.2293 106.074 90.3691C105.94 91.5068 105.872 92.6044 105.929 93.304C105.943 93.4794 105.965 93.634 105.998 93.7599C106.029 93.8809 106.075 93.9952 106.15 94.072C106.19 94.113 106.244 94.149 106.313 94.1633C106.383 94.1778 106.451 94.1662 106.509 94.1417C106.617 94.0964 106.716 93.9991 106.808 93.878C107.616 92.8178 108.002 91.4587 108.163 90.4292C108.449 91.8452 108.698 92.9465 108.81 93.415C108.564 94.0872 108.501 95.1573 108.498 95.6385C107.813 97.0931 107.769 98.0414 107.878 98.501C107.903 98.6064 107.991 98.6771 108.095 98.6951C108.195 98.7124 108.3 98.6803 108.372 98.6098C110.849 96.1917 111.793 93.3197 111.969 90.715C112.143 88.1239 111.557 85.7896 110.951 84.4115C110.766 82.8407 110.502 80.4215 110.308 78.2438C110.21 77.1504 110.13 76.1188 110.086 75.2864C110.042 74.4482 110.036 73.8268 110.081 73.5435C110.182 72.9082 109.952 72.0955 109.641 71.3546C109.338 70.6347 108.949 69.959 108.668 69.5358C109.196 67.6267 109.079 65.0135 108.722 62.5295C108.363 60.0285 107.759 57.6396 107.309 56.1942C107.276 54.5197 106.825 52.7534 106.045 51.363C105.267 49.9734 104.139 48.9246 102.737 48.7688C101.411 48.6214 99.7231 48.1405 98.1944 47.5722C96.6637 47.0031 95.3146 46.3547 94.6595 45.8814C94.1582 45.5193 93.8605 44.9604 93.6959 44.393C93.5393 43.8533 93.5078 43.3219 93.5272 42.983C95.4048 41.0683 95.7935 38.9065 95.7497 38.0109C96.3123 36.7041 96.4413 35.8729 96.3522 35.3604C96.3069 35.0997 96.2032 34.9113 96.0595 34.789C95.9661 34.7097 95.8606 34.6625 95.7548 34.6412C95.8764 31.8152 94.8777 30.1053 93.552 29.1282C92.2354 28.1577 90.6201 27.9279 89.5313 28.018ZM89.5078 28.3023C88.4839 28.2163 86.9371 28.4333 85.6796 29.3491C84.4109 30.2732 83.4122 31.9267 83.5686 34.7638L83.5774 34.9224L83.401 34.9131C83.3231 34.909 83.236 34.9302 83.1584 34.9962C83.0794 35.0633 82.9989 35.1869 82.9611 35.4044C82.8846 35.8444 82.9906 36.6258 83.558 37.936L83.5705 37.9648L83.5686 37.9956C83.5179 38.8101 83.8763 40.9464 85.7461 42.8304L85.7822 42.8668L85.7859 42.9156C85.8134 43.2785 85.7846 43.8663 85.6109 44.465C85.4376 45.0622 85.1149 45.6877 84.5391 46.1037C83.8479 46.603 82.4648 47.2638 80.9267 47.8356C79.3866 48.4082 77.6688 48.8998 76.3022 49.0517C75.0582 49.1899 73.9994 50.1324 73.2378 51.4912C72.4795 52.8441 72.0373 54.5752 72.0079 56.2173C72.0068 56.2755 72.0063 56.3335 72.0063 56.3914H71.9594C71.517 57.8362 70.939 60.1509 70.592 62.5697C70.2331 65.0715 70.1244 67.6653 70.655 69.5229L70.6716 69.5809L70.6371 69.6322C70.3641 70.0373 69.9648 70.7215 69.6578 71.451C69.3484 72.1864 69.1439 72.9428 69.2329 73.5032C69.2829 73.8184 69.274 74.4688 69.2303 75.2998C69.1863 76.1367 69.106 77.1718 69.0083 78.2666C68.8128 80.4564 68.5473 82.889 68.3625 84.4609L68.3602 84.4804L68.3521 84.4986C67.7591 85.838 67.1755 88.1398 67.3477 90.6978C67.5189 93.2409 68.4362 96.0295 70.8244 98.3807C70.8989 97.9686 70.8469 97.0946 70.1998 95.729C70.1904 95.7093 70.1846 95.6867 70.1845 95.6622C70.184 95.188 70.12 94.1094 69.8791 93.4769C69.8685 93.4491 69.8654 93.4179 69.8731 93.3858C70.006 92.8324 70.3631 91.2487 70.7412 89.2844L71.056 89.3087C71.056 90.1686 71.3393 92.2547 72.4537 93.7168C72.5316 93.819 72.5864 93.8633 72.6162 93.8792C72.6372 93.8543 72.6664 93.7983 72.6932 93.6951C72.7207 93.5892 72.7415 93.4509 72.7551 93.2832C72.8097 92.6104 72.7442 91.5338 72.6108 90.3991C72.4776 89.2665 72.2779 88.0864 72.0677 87.2101C71.9624 86.7707 71.8558 86.4137 71.7558 86.1781C71.7059 86.0604 71.6619 85.9838 71.6274 85.9426L71.2673 86.0938L71.4681 85.7293C72.3114 84.1983 73.5726 81.7481 74.6147 79.3755C75.1358 78.1891 75.6011 77.0242 75.932 76.0044C76.2642 74.9806 76.4562 74.1167 76.441 73.5267C76.399 71.9002 76.3316 71.1808 76.278 70.9144C76.2752 70.9 76.2752 70.8866 76.2752 70.8839C76.2752 70.8784 76.2753 70.8724 76.2755 70.8671C76.276 70.8565 76.2768 70.8435 76.2778 70.8296C76.2799 70.8016 76.283 70.7664 76.2865 70.7316C76.2899 70.6969 76.2939 70.6615 76.2977 70.6332C76.2995 70.6193 76.3015 70.6057 76.3036 70.5943C76.3046 70.5888 76.3059 70.5821 76.3076 70.5754C76.3082 70.5729 76.3128 70.5535 76.3243 70.5341C76.6846 69.9266 77.3419 68.1679 77.6294 64.9087L77.6721 64.4243L77.9272 64.8527C78.166 65.2538 78.5203 65.8817 78.8074 66.4631C78.9509 66.7536 79.0788 67.035 79.1672 67.2719C79.2114 67.3903 79.2466 67.5 79.2688 67.5957C79.2902 67.6883 79.3025 67.7799 79.2908 67.8568C79.2767 67.9501 79.2669 68.3127 79.2618 68.8584C79.2568 69.3974 79.2563 70.1014 79.2586 70.8653C79.2632 72.3928 79.2791 74.158 79.2923 75.3174L79.2926 75.3489L79.2782 75.3775C78.7917 76.3452 77.9634 79.434 78.6572 83.9025L78.6617 83.9312L78.6533 83.9592C77.9431 86.3322 77.0778 90.34 76.7934 94.6419C76.5088 98.9469 76.8072 103.529 78.4094 107.06L78.4199 107.083L78.421 107.108C78.4738 108.281 78.5373 110.123 78.5558 111.837C78.5742 113.544 78.5485 115.142 78.4188 115.816C78.1054 117.445 77.0765 126.848 80.9482 138.044L80.9504 138.05L80.952 138.057C81.0077 138.293 81.0847 138.898 80.952 139.462C80.9083 139.648 80.851 139.749 80.7901 139.831C80.7748 139.852 80.7614 139.869 80.7494 139.884C80.7146 139.928 80.6917 139.957 80.6687 140.014C80.6375 140.092 80.6086 140.222 80.5989 140.479C80.5893 140.735 80.5988 141.109 80.6383 141.668L80.6389 141.677L80.6384 141.685C80.584 142.559 79.9789 144.64 77.9935 146.107C77.8996 146.282 77.8045 146.545 77.8034 146.793C77.8023 147.041 77.8922 147.253 78.1495 147.373C78.2594 147.383 78.4081 147.388 78.5284 147.373C78.5927 147.365 78.6355 147.353 78.6587 147.342L78.6589 147.337C78.6592 147.33 78.6598 147.323 78.6607 147.316C78.6615 147.31 78.6647 147.286 78.6791 147.261C78.6869 147.248 78.7083 147.216 78.7541 147.197C78.808 147.174 78.8595 147.184 78.8914 147.198C78.9185 147.21 78.9352 147.225 78.9417 147.232C78.9497 147.24 78.9553 147.247 78.9584 147.251C78.9646 147.26 78.9693 147.268 78.9718 147.273C78.9755 147.279 78.9802 147.288 78.984 147.295L78.9873 147.302C79.0081 147.341 79.0368 147.389 79.0815 147.425C79.1206 147.457 79.1756 147.483 79.2673 147.474C79.3671 147.464 79.5226 147.411 79.7484 147.251L79.8618 147.17L79.9613 147.265C80.0659 147.363 80.2437 147.477 80.4322 147.509C80.5235 147.524 80.6149 147.52 80.7039 147.489C80.7929 147.457 80.89 147.395 80.9862 147.278L81.0984 147.142L81.2285 147.265C81.3488 147.378 81.5433 147.506 81.7355 147.541C81.8279 147.558 81.9143 147.553 81.9938 147.521C82.0732 147.488 82.1608 147.422 82.2431 147.292L82.4837 147.416L82.5703 147.335C82.8763 147.602 83.7493 148.004 84.7467 147.395C85.8006 146.75 85.841 146.194 85.7934 146.059L85.7867 146.04L85.6273 141.221L85.6289 141.21C85.7049 140.684 85.6586 139.323 84.8594 138.161C84.7402 137.988 84.6617 137.746 84.6104 137.464C84.5586 137.18 84.5325 136.841 84.5266 136.466C84.5146 135.714 84.5832 134.801 84.696 133.844C84.9216 131.932 85.3261 129.834 85.6303 128.484C85.838 127.376 86.1026 123.276 85.4697 115.803L85.4678 115.781L85.4735 115.759C85.6818 114.972 86.1348 112.548 86.2613 109.204L86.2622 109.18L86.2718 109.157C86.9481 107.585 88.5153 102.243 89.3409 93.5119C89.3385 93.4864 89.3361 93.4609 89.3337 93.4353L89.3482 93.4342C89.3489 93.4266 89.3496 93.419 89.3504 93.4114L89.5001 93.4227L89.6496 93.4114C89.6504 93.419 89.6511 93.4266 89.6518 93.4342L89.6663 93.4353C89.6639 93.4609 89.6615 93.4864 89.6591 93.5119C90.4846 102.243 92.0519 107.585 92.7282 109.157L92.7378 109.18L92.7387 109.204C92.8652 112.548 93.3182 114.972 93.5265 115.759L93.5322 115.781L93.5303 115.803C92.8974 123.276 93.162 127.376 93.3697 128.484C93.6739 129.834 94.0784 131.932 94.304 133.844C94.4168 134.801 94.4854 135.714 94.4734 136.466C94.4675 136.841 94.4414 137.18 94.3896 137.464C94.3383 137.746 94.2598 137.988 94.1406 138.161C93.3414 139.323 93.2951 140.684 93.3711 141.21L93.3727 141.221L93.2133 146.04L93.2066 146.059C93.159 146.194 93.1994 146.75 94.2533 147.395C95.2507 148.004 96.1237 147.602 96.4297 147.335L96.5163 147.416L96.7569 147.292C96.8392 147.422 96.9268 147.488 97.0062 147.521C97.0857 147.553 97.1721 147.558 97.2645 147.541C97.4567 147.506 97.6512 147.378 97.7715 147.265L97.9016 147.142L98.0138 147.278C98.11 147.395 98.2071 147.457 98.2961 147.489C98.3851 147.52 98.4765 147.524 98.5678 147.509C98.7563 147.477 98.9341 147.363 99.0387 147.265L99.1382 147.17L99.2516 147.251C99.4774 147.411 99.6329 147.464 99.7327 147.474C99.8244 147.483 99.8794 147.457 99.9185 147.425C99.9632 147.389 99.9919 147.341 100.013 147.302L100.016 147.295C100.02 147.288 100.024 147.279 100.028 147.273L100.031 147.268C100.034 147.263 100.037 147.257 100.042 147.251C100.045 147.247 100.05 147.24 100.058 147.232C100.065 147.225 100.081 147.21 100.109 147.198C100.141 147.184 100.192 147.174 100.246 147.197C100.292 147.216 100.313 147.248 100.321 147.261C100.335 147.286 100.338 147.31 100.339 147.315C100.34 147.324 100.341 147.334 100.341 147.342C100.364 147.353 100.407 147.365 100.472 147.373C100.592 147.388 100.741 147.383 100.851 147.373C101.108 147.253 101.198 147.041 101.197 146.793C101.195 146.545 101.1 146.282 101.007 146.107C99.0211 144.64 98.416 142.559 98.3616 141.685L98.3611 141.677L98.3617 141.668C98.4012 141.109 98.4107 140.735 98.4011 140.479C98.3914 140.222 98.3625 140.092 98.3313 140.014C98.3083 139.957 98.2854 139.928 98.2506 139.884C98.2436 139.875 98.2361 139.866 98.2281 139.855C98.2223 139.848 98.2163 139.84 98.2099 139.831C98.149 139.749 98.0917 139.648 98.048 139.462C97.9153 138.898 97.9923 138.293 98.048 138.057L98.0496 138.05L98.0518 138.044C101.924 126.848 100.895 117.445 100.581 115.816C100.451 115.142 100.426 113.544 100.444 111.837C100.463 110.123 100.526 108.281 100.579 107.108L100.58 107.083L100.591 107.06C102.193 103.529 102.491 98.9469 102.207 94.6419C101.922 90.34 101.057 86.3322 100.347 83.9593L100.338 83.9312L100.343 83.9025C101.037 79.434 100.208 76.3452 99.7218 75.3776L99.7074 75.3489L99.7077 75.3174C99.7209 74.158 99.7368 72.3928 99.7414 70.8653C99.7437 70.1014 99.7432 69.3974 99.7382 68.8584C99.7331 68.3127 99.7233 67.9501 99.7092 67.8568C99.6975 67.7799 99.7098 67.6883 99.7312 67.5957C99.7534 67.5 99.7886 67.3903 99.8328 67.2719C99.9212 67.035 100.049 66.7536 100.193 66.4631C100.48 65.8817 100.834 65.2538 101.073 64.8527L101.328 64.4243L101.371 64.9087C101.658 68.1679 102.315 69.9266 102.676 70.5341C102.687 70.5535 102.692 70.5727 102.692 70.5752C102.694 70.5819 102.695 70.5888 102.696 70.5943C102.698 70.6057 102.7 70.6193 102.702 70.6332C102.706 70.6615 102.71 70.6969 102.714 70.7316C102.717 70.7664 102.72 70.8016 102.722 70.8296C102.723 70.8347 102.723 70.8396 102.723 70.8443C102.724 70.8526 102.724 70.8604 102.724 70.8671C102.725 70.8724 102.725 70.8781 102.725 70.8836C102.725 70.8863 102.725 70.9 102.722 70.9144C102.668 71.1809 102.601 71.9002 102.559 73.5267C102.544 74.1167 102.736 74.9806 103.068 76.0044C103.399 77.0242 103.864 78.1891 104.385 79.3755C105.427 81.7482 106.689 84.1983 107.532 85.7293L107.733 86.0938L107.373 85.9426C107.338 85.9838 107.294 86.0604 107.244 86.1781C107.144 86.4137 107.038 86.7707 106.932 87.2101C106.722 88.0864 106.522 89.2665 106.389 90.3991C106.256 91.5339 106.19 92.6104 106.245 93.2832C106.259 93.4509 106.279 93.5892 106.307 93.6951C106.334 93.7983 106.363 93.8543 106.384 93.8792C106.414 93.8634 106.468 93.819 106.546 93.7168C107.661 92.2547 107.944 90.1686 107.944 89.3087L108.259 89.2844C108.637 91.2488 108.994 92.8324 109.127 93.3858C109.135 93.4179 109.131 93.4491 109.121 93.477C108.88 94.1094 108.816 95.1881 108.815 95.6622C108.815 95.6867 108.81 95.7093 108.8 95.729C108.153 97.0946 108.101 97.9686 108.176 98.3807C110.564 96.0295 111.481 93.2409 111.652 90.6978C111.824 88.1398 111.241 85.838 110.648 84.4986L110.64 84.4804L110.638 84.4609C110.453 82.889 110.187 80.4564 109.992 78.2666C109.894 77.1718 109.814 76.1367 109.77 75.2999C109.726 74.4688 109.717 73.8185 109.767 73.5032C109.856 72.9439 109.652 72.1894 109.344 71.4554C109.038 70.7272 108.64 70.0436 108.366 69.637C108.341 69.6001 108.335 69.5569 108.347 69.5173C108.876 67.6592 108.766 65.0663 108.407 62.5659C108.06 60.1485 107.483 57.8354 107.041 56.3914H106.994C106.994 56.3335 106.993 56.2755 106.992 56.2173C106.963 54.5752 106.52 52.8441 105.762 51.4912C105.001 50.1324 103.942 49.1899 102.698 49.0517C101.331 48.8998 99.6134 48.4082 98.0733 47.8356C96.5352 47.2638 95.1521 46.603 94.4609 46.1037C93.8851 45.6877 93.5624 45.0622 93.3891 44.465C93.2154 43.8663 93.1866 43.2785 93.2141 42.9156L93.2178 42.8668L93.2539 42.8304C95.1237 40.9464 95.4821 38.8101 95.4314 37.9956L95.4295 37.9648L95.442 37.936C96.0094 36.6258 96.1154 35.8444 96.0389 35.4044C96.0011 35.1869 95.9206 35.0633 95.8416 34.9962C95.764 34.9302 95.6769 34.909 95.599 34.9131L95.4226 34.9224L95.4314 34.7638C95.5878 31.9259 94.6042 30.2723 93.351 29.3486C92.1091 28.4333 90.5782 28.2163 89.5548 28.3023L89.5543 28.3065C89.5467 28.3058 89.539 28.3051 89.5313 28.3044C89.5236 28.3051 89.5159 28.3058 89.5083 28.3065L89.5078 28.3023Z" fill="#252525"/>
<path d="M85.6796 29.3491C86.9371 28.4333 88.4839 28.2163 89.5078 28.3023L89.5083 28.3065L89.5313 28.3044L89.5543 28.3065L89.5548 28.3023C90.5782 28.2163 92.1091 28.4333 93.351 29.3486C94.6042 30.2723 95.5878 31.9259 95.4314 34.7638L95.4226 34.9224L95.599 34.9131C95.6769 34.909 95.764 34.9302 95.8416 34.9962C95.9206 35.0633 96.0011 35.1869 96.0389 35.4044C96.1154 35.8444 96.0094 36.6258 95.442 37.936L95.4295 37.9648L95.4314 37.9956C95.4821 38.8101 95.1237 40.9464 93.2539 42.8304L93.2178 42.8668L93.2141 42.9156C93.1866 43.2785 93.2154 43.8663 93.3891 44.465C93.5624 45.0622 93.8851 45.6877 94.4609 46.1037C95.1521 46.603 96.5352 47.2638 98.0733 47.8356C99.6134 48.4082 101.331 48.8998 102.698 49.0517C103.942 49.1899 105.001 50.1324 105.762 51.4912C106.52 52.8441 106.963 54.5752 106.992 56.2173C106.993 56.2755 106.994 56.3335 106.994 56.3914H107.041C107.483 57.8354 108.06 60.1485 108.407 62.5659C108.766 65.0663 108.876 67.6592 108.347 69.5173C108.335 69.5569 108.341 69.6001 108.366 69.637C108.64 70.0436 109.038 70.7272 109.344 71.4554C109.652 72.1894 109.856 72.9439 109.767 73.5032C109.717 73.8185 109.726 74.4688 109.77 75.2999C109.814 76.1367 109.894 77.1718 109.992 78.2666C110.187 80.4564 110.453 82.889 110.638 84.4609L110.64 84.4804L110.648 84.4986C111.241 85.838 111.824 88.1398 111.652 90.6978C111.481 93.2409 110.564 96.0295 108.176 98.3807C108.101 97.9686 108.153 97.0946 108.8 95.729C108.81 95.7093 108.815 95.6867 108.815 95.6622C108.816 95.1881 108.88 94.1094 109.121 93.477C109.131 93.4491 109.135 93.4179 109.127 93.3858C108.994 92.8324 108.637 91.2488 108.259 89.2844L107.944 89.3087C107.944 90.1686 107.661 92.2547 106.546 93.7168C106.468 93.819 106.414 93.8634 106.384 93.8792C106.363 93.8543 106.334 93.7983 106.307 93.6951C106.279 93.5892 106.259 93.4509 106.245 93.2832C106.19 92.6104 106.256 91.5339 106.389 90.3991C106.522 89.2665 106.722 88.0864 106.932 87.2101C107.038 86.7707 107.144 86.4137 107.244 86.1781C107.294 86.0604 107.338 85.9838 107.373 85.9426L107.733 86.0938L107.532 85.7293C106.689 84.1983 105.427 81.7482 104.385 79.3755C103.864 78.1891 103.399 77.0242 103.068 76.0044C102.736 74.9806 102.544 74.1167 102.559 73.5267C102.601 71.9002 102.668 71.1809 102.722 70.9144C102.725 70.9 102.725 70.8863 102.725 70.8836C102.725 70.8781 102.725 70.8724 102.724 70.8671L102.723 70.8443L102.722 70.8296C102.72 70.8016 102.717 70.7664 102.714 70.7316C102.71 70.6969 102.706 70.6615 102.702 70.6332C102.7 70.6193 102.698 70.6057 102.696 70.5943C102.695 70.5888 102.694 70.5819 102.692 70.5752C102.692 70.5727 102.687 70.5535 102.676 70.5341C102.315 69.9266 101.658 68.1679 101.371 64.9087L101.328 64.4243L101.073 64.8527C100.834 65.2538 100.48 65.8817 100.193 66.4631C100.049 66.7536 99.9212 67.035 99.8328 67.2719C99.7886 67.3903 99.7534 67.5 99.7312 67.5957C99.7098 67.6883 99.6975 67.7799 99.7092 67.8568C99.7233 67.9501 99.7331 68.3127 99.7382 68.8584C99.7432 69.3974 99.7437 70.1014 99.7414 70.8653C99.7368 72.3928 99.7209 74.158 99.7077 75.3174L99.7074 75.3489L99.7218 75.3776C100.208 76.3452 101.037 79.434 100.343 83.9025L100.338 83.9312L100.347 83.9593C101.057 86.3322 101.922 90.34 102.207 94.6419C102.491 98.9469 102.193 103.529 100.591 107.06L100.58 107.083L100.579 107.108C100.526 108.281 100.463 110.123 100.444 111.837C100.426 113.544 100.451 115.142 100.581 115.816C100.895 117.445 101.924 126.848 98.0518 138.044L98.0496 138.05L98.048 138.057C97.9923 138.293 97.9153 138.898 98.048 139.462C98.0917 139.648 98.149 139.749 98.2099 139.831L98.2281 139.855L98.2506 139.884C98.2854 139.928 98.3083 139.957 98.3313 140.014C98.3625 140.092 98.3914 140.222 98.4011 140.479C98.4107 140.735 98.4012 141.109 98.3617 141.668L98.3611 141.677L98.3616 141.685C98.416 142.559 99.0211 144.64 101.007 146.107C101.1 146.282 101.195 146.545 101.197 146.793C101.198 147.041 101.108 147.253 100.851 147.373C100.741 147.383 100.592 147.388 100.472 147.373C100.407 147.365 100.364 147.353 100.341 147.342C100.341 147.334 100.34 147.324 100.339 147.315C100.338 147.31 100.335 147.286 100.321 147.261C100.313 147.248 100.292 147.216 100.246 147.197C100.192 147.174 100.141 147.184 100.109 147.198C100.081 147.21 100.065 147.225 100.058 147.232C100.05 147.24 100.045 147.247 100.042 147.251C100.037 147.257 100.034 147.263 100.031 147.268L100.028 147.273C100.024 147.279 100.02 147.288 100.016 147.295L100.013 147.302C99.9919 147.341 99.9632 147.389 99.9185 147.425C99.8794 147.457 99.8244 147.483 99.7327 147.474C99.6329 147.464 99.4774 147.411 99.2516 147.251L99.1382 147.17L99.0387 147.265C98.9341 147.363 98.7563 147.477 98.5678 147.509C98.4765 147.524 98.3851 147.52 98.2961 147.489C98.2071 147.457 98.11 147.395 98.0138 147.278L97.9016 147.142L97.7715 147.265C97.6512 147.378 97.4567 147.506 97.2645 147.541C97.1721 147.558 97.0857 147.553 97.0062 147.521C96.9268 147.488 96.8392 147.422 96.7569 147.292L96.5163 147.416L96.4297 147.335C96.1237 147.602 95.2507 148.004 94.2533 147.395C93.1994 146.75 93.159 146.194 93.2066 146.059L93.2133 146.04L93.3727 141.221L93.3711 141.21C93.2951 140.684 93.3414 139.323 94.1406 138.161C94.2598 137.988 94.3383 137.746 94.3896 137.464C94.4414 137.18 94.4675 136.841 94.4734 136.466C94.4854 135.714 94.4168 134.801 94.304 133.844C94.0784 131.932 93.6739 129.834 93.3697 128.484C93.162 127.376 92.8974 123.276 93.5303 115.803L93.5322 115.781L93.5265 115.759C93.3182 114.972 92.8652 112.548 92.7387 109.204L92.7378 109.18L92.7282 109.157C92.0519 107.585 90.4846 102.243 89.6591 93.5119L89.6663 93.4353L89.6518 93.4342L89.6496 93.4114L89.5001 93.4227L89.3504 93.4114L89.3482 93.4342L89.3337 93.4353L89.3409 93.5119C88.5153 102.243 86.9481 107.585 86.2718 109.157L86.2622 109.18L86.2613 109.204C86.1348 112.548 85.6818 114.972 85.4735 115.759L85.4678 115.781L85.4697 115.803C86.1026 123.276 85.838 127.376 85.6303 128.484C85.3261 129.834 84.9216 131.932 84.696 133.844C84.5832 134.801 84.5146 135.714 84.5266 136.466C84.5325 136.841 84.5586 137.18 84.6104 137.464C84.6617 137.746 84.7402 137.988 84.8594 138.161C85.6586 139.323 85.7049 140.684 85.6289 141.21L85.6273 141.221L85.7867 146.04L85.7934 146.059C85.841 146.194 85.8006 146.75 84.7467 147.395C83.7493 148.004 82.8763 147.602 82.5703 147.335L82.4837 147.416L82.2431 147.292C82.1608 147.422 82.0732 147.488 81.9938 147.521C81.9143 147.553 81.8279 147.558 81.7355 147.541C81.5433 147.506 81.3488 147.378 81.2285 147.265L81.0984 147.142L80.9862 147.278C80.89 147.395 80.7929 147.457 80.7039 147.489C80.6149 147.52 80.5235 147.524 80.4322 147.509C80.2437 147.477 80.0659 147.363 79.9613 147.265L79.8618 147.17L79.7484 147.251C79.5226 147.411 79.3671 147.464 79.2673 147.474C79.1756 147.483 79.1206 147.457 79.0815 147.425C79.0368 147.389 79.0081 147.341 78.9873 147.302L78.984 147.295C78.9802 147.288 78.9755 147.279 78.9718 147.273C78.9693 147.268 78.9646 147.26 78.9584 147.251C78.9553 147.247 78.9497 147.24 78.9417 147.232C78.9352 147.225 78.9185 147.21 78.8914 147.198C78.8595 147.184 78.808 147.174 78.7541 147.197C78.7083 147.216 78.6869 147.248 78.6791 147.261C78.6647 147.286 78.6615 147.31 78.6607 147.316C78.6598 147.323 78.6592 147.33 78.6589 147.337L78.6587 147.342C78.6355 147.353 78.5927 147.365 78.5284 147.373C78.4081 147.388 78.2594 147.383 78.1495 147.373C77.8922 147.253 77.8023 147.041 77.8034 146.793C77.8045 146.545 77.8996 146.282 77.9935 146.107C79.9789 144.64 80.584 142.559 80.6384 141.685L80.6389 141.677L80.6383 141.668C80.5988 141.109 80.5893 140.735 80.5989 140.479C80.6086 140.222 80.6375 140.092 80.6687 140.014C80.6917 139.957 80.7146 139.928 80.7494 139.884C80.7614 139.869 80.7748 139.852 80.7901 139.831C80.851 139.749 80.9083 139.648 80.952 139.462C81.0847 138.898 81.0077 138.293 80.952 138.057L80.9504 138.05L80.9482 138.044C77.0765 126.848 78.1054 117.445 78.4188 115.816C78.5485 115.142 78.5742 113.544 78.5558 111.837C78.5373 110.123 78.4738 108.281 78.421 107.108L78.4199 107.083L78.4094 107.06C76.8072 103.529 76.5088 98.9469 76.7934 94.6419C77.0778 90.34 77.9431 86.3322 78.6533 83.9592L78.6617 83.9312L78.6572 83.9025C77.9634 79.434 78.7917 76.3452 79.2782 75.3775L79.2926 75.3489L79.2923 75.3174C79.2791 74.158 79.2632 72.3928 79.2586 70.8653C79.2563 70.1014 79.2568 69.3974 79.2618 68.8584C79.2669 68.3127 79.2767 67.9501 79.2908 67.8568C79.3025 67.7799 79.2902 67.6883 79.2688 67.5957C79.2466 67.5 79.2114 67.3903 79.1672 67.2719C79.0788 67.035 78.9509 66.7536 78.8074 66.4631C78.5203 65.8817 78.166 65.2538 77.9272 64.8527L77.6721 64.4243L77.6294 64.9087C77.3419 68.1679 76.6846 69.9266 76.3243 70.5341C76.3128 70.5535 76.3082 70.5729 76.3076 70.5754C76.3059 70.5821 76.3046 70.5888 76.3036 70.5943C76.3015 70.6057 76.2995 70.6193 76.2977 70.6332C76.2939 70.6615 76.2899 70.6969 76.2865 70.7316C76.283 70.7664 76.2799 70.8016 76.2778 70.8296C76.2768 70.8435 76.276 70.8565 76.2755 70.8671C76.2753 70.8724 76.2752 70.8784 76.2752 70.8839C76.2752 70.8866 76.2752 70.9 76.278 70.9144C76.3316 71.1808 76.399 71.9002 76.441 73.5267C76.4562 74.1167 76.2642 74.9806 75.932 76.0044C75.6011 77.0242 75.1358 78.1891 74.6147 79.3755C73.5726 81.7481 72.3114 84.1983 71.4681 85.7293L71.2673 86.0938L71.6274 85.9426C71.6619 85.9838 71.7059 86.0604 71.7558 86.1781C71.8558 86.4137 71.9624 86.7707 72.0677 87.2101C72.2779 88.0864 72.4776 89.2665 72.6108 90.3991C72.7442 91.5338 72.8097 92.6104 72.7551 93.2832C72.7415 93.4509 72.7207 93.5892 72.6932 93.6951C72.6664 93.7983 72.6372 93.8543 72.6162 93.8792C72.5864 93.8633 72.5316 93.819 72.4537 93.7168C71.3393 92.2547 71.056 90.1686 71.056 89.3087L70.7412 89.2844C70.3631 91.2487 70.006 92.8324 69.8731 93.3858C69.8654 93.4179 69.8685 93.4491 69.8791 93.4769C70.12 94.1094 70.184 95.188 70.1845 95.6622C70.1846 95.6867 70.1904 95.7093 70.1998 95.729C70.8469 97.0946 70.8989 97.9686 70.8244 98.3807C68.4362 96.0295 67.5189 93.2409 67.3477 90.6978C67.1755 88.1398 67.7591 85.838 68.3521 84.4986L68.3602 84.4804L68.3625 84.4609C68.5473 82.889 68.8128 80.4564 69.0083 78.2666C69.106 77.1718 69.1863 76.1367 69.2303 75.2998C69.274 74.4688 69.2829 73.8184 69.2329 73.5032C69.1439 72.9428 69.3484 72.1864 69.6578 71.451C69.9648 70.7215 70.3641 70.0373 70.6371 69.6322L70.6716 69.5809L70.655 69.5229C70.1244 67.6653 70.2331 65.0715 70.592 62.5697C70.939 60.1509 71.517 57.8362 71.9594 56.3914H72.0063C72.0063 56.3335 72.0068 56.2755 72.0079 56.2173C72.0373 54.5752 72.4795 52.8441 73.2378 51.4912C73.9994 50.1324 75.0582 49.1899 76.3022 49.0517C77.6688 48.8998 79.3866 48.4082 80.9267 47.8356C82.4648 47.2638 83.8479 46.603 84.5391 46.1037C85.1149 45.6877 85.4376 45.0622 85.6109 44.465C85.7846 43.8663 85.8134 43.2785 85.7859 42.9156L85.7822 42.8668L85.7461 42.8304C83.8763 40.9464 83.5179 38.8101 83.5686 37.9956L83.5705 37.9648L83.558 37.936C82.9906 36.6258 82.8846 35.8444 82.9611 35.4044C82.9989 35.1869 83.0794 35.0633 83.1584 34.9962C83.236 34.9302 83.3231 34.909 83.401 34.9131L83.5774 34.9224L83.5686 34.7638C83.4122 31.9267 84.4109 30.2732 85.6796 29.3491Z" fill="#252525"/>
<path d="M69.8213 184H67.7295V171.15H74.9893V172.926H69.8213V176.934H74.6553V178.7H69.8213V184ZM82.0469 174.086C82.2109 174.086 82.3896 174.095 82.583 174.112C82.7764 174.13 82.9434 174.153 83.084 174.183L82.8906 176.116C82.7676 176.081 82.6152 176.055 82.4336 176.037C82.2578 176.02 82.0996 176.011 81.959 176.011C81.5898 176.011 81.2383 176.072 80.9043 176.195C80.5703 176.312 80.2744 176.494 80.0166 176.74C79.7588 176.98 79.5566 177.282 79.4102 177.646C79.2637 178.009 79.1904 178.431 79.1904 178.911V184H77.1162V174.271H78.7334L79.0146 175.984H79.1113C79.3047 175.639 79.5449 175.322 79.832 175.035C80.1191 174.748 80.4473 174.52 80.8164 174.35C81.1914 174.174 81.6016 174.086 82.0469 174.086ZM93.499 179.113C93.499 179.922 93.3936 180.64 93.1826 181.267C92.9717 181.894 92.6641 182.424 92.2598 182.857C91.8555 183.285 91.3691 183.613 90.8008 183.842C90.2324 184.064 89.5908 184.176 88.876 184.176C88.208 184.176 87.5957 184.064 87.0391 183.842C86.4824 183.613 85.999 183.285 85.5889 182.857C85.1846 182.424 84.8711 181.894 84.6484 181.267C84.4258 180.64 84.3145 179.922 84.3145 179.113C84.3145 178.041 84.499 177.133 84.8682 176.389C85.2432 175.639 85.7764 175.067 86.4678 174.675C87.1592 174.282 87.9824 174.086 88.9375 174.086C89.834 174.086 90.625 174.282 91.3105 174.675C91.9961 175.067 92.5322 175.639 92.9189 176.389C93.3057 177.139 93.499 178.047 93.499 179.113ZM86.4414 179.113C86.4414 179.822 86.5264 180.429 86.6963 180.933C86.8721 181.437 87.1416 181.823 87.5049 182.093C87.8682 182.356 88.3369 182.488 88.9111 182.488C89.4854 182.488 89.9541 182.356 90.3174 182.093C90.6807 181.823 90.9473 181.437 91.1172 180.933C91.2871 180.429 91.3721 179.822 91.3721 179.113C91.3721 178.404 91.2871 177.804 91.1172 177.312C90.9473 176.813 90.6807 176.436 90.3174 176.178C89.9541 175.914 89.4824 175.782 88.9023 175.782C88.0469 175.782 87.4229 176.069 87.0303 176.644C86.6377 177.218 86.4414 178.041 86.4414 179.113ZM100.943 174.086C102.039 174.086 102.892 174.37 103.501 174.938C104.116 175.501 104.424 176.406 104.424 177.654V184H102.358V178.041C102.358 177.285 102.203 176.72 101.893 176.345C101.582 175.964 101.102 175.773 100.451 175.773C99.5078 175.773 98.8516 176.063 98.4824 176.644C98.1191 177.224 97.9375 178.064 97.9375 179.166V184H95.8721V174.271H97.4805L97.7705 175.589H97.8848C98.0957 175.249 98.3564 174.971 98.667 174.754C98.9834 174.531 99.335 174.364 99.7217 174.253C100.114 174.142 100.521 174.086 100.943 174.086ZM110.937 182.506C111.206 182.506 111.473 182.482 111.736 182.436C112 182.383 112.24 182.321 112.457 182.251V183.815C112.229 183.915 111.933 184 111.569 184.07C111.206 184.141 110.828 184.176 110.436 184.176C109.885 184.176 109.39 184.085 108.95 183.903C108.511 183.716 108.162 183.396 107.904 182.945C107.646 182.494 107.518 181.87 107.518 181.073V175.844H106.19V174.921L107.614 174.191L108.291 172.108H109.592V174.271H112.378V175.844H109.592V181.047C109.592 181.539 109.715 181.905 109.961 182.146C110.207 182.386 110.532 182.506 110.937 182.506Z" fill="#252525"/>
</g>
<defs>
<filter id="filter0_d_251_2421" x="0" y="0" width="184" height="228" filterUnits="userSpaceOnUse" color-interpolation-filters="sRGB">
<feFlood flood-opacity="0" result="BackgroundImageFix"/>
<feColorMatrix in="SourceAlpha" type="matrix" values="0 0 0 0 0 0 0 0 0 0 0 0 0 0 0 0 0 0 127 0" result="hardAlpha"/>
<feOffset dx="2" dy="4"/>
<feGaussianBlur stdDeviation="7"/>
<feComposite in2="hardAlpha" operator="out"/>
<feColorMatrix type="matrix" values="0 0 0 0 0 0 0 0 0 0 0 0 0 0 0 0 0 0 0.12 0"/>
<feBlend mode="normal" in2="BackgroundImageFix" result="effect1_dropShadow_251_2421"/>
<feBlend mode="normal" in="SourceGraphic" in2="effect1_dropShadow_251_2421" result="shape"/>
</filter>
</defs>
</svg>
