<svg width="40" height="40" viewBox="0 0 40 40" fill="none" xmlns="http://www.w3.org/2000/svg">
<circle cx="20" cy="20" r="20" fill="#D6DFFE"/>
<path d="M29.6635 18.0819H19.9487V22.1081H25.5393C25.019 24.6666 22.8408 26.1366 19.9487 26.1366C19.1394 26.138 18.3378 25.9796 17.5899 25.6705C16.842 25.3614 16.1624 24.9077 15.5902 24.3354C15.018 23.7631 14.5645 23.0834 14.2555 22.3354C13.9466 21.5875 13.7883 20.7858 13.7898 19.9766C13.7885 19.1674 13.9468 18.3659 14.2558 17.618C14.5649 16.8702 15.0185 16.1907 15.5906 15.6185C16.1628 15.0464 16.8423 14.5927 17.5902 14.2837C18.338 13.9747 19.1395 13.8163 19.9487 13.8177C21.4175 13.8177 22.7452 14.3392 23.787 15.1921L26.8203 12.1599C24.9723 10.5487 22.6028 9.55473 19.9487 9.55473C18.5788 9.55073 17.2216 9.81759 15.9552 10.34C14.6889 10.8624 13.5382 11.63 12.5696 12.5986C11.6009 13.5673 10.8333 14.7179 10.3109 15.9843C9.78854 17.2507 9.52168 18.6078 9.52568 19.9777C9.52152 21.3477 9.78828 22.7049 10.3106 23.9714C10.8329 25.2378 11.6005 26.3885 12.5692 27.3572C13.5379 28.3259 14.6886 29.0935 15.9551 29.6158C17.2215 30.1381 18.5787 30.4049 19.9487 30.4007C25.1602 30.4007 29.8992 26.6102 29.8992 19.9777C29.8992 19.3617 29.8047 18.6979 29.6635 18.0819Z" fill="white"/>
</svg>
