<svg width="160" height="180" viewBox="0 0 160 180" fill="none" xmlns="http://www.w3.org/2000/svg">
<rect x="1" y="1" width="158" height="178" rx="3" fill="none"/>
<path d="M82.8231 113C82.0136 112.735 79.9672 112.364 78.2576 113H74.5662C74.0805 112.546 73.4588 111.592 74.8577 111.411L74.8732 111.409C76.6223 111.182 79.3281 110.83 80.0061 106.53C80.5501 103.079 79.8442 98.5836 79.4232 96.7673V92.7943C78.9052 92.4537 78.0244 90.9553 78.6461 87.6861C76.3925 85.2342 76.2176 76.4481 76.4119 72.3615C75.991 70.0912 75.1685 65.4371 75.2462 64.983C74.9548 64.3019 75.5376 59.5343 74.5662 53.2909C74.1777 53.5634 74.1453 53.0261 74.1777 52.7234C74.5986 50.7936 76.2953 46.1849 79.7147 43.1881C79.4815 42.2799 79.2937 41.3718 79.229 41.0313C78.8728 41.4097 77.9079 42.0529 76.8976 41.5989C76.509 41.4172 76.7357 40.4637 76.8976 40.0096C76.6062 39.7448 76.1399 38.988 76.6062 38.0799C76.1399 38.0799 75.8291 37.8529 75.7319 37.7393L76.6062 36.1501C76.3795 35.0528 76.2565 32.5857 77.5776 31.496V30.4744C80.3946 29.5662 85.7762 29.3392 84.7659 35.6961C82.5122 39.1469 83.4383 42.1286 84.183 43.1881C85.4135 44.8908 87.2528 49.7039 84.7659 55.3342C83.2116 61.6911 83.2764 65.0965 83.503 66.0047C84.7658 67.8966 86.5338 72.6567 83.503 76.5616C84.7658 83.259 84.183 86.3239 83.503 87.3456C83.6973 88.8213 83.4059 88.3672 83.8916 89.6159C84.2801 90.6148 84.0535 91.924 83.8916 92.4537C84.5068 94.1186 85.3681 98.8787 83.8916 104.6C83.0368 107.506 83.2764 109.822 83.503 110.616C83.7621 111.222 83.9889 112.546 82.8231 113Z" fill="url(#paint0_linear_595_3373)"/>
<path d="M45 144.08V145C44.9988 147.156 44.3005 149.255 43.0093 150.982C41.7182 152.709 39.9033 153.972 37.8354 154.584C35.7674 155.195 33.5573 155.122 31.5345 154.375C29.5117 153.627 27.7847 152.246 26.611 150.437C25.4373 148.628 24.8798 146.488 25.0217 144.336C25.1636 142.185 25.9972 140.136 27.3983 138.497C28.7994 136.858 30.6928 135.715 32.7962 135.24C34.8996 134.765 37.1003 134.982 39.07 135.86" stroke="#00A499" stroke-width="2" stroke-linecap="round" stroke-linejoin="round"/>
<path d="M45 137L35 147.01L32 144.01" stroke="#00A499" stroke-width="2" stroke-linecap="round" stroke-linejoin="round"/>
<path d="M58.4972 151.5V139.136H59.9943V150.172H65.7415V151.5H58.4972ZM71.7543 151.693C70.8608 151.693 70.0901 151.496 69.4421 151.102C68.7982 150.703 68.3011 150.148 67.951 149.435C67.6049 148.719 67.4318 147.886 67.4318 146.936C67.4318 145.986 67.6049 145.149 67.951 144.425C68.3011 143.696 68.7881 143.129 69.4119 142.722C70.0398 142.312 70.7723 142.107 71.6094 142.107C72.0923 142.107 72.5692 142.187 73.0401 142.348C73.511 142.509 73.9396 142.771 74.326 143.133C74.7124 143.491 75.0202 143.966 75.2496 144.558C75.479 145.149 75.5938 145.878 75.5938 146.743V147.347H68.446V146.115H74.1449C74.1449 145.592 74.0402 145.125 73.831 144.714C73.6257 144.304 73.3319 143.98 72.9496 143.743C72.5713 143.505 72.1245 143.386 71.6094 143.386C71.0419 143.386 70.5509 143.527 70.1364 143.809C69.7259 144.087 69.4099 144.449 69.1886 144.896C68.9672 145.342 68.8565 145.821 68.8565 146.332V147.153C68.8565 147.854 68.9773 148.447 69.2188 148.934C69.4643 149.417 69.8043 149.786 70.239 150.039C70.6737 150.289 71.1787 150.413 71.7543 150.413C72.1286 150.413 72.4666 150.361 72.7685 150.256C73.0743 150.148 73.338 149.987 73.5593 149.773C73.7807 149.556 73.9517 149.286 74.0724 148.964L75.4489 149.351C75.304 149.818 75.0605 150.228 74.7184 150.582C74.3763 150.933 73.9537 151.206 73.4506 151.403C72.9476 151.597 72.3821 151.693 71.7543 151.693ZM81.8903 142.227V143.435H76.8917V142.227H81.8903ZM78.3888 151.5V140.947C78.3888 140.416 78.5136 139.973 78.7631 139.619C79.0127 139.265 79.3366 139 79.7351 138.822C80.1335 138.645 80.5541 138.557 80.9968 138.557C81.3469 138.557 81.6327 138.585 81.854 138.641C82.0754 138.698 82.2404 138.75 82.3491 138.798L81.9386 140.03C81.8661 140.006 81.7655 139.975 81.6367 139.939C81.512 139.903 81.3469 139.885 81.1417 139.885C80.6708 139.885 80.3307 140.004 80.1214 140.241C79.9162 140.479 79.8136 140.827 79.8136 141.286V151.5H78.3888ZM87.9197 142.227V143.435H83.1143V142.227H87.9197ZM84.5148 140.006H85.9395V148.844C85.9395 149.246 85.9979 149.548 86.1146 149.749C86.2354 149.946 86.3883 150.079 86.5734 150.148C86.7626 150.212 86.9618 150.244 87.1711 150.244C87.328 150.244 87.4568 150.236 87.5574 150.22C87.6581 150.2 87.7385 150.184 87.7989 150.172L88.0887 151.452C87.9921 151.488 87.8573 151.524 87.6842 151.56C87.5112 151.601 87.2918 151.621 87.0262 151.621C86.6237 151.621 86.2293 151.534 85.843 151.361C85.4606 151.188 85.1427 150.924 84.8891 150.57C84.6396 150.216 84.5148 149.769 84.5148 149.23V140.006ZM101.412 144.304L100.132 144.666C100.052 144.453 99.9332 144.246 99.7762 144.044C99.6233 143.839 99.414 143.67 99.1483 143.537C98.8827 143.404 98.5426 143.338 98.1281 143.338C97.5606 143.338 97.0877 143.469 96.7094 143.73C96.3351 143.988 96.148 144.316 96.148 144.714C96.148 145.069 96.2768 145.348 96.5344 145.554C96.7919 145.759 97.1944 145.93 97.7417 146.067L99.1182 146.405C99.9472 146.606 100.565 146.914 100.972 147.328C101.378 147.739 101.581 148.268 101.581 148.916C101.581 149.447 101.428 149.922 101.122 150.341C100.821 150.759 100.398 151.089 99.8547 151.331C99.3113 151.572 98.6795 151.693 97.9591 151.693C97.0133 151.693 96.2305 151.488 95.6107 151.077C94.9909 150.667 94.5985 150.067 94.4335 149.278L95.7858 148.94C95.9146 149.439 96.1581 149.814 96.5162 150.063C96.8785 150.313 97.3514 150.438 97.9349 150.438C98.599 150.438 99.1262 150.297 99.5166 150.015C99.911 149.729 100.108 149.387 100.108 148.989C100.108 148.667 99.9955 148.397 99.7702 148.18C99.5448 147.958 99.1987 147.793 98.7318 147.685L97.1863 147.322C96.3372 147.121 95.7133 146.809 95.3149 146.387C94.9205 145.96 94.7233 145.427 94.7233 144.787C94.7233 144.264 94.8702 143.801 95.164 143.398C95.4618 142.996 95.8663 142.68 96.3774 142.451C96.8925 142.221 97.4761 142.107 98.1281 142.107C99.0457 142.107 99.7661 142.308 100.289 142.71C100.817 143.113 101.191 143.644 101.412 144.304ZM103.726 151.5V142.227H105.151V151.5H103.726ZM104.45 140.682C104.173 140.682 103.933 140.587 103.732 140.398C103.535 140.209 103.436 139.982 103.436 139.716C103.436 139.45 103.535 139.223 103.732 139.034C103.933 138.845 104.173 138.75 104.45 138.75C104.728 138.75 104.965 138.845 105.163 139.034C105.364 139.223 105.464 139.45 105.464 139.716C105.464 139.982 105.364 140.209 105.163 140.398C104.965 140.587 104.728 140.682 104.45 140.682ZM111.261 151.693C110.489 151.693 109.807 151.498 109.215 151.108C108.623 150.713 108.16 150.158 107.826 149.441C107.492 148.721 107.325 147.87 107.325 146.888C107.325 145.914 107.492 145.069 107.826 144.352C108.16 143.636 108.625 143.083 109.221 142.692C109.817 142.302 110.505 142.107 111.286 142.107C111.889 142.107 112.366 142.207 112.716 142.408C113.071 142.606 113.34 142.831 113.525 143.085C113.714 143.334 113.861 143.539 113.966 143.7H114.087V139.136H115.511V151.5H114.135V150.075H113.966C113.861 150.244 113.712 150.458 113.519 150.715C113.326 150.969 113.05 151.196 112.692 151.397C112.334 151.595 111.857 151.693 111.261 151.693ZM111.455 150.413C112.026 150.413 112.509 150.264 112.903 149.967C113.298 149.665 113.598 149.248 113.803 148.717C114.008 148.182 114.111 147.564 114.111 146.864C114.111 146.171 114.01 145.566 113.809 145.047C113.608 144.523 113.31 144.117 112.916 143.827C112.521 143.533 112.034 143.386 111.455 143.386C110.851 143.386 110.348 143.541 109.945 143.851C109.547 144.157 109.247 144.574 109.046 145.101C108.849 145.624 108.75 146.212 108.75 146.864C108.75 147.524 108.851 148.123 109.052 148.663C109.257 149.198 109.559 149.625 109.957 149.942C110.36 150.256 110.859 150.413 111.455 150.413ZM122.206 151.693C121.313 151.693 120.542 151.496 119.894 151.102C119.25 150.703 118.753 150.148 118.403 149.435C118.057 148.719 117.884 147.886 117.884 146.936C117.884 145.986 118.057 145.149 118.403 144.425C118.753 143.696 119.24 143.129 119.864 142.722C120.492 142.312 121.224 142.107 122.062 142.107C122.544 142.107 123.021 142.187 123.492 142.348C123.963 142.509 124.392 142.771 124.778 143.133C125.165 143.491 125.472 143.966 125.702 144.558C125.931 145.149 126.046 145.878 126.046 146.743V147.347H118.898V146.115H124.597C124.597 145.592 124.492 145.125 124.283 144.714C124.078 144.304 123.784 143.98 123.402 143.743C123.023 143.505 122.577 143.386 122.062 143.386C121.494 143.386 121.003 143.527 120.589 143.809C120.178 144.087 119.862 144.449 119.641 144.896C119.419 145.342 119.309 145.821 119.309 146.332V147.153C119.309 147.854 119.429 148.447 119.671 148.934C119.916 149.417 120.256 149.786 120.691 150.039C121.126 150.289 121.631 150.413 122.206 150.413C122.581 150.413 122.919 150.361 123.221 150.256C123.526 150.148 123.79 149.987 124.011 149.773C124.233 149.556 124.404 149.286 124.525 148.964L125.901 149.351C125.756 149.818 125.513 150.228 125.171 150.582C124.828 150.933 124.406 151.206 123.903 151.403C123.4 151.597 122.834 151.693 122.206 151.693Z" fill="#000000"/>
<rect x="1" y="1" width="158" height="178" rx="3" stroke="#00A499" stroke-width="2"/>
<defs>
<linearGradient id="paint0_linear_595_3373" x1="84.1455" y1="30.9022" x2="75.3776" y2="30.9372" gradientUnits="userSpaceOnUse">
<stop stop-color="#009E94"/>
<stop offset="1" stop-color="#00B594"/>
</linearGradient>
</defs>
</svg>
