<svg width="160" height="180" viewBox="0 0 160 180" fill="none" xmlns="http://www.w3.org/2000/svg">
<rect x="1" y="1" width="158" height="178" rx="3" fill="none"/>
<path fill-rule="evenodd" clip-rule="evenodd" d="M79.5216 30.0125C78.7712 29.9501 77.6482 30.1091 76.7307 30.7799C75.8067 31.4556 75.1077 32.6383 75.1912 34.5935C75.1182 34.6082 75.0456 34.6408 74.9813 34.6958C74.8822 34.7803 74.8108 34.9106 74.7796 35.0909C74.7182 35.4454 74.807 36.0204 75.1946 36.9242C75.1644 37.5437 75.4322 39.0389 76.7257 40.3632C76.7391 40.5977 76.7174 40.9652 76.6095 41.3385C76.4961 41.7309 76.291 42.1175 75.9457 42.368C75.4944 42.6953 74.565 43.1438 73.5105 43.5374C72.4574 43.9305 71.2948 44.2631 70.3814 44.3651C69.4157 44.4728 68.6386 45.1983 68.1021 46.1594C67.5652 47.1211 67.2545 48.3428 67.2317 49.501C66.9215 50.5012 66.5051 52.1547 66.2578 53.8855C66.0125 55.6028 65.9315 57.4091 66.2951 58.7289C66.1025 59.021 65.8348 59.4871 65.6266 59.9838C65.4115 60.4972 65.2523 61.0606 65.322 61.5009C65.353 61.6968 65.3486 62.1267 65.3183 62.7064C65.2881 63.2821 65.233 63.9956 65.1657 64.752C65.0318 66.2582 64.8501 67.9315 64.7229 69.0179C64.3054 69.9712 63.9014 71.5857 64.0215 73.3779C64.1423 75.1794 64.7932 77.1659 66.4991 78.8384C66.5489 78.8872 66.621 78.9094 66.6899 78.8974C66.7618 78.885 66.8223 78.8361 66.8395 78.7632C66.9147 78.4453 66.8843 77.7894 66.4122 76.7833C66.4105 76.4504 66.3671 75.7103 66.1979 75.2454C66.2749 74.9213 66.4463 74.1596 66.6435 73.1802C66.7543 73.8923 67.0202 74.8323 67.5768 75.5656C67.6404 75.6493 67.708 75.7167 67.7826 75.748C67.823 75.7649 67.8694 75.773 67.9178 75.763C67.9655 75.7531 68.0026 75.7281 68.0301 75.6998C68.0816 75.6467 68.1131 75.5676 68.1347 75.484C68.1572 75.3968 68.1727 75.2899 68.1825 75.1686C68.2216 74.6847 68.1746 73.9255 68.0824 73.1386C67.9901 72.3503 67.8514 71.5268 67.7046 70.9121C67.6314 70.6055 67.5552 70.3468 67.4803 70.1695C67.4434 70.0822 67.4036 70.0069 67.3597 69.9554C67.35 69.9439 67.3388 69.9322 67.3261 69.9212C67.908 68.854 68.7495 67.2059 69.4489 65.6072C69.8091 64.7835 70.1323 63.9716 70.3629 63.2582C70.5925 62.5476 70.7335 61.9252 70.7222 61.4847C70.6937 60.3776 70.6482 59.8635 70.6082 59.6558C70.6082 59.6549 70.6082 59.6539 70.6083 59.6528C70.6085 59.6486 70.6089 59.6432 70.6093 59.6367C70.6106 59.6193 70.6126 59.5966 70.6149 59.5737C70.6172 59.5508 70.6197 59.5284 70.6219 59.5115C70.6226 59.5067 70.6232 59.5026 70.6237 59.4993C70.8793 59.0582 71.2973 57.915 71.5079 55.8817C71.645 56.1242 71.8006 56.4118 71.9344 56.6837C72.032 56.8821 72.117 57.0703 72.1748 57.2258C72.2037 57.3035 72.2251 57.3714 72.238 57.4272C72.2513 57.4851 72.2535 57.5218 72.2506 57.5411C72.2385 57.6215 72.2321 57.8894 72.2286 58.2587C72.2252 58.6326 72.2248 59.1204 72.2264 59.649C72.2296 60.6968 72.2403 61.9059 72.2494 62.7084C71.8937 63.4376 71.3388 65.594 71.8111 68.6733C71.3195 70.3287 70.7246 73.104 70.5285 76.0823C70.3322 79.0636 70.5345 82.2604 71.6503 84.7417C71.6865 85.5523 71.7296 86.8146 71.7422 87.9891C71.755 89.1767 71.7363 90.2616 71.6511 90.7061C71.4305 91.8565 70.7211 98.3902 73.3987 106.168C73.433 106.318 73.48 106.702 73.3976 107.054C73.3732 107.158 73.3445 107.205 73.3182 107.24C73.313 107.247 73.307 107.255 73.3006 107.263C73.2735 107.297 73.2377 107.343 73.2109 107.409C73.1778 107.492 73.1568 107.606 73.1498 107.791C73.1429 107.977 73.1498 108.241 73.1769 108.627C73.1394 109.197 72.7361 110.583 71.417 111.551L71.399 111.565L71.3885 111.583C71.3108 111.721 71.2249 111.944 71.2239 112.164C71.2229 112.389 71.3119 112.626 71.6025 112.752L71.6189 112.759L71.6369 112.761C71.7237 112.77 71.8564 112.776 71.9711 112.762C72.0274 112.755 72.0894 112.742 72.1404 112.716C72.1511 112.727 72.1635 112.738 72.1766 112.749C72.2451 112.805 72.3436 112.845 72.4748 112.832C72.5816 112.821 72.7026 112.776 72.842 112.687C72.9357 112.758 73.0658 112.829 73.2128 112.854C73.3095 112.871 73.415 112.867 73.5204 112.83C73.595 112.804 73.6659 112.761 73.7316 112.701C73.8306 112.776 73.9628 112.849 74.1072 112.876C74.2064 112.894 74.3146 112.891 74.4196 112.848C74.4899 112.819 74.5541 112.774 74.6111 112.712C74.8989 112.938 75.5863 113.212 76.3483 112.744C77.0899 112.289 77.2255 111.835 77.1594 111.612L77.051 108.321C77.1062 107.921 77.0692 106.938 76.4889 106.091C76.4291 106.004 76.3808 105.867 76.3472 105.681C76.3139 105.497 76.2963 105.274 76.2923 105.019C76.2842 104.511 76.3305 103.888 76.4078 103.23C76.5623 101.914 76.8399 100.468 77.0486 99.5391L77.049 99.5376L77.0493 99.536C77.1969 98.7483 77.3776 95.8973 76.9426 90.7307C77.0913 90.1577 77.399 88.4836 77.4865 86.1893C77.9372 85.1269 78.9134 81.7885 79.5 76.3946C80.0866 81.7885 81.0628 85.1269 81.5135 86.1893C81.601 88.4836 81.9087 90.1577 82.0574 90.7307C81.6224 95.8973 81.8031 98.7483 81.9507 99.536L81.951 99.5376L81.9514 99.5391C82.1601 100.468 82.4377 101.914 82.5922 103.23C82.6695 103.888 82.7158 104.511 82.7077 105.019C82.7037 105.274 82.6861 105.497 82.6528 105.681C82.6192 105.867 82.5709 106.004 82.5111 106.091C81.9308 106.938 81.8938 107.921 81.949 108.321L81.8406 111.612C81.7745 111.835 81.9101 112.289 82.6517 112.744C83.4137 113.212 84.1011 112.938 84.3889 112.712C84.4459 112.774 84.5101 112.819 84.5804 112.848C84.6854 112.891 84.7936 112.894 84.8928 112.876C85.0372 112.849 85.1694 112.776 85.2684 112.701C85.3341 112.761 85.405 112.804 85.4796 112.83C85.585 112.867 85.6905 112.871 85.7872 112.854C85.9342 112.829 86.0643 112.758 86.158 112.687C86.2974 112.776 86.4184 112.821 86.5252 112.832C86.6564 112.845 86.7549 112.805 86.8234 112.749C86.8365 112.738 86.8484 112.727 86.8592 112.716C86.9101 112.742 86.9726 112.755 87.0289 112.762C87.1436 112.776 87.2763 112.77 87.3631 112.761L87.3811 112.759L87.3975 112.752C87.6881 112.626 87.7771 112.389 87.7761 112.164C87.7751 111.944 87.6892 111.721 87.6115 111.583L87.601 111.565L87.583 111.551C86.2639 110.583 85.8606 109.197 85.8231 108.627C85.8502 108.241 85.8571 107.977 85.8502 107.791C85.8432 107.606 85.8222 107.492 85.7891 107.409C85.7623 107.343 85.7265 107.297 85.6994 107.263C85.6968 107.26 85.6942 107.256 85.6917 107.253C85.6882 107.249 85.6848 107.244 85.6818 107.24C85.6555 107.205 85.6268 107.158 85.6024 107.054C85.52 106.702 85.567 106.318 85.6013 106.168C88.2789 98.3902 87.5695 91.8565 87.3489 90.7061C87.2637 90.2616 87.245 89.1767 87.2578 87.9891C87.2704 86.8146 87.3135 85.5523 87.3497 84.7417C88.4655 82.2604 88.6678 79.0636 88.4715 76.0823C88.2754 73.104 87.6805 70.3288 87.1889 68.6733C87.6612 65.594 87.1063 63.4376 86.7506 62.7084C86.7597 61.906 86.7704 60.6968 86.7736 59.649C86.7752 59.1204 86.7748 58.6326 86.7714 58.2587C86.7679 57.8894 86.7615 57.6215 86.7494 57.5411C86.7465 57.5218 86.7487 57.4851 86.762 57.4272C86.7749 57.3714 86.7963 57.3036 86.8252 57.2258C86.883 57.0703 86.968 56.8821 87.0656 56.6837C87.1994 56.4118 87.355 56.1242 87.4921 55.8817C87.7027 57.915 88.1207 59.0582 88.3763 59.4993C88.3768 59.5026 88.3774 59.5067 88.3781 59.5115C88.3803 59.5284 88.3828 59.5508 88.3851 59.5737C88.3866 59.5884 88.3879 59.6029 88.389 59.616C88.3897 59.6234 88.3902 59.6304 88.3907 59.6367C88.3913 59.6448 88.3916 59.6513 88.3919 59.6559C88.3518 59.8635 88.3063 60.3776 88.2778 61.4847C88.2665 61.9252 88.4075 62.5476 88.6371 63.2582C88.8677 63.9716 89.1909 64.7836 89.5511 65.6072C90.2505 67.2059 91.092 68.8541 91.6739 69.9212C91.6612 69.9322 91.65 69.9439 91.6403 69.9554C91.5964 70.0069 91.5566 70.0822 91.5197 70.1695C91.4448 70.3468 91.3686 70.6055 91.2954 70.9121C91.1486 71.5268 91.0099 72.3503 90.9176 73.1386C90.8254 73.9255 90.7784 74.6847 90.8175 75.1686C90.8273 75.2899 90.8428 75.3968 90.8653 75.484C90.8869 75.5676 90.9184 75.6467 90.9699 75.6998C90.9974 75.7282 91.0345 75.7531 91.0822 75.763C91.1306 75.773 91.177 75.7649 91.2174 75.748C91.292 75.7167 91.3596 75.6493 91.4232 75.5656C91.9798 74.8323 92.2457 73.8923 92.3565 73.1802C92.5537 74.1596 92.7251 74.9214 92.8021 75.2454C92.6329 75.7103 92.5895 76.4504 92.5878 76.7833C92.1157 77.7894 92.0853 78.4453 92.1605 78.7632C92.1777 78.8361 92.2382 78.885 92.3101 78.8974C92.379 78.9094 92.4511 78.8872 92.5009 78.8384C94.2068 77.1659 94.8577 75.1794 94.9785 73.3779C95.0986 71.5857 94.6946 69.9712 94.2771 69.0179C94.1499 67.9315 93.9682 66.2582 93.8343 64.752C93.767 63.9957 93.7119 63.2821 93.6817 62.7064C93.6514 62.1267 93.647 61.6968 93.678 61.5009C93.7475 61.0615 93.5891 60.4994 93.3747 59.987C93.1663 59.489 92.8979 59.0216 92.7049 58.7289C93.0687 57.4085 92.9875 55.601 92.7418 53.8829C92.4945 52.1531 92.0783 50.5007 91.7683 49.501C91.7455 48.3428 91.4348 47.1211 90.8979 46.1594C90.3614 45.1983 89.5843 44.4728 88.6186 44.3651C87.7052 44.2631 86.5426 43.9305 85.4895 43.5374C84.435 43.1438 83.5056 42.6953 83.0543 42.368C82.709 42.1175 82.5039 41.7309 82.3905 41.3385C82.2826 40.9652 82.2609 40.5977 82.2743 40.3632C83.5678 39.0389 83.8356 37.5437 83.8054 36.9242C84.1929 36.0204 84.2818 35.4454 84.2204 35.0909C84.1892 34.9106 84.1178 34.7803 84.0187 34.6958C83.9544 34.6408 83.8818 34.6082 83.8088 34.5935C83.8927 32.6388 83.2046 31.4562 82.2914 30.7803C81.3844 30.1091 80.2716 29.9501 79.5216 30.0125ZM79.5054 30.2091C78.8 30.1496 77.7345 30.2997 76.8682 30.9332C75.9942 31.5723 75.3062 32.716 75.4139 34.6783L75.42 34.788L75.2985 34.7816C75.2448 34.7787 75.1848 34.7934 75.1313 34.839C75.0769 34.8855 75.0215 34.9709 74.9954 35.1214C74.9427 35.4257 75.0158 35.9662 75.4066 36.8724L75.4152 36.8923L75.4139 36.9136C75.379 37.477 75.6259 38.9546 76.9139 40.2577L76.9389 40.2829L76.9414 40.3166C76.9603 40.5676 76.9405 40.9742 76.8208 41.3883C76.7015 41.8013 76.4791 42.234 76.0825 42.5217C75.6063 42.8671 74.6535 43.3241 73.594 43.7196C72.533 44.1157 71.3496 44.4557 70.4082 44.5607C69.5512 44.6564 68.8218 45.3083 68.2971 46.2481C67.7748 47.1838 67.4701 48.3812 67.4499 49.517C67.4492 49.5572 67.4488 49.5973 67.4488 49.6374H67.4165C67.1117 50.6367 66.7135 52.2377 66.4745 53.9107C66.2272 55.6411 66.1524 57.4352 66.5179 58.72L66.5293 58.7601L66.5055 58.7956C66.3175 59.0758 66.0424 59.549 65.8309 60.0536C65.6178 60.5622 65.4769 61.0854 65.5382 61.473C65.5727 61.6911 65.5666 62.1409 65.5365 62.7157C65.5061 63.2946 65.4508 64.0105 65.3835 64.7677C65.2488 66.2823 65.0659 67.9649 64.9386 69.0521L64.937 69.0656L64.9314 69.0782C64.523 70.0046 64.1209 71.5967 64.2395 73.366C64.3574 75.125 64.9894 77.0538 66.6346 78.68C66.6859 78.3949 66.6501 77.7904 66.2043 76.8459C66.1979 76.8322 66.1938 76.8166 66.1938 76.7997C66.1934 76.4717 66.1493 75.7256 65.9834 75.2882C65.9761 75.2689 65.974 75.2473 65.9793 75.2252C66.0708 74.8424 66.3168 73.747 66.5773 72.3884L66.7941 72.4052C66.7941 73 66.9893 74.4428 67.757 75.4541C67.8107 75.5248 67.8484 75.5555 67.8689 75.5664C67.8834 75.5492 67.9035 75.5105 67.922 75.4391C67.9409 75.3659 67.9552 75.2702 67.9646 75.1542C68.0022 74.6889 67.9571 73.9442 67.8652 73.1594C67.7734 72.376 67.6359 71.5598 67.4911 70.9536C67.4185 70.6497 67.3451 70.4028 67.2762 70.2398C67.2418 70.1585 67.2115 70.1055 67.1878 70.077L66.9397 70.1815L67.078 69.9294C67.659 68.8705 68.5278 67.1758 69.2457 65.5347C69.6046 64.7142 69.9252 63.9084 70.1532 63.203C70.382 62.4949 70.5143 61.8974 70.5038 61.4893C70.4749 60.3643 70.4284 59.8667 70.3915 59.6824C70.3895 59.6725 70.3896 59.6632 70.3896 59.6614C70.3896 59.6576 70.3897 59.6534 70.3898 59.6498C70.3901 59.6424 70.3907 59.6334 70.3914 59.6238C70.3928 59.6044 70.3949 59.5801 70.3973 59.556C70.3997 59.532 70.4025 59.5075 70.4051 59.488C70.4064 59.4783 70.4077 59.4689 70.4092 59.4611C70.4098 59.4572 70.4108 59.4526 70.4119 59.448C70.4123 59.4463 70.4155 59.4328 70.4234 59.4194C70.6716 58.9992 71.1244 57.7828 71.3225 55.5285L71.3519 55.1935L71.5276 55.4898C71.6921 55.7672 71.9362 56.2015 72.134 56.6036C72.2328 56.8045 72.321 56.9992 72.3819 57.1631C72.4123 57.2449 72.4366 57.3208 72.4518 57.387C72.4666 57.4511 72.475 57.5144 72.467 57.5676C72.4573 57.6321 72.4505 57.8829 72.447 58.2604C72.4436 58.6332 72.4432 59.1201 72.4448 59.6485C72.448 60.705 72.4589 61.926 72.468 62.7278L72.4683 62.7496L72.4583 62.7695C72.1231 63.4387 71.5526 65.5752 72.0305 68.6659L72.0336 68.6858L72.0278 68.7051C71.5386 70.3464 70.9425 73.1185 70.7466 76.094C70.5505 79.0716 70.7561 82.2406 71.8598 84.6832L71.867 84.6992L71.8678 84.7165C71.9042 85.5279 71.9479 86.8019 71.9606 87.9872C71.9733 89.1679 71.9557 90.2735 71.8663 90.7397C71.6504 91.8658 70.9416 98.3695 73.6088 106.114L73.6103 106.118L73.6113 106.122C73.6497 106.286 73.7028 106.705 73.6113 107.095C73.5812 107.223 73.5418 107.293 73.4998 107.35C73.4893 107.364 73.4801 107.376 73.4718 107.386C73.4478 107.417 73.4321 107.437 73.4162 107.477C73.3947 107.53 73.3748 107.62 73.3681 107.798C73.3615 107.975 73.3681 108.234 73.3953 108.62L73.3957 108.626L73.3953 108.632C73.3578 109.236 72.941 110.676 71.5733 111.691C71.5086 111.812 71.4431 111.993 71.4423 112.165C71.4416 112.337 71.5035 112.484 71.6807 112.567C71.7565 112.574 71.8589 112.576 71.9418 112.566C71.9861 112.561 72.0156 112.553 72.0315 112.545L72.0317 112.541C72.0319 112.536 72.0323 112.531 72.033 112.527C72.0334 112.523 72.0357 112.506 72.0456 112.489C72.0509 112.48 72.0657 112.458 72.0973 112.444C72.1344 112.429 72.1699 112.435 72.1919 112.445C72.2105 112.453 72.222 112.464 72.2265 112.469C72.232 112.474 72.2358 112.479 72.238 112.482C72.2423 112.488 72.2456 112.494 72.2473 112.497C72.2498 112.501 72.253 112.507 72.2556 112.512L72.2579 112.517C72.2723 112.544 72.292 112.577 72.3228 112.602C72.3497 112.624 72.3876 112.642 72.4508 112.636C72.5196 112.629 72.6267 112.592 72.7822 112.482L72.8603 112.426L72.9289 112.491C73.001 112.56 73.1235 112.638 73.2533 112.66C73.3162 112.671 73.3792 112.668 73.4405 112.647C73.5018 112.625 73.5687 112.581 73.6349 112.501L73.7123 112.406L73.8018 112.491C73.8847 112.57 74.0187 112.658 74.1511 112.683C74.2147 112.694 74.2743 112.691 74.329 112.668C74.3838 112.646 74.4441 112.6 74.5008 112.51L74.6665 112.596L74.7262 112.54C74.937 112.725 75.5384 113.003 76.2255 112.581C76.9515 112.136 76.9793 111.751 76.9466 111.658L76.942 111.645L76.8321 108.311L76.8333 108.303C76.8856 107.939 76.8537 106.998 76.3031 106.195C76.221 106.075 76.1669 105.908 76.1316 105.713C76.0959 105.516 76.078 105.282 76.0739 105.022C76.0656 104.502 76.1128 103.87 76.1906 103.209C76.346 101.886 76.6246 100.435 76.8342 99.5015C76.9773 98.7353 77.1596 95.8995 76.7236 90.7304L76.7223 90.715L76.7262 90.7001C76.8697 90.1558 77.1818 88.479 77.2689 86.166L77.2695 86.1493L77.2762 86.1338C77.742 85.0462 78.8217 81.3516 79.3904 75.3124C79.3887 75.2948 79.3871 75.2771 79.3854 75.2594L79.3954 75.2586C79.3959 75.2534 79.3964 75.2481 79.3969 75.2429L79.5 75.2507L79.6031 75.2429C79.6036 75.2481 79.6041 75.2534 79.6046 75.2586L79.6146 75.2594C79.6129 75.2771 79.6113 75.2948 79.6096 75.3124C80.1783 81.3516 81.258 85.0462 81.7238 86.1338L81.7305 86.1493L81.7311 86.166C81.8182 88.479 82.1303 90.1558 82.2738 90.7001L82.2777 90.715L82.2764 90.7304C81.8404 95.8995 82.0227 98.7353 82.1658 99.5015C82.3754 100.435 82.654 101.886 82.8094 103.209C82.8872 103.87 82.9344 104.502 82.9261 105.022C82.922 105.282 82.9041 105.516 82.8684 105.713C82.8331 105.908 82.779 106.075 82.6969 106.195C82.1463 106.998 82.1144 107.939 82.1667 108.303L82.1679 108.311L82.058 111.645L82.0534 111.658C82.0207 111.751 82.0485 112.136 82.7745 112.581C83.4616 113.003 84.063 112.725 84.2738 112.54L84.3335 112.596L84.4992 112.51C84.5559 112.6 84.6162 112.646 84.671 112.668C84.7257 112.691 84.7853 112.694 84.8489 112.683C84.9813 112.658 85.1153 112.57 85.1982 112.491L85.2877 112.406L85.3651 112.501C85.4313 112.581 85.4982 112.625 85.5595 112.647C85.6208 112.668 85.6838 112.671 85.7467 112.66C85.8765 112.638 85.999 112.56 86.0711 112.491L86.1397 112.426L86.2178 112.482C86.3733 112.592 86.4804 112.629 86.5492 112.636C86.6124 112.642 86.6503 112.624 86.6772 112.602C86.708 112.577 86.7277 112.544 86.7421 112.517L86.7444 112.512C86.747 112.507 86.7502 112.501 86.7527 112.497L86.7546 112.493C86.7565 112.49 86.759 112.486 86.762 112.482C86.7642 112.479 86.768 112.474 86.7735 112.469C86.778 112.464 86.7895 112.453 86.8081 112.445C86.8301 112.435 86.8656 112.429 86.9027 112.444C86.9343 112.458 86.9491 112.48 86.9544 112.489C86.9643 112.506 86.9665 112.523 86.967 112.526C86.9678 112.532 86.9683 112.539 86.9685 112.545C86.9844 112.553 87.0139 112.561 87.0582 112.566C87.1411 112.576 87.2435 112.574 87.3193 112.567C87.4965 112.484 87.5584 112.337 87.5576 112.165C87.5569 111.993 87.4914 111.812 87.4267 111.691C86.059 110.676 85.6422 109.236 85.6047 108.632L85.6043 108.626L85.6047 108.62C85.6319 108.234 85.6385 107.975 85.6319 107.798C85.6252 107.62 85.6053 107.53 85.5838 107.477C85.5679 107.437 85.5522 107.417 85.5282 107.386C85.5234 107.38 85.5182 107.374 85.5127 107.366C85.5087 107.361 85.5045 107.356 85.5002 107.35C85.4582 107.293 85.4188 107.223 85.3887 107.095C85.2972 106.705 85.3503 106.286 85.3887 106.122L85.3897 106.118L85.3912 106.114C88.0584 98.3695 87.3496 91.8658 87.1337 90.7397C87.0443 90.2735 87.0267 89.1679 87.0394 87.9872C87.0521 86.8019 87.0958 85.5279 87.1322 84.7165L87.133 84.6992L87.1402 84.6832C88.2439 82.2406 88.4495 79.0716 88.2534 76.094C88.0575 73.1185 87.4614 70.3464 86.9722 68.7051L86.9664 68.6858L86.9695 68.6659C87.4474 65.5752 86.8769 63.4387 86.5417 62.7695L86.5317 62.7496L86.532 62.7279C86.5411 61.926 86.552 60.705 86.5552 59.6485C86.5568 59.1202 86.5564 58.6332 86.553 58.2604C86.5495 57.8829 86.5427 57.6321 86.533 57.5677C86.525 57.5144 86.5334 57.4511 86.5482 57.387C86.5634 57.3208 86.5877 57.2449 86.6181 57.1631C86.679 56.9992 86.7672 56.8046 86.866 56.6037C87.0638 56.2015 87.3079 55.7672 87.4724 55.4898L87.6481 55.1935L87.6775 55.5285C87.8756 57.7828 88.3284 58.9992 88.5766 59.4194C88.5846 59.4328 88.5877 59.4461 88.5881 59.4478C88.5892 59.4525 88.5902 59.4572 88.5908 59.4611C88.5923 59.4689 88.5936 59.4783 88.5949 59.488C88.5975 59.5075 88.6003 59.532 88.6027 59.556C88.6051 59.5801 88.6072 59.6044 88.6086 59.6238C88.6089 59.6273 88.6091 59.6307 88.6093 59.634C88.6097 59.6397 88.61 59.6451 88.6102 59.6498C88.6103 59.6534 88.6104 59.6574 88.6104 59.6611C88.6104 59.663 88.6104 59.6725 88.6085 59.6825C88.5716 59.8668 88.5251 60.3643 88.4962 61.4893C88.4857 61.8974 88.618 62.4949 88.8468 63.203C89.0748 63.9084 89.3954 64.7142 89.7543 65.5347C90.4722 67.1758 91.341 68.8705 91.922 69.9294L92.0603 70.1815L91.8122 70.077C91.7885 70.1055 91.7582 70.1585 91.7238 70.2398C91.6549 70.4028 91.5815 70.6498 91.5089 70.9536C91.3641 71.5598 91.2266 72.376 91.1348 73.1594C91.0429 73.9442 90.9978 74.6889 91.0354 75.1542C91.0448 75.2702 91.0591 75.3659 91.078 75.4391C91.0965 75.5105 91.1166 75.5492 91.1311 75.5664C91.1516 75.5555 91.1893 75.5248 91.243 75.4541C92.0107 74.4428 92.2059 73 92.2059 72.4052L92.4227 72.3884C92.6832 73.747 92.9292 74.8424 93.0207 75.2252C93.0261 75.2473 93.0239 75.2689 93.0166 75.2882C92.8507 75.7257 92.8066 76.4717 92.8062 76.7997C92.8062 76.8166 92.8021 76.8322 92.7957 76.8459C92.3499 77.7905 92.3141 78.3949 92.3654 78.68C94.0106 77.0538 94.6426 75.125 94.7605 73.366C94.8791 71.5967 94.477 70.0046 94.0686 69.0782L94.063 69.0656L94.0614 69.0521C93.9341 67.9649 93.7512 66.2823 93.6165 64.7677C93.5492 64.0105 93.4939 63.2946 93.4635 62.7157C93.4334 62.1409 93.4273 61.6911 93.4618 61.4731C93.523 61.0862 93.3828 60.5643 93.1703 60.0566C92.9596 59.553 92.6851 59.0802 92.4967 58.7989C92.4796 58.7734 92.4754 58.7435 92.4832 58.7161C92.8477 57.4309 92.7724 55.6375 92.5252 53.9081C92.2861 52.2361 91.8881 50.6362 91.5835 49.6374H91.5512C91.5512 49.5973 91.5508 49.5572 91.5501 49.517C91.5299 48.3812 91.2252 47.1838 90.7029 46.2481C90.1782 45.3083 89.4488 44.6564 88.5918 44.5607C87.6504 44.4557 86.467 44.1157 85.406 43.7196C84.3465 43.3241 83.3937 42.8671 82.9175 42.5217C82.5209 42.234 82.2985 41.8013 82.1792 41.3883C82.0595 40.9742 82.0397 40.5676 82.0586 40.3166L82.0611 40.2829L82.0861 40.2577C83.3741 38.9546 83.621 37.477 83.5861 36.9137L83.5848 36.8923L83.5934 36.8724C83.9842 35.9662 84.0573 35.4257 84.0046 35.1214C83.9785 34.9709 83.9231 34.8855 83.8687 34.839C83.8152 34.7934 83.7552 34.7787 83.7015 34.7816L83.58 34.788L83.5861 34.6783C83.6938 32.7154 83.0162 31.5717 82.1529 30.9328C81.2974 30.2997 80.2427 30.1496 79.5378 30.2091L79.5374 30.212C79.5322 30.2115 79.5269 30.211 79.5216 30.2105C79.5163 30.211 79.511 30.2115 79.5057 30.212L79.5054 30.2091Z" fill="url(#paint0_linear_595_3378)"/>
<path d="M76.8682 30.9332C77.7345 30.2997 78.8 30.1496 79.5054 30.2091L79.5057 30.212L79.5216 30.2105L79.5374 30.212L79.5378 30.2091C80.2427 30.1496 81.2974 30.2997 82.1529 30.9328C83.0162 31.5717 83.6938 32.7154 83.5861 34.6783L83.58 34.788L83.7015 34.7816C83.7552 34.7787 83.8152 34.7934 83.8687 34.839C83.9231 34.8855 83.9785 34.9709 84.0046 35.1214C84.0573 35.4257 83.9842 35.9662 83.5934 36.8724L83.5848 36.8923L83.5861 36.9137C83.621 37.477 83.3741 38.9546 82.0861 40.2577L82.0611 40.2829L82.0586 40.3166C82.0397 40.5676 82.0595 40.9742 82.1792 41.3883C82.2985 41.8013 82.5209 42.234 82.9175 42.5217C83.3937 42.8671 84.3465 43.3241 85.406 43.7196C86.467 44.1157 87.6504 44.4557 88.5918 44.5607C89.4488 44.6564 90.1782 45.3083 90.7029 46.2481C91.2252 47.1838 91.5299 48.3812 91.5501 49.517C91.5508 49.5572 91.5512 49.5973 91.5512 49.6374H91.5835C91.8881 50.6362 92.2861 52.2361 92.5252 53.9081C92.7724 55.6375 92.8477 57.4309 92.4832 58.7161C92.4754 58.7435 92.4796 58.7734 92.4967 58.7989C92.6851 59.0802 92.9596 59.553 93.1703 60.0566C93.3828 60.5643 93.523 61.0862 93.4618 61.4731C93.4273 61.6911 93.4334 62.1409 93.4635 62.7157C93.4939 63.2946 93.5492 64.0105 93.6165 64.7677C93.7512 66.2823 93.9341 67.9649 94.0614 69.0521L94.063 69.0656L94.0686 69.0782C94.477 70.0046 94.8791 71.5967 94.7605 73.366C94.6426 75.125 94.0106 77.0538 92.3654 78.68C92.3141 78.3949 92.3499 77.7905 92.7957 76.8459C92.8021 76.8322 92.8062 76.8166 92.8062 76.7997C92.8066 76.4717 92.8507 75.7257 93.0166 75.2882C93.0239 75.2689 93.0261 75.2473 93.0207 75.2252C92.9292 74.8424 92.6832 73.747 92.4227 72.3884L92.2059 72.4052C92.2059 73 92.0107 74.4428 91.243 75.4541C91.1893 75.5248 91.1516 75.5555 91.1311 75.5664C91.1166 75.5492 91.0965 75.5105 91.078 75.4391C91.0591 75.3659 91.0448 75.2702 91.0354 75.1542C90.9978 74.6889 91.0429 73.9442 91.1348 73.1594C91.2266 72.376 91.3641 71.5598 91.5089 70.9536C91.5815 70.6498 91.6549 70.4028 91.7238 70.2398C91.7582 70.1585 91.7885 70.1055 91.8122 70.077L92.0603 70.1815L91.922 69.9294C91.341 68.8705 90.4722 67.1758 89.7543 65.5347C89.3954 64.7142 89.0748 63.9084 88.8468 63.203C88.618 62.4949 88.4857 61.8974 88.4962 61.4893C88.5251 60.3643 88.5716 59.8668 88.6085 59.6825C88.6104 59.6725 88.6104 59.663 88.6104 59.6611C88.6104 59.6574 88.6103 59.6534 88.6102 59.6498L88.6093 59.634L88.6086 59.6238C88.6072 59.6044 88.6051 59.5801 88.6027 59.556C88.6003 59.532 88.5975 59.5075 88.5949 59.488C88.5936 59.4783 88.5923 59.4689 88.5908 59.4611C88.5902 59.4572 88.5892 59.4525 88.5881 59.4478C88.5877 59.4461 88.5846 59.4328 88.5766 59.4194C88.3284 58.9992 87.8756 57.7828 87.6775 55.5285L87.6481 55.1935L87.4724 55.4898C87.3079 55.7672 87.0638 56.2015 86.866 56.6037C86.7672 56.8046 86.679 56.9992 86.6181 57.1631C86.5877 57.2449 86.5634 57.3208 86.5482 57.387C86.5334 57.4511 86.525 57.5144 86.533 57.5677C86.5427 57.6321 86.5495 57.8829 86.553 58.2604C86.5564 58.6332 86.5568 59.1202 86.5552 59.6485C86.552 60.705 86.5411 61.926 86.532 62.7279L86.5317 62.7496L86.5417 62.7695C86.8769 63.4387 87.4474 65.5752 86.9695 68.6659L86.9664 68.6858L86.9722 68.7051C87.4614 70.3464 88.0575 73.1185 88.2534 76.094C88.4495 79.0716 88.2439 82.2406 87.1402 84.6832L87.133 84.6992L87.1322 84.7165C87.0958 85.5279 87.0521 86.8019 87.0394 87.9872C87.0267 89.1679 87.0443 90.2735 87.1337 90.7397C87.3496 91.8658 88.0584 98.3695 85.3912 106.114L85.3897 106.118L85.3887 106.122C85.3503 106.286 85.2972 106.705 85.3887 107.095C85.4188 107.223 85.4582 107.293 85.5002 107.35L85.5127 107.366L85.5282 107.386C85.5522 107.417 85.5679 107.437 85.5838 107.477C85.6053 107.53 85.6252 107.62 85.6319 107.798C85.6385 107.975 85.6319 108.234 85.6047 108.62L85.6043 108.626L85.6047 108.632C85.6422 109.236 86.059 110.676 87.4267 111.691C87.4914 111.812 87.5569 111.993 87.5576 112.165C87.5584 112.337 87.4965 112.484 87.3193 112.567C87.2435 112.574 87.1411 112.576 87.0582 112.566C87.0139 112.561 86.9844 112.553 86.9685 112.545C86.9683 112.539 86.9678 112.532 86.967 112.526C86.9665 112.523 86.9643 112.506 86.9544 112.489C86.9491 112.48 86.9343 112.458 86.9027 112.444C86.8656 112.429 86.8301 112.435 86.8081 112.445C86.7895 112.453 86.778 112.464 86.7735 112.469C86.768 112.474 86.7642 112.479 86.762 112.482C86.759 112.486 86.7565 112.49 86.7546 112.493L86.7527 112.497C86.7502 112.501 86.747 112.507 86.7444 112.512L86.7421 112.517C86.7277 112.544 86.708 112.577 86.6772 112.602C86.6503 112.624 86.6124 112.642 86.5492 112.636C86.4804 112.629 86.3733 112.592 86.2178 112.482L86.1397 112.426L86.0711 112.491C85.999 112.56 85.8765 112.638 85.7467 112.66C85.6838 112.671 85.6208 112.668 85.5595 112.647C85.4982 112.625 85.4313 112.581 85.3651 112.501L85.2877 112.406L85.1982 112.491C85.1153 112.57 84.9813 112.658 84.8489 112.683C84.7853 112.694 84.7257 112.691 84.671 112.668C84.6162 112.646 84.5559 112.6 84.4992 112.51L84.3335 112.596L84.2738 112.54C84.063 112.725 83.4616 113.003 82.7745 112.581C82.0485 112.136 82.0207 111.751 82.0534 111.658L82.058 111.645L82.1679 108.311L82.1667 108.303C82.1144 107.939 82.1463 106.998 82.6969 106.195C82.779 106.075 82.8331 105.908 82.8684 105.713C82.9041 105.516 82.922 105.282 82.9261 105.022C82.9344 104.502 82.8872 103.87 82.8094 103.209C82.654 101.886 82.3754 100.435 82.1658 99.5015C82.0227 98.7353 81.8404 95.8995 82.2764 90.7304L82.2777 90.715L82.2738 90.7001C82.1303 90.1558 81.8182 88.479 81.7311 86.166L81.7305 86.1493L81.7238 86.1338C81.258 85.0462 80.1783 81.3516 79.6096 75.3124L79.6146 75.2594L79.6046 75.2586L79.6031 75.2429L79.5 75.2507L79.3969 75.2429L79.3954 75.2586L79.3854 75.2594L79.3904 75.3124C78.8217 81.3516 77.742 85.0462 77.2762 86.1338L77.2695 86.1493L77.2689 86.166C77.1818 88.479 76.8697 90.1558 76.7262 90.7001L76.7223 90.715L76.7236 90.7304C77.1596 95.8995 76.9773 98.7353 76.8342 99.5015C76.6246 100.435 76.346 101.886 76.1906 103.209C76.1128 103.87 76.0656 104.502 76.0739 105.022C76.078 105.282 76.0959 105.516 76.1316 105.713C76.1669 105.908 76.221 106.075 76.3031 106.195C76.8537 106.998 76.8856 107.939 76.8333 108.303L76.8321 108.311L76.942 111.645L76.9466 111.658C76.9793 111.751 76.9515 112.136 76.2255 112.581C75.5384 113.003 74.937 112.725 74.7262 112.54L74.6665 112.596L74.5008 112.51C74.4441 112.6 74.3838 112.646 74.329 112.668C74.2743 112.691 74.2147 112.694 74.1511 112.683C74.0187 112.658 73.8847 112.57 73.8018 112.491L73.7123 112.406L73.6349 112.501C73.5687 112.581 73.5018 112.625 73.4405 112.647C73.3792 112.668 73.3162 112.671 73.2533 112.66C73.1235 112.638 73.001 112.56 72.9289 112.491L72.8603 112.426L72.7822 112.482C72.6267 112.592 72.5196 112.629 72.4508 112.636C72.3876 112.642 72.3497 112.624 72.3228 112.602C72.292 112.577 72.2723 112.544 72.2579 112.517L72.2556 112.512C72.253 112.507 72.2498 112.501 72.2473 112.497C72.2456 112.494 72.2423 112.488 72.238 112.482C72.2358 112.479 72.232 112.474 72.2265 112.469C72.222 112.464 72.2105 112.453 72.1919 112.445C72.1699 112.435 72.1344 112.429 72.0973 112.444C72.0657 112.458 72.0509 112.48 72.0456 112.489C72.0357 112.506 72.0334 112.523 72.033 112.527C72.0323 112.531 72.0319 112.536 72.0317 112.541L72.0315 112.545C72.0156 112.553 71.9861 112.561 71.9418 112.566C71.8589 112.576 71.7565 112.574 71.6807 112.567C71.5035 112.484 71.4416 112.337 71.4423 112.165C71.4431 111.993 71.5086 111.812 71.5733 111.691C72.941 110.676 73.3578 109.236 73.3953 108.632L73.3957 108.626L73.3953 108.62C73.3681 108.234 73.3615 107.975 73.3681 107.798C73.3748 107.62 73.3947 107.53 73.4162 107.477C73.4321 107.437 73.4478 107.417 73.4718 107.386C73.4801 107.376 73.4893 107.364 73.4998 107.35C73.5418 107.293 73.5812 107.223 73.6113 107.095C73.7028 106.705 73.6497 106.286 73.6113 106.122L73.6103 106.118L73.6088 106.114C70.9416 98.3695 71.6504 91.8658 71.8663 90.7397C71.9557 90.2735 71.9733 89.1679 71.9606 87.9872C71.9479 86.8019 71.9042 85.5279 71.8678 84.7165L71.867 84.6992L71.8598 84.6832C70.7561 82.2406 70.5505 79.0716 70.7466 76.094C70.9425 73.1185 71.5386 70.3464 72.0278 68.7051L72.0336 68.6858L72.0305 68.6659C71.5526 65.5752 72.1231 63.4387 72.4583 62.7695L72.4683 62.7496L72.468 62.7278C72.4589 61.926 72.448 60.705 72.4448 59.6485C72.4432 59.1201 72.4436 58.6332 72.447 58.2604C72.4505 57.8829 72.4573 57.6321 72.467 57.5676C72.475 57.5144 72.4666 57.4511 72.4518 57.387C72.4366 57.3208 72.4123 57.2449 72.3819 57.1631C72.321 56.9992 72.2328 56.8045 72.134 56.6036C71.9362 56.2015 71.6921 55.7672 71.5276 55.4898L71.3519 55.1935L71.3225 55.5285C71.1244 57.7828 70.6716 58.9992 70.4234 59.4194C70.4155 59.4328 70.4123 59.4463 70.4119 59.448C70.4108 59.4526 70.4098 59.4572 70.4092 59.4611C70.4077 59.4689 70.4064 59.4783 70.4051 59.488C70.4025 59.5075 70.3997 59.532 70.3973 59.556C70.3949 59.5801 70.3928 59.6044 70.3914 59.6238C70.3907 59.6334 70.3901 59.6424 70.3898 59.6498C70.3897 59.6534 70.3896 59.6576 70.3896 59.6614C70.3896 59.6632 70.3895 59.6725 70.3915 59.6824C70.4284 59.8667 70.4749 60.3643 70.5038 61.4893C70.5143 61.8974 70.382 62.4949 70.1532 63.203C69.9252 63.9084 69.6046 64.7142 69.2457 65.5347C68.5278 67.1758 67.659 68.8705 67.078 69.9294L66.9397 70.1815L67.1878 70.077C67.2115 70.1055 67.2418 70.1585 67.2762 70.2398C67.3451 70.4028 67.4185 70.6497 67.4911 70.9536C67.6359 71.5598 67.7734 72.376 67.8652 73.1594C67.9571 73.9442 68.0022 74.6889 67.9646 75.1542C67.9552 75.2702 67.9409 75.3659 67.922 75.4391C67.9035 75.5105 67.8834 75.5492 67.8689 75.5664C67.8484 75.5555 67.8107 75.5248 67.757 75.4541C66.9893 74.4428 66.7941 73 66.7941 72.4052L66.5773 72.3884C66.3168 73.747 66.0708 74.8424 65.9793 75.2252C65.974 75.2473 65.9761 75.2689 65.9834 75.2882C66.1493 75.7256 66.1934 76.4717 66.1938 76.7997C66.1938 76.8166 66.1979 76.8322 66.2043 76.8459C66.6501 77.7904 66.6859 78.3949 66.6346 78.68C64.9894 77.0538 64.3574 75.125 64.2395 73.366C64.1209 71.5967 64.523 70.0046 64.9314 69.0782L64.937 69.0656L64.9386 69.0521C65.0659 67.9649 65.2488 66.2823 65.3835 64.7677C65.4508 64.0105 65.5061 63.2946 65.5365 62.7157C65.5666 62.1409 65.5727 61.6911 65.5382 61.473C65.4769 61.0854 65.6178 60.5622 65.8309 60.0536C66.0424 59.549 66.3175 59.0758 66.5055 58.7956L66.5293 58.7601L66.5179 58.72C66.1524 57.4352 66.2272 55.6411 66.4745 53.9107C66.7135 52.2377 67.1117 50.6367 67.4165 49.6374H67.4488C67.4488 49.5973 67.4492 49.5572 67.4499 49.517C67.4701 48.3812 67.7748 47.1838 68.2971 46.2481C68.8218 45.3083 69.5512 44.6564 70.4082 44.5607C71.3496 44.4557 72.533 44.1157 73.594 43.7196C74.6535 43.3241 75.6063 42.8671 76.0825 42.5217C76.4791 42.234 76.7015 41.8013 76.8208 41.3883C76.9405 40.9742 76.9603 40.5676 76.9414 40.3166L76.9389 40.2829L76.9139 40.2577C75.6259 38.9546 75.379 37.477 75.4139 36.9136L75.4152 36.8923L75.4066 36.8724C75.0158 35.9662 74.9427 35.4257 74.9954 35.1214C75.0215 34.9709 75.0769 34.8855 75.1313 34.839C75.1848 34.7934 75.2448 34.7787 75.2985 34.7816L75.42 34.788L75.4139 34.6783C75.3062 32.716 75.9942 31.5723 76.8682 30.9332Z" fill="url(#paint1_linear_595_3378)"/>
<path d="M63 144.08V145C62.9988 147.156 62.3005 149.255 61.0093 150.982C59.7182 152.709 57.9033 153.972 55.8354 154.584C53.7674 155.195 51.5573 155.122 49.5345 154.375C47.5117 153.627 45.7847 152.246 44.611 150.437C43.4373 148.628 42.8798 146.488 43.0217 144.336C43.1636 142.185 43.9972 140.136 45.3983 138.497C46.7994 136.858 48.6928 135.715 50.7962 135.24C52.8996 134.765 55.1003 134.982 57.07 135.86" stroke="#00A499" stroke-width="2" stroke-linecap="round" stroke-linejoin="round"/>
<path d="M63 137L53 147.01L50 144.01" stroke="#00A499" stroke-width="2" stroke-linecap="round" stroke-linejoin="round"/>
<path d="M76.4972 151.5V139.136H83.9105V140.464H77.9943V144.642H83.3551V145.97H77.9943V151.5H76.4972ZM86.1819 151.5V142.227H87.5583V143.628H87.6549C87.824 143.169 88.1298 142.797 88.5725 142.511C89.0152 142.225 89.5143 142.082 90.0697 142.082C90.1743 142.082 90.3051 142.084 90.4621 142.088C90.6191 142.092 90.7378 142.098 90.8183 142.107V143.555C90.77 143.543 90.6593 143.525 90.4862 143.501C90.3172 143.473 90.1381 143.459 89.949 143.459C89.4982 143.459 89.0957 143.553 88.7416 143.743C88.3914 143.928 88.1137 144.185 87.9085 144.515C87.7072 144.841 87.6066 145.214 87.6066 145.632V151.5H86.1819ZM95.9919 151.693C95.1548 151.693 94.4203 151.494 93.7884 151.096C93.1606 150.697 92.6696 150.14 92.3154 149.423C91.9653 148.707 91.7902 147.87 91.7902 146.912C91.7902 145.946 91.9653 145.103 92.3154 144.382C92.6696 143.662 93.1606 143.103 93.7884 142.704C94.4203 142.306 95.1548 142.107 95.9919 142.107C96.829 142.107 97.5615 142.306 98.1894 142.704C98.8212 143.103 99.3122 143.662 99.6624 144.382C100.017 145.103 100.194 145.946 100.194 146.912C100.194 147.87 100.017 148.707 99.6624 149.423C99.3122 150.14 98.8212 150.697 98.1894 151.096C97.5615 151.494 96.829 151.693 95.9919 151.693ZM95.9919 150.413C96.6278 150.413 97.151 150.25 97.5615 149.924C97.972 149.598 98.2759 149.17 98.4731 148.638C98.6703 148.107 98.7689 147.532 98.7689 146.912C98.7689 146.292 98.6703 145.715 98.4731 145.179C98.2759 144.644 97.972 144.211 97.5615 143.881C97.151 143.551 96.6278 143.386 95.9919 143.386C95.356 143.386 94.8328 143.551 94.4223 143.881C94.0118 144.211 93.7079 144.644 93.5107 145.179C93.3135 145.715 93.2149 146.292 93.2149 146.912C93.2149 147.532 93.3135 148.107 93.5107 148.638C93.7079 149.17 94.0118 149.598 94.4223 149.924C94.8328 150.25 95.356 150.413 95.9919 150.413ZM103.793 145.922V151.5H102.368V142.227H103.745V143.676H103.866C104.083 143.205 104.413 142.827 104.856 142.541C105.298 142.251 105.87 142.107 106.57 142.107C107.198 142.107 107.747 142.235 108.218 142.493C108.689 142.746 109.055 143.133 109.317 143.652C109.579 144.167 109.709 144.819 109.709 145.608V151.5H108.285V145.705C108.285 144.976 108.095 144.409 107.717 144.002C107.339 143.592 106.82 143.386 106.16 143.386C105.705 143.386 105.298 143.485 104.94 143.682C104.586 143.879 104.306 144.167 104.101 144.545C103.896 144.924 103.793 145.383 103.793 145.922ZM116.345 142.227V143.435H111.54V142.227H116.345ZM112.941 140.006H114.365V148.844C114.365 149.246 114.424 149.548 114.54 149.749C114.661 149.946 114.814 150.079 114.999 150.148C115.188 150.212 115.388 150.244 115.597 150.244C115.754 150.244 115.883 150.236 115.983 150.22C116.084 150.2 116.164 150.184 116.225 150.172L116.514 151.452C116.418 151.488 116.283 151.524 116.11 151.56C115.937 151.601 115.718 151.621 115.452 151.621C115.05 151.621 114.655 151.534 114.269 151.361C113.886 151.188 113.568 150.924 113.315 150.57C113.065 150.216 112.941 149.769 112.941 149.23V140.006Z" fill="#000000"/>
<rect x="1" y="1" width="158" height="178" rx="3" stroke="#00A499" stroke-width="2"/>
<defs>
<linearGradient id="paint0_linear_595_3378" x1="68.7909" y1="30.9022" x2="91.4392" y2="31.136" gradientUnits="userSpaceOnUse">
<stop stop-color="#009E94"/>
<stop offset="1" stop-color="#00B594"/>
</linearGradient>
<linearGradient id="paint1_linear_595_3378" x1="68.7909" y1="30.9022" x2="91.4392" y2="31.136" gradientUnits="userSpaceOnUse">
<stop stop-color="#009E94"/>
<stop offset="1" stop-color="#00B594"/>
</linearGradient>
</defs>
</svg>
