<svg width="160" height="180" viewBox="0 0 160 180" fill="none" xmlns="http://www.w3.org/2000/svg">
<rect x="1" y="1" width="158" height="178" rx="3" fill="none"/>
<path d="M77.1769 113C77.9864 112.735 80.0328 112.364 81.7424 113H85.4338C85.9195 112.546 86.5412 111.592 85.1423 111.411L85.1268 111.409C83.3777 111.182 80.6719 110.83 79.9939 106.53C79.4499 103.079 80.1558 98.5836 80.5768 96.7673V92.7943C81.0948 92.4537 81.9756 90.9553 81.3539 87.6861C83.6075 85.2342 83.7824 76.4481 83.5881 72.3615C84.009 70.0912 84.8315 65.4371 84.7538 64.983C85.0452 64.3019 84.4624 59.5343 85.4338 53.2909C85.8223 53.5634 85.8547 53.0261 85.8223 52.7234C85.4014 50.7936 83.7047 46.1849 80.2853 43.1881C80.5185 42.2799 80.7063 41.3718 80.771 41.0313C81.1272 41.4097 82.0921 42.0529 83.1024 41.5989C83.491 41.4172 83.2643 40.4637 83.1024 40.0096C83.3938 39.7448 83.8601 38.988 83.3938 38.0799C83.8601 38.0799 84.1709 37.8528 84.2681 37.7393L83.3938 36.1501C83.6205 35.0528 83.7435 32.5857 82.4224 31.496V30.4744C79.6054 29.5662 74.2238 29.3392 75.2341 35.6961C77.4878 39.1469 76.5617 42.1286 75.817 43.1881C74.5865 44.8908 72.7472 49.7039 75.2341 55.3342C76.7884 61.6911 76.7236 65.0965 76.497 66.0047C75.2342 67.8966 73.4662 72.6567 76.497 76.5616C75.2342 83.259 75.817 86.3239 76.497 87.3456C76.3027 88.8213 76.5941 88.3672 76.1084 89.6159C75.7199 90.6148 75.9465 91.924 76.1084 92.4537C75.4932 94.1186 74.6319 98.8787 76.1084 104.6C76.9632 107.506 76.7236 109.822 76.497 110.616C76.2379 111.222 76.0111 112.546 77.1769 113Z" fill="url(#paint0_linear_595_3364)"/>
<path d="M45 144.08V145C44.9988 147.156 44.3005 149.255 43.0093 150.982C41.7182 152.709 39.9033 153.972 37.8354 154.584C35.7674 155.195 33.5573 155.122 31.5345 154.375C29.5117 153.627 27.7847 152.246 26.611 150.437C25.4373 148.628 24.8798 146.488 25.0217 144.336C25.1636 142.185 25.9972 140.136 27.3983 138.497C28.7994 136.858 30.6928 135.715 32.7962 135.24C34.8996 134.765 37.1003 134.982 39.07 135.86" stroke="#00A499" stroke-width="2" stroke-linecap="round" stroke-linejoin="round"/>
<path d="M45 137L35 147.01L32 144.01" stroke="#00A499" stroke-width="2" stroke-linecap="round" stroke-linejoin="round"/>
<path d="M58.4972 151.5V139.136H62.6747C63.6406 139.136 64.4335 139.301 65.0533 139.631C65.6731 139.957 66.1319 140.406 66.4297 140.978C66.7275 141.549 66.8764 142.199 66.8764 142.928C66.8764 143.656 66.7275 144.302 66.4297 144.865C66.1319 145.429 65.6751 145.872 65.0593 146.194C64.4435 146.511 63.6567 146.67 62.6989 146.67H59.3182V145.318H62.6506C63.3106 145.318 63.8419 145.222 64.2443 145.028C64.6508 144.835 64.9446 144.562 65.1257 144.207C65.3108 143.849 65.4034 143.423 65.4034 142.928C65.4034 142.433 65.3108 142 65.1257 141.63C64.9406 141.259 64.6448 140.974 64.2383 140.772C63.8318 140.567 63.2945 140.464 62.6264 140.464H59.9943V151.5H58.4972ZM64.3168 145.946L67.3594 151.5H65.6207L62.6264 145.946H64.3168ZM69.178 151.5V142.227H70.6027V151.5H69.178ZM69.9024 140.682C69.6247 140.682 69.3853 140.587 69.184 140.398C68.9868 140.209 68.8882 139.982 68.8882 139.716C68.8882 139.45 68.9868 139.223 69.184 139.034C69.3853 138.845 69.6247 138.75 69.9024 138.75C70.1801 138.75 70.4176 138.845 70.6148 139.034C70.816 139.223 70.9166 139.45 70.9166 139.716C70.9166 139.982 70.816 140.209 70.6148 140.398C70.4176 140.587 70.1801 140.682 69.9024 140.682ZM76.9551 155.17C76.2669 155.17 75.6752 155.082 75.1802 154.905C74.6852 154.732 74.2727 154.502 73.9426 154.217C73.6167 153.935 73.3571 153.633 73.1639 153.311L74.2988 152.514C74.4276 152.683 74.5906 152.876 74.7878 153.094C74.985 153.315 75.2547 153.506 75.5968 153.667C75.9429 153.832 76.3957 153.915 76.9551 153.915C77.7037 153.915 78.3214 153.734 78.8084 153.371C79.2954 153.009 79.5389 152.442 79.5389 151.669V149.786H79.4181C79.3135 149.955 79.1646 150.164 78.9714 150.413C78.7823 150.659 78.5086 150.878 78.1504 151.071C77.7962 151.261 77.3173 151.355 76.7136 151.355C75.965 151.355 75.2929 151.178 74.6973 150.824C74.1056 150.47 73.6368 149.955 73.2907 149.278C72.9486 148.602 72.7775 147.781 72.7775 146.815C72.7775 145.866 72.9445 145.038 73.2786 144.334C73.6126 143.626 74.0775 143.078 74.6731 142.692C75.2688 142.302 75.957 142.107 76.7377 142.107C77.3414 142.107 77.8204 142.207 78.1745 142.408C78.5327 142.606 78.8064 142.831 78.9956 143.085C79.1887 143.334 79.3377 143.539 79.4423 143.7H79.5872V142.227H80.9636V151.766C80.9636 152.562 80.7825 153.21 80.4203 153.71C80.0621 154.213 79.5791 154.581 78.9714 154.814C78.3677 155.052 77.6956 155.17 76.9551 155.17ZM76.9068 150.075C77.4783 150.075 77.9612 149.944 78.3556 149.683C78.7501 149.421 79.0499 149.045 79.2551 148.554C79.4604 148.063 79.563 147.475 79.563 146.791C79.563 146.123 79.4624 145.533 79.2612 145.022C79.06 144.511 78.7621 144.111 78.3677 143.821C77.9733 143.531 77.4863 143.386 76.9068 143.386C76.3031 143.386 75.8 143.539 75.3975 143.845C74.9991 144.151 74.6993 144.562 74.498 145.077C74.3008 145.592 74.2022 146.163 74.2022 146.791C74.2022 147.435 74.3029 148.005 74.5041 148.5C74.7093 148.991 75.0112 149.377 75.4096 149.659C75.8121 149.936 76.3111 150.075 76.9068 150.075ZM84.9963 145.922V151.5H83.5716V139.136H84.9963V143.676H85.117C85.3343 143.197 85.6603 142.817 86.095 142.535C86.5337 142.249 87.1172 142.107 87.8457 142.107C88.4776 142.107 89.031 142.233 89.5059 142.487C89.9808 142.736 90.349 143.121 90.6106 143.64C90.8762 144.155 91.0091 144.811 91.0091 145.608V151.5H89.5843V145.705C89.5843 144.968 89.3932 144.399 89.0108 143.996C88.6325 143.59 88.1073 143.386 87.4352 143.386C86.9683 143.386 86.5498 143.485 86.1795 143.682C85.8133 143.879 85.5235 144.167 85.3102 144.545C85.1009 144.924 84.9963 145.383 84.9963 145.922ZM97.6482 142.227V143.435H92.8428V142.227H97.6482ZM94.2433 140.006H95.6681V148.844C95.6681 149.246 95.7264 149.548 95.8431 149.749C95.9639 149.946 96.1168 150.079 96.3019 150.148C96.4911 150.212 96.6903 150.244 96.8996 150.244C97.0566 150.244 97.1853 150.236 97.286 150.22C97.3866 150.2 97.4671 150.184 97.5274 150.172L97.8172 151.452C97.7206 151.488 97.5858 151.524 97.4127 151.56C97.2397 151.601 97.0203 151.621 96.7547 151.621C96.3522 151.621 95.9578 151.534 95.5715 151.361C95.1891 151.188 94.8712 150.924 94.6176 150.57C94.3681 150.216 94.2433 149.769 94.2433 149.23V140.006ZM111.141 144.304L109.861 144.666C109.78 144.453 109.662 144.246 109.505 144.044C109.352 143.839 109.142 143.67 108.877 143.537C108.611 143.404 108.271 143.338 107.857 143.338C107.289 143.338 106.816 143.469 106.438 143.73C106.064 143.988 105.877 144.316 105.877 144.714C105.877 145.069 106.005 145.348 106.263 145.554C106.52 145.759 106.923 145.93 107.47 146.067L108.847 146.405C109.676 146.606 110.294 146.914 110.7 147.328C111.107 147.739 111.31 148.268 111.31 148.916C111.31 149.447 111.157 149.922 110.851 150.341C110.549 150.759 110.127 151.089 109.583 151.331C109.04 151.572 108.408 151.693 107.688 151.693C106.742 151.693 105.959 151.488 105.339 151.077C104.719 150.667 104.327 150.067 104.162 149.278L105.514 148.94C105.643 149.439 105.887 149.814 106.245 150.063C106.607 150.313 107.08 150.438 107.663 150.438C108.328 150.438 108.855 150.297 109.245 150.015C109.64 149.729 109.837 149.387 109.837 148.989C109.837 148.667 109.724 148.397 109.499 148.18C109.273 147.958 108.927 147.793 108.46 147.685L106.915 147.322C106.066 147.121 105.442 146.809 105.043 146.387C104.649 145.96 104.452 145.427 104.452 144.787C104.452 144.264 104.599 143.801 104.892 143.398C105.19 142.996 105.595 142.68 106.106 142.451C106.621 142.221 107.205 142.107 107.857 142.107C108.774 142.107 109.495 142.308 110.018 142.71C110.545 143.113 110.919 143.644 111.141 144.304ZM113.454 151.5V142.227H114.879V151.5H113.454ZM114.179 140.682C113.901 140.682 113.662 140.587 113.46 140.398C113.263 140.209 113.165 139.982 113.165 139.716C113.165 139.45 113.263 139.223 113.46 139.034C113.662 138.845 113.901 138.75 114.179 138.75C114.456 138.75 114.694 138.845 114.891 139.034C115.092 139.223 115.193 139.45 115.193 139.716C115.193 139.982 115.092 140.209 114.891 140.398C114.694 140.587 114.456 140.682 114.179 140.682ZM120.99 151.693C120.217 151.693 119.535 151.498 118.943 151.108C118.352 150.713 117.889 150.158 117.555 149.441C117.221 148.721 117.054 147.87 117.054 146.888C117.054 145.914 117.221 145.069 117.555 144.352C117.889 143.636 118.354 143.083 118.949 142.692C119.545 142.302 120.233 142.107 121.014 142.107C121.618 142.107 122.095 142.207 122.445 142.408C122.799 142.606 123.069 142.831 123.254 143.085C123.443 143.334 123.59 143.539 123.695 143.7H123.815V139.136H125.24V151.5H123.864V150.075H123.695C123.59 150.244 123.441 150.458 123.248 150.715C123.055 150.969 122.779 151.196 122.421 151.397C122.063 151.595 121.586 151.693 120.99 151.693ZM121.183 150.413C121.755 150.413 122.238 150.264 122.632 149.967C123.026 149.665 123.326 149.248 123.532 148.717C123.737 148.182 123.839 147.564 123.839 146.864C123.839 146.171 123.739 145.566 123.538 145.047C123.336 144.523 123.039 144.117 122.644 143.827C122.25 143.533 121.763 143.386 121.183 143.386C120.579 143.386 120.076 143.541 119.674 143.851C119.275 144.157 118.976 144.574 118.774 145.101C118.577 145.624 118.479 146.212 118.479 146.864C118.479 147.524 118.579 148.123 118.78 148.663C118.986 149.198 119.288 149.625 119.686 149.942C120.088 150.256 120.588 150.413 121.183 150.413ZM131.935 151.693C131.041 151.693 130.271 151.496 129.623 151.102C128.979 150.703 128.482 150.148 128.132 149.435C127.786 148.719 127.612 147.886 127.612 146.936C127.612 145.986 127.786 145.149 128.132 144.425C128.482 143.696 128.969 143.129 129.593 142.722C130.22 142.312 130.953 142.107 131.79 142.107C132.273 142.107 132.75 142.187 133.221 142.348C133.692 142.509 134.12 142.771 134.507 143.133C134.893 143.491 135.201 143.966 135.43 144.558C135.66 145.149 135.774 145.878 135.774 146.743V147.347H128.627V146.115H134.326C134.326 145.592 134.221 145.125 134.012 144.714C133.806 144.304 133.513 143.98 133.13 143.743C132.752 143.505 132.305 143.386 131.79 143.386C131.223 143.386 130.732 143.527 130.317 143.809C129.907 144.087 129.591 144.449 129.369 144.896C129.148 145.342 129.037 145.821 129.037 146.332V147.153C129.037 147.854 129.158 148.447 129.399 148.934C129.645 149.417 129.985 149.786 130.42 150.039C130.854 150.289 131.359 150.413 131.935 150.413C132.309 150.413 132.647 150.361 132.949 150.256C133.255 150.148 133.519 149.987 133.74 149.773C133.961 149.556 134.132 149.286 134.253 148.964L135.63 149.351C135.485 149.818 135.241 150.228 134.899 150.582C134.557 150.933 134.134 151.206 133.631 151.403C133.128 151.597 132.563 151.693 131.935 151.693Z" 
fill="#000000"/>
<rect x="1" y="1" width="158" height="178" rx="3" stroke="#00A499" stroke-width="2"/>
<defs>
<linearGradient id="paint0_linear_595_3364" x1="75.8545" y1="30.9022" x2="84.6224" y2="30.9372" gradientUnits="userSpaceOnUse">
<stop stop-color="#009E94"/>
<stop offset="1" stop-color="#00B594"/>
</linearGradient>
</defs>
</svg>
