<svg width="15" height="40" viewBox="0 0 15 40" fill="none" xmlns="http://www.w3.org/2000/svg">
<path fill-rule="evenodd" clip-rule="evenodd" d="M7.51044 0.00600226C7.14737 -0.0240413 6.60395 0.0525628 6.16002 0.375875C5.71293 0.70149 5.37467 1.27147 5.41508 2.21373C5.37979 2.22083 5.34464 2.23655 5.31351 2.26301C5.26559 2.30375 5.23105 2.36657 5.21594 2.45345C5.18622 2.62431 5.22922 2.90137 5.41676 3.33698C5.40215 3.63551 5.53173 4.35609 6.15759 4.99432C6.16406 5.10731 6.15356 5.28443 6.10136 5.46433C6.04649 5.65346 5.94728 5.83977 5.78018 5.96048C5.56181 6.11822 5.1121 6.33436 4.60185 6.52405C4.0923 6.71349 3.52975 6.8738 3.08776 6.92292C2.62049 6.97485 2.24447 7.32447 1.98487 7.78765C1.72511 8.25113 1.57474 8.8399 1.56373 9.39807C1.41363 9.8801 1.21216 10.677 1.0925 11.5111C0.973775 12.3387 0.934606 13.2092 1.11053 13.8453C1.01734 13.986 0.887819 14.2106 0.787086 14.45C0.682994 14.6974 0.605974 14.969 0.639667 15.1812C0.654659 15.2756 0.652566 15.4827 0.637875 15.7621C0.623285 16.0396 0.596608 16.3834 0.56407 16.7479C0.499267 17.4738 0.411338 18.2802 0.349808 18.8038C0.147757 19.2632 -0.0477332 20.0413 0.0104009 20.905C0.0688373 21.7732 0.383822 22.7305 1.20926 23.5366C1.23335 23.5601 1.26822 23.5708 1.30155 23.565C1.33636 23.559 1.36562 23.5354 1.37395 23.5003C1.41033 23.3471 1.39562 23.031 1.16718 22.5462C1.16636 22.3857 1.14539 22.0291 1.06349 21.805C1.10077 21.6488 1.1837 21.2817 1.27911 20.8097C1.33274 21.1529 1.46138 21.6059 1.73072 21.9593C1.76149 21.9997 1.79418 22.0321 1.83029 22.0472C1.84982 22.0554 1.8723 22.0593 1.89569 22.0544C1.9188 22.0497 1.93674 22.0377 1.95004 22.024C1.97498 21.9984 1.99019 21.9603 2.00066 21.92C2.01157 21.878 2.01903 21.8265 2.02377 21.768C2.0427 21.5348 2.01996 21.1689 1.97536 20.7897C1.93067 20.4098 1.8636 20.0129 1.79257 19.7167C1.75714 19.5689 1.72028 19.4442 1.68401 19.3588C1.66615 19.3167 1.64691 19.2804 1.62568 19.2556C1.62097 19.2501 1.61557 19.2444 1.60941 19.2391C1.89098 18.7248 2.29814 17.9305 2.63654 17.1601C2.81087 16.7632 2.96725 16.3719 3.07881 16.0281C3.18993 15.6856 3.25815 15.3856 3.25266 15.1733C3.23889 14.6398 3.21685 14.392 3.19749 14.292L3.19756 14.2905C3.19767 14.2885 3.19784 14.2859 3.19807 14.2828C3.19868 14.2744 3.19964 14.2634 3.20075 14.2524C3.20186 14.2413 3.20308 14.2306 3.20416 14.2224C3.20447 14.2201 3.205 14.2165 3.205 14.2165C3.32869 14.0039 3.53094 13.453 3.63287 12.4731C3.6992 12.59 3.7745 12.7286 3.83921 12.8596C3.88643 12.9552 3.92759 13.0459 3.95554 13.1209C3.96953 13.1583 3.9799 13.191 3.98612 13.2179C3.99258 13.2458 3.99362 13.2635 3.99222 13.2728C3.98636 13.3116 3.98325 13.4407 3.98159 13.6187C3.97991 13.7989 3.97975 14.0339 3.98052 14.2887C3.98204 14.7936 3.98725 15.3764 3.99162 15.7631C3.81953 16.1145 3.55102 17.1538 3.77958 18.6377C3.54167 19.4355 3.25385 20.773 3.15896 22.2083C3.06397 23.6451 3.16185 25.1858 3.70177 26.3815C3.71928 26.7722 3.74012 27.3805 3.74623 27.9466C3.75241 28.5189 3.74336 29.0417 3.70213 29.2559C3.59542 29.8104 3.25215 32.9591 4.54774 36.7073C4.56433 36.7796 4.58709 36.965 4.54725 37.1344C4.53542 37.1847 4.52151 37.2071 4.50881 37.2242C4.50628 37.2276 4.5034 37.2313 4.50027 37.2352C4.48719 37.2517 4.46985 37.2735 4.45687 37.3057C4.44089 37.3454 4.43071 37.4003 4.42734 37.4898C4.42397 37.5793 4.42734 37.7065 4.44041 37.8925C4.42228 38.167 4.22712 38.8351 3.58886 39.3019L3.58016 39.3082L3.57509 39.3172C3.53748 39.3838 3.49593 39.491 3.49545 39.5973C3.49495 39.7054 3.53799 39.82 3.67863 39.8803L3.68655 39.8837L3.69527 39.8847C3.73725 39.8891 3.80147 39.8919 3.85699 39.8852C3.88422 39.8819 3.91423 39.8757 3.9389 39.8632C3.9441 39.8686 3.95007 39.8739 3.95642 39.879C3.98957 39.9058 4.03722 39.9253 4.10071 39.919C4.15238 39.9138 4.21092 39.892 4.27839 39.8494C4.32373 39.8836 4.38667 39.9176 4.45782 39.9297C4.50461 39.9376 4.55566 39.9361 4.60666 39.9181C4.64273 39.9053 4.67705 39.8849 4.70885 39.8561C4.75672 39.892 4.82073 39.9272 4.89058 39.9401C4.93856 39.949 4.99091 39.9475 5.04176 39.9267C5.07574 39.9127 5.10681 39.8911 5.1344 39.8614C5.27366 39.97 5.60626 40.1021 5.97498 39.8768C6.3338 39.6574 6.39942 39.4387 6.36747 39.3313L6.315 37.745C6.3417 37.5522 6.32382 37.0785 6.04301 36.6704C6.0141 36.6284 5.99072 36.5623 5.97444 36.4728C5.95832 36.3842 5.94981 36.2764 5.94787 36.1539C5.94398 35.9088 5.96635 35.6085 6.00376 35.2914C6.07855 34.6574 6.21287 33.9607 6.31384 33.5128L6.31416 33.5113C6.3856 33.1317 6.47304 31.7577 6.26257 29.2678C6.33452 28.9917 6.48338 28.1849 6.52575 27.0792C6.74378 26.5672 7.21616 24.9583 7.5 22.3588C7.78384 24.9583 8.25622 26.5672 8.47425 27.0792C8.51662 28.1849 8.66548 28.9917 8.73743 29.2678C8.52696 31.7578 8.6144 33.1317 8.68584 33.5113L8.68616 33.5128C8.78713 33.9607 8.92145 34.6574 8.99624 35.2914C9.03365 35.6085 9.05602 35.9088 9.05213 36.1539C9.05018 36.2764 9.04168 36.3842 9.02556 36.4728C9.00928 36.5623 8.9859 36.6284 8.95699 36.6704C8.67618 37.0785 8.6583 37.5522 8.685 37.745L8.63253 39.3313C8.60058 39.4387 8.6662 39.6574 9.02502 39.8768C9.39374 40.1021 9.72634 39.97 9.8656 39.8614C9.89319 39.8911 9.92425 39.9127 9.95824 39.9267C10.0091 39.9475 10.0614 39.949 10.1094 39.9401C10.1793 39.9272 10.2433 39.892 10.2911 39.8561C10.323 39.8849 10.3573 39.9053 10.3933 39.9181C10.4443 39.9361 10.4954 39.9376 10.5422 39.9297C10.6133 39.9176 10.6763 39.8836 10.7216 39.8494C10.7891 39.892 10.8476 39.9138 10.8993 39.919C10.9628 39.9253 11.0104 39.9058 11.0436 39.879C11.0499 39.8739 11.0557 39.8685 11.0609 39.8631C11.0855 39.8756 11.1158 39.8819 11.143 39.8852C11.1985 39.8919 11.2627 39.8891 11.3047 39.8847L11.3134 39.8837L11.3214 39.8803C11.462 39.82 11.505 39.7054 11.5046 39.5973C11.5041 39.491 11.4625 39.3838 11.4249 39.3172L11.4198 39.3082L11.4111 39.3019C10.7729 38.8351 10.5777 38.167 10.5596 37.8925C10.5727 37.7065 10.576 37.5793 10.5727 37.4898C10.5693 37.4003 10.5591 37.3454 10.5431 37.3057C10.5302 37.2735 10.5128 37.2517 10.4997 37.2352C10.4984 37.2336 10.496 37.2304 10.496 37.2304C10.4943 37.2283 10.4927 37.2262 10.4912 37.2242C10.4785 37.2071 10.4646 37.1847 10.4528 37.1344C10.4129 36.965 10.4357 36.7796 10.4523 36.7073C11.7478 32.9591 11.4046 29.8104 11.2979 29.2559C11.2566 29.0417 11.2476 28.5189 11.2538 27.9466C11.2599 27.3805 11.2807 26.7722 11.2982 26.3815C11.8381 25.1858 11.936 23.6451 11.841 22.2083C11.7461 20.773 11.4583 19.4355 11.2204 18.6377C11.449 17.1538 11.1805 16.1145 11.0084 15.7631C11.0128 15.3764 11.018 14.7937 11.0195 14.2887C11.0203 14.0339 11.0201 13.7989 11.0184 13.6187C11.0167 13.4407 11.0136 13.3116 11.0078 13.2728C11.0064 13.2635 11.0074 13.2458 11.0139 13.2179C11.0201 13.191 11.0305 13.1583 11.0445 13.1209C11.0724 13.0459 11.1136 12.9552 11.1608 12.8596C11.2255 12.7286 11.3008 12.59 11.3671 12.4731C11.4691 13.453 11.6713 14.0039 11.795 14.2165C11.795 14.2165 11.7955 14.2201 11.7958 14.2224C11.7969 14.2306 11.7981 14.2413 11.7992 14.2524C11.8 14.2595 11.8006 14.2665 11.8011 14.2728C11.8014 14.2764 11.8017 14.2797 11.8019 14.2828C11.8022 14.2867 11.8024 14.2898 11.8025 14.292C11.7831 14.392 11.7611 14.6398 11.7473 15.1733C11.7419 15.3856 11.8101 15.6856 11.9212 16.0281C12.0327 16.3719 12.1891 16.7632 12.3635 17.1601C12.7019 17.9306 13.109 18.7248 13.3906 19.2391C13.3844 19.2444 13.379 19.2501 13.3743 19.2556C13.3531 19.2805 13.3338 19.3167 13.316 19.3588C13.2797 19.4442 13.2429 19.5689 13.2074 19.7167C13.1364 20.0129 13.0693 20.4098 13.0246 20.7897C12.98 21.1689 12.9573 21.5348 12.9762 21.768C12.981 21.8265 12.9884 21.878 12.9993 21.92C13.0098 21.9603 13.025 21.9984 13.05 22.024C13.0633 22.0377 13.0812 22.0497 13.1043 22.0544C13.1277 22.0593 13.1502 22.0554 13.1697 22.0472C13.2058 22.0321 13.2385 21.9997 13.2693 21.9593C13.5386 21.6059 13.6673 21.1529 13.7209 20.8097C13.8163 21.2817 13.8992 21.6488 13.9365 21.805C13.8546 22.0291 13.8336 22.3858 13.8328 22.5462C13.6044 23.031 13.5897 23.3471 13.626 23.5003C13.6344 23.5354 13.6636 23.559 13.6984 23.565C13.7318 23.5708 13.7666 23.5601 13.7907 23.5366C14.6162 22.7305 14.9312 21.7732 14.9896 20.905C15.0477 20.0413 14.8522 19.2632 14.6502 18.8038C14.5887 18.2802 14.5007 17.4738 14.4359 16.7479C14.4034 16.3834 14.3767 16.0396 14.3621 15.7621C14.3474 15.4827 14.3453 15.2756 14.3603 15.1812C14.394 14.9694 14.3173 14.6985 14.2135 14.4515C14.1127 14.2116 13.9829 13.9863 13.8895 13.8453C14.0655 13.2089 14.0262 12.3378 13.9073 11.5098C13.7876 10.6762 13.5863 9.87986 13.4363 9.39807C13.4253 8.8399 13.2749 8.25113 13.0151 7.78765C12.7555 7.32447 12.3795 6.97485 11.9122 6.92292C11.4703 6.8738 10.9077 6.71349 10.3981 6.52405C9.8879 6.33436 9.43819 6.11822 9.21982 5.96048C9.05272 5.83977 8.95351 5.65346 8.89864 5.46434C8.84644 5.28443 8.83594 5.10731 8.84241 4.99432C9.46827 4.3561 9.59785 3.63552 9.58324 3.33698C9.77078 2.90138 9.81378 2.62431 9.78406 2.45345C9.76895 2.36657 9.73441 2.30375 9.68649 2.26301C9.65536 2.23655 9.62021 2.22083 9.58492 2.21373C9.62548 1.27172 9.29257 0.701768 8.85066 0.376052C8.41179 0.0525734 7.87336 -0.0240439 7.51044 0.00600226ZM7.50261 0.10078C7.16131 0.0720992 6.6457 0.144443 6.22655 0.449712C5.80362 0.757725 5.47074 1.30891 5.52288 2.25459L5.52579 2.30746L5.46702 2.30437C5.44104 2.30301 5.41201 2.31006 5.38613 2.33206C5.3598 2.35444 5.33297 2.39562 5.32036 2.46813C5.29485 2.6148 5.33021 2.87526 5.51934 3.31199L5.5235 3.32159L5.52286 3.33188C5.50596 3.60335 5.62544 4.31546 6.24868 4.94346L6.26075 4.95561L6.26198 4.97186C6.27112 5.09282 6.26153 5.28877 6.20363 5.48832C6.14587 5.68739 6.0383 5.89591 5.84638 6.03455C5.61597 6.201 5.15493 6.42126 4.64224 6.61187C4.12885 6.80273 3.55628 6.9666 3.10072 7.01723C2.68608 7.06331 2.33312 7.37748 2.07926 7.83042C1.82651 8.28136 1.67909 8.85841 1.66929 9.40576C1.66895 9.42516 1.66877 9.4445 1.66877 9.46381H1.65312C1.50567 9.94539 1.31299 10.717 1.19732 11.5232C1.07769 12.3572 1.04147 13.2218 1.21834 13.841L1.22386 13.8603L1.21235 13.8774C1.12138 14.0124 0.988252 14.2405 0.88594 14.4837C0.782804 14.7288 0.714633 14.9809 0.744296 15.1677C0.760982 15.2728 0.758015 15.4896 0.743448 15.7666C0.728779 16.0456 0.702 16.3906 0.669422 16.7555C0.60426 17.4855 0.515778 18.2963 0.454151 18.8203L0.453386 18.8268L0.450698 18.8329C0.253049 19.2793 0.058507 20.0466 0.115898 20.8993C0.172954 21.747 0.478732 22.6765 1.2748 23.4602C1.29964 23.3228 1.2823 23.0315 1.0666 22.5763C1.06348 22.5697 1.06152 22.5622 1.06151 22.5541C1.06134 22.396 1.04 22.0365 0.959716 21.8256C0.956176 21.8163 0.955138 21.806 0.957704 21.7953C1.00201 21.6108 1.12105 21.0829 1.24707 20.4281L1.35199 20.4362C1.35199 20.7229 1.44644 21.4182 1.81791 21.9056C1.84387 21.9397 1.86214 21.9544 1.87205 21.9597C1.87907 21.9514 1.88881 21.9328 1.89774 21.8984C1.9069 21.8631 1.91383 21.817 1.91836 21.7611C1.93656 21.5368 1.91475 21.1779 1.87026 20.7997C1.82585 20.4222 1.75928 20.0288 1.68925 19.7367C1.65413 19.5902 1.61861 19.4712 1.58527 19.3927C1.56862 19.3535 1.55397 19.3279 1.54246 19.3142L1.42245 19.3646L1.48937 19.2431C1.77047 18.7328 2.19088 17.916 2.53824 17.1252C2.71193 16.7297 2.86704 16.3414 2.97735 16.0015C3.08808 15.6602 3.15208 15.3722 3.147 15.1756C3.133 14.6334 3.11052 14.3936 3.09268 14.3048C3.09172 14.3 3.09173 14.2946 3.09173 14.2946L3.09185 14.289C3.09199 14.2855 3.09226 14.2812 3.0926 14.2765C3.09328 14.2672 3.09432 14.2555 3.09549 14.2439C3.09665 14.2323 3.09797 14.2205 3.09923 14.2111C3.09985 14.2064 3.10052 14.2019 3.1012 14.1981C3.1012 14.1981 3.10198 14.194 3.10253 14.1918C3.10253 14.1918 3.10425 14.1845 3.10809 14.178C3.2282 13.9755 3.44729 13.3893 3.54313 12.3029L3.55737 12.1414L3.6424 12.2842C3.722 12.4179 3.8401 12.6272 3.93581 12.821C3.98362 12.9179 4.02628 13.0117 4.05575 13.0906C4.07047 13.1301 4.08221 13.1667 4.08959 13.1986C4.09675 13.2294 4.10082 13.26 4.09695 13.2856C4.09225 13.3167 4.08897 13.4376 4.08728 13.6195C4.0856 13.7991 4.08544 14.0338 4.08621 14.2884C4.08775 14.7976 4.09303 15.386 4.09742 15.7725L4.09754 15.783L4.09274 15.7925C3.93055 16.1151 3.65447 17.1447 3.88573 18.6342L3.88722 18.6437L3.88443 18.6531C3.64769 19.4441 3.35927 20.78 3.26446 22.214C3.16959 23.649 3.26907 25.1762 3.80313 26.3534L3.80663 26.3611L3.807 26.3694C3.82462 26.7604 3.84575 27.3744 3.85192 27.9456C3.85806 28.5146 3.84951 29.0475 3.80627 29.2721C3.70181 29.8149 3.35883 32.9492 4.64941 36.6813L4.65014 36.6834L4.65065 36.6855C4.66922 36.7645 4.69488 36.966 4.65065 37.1541C4.63608 37.216 4.61699 37.2497 4.5967 37.277C4.59159 37.2839 4.58713 37.2896 4.58313 37.2946C4.57153 37.3094 4.56391 37.3191 4.55624 37.3381C4.54582 37.3639 4.5362 37.4072 4.53297 37.493C4.52976 37.5784 4.53294 37.7029 4.54609 37.8893L4.54629 37.8922L4.54612 37.895C4.52799 38.1862 4.32629 38.8801 3.6645 39.369C3.63319 39.4273 3.60151 39.5149 3.60114 39.5976C3.60076 39.6804 3.63072 39.7511 3.71649 39.7911C3.75314 39.7945 3.80269 39.7959 3.8428 39.791C3.86423 39.7884 3.8785 39.7845 3.88623 39.7808L3.88631 39.7789C3.88642 39.7766 3.8866 39.7742 3.88691 39.7719C3.88691 39.7719 3.88823 39.762 3.89302 39.7537C3.89562 39.7493 3.90275 39.7386 3.91804 39.7322C3.93601 39.7247 3.95316 39.7279 3.9638 39.7326C3.97284 39.7365 3.97841 39.7418 3.98058 39.744C3.98323 39.7466 3.98613 39.7505 3.98613 39.7505C3.98821 39.7533 3.99061 39.7575 3.99061 39.7575C3.99183 39.7597 3.99338 39.7626 3.99465 39.765L3.99578 39.7672C4.00271 39.7803 4.01226 39.7963 4.02715 39.8084C4.0402 39.819 4.05854 39.8276 4.08909 39.8245C4.12238 39.8212 4.1742 39.8036 4.24946 39.7503L4.28726 39.7235L4.32045 39.7548C4.3553 39.7878 4.41458 39.8256 4.47741 39.8363C4.50784 39.8414 4.5383 39.8401 4.56798 39.8296C4.59764 39.8192 4.63 39.7983 4.66207 39.7593L4.69948 39.7139L4.74282 39.7548C4.78294 39.7927 4.84777 39.8352 4.91185 39.847C4.94262 39.8527 4.97144 39.8511 4.99792 39.8402C5.02441 39.8294 5.05359 39.8072 5.08103 39.764L5.16122 39.8052L5.19011 39.7784C5.2921 39.8674 5.5831 40.0014 5.91556 39.7982C6.26687 39.5834 6.28032 39.398 6.26448 39.3531L6.26224 39.3468L6.2091 37.7404L6.20964 37.7366C6.23497 37.5612 6.21953 37.1075 5.95312 36.7204C5.9134 36.6626 5.88723 36.5821 5.87013 36.4881C5.85287 36.3933 5.84418 36.2805 5.84219 36.1552C5.83821 35.9047 5.86105 35.6002 5.89866 35.2814C5.97386 34.6439 6.10869 33.9446 6.21009 33.4947C6.27935 33.1255 6.36753 31.7588 6.15656 29.2677L6.15593 29.2603L6.15784 29.253C6.22727 28.9907 6.37828 28.1827 6.42042 27.0679L6.42073 27.0599L6.42395 27.0524C6.64935 26.5283 7.17178 24.7478 7.44696 21.8373C7.44616 21.8288 7.44536 21.8203 7.44456 21.8118L7.4494 21.8114C7.44964 21.8089 7.44988 21.8063 7.45012 21.8038L7.50002 21.8076L7.54988 21.8038C7.55012 21.8063 7.55036 21.8089 7.55059 21.8114L7.55544 21.8118C7.55464 21.8203 7.55384 21.8288 7.55303 21.8373C7.82822 24.7478 8.35065 26.5283 8.57605 27.0524L8.57927 27.0599L8.57958 27.0679C8.62172 28.1827 8.77273 28.9907 8.84216 29.253L8.84406 29.2603L8.84344 29.2677C8.63247 31.7588 8.72065 33.1255 8.78991 33.4947C8.89131 33.9446 9.02614 34.6439 9.10134 35.2814C9.13895 35.6002 9.16179 35.9047 9.15781 36.1552C9.15582 36.2805 9.14713 36.3933 9.12987 36.4881C9.11277 36.5821 9.0866 36.6626 9.04687 36.7204C8.78047 37.1075 8.76503 37.5612 8.79036 37.7366L8.7909 37.7404L8.73776 39.3468L8.73552 39.3531C8.71968 39.398 8.73313 39.5834 9.08444 39.7982C9.4169 40.0014 9.7079 39.8674 9.80989 39.7784L9.83878 39.8052L9.91897 39.764C9.94641 39.8072 9.97559 39.8294 10.0021 39.8402C10.0286 39.8511 10.0574 39.8527 10.0882 39.847C10.1522 39.8352 10.2171 39.7927 10.2572 39.7548L10.3005 39.7139L10.3379 39.7593C10.37 39.7983 10.4024 39.8192 10.432 39.8296C10.4617 39.8401 10.4922 39.8414 10.5226 39.8363C10.5854 39.8256 10.6447 39.7878 10.6796 39.7548L10.7127 39.7235L10.7505 39.7503C10.8258 39.8036 10.8776 39.8212 10.9109 39.8245C10.9415 39.8276 10.9598 39.819 10.9728 39.8084C10.9877 39.7963 10.9973 39.7803 11.0042 39.7672L11.0053 39.765C11.0066 39.7626 11.0082 39.7597 11.0094 39.7575L11.0103 39.7559C11.0103 39.7559 11.0124 39.7525 11.0139 39.7505C11.0139 39.7505 11.0168 39.7466 11.0194 39.744C11.0216 39.7418 11.0272 39.7365 11.0362 39.7326C11.0468 39.7279 11.064 39.7247 11.082 39.7322C11.0972 39.7386 11.1044 39.7493 11.107 39.7537C11.1118 39.762 11.1131 39.7717 11.1131 39.7717C11.1135 39.7746 11.1137 39.7779 11.1138 39.7808C11.1215 39.7845 11.1358 39.7884 11.1572 39.791C11.1973 39.7959 11.2469 39.7945 11.2835 39.7911C11.3693 39.7511 11.3992 39.6804 11.3989 39.5976C11.3985 39.5149 11.3668 39.4273 11.3355 39.369C10.6737 38.8801 10.472 38.1862 10.4539 37.895L10.4537 37.8922L10.4539 37.8893C10.4671 37.7029 10.4702 37.5784 10.467 37.493C10.4638 37.4072 10.4542 37.3639 10.4438 37.3381C10.4361 37.3191 10.4285 37.3094 10.4169 37.2946C10.4145 37.2917 10.412 37.2885 10.4094 37.285C10.4074 37.2825 10.4054 37.2799 10.4033 37.277C10.383 37.2497 10.3639 37.216 10.3493 37.1541C10.3051 36.966 10.3308 36.7645 10.3493 36.6855L10.3499 36.6834L10.3506 36.6813C11.6412 32.9492 11.2982 29.8149 11.1937 29.2721C11.1505 29.0475 11.1419 28.5146 11.1481 27.9456C11.1542 27.3744 11.1754 26.7604 11.193 26.3694L11.1934 26.3611L11.1969 26.3534C11.7309 25.1762 11.8304 23.649 11.7355 22.214C11.6407 20.78 11.3523 19.4441 11.1156 18.6531L11.1128 18.6437L11.1143 18.6342C11.3455 17.1447 11.0694 16.1151 10.9073 15.7925L10.9025 15.783L10.9026 15.7725C10.907 15.386 10.9123 14.7976 10.9138 14.2884C10.9146 14.0338 10.9144 13.7991 10.9127 13.6195C10.911 13.4376 10.9078 13.3167 10.9031 13.2856C10.8992 13.26 10.9033 13.2294 10.9104 13.1986C10.9178 13.1667 10.9295 13.1301 10.9443 13.0906C10.9737 13.0117 11.0164 12.9179 11.0642 12.821C11.1599 12.6272 11.278 12.4179 11.3576 12.2842L11.4426 12.1414L11.4569 12.3029C11.5527 13.3893 11.7718 13.9755 11.8919 14.178C11.8957 14.1845 11.8974 14.1917 11.8974 14.1917C11.898 14.194 11.8988 14.1981 11.8988 14.1981C11.8995 14.2019 11.9001 14.2064 11.9008 14.2111C11.902 14.2205 11.9034 14.2323 11.9045 14.2439C11.9057 14.2555 11.9067 14.2672 11.9074 14.2765L11.9077 14.2814C11.9079 14.2842 11.9081 14.2868 11.9082 14.289L11.9083 14.2945C11.9083 14.2945 11.9083 14.3 11.9073 14.3048C11.8895 14.3936 11.867 14.6334 11.853 15.1756C11.8479 15.3722 11.9119 15.6602 12.0227 16.0015C12.133 16.3414 12.2881 16.7297 12.4618 17.1252C12.8091 17.916 13.2295 18.7328 13.5106 19.2431L13.5775 19.3646L13.4575 19.3142C13.446 19.3279 13.4314 19.3535 13.4147 19.3927C13.3814 19.4712 13.3459 19.5902 13.3108 19.7367C13.2407 20.0288 13.1742 20.4222 13.1297 20.7997C13.0853 21.178 13.0634 21.5368 13.0816 21.7611C13.0862 21.817 13.0931 21.8631 13.1023 21.8984C13.1112 21.9328 13.1209 21.9514 13.1279 21.9597C13.1379 21.9545 13.1561 21.9397 13.1821 21.9056C13.5536 21.4182 13.648 20.7229 13.648 20.4362L13.7529 20.4281C13.879 21.0829 13.998 21.6108 14.0423 21.7953C14.0449 21.806 14.0438 21.8164 14.0403 21.8256C13.96 22.0365 13.9387 22.396 13.9385 22.5541C13.9385 22.5622 13.9365 22.5698 13.9334 22.5763C13.7177 23.0315 13.7004 23.3229 13.7252 23.4602C14.5213 22.6765 14.827 21.747 14.8841 20.8993C14.9415 20.0466 14.7469 19.2793 14.5493 18.8329L14.5466 18.8268L14.5458 18.8203C14.4842 18.2963 14.3957 17.4855 14.3306 16.7555C14.298 16.3906 14.2712 16.0456 14.2566 15.7666C14.242 15.4896 14.239 15.2728 14.2557 15.1677C14.2853 14.9813 14.2175 14.7298 14.1147 14.4851C14.0127 14.2424 13.8799 14.0145 13.7887 13.879C13.7804 13.8667 13.7784 13.8523 13.7822 13.8391C13.9585 13.2197 13.9221 12.3554 13.8025 11.522C13.6868 10.7162 13.4942 9.94514 13.3469 9.46381H13.3312C13.3312 9.4445 13.3311 9.42516 13.3307 9.40576C13.3209 8.85841 13.1735 8.28136 12.9207 7.83042C12.6669 7.37748 12.3139 7.06331 11.8993 7.01723C11.4437 6.9666 10.8711 6.80273 10.3578 6.61187C9.84507 6.42127 9.38403 6.201 9.15362 6.03456C8.9617 5.89592 8.85413 5.68739 8.79637 5.48832C8.73847 5.28877 8.72888 5.09282 8.73802 4.97187L8.73925 4.95561L8.75131 4.94346C9.37456 4.31546 9.49404 3.60336 9.47714 3.33188L9.4765 3.32159L9.48066 3.31199C9.66978 2.87526 9.70515 2.61481 9.67964 2.46813C9.66703 2.39563 9.6402 2.35444 9.61387 2.33206C9.58799 2.31006 9.55896 2.30301 9.53298 2.30437L9.47421 2.30746L9.47712 2.25459C9.52928 1.30865 9.2014 0.757446 8.78365 0.449537C8.36971 0.144435 7.85939 0.0721023 7.51827 0.100779L7.51811 0.102163C7.51556 0.101922 7.51301 0.101687 7.51044 0.101458C7.50787 0.101687 7.50532 0.101922 7.50277 0.102163L7.50261 0.10078Z" fill="#00A499"/>
<path d="M6.22655 0.449712C6.6457 0.144443 7.16131 0.0720992 7.50261 0.10078L7.50277 0.102163L7.51044 0.101458L7.51811 0.102163L7.51827 0.100779C7.85939 0.0721023 8.36971 0.144435 8.78365 0.449537C9.2014 0.757446 9.52928 1.30865 9.47712 2.25459L9.47421 2.30746L9.53298 2.30437C9.55896 2.30301 9.58799 2.31006 9.61387 2.33206C9.6402 2.35444 9.66703 2.39563 9.67964 2.46813C9.70515 2.61481 9.66978 2.87526 9.48066 3.31199L9.4765 3.32159L9.47714 3.33188C9.49404 3.60336 9.37456 4.31546 8.75131 4.94346L8.73925 4.95561L8.73802 4.97187C8.72888 5.09282 8.73847 5.28877 8.79637 5.48832C8.85413 5.68739 8.9617 5.89592 9.15362 6.03456C9.38403 6.201 9.84507 6.42127 10.3578 6.61187C10.8711 6.80273 11.4437 6.9666 11.8993 7.01723C12.3139 7.06331 12.6669 7.37748 12.9207 7.83042C13.1735 8.28136 13.3209 8.85841 13.3307 9.40576C13.3311 9.42516 13.3312 9.4445 13.3312 9.46381H13.3469C13.4942 9.94514 13.6868 10.7162 13.8025 11.522C13.9221 12.3554 13.9585 13.2197 13.7822 13.8391C13.7784 13.8523 13.7804 13.8667 13.7887 13.879C13.8799 14.0145 14.0127 14.2424 14.1147 14.4851C14.2175 14.7298 14.2853 14.9813 14.2557 15.1677C14.239 15.2728 14.242 15.4896 14.2566 15.7666C14.2712 16.0456 14.298 16.3906 14.3306 16.7555C14.3957 17.4855 14.4842 18.2963 14.5458 18.8203L14.5466 18.8268L14.5493 18.8329C14.7469 19.2793 14.9415 20.0466 14.8841 20.8993C14.827 21.747 14.5213 22.6765 13.7252 23.4602C13.7004 23.3229 13.7177 23.0315 13.9334 22.5763C13.9365 22.5698 13.9385 22.5622 13.9385 22.5541C13.9387 22.396 13.96 22.0365 14.0403 21.8256C14.0438 21.8164 14.0449 21.806 14.0423 21.7953C13.998 21.6108 13.879 21.0829 13.7529 20.4281L13.648 20.4362C13.648 20.7229 13.5536 21.4182 13.1821 21.9056C13.1561 21.9397 13.1379 21.9545 13.1279 21.9597C13.1209 21.9514 13.1112 21.9328 13.1023 21.8984C13.0931 21.8631 13.0862 21.817 13.0816 21.7611C13.0634 21.5368 13.0853 21.178 13.1297 20.7997C13.1742 20.4222 13.2407 20.0288 13.3108 19.7367C13.3459 19.5902 13.3814 19.4712 13.4147 19.3927C13.4314 19.3535 13.446 19.3279 13.4575 19.3142L13.5775 19.3646L13.5106 19.2431C13.2295 18.7328 12.8091 17.916 12.4618 17.1252C12.2881 16.7297 12.133 16.3414 12.0227 16.0015C11.9119 15.6602 11.8479 15.3722 11.853 15.1756C11.867 14.6334 11.8895 14.3936 11.9073 14.3048C11.9083 14.3 11.9083 14.2945 11.9083 14.2945L11.9082 14.289L11.9077 14.2814L11.9074 14.2765C11.9067 14.2672 11.9057 14.2555 11.9045 14.2439C11.9034 14.2323 11.902 14.2205 11.9008 14.2111C11.9001 14.2064 11.8995 14.2019 11.8988 14.1981C11.8988 14.1981 11.898 14.194 11.8974 14.1917C11.8974 14.1917 11.8957 14.1845 11.8919 14.178C11.7718 13.9755 11.5527 13.3893 11.4569 12.3029L11.4426 12.1414L11.3576 12.2842C11.278 12.4179 11.1599 12.6272 11.0642 12.821C11.0164 12.9179 10.9737 13.0117 10.9443 13.0906C10.9295 13.1301 10.9178 13.1667 10.9104 13.1986C10.9033 13.2294 10.8992 13.26 10.9031 13.2856C10.9078 13.3167 10.911 13.4376 10.9127 13.6195C10.9144 13.7991 10.9146 14.0338 10.9138 14.2884C10.9123 14.7976 10.907 15.386 10.9026 15.7725L10.9025 15.783L10.9073 15.7925C11.0694 16.1151 11.3455 17.1447 11.1143 18.6342L11.1128 18.6437L11.1156 18.6531C11.3523 19.4441 11.6407 20.78 11.7355 22.214C11.8304 23.649 11.7309 25.1762 11.1969 26.3534L11.1934 26.3611L11.193 26.3694C11.1754 26.7604 11.1542 27.3744 11.1481 27.9456C11.1419 28.5146 11.1505 29.0475 11.1937 29.2721C11.2982 29.8149 11.6412 32.9492 10.3506 36.6813L10.3499 36.6834L10.3493 36.6855C10.3308 36.7645 10.3051 36.966 10.3493 37.1541C10.3639 37.216 10.383 37.2497 10.4033 37.277L10.4094 37.285L10.4169 37.2946C10.4285 37.3094 10.4361 37.3191 10.4438 37.3381C10.4542 37.3639 10.4638 37.4072 10.467 37.493C10.4702 37.5784 10.4671 37.7029 10.4539 37.8893L10.4537 37.8922L10.4539 37.895C10.472 38.1862 10.6737 38.8801 11.3355 39.369C11.3668 39.4273 11.3985 39.5149 11.3989 39.5976C11.3992 39.6804 11.3693 39.7511 11.2835 39.7911C11.2469 39.7945 11.1973 39.7959 11.1572 39.791C11.1358 39.7884 11.1215 39.7845 11.1138 39.7808C11.1137 39.7779 11.1135 39.7746 11.1131 39.7717C11.1131 39.7717 11.1118 39.762 11.107 39.7537C11.1044 39.7493 11.0972 39.7386 11.082 39.7322C11.064 39.7247 11.0468 39.7279 11.0362 39.7326C11.0272 39.7365 11.0216 39.7418 11.0194 39.744C11.0168 39.7466 11.0139 39.7505 11.0139 39.7505C11.0124 39.7525 11.0103 39.7559 11.0103 39.7559L11.0094 39.7575C11.0082 39.7597 11.0066 39.7626 11.0053 39.765L11.0042 39.7672C10.9973 39.7803 10.9877 39.7963 10.9728 39.8084C10.9598 39.819 10.9415 39.8276 10.9109 39.8245C10.8776 39.8212 10.8258 39.8036 10.7505 39.7503L10.7127 39.7235L10.6796 39.7548C10.6447 39.7878 10.5854 39.8256 10.5226 39.8363C10.4922 39.8414 10.4617 39.8401 10.432 39.8296C10.4024 39.8192 10.37 39.7983 10.3379 39.7593L10.3005 39.7139L10.2572 39.7548C10.2171 39.7927 10.1522 39.8352 10.0882 39.847C10.0574 39.8527 10.0286 39.8511 10.0021 39.8402C9.97559 39.8294 9.94641 39.8072 9.91897 39.764L9.83878 39.8052L9.80989 39.7784C9.7079 39.8674 9.4169 40.0014 9.08444 39.7982C8.73313 39.5834 8.71968 39.398 8.73552 39.3531L8.73776 39.3468L8.7909 37.7404L8.79036 37.7366C8.76503 37.5612 8.78047 37.1075 9.04687 36.7204C9.0866 36.6626 9.11277 36.5821 9.12987 36.4881C9.14713 36.3933 9.15582 36.2805 9.15781 36.1552C9.16179 35.9047 9.13895 35.6002 9.10134 35.2814C9.02614 34.6439 8.89131 33.9446 8.78991 33.4947C8.72065 33.1255 8.63247 31.7588 8.84344 29.2677L8.84406 29.2603L8.84216 29.253C8.77273 28.9907 8.62172 28.1827 8.57958 27.0679L8.57927 27.0599L8.57605 27.0524C8.35065 26.5283 7.82822 24.7478 7.55303 21.8373L7.55544 21.8118L7.55059 21.8114L7.54988 21.8038L7.50002 21.8076L7.45012 21.8038L7.4494 21.8114L7.44456 21.8118L7.44696 21.8373C7.17178 24.7478 6.64935 26.5283 6.42395 27.0524L6.42073 27.0599L6.42042 27.0679C6.37828 28.1827 6.22727 28.9907 6.15784 29.253L6.15593 29.2603L6.15656 29.2677C6.36753 31.7588 6.27935 33.1255 6.21009 33.4947C6.10869 33.9446 5.97386 34.6439 5.89866 35.2814C5.86105 35.6002 5.83821 35.9047 5.84219 36.1552C5.84418 36.2805 5.85287 36.3933 5.87013 36.4881C5.88723 36.5821 5.9134 36.6626 5.95312 36.7204C6.21953 37.1075 6.23497 37.5612 6.20964 37.7366L6.2091 37.7404L6.26224 39.3468L6.26448 39.3531C6.28032 39.398 6.26687 39.5834 5.91556 39.7982C5.5831 40.0014 5.2921 39.8674 5.19011 39.7784L5.16122 39.8052L5.08103 39.764C5.05359 39.8072 5.02441 39.8294 4.99792 39.8402C4.97144 39.8511 4.94262 39.8527 4.91185 39.847C4.84777 39.8352 4.78294 39.7927 4.74282 39.7548L4.69948 39.7139L4.66207 39.7593C4.63 39.7983 4.59764 39.8192 4.56798 39.8296C4.5383 39.8401 4.50784 39.8414 4.47741 39.8363C4.41458 39.8256 4.3553 39.7878 4.32045 39.7548L4.28726 39.7235L4.24946 39.7503C4.1742 39.8036 4.12238 39.8212 4.08909 39.8245C4.05854 39.8276 4.0402 39.819 4.02715 39.8084C4.01226 39.7963 4.00271 39.7803 3.99578 39.7672L3.99465 39.765C3.99338 39.7626 3.99183 39.7597 3.99061 39.7575C3.99061 39.7575 3.98821 39.7533 3.98613 39.7505C3.98613 39.7505 3.98323 39.7466 3.98058 39.744C3.97841 39.7418 3.97284 39.7365 3.9638 39.7326C3.95316 39.7279 3.93601 39.7247 3.91804 39.7322C3.90275 39.7386 3.89562 39.7493 3.89302 39.7537C3.88823 39.762 3.88691 39.7719 3.88691 39.7719C3.8866 39.7742 3.88642 39.7766 3.88631 39.7789L3.88623 39.7808C3.8785 39.7845 3.86423 39.7884 3.8428 39.791C3.80269 39.7959 3.75314 39.7945 3.71649 39.7911C3.63072 39.7511 3.60076 39.6804 3.60114 39.5976C3.60151 39.5149 3.63319 39.4273 3.6645 39.369C4.32629 38.8801 4.52799 38.1862 4.54612 37.895L4.54629 37.8922L4.54609 37.8893C4.53294 37.7029 4.52976 37.5784 4.53297 37.493C4.5362 37.4072 4.54582 37.3639 4.55624 37.3381C4.56391 37.3191 4.57153 37.3094 4.58313 37.2946C4.58713 37.2896 4.59159 37.2839 4.5967 37.277C4.61699 37.2497 4.63608 37.216 4.65065 37.1541C4.69488 36.966 4.66922 36.7645 4.65065 36.6855L4.65014 36.6834L4.64941 36.6813C3.35883 32.9492 3.70181 29.8149 3.80627 29.2721C3.84951 29.0475 3.85806 28.5146 3.85192 27.9456C3.84575 27.3744 3.82462 26.7604 3.807 26.3694L3.80663 26.3611L3.80313 26.3534C3.26907 25.1762 3.16959 23.649 3.26446 22.214C3.35927 20.78 3.64769 19.4441 3.88443 18.6531L3.88722 18.6437L3.88573 18.6342C3.65447 17.1447 3.93055 16.1151 4.09274 15.7925L4.09754 15.783L4.09742 15.7725C4.09303 15.386 4.08775 14.7976 4.08621 14.2884C4.08544 14.0338 4.0856 13.7991 4.08728 13.6195C4.08897 13.4376 4.09225 13.3167 4.09695 13.2856C4.10082 13.26 4.09675 13.2294 4.08959 13.1986C4.08221 13.1667 4.07047 13.1301 4.05575 13.0906C4.02628 13.0117 3.98362 12.9179 3.93581 12.821C3.8401 12.6272 3.722 12.4179 3.6424 12.2842L3.55737 12.1414L3.54313 12.3029C3.44729 13.3893 3.2282 13.9755 3.10809 14.178C3.10425 14.1845 3.10253 14.1918 3.10253 14.1918C3.10198 14.194 3.1012 14.1981 3.1012 14.1981C3.10052 14.2019 3.09985 14.2064 3.09923 14.2111C3.09797 14.2205 3.09665 14.2323 3.09549 14.2439C3.09432 14.2555 3.09328 14.2672 3.0926 14.2765C3.09226 14.2812 3.09199 14.2855 3.09185 14.289L3.09173 14.2946C3.09173 14.2946 3.09172 14.3 3.09268 14.3048C3.11052 14.3936 3.133 14.6334 3.147 15.1756C3.15208 15.3722 3.08808 15.6602 2.97735 16.0015C2.86704 16.3414 2.71193 16.7297 2.53824 17.1252C2.19088 17.916 1.77047 18.7328 1.48937 19.2431L1.42245 19.3646L1.54246 19.3142C1.55397 19.3279 1.56862 19.3535 1.58527 19.3927C1.61861 19.4712 1.65413 19.5902 1.68925 19.7367C1.75928 20.0288 1.82585 20.4222 1.87026 20.7997C1.91475 21.1779 1.93656 21.5368 1.91836 21.7611C1.91383 21.817 1.9069 21.8631 1.89774 21.8984C1.88881 21.9328 1.87907 21.9514 1.87205 21.9597C1.86214 21.9544 1.84387 21.9397 1.81791 21.9056C1.44644 21.4182 1.35199 20.7229 1.35199 20.4362L1.24707 20.4281C1.12105 21.0829 1.00201 21.6108 0.957704 21.7953C0.955138 21.806 0.956176 21.8163 0.959716 21.8256C1.04 22.0365 1.06134 22.396 1.06151 22.5541C1.06152 22.5622 1.06348 22.5697 1.0666 22.5763C1.2823 23.0315 1.29964 23.3228 1.2748 23.4602C0.478732 22.6765 0.172954 21.747 0.115898 20.8993C0.058507 20.0466 0.253049 19.2793 0.450698 18.8329L0.453386 18.8268L0.454151 18.8203C0.515778 18.2963 0.60426 17.4855 0.669422 16.7555C0.702 16.3906 0.728779 16.0456 0.743448 15.7666C0.758015 15.4896 0.760982 15.2728 0.744296 15.1677C0.714633 14.9809 0.782804 14.7288 0.88594 14.4837C0.988252 14.2405 1.12138 14.0124 1.21235 13.8774L1.22386 13.8603L1.21834 13.841C1.04147 13.2218 1.07769 12.3572 1.19732 11.5232C1.31299 10.717 1.50567 9.94539 1.65312 9.46381H1.66877C1.66877 9.4445 1.66895 9.42516 1.66929 9.40576C1.67909 8.85841 1.82651 8.28136 2.07926 7.83042C2.33312 7.37748 2.68608 7.06331 3.10072 7.01723C3.55628 6.9666 4.12885 6.80273 4.64224 6.61187C5.15493 6.42126 5.61597 6.201 5.84638 6.03455C6.0383 5.89591 6.14587 5.68739 6.20363 5.48832C6.26153 5.28877 6.27112 5.09282 6.26198 4.97186L6.26075 4.95561L6.24868 4.94346C5.62544 4.31546 5.50596 3.60335 5.52286 3.33188L5.5235 3.32159L5.51934 3.31199C5.33021 2.87526 5.29485 2.6148 5.32036 2.46813C5.33297 2.39562 5.3598 2.35444 5.38613 2.33206C5.41201 2.31006 5.44104 2.30301 5.46702 2.30437L5.52579 2.30746L5.52288 2.25459C5.47074 1.30891 5.80362 0.757725 6.22655 0.449712Z" fill="#00A499"/>
</svg>
