<svg width="8" height="40" viewBox="0 0 8 40" fill="none" xmlns="http://www.w3.org/2000/svg">
<path d="M5.88209 40C5.34242 39.8724 3.97814 39.6936 2.83837 40H0.377494C0.053694 39.7812 -0.360769 39.3217 0.571773 39.2341L0.58215 39.2332C1.74818 39.1237 3.55207 38.9544 4.00405 36.8818C4.3667 35.2187 3.89611 33.0523 3.61549 32.177V30.2623C3.2701 30.0982 2.68295 29.3761 3.09741 27.8005C1.59498 26.6189 1.47841 22.3846 1.60793 20.4152C1.32731 19.3211 0.779005 17.0781 0.830813 16.8593C0.636533 16.5311 1.02509 14.2334 0.377494 11.2246C0.118454 11.3558 0.0968673 11.0969 0.118454 10.951C0.39908 10.021 1.53022 7.79994 3.80977 6.3557C3.65434 5.91805 3.52914 5.4804 3.48597 5.31628C3.24852 5.49863 2.60523 5.80864 1.93173 5.58981C1.67269 5.50228 1.8238 5.04275 1.93173 4.82392C1.73745 4.69628 1.4266 4.33157 1.73745 3.89392C1.4266 3.89392 1.21937 3.78451 1.15461 3.7298L1.73745 2.96391C1.58635 2.43509 1.50432 1.24614 2.38505 0.720959V0.228603C4.26309 -0.209047 7.85079 -0.318459 7.17728 2.74509C5.67482 4.40816 6.29219 5.84511 6.78868 6.3557C7.609 7.17629 8.83517 9.49583 7.17728 12.2093C6.14107 15.2728 6.18424 16.914 6.33534 17.3516C7.17722 18.2634 8.35585 20.5574 6.33534 22.4393C7.17722 25.667 6.78866 27.1441 6.33534 27.6364C6.46486 28.3476 6.27058 28.1288 6.59438 28.7305C6.85342 29.212 6.70231 29.8429 6.59438 30.0982C7.00453 30.9005 7.57873 33.1946 6.59438 35.9518C6.02454 37.3522 6.18426 38.4682 6.33534 38.8512C6.50808 39.1429 6.65925 39.7812 5.88209 40Z" fill="#00A499"/>
</svg>
