<svg width="8" height="40" viewBox="0 0 8 40" fill="none" xmlns="http://www.w3.org/2000/svg">
<path d="M2.11791 40C2.65758 39.8724 4.02186 39.6936 5.16163 40H7.62251C7.94631 39.7812 8.36077 39.3217 7.42823 39.2341L7.41785 39.2332C6.25182 39.1237 4.44793 38.9544 3.99595 36.8818C3.6333 35.2187 4.10389 33.0523 4.38451 32.177V30.2623C4.7299 30.0982 5.31705 29.3761 4.90259 27.8005C6.40502 26.6189 6.52159 22.3846 6.39207 20.4152C6.67269 19.3211 7.22099 17.0781 7.16919 16.8593C7.36347 16.5311 6.97491 14.2334 7.62251 11.2246C7.88155 11.3558 7.90313 11.0969 7.88155 10.951C7.60092 10.021 6.46978 7.79994 4.19023 6.3557C4.34566 5.91805 4.47086 5.4804 4.51403 5.31628C4.75148 5.49863 5.39477 5.80864 6.06827 5.58981C6.32731 5.50228 6.1762 5.04275 6.06827 4.82392C6.26255 4.69628 6.5734 4.33157 6.26255 3.89392C6.5734 3.89392 6.78063 3.78451 6.84539 3.7298L6.26255 2.96391C6.41365 2.43509 6.49568 1.24614 5.61495 0.720959V0.228603C3.73691 -0.209047 0.149214 -0.318459 0.822717 2.74509C2.32518 4.40816 1.70781 5.84511 1.21132 6.3557C0.390998 7.17629 -0.835168 9.49583 0.822717 12.2093C1.85893 15.2728 1.81576 16.914 1.66466 17.3516C0.82278 18.2634 -0.355851 20.5574 1.66466 22.4393C0.82278 25.667 1.21134 27.1441 1.66466 27.6364C1.53514 28.3476 1.72942 28.1288 1.40562 28.7305C1.14658 29.212 1.29769 29.8429 1.40562 30.0982C0.995473 30.9005 0.421268 33.1946 1.40562 35.9518C1.97546 37.3522 1.81574 38.4682 1.66466 38.8512C1.49192 39.1429 1.34075 39.7812 2.11791 40Z" fill="#00A499"/>
</svg>
