<svg width="226" height="270" viewBox="0 0 226 270" fill="none" xmlns="http://www.w3.org/2000/svg">
<path fill-rule="evenodd" clip-rule="evenodd" d="M46.4262 161.191C46.5912 161.191 46.6476 161.062 46.5512 160.905C46.4548 160.748 46.3199 160.619 46.2511 160.619C46.1822 160.619 46.1261 160.748 46.1261 160.905C46.1261 161.062 46.2613 161.191 46.4262 161.191Z" fill="#000000"/>
<path fill-rule="evenodd" clip-rule="evenodd" d="M46.4262 161.191C46.5912 161.191 46.6476 161.062 46.5512 160.905C46.4548 160.748 46.3199 160.619 46.2511 160.619C46.1822 160.619 46.1261 160.748 46.1261 160.905C46.1261 161.062 46.2613 161.191 46.4262 161.191Z" fill="#000000"/>
<path fill-rule="evenodd" clip-rule="evenodd" d="M46.4262 161.191C46.5912 161.191 46.6476 161.062 46.5512 160.905C46.4548 160.748 46.3199 160.619 46.2511 160.619C46.1822 160.619 46.1261 160.748 46.1261 160.905C46.1261 161.062 46.2613 161.191 46.4262 161.191Z" fill="#000000"/>
<path fill-rule="evenodd" clip-rule="evenodd" d="M74.7715 87.8929C74.2856 86.7495 72.7041 85.4553 72.0853 84.8916C69.429 82.4712 65.7653 81.8869 62.5001 82.5706C59.8684 83.1217 58.5385 84.191 57.2778 86.77C56.2053 88.9647 56.188 89.0524 56.188 92.2818C56.188 95.5485 56.1849 95.564 55.4794 95.7246C55.0101 95.8315 54.5792 96.2808 54.204 97.0549C53.8157 97.8558 53.3145 98.3663 52.613 98.6764C51.07 99.3587 47.9432 101.645 47.0362 102.755C45.8571 104.198 42.6035 110.122 41.6126 112.631C40.7226 114.884 38.1899 124.743 38.1899 125.954C38.1899 126.333 38.0411 126.923 37.8594 127.265C37.4903 127.961 36.6905 136.755 36.9277 137.509C37.0111 137.774 36.9464 138.073 36.7843 138.174C36.4003 138.413 36.4039 140.202 36.79 140.929C37.0037 141.332 36.9972 141.926 36.7676 142.983C36.515 144.144 36.5289 144.97 36.8308 146.756C37.199 148.937 37.2494 149.039 37.9223 148.959C38.4073 148.902 38.8854 149.147 39.4512 149.742C39.9038 150.219 40.2096 150.674 40.1303 150.754C40.0512 150.834 39.189 150.983 38.2145 151.086C35.6115 151.361 35.7146 150.747 36.4567 161.545C36.879 167.69 37.8177 168.886 42.2759 168.958C43.6466 168.98 44.8636 168.866 45.0269 168.702C45.6394 168.084 45.1663 166.81 44.0394 166.04C42.44 164.948 42.3501 164.632 43.1681 162.977C43.7571 161.784 44.0346 161.513 44.7897 161.392C45.3696 161.299 45.8117 161.386 46.0056 161.633C46.3174 162.03 47.3825 161.917 48.014 161.421C48.215 161.263 48.4145 161.28 48.5268 161.462C48.7983 161.906 49.8376 161.826 50.3926 161.32C50.8311 160.92 50.989 160.926 52.0448 161.387C52.6867 161.668 53.2119 162.036 53.2119 162.205C53.2119 162.756 51.6241 164.075 51.1718 163.9C50.6247 163.688 49.8759 165.205 49.6282 167.027C49.5304 167.747 49.3399 168.336 49.2053 168.336C48.7172 168.336 48.9752 169.757 49.5636 170.31C50.8336 171.503 59.6969 173.196 64.6766 173.196C69.4746 173.196 72.4856 172.277 72.4856 170.814C72.4856 169.676 71.8549 169.19 69.8179 168.76C68.7448 168.534 67.6524 168.153 67.3905 167.914C67.1283 167.675 66.7327 167.478 66.511 167.478C65.7435 167.476 64.2705 166.371 64.4402 165.924C64.5369 165.671 64.2753 165.194 63.7966 164.752L62.9905 164.006L64.3022 164.16C65.0236 164.245 66.9469 164.764 68.5761 165.314C72.593 166.669 73.4892 166.783 75.4968 166.195C76.798 165.814 77.4785 165.385 78.6095 164.235C80.5856 162.225 80.8038 160.949 79.5916 158.492C79.1219 157.539 78.2237 156.082 77.5956 155.254C76.9675 154.425 76.4536 153.626 76.4536 153.476C76.4536 153.327 78.1755 151.716 80.28 149.895C82.3845 148.074 84.3286 146.173 84.6002 145.67C85.3453 144.289 85.2849 140.317 84.4924 138.581C83.6892 136.821 82.3449 136.193 78.4425 135.753C74.456 135.303 67.5932 135.611 65.1573 136.349C62.9769 137.01 62.8487 137.015 62.8487 136.447C62.8487 136.013 62.5574 136.029 61.219 136.536C60.9832 136.625 60.8647 136.374 60.8647 135.786C60.8647 135.054 61.0274 134.833 61.8091 134.504C63.0109 133.997 63.8232 132.953 64.417 131.15C64.7962 129.999 64.8597 128.97 64.7463 125.806C64.6693 123.652 64.5139 121.53 64.4008 121.091L64.1956 120.294L65.2251 120.907C65.807 121.253 66.4606 121.44 66.7278 121.336C67.2701 121.126 70.3252 122.351 72.1868 123.524L72.2415 123.559C74.1155 124.74 74.2787 124.843 75.8227 123.524C77.3816 122.193 82.6251 111.617 82.6251 111.617C84.0423 108.972 84.2345 108.045 84.9657 107.709C85.9169 107.272 88.5194 104.669 88.7609 104.356C89.0024 104.042 89.1441 103.859 89.327 103.53C89.5098 103.201 89.8383 102.812 89.711 102.301L89.533 101.585L89.1441 100.47C89.1441 100.47 88.9454 99.8122 88.4688 99.1833C88.1279 98.7334 87.6447 98.298 86.9903 98.1283C86.0807 97.8923 85.2823 97.9308 84.6623 98.1283C84.0423 98.3258 81.9165 100.755 81.4914 101.327C81.0662 101.899 80.4994 102.47 80.1306 103.944C79.7619 105.417 79.9231 105.026 79.8299 105.812C79.6196 107.584 78.1083 109.618 77.5233 110.759C77.0623 111.659 74.0902 115.809 73.5801 116.333C73.0689 116.859 69.5871 112.617 69.7929 112.189C69.8971 111.804 69.9482 111.859 69.8705 111.76C69.8064 111.573 69.3369 111.06 68.7791 110.541C68.2215 110.022 67.2284 108.504 66.572 107.168C65.9158 105.832 65.2293 104.521 65.0468 104.255C64.7804 103.867 64.8229 103.651 65.2636 103.16C65.8492 102.508 66.2199 102.509 68.5342 103.172C70.3436 103.69 71.3518 103.392 71.3518 102.338C71.3518 101.889 71.5513 101.355 71.7951 101.151C72.0615 100.928 72.1775 100.533 72.0853 100.163C71.9703 99.7014 72.1429 99.7694 72.2797 99.6545C72.4166 99.5397 72.8189 99.5839 72.7298 99.1833C72.6408 98.7826 72.5365 98.796 72.8189 98.4687C73.4384 98.3258 73.8386 98.2921 74.0053 98.0399C74.2887 97.6112 72.8189 95.8962 73.5801 92.8949C75.4225 90.1795 75.2574 89.0362 74.7715 87.8929ZM46.4262 161.191C46.5912 161.191 46.6476 161.062 46.5512 160.905C46.4548 160.748 46.3199 160.619 46.2511 160.619C46.1822 160.619 46.1261 160.748 46.1261 160.905C46.1261 161.062 46.2613 161.191 46.4262 161.191Z" fill="#000000"/>
<path d="M85.6625 100.735V94.3037V93.1604V92.5887C85.3458 92.16 84.779 92.0171 84.184 92.5887V100.735H85.6625Z" fill="#000000"/>
<line x1="87.334" y1="94.7607" x2="167.542" y2="94.7607" stroke="#000000" stroke-width="2" stroke-dasharray="10 10"/>
<path d="M183.417 173.586C181.74 173.115 177.5 172.456 173.957 173.586H166.309C165.302 172.779 164.014 171.083 166.913 170.76L166.945 170.757C170.569 170.353 176.176 169.728 177.58 162.081C178.707 155.945 177.245 147.952 176.373 144.722V137.657C175.299 137.052 173.474 134.387 174.762 128.574C170.093 124.214 169.73 108.591 170.133 101.325C169.261 97.288 167.557 89.0123 167.718 88.2049C167.114 86.9938 168.321 78.5162 166.309 67.4147C165.941 66.9749 166.242 66.1002 166.309 65.562C167.181 62.1306 169.891 54.7791 176.976 49.4503C176.493 47.8355 176.104 46.2208 175.97 45.6152C175.232 46.288 173.233 47.4318 171.139 46.6244C170.334 46.3015 170.804 44.606 171.139 43.7986C170.536 43.3276 169.569 41.982 170.536 40.3672C169.569 40.3672 168.925 39.9635 168.724 39.7617L170.536 36.9358C170.066 34.9846 169.811 30.5978 172.548 28.6601V26.8435C178.385 25.2287 189.536 24.825 187.443 36.1284C182.773 42.2646 184.692 47.5664 186.235 49.4503C188.785 52.478 192.596 61.0363 187.443 71.0479C184.222 82.3513 184.356 88.4067 184.826 90.0215C187.443 93.3856 191.106 101.85 184.826 108.793C187.443 120.702 186.235 126.152 184.826 127.969C185.229 130.593 184.625 129.785 185.631 132.006C186.436 133.782 185.967 136.11 185.631 137.052C186.906 140.012 188.691 148.476 185.631 158.649C183.86 163.817 184.357 167.934 184.826 169.347C185.363 170.424 185.833 172.779 183.417 173.586Z" fill="#000000"/>
<path d="M157.711 24L87.0003 94.7107L157.711 165.421" stroke="#000000" stroke-width="2" stroke-dasharray="10 10"/>
<path d="M20.7852 229.15H24.6084C26.2666 229.15 27.5176 229.391 28.3613 229.871C29.2051 230.352 29.627 231.181 29.627 232.358C29.627 232.851 29.5391 233.296 29.3633 233.694C29.1934 234.087 28.9443 234.412 28.6162 234.67C28.2881 234.922 27.8838 235.092 27.4033 235.18V235.268C27.9014 235.355 28.3438 235.511 28.7305 235.733C29.123 235.956 29.4307 236.275 29.6533 236.691C29.8818 237.107 29.9961 237.646 29.9961 238.309C29.9961 239.094 29.8086 239.762 29.4336 240.312C29.0645 240.863 28.5342 241.282 27.8428 241.569C27.1572 241.856 26.3428 242 25.3994 242H20.7852V229.15ZM22.8945 234.45H24.916C25.8711 234.45 26.5332 234.295 26.9023 233.984C27.2715 233.674 27.4561 233.22 27.4561 232.622C27.4561 232.013 27.2363 231.573 26.7969 231.304C26.3633 231.034 25.6719 230.899 24.7227 230.899H22.8945V234.45ZM22.8945 236.155V240.233H25.1182C26.1025 240.233 26.7939 240.043 27.1924 239.662C27.5908 239.281 27.79 238.766 27.79 238.115C27.79 237.717 27.6992 237.371 27.5176 237.078C27.3418 236.785 27.0518 236.56 26.6475 236.401C26.2432 236.237 25.6982 236.155 25.0127 236.155H22.8945ZM36.3154 232.086C37.1826 232.086 37.9268 232.265 38.5479 232.622C39.1689 232.979 39.6465 233.486 39.9805 234.143C40.3145 234.799 40.4814 235.584 40.4814 236.498V237.605H33.9863C34.0098 238.549 34.2617 239.275 34.7422 239.785C35.2285 240.295 35.9082 240.55 36.7812 240.55C37.4023 240.55 37.959 240.491 38.4512 240.374C38.9492 240.251 39.4619 240.072 39.9893 239.838V241.517C39.5029 241.745 39.0078 241.912 38.5039 242.018C38 242.123 37.3965 242.176 36.6934 242.176C35.7383 242.176 34.8975 241.991 34.1709 241.622C33.4502 241.247 32.8848 240.69 32.4746 239.952C32.0703 239.214 31.8682 238.297 31.8682 237.201C31.8682 236.111 32.0527 235.186 32.4219 234.424C32.791 233.662 33.3096 233.082 33.9775 232.684C34.6455 232.285 35.4248 232.086 36.3154 232.086ZM36.3154 233.642C35.665 233.642 35.1377 233.853 34.7334 234.274C34.335 234.696 34.1006 235.314 34.0303 236.129H38.46C38.4541 235.643 38.3721 235.212 38.2139 234.837C38.0615 234.462 37.8271 234.169 37.5107 233.958C37.2002 233.747 36.8018 233.642 36.3154 233.642ZM47.8818 232.086C48.9775 232.086 49.8301 232.37 50.4395 232.938C51.0547 233.501 51.3623 234.406 51.3623 235.654V242H49.2969V236.041C49.2969 235.285 49.1416 234.72 48.8311 234.345C48.5205 233.964 48.04 233.773 47.3896 233.773C46.4463 233.773 45.79 234.063 45.4209 234.644C45.0576 235.224 44.876 236.064 44.876 237.166V242H42.8105V232.271H44.4189L44.709 233.589H44.8232C45.0342 233.249 45.2949 232.971 45.6055 232.754C45.9219 232.531 46.2734 232.364 46.6602 232.253C47.0527 232.142 47.46 232.086 47.8818 232.086ZM57.5234 242.176C56.3633 242.176 55.4316 241.754 54.7285 240.91C54.0312 240.061 53.6826 238.81 53.6826 237.157C53.6826 235.487 54.0371 234.225 54.7461 233.369C55.4609 232.514 56.4014 232.086 57.5674 232.086C58.0596 232.086 58.4902 232.153 58.8594 232.288C59.2285 232.417 59.5449 232.593 59.8086 232.815C60.0781 233.038 60.3066 233.287 60.4941 233.562H60.5908C60.5615 233.381 60.5264 233.12 60.4854 232.78C60.4502 232.435 60.4326 232.115 60.4326 231.822V228.324H62.5068V242H60.8896L60.5205 240.673H60.4326C60.2568 240.954 60.0342 241.209 59.7646 241.438C59.501 241.66 59.1846 241.839 58.8154 241.974C58.4521 242.108 58.0215 242.176 57.5234 242.176ZM58.1035 240.497C58.9883 240.497 59.6123 240.242 59.9756 239.732C60.3389 239.223 60.5264 238.458 60.5381 237.438V237.166C60.5381 236.076 60.3623 235.241 60.0107 234.661C59.6592 234.075 59.0176 233.782 58.0859 233.782C57.3418 233.782 56.7734 234.084 56.3809 234.688C55.9941 235.285 55.8008 236.12 55.8008 237.192C55.8008 238.265 55.9941 239.085 56.3809 239.653C56.7734 240.216 57.3477 240.497 58.1035 240.497ZM73.3525 232.271H75.6025L77.5977 237.825C77.6855 238.077 77.7646 238.326 77.835 238.572C77.9111 238.812 77.9756 239.05 78.0283 239.284C78.0869 239.519 78.1338 239.753 78.1689 239.987H78.2217C78.2803 239.683 78.3623 239.343 78.4678 238.968C78.5791 238.587 78.7021 238.206 78.8369 237.825L80.7529 232.271H82.9766L78.8018 243.336C78.5615 243.969 78.2656 244.508 77.9141 244.953C77.5684 245.404 77.1582 245.744 76.6836 245.973C76.209 246.207 75.667 246.324 75.0576 246.324C74.7646 246.324 74.5098 246.307 74.293 246.271C74.0762 246.242 73.8916 246.21 73.7393 246.175V244.522C73.8623 244.552 74.0176 244.578 74.2051 244.602C74.3926 244.625 74.5859 244.637 74.7852 244.637C75.1543 244.637 75.4736 244.563 75.7432 244.417C76.0127 244.271 76.2412 244.062 76.4287 243.793C76.6162 243.529 76.7715 243.228 76.8945 242.888L77.2373 241.974L73.3525 232.271ZM93.0664 237.113C93.0664 237.922 92.9609 238.64 92.75 239.267C92.5391 239.894 92.2314 240.424 91.8271 240.857C91.4229 241.285 90.9365 241.613 90.3682 241.842C89.7998 242.064 89.1582 242.176 88.4434 242.176C87.7754 242.176 87.1631 242.064 86.6064 241.842C86.0498 241.613 85.5664 241.285 85.1562 240.857C84.752 240.424 84.4385 239.894 84.2158 239.267C83.9932 238.64 83.8818 237.922 83.8818 237.113C83.8818 236.041 84.0664 235.133 84.4355 234.389C84.8105 233.639 85.3438 233.067 86.0352 232.675C86.7266 232.282 87.5498 232.086 88.5049 232.086C89.4014 232.086 90.1924 232.282 90.8779 232.675C91.5635 233.067 92.0996 233.639 92.4863 234.389C92.873 235.139 93.0664 236.047 93.0664 237.113ZM86.0088 237.113C86.0088 237.822 86.0938 238.429 86.2637 238.933C86.4395 239.437 86.709 239.823 87.0723 240.093C87.4355 240.356 87.9043 240.488 88.4785 240.488C89.0527 240.488 89.5215 240.356 89.8848 240.093C90.248 239.823 90.5146 239.437 90.6846 238.933C90.8545 238.429 90.9395 237.822 90.9395 237.113C90.9395 236.404 90.8545 235.804 90.6846 235.312C90.5146 234.813 90.248 234.436 89.8848 234.178C89.5215 233.914 89.0498 233.782 88.4697 233.782C87.6143 233.782 86.9902 234.069 86.5977 234.644C86.2051 235.218 86.0088 236.041 86.0088 237.113ZM103.921 232.271V242H102.295L102.014 240.69H101.899C101.694 241.024 101.434 241.303 101.117 241.525C100.801 241.742 100.449 241.903 100.062 242.009C99.6758 242.12 99.2686 242.176 98.8408 242.176C98.1084 242.176 97.4814 242.053 96.96 241.807C96.4443 241.555 96.0488 241.168 95.7734 240.646C95.498 240.125 95.3604 239.451 95.3604 238.625V232.271H97.4346V238.238C97.4346 238.994 97.5869 239.56 97.8916 239.935C98.2021 240.31 98.6826 240.497 99.333 240.497C99.96 240.497 100.458 240.368 100.827 240.11C101.196 239.853 101.457 239.472 101.609 238.968C101.768 238.464 101.847 237.846 101.847 237.113V232.271H103.921ZM111.813 232.086C111.978 232.086 112.156 232.095 112.35 232.112C112.543 232.13 112.71 232.153 112.851 232.183L112.657 234.116C112.534 234.081 112.382 234.055 112.2 234.037C112.024 234.02 111.866 234.011 111.726 234.011C111.356 234.011 111.005 234.072 110.671 234.195C110.337 234.312 110.041 234.494 109.783 234.74C109.525 234.98 109.323 235.282 109.177 235.646C109.03 236.009 108.957 236.431 108.957 236.911V242H106.883V232.271H108.5L108.781 233.984H108.878C109.071 233.639 109.312 233.322 109.599 233.035C109.886 232.748 110.214 232.52 110.583 232.35C110.958 232.174 111.368 232.086 111.813 232.086ZM121.394 228.324V234.934C121.394 235.232 121.382 235.561 121.358 235.918C121.335 236.27 121.312 236.601 121.288 236.911H121.332C121.484 236.706 121.666 236.466 121.877 236.19C122.094 235.915 122.299 235.675 122.492 235.47L125.463 232.271H127.836L123.942 236.454L128.091 242H125.665L122.554 237.729L121.394 238.722V242H119.328V228.324H121.394ZM134.718 232.086C135.813 232.086 136.666 232.37 137.275 232.938C137.891 233.501 138.198 234.406 138.198 235.654V242H136.133V236.041C136.133 235.285 135.978 234.72 135.667 234.345C135.356 233.964 134.876 233.773 134.226 233.773C133.282 233.773 132.626 234.063 132.257 234.644C131.894 235.224 131.712 236.064 131.712 237.166V242H129.646V232.271H131.255L131.545 233.589H131.659C131.87 233.249 132.131 232.971 132.441 232.754C132.758 232.531 133.109 232.364 133.496 232.253C133.889 232.142 134.296 232.086 134.718 232.086ZM144.966 232.086C145.833 232.086 146.577 232.265 147.198 232.622C147.819 232.979 148.297 233.486 148.631 234.143C148.965 234.799 149.132 235.584 149.132 236.498V237.605H142.637C142.66 238.549 142.912 239.275 143.393 239.785C143.879 240.295 144.559 240.55 145.432 240.55C146.053 240.55 146.609 240.491 147.102 240.374C147.6 240.251 148.112 240.072 148.64 239.838V241.517C148.153 241.745 147.658 241.912 147.154 242.018C146.65 242.123 146.047 242.176 145.344 242.176C144.389 242.176 143.548 241.991 142.821 241.622C142.101 241.247 141.535 240.69 141.125 239.952C140.721 239.214 140.519 238.297 140.519 237.201C140.519 236.111 140.703 235.186 141.072 234.424C141.441 233.662 141.96 233.082 142.628 232.684C143.296 232.285 144.075 232.086 144.966 232.086ZM144.966 233.642C144.315 233.642 143.788 233.853 143.384 234.274C142.985 234.696 142.751 235.314 142.681 236.129H147.11C147.104 235.643 147.022 235.212 146.864 234.837C146.712 234.462 146.478 234.169 146.161 233.958C145.851 233.747 145.452 233.642 144.966 233.642ZM155.337 232.086C156.204 232.086 156.948 232.265 157.569 232.622C158.19 232.979 158.668 233.486 159.002 234.143C159.336 234.799 159.503 235.584 159.503 236.498V237.605H153.008C153.031 238.549 153.283 239.275 153.764 239.785C154.25 240.295 154.93 240.55 155.803 240.55C156.424 240.55 156.98 240.491 157.473 240.374C157.971 240.251 158.483 240.072 159.011 239.838V241.517C158.524 241.745 158.029 241.912 157.525 242.018C157.021 242.123 156.418 242.176 155.715 242.176C154.76 242.176 153.919 241.991 153.192 241.622C152.472 241.247 151.906 240.69 151.496 239.952C151.092 239.214 150.89 238.297 150.89 237.201C150.89 236.111 151.074 235.186 151.443 234.424C151.812 233.662 152.331 233.082 152.999 232.684C153.667 232.285 154.446 232.086 155.337 232.086ZM155.337 233.642C154.687 233.642 154.159 233.853 153.755 234.274C153.356 234.696 153.122 235.314 153.052 236.129H157.481C157.476 235.643 157.394 235.212 157.235 234.837C157.083 234.462 156.849 234.169 156.532 233.958C156.222 233.747 155.823 233.642 155.337 233.642ZM168.371 239.223C168.371 239.861 168.216 240.4 167.905 240.84C167.595 241.279 167.141 241.613 166.543 241.842C165.951 242.064 165.225 242.176 164.363 242.176C163.684 242.176 163.098 242.126 162.605 242.026C162.119 241.933 161.659 241.786 161.226 241.587V239.803C161.688 240.02 162.207 240.207 162.781 240.365C163.361 240.523 163.909 240.603 164.425 240.603C165.104 240.603 165.594 240.497 165.893 240.286C166.191 240.069 166.341 239.782 166.341 239.425C166.341 239.214 166.279 239.026 166.156 238.862C166.039 238.692 165.816 238.52 165.488 238.344C165.166 238.162 164.691 237.945 164.064 237.693C163.449 237.447 162.931 237.201 162.509 236.955C162.087 236.709 161.768 236.413 161.551 236.067C161.334 235.716 161.226 235.268 161.226 234.723C161.226 233.861 161.565 233.208 162.245 232.763C162.931 232.312 163.836 232.086 164.961 232.086C165.559 232.086 166.121 232.147 166.648 232.271C167.182 232.388 167.703 232.561 168.213 232.789L167.562 234.345C167.123 234.151 166.681 233.993 166.235 233.87C165.796 233.741 165.348 233.677 164.891 233.677C164.357 233.677 163.95 233.759 163.669 233.923C163.394 234.087 163.256 234.321 163.256 234.626C163.256 234.854 163.323 235.048 163.458 235.206C163.593 235.364 163.824 235.522 164.152 235.681C164.486 235.839 164.949 236.035 165.541 236.27C166.121 236.492 166.622 236.727 167.044 236.973C167.472 237.213 167.8 237.509 168.028 237.86C168.257 238.212 168.371 238.666 168.371 239.223ZM179.094 232.086C180.324 232.086 181.253 232.358 181.88 232.903C182.513 233.448 182.829 234.298 182.829 235.452V242H181.361L180.966 240.62H180.896C180.62 240.972 180.336 241.262 180.043 241.49C179.75 241.719 179.41 241.889 179.023 242C178.643 242.117 178.177 242.176 177.626 242.176C177.046 242.176 176.527 242.07 176.07 241.859C175.613 241.643 175.253 241.314 174.989 240.875C174.726 240.436 174.594 239.879 174.594 239.205C174.594 238.203 174.966 237.45 175.71 236.946C176.46 236.442 177.591 236.164 179.103 236.111L180.79 236.05V235.54C180.79 234.866 180.632 234.386 180.315 234.099C180.005 233.812 179.565 233.668 178.997 233.668C178.511 233.668 178.039 233.738 177.582 233.879C177.125 234.02 176.68 234.192 176.246 234.397L175.578 232.938C176.053 232.687 176.592 232.481 177.195 232.323C177.805 232.165 178.438 232.086 179.094 232.086ZM180.781 237.351L179.524 237.395C178.493 237.43 177.77 237.605 177.354 237.922C176.938 238.238 176.729 238.672 176.729 239.223C176.729 239.703 176.873 240.055 177.16 240.277C177.447 240.494 177.825 240.603 178.294 240.603C179.009 240.603 179.601 240.4 180.069 239.996C180.544 239.586 180.781 238.985 180.781 238.194V237.351ZM190.792 232.086C191.888 232.086 192.74 232.37 193.35 232.938C193.965 233.501 194.272 234.406 194.272 235.654V242H192.207V236.041C192.207 235.285 192.052 234.72 191.741 234.345C191.431 233.964 190.95 233.773 190.3 233.773C189.356 233.773 188.7 234.063 188.331 234.644C187.968 235.224 187.786 236.064 187.786 237.166V242H185.721V232.271H187.329L187.619 233.589H187.733C187.944 233.249 188.205 232.971 188.516 232.754C188.832 232.531 189.184 232.364 189.57 232.253C189.963 232.142 190.37 232.086 190.792 232.086ZM200.434 242.176C199.273 242.176 198.342 241.754 197.639 240.91C196.941 240.061 196.593 238.81 196.593 237.157C196.593 235.487 196.947 234.225 197.656 233.369C198.371 232.514 199.312 232.086 200.478 232.086C200.97 232.086 201.4 232.153 201.77 232.288C202.139 232.417 202.455 232.593 202.719 232.815C202.988 233.038 203.217 233.287 203.404 233.562H203.501C203.472 233.381 203.437 233.12 203.396 232.78C203.36 232.435 203.343 232.115 203.343 231.822V228.324H205.417V242H203.8L203.431 240.673H203.343C203.167 240.954 202.944 241.209 202.675 241.438C202.411 241.66 202.095 241.839 201.726 241.974C201.362 242.108 200.932 242.176 200.434 242.176ZM201.014 240.497C201.898 240.497 202.522 240.242 202.886 239.732C203.249 239.223 203.437 238.458 203.448 237.438V237.166C203.448 236.076 203.272 235.241 202.921 234.661C202.569 234.075 201.928 233.782 200.996 233.782C200.252 233.782 199.684 234.084 199.291 234.688C198.904 235.285 198.711 236.12 198.711 237.192C198.711 238.265 198.904 239.085 199.291 239.653C199.684 240.216 200.258 240.497 201.014 240.497ZM15.9512 251.324V254.761C15.9512 255.118 15.9395 255.467 15.916 255.807C15.8984 256.146 15.8779 256.41 15.8545 256.598H15.9688C16.1738 256.258 16.4258 255.979 16.7246 255.763C17.0234 255.54 17.3574 255.373 17.7266 255.262C18.1016 255.15 18.5 255.095 18.9219 255.095C19.666 255.095 20.2988 255.221 20.8203 255.473C21.3418 255.719 21.7402 256.103 22.0156 256.624C22.2969 257.146 22.4375 257.822 22.4375 258.654V265H20.3721V259.041C20.3721 258.285 20.2168 257.72 19.9062 257.345C19.5957 256.964 19.1152 256.773 18.4648 256.773C17.8379 256.773 17.3398 256.905 16.9707 257.169C16.6074 257.427 16.3467 257.811 16.1885 258.32C16.0303 258.824 15.9512 259.439 15.9512 260.166V265H13.8857V251.324H15.9512ZM33.9424 260.113C33.9424 260.922 33.8369 261.64 33.626 262.267C33.415 262.894 33.1074 263.424 32.7031 263.857C32.2988 264.285 31.8125 264.613 31.2441 264.842C30.6758 265.064 30.0342 265.176 29.3193 265.176C28.6514 265.176 28.0391 265.064 27.4824 264.842C26.9258 264.613 26.4424 264.285 26.0322 263.857C25.6279 263.424 25.3145 262.894 25.0918 262.267C24.8691 261.64 24.7578 260.922 24.7578 260.113C24.7578 259.041 24.9424 258.133 25.3115 257.389C25.6865 256.639 26.2197 256.067 26.9111 255.675C27.6025 255.282 28.4258 255.086 29.3809 255.086C30.2773 255.086 31.0684 255.282 31.7539 255.675C32.4395 256.067 32.9756 256.639 33.3623 257.389C33.749 258.139 33.9424 259.047 33.9424 260.113ZM26.8848 260.113C26.8848 260.822 26.9697 261.429 27.1396 261.933C27.3154 262.437 27.585 262.823 27.9482 263.093C28.3115 263.356 28.7803 263.488 29.3545 263.488C29.9287 263.488 30.3975 263.356 30.7607 263.093C31.124 262.823 31.3906 262.437 31.5605 261.933C31.7305 261.429 31.8154 260.822 31.8154 260.113C31.8154 259.404 31.7305 258.804 31.5605 258.312C31.3906 257.813 31.124 257.436 30.7607 257.178C30.3975 256.914 29.9258 256.782 29.3457 256.782C28.4902 256.782 27.8662 257.069 27.4736 257.644C27.0811 258.218 26.8848 259.041 26.8848 260.113ZM38.3896 265H36.3154V251.324H38.3896V265ZM44.6123 265.176C43.4521 265.176 42.5205 264.754 41.8174 263.91C41.1201 263.061 40.7715 261.81 40.7715 260.157C40.7715 258.487 41.126 257.225 41.835 256.369C42.5498 255.514 43.4902 255.086 44.6562 255.086C45.1484 255.086 45.5791 255.153 45.9482 255.288C46.3174 255.417 46.6338 255.593 46.8975 255.815C47.167 256.038 47.3955 256.287 47.583 256.562H47.6797C47.6504 256.381 47.6152 256.12 47.5742 255.78C47.5391 255.435 47.5215 255.115 47.5215 254.822V251.324H49.5957V265H47.9785L47.6094 263.673H47.5215C47.3457 263.954 47.123 264.209 46.8535 264.438C46.5898 264.66 46.2734 264.839 45.9043 264.974C45.541 265.108 45.1104 265.176 44.6123 265.176ZM45.1924 263.497C46.0771 263.497 46.7012 263.242 47.0645 262.732C47.4277 262.223 47.6152 261.458 47.627 260.438V260.166C47.627 259.076 47.4512 258.241 47.0996 257.661C46.748 257.075 46.1064 256.782 45.1748 256.782C44.4307 256.782 43.8623 257.084 43.4697 257.688C43.083 258.285 42.8896 259.12 42.8896 260.192C42.8896 261.265 43.083 262.085 43.4697 262.653C43.8623 263.216 44.4365 263.497 45.1924 263.497ZM60.8545 263.506C61.124 263.506 61.3906 263.482 61.6543 263.436C61.918 263.383 62.1582 263.321 62.375 263.251V264.815C62.1465 264.915 61.8506 265 61.4873 265.07C61.124 265.141 60.7461 265.176 60.3535 265.176C59.8027 265.176 59.3076 265.085 58.8682 264.903C58.4287 264.716 58.0801 264.396 57.8223 263.945C57.5645 263.494 57.4355 262.87 57.4355 262.073V256.844H56.1084V255.921L57.5322 255.191L58.209 253.108H59.5098V255.271H62.2959V256.844H59.5098V262.047C59.5098 262.539 59.6328 262.905 59.8789 263.146C60.125 263.386 60.4502 263.506 60.8545 263.506ZM66.418 251.324V254.761C66.418 255.118 66.4062 255.467 66.3828 255.807C66.3652 256.146 66.3447 256.41 66.3213 256.598H66.4355C66.6406 256.258 66.8926 255.979 67.1914 255.763C67.4902 255.54 67.8242 255.373 68.1934 255.262C68.5684 255.15 68.9668 255.095 69.3887 255.095C70.1328 255.095 70.7656 255.221 71.2871 255.473C71.8086 255.719 72.207 256.103 72.4824 256.624C72.7637 257.146 72.9043 257.822 72.9043 258.654V265H70.8389V259.041C70.8389 258.285 70.6836 257.72 70.373 257.345C70.0625 256.964 69.582 256.773 68.9316 256.773C68.3047 256.773 67.8066 256.905 67.4375 257.169C67.0742 257.427 66.8135 257.811 66.6553 258.32C66.4971 258.824 66.418 259.439 66.418 260.166V265H64.3525V251.324H66.418ZM79.6719 255.086C80.5391 255.086 81.2832 255.265 81.9043 255.622C82.5254 255.979 83.0029 256.486 83.3369 257.143C83.6709 257.799 83.8379 258.584 83.8379 259.498V260.605H77.3428C77.3662 261.549 77.6182 262.275 78.0986 262.785C78.585 263.295 79.2646 263.55 80.1377 263.55C80.7588 263.55 81.3154 263.491 81.8076 263.374C82.3057 263.251 82.8184 263.072 83.3457 262.838V264.517C82.8594 264.745 82.3643 264.912 81.8604 265.018C81.3564 265.123 80.7529 265.176 80.0498 265.176C79.0947 265.176 78.2539 264.991 77.5273 264.622C76.8066 264.247 76.2412 263.69 75.8311 262.952C75.4268 262.214 75.2246 261.297 75.2246 260.201C75.2246 259.111 75.4092 258.186 75.7783 257.424C76.1475 256.662 76.666 256.082 77.334 255.684C78.002 255.285 78.7812 255.086 79.6719 255.086ZM79.6719 256.642C79.0215 256.642 78.4941 256.853 78.0898 257.274C77.6914 257.696 77.457 258.314 77.3867 259.129H81.8164C81.8105 258.643 81.7285 258.212 81.5703 257.837C81.418 257.462 81.1836 257.169 80.8672 256.958C80.5566 256.747 80.1582 256.642 79.6719 256.642ZM94.1123 265.176C92.9521 265.176 92.0205 264.754 91.3174 263.91C90.6201 263.061 90.2715 261.81 90.2715 260.157C90.2715 258.487 90.626 257.225 91.335 256.369C92.0498 255.514 92.9902 255.086 94.1562 255.086C94.6484 255.086 95.0791 255.153 95.4482 255.288C95.8174 255.417 96.1338 255.593 96.3975 255.815C96.667 256.038 96.8955 256.287 97.083 256.562H97.1797C97.1504 256.381 97.1152 256.12 97.0742 255.78C97.0391 255.435 97.0215 255.115 97.0215 254.822V251.324H99.0957V265H97.4785L97.1094 263.673H97.0215C96.8457 263.954 96.623 264.209 96.3535 264.438C96.0898 264.66 95.7734 264.839 95.4043 264.974C95.041 265.108 94.6104 265.176 94.1123 265.176ZM94.6924 263.497C95.5771 263.497 96.2012 263.242 96.5645 262.732C96.9277 262.223 97.1152 261.458 97.127 260.438V260.166C97.127 259.076 96.9512 258.241 96.5996 257.661C96.248 257.075 95.6064 256.782 94.6748 256.782C93.9307 256.782 93.3623 257.084 92.9697 257.688C92.583 258.285 92.3896 259.12 92.3896 260.192C92.3896 261.265 92.583 262.085 92.9697 262.653C93.3623 263.216 93.9365 263.497 94.6924 263.497ZM105.934 255.086C106.801 255.086 107.545 255.265 108.166 255.622C108.787 255.979 109.265 256.486 109.599 257.143C109.933 257.799 110.1 258.584 110.1 259.498V260.605H103.604C103.628 261.549 103.88 262.275 104.36 262.785C104.847 263.295 105.526 263.55 106.399 263.55C107.021 263.55 107.577 263.491 108.069 263.374C108.567 263.251 109.08 263.072 109.607 262.838V264.517C109.121 264.745 108.626 264.912 108.122 265.018C107.618 265.123 107.015 265.176 106.312 265.176C105.356 265.176 104.516 264.991 103.789 264.622C103.068 264.247 102.503 263.69 102.093 262.952C101.688 262.214 101.486 261.297 101.486 260.201C101.486 259.111 101.671 258.186 102.04 257.424C102.409 256.662 102.928 256.082 103.596 255.684C104.264 255.285 105.043 255.086 105.934 255.086ZM105.934 256.642C105.283 256.642 104.756 256.853 104.352 257.274C103.953 257.696 103.719 258.314 103.648 259.129H108.078C108.072 258.643 107.99 258.212 107.832 257.837C107.68 257.462 107.445 257.169 107.129 256.958C106.818 256.747 106.42 256.642 105.934 256.642ZM114.652 265L110.952 255.271H113.141L115.145 260.983C115.273 261.347 115.391 261.739 115.496 262.161C115.602 262.583 115.675 262.938 115.716 263.225H115.786C115.827 262.926 115.906 262.568 116.023 262.152C116.141 261.73 116.261 261.341 116.384 260.983L118.388 255.271H120.567L116.867 265H114.652ZM124.109 255.271V265H122.044V255.271H124.109ZM123.09 251.544C123.406 251.544 123.679 251.629 123.907 251.799C124.142 251.969 124.259 252.262 124.259 252.678C124.259 253.088 124.142 253.381 123.907 253.557C123.679 253.727 123.406 253.812 123.09 253.812C122.762 253.812 122.483 253.727 122.255 253.557C122.032 253.381 121.921 253.088 121.921 252.678C121.921 252.262 122.032 251.969 122.255 251.799C122.483 251.629 122.762 251.544 123.09 251.544ZM130.991 265.176C130.071 265.176 129.274 264.997 128.601 264.64C127.927 264.282 127.408 263.734 127.045 262.996C126.682 262.258 126.5 261.32 126.5 260.184C126.5 259 126.699 258.033 127.098 257.283C127.496 256.533 128.047 255.979 128.75 255.622C129.459 255.265 130.271 255.086 131.185 255.086C131.765 255.086 132.289 255.145 132.758 255.262C133.232 255.373 133.634 255.511 133.962 255.675L133.347 257.327C132.989 257.181 132.623 257.058 132.248 256.958C131.873 256.858 131.513 256.809 131.167 256.809C130.599 256.809 130.124 256.935 129.743 257.187C129.368 257.438 129.087 257.813 128.899 258.312C128.718 258.81 128.627 259.428 128.627 260.166C128.627 260.881 128.721 261.484 128.908 261.977C129.096 262.463 129.374 262.832 129.743 263.084C130.112 263.33 130.566 263.453 131.105 263.453C131.639 263.453 132.116 263.389 132.538 263.26C132.96 263.131 133.358 262.964 133.733 262.759V264.552C133.364 264.763 132.969 264.918 132.547 265.018C132.125 265.123 131.606 265.176 130.991 265.176ZM139.895 255.086C140.762 255.086 141.506 255.265 142.127 255.622C142.748 255.979 143.226 256.486 143.56 257.143C143.894 257.799 144.061 258.584 144.061 259.498V260.605H137.565C137.589 261.549 137.841 262.275 138.321 262.785C138.808 263.295 139.487 263.55 140.36 263.55C140.981 263.55 141.538 263.491 142.03 263.374C142.528 263.251 143.041 263.072 143.568 262.838V264.517C143.082 264.745 142.587 264.912 142.083 265.018C141.579 265.123 140.976 265.176 140.272 265.176C139.317 265.176 138.477 264.991 137.75 264.622C137.029 264.247 136.464 263.69 136.054 262.952C135.649 262.214 135.447 261.297 135.447 260.201C135.447 259.111 135.632 258.186 136.001 257.424C136.37 256.662 136.889 256.082 137.557 255.684C138.225 255.285 139.004 255.086 139.895 255.086ZM139.895 256.642C139.244 256.642 138.717 256.853 138.312 257.274C137.914 257.696 137.68 258.314 137.609 259.129H142.039C142.033 258.643 141.951 258.212 141.793 257.837C141.641 257.462 141.406 257.169 141.09 256.958C140.779 256.747 140.381 256.642 139.895 256.642ZM159.547 255.271V265H157.921L157.64 263.69H157.525C157.32 264.024 157.06 264.303 156.743 264.525C156.427 264.742 156.075 264.903 155.688 265.009C155.302 265.12 154.895 265.176 154.467 265.176C153.734 265.176 153.107 265.053 152.586 264.807C152.07 264.555 151.675 264.168 151.399 263.646C151.124 263.125 150.986 262.451 150.986 261.625V255.271H153.061V261.238C153.061 261.994 153.213 262.56 153.518 262.935C153.828 263.31 154.309 263.497 154.959 263.497C155.586 263.497 156.084 263.368 156.453 263.11C156.822 262.853 157.083 262.472 157.235 261.968C157.394 261.464 157.473 260.846 157.473 260.113V255.271H159.547ZM167.501 255.086C168.655 255.086 169.581 255.508 170.278 256.352C170.981 257.195 171.333 258.449 171.333 260.113C171.333 261.215 171.169 262.144 170.841 262.899C170.519 263.649 170.064 264.218 169.479 264.604C168.898 264.985 168.222 265.176 167.448 265.176C166.956 265.176 166.528 265.111 166.165 264.982C165.802 264.854 165.491 264.687 165.233 264.481C164.976 264.271 164.759 264.042 164.583 263.796H164.46C164.489 264.03 164.516 264.291 164.539 264.578C164.568 264.859 164.583 265.117 164.583 265.352V269.315H162.509V255.271H164.196L164.486 256.615H164.583C164.765 256.34 164.984 256.085 165.242 255.851C165.506 255.616 165.822 255.432 166.191 255.297C166.566 255.156 167.003 255.086 167.501 255.086ZM166.947 256.773C166.379 256.773 165.922 256.888 165.576 257.116C165.236 257.339 164.987 257.676 164.829 258.127C164.677 258.578 164.595 259.144 164.583 259.823V260.113C164.583 260.834 164.656 261.446 164.803 261.95C164.955 262.448 165.204 262.829 165.55 263.093C165.901 263.351 166.376 263.479 166.974 263.479C167.478 263.479 167.894 263.342 168.222 263.066C168.556 262.791 168.805 262.398 168.969 261.889C169.133 261.379 169.215 260.778 169.215 260.087C169.215 259.038 169.027 258.224 168.652 257.644C168.283 257.063 167.715 256.773 166.947 256.773ZM178.654 255.086C178.818 255.086 178.997 255.095 179.19 255.112C179.384 255.13 179.551 255.153 179.691 255.183L179.498 257.116C179.375 257.081 179.223 257.055 179.041 257.037C178.865 257.02 178.707 257.011 178.566 257.011C178.197 257.011 177.846 257.072 177.512 257.195C177.178 257.312 176.882 257.494 176.624 257.74C176.366 257.98 176.164 258.282 176.018 258.646C175.871 259.009 175.798 259.431 175.798 259.911V265H173.724V255.271H175.341L175.622 256.984H175.719C175.912 256.639 176.152 256.322 176.439 256.035C176.727 255.748 177.055 255.52 177.424 255.35C177.799 255.174 178.209 255.086 178.654 255.086ZM183.559 255.271V265H181.493V255.271H183.559ZM182.539 251.544C182.855 251.544 183.128 251.629 183.356 251.799C183.591 251.969 183.708 252.262 183.708 252.678C183.708 253.088 183.591 253.381 183.356 253.557C183.128 253.727 182.855 253.812 182.539 253.812C182.211 253.812 181.933 253.727 181.704 253.557C181.481 253.381 181.37 253.088 181.37 252.678C181.37 252.262 181.481 251.969 181.704 251.799C181.933 251.629 182.211 251.544 182.539 251.544ZM189.298 269.324C187.979 269.324 186.969 269.087 186.266 268.612C185.562 268.138 185.211 267.473 185.211 266.617C185.211 266.02 185.398 265.513 185.773 265.097C186.148 264.687 186.685 264.402 187.382 264.244C187.118 264.127 186.89 263.945 186.696 263.699C186.509 263.447 186.415 263.169 186.415 262.864C186.415 262.501 186.518 262.19 186.723 261.933C186.928 261.675 187.235 261.426 187.646 261.186C187.136 260.969 186.726 260.617 186.415 260.131C186.11 259.639 185.958 259.062 185.958 258.399C185.958 257.696 186.107 257.099 186.406 256.606C186.705 256.108 187.142 255.73 187.716 255.473C188.29 255.209 188.984 255.077 189.799 255.077C189.975 255.077 190.165 255.089 190.37 255.112C190.581 255.13 190.774 255.153 190.95 255.183C191.132 255.206 191.27 255.232 191.363 255.262H194.729V256.413L193.077 256.721C193.235 256.943 193.361 257.198 193.455 257.485C193.549 257.767 193.596 258.074 193.596 258.408C193.596 259.416 193.247 260.21 192.55 260.79C191.858 261.364 190.903 261.651 189.685 261.651C189.392 261.64 189.107 261.616 188.832 261.581C188.621 261.71 188.46 261.854 188.349 262.012C188.237 262.164 188.182 262.337 188.182 262.53C188.182 262.688 188.237 262.817 188.349 262.917C188.46 263.011 188.624 263.081 188.841 263.128C189.063 263.175 189.333 263.198 189.649 263.198H191.328C192.395 263.198 193.209 263.424 193.771 263.875C194.334 264.326 194.615 264.988 194.615 265.861C194.615 266.969 194.158 267.821 193.244 268.419C192.33 269.022 191.015 269.324 189.298 269.324ZM189.377 267.874C190.098 267.874 190.704 267.804 191.196 267.663C191.688 267.522 192.061 267.32 192.312 267.057C192.564 266.799 192.69 266.491 192.69 266.134C192.69 265.817 192.611 265.574 192.453 265.404C192.295 265.234 192.058 265.117 191.741 265.053C191.425 264.988 191.032 264.956 190.563 264.956H189.034C188.653 264.956 188.316 265.015 188.023 265.132C187.73 265.255 187.502 265.431 187.338 265.659C187.18 265.888 187.101 266.163 187.101 266.485C187.101 266.931 187.297 267.273 187.689 267.514C188.088 267.754 188.65 267.874 189.377 267.874ZM189.781 260.298C190.385 260.298 190.833 260.134 191.126 259.806C191.419 259.472 191.565 259.003 191.565 258.399C191.565 257.743 191.413 257.251 191.108 256.923C190.81 256.595 190.364 256.431 189.772 256.431C189.192 256.431 188.75 256.598 188.445 256.932C188.146 257.266 187.997 257.761 187.997 258.417C187.997 259.009 188.146 259.472 188.445 259.806C188.75 260.134 189.195 260.298 189.781 260.298ZM198.57 251.324V254.761C198.57 255.118 198.559 255.467 198.535 255.807C198.518 256.146 198.497 256.41 198.474 256.598H198.588C198.793 256.258 199.045 255.979 199.344 255.763C199.643 255.54 199.977 255.373 200.346 255.262C200.721 255.15 201.119 255.095 201.541 255.095C202.285 255.095 202.918 255.221 203.439 255.473C203.961 255.719 204.359 256.103 204.635 256.624C204.916 257.146 205.057 257.822 205.057 258.654V265H202.991V259.041C202.991 258.285 202.836 257.72 202.525 257.345C202.215 256.964 201.734 256.773 201.084 256.773C200.457 256.773 199.959 256.905 199.59 257.169C199.227 257.427 198.966 257.811 198.808 258.32C198.649 258.824 198.57 259.439 198.57 260.166V265H196.505V251.324H198.57ZM211.569 263.506C211.839 263.506 212.105 263.482 212.369 263.436C212.633 263.383 212.873 263.321 213.09 263.251V264.815C212.861 264.915 212.565 265 212.202 265.07C211.839 265.141 211.461 265.176 211.068 265.176C210.518 265.176 210.022 265.085 209.583 264.903C209.144 264.716 208.795 264.396 208.537 263.945C208.279 263.494 208.15 262.87 208.15 262.073V256.844H206.823V255.921L208.247 255.191L208.924 253.108H210.225V255.271H213.011V256.844H210.225V262.047C210.225 262.539 210.348 262.905 210.594 263.146C210.84 263.386 211.165 263.506 211.569 263.506Z" fill="#000000"/>
</svg>
