<svg width="12" height="60" viewBox="0 0 12 60" fill="none" xmlns="http://www.w3.org/2000/svg">
<path d="M8.82313 60C8.01363 59.8085 5.96722 59.5405 4.25756 60H0.566241C0.0805416 59.6718 -0.541153 58.9825 0.85766 58.8512L0.873225 58.8497C2.62228 58.6856 5.32811 58.4317 6.00607 55.3226C6.55006 52.828 5.84417 49.5785 5.42323 48.2655V45.3935C4.90515 45.1473 4.02442 44.0641 4.64611 41.7008C2.39247 39.9283 2.21762 33.5769 2.4119 30.6228C1.99096 28.9816 1.16851 25.6172 1.24622 25.2889C0.954801 24.7966 1.53764 21.3501 0.566241 16.8368C0.177682 17.0338 0.145302 16.6454 0.177681 16.4265C0.59862 15.0315 2.29533 11.6999 5.71465 9.53355C5.48152 8.87707 5.29371 8.2206 5.22895 7.97442C4.87277 8.24795 3.90785 8.71295 2.8976 8.38472C2.50904 8.25342 2.7357 7.56412 2.8976 7.23589C2.60618 7.04441 2.13991 6.49735 2.60618 5.84088C2.13991 5.84088 1.82906 5.67676 1.73192 5.5947L2.60618 4.44587C2.37952 3.65263 2.25647 1.86921 3.57758 1.08144V0.342904C6.39463 -0.31357 11.7762 -0.477689 10.7659 4.11763C8.51223 6.61224 9.43829 8.76766 10.183 9.53355C11.4135 10.7644 13.2528 14.2437 10.7659 18.3139C9.21161 22.9092 9.27635 25.371 9.50301 26.0275C10.7658 27.3951 12.5338 30.8361 9.50301 33.659C10.7658 38.5005 10.183 40.7161 9.50301 41.4546C9.69729 42.5214 9.40587 42.1932 9.89157 43.0958C10.2801 43.8179 10.0535 44.7643 9.89157 45.1473C10.5068 46.3508 11.3681 49.7918 9.89157 53.9276C9.03682 56.0284 9.27638 57.7024 9.50301 58.2768C9.76212 58.7144 9.98888 59.6717 8.82313 60Z" fill="#252525"/>
</svg>
