<svg width="299" height="179" viewBox="0 0 299 179" fill="none" xmlns="http://www.w3.org/2000/svg">
<ellipse rx="45.8992" ry="45.8415" transform="matrix(-1 0 0 1 45.8992 89.8415)" fill="url(#paint0_linear_298_6665)"/>
<path fill-rule="evenodd" clip-rule="evenodd" d="M69.0679 50.5488L60.7543 95.3046C58.6393 94.2785 57.2883 97.0209 56.86 98.4633C56.8435 98.5187 56.8856 98.5728 56.9434 98.5728H57.6929C57.7349 98.5728 57.7707 98.5436 57.7793 98.5025C57.9965 97.4706 58.85 95.6484 60.7077 95.5553L60.1066 98.7915H51.3639C51.801 96.9724 52.6753 91.8934 52.6753 86.1305C52.6753 83.8484 52.4779 82.5741 52.3054 81.4608C51.9335 79.0599 51.6776 77.408 53.7682 68.0122C48.5026 70.5489 37.7801 75.9052 31.3553 79.7067C30.3919 77.7993 27.689 78.9775 26.4507 79.7785C26.4024 79.8097 26.399 79.8777 26.4424 79.9154L26.9955 80.3955C27.0273 80.4232 27.0737 80.4245 27.1072 80.3989C27.9143 79.7813 29.6299 78.9877 31.0354 79.8968C30.0354 80.4939 29.1485 81.0496 28.4143 81.5463L21.6387 76.5256C25.8571 73.1096 34.045 65.6845 37.4082 62.6152C38.4023 61.7081 39.5252 60.954 40.756 60.4097C43.19 59.3334 47.4152 57.547 49.6154 57.0976C50.1982 57.0248 51.3639 55.6132 51.3639 50.5488L48.304 44C52.3839 44 62.2486 45.3098 69.0679 50.5488ZM65.5709 48.3654L63.6038 47.4922C65.0609 52.0763 66.7512 61.8558 61.8552 64.3007C64.1138 64.519 68.0188 61.6376 65.5709 48.3654ZM35.2635 66.1517C41.3119 61.2479 46.1294 59.5776 48.315 59.4744C48.7344 59.4546 49.2474 59.7782 49.1761 60.1916C49.0938 60.6693 48.6398 60.7437 48.1601 60.8223C48.0573 60.8391 47.9534 60.8562 47.8516 60.8774C45.185 61.4341 38.5944 64.5399 35.2635 66.1517ZM54.7758 69.0437C53.811 71.0048 52.9495 76.0249 54.3292 83.6831C54.524 79.9921 54.9826 72.73 55.7817 70.1279C55.8122 70.0285 55.8475 69.9292 55.8824 69.831L55.8824 69.831C56.0452 69.3727 56.1993 68.9392 55.8197 68.6367C55.4917 68.3753 54.9609 68.6675 54.7758 69.0437Z" fill="white"/>
<path fill-rule="evenodd" clip-rule="evenodd" d="M73.9176 111.249C70.2057 109.905 62.6507 105.427 62.1261 98.2673C61.5578 96.5643 60.1025 94.197 58.7334 97.9675C58.6693 98.1441 58.5024 98.2673 58.3145 98.2673H52.6603C52.525 99.3317 52.2987 100.548 52.0724 100.887L51.242 102.131C51.2129 102.175 51.1917 102.225 51.1798 102.276C49.7509 108.431 50.2634 110.895 50.5057 112.06C50.5189 112.123 50.5312 112.183 50.5424 112.239C50.7173 113.112 57.7551 113.912 61.2522 114.203C69.3392 115.949 75.2405 115.731 77.4262 115.513C77.2076 117.259 49.8867 114.421 49.0124 112.675C48.3183 111.289 49.1455 107.351 49.6566 105.513C49.6644 105.485 49.6692 105.456 49.6714 105.427C49.846 103.137 50.7991 101.569 51.3305 100.978C51.3856 100.917 51.4271 100.842 51.4454 100.761C51.7362 99.4863 51.9477 98.6078 52.1059 97.9997C52.0841 97.9477 52.072 97.8906 52.072 97.8307V97.191C52.072 97.0452 51.9991 96.909 51.8778 96.8282C51.6427 96.6717 51.3244 96.7762 51.236 97.0443C50.9149 98.0177 50.4281 99.6909 50.1344 101.369C50.1151 101.48 50.0541 101.578 49.9703 101.653C49.3667 102.191 48.3784 103.607 48.3568 105.833C48.3563 105.882 48.3486 105.93 48.3328 105.976C47.7473 107.683 46.7921 111.434 47.4821 113.33C48.1815 115.25 56.9013 116.036 60.9812 116.036C64.7937 116.745 72.4104 117.776 73.9176 117.449C77.2918 116.969 81.6868 115.115 73.9176 111.249Z" fill="white"/>
<path fill-rule="evenodd" clip-rule="evenodd" d="M30.9771 100.36C29.0032 96.9449 26.1092 88.6606 30.3237 82.8449C30.9866 81.1763 31.3993 78.4292 27.921 80.4338C27.7581 80.5276 27.5509 80.5146 27.407 80.3937L23.0803 76.7573C22.2907 77.4845 21.3337 78.2694 20.9421 78.3833L19.5047 78.8012C19.4544 78.8158 19.4061 78.8401 19.3642 78.8715C14.3026 82.6625 13.1064 84.8773 12.5407 85.9245C12.51 85.9813 12.4812 86.0347 12.4537 86.0847C12.0245 86.8653 16.8935 92.0034 19.3817 94.4749C24.4436 101.011 29.0996 104.639 30.9127 105.878C29.6197 107.073 10.5447 87.3333 11.0016 85.4349C11.3643 83.9276 14.536 81.4464 16.1117 80.369C16.1359 80.3524 16.1578 80.3339 16.1784 80.3129C17.7885 78.6727 19.5284 78.0862 20.3158 77.9759C20.3974 77.9645 20.4778 77.9333 20.5436 77.8837C21.5883 77.095 22.3166 76.5587 22.8297 76.1951C22.8465 76.1419 22.8739 76.0911 22.9121 76.0457L23.325 75.5557C23.4188 75.4444 23.4507 75.2935 23.41 75.1538C23.331 74.8829 23.0201 74.758 22.7797 74.9062C21.9065 75.4445 20.4552 76.4117 19.1484 77.5071C19.0624 77.5793 18.9528 77.6149 18.8405 77.6183C18.0311 77.6424 16.362 78.0904 14.9106 79.7795C14.8788 79.8165 14.8422 79.8481 14.8003 79.8732C13.2517 80.8031 10.1026 83.0589 9.40873 84.9528C8.70549 86.8724 14.8709 93.0807 17.9927 95.7043C20.4527 98.6984 25.6159 104.385 26.9799 105.104C29.8714 106.906 34.429 108.315 30.9771 100.36Z" fill="white"/>
<path d="M15.7363 86.7866L29.0689 101.631L23.3862 80.0195L15.7363 86.7866Z" stroke="#3EBEB2" stroke-width="0.436585"/>
<ellipse cx="28.8503" cy="101.193" rx="0.87427" ry="0.873171" fill="#3EBEB2"/>
<ellipse cx="16.1731" cy="86.7833" rx="0.87427" ry="0.873171" fill="#3EBEB2"/>
<ellipse cx="23.6042" cy="80.2365" rx="0.87427" ry="0.873171" fill="#3EBEB2"/>
<path d="M52.992 111.209L72.697 114.426L54.7039 101.148L52.992 111.209Z" stroke="#3EBEB2" stroke-width="0.436585"/>
<ellipse cx="55.0784" cy="101.192" rx="0.87427" ry="0.873171" fill="#3EBEB2"/>
<ellipse cx="52.8931" cy="110.797" rx="0.87427" ry="0.873171" fill="#3EBEB2"/>
<ellipse cx="72.1272" cy="113.854" rx="0.87427" ry="0.873171" fill="#3EBEB2"/>
<path d="M56.8268 60.1543C46.9913 64.3019 31.0358 73.0336 24.2603 79.8006" stroke="#41D0A7" stroke-width="0.436585"/>
<path d="M56.8271 60.1541C57.4829 58.0439 58.6631 52.6448 58.1386 47.9297" stroke="#41D0A7" stroke-width="0.436585"/>
<path d="M62.0726 67.1394C58.7941 73.2516 55.2795 93.5851 55.0784 100.32" stroke="#41D0A7" stroke-width="0.436585" stroke-linecap="round" stroke-linejoin="round"/>
<ellipse cx="56.8267" cy="60.1544" rx="0.87427" ry="0.873171" fill="#41D0A7"/>
<ellipse cx="62.0725" cy="67.1388" rx="0.87427" ry="0.873171" fill="#41D0A7"/>
<path d="M231.815 51.5957C231.733 52.7085 231.588 54.3571 231.382 56.5414C231.176 58.6846 230.929 61.1368 230.64 63.8981C230.393 66.6183 230.125 69.4827 229.837 72.4913C229.548 75.4999 229.26 78.3849 228.971 81.1463C228.724 83.8664 228.497 86.3392 228.291 88.5648C228.085 90.7904 227.941 92.4595 227.858 93.5723C226.993 102.351 225.509 109.893 223.407 116.199C221.347 122.463 218.626 127.595 215.247 131.592C211.867 135.59 207.808 138.516 203.068 140.371C198.37 142.267 192.929 143.215 186.747 143.215C182.502 143.215 178.505 142.432 174.754 140.865C171.004 139.341 167.727 137.177 164.924 134.374C162.122 131.572 159.896 128.213 158.248 124.297C156.64 120.341 155.837 115.952 155.837 111.13C155.837 110.511 155.878 109.399 155.96 107.791C156.084 106.143 156.228 104.144 156.393 101.795C156.599 99.4453 156.805 96.787 157.011 93.8196C157.259 90.811 157.506 87.6169 157.753 84.2373L158.495 73.975C158.742 70.2245 158.928 67.1128 159.051 64.64C159.175 62.1259 159.299 60.1065 159.422 58.5815C159.587 57.0566 159.814 55.9438 160.102 55.2432C160.391 54.5425 160.844 54.0892 161.462 53.8831L182.544 49.1847C183.079 49.0199 183.636 48.9374 184.213 48.9374C184.872 48.9374 185.305 49.1229 185.511 49.4938C185.758 49.8647 185.882 50.5654 185.882 51.5957L181.183 100.311C181.101 101.753 180.957 103.319 180.751 105.009C180.545 106.699 180.442 108.43 180.442 110.202C180.442 111.274 180.565 112.448 180.813 113.726C181.101 115.004 181.596 116.219 182.296 117.373C182.997 118.486 183.945 119.434 185.14 120.217C186.376 120.959 187.963 121.33 189.9 121.33C192.249 121.33 194.145 120.835 195.588 119.846C197.03 118.816 198.184 117.476 199.05 115.828C199.915 114.138 200.533 112.242 200.904 110.14C201.317 107.997 201.646 105.813 201.894 103.587C202.1 100.991 202.347 97.941 202.635 94.4378C202.924 90.9346 203.212 87.1841 203.501 83.1864L205.294 58.5197C205.376 57.7779 205.417 57.1596 205.417 56.6651C205.459 56.1705 205.52 55.7584 205.603 55.4286C205.685 55.0989 205.85 54.8517 206.097 54.6868C206.386 54.5219 206.819 54.3983 207.396 54.3159L228.477 49.1847C229.012 49.0199 229.569 48.9374 230.146 48.9374C230.723 48.9374 231.135 49.1229 231.382 49.4938C231.671 49.8235 231.815 50.5242 231.815 51.5957Z" fill="url(#paint1_linear_298_6665)"/>
<path d="M121.366 81.7214C122.676 80.499 124.116 79.5058 125.688 78.7417C127.26 77.9777 129.104 77.5957 131.222 77.5957C133.056 77.5957 134.682 77.9122 136.101 78.5453C137.52 79.1565 138.698 80.0297 139.637 81.1648C140.598 82.2781 141.318 83.6206 141.798 85.1923C142.3 86.7422 142.551 88.4558 142.551 90.3331V111.715H134.464V90.3331C134.464 88.2811 133.994 86.6985 133.056 85.5852C132.117 84.4501 130.687 83.8825 128.766 83.8825C127.369 83.8825 126.059 84.1991 124.837 84.8321C123.614 85.4651 122.457 86.3274 121.366 87.4189V111.715H113.278V63.0574H121.366V81.7214ZM173.196 91.0534C173.196 90.0056 173.044 89.0233 172.738 88.1065C172.454 87.1678 172.018 86.3492 171.428 85.6507C170.839 84.9522 170.086 84.4064 169.169 84.0135C168.274 83.5987 167.226 83.3914 166.026 83.3914C163.69 83.3914 161.845 84.0572 160.492 85.3887C159.16 86.7203 158.309 88.6086 157.938 91.0534H173.196ZM157.774 95.9323C157.905 97.6568 158.211 99.1521 158.691 100.418C159.171 101.662 159.804 102.699 160.59 103.529C161.376 104.337 162.304 104.948 163.373 105.363C164.465 105.755 165.665 105.952 166.975 105.952C168.285 105.952 169.409 105.799 170.348 105.494C171.308 105.188 172.138 104.85 172.836 104.478C173.557 104.107 174.179 103.769 174.703 103.463C175.248 103.158 175.772 103.005 176.274 103.005C176.951 103.005 177.453 103.256 177.781 103.758L180.105 106.705C179.21 107.753 178.206 108.637 177.093 109.357C175.98 110.056 174.812 110.623 173.589 111.06C172.389 111.475 171.155 111.769 169.889 111.944C168.645 112.119 167.434 112.206 166.255 112.206C163.919 112.206 161.747 111.824 159.739 111.06C157.73 110.274 155.984 109.128 154.5 107.622C153.015 106.094 151.847 104.216 150.996 101.99C150.145 99.7415 149.719 97.1438 149.719 94.1969C149.719 91.9048 150.09 89.7546 150.832 87.7463C151.575 85.7162 152.633 83.9589 154.009 82.4745C155.406 80.9683 157.097 79.7786 159.084 78.9055C161.092 78.0323 163.351 77.5957 165.862 77.5957C167.979 77.5957 169.933 77.9341 171.723 78.6108C173.513 79.2875 175.052 80.2807 176.34 81.5905C177.628 82.8784 178.632 84.4719 179.352 86.3711C180.095 88.2484 180.466 90.3986 180.466 92.8216C180.466 94.0441 180.335 94.8736 180.073 95.3101C179.811 95.7249 179.309 95.9323 178.566 95.9323H157.774ZM205.592 97.373C203.256 97.4822 201.292 97.6895 199.698 97.9951C198.105 98.2789 196.828 98.65 195.867 99.1084C194.907 99.5669 194.219 100.102 193.804 100.713C193.389 101.324 193.182 101.99 193.182 102.71C193.182 104.129 193.597 105.144 194.426 105.755C195.278 106.367 196.38 106.672 197.733 106.672C199.392 106.672 200.822 106.378 202.023 105.788C203.245 105.177 204.435 104.26 205.592 103.038V97.373ZM187.059 82.802C190.923 79.2656 195.572 77.4975 201.008 77.4975C202.972 77.4975 204.73 77.8249 206.28 78.4798C207.829 79.1128 209.139 80.0078 210.209 81.1648C211.278 82.2999 212.086 83.6642 212.632 85.2578C213.199 86.8513 213.483 88.5976 213.483 90.4968V111.715H209.816C209.052 111.715 208.463 111.606 208.048 111.387C207.633 111.147 207.306 110.678 207.065 109.979L206.345 107.556C205.494 108.32 204.664 108.997 203.857 109.586C203.049 110.154 202.208 110.634 201.335 111.027C200.462 111.42 199.523 111.715 198.519 111.911C197.537 112.13 196.445 112.239 195.245 112.239C193.826 112.239 192.516 112.053 191.316 111.682C190.115 111.289 189.078 110.711 188.205 109.947C187.332 109.183 186.655 108.233 186.175 107.098C185.695 105.963 185.454 104.642 185.454 103.136C185.454 102.285 185.596 101.444 185.88 100.615C186.164 99.7633 186.622 98.9556 187.255 98.1916C187.91 97.4276 188.751 96.7072 189.777 96.0305C190.803 95.3538 192.058 94.7644 193.542 94.2623C195.048 93.7603 196.795 93.3564 198.781 93.0508C200.768 92.7234 203.038 92.5269 205.592 92.4614V90.4968C205.592 88.2484 205.112 86.5894 204.151 85.5197C203.191 84.4283 201.805 83.8825 199.993 83.8825C198.683 83.8825 197.592 84.0353 196.718 84.3409C195.867 84.6466 195.114 84.9958 194.459 85.3887C193.804 85.7598 193.204 86.0982 192.658 86.4038C192.134 86.7094 191.545 86.8622 190.89 86.8622C190.322 86.8622 189.842 86.7203 189.449 86.4366C189.056 86.1309 188.74 85.7817 188.5 85.3887L187.059 82.802ZM230.596 63.0574V111.715H222.508V63.0574H230.596ZM251.162 112.239C248.237 112.239 245.989 111.42 244.417 109.783C242.867 108.124 242.092 105.843 242.092 102.939V84.1772H238.654C238.218 84.1772 237.846 84.0353 237.541 83.7516C237.235 83.4678 237.082 83.0421 237.082 82.4745V79.2656L242.485 78.3816L244.188 69.2133C244.297 68.7767 244.504 68.4383 244.81 68.1982C245.116 67.9581 245.508 67.838 245.989 67.838H250.18V78.4143H259.152V84.1772H250.18V102.383C250.18 103.431 250.431 104.249 250.933 104.839C251.457 105.428 252.166 105.723 253.061 105.723C253.563 105.723 253.978 105.668 254.306 105.559C254.655 105.428 254.95 105.297 255.19 105.166C255.452 105.035 255.681 104.915 255.877 104.806C256.074 104.675 256.27 104.609 256.467 104.609C256.707 104.609 256.903 104.675 257.056 104.806C257.209 104.915 257.373 105.09 257.547 105.33L259.97 109.259C258.792 110.241 257.438 110.984 255.91 111.486C254.382 111.988 252.799 112.239 251.162 112.239ZM273.727 81.7214C275.037 80.499 276.478 79.5058 278.05 78.7417C279.621 77.9777 281.466 77.5957 283.583 77.5957C285.417 77.5957 287.043 77.9122 288.462 78.5453C289.881 79.1565 291.06 80.0297 291.999 81.1648C292.959 82.2781 293.679 83.6206 294.16 85.1923C294.662 86.7422 294.913 88.4558 294.913 90.3331V111.715H286.825V90.3331C286.825 88.2811 286.356 86.6985 285.417 85.5852C284.478 84.4501 283.049 83.8825 281.128 83.8825C279.73 83.8825 278.421 84.1991 277.198 84.8321C275.976 85.4651 274.819 86.3274 273.727 87.4189V111.715H265.64V63.0574H273.727V81.7214Z" fill="#2C350D"/>
<path d="M123.64 136.049C122.239 136.115 121.06 136.239 120.104 136.422C119.148 136.593 118.382 136.815 117.805 137.09C117.229 137.366 116.817 137.686 116.568 138.053C116.319 138.42 116.194 138.819 116.194 139.252C116.194 140.103 116.443 140.712 116.941 141.079C117.452 141.445 118.113 141.629 118.925 141.629C119.921 141.629 120.779 141.452 121.499 141.098C122.232 140.732 122.946 140.181 123.64 139.448V136.049ZM112.521 127.307C114.839 125.185 117.629 124.124 120.89 124.124C122.069 124.124 123.123 124.32 124.053 124.713C124.983 125.093 125.769 125.63 126.411 126.324C127.052 127.005 127.537 127.824 127.864 128.78C128.205 129.736 128.375 130.784 128.375 131.923V144.654H126.175C125.716 144.654 125.363 144.589 125.114 144.458C124.865 144.314 124.669 144.032 124.524 143.613L124.092 142.159C123.581 142.618 123.084 143.024 122.599 143.377C122.115 143.718 121.61 144.006 121.086 144.242C120.562 144.477 119.999 144.654 119.397 144.772C118.807 144.903 118.153 144.969 117.432 144.969C116.581 144.969 115.795 144.857 115.075 144.635C114.354 144.399 113.732 144.052 113.208 143.593C112.684 143.135 112.278 142.565 111.99 141.884C111.702 141.203 111.558 140.411 111.558 139.507C111.558 138.996 111.643 138.492 111.813 137.994C111.984 137.483 112.259 136.999 112.638 136.54C113.031 136.082 113.536 135.65 114.151 135.244C114.767 134.838 115.52 134.484 116.411 134.183C117.314 133.882 118.362 133.639 119.554 133.456C120.746 133.259 122.108 133.142 123.64 133.102V131.923C123.64 130.574 123.352 129.579 122.776 128.937C122.2 128.282 121.368 127.955 120.281 127.955C119.495 127.955 118.84 128.047 118.316 128.23C117.805 128.413 117.354 128.623 116.961 128.859C116.568 129.081 116.208 129.284 115.88 129.468C115.566 129.651 115.212 129.743 114.819 129.743C114.479 129.743 114.19 129.658 113.955 129.487C113.719 129.304 113.529 129.094 113.385 128.859L112.521 127.307ZM138.584 139.428C139.134 140.096 139.73 140.568 140.372 140.843C141.027 141.118 141.734 141.255 142.494 141.255C143.227 141.255 143.888 141.118 144.478 140.843C145.067 140.568 145.565 140.149 145.971 139.586C146.39 139.022 146.711 138.315 146.934 137.464C147.156 136.599 147.268 135.584 147.268 134.419C147.268 133.24 147.169 132.244 146.973 131.432C146.79 130.607 146.521 129.939 146.167 129.428C145.814 128.918 145.382 128.544 144.871 128.309C144.373 128.073 143.803 127.955 143.161 127.955C142.153 127.955 141.295 128.171 140.588 128.603C139.881 129.022 139.213 129.618 138.584 130.391V139.428ZM138.328 127.248C139.154 126.318 140.09 125.565 141.138 124.988C142.186 124.412 143.417 124.124 144.831 124.124C145.932 124.124 146.934 124.353 147.837 124.811C148.754 125.27 149.54 125.938 150.195 126.815C150.863 127.68 151.374 128.754 151.727 130.037C152.094 131.308 152.277 132.768 152.277 134.419C152.277 135.925 152.074 137.32 151.668 138.603C151.262 139.887 150.679 141 149.92 141.943C149.173 142.886 148.263 143.626 147.189 144.163C146.128 144.687 144.936 144.949 143.613 144.949C142.487 144.949 141.524 144.779 140.725 144.438C139.926 144.085 139.213 143.6 138.584 142.984V151.236H133.731V124.497H136.698C137.327 124.497 137.739 124.792 137.936 125.381L138.328 127.248ZM161.702 139.428C162.252 140.096 162.848 140.568 163.49 140.843C164.145 141.118 164.852 141.255 165.612 141.255C166.345 141.255 167.007 141.118 167.596 140.843C168.185 140.568 168.683 140.149 169.089 139.586C169.508 139.022 169.829 138.315 170.052 137.464C170.274 136.599 170.386 135.584 170.386 134.419C170.386 133.24 170.288 132.244 170.091 131.432C169.908 130.607 169.639 129.939 169.286 129.428C168.932 128.918 168.5 128.544 167.989 128.309C167.491 128.073 166.921 127.955 166.28 127.955C165.271 127.955 164.413 128.171 163.706 128.603C162.999 129.022 162.331 129.618 161.702 130.391V139.428ZM161.447 127.248C162.272 126.318 163.208 125.565 164.256 124.988C165.304 124.412 166.535 124.124 167.95 124.124C169.05 124.124 170.052 124.353 170.956 124.811C171.872 125.27 172.658 125.938 173.313 126.815C173.981 127.68 174.492 128.754 174.846 130.037C175.212 131.308 175.396 132.768 175.396 134.419C175.396 135.925 175.193 137.32 174.787 138.603C174.381 139.887 173.798 141 173.038 141.943C172.291 142.886 171.381 143.626 170.307 144.163C169.246 144.687 168.054 144.949 166.732 144.949C165.605 144.949 164.643 144.779 163.844 144.438C163.045 144.085 162.331 143.6 161.702 142.984V151.236H156.849V124.497H159.816C160.445 124.497 160.857 124.792 161.054 125.381L161.447 127.248Z" fill="#2C350D"/>
<defs>
<linearGradient id="paint0_linear_298_6665" x1="45.8992" y1="0" x2="45.8992" y2="91.6829" gradientUnits="userSpaceOnUse">
<stop stop-color="#41D6A2"/>
<stop offset="1" stop-color="#3CB3B9"/>
</linearGradient>
<linearGradient id="paint1_linear_298_6665" x1="189.279" y1="0" x2="189.279" y2="179" gradientUnits="userSpaceOnUse">
<stop stop-color="#42E299"/>
<stop offset="1" stop-color="#3CB3B9"/>
</linearGradient>
</defs>
</svg>
