<svg width="135" height="397" stroke="#D1D3DA" stroke-width="0.3" viewBox="0 0 135 397" fill="none" xmlns="http://www.w3.org/2000/svg">
<path fill-rule="evenodd" clip-rule="evenodd" d="M67.8586 0.368057C64.6248 0.0704214 59.7846 0.829323 55.8305 4.03231C51.8484 7.2581 48.8356 12.9048 49.1955 22.2396C48.8812 22.3099 48.5681 22.4656 48.2908 22.7278C47.864 23.1314 47.5563 23.7537 47.4217 24.6144C47.1571 26.3071 47.54 29.0519 49.2104 33.3673C49.0803 36.3249 50.2344 43.4635 55.8089 49.7863C55.8665 50.9056 55.773 52.6604 55.3081 54.4426C54.8193 56.3162 53.9357 58.162 52.4473 59.3578C50.5024 60.9205 46.4969 63.0617 41.9522 64.941C37.4137 66.8177 32.4031 68.4059 28.4663 68.8925C24.3045 69.407 20.9553 72.8706 18.6431 77.4592C16.3294 82.0508 14.9901 87.8837 14.8921 93.4133C13.5552 98.1886 11.7606 106.083 10.6949 114.346C9.63739 122.545 9.28852 131.169 10.8555 137.471C10.0254 138.865 8.87179 141.09 7.97457 143.462C7.04745 145.913 6.36144 148.603 6.66153 150.705C6.79507 151.641 6.77643 153.693 6.64558 156.461C6.51563 159.209 6.27802 162.616 5.9882 166.227C5.41101 173.418 4.62785 181.407 4.0798 186.594C2.28016 191.145 0.538959 198.854 1.05675 207.41C1.57724 216.011 4.38276 225.495 11.7348 233.481C11.9494 233.714 12.26 233.819 12.5569 233.762C12.8669 233.703 13.1275 233.469 13.2017 233.121C13.5257 231.604 13.3947 228.472 11.36 223.669C11.3527 222.079 11.1659 218.546 10.4364 216.326C10.7685 214.779 11.5072 211.142 12.357 206.466C12.8346 209.866 13.9804 214.354 16.3794 217.855C16.6535 218.255 16.9446 218.576 17.2662 218.726C17.4402 218.807 17.6405 218.845 17.8488 218.797C18.0546 218.75 18.2144 218.631 18.3328 218.496C18.555 218.242 18.6905 217.865 18.7837 217.465C18.8808 217.049 18.9473 216.539 18.9896 215.959C19.1581 213.649 18.9557 210.025 18.5584 206.268C18.1603 202.504 17.5629 198.572 16.9302 195.637C16.6148 194.174 16.2864 192.939 15.9634 192.092C15.8043 191.675 15.6329 191.316 15.4438 191.07C15.4018 191.015 15.3537 190.959 15.2989 190.907C17.8068 185.812 21.4334 177.943 24.4474 170.31C26.0001 166.378 27.393 162.501 28.3866 159.095C29.3764 155.702 29.984 152.731 29.9351 150.628C29.8124 145.342 29.6161 142.887 29.4437 141.896C29.4439 141.892 29.4441 141.887 29.4444 141.882C29.4453 141.861 29.4468 141.836 29.4488 141.805C29.4543 141.722 29.4629 141.613 29.4728 141.504C29.4826 141.395 29.4935 141.288 29.5032 141.207C29.5059 141.184 29.5084 141.164 29.5106 141.149C30.6123 139.043 32.4137 133.585 33.3215 123.877C33.9124 125.035 34.583 126.408 35.1594 127.706C35.58 128.653 35.9466 129.552 36.1956 130.294C36.3201 130.665 36.4125 130.989 36.468 131.256C36.5255 131.532 36.5347 131.708 36.5222 131.8C36.4701 132.183 36.4424 133.463 36.4276 135.226C36.4126 137.011 36.4112 139.34 36.418 141.864C36.4316 146.866 36.4779 152.639 36.5169 156.47C34.9841 159.952 32.5925 170.247 34.6283 184.949C32.5093 192.852 29.9457 206.103 29.1005 220.322C28.2545 234.556 29.1263 249.819 33.9353 261.665C34.0912 265.535 34.2769 271.562 34.3313 277.169C34.3863 282.839 34.3057 288.019 33.9384 290.141C32.988 295.634 29.9306 326.828 41.4702 363.96C41.618 364.676 41.8207 366.513 41.4658 368.191C41.3604 368.69 41.2366 368.912 41.1234 369.081C41.1009 369.115 41.0753 369.151 41.0474 369.19C40.9309 369.353 40.7764 369.57 40.6609 369.888C40.5185 370.281 40.4278 370.825 40.3978 371.712C40.3678 372.599 40.3978 373.858 40.5143 375.701C40.3528 378.421 38.6145 385.039 32.9296 389.664L32.8521 389.727L32.8069 389.816C32.472 390.476 32.1019 391.537 32.0976 392.59C32.0932 393.661 32.4765 394.796 33.7291 395.395L33.7997 395.428L33.8774 395.437C34.2513 395.481 34.8233 395.51 35.3177 395.443C35.5604 395.41 35.8276 395.349 36.0473 395.225L36.0493 395.224C36.0956 395.277 36.1469 395.331 36.2034 395.381C36.4986 395.647 36.9231 395.84 37.4886 395.777C37.9488 395.727 38.4702 395.51 39.0712 395.088C39.475 395.427 40.0356 395.764 40.6693 395.883C41.0861 395.962 41.5407 395.947 41.9949 395.769C42.3163 395.642 42.6219 395.44 42.9052 395.154C43.3316 395.51 43.9017 395.859 44.5238 395.987C44.9512 396.075 45.4175 396.06 45.8704 395.854C46.1731 395.716 46.4497 395.501 46.6955 395.207C47.9358 396.283 50.8983 397.592 54.1824 395.359C57.3784 393.186 57.9629 391.02 57.6783 389.955L57.2109 374.241C57.4488 372.331 57.2895 367.637 54.7883 363.594C54.5308 363.178 54.3226 362.524 54.1776 361.637C54.034 360.759 53.9583 359.691 53.941 358.477C53.9063 356.049 54.1056 353.075 54.4388 349.933C55.1049 343.652 56.3013 336.75 57.2006 332.313L57.2021 332.306L57.2034 332.298C57.8397 328.537 58.6185 314.926 56.7439 290.258C57.3848 287.523 58.7106 279.53 59.088 268.576C61.03 263.504 65.2374 247.565 67.7656 221.813C70.2937 247.565 74.5011 263.504 76.4431 268.576C76.8205 279.53 78.1463 287.523 78.7872 290.258C76.9126 314.926 77.6914 328.537 78.3277 332.298L78.329 332.306L78.3305 332.313C79.2299 336.75 80.4262 343.652 81.0924 349.933C81.4256 353.075 81.6248 356.049 81.5902 358.477C81.5728 359.691 81.4971 360.759 81.3535 361.637C81.2085 362.524 81.0003 363.178 80.7428 363.594C78.2416 367.637 78.0824 372.331 78.3202 374.241L77.8528 389.955C77.5683 391.02 78.1527 393.186 81.3487 395.359C84.6328 397.592 87.5953 396.283 88.8356 395.207C89.0814 395.501 89.3581 395.716 89.6608 395.854C90.1136 396.06 90.58 396.075 91.0073 395.987C91.6294 395.859 92.1996 395.51 92.6259 395.154C92.9092 395.44 93.2149 395.642 93.5362 395.769C93.9904 395.947 94.445 395.962 94.8618 395.883C95.4955 395.764 96.0561 395.427 96.4599 395.088C97.061 395.51 97.5824 395.727 98.0425 395.777C98.608 395.84 99.0325 395.647 99.3277 395.381C99.3842 395.331 99.4355 395.277 99.4818 395.224L99.4838 395.225C99.7035 395.349 99.9708 395.41 100.213 395.443C100.708 395.51 101.28 395.481 101.654 395.437L101.731 395.428L101.802 395.395C103.055 394.796 103.438 393.661 103.434 392.59C103.429 391.537 103.059 390.476 102.724 389.816L102.679 389.727L102.602 389.664C96.9166 385.039 95.1784 378.421 95.0169 375.701C95.1333 373.858 95.1633 372.599 95.1333 371.712C95.1033 370.825 95.0126 370.281 94.8703 369.888C94.7547 369.57 94.6003 369.353 94.4837 369.19C94.4722 369.174 94.461 369.158 94.4502 369.143C94.4351 369.121 94.4208 369.101 94.4077 369.081C94.2946 368.912 94.1707 368.69 94.0653 368.191C93.7104 366.513 93.9131 364.676 94.061 363.96C105.601 326.828 102.543 295.634 101.593 290.141C101.225 288.019 101.145 282.839 101.2 277.169C101.254 271.562 101.44 265.535 101.596 261.665C106.405 249.819 107.277 234.556 106.431 220.322C105.585 206.103 103.022 192.852 100.903 184.949C102.939 170.247 100.547 159.952 99.0142 156.47C99.0532 152.639 99.0995 146.866 99.1131 141.864C99.12 139.34 99.1185 137.011 99.1035 135.226C99.0888 133.463 99.0611 132.183 99.0089 131.8C98.9964 131.708 99.0056 131.532 99.0632 131.256C99.1186 130.989 99.211 130.665 99.3355 130.294C99.5845 129.552 99.9511 128.653 100.372 127.706C100.948 126.408 101.619 125.035 102.21 123.877C103.117 133.585 104.919 139.043 106.02 141.149C106.023 141.165 106.025 141.184 106.028 141.207C106.038 141.288 106.048 141.395 106.058 141.504C106.065 141.574 106.07 141.643 106.075 141.706C106.078 141.741 106.08 141.775 106.082 141.805C106.085 141.844 106.087 141.874 106.087 141.896C105.915 142.887 105.719 145.342 105.596 150.628C105.547 152.731 106.155 155.702 107.145 159.095C108.138 162.501 109.531 166.378 111.084 170.31C114.098 177.943 117.724 185.812 120.232 190.907C120.177 190.959 120.129 191.015 120.087 191.07C119.898 191.316 119.727 191.676 119.568 192.092C119.245 192.939 118.916 194.174 118.601 195.637C117.968 198.572 117.371 202.504 116.973 206.268C116.575 210.025 116.373 213.649 116.542 215.959C116.584 216.539 116.65 217.049 116.747 217.465C116.841 217.865 116.976 218.242 117.198 218.496C117.317 218.631 117.476 218.75 117.682 218.797C117.891 218.845 118.091 218.807 118.265 218.726C118.587 218.576 118.878 218.255 119.152 217.855C121.551 214.354 122.697 209.866 123.174 206.466C124.024 211.142 124.763 214.779 125.095 216.326C124.365 218.546 124.178 222.079 124.171 223.669C122.136 228.472 122.005 231.604 122.329 233.122C122.404 233.469 122.664 233.703 122.974 233.762C123.271 233.819 123.582 233.714 123.796 233.481C131.148 225.495 133.954 216.011 134.474 207.41C134.992 198.854 133.251 191.145 131.451 186.594C130.903 181.407 130.12 173.418 129.543 166.227C129.253 162.616 129.015 159.209 128.886 156.461C128.755 153.693 128.736 151.641 128.87 150.705C129.169 148.607 128.486 145.924 127.562 143.477C126.664 141.1 125.507 138.868 124.676 137.471C126.243 131.166 125.893 122.537 124.835 114.334C123.769 106.075 121.975 98.1862 120.639 93.4133C120.541 87.8837 119.202 82.0508 116.888 77.4592C114.576 72.8706 111.227 69.407 107.065 68.8925C103.128 68.4059 98.1174 66.8177 93.5789 64.941C89.0342 63.0618 85.0287 60.9206 83.0838 59.3578C81.5955 58.162 80.7118 56.3162 80.223 54.4426C79.7581 52.6604 79.6646 50.9056 79.7222 49.7863C85.2967 43.4635 86.4508 36.3249 86.3207 33.3673C87.9911 29.0519 88.374 26.3071 88.1094 24.6144C87.9748 23.7537 87.6671 23.1314 87.2403 22.7278C86.9631 22.4656 86.65 22.3099 86.3357 22.2396C86.6969 12.9073 83.7317 7.26086 79.7957 4.03406C75.8867 0.829427 71.0911 0.0703956 67.8586 0.368057ZM67.7888 1.307C64.7489 1.02287 60.1565 1.73956 56.4231 4.76379C52.6562 7.81521 49.6912 13.2757 50.1556 22.6443L50.1816 23.1681L49.6581 23.1375C49.4267 23.124 49.1681 23.1938 48.9376 23.4118C48.7031 23.6335 48.4641 24.0415 48.3518 24.7598C48.1246 26.2129 48.4396 28.7932 50.1241 33.1197L50.1612 33.2149L50.1555 33.3168C50.0049 36.0063 51.0691 43.0609 56.6203 49.2824L56.7277 49.4028L56.7387 49.5638C56.8201 50.7621 56.7347 52.7033 56.219 54.6802C55.7045 56.6523 54.7464 58.7182 53.037 60.0916C50.9848 61.7406 46.8784 63.9227 42.3119 65.8109C37.7392 67.7018 32.6394 69.3252 28.5818 69.8268C24.8886 70.2833 21.7449 73.3957 19.4837 77.8829C17.2326 82.3503 15.9195 88.067 15.8323 93.4895C15.8292 93.6816 15.8276 93.8733 15.8276 94.0645H15.6883C14.3749 98.8355 12.6587 106.479 11.6285 114.467C10.563 122.728 10.2403 131.294 11.8157 137.428L11.8649 137.62L11.7624 137.789C10.9521 139.127 9.76633 141.386 8.85506 143.795C7.93643 146.224 7.32925 148.721 7.59346 150.572C7.74207 151.613 7.71565 153.761 7.5859 156.505C7.45525 159.269 7.21673 162.687 6.92656 166.302C6.34617 173.533 5.55808 181.567 5.00917 186.757L5.00236 186.822L4.97842 186.882C3.21798 191.305 1.48522 198.906 1.9964 207.353C2.50459 215.751 5.22811 224.96 12.3186 232.724C12.5398 231.363 12.3854 228.477 10.4642 223.968C10.4364 223.902 10.4189 223.828 10.4188 223.747C10.4174 222.181 10.2272 218.619 9.51217 216.531C9.48064 216.439 9.47139 216.336 9.49425 216.23C9.88892 214.402 10.9491 209.173 12.0716 202.686L13.0061 202.766C13.0061 205.606 13.8474 212.494 17.156 217.323C17.3872 217.66 17.55 217.807 17.6382 217.859C17.7007 217.777 17.7875 217.592 17.867 217.251C17.9486 216.901 18.0103 216.445 18.0507 215.891C18.2128 213.669 18.0185 210.114 17.6222 206.367C17.2267 202.627 16.6338 198.73 16.01 195.836C15.6973 194.385 15.3808 193.206 15.0839 192.428C14.9356 192.039 14.8051 191.786 14.7026 191.65L13.6337 192.149L14.2298 190.946C16.7334 185.89 20.478 177.799 23.5718 169.964C25.1189 166.046 26.5005 162.199 27.4829 158.832C28.4692 155.451 29.0392 152.598 28.994 150.65C28.8693 145.278 28.6691 142.903 28.5102 142.023C28.5016 141.976 28.5017 141.931 28.5017 141.923V141.921C28.5017 141.903 28.5021 141.884 28.5028 141.867C28.5041 141.832 28.5065 141.789 28.5095 141.743C28.5156 141.651 28.5248 141.534 28.5352 141.42C28.5455 141.305 28.5573 141.188 28.5685 141.095C28.574 141.049 28.58 141.004 28.5861 140.966C28.5891 140.948 28.593 140.926 28.598 140.904C28.5997 140.895 28.6133 140.831 28.6474 140.767C29.7172 138.761 31.6686 132.954 32.5223 122.191L32.6491 120.591L33.4064 122.006C34.1155 123.33 35.1673 125.404 36.0198 127.324C36.4457 128.283 36.8256 129.212 37.0881 129.995C37.2192 130.386 37.3238 130.748 37.3896 131.064C37.4533 131.37 37.4896 131.672 37.455 131.926C37.4132 132.234 37.384 133.432 37.3689 135.234C37.354 137.014 37.3525 139.339 37.3594 141.861C37.3731 146.905 37.4201 152.734 37.4593 156.563L37.4604 156.667L37.4175 156.762C35.973 159.957 33.514 170.157 35.5738 184.913L35.587 185.008L35.5621 185.101C33.4536 192.937 30.8846 206.172 30.0402 220.378C29.1952 234.594 30.0812 249.724 34.8381 261.386L34.8692 261.462L34.8725 261.545C35.0294 265.418 35.2177 271.501 35.2726 277.16C35.3273 282.797 35.2512 288.076 34.866 290.302C33.9357 295.678 30.8808 326.729 42.3758 363.702L42.3823 363.723L42.3868 363.744C42.5522 364.526 42.7808 366.523 42.3868 368.386C42.2571 369 42.087 369.333 41.9063 369.604C41.8608 369.672 41.821 369.728 41.7854 369.779C41.6821 369.925 41.6142 370.021 41.5459 370.209C41.4531 370.465 41.3674 370.894 41.3387 371.744C41.31 372.59 41.3383 373.823 41.4555 375.67L41.4573 375.698L41.4558 375.726C41.2943 378.611 39.4978 385.486 33.6033 390.329C33.3244 390.907 33.0423 391.775 33.0389 392.594C33.0356 393.414 33.3024 394.114 34.0663 394.511C34.3928 394.544 34.8342 394.558 35.1914 394.51C35.3822 394.484 35.5094 394.445 35.5782 394.409L35.5789 394.39C35.5799 394.367 35.5815 394.343 35.5843 394.321L35.5845 394.319C35.5866 394.301 35.596 394.223 35.6387 394.141C35.6618 394.096 35.7254 393.99 35.8616 393.927C36.0216 393.853 36.1743 393.885 36.2691 393.931C36.3497 393.97 36.3992 394.022 36.4186 394.044C36.4422 394.07 36.4587 394.094 36.468 394.108C36.4866 394.136 36.5006 394.163 36.508 394.178C36.5188 394.199 36.5326 394.228 36.5439 394.252L36.554 394.274C36.6157 394.403 36.7007 394.563 36.8334 394.682C36.9496 394.787 37.113 394.872 37.3851 394.842C37.6816 394.809 38.1431 394.634 38.8135 394.106L39.1502 393.841L39.4457 394.151C39.7562 394.478 40.2842 394.853 40.8438 394.958C41.1148 395.009 41.3861 394.996 41.6505 394.892C41.9147 394.789 42.2029 394.582 42.4885 394.196L42.8217 393.746L43.2078 394.151C43.5651 394.527 44.1426 394.948 44.7132 395.065C44.9873 395.121 45.244 395.105 45.4799 394.997C45.7158 394.89 45.9757 394.67 46.2201 394.242L46.9344 394.65L47.1917 394.385C48.1001 395.266 50.692 396.594 53.6532 394.581C56.7822 392.453 56.902 390.616 56.7609 390.171L56.7411 390.109L56.2677 374.194L56.2725 374.157C56.4981 372.419 56.3606 367.925 53.9878 364.089C53.6339 363.518 53.4008 362.72 53.2486 361.789C53.0948 360.849 53.0174 359.731 52.9997 358.491C52.9643 356.009 53.1677 352.992 53.5026 349.834C54.1724 343.519 55.3734 336.59 56.2765 332.134C56.8934 328.475 57.6788 314.936 55.7997 290.257L55.7942 290.184L55.8112 290.112C56.4295 287.514 57.7746 279.508 58.1499 268.465L58.1526 268.385L58.1813 268.311C60.189 263.119 64.8422 245.479 67.2932 216.646C67.286 216.562 67.2789 216.478 67.2718 216.393L67.3149 216.389C67.317 216.364 67.3192 216.339 67.3213 216.314L67.7657 216.352L68.2099 216.314C68.212 216.339 68.2141 216.364 68.2162 216.389L68.2593 216.393C68.2522 216.478 68.2451 216.562 68.2379 216.646C70.6889 245.479 75.3422 263.119 77.3498 268.311L77.3785 268.385L77.3812 268.465C77.7566 279.508 79.1016 287.514 79.72 290.112L79.737 290.184L79.7314 290.257C77.8523 314.936 78.6377 328.475 79.2546 332.134C80.1577 336.59 81.3587 343.519 82.0285 349.834C82.3634 352.992 82.5669 356.009 82.5314 358.491C82.5137 359.731 82.4363 360.849 82.2826 361.789C82.1303 362.72 81.8972 363.518 81.5434 364.089C79.1706 367.925 79.033 372.419 79.2586 374.157L79.2634 374.194L78.7901 390.109L78.7702 390.171C78.6291 390.616 78.7489 392.453 81.878 394.581C84.8391 396.594 87.431 395.266 88.3394 394.385L88.5968 394.65L89.311 394.242C89.5554 394.67 89.8153 394.89 90.0512 394.997C90.2871 395.105 90.5438 395.121 90.8179 395.065C91.3886 394.948 91.966 394.527 92.3234 394.151L92.7094 393.746L93.0426 394.196C93.3282 394.582 93.6164 394.789 93.8807 394.892C94.145 394.996 94.4164 395.009 94.6873 394.958C95.2469 394.853 95.775 394.478 96.0854 394.151L96.381 393.841L96.7177 394.106C97.388 394.634 97.8496 394.809 98.146 394.842C98.4182 394.872 98.5815 394.787 98.6978 394.682C98.8304 394.563 98.9154 394.403 98.9771 394.274L98.9872 394.252C98.9985 394.228 99.0123 394.199 99.0232 394.178L99.0314 394.162C99.0392 394.147 99.05 394.128 99.0631 394.108C99.0724 394.094 99.089 394.07 99.1126 394.044C99.1319 394.022 99.1814 393.97 99.262 393.931C99.3568 393.885 99.5095 393.853 99.6696 393.927C99.8058 393.99 99.8693 394.096 99.8924 394.141C99.9352 394.223 99.9445 394.301 99.9466 394.319L99.9468 394.321C99.9503 394.349 99.952 394.38 99.9529 394.409C100.022 394.445 100.149 394.484 100.34 394.51C100.697 394.558 101.138 394.544 101.465 394.511C102.229 394.114 102.496 393.414 102.492 392.594C102.489 391.775 102.207 390.907 101.928 390.329C96.0333 385.486 94.2369 378.611 94.0754 375.726L94.0738 375.698L94.0756 375.67C94.1928 373.823 94.2211 372.59 94.1925 371.744C94.1637 370.894 94.078 370.465 93.9853 370.209C93.9169 370.021 93.849 369.925 93.7457 369.779C93.7249 369.749 93.7027 369.718 93.6788 369.683C93.6617 369.659 93.6438 369.632 93.6249 369.604C93.4441 369.333 93.2741 369 93.1443 368.386C92.7503 366.523 92.9789 364.526 93.1443 363.744L93.1488 363.723L93.1553 363.702C104.65 326.729 101.595 295.678 100.665 290.302C100.28 288.076 100.204 282.797 100.258 277.16C100.313 271.501 100.502 265.418 100.659 261.545L100.662 261.462L100.693 261.386C105.45 249.724 106.336 234.594 105.491 220.378C104.646 206.172 102.078 192.937 99.969 185.101L99.9441 185.008L99.9573 184.913C102.017 170.157 99.5581 159.957 98.1136 156.762L98.0708 156.667L98.0718 156.563C98.111 152.734 98.158 146.905 98.1717 141.861C98.1786 139.339 98.1771 137.014 98.1622 135.234C98.1471 133.432 98.118 132.234 98.0761 131.926C98.0415 131.672 98.0779 131.37 98.1416 131.064C98.2073 130.748 98.3119 130.386 98.443 129.995C98.7055 129.212 99.0854 128.283 99.5113 127.324C100.364 125.404 101.416 123.33 102.125 122.006L102.882 120.591L103.009 122.191C103.862 132.954 105.814 138.761 106.884 140.767C106.918 140.831 106.931 140.895 106.933 140.903C106.938 140.925 106.942 140.948 106.945 140.966C106.951 141.004 106.957 141.049 106.963 141.095C106.974 141.188 106.986 141.305 106.996 141.42C107.006 141.534 107.016 141.651 107.022 141.743C107.023 141.76 107.024 141.776 107.025 141.792C107.026 141.819 107.028 141.845 107.028 141.867C107.029 141.884 107.029 141.903 107.029 141.921V141.923C107.029 141.931 107.03 141.976 107.021 142.023C106.862 142.903 106.662 145.278 106.537 150.65C106.492 152.598 107.062 155.451 108.048 158.832C109.031 162.199 110.412 166.046 111.959 169.964C115.053 177.799 118.798 185.89 121.301 190.946L121.897 192.149L120.829 191.65C120.726 191.786 120.596 192.039 120.447 192.428C120.15 193.206 119.834 194.385 119.521 195.836C118.897 198.73 118.304 202.627 117.909 206.367C117.513 210.114 117.318 213.669 117.48 215.891C117.521 216.445 117.582 216.902 117.664 217.251C117.744 217.592 117.83 217.777 117.893 217.859C117.981 217.807 118.144 217.66 118.375 217.323C121.684 212.495 122.525 205.606 122.525 202.766L123.46 202.686C124.582 209.173 125.642 214.402 126.037 216.23C126.06 216.336 126.05 216.439 126.019 216.531C125.304 218.619 125.114 222.181 125.112 223.747C125.112 223.828 125.095 223.902 125.067 223.968C123.146 228.477 122.991 231.363 123.213 232.724C130.303 224.96 133.027 215.751 133.535 207.353C134.046 198.906 132.313 191.305 130.553 186.882L130.529 186.822L130.522 186.757C129.973 181.567 129.185 173.533 128.605 166.302C128.314 162.687 128.076 159.269 127.945 156.505C127.815 153.761 127.789 151.613 127.938 150.572C128.201 148.725 127.597 146.234 126.682 143.81C125.773 141.405 124.59 139.148 123.778 137.805C123.705 137.683 123.687 137.541 123.72 137.41C125.291 131.274 124.967 122.711 123.901 114.454C122.871 106.471 121.156 98.833 119.843 94.0645H119.703C119.703 93.8733 119.702 93.6816 119.699 93.4895C119.612 88.067 118.299 82.3503 116.047 77.8829C113.786 73.3957 110.642 70.2833 106.949 69.8268C102.892 69.3252 97.7919 67.7018 93.2192 65.811C88.6528 63.9227 84.5464 61.7406 82.4942 60.0917C80.7847 58.7182 79.8266 56.6523 79.3121 54.6802C78.7964 52.7034 78.711 50.7621 78.7925 49.5638L78.8034 49.4028L78.9109 49.2824C84.462 43.061 85.5262 36.0063 85.3757 33.3168L85.37 33.2149L85.407 33.1198C87.0915 28.7932 87.4065 26.2129 87.1793 24.7598C87.067 24.0416 86.828 23.6335 86.5935 23.4118C86.363 23.1939 86.1044 23.124 85.8731 23.1375L85.3495 23.1681L85.3755 22.6443C85.84 13.2731 82.9197 7.81245 79.1989 4.76206C75.512 1.73948 70.9666 1.0229 67.9283 1.30699L67.9269 1.3207C67.9042 1.31832 67.8814 1.31599 67.8586 1.31372C67.8357 1.31599 67.8129 1.31832 67.7902 1.3207L67.7888 1.307Z" fill="#B7B9C1"/>
</svg>
