<svg width="105" height="613" viewBox="0 0 105 613" fill="none" xmlns="http://www.w3.org/2000/svg">
    <path d="M67.456 611C52.7814 606.328 35.2164 609.053 28.2682 611C18.2621 607.663 20.2085 597.93 22.4325 593.481C24.3777 587.641 26.434 570.622 19.0973 549.264C6.42383 507.217 13.8167 472.233 19.0973 459.997C17.7077 456.104 15.7622 446.482 19.0973 439.141C23.2663 429.964 20.7649 433.301 22.4325 422.455C16.596 414.947 11.5933 392.422 22.4325 343.2C-3.58158 314.501 11.5933 279.517 22.4325 265.613C24.378 258.938 24.9337 233.91 11.5925 187.191C-9.75279 145.811 6.03409 110.438 16.5957 97.9244C22.988 90.1379 30.9367 68.2244 11.5925 42.8626C2.92113 -3.8565 49.1127 -2.18796 73.2925 4.48619M67.456 611C82.7976 611 94.9709 611 99.1398 611M67.456 611H99.1398M99.1398 611C103.309 607.663 108.645 600.655 96.6384 599.32M96.6384 599.32L96.5048 599.306M96.6384 599.32C96.594 599.315 96.5494 599.311 96.5048 599.306M73.2925 11.9946C84.6319 20.0036 83.5758 38.1351 81.6303 46.1997L89.1344 57.8794C88.3006 58.7137 85.6325 60.3823 81.6303 60.3823C85.6325 67.0564 81.6303 72.6182 79.129 74.5648C80.5186 77.9019 82.4641 84.9098 79.129 86.2446C70.4576 89.5817 62.1754 84.8542 59.1182 82.0733C58.5623 84.5761 56.9503 91.2502 54.9492 97.9244C84.2984 119.949 98.8618 153.82 102.475 168.003C102.753 170.228 102.475 174.177 99.1398 172.174C90.8019 218.059 95.8046 253.099 93.3033 258.104C93.9703 261.441 86.9109 295.646 83.2979 312.332C84.9654 342.365 83.4646 406.938 64.1209 424.958C69.4571 448.985 61.8974 459.997 57.4506 462.5V491.7C53.8375 505.048 47.7787 538.085 52.4479 563.447C58.2671 595.055 81.4921 597.637 96.5048 599.306M73.2925 11.9946C73.2925 9.32496 73.2925 5.87664 73.2925 4.48619M73.2925 11.9946V4.48619" stroke="#B7B9C1" stroke-width="2"/>
</svg>