<svg width="24" height="25" viewBox="0 0 24 25" fill="none" xmlns="http://www.w3.org/2000/svg">
<path d="M17.625 7.75C17.4413 10.2283 15.5625 12.25 13.5 12.25C11.4375 12.25 9.55551 10.2288 9.37504 7.75C9.18754 5.17188 11.0157 3.25 13.5 3.25C15.9844 3.25 17.8125 5.21875 17.625 7.75Z" stroke="white" stroke-width="1.5" stroke-linecap="round" stroke-linejoin="round"/>
<path d="M13.5 15.248C9.4219 15.248 5.28284 17.498 4.5169 21.7449C4.42315 22.2568 4.71425 22.748 5.2505 22.748H21.75C22.2863 22.748 22.576 22.2568 22.4836 21.7449C21.7172 17.498 17.5782 15.248 13.5 15.248Z" stroke="white" stroke-width="1.5" stroke-miterlimit="10"/>
<path d="M6.75 11.873H1.5M4.125 9.24805V14.498V9.24805Z" stroke="white" stroke-width="1.5" stroke-linecap="round" stroke-linejoin="round"/>
</svg>
