<svg width="210" height="210" viewBox="0 0 210 210" fill="none" xmlns="http://www.w3.org/2000/svg">
<path d="M176.042 111.408C164.305 119.233 61.8697 117.455 43.5399 114.254C25.209 111.052 23.813 101.449 28.7916 97.1787C31.3247 95.0057 32.7789 92.8727 33.0682 90.9401C33.348 89.0748 33.0876 85.1951 31.3551 83.5592C17.766 70.7287 23.8828 56.5411 26.3141 54.3686C32.948 48.4403 35.6937 45.3612 31.2822 30.4029C25.3812 10.3962 45.1674 0.820768 62.2052 0.0390432C74.0818 -0.505907 95.2708 4.69789 109.491 12.8858C123.711 21.0726 149.865 15.9639 159.967 16.0867C170.069 16.2096 187.224 27.8924 180.426 39.7127C173.941 50.9882 174.059 55.9657 185.145 65.8042C193.604 73.3117 173.025 84.0296 180.426 89.9153C180.859 90.2608 181.269 90.602 181.656 90.9401C189.99 98.2345 187.26 103.93 176.042 111.408Z" fill="#F8FEFA"/>
<path d="M161.23 90.9409H181.655C181.655 90.9409 192.336 85.9413 191.135 82.0695C189.935 78.1976 185.228 85.4694 183.761 86.4795C182.294 87.4901 182.866 83.488 187.534 77.4416C192.203 71.3952 191.002 63.054 187.134 58.488C183.266 53.9221 176.864 54.1888 178.465 57.7903C180.065 61.3918 185.8 68.2809 183.666 73.439C181.532 78.5971 176.251 87.0675 176.251 87.0675C176.251 87.0675 174.037 82.8963 176.251 76.8121C178.465 70.7279 178.865 54.9107 172.596 45.7468C166.327 36.583 162.103 43.44 163.081 45.7468C164.059 48.0537 170.195 52.8553 170.995 57.7903C171.795 62.7253 168.861 81.0037 170.195 85.2027C166.06 76.3302 167.394 60.4384 164.326 55.5134C161.259 50.5884 159.589 49.2496 156.483 49.3158C153.377 49.3819 153.95 53.678 157.337 56.4678C160.725 59.2577 161.792 80.5181 164.192 84.1595C164.192 84.1595 161.567 76.5139 157.95 71.4902C154.332 66.4665 139.338 70.5804 145.653 76.8861C151.968 83.1919 161.069 80.61 161.23 90.9409Z" fill="#A2EEC5"/>
<path d="M176.041 111.408C164.304 119.233 61.8683 117.455 43.5385 114.253C25.2076 111.052 23.8116 101.448 28.7902 97.178C31.3233 95.005 32.7776 92.872 33.0668 90.9395H181.654C189.988 98.2338 187.259 103.929 176.041 111.408Z" fill="#E8F4EE"/>
<path d="M172.704 101.537C172.933 98.8708 156.924 95.316 136.946 93.5975C116.968 91.879 100.586 92.6476 100.357 95.3142C100.127 97.9809 116.137 101.536 136.115 103.254C156.093 104.973 172.475 104.204 172.704 101.537Z" fill="#CEE4D8"/>
<path d="M95.0574 20.0059H55.3574V91.0321H95.0574V20.0059Z" fill="#EFC9B6"/>
<path d="M92.2062 22.8496H57.7578V91.2051H92.2062V22.8496Z" fill="#FDDEC1"/>
<path d="M71.221 43.1109C72.629 38.0892 71.1013 40.9854 69.1619 43.2107L68.9273 45.8923C70.9865 45.7926 75.2384 45.3439 75.7729 44.3467C76.3073 43.3496 72.961 43.1074 71.221 43.1109Z" fill="#FEBE76"/>
<path d="M168.799 99.067L166.416 99.2539L161.795 81.1623L164.077 80.5796L168.799 99.067Z" fill="#EFC9B6"/>
<path d="M161.842 81.3409L162.58 84.2305C162.58 84.2305 163.558 84.4389 164.776 83.3117L164.078 80.5796L161.842 81.3409Z" fill="#CAA492"/>
<path d="M145.68 99.067L148.063 99.2539L152.684 81.1623L150.402 80.5796L145.68 99.067Z" fill="#EFC9B6"/>
<path d="M148.018 89.9167C148.018 89.9167 150.258 88.9654 150.687 88.9837L151.279 86.6637L148.95 86.2668L148.018 89.9167Z" fill="#CAA492"/>
<path d="M125.281 95.6099L122.898 95.7616L118.277 81.0537L120.559 80.5796L125.281 95.6099Z" fill="#EFC9B6"/>
<path d="M118.322 81.1986L119.06 83.548C119.06 83.548 120.038 83.7176 121.257 82.8009L120.559 80.5796L118.322 81.1986Z" fill="white"/>
<path d="M102.162 95.6099L104.546 95.7616L109.167 81.0537L106.884 80.5796L102.162 95.6099Z" fill="#EFC9B6"/>
<path d="M104.5 88.1707C104.5 88.1707 106.741 87.3974 107.169 87.4121L107.762 85.5258L105.432 85.2029L104.5 88.1707Z" fill="#CAA492"/>
<path d="M149.898 87.0681C151.33 87.223 153.037 87.9192 153.855 86.0596C154.673 84.2001 156.85 82.7773 163.259 83.044C169.669 83.3107 171.484 76.6941 171.961 74.5338C172.439 72.3734 175.304 63.2783 173.681 62.6556C172.057 62.033 145.026 62.6556 145.026 62.6556H122.622L118.657 79.6709C118.657 79.6709 103.394 79.158 100.993 81.6123C98.5926 84.0667 101.664 86.0806 101.664 86.0806L149.898 87.0681Z" fill="#FAF5F3"/>
<path d="M54.7648 98.5704C61.9435 98.4828 67.751 97.4268 67.7362 96.2117C67.7214 94.9967 61.8898 94.0827 54.7111 94.1703C47.5324 94.2579 41.7249 95.3139 41.7397 96.5289C41.7546 97.744 47.5861 98.658 54.7648 98.5704Z" fill="#CEE4D8"/>
<path d="M48.9222 93.2077C48.9222 93.2077 49.086 94.1427 50.6993 94.8824C52.3126 95.6227 54.4971 95.8305 54.6961 97.2701C54.8951 98.7096 50.4777 97.5772 48.6339 97.4517C46.7901 97.3263 44.7852 96.9803 44.7852 96.9803L44.8959 91.8406C44.8954 91.8406 48.0948 92.0999 48.9222 93.2077Z" fill="#424D55"/>
<path d="M54.6961 97.2702L44.8035 96.1267L44.7852 96.9804C44.7852 96.9804 55.1628 99.1439 54.6961 97.2702Z" fill="#67809F"/>
<path d="M59.9944 92.4811C59.9944 92.4811 60.1582 93.4161 61.7715 94.1559C63.3849 94.8961 65.5694 95.104 65.7684 96.5436C65.9673 97.9831 61.55 96.8507 59.7062 96.7252C57.8624 96.5997 55.8574 96.2538 55.8574 96.2538L55.9682 91.114C55.9677 91.1135 59.167 91.3734 59.9944 92.4811Z" fill="#424D55"/>
<path d="M65.7684 96.5436L55.8758 95.4001L55.8574 96.2538C55.8574 96.2538 66.2351 98.4173 65.7684 96.5436Z" fill="#67809F"/>
<path d="M48.5612 56.7831C48.5612 56.7831 48.4494 62.9314 51.204 70.4363C53.7403 77.3447 53.693 77.5448 53.9387 79.2321C54.1844 80.9195 54.7892 93.9956 55.3562 94.9175C55.3562 94.9175 57.2898 93.5714 61.5979 93.5714C61.5979 93.5714 60.8089 86.5265 60.349 77.0523C59.8891 67.5782 59.1068 55.6743 59.1068 55.6743L48.5612 56.7831Z" fill="#4893D8"/>
<path d="M43.9434 56.1873C43.9434 56.1873 42.7522 62.22 44.144 70.0924C45.4255 77.339 45.3441 77.528 45.289 79.2322C45.2339 80.9363 44.6138 95.7608 44.8028 96.1272C45.1625 96.8244 47.441 94.0067 50.3537 94.3553C50.9317 94.4246 50.7695 87.6201 51.9827 78.2131C53.196 68.8062 54.9847 56.9837 54.9847 56.9837L43.9434 56.1873Z" fill="#68A7E2"/>
<path d="M55.707 44.3748C55.707 44.3748 58.8444 50.5283 61.0353 51.2334C63.2261 51.938 70.9877 44.7402 70.9877 44.7402L69.4263 43.0734C69.4263 43.0734 63.3054 46.4255 62.0643 46.0995C60.8232 45.7734 57.9572 38.2056 57.9572 38.2056L55.707 44.3748Z" fill="#FEBE76"/>
<path d="M55.6337 47.4518C55.0814 44.5034 48.9368 33.9939 54.4225 34.1262C56.9409 34.1871 62.109 44.2619 62.109 44.2619L55.6337 47.4518Z" fill="#4893D8"/>
<path d="M61.5979 45.6726C61.5979 45.6726 59.0055 46.7562 58.6542 48.4431L57.957 45.9855L61.1144 44.7507L61.5979 45.6726Z" fill="#F0932B"/>
<path d="M43.418 63.9527C43.418 63.9527 47.7828 66.5493 53.8376 66.2012C59.8925 65.8531 56.1429 60.5292 56.1429 60.5292L43.5072 60.2273L43.418 63.9527Z" fill="#4893D8"/>
<path d="M59.7782 62.6547C59.7782 62.6547 47.3725 64.5563 41.4473 62.6547C41.4473 62.6547 40.7297 57.3696 40.7008 51.8886C40.6856 49.1843 40.778 46.2632 41.0861 43.5699C41.6615 38.531 40.3905 33.8548 49.0031 33.1387C59.6648 35.0423 56.3762 35.3531 57.757 43.2728C58.3403 46.617 59.0144 51.3363 59.0532 57.0168C59.0574 57.6462 59.6591 58.219 59.6617 58.7624C59.668 60.864 59.7782 62.6547 59.7782 62.6547Z" fill="#68A7E2"/>
<path d="M59.6654 59.2701C56.6172 59.469 51.9715 59.5667 47.3426 58.5498C43.6156 57.7308 41.6925 54.7115 40.7008 51.8886C40.6856 49.1843 40.778 46.2632 41.0861 43.5699C42.4359 42.5162 44.2939 42.2674 44.7081 44.1857C45.4022 47.4035 45.6993 51.9589 47.9694 54.0206C48.6556 54.6448 55.9935 57.558 56.2634 56.8099C56.5343 56.0628 58.7277 53.211 58.9146 54.471C59.1425 56.0061 59.6628 58.7267 59.6654 59.2701Z" fill="#4893D8"/>
<path d="M48.4629 52.4745C48.4629 52.4745 47.5541 47.7028 47.6103 41.6296C47.6664 35.5565 44.8887 35.0425 44.8887 35.0425C44.8887 35.0425 47.2071 44.1113 46.5618 48.5292C45.9166 52.9476 47.5992 52.6189 48.4629 52.4745Z" fill="#4893D8"/>
<path d="M40.5629 42.5021C40.5629 42.5021 39.3071 52.9343 46.4834 55.6092C52.9997 58.0384 61.7708 58.2478 61.7708 58.2478C61.7708 58.2478 62.0318 56.6534 59.0466 56.2518C56.1355 55.8602 57.9509 54.3319 58.5122 53.189C59.0734 52.046 55.9328 54.4316 55.5601 55.1346C55.1873 55.8371 48.3308 51.9263 47.7376 51.2123C45.7793 48.853 46.1227 44.3007 45.8849 41.0168C45.647 37.733 40.5288 39.9222 40.5629 42.5021Z" fill="#FEBE76"/>
<path d="M41.6972 50.879C41.6972 50.879 42.7404 49.2247 46.6459 49.0509L45.84 45.2961L40.6719 47.0943C40.6714 47.0943 41.1486 49.7907 41.6972 50.879Z" fill="#F0932B"/>
<path d="M39.8575 48.8892C39.3052 45.9408 40.2009 35.2691 44.8886 34.1252C47.3362 33.5277 47.0133 48.0093 47.0133 48.0093L39.8575 48.8892Z" fill="#68A7E2"/>
<path d="M47.5547 26.2488C47.5547 26.2488 48.5406 30.6346 47.373 33.8639C47.373 33.8639 48.5291 36.0174 52.1327 34.7837L52.2939 28.0469L47.5547 26.2488Z" fill="#FEBE76"/>
<path d="M46.6152 23.0535C46.6152 23.0535 46.8846 30.1347 48.9504 30.897C51.0163 31.6593 53.865 31.7822 54.1941 29.4869C54.5233 27.1916 54.5821 22.4214 53.7731 21.8539C52.9646 21.2859 46.9969 20.869 46.6152 23.0535Z" fill="#FEBE76"/>
<path d="M47.5406 28.6162C47.5406 28.6162 44.8672 25.267 46.1041 22.0835C47.341 18.9 53.7674 19.1215 54.6831 20.6199C55.5988 22.1183 51.9263 21.8575 51.4194 22.8276C50.9126 23.7977 50.5684 25.0683 50.5684 25.0683L49.5547 25.0456C49.5547 25.0456 49.3128 23.2864 48.3692 23.205C46.9732 23.0843 48.2984 25.9929 48.2984 25.9929C48.2984 25.9929 48.4696 27.8089 47.5406 28.6162Z" fill="#584B46"/>
<path d="M52.2153 31.3396C52.2153 31.3396 49.7494 30.928 49.0039 29.8728C49.0039 29.8728 49.1231 31.7066 52.1906 32.3728L52.2153 31.3396Z" fill="#F0932B"/>
<path d="M87.7876 55.8361C89.0565 55.8361 90.0851 54.6604 90.0851 53.21C90.0851 51.7597 89.0565 50.584 87.7876 50.584C86.5188 50.584 85.4902 51.7597 85.4902 53.21C85.4902 54.6604 86.5188 55.8361 87.7876 55.8361Z" fill="#E0BBA3"/>
<path d="M87.895 53.5391C88.4346 53.5391 88.8721 53.0389 88.8721 52.4219C88.8721 51.8049 88.4346 51.3047 87.895 51.3047C87.3554 51.3047 86.918 51.8049 86.918 52.4219C86.918 53.0389 87.3554 53.5391 87.895 53.5391Z" fill="#FEE8D3"/>
<path d="M120.118 26.1016H101.445V50.5324H120.118V26.1016Z" fill="#E0BBA3"/>
<path d="M119.063 26.6355H102.236V49.777H119.063V26.6355Z" fill="white"/>
<path d="M111.67 36.4813H106.098C105.229 36.4813 104.521 35.7742 104.521 34.9048V31.2292H104.829V34.9048C104.829 35.6046 105.398 36.1737 106.098 36.1737H111.67V36.4813Z" fill="#FDDEC1"/>
<path d="M111.844 36.8667C112.142 36.8667 112.383 36.6253 112.383 36.3275C112.383 36.0297 112.142 35.7883 111.844 35.7883C111.546 35.7883 111.305 36.0297 111.305 36.3275C111.305 36.6253 111.546 36.8667 111.844 36.8667Z" fill="#FDDEC1"/>
<path d="M117.752 48.8562H117.445V47.004C117.445 46.7379 116.923 46.4407 116.176 46.4407H110.604V46.1331H116.176C117.06 46.1331 117.752 46.5158 117.752 47.004V48.8562Z" fill="#FDDEC1"/>
<path d="M110.521 46.8177C110.815 46.77 111.015 46.493 110.967 46.1991C110.92 45.9051 110.643 45.7055 110.349 45.7532C110.055 45.8009 109.855 46.0779 109.903 46.3718C109.95 46.6658 110.227 46.8654 110.521 46.8177Z" fill="#FDDEC1"/>
<path d="M116.707 48.0891H111.844V48.3968H116.707V48.0891Z" fill="#95AFC0"/>
<path d="M116.707 49.1616H111.844V49.4693H116.707V49.1616Z" fill="#95AFC0"/>
<path d="M107.517 27.5852H102.654V27.8928H107.517V27.5852Z" fill="#95AFC0"/>
<path d="M113.927 27.5852H109.064V27.8928H113.927V27.5852Z" fill="#95AFC0"/>
<path d="M113.927 31.2129H109.064V31.5205H113.927V31.2129Z" fill="#95AFC0"/>
<path d="M107.517 37.5015H102.654V37.8091H107.517V37.5015Z" fill="#95AFC0"/>
<path d="M107.517 42.3455H102.654V42.6531H107.517V42.3455Z" fill="#95AFC0"/>
<path d="M113.736 37.5015H108.873V37.8091H113.736V37.5015Z" fill="#95AFC0"/>
<path d="M107.517 28.6582H102.654V28.9658H107.517V28.6582Z" fill="#95AFC0"/>
<path d="M113.927 28.6582H109.064V28.9658H113.927V28.6582Z" fill="#95AFC0"/>
<path d="M113.927 32.2859H109.064V32.5935H113.927V32.2859Z" fill="#95AFC0"/>
<path d="M107.517 38.5745H102.654V38.8821H107.517V38.5745Z" fill="#95AFC0"/>
<path d="M107.517 43.4185H102.654V43.7261H107.517V43.4185Z" fill="#95AFC0"/>
<path d="M113.736 38.5745H108.873V38.8821H113.736V38.5745Z" fill="#95AFC0"/>
<path d="M107.517 29.4673H102.654V29.7749H107.517V29.4673Z" fill="#95AFC0"/>
<path d="M113.927 29.4673H109.064V29.7749H113.927V29.4673Z" fill="#95AFC0"/>
<path d="M113.927 33.095H109.064V33.4026H113.927V33.095Z" fill="#95AFC0"/>
<path d="M107.517 39.3835H102.654V39.6912H107.517V39.3835Z" fill="#95AFC0"/>
<path d="M107.517 44.2275H102.654V44.5352H107.517V44.2275Z" fill="#95AFC0"/>
<path d="M113.736 39.3835H108.873V39.6912H113.736V39.3835Z" fill="#95AFC0"/>
<path d="M107.517 30.4033H102.654V30.711H107.517V30.4033Z" fill="#95AFC0"/>
<path d="M113.927 30.4033H109.064V30.711H113.927V30.4033Z" fill="#95AFC0"/>
<path d="M113.927 34.031H109.064V34.3387H113.927V34.031Z" fill="#95AFC0"/>
<path d="M107.517 40.3196H102.654V40.6272H107.517V40.3196Z" fill="#95AFC0"/>
<path d="M107.517 45.1636H102.654V45.4712H107.517V45.1636Z" fill="#95AFC0"/>
<path d="M113.736 40.3196H108.873V40.6272H113.736V40.3196Z" fill="#95AFC0"/>
<path d="M33.0674 90.94C33.0674 90.94 27.8736 83.5585 22.8194 82.4114C17.7653 81.2643 16.2265 64.2606 20.4328 60.5903C20.4328 60.5903 19.271 71.8274 25.8539 76.6789C32.4369 81.5305 31.3544 83.5585 31.3544 83.5585C31.3544 83.5585 32.1702 76.4642 28.1687 70.7281C24.1671 64.9919 19.6322 53.9764 23.9004 45.746C28.1687 37.5155 27.6584 29.7907 26.3128 26.584C26.3128 26.584 32.4369 34.0841 31.3696 40.7348C30.3028 47.3855 26.8346 57.6887 28.7021 62.0073C30.5695 66.3254 34.5705 73.8838 34.5705 77.4402C34.5705 77.4402 37.5047 64.9567 34.5705 59.3723C31.6363 53.7879 36.8726 39.2622 40.3902 33.8542C40.3902 33.8542 39.1212 62.1023 40.4931 70.1269C43.0698 85.2018 36.807 90.94 36.807 90.94H33.0674Z" fill="#A2EEC5"/>
<path d="M29.526 68.5298C29.526 68.5298 22.0332 58.8131 25.0567 50.4325C28.0802 42.0519 28.2576 32.1777 28.2576 32.1777C28.2576 32.1777 30.0589 42.452 26.313 51.7665C26.313 51.766 24.926 57.6618 29.526 68.5298Z" fill="#E8F9F0"/>
<path d="M39.3655 42.9023C39.3655 42.9023 35.1928 48.3655 37.5044 60.5917C39.8165 72.8179 36.8066 80.5795 36.8066 80.5795C36.8066 80.5795 41.5127 68.8384 38.0861 56.2457C38.0861 56.2457 37.6697 46.0644 39.3655 42.9023Z" fill="#E8F9F0"/>
<path d="M19.1882 67.1777C19.1882 67.1777 16.8614 76.0692 24.3379 80.579C31.8144 85.0888 26.4647 79.193 24.3379 78.1393C22.2111 77.0856 20.255 73.6311 19.1882 67.1777Z" fill="#E8F9F0"/>
<path d="M181.022 57.0181C180.358 57.8944 188.811 65.8996 186.783 72.3823C184.756 78.865 189.38 71.599 188.846 67.4961C188.313 63.3927 182.779 54.6976 181.022 57.0181Z" fill="#E8F9F0"/>
<path d="M166.517 42.9014C164.807 41.8635 171.24 49.9789 172.84 53.929C174.441 57.8791 174.174 69.8229 174.174 69.8229C174.174 69.8229 179.934 51.0426 166.517 42.9014Z" fill="#E8F9F0"/>
<path d="M61.8364 147H60.4009L54.5635 138.006H54.5049C54.5195 138.245 54.5366 138.519 54.5562 138.826C54.5757 139.129 54.5903 139.454 54.6001 139.8C54.6147 140.142 54.6221 140.491 54.6221 140.848V147H53.4648V136.292H54.8931L60.7085 145.257H60.7598C60.75 145.086 60.7378 144.844 60.7231 144.532C60.7085 144.214 60.6938 143.875 60.6792 143.514C60.6694 143.147 60.6646 142.808 60.6646 142.496V136.292H61.8364V147ZM71.4971 142.972C71.4971 143.631 71.4116 144.219 71.2407 144.737C71.0698 145.254 70.8232 145.691 70.501 146.048C70.1787 146.404 69.7881 146.678 69.3291 146.868C68.875 147.054 68.3599 147.146 67.7837 147.146C67.2466 147.146 66.7534 147.054 66.3042 146.868C65.8599 146.678 65.4741 146.404 65.147 146.048C64.8247 145.691 64.5732 145.254 64.3926 144.737C64.2168 144.219 64.1289 143.631 64.1289 142.972C64.1289 142.093 64.2778 141.346 64.5757 140.73C64.8735 140.11 65.2983 139.639 65.8501 139.317C66.4067 138.99 67.0684 138.826 67.835 138.826C68.5674 138.826 69.207 138.99 69.7539 139.317C70.3057 139.644 70.7329 140.118 71.0356 140.738C71.3433 141.353 71.4971 142.098 71.4971 142.972ZM65.3887 142.972C65.3887 143.616 65.4741 144.175 65.645 144.649C65.8159 145.123 66.0796 145.489 66.436 145.748C66.7925 146.006 67.2515 146.136 67.813 146.136C68.3696 146.136 68.8262 146.006 69.1826 145.748C69.5439 145.489 69.8101 145.123 69.981 144.649C70.1519 144.175 70.2373 143.616 70.2373 142.972C70.2373 142.332 70.1519 141.78 69.981 141.316C69.8101 140.848 69.5464 140.486 69.1899 140.232C68.8335 139.979 68.3721 139.852 67.8057 139.852C66.9707 139.852 66.3579 140.127 65.9673 140.679C65.5815 141.231 65.3887 141.995 65.3887 142.972ZM81.2676 138.826C82.2686 138.826 83.0669 139.17 83.6626 139.859C84.2583 140.547 84.5562 141.583 84.5562 142.964C84.5562 143.877 84.4194 144.644 84.146 145.264C83.8726 145.884 83.4868 146.353 82.9888 146.67C82.4956 146.988 81.9121 147.146 81.2383 147.146C80.8135 147.146 80.4399 147.09 80.1177 146.978C79.7954 146.866 79.5195 146.714 79.29 146.524C79.0605 146.333 78.8701 146.126 78.7188 145.901H78.6309C78.6455 146.092 78.6626 146.321 78.6821 146.59C78.7065 146.858 78.7188 147.093 78.7188 147.293V150.589H77.4956V138.973H78.499L78.6602 140.159H78.7188C78.875 139.915 79.0654 139.693 79.29 139.493C79.5146 139.288 79.7881 139.126 80.1104 139.009C80.4375 138.887 80.8232 138.826 81.2676 138.826ZM81.0552 139.852C80.4985 139.852 80.0493 139.959 79.7075 140.174C79.3706 140.389 79.124 140.711 78.9678 141.141C78.8115 141.565 78.7285 142.1 78.7188 142.745V142.979C78.7188 143.658 78.792 144.231 78.9385 144.7C79.0898 145.169 79.3364 145.525 79.6782 145.77C80.0249 146.014 80.4888 146.136 81.0698 146.136C81.5679 146.136 81.9829 146.001 82.3149 145.733C82.647 145.464 82.8936 145.091 83.0547 144.612C83.2207 144.129 83.3037 143.575 83.3037 142.95C83.3037 142.002 83.1182 141.25 82.7471 140.694C82.3809 140.132 81.8169 139.852 81.0552 139.852ZM89.6831 138.841C90.6401 138.841 91.3506 139.056 91.8145 139.485C92.2783 139.915 92.5103 140.601 92.5103 141.543V147H91.624L91.3896 145.813H91.3311C91.1064 146.106 90.8721 146.353 90.6279 146.553C90.3838 146.749 90.1006 146.897 89.7783 147C89.4609 147.098 89.0703 147.146 88.6064 147.146C88.1182 147.146 87.6836 147.061 87.3027 146.89C86.9268 146.719 86.6289 146.46 86.4092 146.114C86.1943 145.767 86.0869 145.328 86.0869 144.795C86.0869 143.995 86.4043 143.379 87.0391 142.95C87.6738 142.52 88.6406 142.286 89.9395 142.247L91.3237 142.188V141.697C91.3237 141.004 91.1748 140.518 90.877 140.24C90.5791 139.961 90.1592 139.822 89.6172 139.822C89.1973 139.822 88.7969 139.883 88.416 140.005C88.0352 140.127 87.6738 140.271 87.332 140.438L86.9585 139.515C87.3198 139.329 87.7349 139.17 88.2036 139.039C88.6724 138.907 89.1655 138.841 89.6831 138.841ZM91.3091 143.045L90.0859 143.096C89.085 143.135 88.3794 143.299 87.9692 143.587C87.5591 143.875 87.354 144.283 87.354 144.81C87.354 145.269 87.4932 145.608 87.7715 145.828C88.0498 146.048 88.4185 146.158 88.8774 146.158C89.5903 146.158 90.1738 145.96 90.6279 145.564C91.082 145.169 91.3091 144.576 91.3091 143.785V143.045ZM97.6079 146.15C97.8081 146.15 98.0132 146.133 98.2231 146.099C98.4331 146.065 98.604 146.023 98.7358 145.975V146.919C98.5942 146.983 98.3965 147.037 98.1426 147.081C97.8936 147.125 97.6494 147.146 97.4102 147.146C96.9854 147.146 96.5996 147.073 96.2529 146.927C95.9062 146.775 95.6279 146.521 95.418 146.165C95.2129 145.809 95.1104 145.315 95.1104 144.686V139.925H93.9678V139.332L95.1177 138.855L95.6011 137.112H96.3335V138.973H98.6846V139.925H96.3335V144.649C96.3335 145.152 96.4482 145.528 96.6777 145.777C96.9121 146.026 97.2222 146.15 97.6079 146.15ZM101.578 138.973V147H100.362V138.973H101.578ZM100.984 135.97C101.185 135.97 101.355 136.036 101.497 136.167C101.644 136.294 101.717 136.495 101.717 136.768C101.717 137.037 101.644 137.237 101.497 137.369C101.355 137.5 101.185 137.566 100.984 137.566C100.774 137.566 100.599 137.5 100.457 137.369C100.32 137.237 100.252 137.037 100.252 136.768C100.252 136.495 100.32 136.294 100.457 136.167C100.599 136.036 100.774 135.97 100.984 135.97ZM107.247 138.826C107.93 138.826 108.516 138.978 109.004 139.28C109.493 139.583 109.866 140.008 110.125 140.555C110.384 141.097 110.513 141.731 110.513 142.459V143.213H104.969C104.983 144.156 105.218 144.874 105.672 145.367C106.126 145.86 106.766 146.106 107.591 146.106C108.099 146.106 108.548 146.06 108.938 145.967C109.329 145.875 109.734 145.738 110.154 145.557V146.626C109.749 146.807 109.346 146.939 108.946 147.022C108.55 147.105 108.082 147.146 107.54 147.146C106.768 147.146 106.094 146.99 105.518 146.678C104.947 146.36 104.502 145.896 104.185 145.286C103.868 144.676 103.709 143.929 103.709 143.045C103.709 142.181 103.853 141.434 104.141 140.804C104.434 140.169 104.844 139.681 105.372 139.339C105.904 138.997 106.529 138.826 107.247 138.826ZM107.232 139.822C106.583 139.822 106.065 140.035 105.679 140.459C105.293 140.884 105.064 141.478 104.991 142.239H109.239C109.234 141.761 109.158 141.341 109.012 140.979C108.87 140.613 108.653 140.33 108.36 140.13C108.067 139.925 107.691 139.822 107.232 139.822ZM116.38 138.826C117.332 138.826 118.052 139.061 118.541 139.529C119.029 139.993 119.273 140.74 119.273 141.771V147H118.072V141.851C118.072 141.182 117.918 140.682 117.61 140.35C117.308 140.018 116.841 139.852 116.211 139.852C115.323 139.852 114.698 140.103 114.336 140.606C113.975 141.109 113.794 141.839 113.794 142.796V147H112.579V138.973H113.56L113.743 140.13H113.809C113.98 139.847 114.197 139.61 114.461 139.419C114.725 139.224 115.02 139.078 115.347 138.98C115.674 138.877 116.019 138.826 116.38 138.826ZM124.371 146.15C124.571 146.15 124.776 146.133 124.986 146.099C125.196 146.065 125.367 146.023 125.499 145.975V146.919C125.357 146.983 125.159 147.037 124.905 147.081C124.656 147.125 124.412 147.146 124.173 147.146C123.748 147.146 123.362 147.073 123.016 146.927C122.669 146.775 122.391 146.521 122.181 146.165C121.976 145.809 121.873 145.315 121.873 144.686V139.925H120.73V139.332L121.88 138.855L122.364 137.112H123.096V138.973H125.447V139.925H123.096V144.649C123.096 145.152 123.211 145.528 123.44 145.777C123.675 146.026 123.985 146.15 124.371 146.15ZM132.317 144.803C132.317 145.315 132.188 145.748 131.929 146.099C131.675 146.446 131.309 146.707 130.831 146.883C130.357 147.059 129.791 147.146 129.131 147.146C128.57 147.146 128.084 147.103 127.674 147.015C127.264 146.927 126.905 146.802 126.597 146.641V145.521C126.924 145.682 127.315 145.828 127.769 145.96C128.223 146.092 128.687 146.158 129.161 146.158C129.854 146.158 130.357 146.045 130.669 145.821C130.982 145.596 131.138 145.291 131.138 144.905C131.138 144.686 131.075 144.493 130.948 144.327C130.826 144.156 130.618 143.992 130.325 143.836C130.032 143.675 129.627 143.499 129.109 143.309C128.597 143.113 128.152 142.92 127.776 142.73C127.405 142.535 127.117 142.298 126.912 142.02C126.712 141.741 126.612 141.38 126.612 140.936C126.612 140.257 126.885 139.737 127.432 139.375C127.984 139.009 128.707 138.826 129.6 138.826C130.083 138.826 130.535 138.875 130.955 138.973C131.38 139.065 131.775 139.192 132.142 139.354L131.731 140.328C131.399 140.186 131.045 140.066 130.669 139.969C130.293 139.871 129.91 139.822 129.52 139.822C128.958 139.822 128.526 139.915 128.223 140.101C127.925 140.286 127.776 140.54 127.776 140.862C127.776 141.111 127.845 141.316 127.981 141.478C128.123 141.639 128.348 141.79 128.655 141.932C128.963 142.073 129.368 142.239 129.871 142.43C130.374 142.615 130.809 142.808 131.175 143.008C131.541 143.204 131.822 143.443 132.017 143.726C132.217 144.004 132.317 144.363 132.317 144.803ZM136.902 138.973H138.206L139.979 143.631C140.081 143.904 140.176 144.168 140.264 144.422C140.352 144.671 140.43 144.91 140.499 145.14C140.567 145.369 140.621 145.591 140.66 145.806H140.711C140.779 145.562 140.877 145.242 141.004 144.847C141.131 144.446 141.268 144.039 141.414 143.624L143.091 138.973H144.402L140.909 148.179C140.723 148.672 140.506 149.102 140.257 149.468C140.013 149.834 139.715 150.115 139.363 150.311C139.012 150.511 138.587 150.611 138.089 150.611C137.859 150.611 137.657 150.596 137.481 150.567C137.305 150.542 137.154 150.513 137.027 150.479V149.505C137.134 149.529 137.264 149.551 137.415 149.571C137.571 149.59 137.732 149.6 137.898 149.6C138.201 149.6 138.462 149.542 138.682 149.424C138.907 149.312 139.1 149.146 139.261 148.926C139.422 148.707 139.561 148.445 139.678 148.143L140.118 147.015L136.902 138.973ZM148.775 138.826C149.458 138.826 150.044 138.978 150.533 139.28C151.021 139.583 151.395 140.008 151.653 140.555C151.912 141.097 152.042 141.731 152.042 142.459V143.213H146.497C146.512 144.156 146.746 144.874 147.2 145.367C147.654 145.86 148.294 146.106 149.119 146.106C149.627 146.106 150.076 146.06 150.467 145.967C150.857 145.875 151.263 145.738 151.683 145.557V146.626C151.277 146.807 150.875 146.939 150.474 147.022C150.079 147.105 149.61 147.146 149.068 147.146C148.296 147.146 147.623 146.99 147.046 146.678C146.475 146.36 146.031 145.896 145.713 145.286C145.396 144.676 145.237 143.929 145.237 143.045C145.237 142.181 145.381 141.434 145.669 140.804C145.962 140.169 146.373 139.681 146.9 139.339C147.432 138.997 148.057 138.826 148.775 138.826ZM148.76 139.822C148.111 139.822 147.593 140.035 147.208 140.459C146.822 140.884 146.592 141.478 146.519 142.239H150.767C150.762 141.761 150.687 141.341 150.54 140.979C150.398 140.613 150.181 140.33 149.888 140.13C149.595 139.925 149.219 139.822 148.76 139.822ZM156.7 146.15C156.9 146.15 157.105 146.133 157.315 146.099C157.525 146.065 157.696 146.023 157.828 145.975V146.919C157.686 146.983 157.488 147.037 157.234 147.081C156.985 147.125 156.741 147.146 156.502 147.146C156.077 147.146 155.691 147.073 155.345 146.927C154.998 146.775 154.72 146.521 154.51 146.165C154.305 145.809 154.202 145.315 154.202 144.686V139.925H153.06V139.332L154.209 138.855L154.693 137.112H155.425V138.973H157.776V139.925H155.425V144.649C155.425 145.152 155.54 145.528 155.77 145.777C156.004 146.026 156.314 146.15 156.7 146.15Z" fill="#B9BCC8"/>
<path d="M9.7168 175L8.57422 172.055H4.85449L3.71826 175H2.62646L6.25732 165.682H7.22852L10.834 175H9.7168ZM8.25049 171.096L7.16504 168.17C7.13965 168.094 7.09733 167.969 7.03809 167.795C6.98307 167.622 6.92594 167.442 6.8667 167.256C6.80745 167.07 6.75879 166.919 6.7207 166.805C6.67839 166.979 6.63184 167.152 6.58105 167.326C6.53451 167.495 6.48796 167.654 6.44141 167.802C6.39486 167.946 6.35465 168.068 6.3208 168.17L5.21631 171.096H8.25049ZM14.4395 175.127C13.5592 175.127 12.861 174.826 12.3447 174.226C11.8327 173.625 11.5767 172.732 11.5767 171.547C11.5767 170.349 11.839 169.446 12.3638 168.836C12.8885 168.223 13.5868 167.916 14.4585 167.916C14.8267 167.916 15.1483 167.965 15.4233 168.062C15.6984 168.159 15.9354 168.291 16.1343 168.456C16.3332 168.616 16.5003 168.8 16.6357 169.008H16.7119C16.695 168.877 16.6781 168.697 16.6611 168.468C16.6442 168.24 16.6357 168.054 16.6357 167.91V165.123H17.6895V175H16.8389L16.6802 174.01H16.6357C16.5046 174.217 16.3374 174.405 16.1343 174.575C15.9354 174.744 15.6963 174.879 15.417 174.981C15.1419 175.078 14.8161 175.127 14.4395 175.127ZM14.6045 174.251C15.3493 174.251 15.8761 174.039 16.1851 173.616C16.494 173.193 16.6484 172.565 16.6484 171.731V171.541C16.6484 170.656 16.5003 169.977 16.2041 169.503C15.9121 169.029 15.3789 168.792 14.6045 168.792C13.957 168.792 13.4725 169.042 13.1509 169.541C12.8293 170.036 12.6685 170.713 12.6685 171.572C12.6685 172.427 12.8271 173.087 13.1445 173.553C13.4661 174.018 13.9528 174.251 14.6045 174.251ZM22.3994 175.127C21.5192 175.127 20.821 174.826 20.3047 174.226C19.7926 173.625 19.5366 172.732 19.5366 171.547C19.5366 170.349 19.799 169.446 20.3237 168.836C20.8485 168.223 21.5467 167.916 22.4185 167.916C22.7866 167.916 23.1082 167.965 23.3833 168.062C23.6584 168.159 23.8953 168.291 24.0942 168.456C24.2931 168.616 24.4603 168.8 24.5957 169.008H24.6719C24.6549 168.877 24.638 168.697 24.6211 168.468C24.6042 168.24 24.5957 168.054 24.5957 167.91V165.123H25.6494V175H24.7988L24.6401 174.01H24.5957C24.4645 174.217 24.2974 174.405 24.0942 174.575C23.8953 174.744 23.6562 174.879 23.377 174.981C23.1019 175.078 22.776 175.127 22.3994 175.127ZM22.5645 174.251C23.3092 174.251 23.8361 174.039 24.145 173.616C24.4539 173.193 24.6084 172.565 24.6084 171.731V171.541C24.6084 170.656 24.4603 169.977 24.1641 169.503C23.8721 169.029 23.3389 168.792 22.5645 168.792C21.917 168.792 21.4325 169.042 21.1108 169.541C20.7892 170.036 20.6284 170.713 20.6284 171.572C20.6284 172.427 20.7871 173.087 21.1045 173.553C21.4261 174.018 21.9128 174.251 22.5645 174.251ZM34.5552 167.916C35.3804 167.916 36.0046 168.119 36.4277 168.525C36.8509 168.927 37.0625 169.575 37.0625 170.468V175H36.0215V170.538C36.0215 169.958 35.8882 169.524 35.6216 169.236C35.3592 168.949 34.9551 168.805 34.4092 168.805C33.639 168.805 33.0973 169.023 32.7842 169.458C32.471 169.894 32.3145 170.527 32.3145 171.356V175H31.2607V168.043H32.1113L32.27 169.046H32.3271C32.4753 168.8 32.6636 168.595 32.8921 168.43C33.1206 168.261 33.3766 168.134 33.6602 168.049C33.9437 167.96 34.242 167.916 34.5552 167.916ZM41.9121 167.916C42.5046 167.916 43.0124 168.047 43.4355 168.31C43.8587 168.572 44.1825 168.94 44.4067 169.414C44.631 169.884 44.7432 170.434 44.7432 171.064V171.718H39.938C39.9507 172.535 40.1538 173.157 40.5474 173.584C40.9409 174.012 41.4953 174.226 42.2104 174.226C42.6506 174.226 43.0399 174.185 43.3784 174.105C43.717 174.025 44.0682 173.906 44.4321 173.75V174.676C44.0809 174.833 43.7318 174.947 43.3848 175.019C43.042 175.091 42.6357 175.127 42.166 175.127C41.4974 175.127 40.9134 174.992 40.4141 174.721C39.9189 174.446 39.5339 174.044 39.2588 173.515C38.9837 172.986 38.8462 172.338 38.8462 171.572C38.8462 170.823 38.971 170.176 39.2207 169.63C39.4746 169.08 39.8301 168.657 40.2871 168.36C40.7484 168.064 41.29 167.916 41.9121 167.916ZM41.8994 168.779C41.3366 168.779 40.888 168.963 40.5537 169.332C40.2194 169.7 40.0205 170.214 39.957 170.874H43.6387C43.6344 170.459 43.5688 170.095 43.4419 169.782C43.3192 169.465 43.1309 169.219 42.877 169.046C42.623 168.868 42.2972 168.779 41.8994 168.779ZM52.1953 174.987L50.9575 170.938C50.9025 170.764 50.8496 170.595 50.7988 170.43C50.7523 170.26 50.7078 170.1 50.6655 169.947C50.6274 169.791 50.5915 169.647 50.5576 169.516C50.528 169.38 50.5026 169.264 50.4814 169.167H50.437C50.4201 169.264 50.3968 169.38 50.3672 169.516C50.3376 169.647 50.3016 169.791 50.2593 169.947C50.2212 170.104 50.1789 170.269 50.1323 170.442C50.0858 170.612 50.0329 170.783 49.9736 170.957L48.6787 174.987H47.4917L45.5747 168.03H46.6665L47.6694 171.871C47.7371 172.125 47.8006 172.376 47.8599 172.626C47.9233 172.871 47.9762 173.104 48.0186 173.324C48.0651 173.54 48.099 173.728 48.1201 173.889H48.1709C48.1963 173.783 48.2238 173.656 48.2534 173.508C48.2873 173.36 48.3232 173.204 48.3613 173.039C48.4036 172.869 48.4481 172.702 48.4946 172.537C48.5412 172.368 48.5877 172.209 48.6343 172.061L49.9165 168.03H51.0527L52.2905 172.055C52.354 172.258 52.4154 172.469 52.4746 172.689C52.5381 172.91 52.5952 173.123 52.646 173.331C52.6968 173.534 52.7327 173.716 52.7539 173.876H52.8047C52.8216 173.733 52.8534 173.555 52.8999 173.343C52.9465 173.132 52.9993 172.899 53.0586 172.645C53.1221 172.391 53.1877 172.133 53.2554 171.871L54.271 168.03H55.3438L53.4204 174.987H52.1953ZM63.2593 167.916C64.1268 167.916 64.8187 168.214 65.335 168.811C65.8512 169.408 66.1094 170.305 66.1094 171.502C66.1094 172.294 65.9909 172.958 65.7539 173.496C65.5169 174.033 65.1826 174.439 64.751 174.714C64.3236 174.989 63.8179 175.127 63.2339 175.127C62.8657 175.127 62.542 175.078 62.2627 174.981C61.9834 174.884 61.7443 174.752 61.5454 174.587C61.3465 174.422 61.1815 174.243 61.0503 174.048H60.9741C60.9868 174.213 61.0016 174.412 61.0186 174.645C61.0397 174.877 61.0503 175.08 61.0503 175.254V178.11H59.9902V168.043H60.8599L60.9995 169.071H61.0503C61.1857 168.86 61.3507 168.667 61.5454 168.494C61.7401 168.316 61.9771 168.176 62.2563 168.075C62.5399 167.969 62.8742 167.916 63.2593 167.916ZM63.0752 168.805C62.5928 168.805 62.2035 168.898 61.9072 169.084C61.6152 169.27 61.4015 169.549 61.2661 169.922C61.1307 170.29 61.0588 170.753 61.0503 171.312V171.515C61.0503 172.103 61.1138 172.601 61.2407 173.007C61.3719 173.413 61.5856 173.722 61.8818 173.934C62.1823 174.145 62.5843 174.251 63.0879 174.251C63.5195 174.251 63.8792 174.135 64.167 173.902C64.4548 173.669 64.6685 173.345 64.8081 172.931C64.952 172.512 65.0239 172.031 65.0239 171.49C65.0239 170.669 64.8631 170.017 64.5415 169.535C64.2241 169.048 63.7354 168.805 63.0752 168.805ZM70.5527 167.929C71.3822 167.929 71.9979 168.115 72.3999 168.487C72.8019 168.86 73.0029 169.454 73.0029 170.271V175H72.2349L72.0317 173.972H71.981C71.7863 174.226 71.5832 174.439 71.3716 174.613C71.16 174.782 70.9146 174.911 70.6353 175C70.3602 175.085 70.0216 175.127 69.6196 175.127C69.1965 175.127 68.8198 175.053 68.4897 174.905C68.1639 174.757 67.9058 174.532 67.7153 174.232C67.5291 173.931 67.436 173.551 67.436 173.089C67.436 172.395 67.7111 171.862 68.2612 171.49C68.8114 171.117 69.6493 170.914 70.7749 170.88L71.9746 170.83V170.404C71.9746 169.803 71.8455 169.382 71.5874 169.141C71.3293 168.9 70.9653 168.779 70.4956 168.779C70.1317 168.779 69.7847 168.832 69.4546 168.938C69.1245 169.044 68.8114 169.169 68.5151 169.312L68.1914 168.513C68.5046 168.352 68.8643 168.214 69.2705 168.1C69.6768 167.986 70.1042 167.929 70.5527 167.929ZM71.9619 171.572L70.9019 171.617C70.0343 171.651 69.4229 171.792 69.0674 172.042C68.7119 172.292 68.5342 172.645 68.5342 173.102C68.5342 173.5 68.6548 173.794 68.896 173.984C69.1372 174.175 69.4567 174.27 69.8545 174.27C70.4723 174.27 70.978 174.099 71.3716 173.756C71.7651 173.413 71.9619 172.899 71.9619 172.213V171.572ZM77.4209 174.264C77.5944 174.264 77.7721 174.249 77.9541 174.219C78.1361 174.19 78.2842 174.154 78.3984 174.111V174.93C78.2757 174.985 78.1043 175.032 77.8843 175.07C77.6685 175.108 77.4569 175.127 77.2495 175.127C76.8813 175.127 76.547 175.063 76.2466 174.937C75.9461 174.805 75.7049 174.585 75.5229 174.276C75.3452 173.967 75.2563 173.54 75.2563 172.994V168.868H74.2661V168.354L75.2627 167.941L75.6816 166.431H76.3164V168.043H78.354V168.868H76.3164V172.962C76.3164 173.398 76.4159 173.724 76.6147 173.94C76.8179 174.156 77.0866 174.264 77.4209 174.264ZM80.8613 168.043V175H79.8076V168.043H80.8613ZM80.3472 165.44C80.5207 165.44 80.6688 165.498 80.7915 165.612C80.9185 165.722 80.9819 165.895 80.9819 166.132C80.9819 166.365 80.9185 166.539 80.7915 166.653C80.6688 166.767 80.5207 166.824 80.3472 166.824C80.1652 166.824 80.0129 166.767 79.8901 166.653C79.7716 166.539 79.7124 166.365 79.7124 166.132C79.7124 165.895 79.7716 165.722 79.8901 165.612C80.0129 165.498 80.1652 165.44 80.3472 165.44ZM85.7744 167.916C86.3669 167.916 86.8747 168.047 87.2979 168.31C87.721 168.572 88.0448 168.94 88.269 169.414C88.4933 169.884 88.6055 170.434 88.6055 171.064V171.718H83.8003C83.813 172.535 84.0161 173.157 84.4097 173.584C84.8032 174.012 85.3576 174.226 86.0728 174.226C86.5129 174.226 86.9022 174.185 87.2407 174.105C87.5793 174.025 87.9305 173.906 88.2944 173.75V174.676C87.9432 174.833 87.5941 174.947 87.2471 175.019C86.9043 175.091 86.498 175.127 86.0283 175.127C85.3597 175.127 84.7757 174.992 84.2764 174.721C83.7812 174.446 83.3962 174.044 83.1211 173.515C82.846 172.986 82.7085 172.338 82.7085 171.572C82.7085 170.823 82.8333 170.176 83.083 169.63C83.3369 169.08 83.6924 168.657 84.1494 168.36C84.6107 168.064 85.1523 167.916 85.7744 167.916ZM85.7617 168.779C85.1989 168.779 84.7503 168.963 84.416 169.332C84.0817 169.7 83.8828 170.214 83.8193 170.874H87.501C87.4967 170.459 87.4312 170.095 87.3042 169.782C87.1815 169.465 86.9932 169.219 86.7393 169.046C86.4854 168.868 86.1595 168.779 85.7617 168.779ZM93.6899 167.916C94.5151 167.916 95.1393 168.119 95.5625 168.525C95.9857 168.927 96.1973 169.575 96.1973 170.468V175H95.1562V170.538C95.1562 169.958 95.0229 169.524 94.7563 169.236C94.494 168.949 94.0898 168.805 93.5439 168.805C92.7738 168.805 92.2321 169.023 91.9189 169.458C91.6058 169.894 91.4492 170.527 91.4492 171.356V175H90.3955V168.043H91.2461L91.4048 169.046H91.4619C91.61 168.8 91.7983 168.595 92.0269 168.43C92.2554 168.261 92.5114 168.134 92.7949 168.049C93.0785 167.96 93.3768 167.916 93.6899 167.916ZM100.615 174.264C100.789 174.264 100.966 174.249 101.148 174.219C101.33 174.19 101.479 174.154 101.593 174.111V174.93C101.47 174.985 101.299 175.032 101.079 175.07C100.863 175.108 100.651 175.127 100.444 175.127C100.076 175.127 99.7414 175.063 99.4409 174.937C99.1405 174.805 98.8993 174.585 98.7173 174.276C98.5396 173.967 98.4507 173.54 98.4507 172.994V168.868H97.4604V168.354L98.457 167.941L98.876 166.431H99.5107V168.043H101.548V168.868H99.5107V172.962C99.5107 173.398 99.6102 173.724 99.8091 173.94C100.012 174.156 100.281 174.264 100.615 174.264ZM107.502 173.096C107.502 173.54 107.39 173.915 107.166 174.219C106.946 174.52 106.629 174.746 106.214 174.898C105.803 175.051 105.312 175.127 104.741 175.127C104.255 175.127 103.833 175.089 103.478 175.013C103.123 174.937 102.812 174.829 102.545 174.689V173.718C102.828 173.857 103.167 173.984 103.561 174.099C103.954 174.213 104.356 174.27 104.767 174.27C105.368 174.27 105.803 174.173 106.074 173.978C106.345 173.783 106.48 173.519 106.48 173.185C106.48 172.994 106.425 172.827 106.315 172.683C106.21 172.535 106.03 172.393 105.776 172.258C105.522 172.118 105.171 171.966 104.722 171.801C104.278 171.632 103.893 171.464 103.567 171.299C103.245 171.13 102.996 170.925 102.818 170.684C102.644 170.442 102.558 170.129 102.558 169.744C102.558 169.156 102.795 168.705 103.269 168.392C103.747 168.075 104.373 167.916 105.147 167.916C105.566 167.916 105.958 167.958 106.322 168.043C106.69 168.123 107.033 168.233 107.35 168.373L106.995 169.217C106.707 169.095 106.4 168.991 106.074 168.906C105.748 168.822 105.416 168.779 105.078 168.779C104.591 168.779 104.216 168.86 103.954 169.021C103.696 169.181 103.567 169.401 103.567 169.681C103.567 169.896 103.626 170.074 103.745 170.214C103.867 170.354 104.062 170.485 104.329 170.607C104.595 170.73 104.946 170.874 105.382 171.039C105.818 171.2 106.195 171.367 106.512 171.541C106.83 171.71 107.073 171.917 107.242 172.163C107.416 172.404 107.502 172.715 107.502 173.096ZM115.177 167.929C116.006 167.929 116.622 168.115 117.024 168.487C117.426 168.86 117.627 169.454 117.627 170.271V175H116.859L116.656 173.972H116.605C116.41 174.226 116.207 174.439 115.996 174.613C115.784 174.782 115.539 174.911 115.259 175C114.984 175.085 114.646 175.127 114.244 175.127C113.82 175.127 113.444 175.053 113.114 174.905C112.788 174.757 112.53 174.532 112.339 174.232C112.153 173.931 112.06 173.551 112.06 173.089C112.06 172.395 112.335 171.862 112.885 171.49C113.435 171.117 114.273 170.914 115.399 170.88L116.599 170.83V170.404C116.599 169.803 116.47 169.382 116.211 169.141C115.953 168.9 115.589 168.779 115.12 168.779C114.756 168.779 114.409 168.832 114.079 168.938C113.749 169.044 113.435 169.169 113.139 169.312L112.815 168.513C113.129 168.352 113.488 168.214 113.895 168.1C114.301 167.986 114.728 167.929 115.177 167.929ZM116.586 171.572L115.526 171.617C114.658 171.651 114.047 171.792 113.691 172.042C113.336 172.292 113.158 172.645 113.158 173.102C113.158 173.5 113.279 173.794 113.52 173.984C113.761 174.175 114.081 174.27 114.479 174.27C115.096 174.27 115.602 174.099 115.996 173.756C116.389 173.413 116.586 172.899 116.586 172.213V171.572ZM123.092 167.916C123.917 167.916 124.542 168.119 124.965 168.525C125.388 168.927 125.6 169.575 125.6 170.468V175H124.559V170.538C124.559 169.958 124.425 169.524 124.159 169.236C123.896 168.949 123.492 168.805 122.946 168.805C122.176 168.805 121.634 169.023 121.321 169.458C121.008 169.894 120.852 170.527 120.852 171.356V175H119.798V168.043H120.648L120.807 169.046H120.864C121.012 168.8 121.201 168.595 121.429 168.43C121.658 168.261 121.914 168.134 122.197 168.049C122.481 167.96 122.779 167.916 123.092 167.916ZM130.246 175.127C129.366 175.127 128.668 174.826 128.151 174.226C127.639 173.625 127.383 172.732 127.383 171.547C127.383 170.349 127.646 169.446 128.17 168.836C128.695 168.223 129.393 167.916 130.265 167.916C130.633 167.916 130.955 167.965 131.23 168.062C131.505 168.159 131.742 168.291 131.941 168.456C132.14 168.616 132.307 168.8 132.442 169.008H132.519C132.502 168.877 132.485 168.697 132.468 168.468C132.451 168.24 132.442 168.054 132.442 167.91V165.123H133.496V175H132.646L132.487 174.01H132.442C132.311 174.217 132.144 174.405 131.941 174.575C131.742 174.744 131.503 174.879 131.224 174.981C130.949 175.078 130.623 175.127 130.246 175.127ZM130.411 174.251C131.156 174.251 131.683 174.039 131.992 173.616C132.301 173.193 132.455 172.565 132.455 171.731V171.541C132.455 170.656 132.307 169.977 132.011 169.503C131.719 169.029 131.186 168.792 130.411 168.792C129.764 168.792 129.279 169.042 128.958 169.541C128.636 170.036 128.475 170.713 128.475 171.572C128.475 172.427 128.634 173.087 128.951 173.553C129.273 174.018 129.759 174.251 130.411 174.251ZM141.354 174.264C141.528 174.264 141.706 174.249 141.888 174.219C142.07 174.19 142.218 174.154 142.332 174.111V174.93C142.209 174.985 142.038 175.032 141.818 175.07C141.602 175.108 141.39 175.127 141.183 175.127C140.815 175.127 140.481 175.063 140.18 174.937C139.88 174.805 139.639 174.585 139.457 174.276C139.279 173.967 139.19 173.54 139.19 172.994V168.868H138.2V168.354L139.196 167.941L139.615 166.431H140.25V168.043H142.288V168.868H140.25V172.962C140.25 173.398 140.349 173.724 140.548 173.94C140.751 174.156 141.02 174.264 141.354 174.264ZM144.795 165.123V168.075C144.795 168.244 144.791 168.415 144.782 168.589C144.774 168.758 144.759 168.915 144.738 169.059H144.808C144.951 168.813 145.133 168.608 145.354 168.443C145.578 168.274 145.832 168.147 146.115 168.062C146.399 167.973 146.699 167.929 147.017 167.929C147.575 167.929 148.041 168.018 148.413 168.195C148.79 168.373 149.071 168.648 149.257 169.021C149.448 169.393 149.543 169.875 149.543 170.468V175H148.502V170.538C148.502 169.958 148.369 169.524 148.102 169.236C147.84 168.949 147.436 168.805 146.89 168.805C146.373 168.805 145.961 168.904 145.652 169.103C145.347 169.298 145.127 169.585 144.992 169.966C144.861 170.347 144.795 170.813 144.795 171.363V175H143.741V165.123H144.795ZM154.393 167.916C154.985 167.916 155.493 168.047 155.916 168.31C156.339 168.572 156.663 168.94 156.887 169.414C157.111 169.884 157.224 170.434 157.224 171.064V171.718H152.418C152.431 172.535 152.634 173.157 153.028 173.584C153.421 174.012 153.976 174.226 154.691 174.226C155.131 174.226 155.52 174.185 155.859 174.105C156.197 174.025 156.549 173.906 156.913 173.75V174.676C156.561 174.833 156.212 174.947 155.865 175.019C155.522 175.091 155.116 175.127 154.646 175.127C153.978 175.127 153.394 174.992 152.895 174.721C152.399 174.446 152.014 174.044 151.739 173.515C151.464 172.986 151.327 172.338 151.327 171.572C151.327 170.823 151.451 170.176 151.701 169.63C151.955 169.08 152.311 168.657 152.768 168.36C153.229 168.064 153.771 167.916 154.393 167.916ZM154.38 168.779C153.817 168.779 153.368 168.963 153.034 169.332C152.7 169.7 152.501 170.214 152.438 170.874H156.119C156.115 170.459 156.049 170.095 155.922 169.782C155.8 169.465 155.611 169.219 155.357 169.046C155.104 168.868 154.778 168.779 154.38 168.779ZM157.916 168.043H159.045L160.582 172.08C160.67 172.317 160.753 172.546 160.829 172.766C160.905 172.981 160.973 173.189 161.032 173.388C161.091 173.587 161.138 173.779 161.172 173.965H161.216C161.276 173.754 161.36 173.477 161.47 173.134C161.58 172.787 161.699 172.433 161.826 172.074L163.279 168.043H164.416L161.388 176.022C161.227 176.449 161.039 176.822 160.823 177.139C160.611 177.457 160.353 177.7 160.048 177.869C159.744 178.043 159.375 178.129 158.944 178.129C158.745 178.129 158.569 178.117 158.417 178.091C158.265 178.07 158.133 178.045 158.023 178.015V177.171C158.117 177.192 158.229 177.211 158.36 177.228C158.495 177.245 158.635 177.253 158.779 177.253C159.041 177.253 159.268 177.203 159.458 177.101C159.653 177.004 159.82 176.86 159.959 176.669C160.099 176.479 160.22 176.253 160.321 175.99L160.702 175.013L157.916 168.043ZM174.565 174.987L173.328 170.938C173.273 170.764 173.22 170.595 173.169 170.43C173.122 170.26 173.078 170.1 173.036 169.947C172.998 169.791 172.962 169.647 172.928 169.516C172.898 169.38 172.873 169.264 172.852 169.167H172.807C172.79 169.264 172.767 169.38 172.737 169.516C172.708 169.647 172.672 169.791 172.629 169.947C172.591 170.104 172.549 170.269 172.502 170.442C172.456 170.612 172.403 170.783 172.344 170.957L171.049 174.987H169.862L167.945 168.03H169.037L170.04 171.871C170.107 172.125 170.171 172.376 170.23 172.626C170.293 172.871 170.346 173.104 170.389 173.324C170.435 173.54 170.469 173.728 170.49 173.889H170.541C170.566 173.783 170.594 173.656 170.624 173.508C170.657 173.36 170.693 173.204 170.731 173.039C170.774 172.869 170.818 172.702 170.865 172.537C170.911 172.368 170.958 172.209 171.004 172.061L172.287 168.03H173.423L174.661 172.055C174.724 172.258 174.785 172.469 174.845 172.689C174.908 172.91 174.965 173.123 175.016 173.331C175.067 173.534 175.103 173.716 175.124 173.876H175.175C175.192 173.733 175.223 173.555 175.27 173.343C175.317 173.132 175.369 172.899 175.429 172.645C175.492 172.391 175.558 172.133 175.625 171.871L176.641 168.03H177.714L175.791 174.987H174.565ZM180.037 168.043V175H178.983V168.043H180.037ZM179.523 165.44C179.696 165.44 179.845 165.498 179.967 165.612C180.094 165.722 180.158 165.895 180.158 166.132C180.158 166.365 180.094 166.539 179.967 166.653C179.845 166.767 179.696 166.824 179.523 166.824C179.341 166.824 179.189 166.767 179.066 166.653C178.947 166.539 178.888 166.365 178.888 166.132C178.888 165.895 178.947 165.722 179.066 165.612C179.189 165.498 179.341 165.44 179.523 165.44ZM183.332 175H182.271V165.123H183.332V175ZM186.62 175H185.56V165.123H186.62V175ZM193.278 165.123V167.592C193.278 167.876 193.27 168.151 193.253 168.417C193.24 168.684 193.23 168.891 193.221 169.04H193.278C193.469 168.726 193.744 168.462 194.104 168.246C194.463 168.03 194.922 167.922 195.481 167.922C196.353 167.922 197.047 168.225 197.563 168.83C198.083 169.431 198.344 170.326 198.344 171.515C198.344 172.298 198.225 172.958 197.988 173.496C197.751 174.033 197.417 174.439 196.985 174.714C196.554 174.989 196.044 175.127 195.456 175.127C194.905 175.127 194.453 175.025 194.097 174.822C193.746 174.615 193.475 174.363 193.285 174.067H193.202L192.986 175H192.225V165.123H193.278ZM195.31 168.805C194.806 168.805 194.406 168.904 194.11 169.103C193.814 169.298 193.6 169.594 193.469 169.992C193.342 170.385 193.278 170.885 193.278 171.49V171.547C193.278 172.423 193.424 173.094 193.716 173.559C194.008 174.02 194.539 174.251 195.31 174.251C195.957 174.251 196.442 174.014 196.763 173.54C197.089 173.066 197.252 172.389 197.252 171.509C197.252 170.612 197.091 169.937 196.77 169.484C196.452 169.031 195.965 168.805 195.31 168.805ZM202.863 167.916C203.456 167.916 203.964 168.047 204.387 168.31C204.81 168.572 205.134 168.94 205.358 169.414C205.582 169.884 205.694 170.434 205.694 171.064V171.718H200.889C200.902 172.535 201.105 173.157 201.499 173.584C201.892 174.012 202.446 174.226 203.162 174.226C203.602 174.226 203.991 174.185 204.33 174.105C204.668 174.025 205.019 173.906 205.383 173.75V174.676C205.032 174.833 204.683 174.947 204.336 175.019C203.993 175.091 203.587 175.127 203.117 175.127C202.449 175.127 201.865 174.992 201.365 174.721C200.87 174.446 200.485 174.044 200.21 173.515C199.935 172.986 199.797 172.338 199.797 171.572C199.797 170.823 199.922 170.176 200.172 169.63C200.426 169.08 200.781 168.657 201.238 168.36C201.7 168.064 202.241 167.916 202.863 167.916ZM202.851 168.779C202.288 168.779 201.839 168.963 201.505 169.332C201.171 169.7 200.972 170.214 200.908 170.874H204.59C204.586 170.459 204.52 170.095 204.393 169.782C204.27 169.465 204.082 169.219 203.828 169.046C203.574 168.868 203.248 168.779 202.851 168.779ZM61.9009 192.127C61.0207 192.127 60.3224 191.826 59.8062 191.226C59.2941 190.625 59.0381 189.732 59.0381 188.547C59.0381 187.349 59.3005 186.446 59.8252 185.836C60.3499 185.223 61.0482 184.916 61.9199 184.916C62.2881 184.916 62.6097 184.965 62.8848 185.062C63.1598 185.159 63.3968 185.291 63.5957 185.456C63.7946 185.616 63.9618 185.8 64.0972 186.008H64.1733C64.1564 185.877 64.1395 185.697 64.1226 185.468C64.1056 185.24 64.0972 185.054 64.0972 184.91V182.123H65.1509V192H64.3003L64.1416 191.01H64.0972C63.966 191.217 63.7988 191.405 63.5957 191.575C63.3968 191.744 63.1577 191.879 62.8784 191.981C62.6034 192.078 62.2775 192.127 61.9009 192.127ZM62.0659 191.251C62.8107 191.251 63.3376 191.039 63.6465 190.616C63.9554 190.193 64.1099 189.565 64.1099 188.731V188.541C64.1099 187.656 63.9618 186.977 63.6655 186.503C63.3735 186.029 62.8403 185.792 62.0659 185.792C61.4185 185.792 60.9339 186.042 60.6123 186.541C60.2907 187.036 60.1299 187.713 60.1299 188.572C60.1299 189.427 60.2886 190.087 60.606 190.553C60.9276 191.018 61.4142 191.251 62.0659 191.251ZM68.439 185.043V192H67.3853V185.043H68.439ZM67.9248 182.44C68.0983 182.44 68.2464 182.498 68.3691 182.612C68.4961 182.722 68.5596 182.895 68.5596 183.132C68.5596 183.365 68.4961 183.539 68.3691 183.653C68.2464 183.767 68.0983 183.824 67.9248 183.824C67.7428 183.824 67.5905 183.767 67.4678 183.653C67.3493 183.539 67.29 183.365 67.29 183.132C67.29 182.895 67.3493 182.722 67.4678 182.612C67.5905 182.498 67.7428 182.44 67.9248 182.44ZM75.1738 190.096C75.1738 190.54 75.0617 190.915 74.8374 191.219C74.6174 191.52 74.3 191.746 73.8853 191.898C73.4748 192.051 72.9839 192.127 72.4126 192.127C71.9259 192.127 71.5049 192.089 71.1494 192.013C70.7939 191.937 70.4829 191.829 70.2163 191.689V190.718C70.4998 190.857 70.8384 190.984 71.2319 191.099C71.6255 191.213 72.0275 191.27 72.438 191.27C73.0389 191.27 73.4748 191.173 73.7456 190.978C74.0164 190.783 74.1519 190.519 74.1519 190.185C74.1519 189.994 74.0968 189.827 73.9868 189.683C73.881 189.535 73.7012 189.393 73.4473 189.258C73.1934 189.118 72.8421 188.966 72.3936 188.801C71.9492 188.632 71.5641 188.464 71.2383 188.299C70.9167 188.13 70.667 187.925 70.4893 187.684C70.3158 187.442 70.229 187.129 70.229 186.744C70.229 186.156 70.466 185.705 70.9399 185.392C71.4181 185.075 72.0444 184.916 72.8188 184.916C73.2378 184.916 73.6292 184.958 73.9932 185.043C74.3613 185.123 74.7041 185.233 75.0215 185.373L74.666 186.217C74.3783 186.095 74.0715 185.991 73.7456 185.906C73.4198 185.822 73.0876 185.779 72.749 185.779C72.2624 185.779 71.8879 185.86 71.6255 186.021C71.3674 186.181 71.2383 186.401 71.2383 186.681C71.2383 186.896 71.2975 187.074 71.416 187.214C71.5387 187.354 71.7334 187.485 72 187.607C72.2666 187.73 72.6178 187.874 73.0537 188.039C73.4896 188.2 73.8662 188.367 74.1836 188.541C74.501 188.71 74.7443 188.917 74.9136 189.163C75.0871 189.404 75.1738 189.715 75.1738 190.096ZM80.1377 184.916C81.0052 184.916 81.6971 185.214 82.2134 185.811C82.7297 186.408 82.9878 187.305 82.9878 188.502C82.9878 189.294 82.8693 189.958 82.6323 190.496C82.3953 191.033 82.061 191.439 81.6294 191.714C81.202 191.989 80.6963 192.127 80.1123 192.127C79.7441 192.127 79.4204 192.078 79.1411 191.981C78.8618 191.884 78.6227 191.752 78.4238 191.587C78.2249 191.422 78.0599 191.243 77.9287 191.048H77.8525C77.8652 191.213 77.88 191.412 77.897 191.645C77.9181 191.877 77.9287 192.08 77.9287 192.254V195.11H76.8687V185.043H77.7383L77.8779 186.071H77.9287C78.0641 185.86 78.2292 185.667 78.4238 185.494C78.6185 185.316 78.8555 185.176 79.1348 185.075C79.4183 184.969 79.7526 184.916 80.1377 184.916ZM79.9536 185.805C79.4712 185.805 79.0819 185.898 78.7856 186.084C78.4937 186.27 78.2799 186.549 78.1445 186.922C78.0091 187.29 77.9372 187.753 77.9287 188.312V188.515C77.9287 189.103 77.9922 189.601 78.1191 190.007C78.2503 190.413 78.464 190.722 78.7603 190.934C79.0607 191.145 79.4627 191.251 79.9663 191.251C80.3979 191.251 80.7576 191.135 81.0454 190.902C81.3332 190.669 81.5469 190.345 81.6865 189.931C81.8304 189.512 81.9023 189.031 81.9023 188.49C81.9023 187.669 81.7415 187.017 81.4199 186.535C81.1025 186.048 80.6138 185.805 79.9536 185.805ZM85.8887 192H84.8286V182.123H85.8887V192ZM90.7192 184.929C91.5487 184.929 92.1644 185.115 92.5664 185.487C92.9684 185.86 93.1694 186.454 93.1694 187.271V192H92.4014L92.1982 190.972H92.1475C91.9528 191.226 91.7497 191.439 91.5381 191.613C91.3265 191.782 91.0811 191.911 90.8018 192C90.5267 192.085 90.1882 192.127 89.7861 192.127C89.363 192.127 88.9863 192.053 88.6562 191.905C88.3304 191.757 88.0723 191.532 87.8818 191.232C87.6956 190.931 87.6025 190.551 87.6025 190.089C87.6025 189.395 87.8776 188.862 88.4277 188.49C88.9779 188.117 89.8158 187.914 90.9414 187.88L92.1411 187.83V187.404C92.1411 186.803 92.012 186.382 91.7539 186.141C91.4958 185.9 91.1318 185.779 90.6621 185.779C90.2982 185.779 89.9512 185.832 89.6211 185.938C89.291 186.044 88.9779 186.169 88.6816 186.312L88.3579 185.513C88.6711 185.352 89.0308 185.214 89.437 185.1C89.8433 184.986 90.2707 184.929 90.7192 184.929ZM92.1284 188.572L91.0684 188.617C90.2008 188.651 89.5894 188.792 89.2339 189.042C88.8784 189.292 88.7007 189.645 88.7007 190.102C88.7007 190.5 88.8213 190.794 89.0625 190.984C89.3037 191.175 89.6232 191.27 90.021 191.27C90.6388 191.27 91.1445 191.099 91.5381 190.756C91.9316 190.413 92.1284 189.899 92.1284 189.213V188.572ZM94.2422 185.043H95.3721L96.9082 189.08C96.9971 189.317 97.0796 189.546 97.1558 189.766C97.2319 189.981 97.2996 190.189 97.3589 190.388C97.4181 190.587 97.4647 190.779 97.4985 190.965H97.543C97.6022 190.754 97.6868 190.477 97.7969 190.134C97.9069 189.787 98.0254 189.433 98.1523 189.074L99.606 185.043H100.742L97.7144 193.022C97.5535 193.449 97.3652 193.822 97.1494 194.139C96.9378 194.457 96.6797 194.7 96.375 194.869C96.0703 195.043 95.7021 195.129 95.2705 195.129C95.0716 195.129 94.896 195.117 94.7437 195.091C94.5913 195.07 94.4601 195.045 94.3501 195.015V194.171C94.4432 194.192 94.5553 194.211 94.6865 194.228C94.8219 194.245 94.9616 194.253 95.1055 194.253C95.3678 194.253 95.5942 194.203 95.7847 194.101C95.9793 194.004 96.1465 193.86 96.2861 193.669C96.4258 193.479 96.5464 193.253 96.6479 192.99L97.0288 192.013L94.2422 185.043ZM104.532 184.916C105.124 184.916 105.632 185.047 106.055 185.31C106.478 185.572 106.802 185.94 107.026 186.414C107.251 186.884 107.363 187.434 107.363 188.064V188.718H102.558C102.57 189.535 102.773 190.157 103.167 190.584C103.561 191.012 104.115 191.226 104.83 191.226C105.27 191.226 105.66 191.185 105.998 191.105C106.337 191.025 106.688 190.906 107.052 190.75V191.676C106.701 191.833 106.351 191.947 106.004 192.019C105.662 192.091 105.255 192.127 104.786 192.127C104.117 192.127 103.533 191.992 103.034 191.721C102.539 191.446 102.153 191.044 101.878 190.515C101.603 189.986 101.466 189.338 101.466 188.572C101.466 187.823 101.591 187.176 101.84 186.63C102.094 186.08 102.45 185.657 102.907 185.36C103.368 185.064 103.91 184.916 104.532 184.916ZM104.519 185.779C103.956 185.779 103.508 185.963 103.173 186.332C102.839 186.7 102.64 187.214 102.577 187.874H106.258C106.254 187.459 106.188 187.095 106.062 186.782C105.939 186.465 105.75 186.219 105.497 186.046C105.243 185.868 104.917 185.779 104.519 185.779ZM111.628 192.127C110.748 192.127 110.05 191.826 109.534 191.226C109.022 190.625 108.766 189.732 108.766 188.547C108.766 187.349 109.028 186.446 109.553 185.836C110.077 185.223 110.776 184.916 111.647 184.916C112.016 184.916 112.337 184.965 112.612 185.062C112.887 185.159 113.124 185.291 113.323 185.456C113.522 185.616 113.689 185.8 113.825 186.008H113.901C113.884 185.877 113.867 185.697 113.85 185.468C113.833 185.24 113.825 185.054 113.825 184.91V182.123H114.878V192H114.028L113.869 191.01H113.825C113.694 191.217 113.526 191.405 113.323 191.575C113.124 191.744 112.885 191.879 112.606 191.981C112.331 192.078 112.005 192.127 111.628 192.127ZM111.793 191.251C112.538 191.251 113.065 191.039 113.374 190.616C113.683 190.193 113.837 189.565 113.837 188.731V188.541C113.837 187.656 113.689 186.977 113.393 186.503C113.101 186.029 112.568 185.792 111.793 185.792C111.146 185.792 110.661 186.042 110.34 186.541C110.018 187.036 109.857 187.713 109.857 188.572C109.857 189.427 110.016 190.087 110.333 190.553C110.655 191.018 111.142 191.251 111.793 191.251ZM121.543 182.123V185.075C121.543 185.244 121.539 185.415 121.531 185.589C121.522 185.758 121.507 185.915 121.486 186.059H121.556C121.7 185.813 121.882 185.608 122.102 185.443C122.326 185.274 122.58 185.147 122.864 185.062C123.147 184.973 123.448 184.929 123.765 184.929C124.324 184.929 124.789 185.018 125.162 185.195C125.538 185.373 125.82 185.648 126.006 186.021C126.196 186.393 126.292 186.875 126.292 187.468V192H125.25V187.538C125.25 186.958 125.117 186.524 124.851 186.236C124.588 185.949 124.184 185.805 123.638 185.805C123.122 185.805 122.709 185.904 122.4 186.103C122.096 186.298 121.876 186.585 121.74 186.966C121.609 187.347 121.543 187.813 121.543 188.363V192H120.49V182.123H121.543ZM131.141 184.916C131.734 184.916 132.241 185.047 132.665 185.31C133.088 185.572 133.411 185.94 133.636 186.414C133.86 186.884 133.972 187.434 133.972 188.064V188.718H129.167C129.18 189.535 129.383 190.157 129.776 190.584C130.17 191.012 130.724 191.226 131.439 191.226C131.88 191.226 132.269 191.185 132.607 191.105C132.946 191.025 133.297 190.906 133.661 190.75V191.676C133.31 191.833 132.961 191.947 132.614 192.019C132.271 192.091 131.865 192.127 131.395 192.127C130.726 192.127 130.142 191.992 129.643 191.721C129.148 191.446 128.763 191.044 128.488 190.515C128.213 189.986 128.075 189.338 128.075 188.572C128.075 187.823 128.2 187.176 128.45 186.63C128.704 186.08 129.059 185.657 129.516 185.36C129.977 185.064 130.519 184.916 131.141 184.916ZM131.128 185.779C130.566 185.779 130.117 185.963 129.783 186.332C129.448 186.7 129.25 187.214 129.186 187.874H132.868C132.863 187.459 132.798 187.095 132.671 186.782C132.548 186.465 132.36 186.219 132.106 186.046C131.852 185.868 131.526 185.779 131.128 185.779ZM138.923 184.916C139.063 184.916 139.209 184.924 139.361 184.941C139.514 184.954 139.649 184.973 139.768 184.999L139.634 185.976C139.52 185.946 139.393 185.923 139.253 185.906C139.114 185.889 138.983 185.881 138.86 185.881C138.581 185.881 138.316 185.938 138.066 186.052C137.821 186.162 137.605 186.323 137.419 186.535C137.233 186.742 137.087 186.994 136.981 187.29C136.875 187.582 136.822 187.908 136.822 188.268V192H135.762V185.043H136.638L136.752 186.325H136.797C136.941 186.067 137.114 185.832 137.317 185.621C137.521 185.405 137.755 185.233 138.022 185.106C138.293 184.979 138.593 184.916 138.923 184.916ZM143.76 184.916C144.353 184.916 144.861 185.047 145.284 185.31C145.707 185.572 146.031 185.94 146.255 186.414C146.479 186.884 146.591 187.434 146.591 188.064V188.718H141.786C141.799 189.535 142.002 190.157 142.396 190.584C142.789 191.012 143.343 191.226 144.059 191.226C144.499 191.226 144.888 191.185 145.227 191.105C145.565 191.025 145.916 190.906 146.28 190.75V191.676C145.929 191.833 145.58 191.947 145.233 192.019C144.89 192.091 144.484 192.127 144.014 192.127C143.346 192.127 142.762 191.992 142.262 191.721C141.767 191.446 141.382 191.044 141.107 190.515C140.832 189.986 140.694 189.338 140.694 188.572C140.694 187.823 140.819 187.176 141.069 186.63C141.323 186.08 141.678 185.657 142.135 185.36C142.597 185.064 143.138 184.916 143.76 184.916ZM143.748 185.779C143.185 185.779 142.736 185.963 142.402 186.332C142.068 186.7 141.869 187.214 141.805 187.874H145.487C145.483 187.459 145.417 187.095 145.29 186.782C145.167 186.465 144.979 186.219 144.725 186.046C144.471 185.868 144.145 185.779 143.748 185.779ZM148.223 191.34C148.223 191.044 148.295 190.834 148.438 190.711C148.582 190.584 148.758 190.521 148.965 190.521C149.181 190.521 149.363 190.584 149.511 190.711C149.659 190.834 149.733 191.044 149.733 191.34C149.733 191.632 149.659 191.846 149.511 191.981C149.363 192.112 149.181 192.178 148.965 192.178C148.758 192.178 148.582 192.112 148.438 191.981C148.295 191.846 148.223 191.632 148.223 191.34Z" fill="#B9BCC8"/>
</svg>
