<svg width="194" height="270" viewBox="0 0 194 270" fill="none" xmlns="http://www.w3.org/2000/svg">
<path fill-rule="evenodd" clip-rule="evenodd" d="M30.4262 161.191C30.5912 161.191 30.6476 161.062 30.5512 160.905C30.4548 160.748 30.3199 160.619 30.2511 160.619C30.1822 160.619 30.1261 160.748 30.1261 160.905C30.1261 161.062 30.2613 161.191 30.4262 161.191Z" fill="#252525"/>
<path fill-rule="evenodd" clip-rule="evenodd" d="M30.4262 161.191C30.5912 161.191 30.6476 161.062 30.5512 160.905C30.4548 160.748 30.3199 160.619 30.2511 160.619C30.1822 160.619 30.1261 160.748 30.1261 160.905C30.1261 161.062 30.2613 161.191 30.4262 161.191Z" fill="#252525"/>
<path fill-rule="evenodd" clip-rule="evenodd" d="M30.4262 161.191C30.5912 161.191 30.6476 161.062 30.5512 160.905C30.4548 160.748 30.3199 160.619 30.2511 160.619C30.1822 160.619 30.1261 160.748 30.1261 160.905C30.1261 161.062 30.2613 161.191 30.4262 161.191Z" fill="#252525"/>
<path fill-rule="evenodd" clip-rule="evenodd" d="M58.7715 87.893C58.2856 86.7496 56.7041 85.4554 56.0853 84.8917C53.429 82.4713 49.7653 81.887 46.5001 82.5707C43.8684 83.1218 42.5385 84.1911 41.2778 86.7702C40.2053 88.9648 40.188 89.0525 40.188 92.2819C40.188 95.5487 40.1849 95.5641 39.4794 95.7247C39.0101 95.8316 38.5792 96.281 38.204 97.055C37.8157 97.8559 37.3145 98.3664 36.613 98.6765C35.07 99.3588 31.9432 101.645 31.0362 102.755C29.8571 104.198 26.6035 110.122 25.6126 112.631C24.7226 114.884 22.1899 124.743 22.1899 125.954C22.1899 126.333 22.0411 126.923 21.8594 127.266C21.4903 127.961 20.6905 136.755 20.9277 137.509C21.0111 137.774 20.9464 138.073 20.7843 138.174C20.4003 138.413 20.4039 140.202 20.79 140.929C21.0037 141.332 20.9972 141.926 20.7676 142.983C20.515 144.144 20.5289 144.97 20.8308 146.756C21.199 148.937 21.2494 149.039 21.9223 148.959C22.4073 148.902 22.8854 149.147 23.4512 149.743C23.9038 150.219 24.2096 150.674 24.1303 150.754C24.0512 150.834 23.189 150.983 22.2145 151.086C19.6115 151.361 19.7146 150.747 20.4567 161.545C20.879 167.69 21.8177 168.886 26.2759 168.958C27.6466 168.98 28.8636 168.867 29.0269 168.702C29.6394 168.084 29.1663 166.81 28.0394 166.04C26.44 164.948 26.3501 164.632 27.1681 162.977C27.7571 161.784 28.0346 161.513 28.7897 161.392C29.3696 161.299 29.8117 161.387 30.0056 161.633C30.3174 162.03 31.3825 161.917 32.014 161.421C32.215 161.263 32.4145 161.28 32.5268 161.463C32.7983 161.906 33.8376 161.826 34.3926 161.32C34.8311 160.92 34.989 160.926 36.0448 161.387C36.6867 161.668 37.2119 162.036 37.2119 162.205C37.2119 162.756 35.6241 164.075 35.1718 163.9C34.6247 163.688 33.8759 165.206 33.6282 167.027C33.5304 167.747 33.3399 168.337 33.2053 168.337C32.7172 168.337 32.9752 169.757 33.5636 170.31C34.8336 171.503 43.6969 173.196 48.6766 173.196C53.4746 173.196 56.4856 172.277 56.4856 170.814C56.4856 169.676 55.8549 169.19 53.8179 168.76C52.7448 168.534 51.6524 168.153 51.3905 167.914C51.1283 167.675 50.7327 167.479 50.511 167.478C49.7435 167.476 48.2705 166.371 48.4402 165.924C48.5369 165.671 48.2753 165.194 47.7966 164.752L46.9905 164.006L48.3022 164.16C49.0236 164.245 50.9469 164.764 52.5761 165.314C56.593 166.669 57.4892 166.783 59.4968 166.195C60.798 165.814 61.4785 165.385 62.6095 164.235C64.5856 162.225 64.8038 160.949 63.5916 158.492C63.1219 157.54 62.2237 156.082 61.5956 155.254C60.9675 154.425 60.4536 153.626 60.4536 153.476C60.4536 153.328 62.1755 151.716 64.28 149.895C66.3845 148.074 68.3286 146.173 68.6002 145.67C69.3453 144.289 69.2849 140.317 68.4924 138.581C67.6892 136.822 66.3449 136.193 62.4425 135.753C58.456 135.303 51.5932 135.611 49.1573 136.349C46.9769 137.01 46.8487 137.015 46.8487 136.447C46.8487 136.013 46.5574 136.029 45.219 136.536C44.9832 136.625 44.8647 136.374 44.8647 135.786C44.8647 135.054 45.0274 134.833 45.8091 134.504C47.0109 133.997 47.8232 132.953 48.417 131.15C48.7962 129.999 48.8597 128.97 48.7463 125.806C48.6693 123.652 48.5139 121.53 48.4008 121.091L48.1956 120.294L49.2251 120.907C49.807 121.253 50.4606 121.44 50.7278 121.336C51.2701 121.126 54.3252 122.351 56.1868 123.524L56.2415 123.559C58.1155 124.74 58.2787 124.843 59.8227 123.524C61.3816 122.193 66.6251 111.617 66.6251 111.617C68.0423 108.972 68.2345 108.045 68.9657 107.709C69.9169 107.272 72.5194 104.669 72.7609 104.356C73.0024 104.043 73.1441 103.859 73.327 103.53C73.5098 103.201 73.8383 102.812 73.711 102.301L73.533 101.586L73.1441 100.47C73.1441 100.47 72.9454 99.8123 72.4688 99.1834C72.1279 98.7335 71.6447 98.2981 70.9903 98.1284C70.0807 97.8925 69.2823 97.9309 68.6623 98.1284C68.0423 98.3259 65.9165 100.755 65.4914 101.327C65.0662 101.899 64.4994 102.47 64.1306 103.944C63.7619 105.417 63.9231 105.026 63.8299 105.812C63.6196 107.584 62.1083 109.618 61.5233 110.76C61.0623 111.659 58.0902 115.809 57.5801 116.333C57.0689 116.859 53.5871 112.618 53.7929 112.189C53.8971 111.804 53.9482 111.859 53.8705 111.76C53.8064 111.573 53.3369 111.06 52.7791 110.541C52.2215 110.022 51.2284 108.505 50.572 107.168C49.9158 105.832 49.2293 104.521 49.0468 104.255C48.7804 103.867 48.8229 103.651 49.2636 103.16C49.8492 102.508 50.2199 102.509 52.5342 103.172C54.3436 103.69 55.3518 103.392 55.3518 102.339C55.3518 101.889 55.5513 101.355 55.7951 101.151C56.0615 100.928 56.1775 100.534 56.0853 100.163C55.9703 99.7015 56.1429 99.7695 56.2797 99.6547C56.4166 99.5398 56.8189 99.5841 56.7298 99.1834C56.6408 98.7827 56.5365 98.7961 56.8189 98.4688C57.4384 98.3259 57.8386 98.2922 58.0053 98.0401C58.2887 97.6113 56.8189 95.8963 57.5801 92.8951C59.4225 90.1796 59.2574 89.0363 58.7715 87.893ZM30.4262 161.191C30.5912 161.191 30.6476 161.062 30.5512 160.905C30.4548 160.748 30.3199 160.619 30.2511 160.619C30.1822 160.619 30.1261 160.748 30.1261 160.905C30.1261 161.062 30.2613 161.191 30.4262 161.191Z" fill="#252525"/>
<path d="M69.6625 100.735V94.3039V93.1605V92.5889C69.3458 92.1601 68.779 92.0172 68.184 92.5889V100.735H69.6625Z" fill="#252525"/>
<line x1="71.334" y1="94.7607" x2="151.542" y2="94.7607" stroke="#252525" stroke-width="2" stroke-dasharray="10 10"/>
<path d="M167.417 173.586C165.74 173.115 161.5 172.456 157.957 173.586H150.309C149.302 172.779 148.014 171.083 150.913 170.76L150.945 170.757C154.569 170.353 160.176 169.728 161.58 162.081C162.707 155.945 161.245 147.952 160.373 144.722V137.657C159.299 137.052 157.474 134.387 158.762 128.574C154.093 124.214 153.73 108.591 154.133 101.325C153.261 97.288 151.557 89.0123 151.718 88.2049C151.114 86.9938 152.321 78.5162 150.309 67.4147C149.941 66.9749 150.242 66.1002 150.309 65.562C151.181 62.1306 153.891 54.7791 160.976 49.4503C160.493 47.8355 160.104 46.2208 159.97 45.6152C159.232 46.288 157.233 47.4318 155.139 46.6244C154.334 46.3015 154.804 44.606 155.139 43.7986C154.536 43.3276 153.569 41.982 154.536 40.3672C153.569 40.3672 152.925 39.9635 152.724 39.7617L154.536 36.9358C154.066 34.9846 153.811 30.5978 156.548 28.6601V26.8435C162.385 25.2287 173.536 24.825 171.443 36.1284C166.773 42.2646 168.692 47.5664 170.235 49.4503C172.785 52.478 176.596 61.0363 171.443 71.0479C168.222 82.3513 168.356 88.4067 168.826 90.0215C171.443 93.3856 175.106 101.85 168.826 108.793C171.443 120.702 170.235 126.152 168.826 127.969C169.229 130.593 168.625 129.785 169.631 132.006C170.436 133.782 169.967 136.11 169.631 137.052C170.906 140.012 172.691 148.476 169.631 158.649C167.86 163.817 168.357 167.934 168.826 169.347C169.363 170.424 169.833 172.779 167.417 173.586Z" fill="#252525"/>
<path d="M141.711 24L71.0003 94.7107L141.711 165.421" stroke="black" stroke-width="2" stroke-dasharray="10 10"/>
<path d="M43.2109 235.021H48.0098V241.473C47.3359 241.695 46.6387 241.868 45.918 241.991C45.1973 242.114 44.3887 242.176 43.4922 242.176C42.1855 242.176 41.0781 241.918 40.1699 241.402C39.2676 240.881 38.582 240.128 38.1133 239.144C37.6445 238.153 37.4102 236.961 37.4102 235.566C37.4102 234.225 37.6709 233.062 38.1924 232.077C38.7139 231.087 39.4727 230.322 40.4688 229.783C41.4648 229.238 42.6719 228.966 44.0898 228.966C44.7871 228.966 45.4609 229.036 46.1113 229.177C46.7676 229.312 47.3682 229.499 47.9131 229.739L47.1748 231.479C46.7412 231.274 46.2549 231.102 45.7158 230.961C45.1768 230.82 44.6172 230.75 44.0371 230.75C43.1172 230.75 42.3232 230.949 41.6553 231.348C40.9932 231.746 40.4834 232.309 40.126 233.035C39.7686 233.756 39.5898 234.608 39.5898 235.593C39.5898 236.548 39.7334 237.386 40.0205 238.106C40.3076 238.827 40.7559 239.39 41.3652 239.794C41.9805 240.192 42.7744 240.392 43.7471 240.392C44.2334 240.392 44.6465 240.365 44.9863 240.312C45.3262 240.26 45.6396 240.201 45.9268 240.137V236.823H43.2109V235.021ZM54.751 232.086C55.6182 232.086 56.3623 232.265 56.9834 232.622C57.6045 232.979 58.082 233.486 58.416 234.143C58.75 234.799 58.917 235.584 58.917 236.498V237.605H52.4219C52.4453 238.549 52.6973 239.275 53.1777 239.785C53.6641 240.295 54.3438 240.55 55.2168 240.55C55.8379 240.55 56.3945 240.491 56.8867 240.374C57.3848 240.251 57.8975 240.072 58.4248 239.838V241.517C57.9385 241.745 57.4434 241.912 56.9395 242.018C56.4355 242.123 55.832 242.176 55.1289 242.176C54.1738 242.176 53.333 241.991 52.6064 241.622C51.8857 241.247 51.3203 240.69 50.9102 239.952C50.5059 239.214 50.3037 238.297 50.3037 237.201C50.3037 236.111 50.4883 235.186 50.8574 234.424C51.2266 233.662 51.7451 233.082 52.4131 232.684C53.0811 232.285 53.8604 232.086 54.751 232.086ZM54.751 233.642C54.1006 233.642 53.5732 233.853 53.1689 234.274C52.7705 234.696 52.5361 235.314 52.4658 236.129H56.8955C56.8896 235.643 56.8076 235.212 56.6494 234.837C56.4971 234.462 56.2627 234.169 55.9463 233.958C55.6357 233.747 55.2373 233.642 54.751 233.642ZM64.8672 240.506C65.1367 240.506 65.4033 240.482 65.667 240.436C65.9307 240.383 66.1709 240.321 66.3877 240.251V241.815C66.1592 241.915 65.8633 242 65.5 242.07C65.1367 242.141 64.7588 242.176 64.3662 242.176C63.8154 242.176 63.3203 242.085 62.8809 241.903C62.4414 241.716 62.0928 241.396 61.835 240.945C61.5771 240.494 61.4482 239.87 61.4482 239.073V233.844H60.1211V232.921L61.5449 232.191L62.2217 230.108H63.5225V232.271H66.3086V233.844H63.5225V239.047C63.5225 239.539 63.6455 239.905 63.8916 240.146C64.1377 240.386 64.4629 240.506 64.8672 240.506ZM76.3105 242.176C75.1504 242.176 74.2188 241.754 73.5156 240.91C72.8184 240.061 72.4697 238.81 72.4697 237.157C72.4697 235.487 72.8242 234.225 73.5332 233.369C74.248 232.514 75.1885 232.086 76.3545 232.086C76.8467 232.086 77.2773 232.153 77.6465 232.288C78.0156 232.417 78.332 232.593 78.5957 232.815C78.8652 233.038 79.0938 233.287 79.2812 233.562H79.3779C79.3486 233.381 79.3135 233.12 79.2725 232.78C79.2373 232.435 79.2197 232.115 79.2197 231.822V228.324H81.2939V242H79.6768L79.3076 240.673H79.2197C79.0439 240.954 78.8213 241.209 78.5518 241.438C78.2881 241.66 77.9717 241.839 77.6025 241.974C77.2393 242.108 76.8086 242.176 76.3105 242.176ZM76.8906 240.497C77.7754 240.497 78.3994 240.242 78.7627 239.732C79.126 239.223 79.3135 238.458 79.3252 237.438V237.166C79.3252 236.076 79.1494 235.241 78.7979 234.661C78.4463 234.075 77.8047 233.782 76.873 233.782C76.1289 233.782 75.5605 234.084 75.168 234.688C74.7812 235.285 74.5879 236.12 74.5879 237.192C74.5879 238.265 74.7812 239.085 75.168 239.653C75.5605 240.216 76.1348 240.497 76.8906 240.497ZM92.8691 237.113C92.8691 237.922 92.7637 238.64 92.5527 239.267C92.3418 239.894 92.0342 240.424 91.6299 240.857C91.2256 241.285 90.7393 241.613 90.1709 241.842C89.6025 242.064 88.9609 242.176 88.2461 242.176C87.5781 242.176 86.9658 242.064 86.4092 241.842C85.8525 241.613 85.3691 241.285 84.959 240.857C84.5547 240.424 84.2412 239.894 84.0186 239.267C83.7959 238.64 83.6846 237.922 83.6846 237.113C83.6846 236.041 83.8691 235.133 84.2383 234.389C84.6133 233.639 85.1465 233.067 85.8379 232.675C86.5293 232.282 87.3525 232.086 88.3076 232.086C89.2041 232.086 89.9951 232.282 90.6807 232.675C91.3662 233.067 91.9023 233.639 92.2891 234.389C92.6758 235.139 92.8691 236.047 92.8691 237.113ZM85.8115 237.113C85.8115 237.822 85.8965 238.429 86.0664 238.933C86.2422 239.437 86.5117 239.823 86.875 240.093C87.2383 240.356 87.707 240.488 88.2812 240.488C88.8555 240.488 89.3242 240.356 89.6875 240.093C90.0508 239.823 90.3174 239.437 90.4873 238.933C90.6572 238.429 90.7422 237.822 90.7422 237.113C90.7422 236.404 90.6572 235.804 90.4873 235.312C90.3174 234.813 90.0508 234.436 89.6875 234.178C89.3242 233.914 88.8525 233.782 88.2725 233.782C87.417 233.782 86.793 234.069 86.4004 234.644C86.0078 235.218 85.8115 236.041 85.8115 237.113ZM103.196 241.991L101.966 237.465C101.907 237.242 101.837 236.973 101.755 236.656C101.673 236.34 101.591 236.015 101.509 235.681C101.427 235.341 101.351 235.027 101.28 234.74C101.216 234.453 101.166 234.23 101.131 234.072H101.061C101.031 234.23 100.984 234.453 100.92 234.74C100.855 235.027 100.782 235.341 100.7 235.681C100.618 236.021 100.536 236.352 100.454 236.674C100.378 236.996 100.308 237.271 100.243 237.5L98.9512 241.991H96.6836L93.959 232.262H96.0508L97.3164 237.096C97.3984 237.424 97.4775 237.778 97.5537 238.159C97.6357 238.54 97.7061 238.903 97.7646 239.249C97.8232 239.595 97.8672 239.879 97.8965 240.102H97.9668C97.9902 239.943 98.0225 239.744 98.0635 239.504C98.1045 239.258 98.1514 239.003 98.2041 238.739C98.2568 238.47 98.3096 238.218 98.3623 237.983C98.415 237.743 98.4648 237.55 98.5117 237.403L100.006 232.262H102.265L103.697 237.403C103.762 237.626 103.832 237.907 103.908 238.247C103.984 238.581 104.052 238.918 104.11 239.258C104.175 239.592 104.216 239.87 104.233 240.093H104.304C104.327 239.894 104.368 239.624 104.427 239.284C104.491 238.938 104.564 238.572 104.646 238.186C104.729 237.793 104.813 237.43 104.901 237.096L106.193 232.262H108.25L105.508 241.991H103.196ZM114.991 232.086C116.087 232.086 116.939 232.37 117.549 232.938C118.164 233.501 118.472 234.406 118.472 235.654V242H116.406V236.041C116.406 235.285 116.251 234.72 115.94 234.345C115.63 233.964 115.149 233.773 114.499 233.773C113.556 233.773 112.899 234.063 112.53 234.644C112.167 235.224 111.985 236.064 111.985 237.166V242H109.92V232.271H111.528L111.818 233.589H111.933C112.144 233.249 112.404 232.971 112.715 232.754C113.031 232.531 113.383 232.364 113.77 232.253C114.162 232.142 114.569 232.086 114.991 232.086ZM129.854 232.086C131.084 232.086 132.013 232.358 132.64 232.903C133.272 233.448 133.589 234.298 133.589 235.452V242H132.121L131.726 240.62H131.655C131.38 240.972 131.096 241.262 130.803 241.49C130.51 241.719 130.17 241.889 129.783 242C129.402 242.117 128.937 242.176 128.386 242.176C127.806 242.176 127.287 242.07 126.83 241.859C126.373 241.643 126.013 241.314 125.749 240.875C125.485 240.436 125.354 239.879 125.354 239.205C125.354 238.203 125.726 237.45 126.47 236.946C127.22 236.442 128.351 236.164 129.862 236.111L131.55 236.05V235.54C131.55 234.866 131.392 234.386 131.075 234.099C130.765 233.812 130.325 233.668 129.757 233.668C129.271 233.668 128.799 233.738 128.342 233.879C127.885 234.02 127.439 234.192 127.006 234.397L126.338 232.938C126.812 232.687 127.352 232.481 127.955 232.323C128.564 232.165 129.197 232.086 129.854 232.086ZM131.541 237.351L130.284 237.395C129.253 237.43 128.529 237.605 128.113 237.922C127.697 238.238 127.489 238.672 127.489 239.223C127.489 239.703 127.633 240.055 127.92 240.277C128.207 240.494 128.585 240.603 129.054 240.603C129.769 240.603 130.36 240.4 130.829 239.996C131.304 239.586 131.541 238.985 131.541 238.194V237.351ZM141.552 232.086C142.647 232.086 143.5 232.37 144.109 232.938C144.725 233.501 145.032 234.406 145.032 235.654V242H142.967V236.041C142.967 235.285 142.812 234.72 142.501 234.345C142.19 233.964 141.71 233.773 141.06 233.773C140.116 233.773 139.46 234.063 139.091 234.644C138.728 235.224 138.546 236.064 138.546 237.166V242H136.48V232.271H138.089L138.379 233.589H138.493C138.704 233.249 138.965 232.971 139.275 232.754C139.592 232.531 139.943 232.364 140.33 232.253C140.723 232.142 141.13 232.086 141.552 232.086ZM151.193 242.176C150.033 242.176 149.102 241.754 148.398 240.91C147.701 240.061 147.353 238.81 147.353 237.157C147.353 235.487 147.707 234.225 148.416 233.369C149.131 232.514 150.071 232.086 151.237 232.086C151.729 232.086 152.16 232.153 152.529 232.288C152.898 232.417 153.215 232.593 153.479 232.815C153.748 233.038 153.977 233.287 154.164 233.562H154.261C154.231 233.381 154.196 233.12 154.155 232.78C154.12 232.435 154.103 232.115 154.103 231.822V228.324H156.177V242H154.56L154.19 240.673H154.103C153.927 240.954 153.704 241.209 153.435 241.438C153.171 241.66 152.854 241.839 152.485 241.974C152.122 242.108 151.691 242.176 151.193 242.176ZM151.773 240.497C152.658 240.497 153.282 240.242 153.646 239.732C154.009 239.223 154.196 238.458 154.208 237.438V237.166C154.208 236.076 154.032 235.241 153.681 234.661C153.329 234.075 152.688 233.782 151.756 233.782C151.012 233.782 150.443 234.084 150.051 234.688C149.664 235.285 149.471 236.12 149.471 237.192C149.471 238.265 149.664 239.085 150.051 239.653C150.443 240.216 151.018 240.497 151.773 240.497ZM9.31152 251.324V254.761C9.31152 255.118 9.2998 255.467 9.27637 255.807C9.25879 256.146 9.23828 256.41 9.21484 256.598H9.3291C9.53418 256.258 9.78613 255.979 10.085 255.763C10.3838 255.54 10.7178 255.373 11.0869 255.262C11.4619 255.15 11.8604 255.095 12.2822 255.095C13.0264 255.095 13.6592 255.221 14.1807 255.473C14.7021 255.719 15.1006 256.103 15.376 256.624C15.6572 257.146 15.7979 257.822 15.7979 258.654V265H13.7324V259.041C13.7324 258.285 13.5771 257.72 13.2666 257.345C12.9561 256.964 12.4756 256.773 11.8252 256.773C11.1982 256.773 10.7002 256.905 10.3311 257.169C9.96777 257.427 9.70703 257.811 9.54883 258.32C9.39062 258.824 9.31152 259.439 9.31152 260.166V265H7.24609V251.324H9.31152ZM27.3027 260.113C27.3027 260.922 27.1973 261.64 26.9863 262.267C26.7754 262.894 26.4678 263.424 26.0635 263.857C25.6592 264.285 25.1729 264.613 24.6045 264.842C24.0361 265.064 23.3945 265.176 22.6797 265.176C22.0117 265.176 21.3994 265.064 20.8428 264.842C20.2861 264.613 19.8027 264.285 19.3926 263.857C18.9883 263.424 18.6748 262.894 18.4521 262.267C18.2295 261.64 18.1182 260.922 18.1182 260.113C18.1182 259.041 18.3027 258.133 18.6719 257.389C19.0469 256.639 19.5801 256.067 20.2715 255.675C20.9629 255.282 21.7861 255.086 22.7412 255.086C23.6377 255.086 24.4287 255.282 25.1143 255.675C25.7998 256.067 26.3359 256.639 26.7227 257.389C27.1094 258.139 27.3027 259.047 27.3027 260.113ZM20.2451 260.113C20.2451 260.822 20.3301 261.429 20.5 261.933C20.6758 262.437 20.9453 262.823 21.3086 263.093C21.6719 263.356 22.1406 263.488 22.7148 263.488C23.2891 263.488 23.7578 263.356 24.1211 263.093C24.4844 262.823 24.751 262.437 24.9209 261.933C25.0908 261.429 25.1758 260.822 25.1758 260.113C25.1758 259.404 25.0908 258.804 24.9209 258.312C24.751 257.813 24.4844 257.436 24.1211 257.178C23.7578 256.914 23.2861 256.782 22.7061 256.782C21.8506 256.782 21.2266 257.069 20.834 257.644C20.4414 258.218 20.2451 259.041 20.2451 260.113ZM31.75 265H29.6758V251.324H31.75V265ZM37.9727 265.176C36.8125 265.176 35.8809 264.754 35.1777 263.91C34.4805 263.061 34.1318 261.81 34.1318 260.157C34.1318 258.487 34.4863 257.225 35.1953 256.369C35.9102 255.514 36.8506 255.086 38.0166 255.086C38.5088 255.086 38.9395 255.153 39.3086 255.288C39.6777 255.417 39.9941 255.593 40.2578 255.815C40.5273 256.038 40.7559 256.287 40.9434 256.562H41.04C41.0107 256.381 40.9756 256.12 40.9346 255.78C40.8994 255.435 40.8818 255.115 40.8818 254.822V251.324H42.9561V265H41.3389L40.9697 263.673H40.8818C40.7061 263.954 40.4834 264.209 40.2139 264.438C39.9502 264.66 39.6338 264.839 39.2646 264.974C38.9014 265.108 38.4707 265.176 37.9727 265.176ZM38.5527 263.497C39.4375 263.497 40.0615 263.242 40.4248 262.732C40.7881 262.223 40.9756 261.458 40.9873 260.438V260.166C40.9873 259.076 40.8115 258.241 40.46 257.661C40.1084 257.075 39.4668 256.782 38.5352 256.782C37.791 256.782 37.2227 257.084 36.8301 257.688C36.4434 258.285 36.25 259.12 36.25 260.192C36.25 261.265 36.4434 262.085 36.8301 262.653C37.2227 263.216 37.7969 263.497 38.5527 263.497ZM55.5859 255.086C56.7402 255.086 57.666 255.508 58.3633 256.352C59.0664 257.195 59.418 258.449 59.418 260.113C59.418 261.215 59.2539 262.144 58.9258 262.899C58.6035 263.649 58.1494 264.218 57.5635 264.604C56.9834 264.985 56.3066 265.176 55.5332 265.176C55.041 265.176 54.6133 265.111 54.25 264.982C53.8867 264.854 53.5762 264.687 53.3184 264.481C53.0605 264.271 52.8438 264.042 52.668 263.796H52.5449C52.5742 264.03 52.6006 264.291 52.624 264.578C52.6533 264.859 52.668 265.117 52.668 265.352V269.315H50.5938V255.271H52.2812L52.5713 256.615H52.668C52.8496 256.34 53.0693 256.085 53.3271 255.851C53.5908 255.616 53.9072 255.432 54.2764 255.297C54.6514 255.156 55.0879 255.086 55.5859 255.086ZM55.0322 256.773C54.4639 256.773 54.0068 256.888 53.6611 257.116C53.3213 257.339 53.0723 257.676 52.9141 258.127C52.7617 258.578 52.6797 259.144 52.668 259.823V260.113C52.668 260.834 52.7412 261.446 52.8877 261.95C53.04 262.448 53.2891 262.829 53.6348 263.093C53.9863 263.351 54.4609 263.479 55.0586 263.479C55.5625 263.479 55.9785 263.342 56.3066 263.066C56.6406 262.791 56.8896 262.398 57.0537 261.889C57.2178 261.379 57.2998 260.778 57.2998 260.087C57.2998 259.038 57.1123 258.224 56.7373 257.644C56.3682 257.063 55.7998 256.773 55.0322 256.773ZM63.874 251.324V254.761C63.874 255.118 63.8623 255.467 63.8389 255.807C63.8213 256.146 63.8008 256.41 63.7773 256.598H63.8916C64.0967 256.258 64.3486 255.979 64.6475 255.763C64.9463 255.54 65.2803 255.373 65.6494 255.262C66.0244 255.15 66.4229 255.095 66.8447 255.095C67.5889 255.095 68.2217 255.221 68.7432 255.473C69.2646 255.719 69.6631 256.103 69.9385 256.624C70.2197 257.146 70.3604 257.822 70.3604 258.654V265H68.2949V259.041C68.2949 258.285 68.1396 257.72 67.8291 257.345C67.5186 256.964 67.0381 256.773 66.3877 256.773C65.7607 256.773 65.2627 256.905 64.8936 257.169C64.5303 257.427 64.2695 257.811 64.1113 258.32C63.9531 258.824 63.874 259.439 63.874 260.166V265H61.8086V251.324H63.874ZM81.8652 260.113C81.8652 260.922 81.7598 261.64 81.5488 262.267C81.3379 262.894 81.0303 263.424 80.626 263.857C80.2217 264.285 79.7354 264.613 79.167 264.842C78.5986 265.064 77.957 265.176 77.2422 265.176C76.5742 265.176 75.9619 265.064 75.4053 264.842C74.8486 264.613 74.3652 264.285 73.9551 263.857C73.5508 263.424 73.2373 262.894 73.0146 262.267C72.792 261.64 72.6807 260.922 72.6807 260.113C72.6807 259.041 72.8652 258.133 73.2344 257.389C73.6094 256.639 74.1426 256.067 74.834 255.675C75.5254 255.282 76.3486 255.086 77.3037 255.086C78.2002 255.086 78.9912 255.282 79.6768 255.675C80.3623 256.067 80.8984 256.639 81.2852 257.389C81.6719 258.139 81.8652 259.047 81.8652 260.113ZM74.8076 260.113C74.8076 260.822 74.8926 261.429 75.0625 261.933C75.2383 262.437 75.5078 262.823 75.8711 263.093C76.2344 263.356 76.7031 263.488 77.2773 263.488C77.8516 263.488 78.3203 263.356 78.6836 263.093C79.0469 262.823 79.3135 262.437 79.4834 261.933C79.6533 261.429 79.7383 260.822 79.7383 260.113C79.7383 259.404 79.6533 258.804 79.4834 258.312C79.3135 257.813 79.0469 257.436 78.6836 257.178C78.3203 256.914 77.8486 256.782 77.2686 256.782C76.4131 256.782 75.7891 257.069 75.3965 257.644C75.0039 258.218 74.8076 259.041 74.8076 260.113ZM89.3096 255.086C90.4053 255.086 91.2578 255.37 91.8672 255.938C92.4824 256.501 92.79 257.406 92.79 258.654V265H90.7246V259.041C90.7246 258.285 90.5693 257.72 90.2588 257.345C89.9482 256.964 89.4678 256.773 88.8174 256.773C87.874 256.773 87.2178 257.063 86.8486 257.644C86.4854 258.224 86.3037 259.064 86.3037 260.166V265H84.2383V255.271H85.8467L86.1367 256.589H86.251C86.4619 256.249 86.7227 255.971 87.0332 255.754C87.3496 255.531 87.7012 255.364 88.0879 255.253C88.4805 255.142 88.8877 255.086 89.3096 255.086ZM99.5576 255.086C100.425 255.086 101.169 255.265 101.79 255.622C102.411 255.979 102.889 256.486 103.223 257.143C103.557 257.799 103.724 258.584 103.724 259.498V260.605H97.2285C97.252 261.549 97.5039 262.275 97.9844 262.785C98.4707 263.295 99.1504 263.55 100.023 263.55C100.645 263.55 101.201 263.491 101.693 263.374C102.191 263.251 102.704 263.072 103.231 262.838V264.517C102.745 264.745 102.25 264.912 101.746 265.018C101.242 265.123 100.639 265.176 99.9355 265.176C98.9805 265.176 98.1396 264.991 97.4131 264.622C96.6924 264.247 96.127 263.69 95.7168 262.952C95.3125 262.214 95.1104 261.297 95.1104 260.201C95.1104 259.111 95.2949 258.186 95.6641 257.424C96.0332 256.662 96.5518 256.082 97.2197 255.684C97.8877 255.285 98.667 255.086 99.5576 255.086ZM99.5576 256.642C98.9072 256.642 98.3799 256.853 97.9756 257.274C97.5771 257.696 97.3428 258.314 97.2725 259.129H101.702C101.696 258.643 101.614 258.212 101.456 257.837C101.304 257.462 101.069 257.169 100.753 256.958C100.442 256.747 100.044 256.642 99.5576 256.642ZM112.952 265L109.252 255.271H111.44L113.444 260.983C113.573 261.347 113.69 261.739 113.796 262.161C113.901 262.583 113.975 262.938 114.016 263.225H114.086C114.127 262.926 114.206 262.568 114.323 262.152C114.44 261.73 114.561 261.341 114.684 260.983L116.688 255.271H118.867L115.167 265H112.952ZM124.22 255.086C125.087 255.086 125.831 255.265 126.452 255.622C127.073 255.979 127.551 256.486 127.885 257.143C128.219 257.799 128.386 258.584 128.386 259.498V260.605H121.891C121.914 261.549 122.166 262.275 122.646 262.785C123.133 263.295 123.812 263.55 124.686 263.55C125.307 263.55 125.863 263.491 126.355 263.374C126.854 263.251 127.366 263.072 127.894 262.838V264.517C127.407 264.745 126.912 264.912 126.408 265.018C125.904 265.123 125.301 265.176 124.598 265.176C123.643 265.176 122.802 264.991 122.075 264.622C121.354 264.247 120.789 263.69 120.379 262.952C119.975 262.214 119.772 261.297 119.772 260.201C119.772 259.111 119.957 258.186 120.326 257.424C120.695 256.662 121.214 256.082 121.882 255.684C122.55 255.285 123.329 255.086 124.22 255.086ZM124.22 256.642C123.569 256.642 123.042 256.853 122.638 257.274C122.239 257.696 122.005 258.314 121.935 259.129H126.364C126.358 258.643 126.276 258.212 126.118 257.837C125.966 257.462 125.731 257.169 125.415 256.958C125.104 256.747 124.706 256.642 124.22 256.642ZM135.646 255.086C135.81 255.086 135.988 255.095 136.182 255.112C136.375 255.13 136.542 255.153 136.683 255.183L136.489 257.116C136.366 257.081 136.214 257.055 136.032 257.037C135.856 257.02 135.698 257.011 135.558 257.011C135.188 257.011 134.837 257.072 134.503 257.195C134.169 257.312 133.873 257.494 133.615 257.74C133.357 257.98 133.155 258.282 133.009 258.646C132.862 259.009 132.789 259.431 132.789 259.911V265H130.715V255.271H132.332L132.613 256.984H132.71C132.903 256.639 133.144 256.322 133.431 256.035C133.718 255.748 134.046 255.52 134.415 255.35C134.79 255.174 135.2 255.086 135.646 255.086ZM142.105 263.506C142.375 263.506 142.642 263.482 142.905 263.436C143.169 263.383 143.409 263.321 143.626 263.251V264.815C143.397 264.915 143.102 265 142.738 265.07C142.375 265.141 141.997 265.176 141.604 265.176C141.054 265.176 140.559 265.085 140.119 264.903C139.68 264.716 139.331 264.396 139.073 263.945C138.815 263.494 138.687 262.87 138.687 262.073V256.844H137.359V255.921L138.783 255.191L139.46 253.108H140.761V255.271H143.547V256.844H140.761V262.047C140.761 262.539 140.884 262.905 141.13 263.146C141.376 263.386 141.701 263.506 142.105 263.506ZM147.669 255.271V265H145.604V255.271H147.669ZM146.649 251.544C146.966 251.544 147.238 251.629 147.467 251.799C147.701 251.969 147.818 252.262 147.818 252.678C147.818 253.088 147.701 253.381 147.467 253.557C147.238 253.727 146.966 253.812 146.649 253.812C146.321 253.812 146.043 253.727 145.814 253.557C145.592 253.381 145.48 253.088 145.48 252.678C145.48 252.262 145.592 251.969 145.814 251.799C146.043 251.629 146.321 251.544 146.649 251.544ZM154.551 265.176C153.631 265.176 152.834 264.997 152.16 264.64C151.486 264.282 150.968 263.734 150.604 262.996C150.241 262.258 150.06 261.32 150.06 260.184C150.06 259 150.259 258.033 150.657 257.283C151.056 256.533 151.606 255.979 152.31 255.622C153.019 255.265 153.83 255.086 154.744 255.086C155.324 255.086 155.849 255.145 156.317 255.262C156.792 255.373 157.193 255.511 157.521 255.675L156.906 257.327C156.549 257.181 156.183 257.058 155.808 256.958C155.433 256.858 155.072 256.809 154.727 256.809C154.158 256.809 153.684 256.935 153.303 257.187C152.928 257.438 152.646 257.813 152.459 258.312C152.277 258.81 152.187 259.428 152.187 260.166C152.187 260.881 152.28 261.484 152.468 261.977C152.655 262.463 152.934 262.832 153.303 263.084C153.672 263.33 154.126 263.453 154.665 263.453C155.198 263.453 155.676 263.389 156.098 263.26C156.52 263.131 156.918 262.964 157.293 262.759V264.552C156.924 264.763 156.528 264.918 156.106 265.018C155.685 265.123 155.166 265.176 154.551 265.176ZM163.393 255.086C164.623 255.086 165.552 255.358 166.179 255.903C166.812 256.448 167.128 257.298 167.128 258.452V265H165.66L165.265 263.62H165.194C164.919 263.972 164.635 264.262 164.342 264.49C164.049 264.719 163.709 264.889 163.322 265C162.941 265.117 162.476 265.176 161.925 265.176C161.345 265.176 160.826 265.07 160.369 264.859C159.912 264.643 159.552 264.314 159.288 263.875C159.024 263.436 158.893 262.879 158.893 262.205C158.893 261.203 159.265 260.45 160.009 259.946C160.759 259.442 161.89 259.164 163.401 259.111L165.089 259.05V258.54C165.089 257.866 164.931 257.386 164.614 257.099C164.304 256.812 163.864 256.668 163.296 256.668C162.81 256.668 162.338 256.738 161.881 256.879C161.424 257.02 160.979 257.192 160.545 257.397L159.877 255.938C160.352 255.687 160.891 255.481 161.494 255.323C162.104 255.165 162.736 255.086 163.393 255.086ZM165.08 260.351L163.823 260.395C162.792 260.43 162.068 260.605 161.652 260.922C161.236 261.238 161.028 261.672 161.028 262.223C161.028 262.703 161.172 263.055 161.459 263.277C161.746 263.494 162.124 263.603 162.593 263.603C163.308 263.603 163.899 263.4 164.368 262.996C164.843 262.586 165.08 261.985 165.08 261.194V260.351ZM172.094 265H170.02V251.324H172.094V265ZM177.121 265H175.047V251.324H177.121V265ZM178.606 255.271H180.856L182.852 260.825C182.939 261.077 183.019 261.326 183.089 261.572C183.165 261.812 183.229 262.05 183.282 262.284C183.341 262.519 183.388 262.753 183.423 262.987H183.476C183.534 262.683 183.616 262.343 183.722 261.968C183.833 261.587 183.956 261.206 184.091 260.825L186.007 255.271H188.23L184.056 266.336C183.815 266.969 183.52 267.508 183.168 267.953C182.822 268.404 182.412 268.744 181.938 268.973C181.463 269.207 180.921 269.324 180.312 269.324C180.019 269.324 179.764 269.307 179.547 269.271C179.33 269.242 179.146 269.21 178.993 269.175V267.522C179.116 267.552 179.271 267.578 179.459 267.602C179.646 267.625 179.84 267.637 180.039 267.637C180.408 267.637 180.728 267.563 180.997 267.417C181.267 267.271 181.495 267.062 181.683 266.793C181.87 266.529 182.025 266.228 182.148 265.888L182.491 264.974L178.606 255.271Z" fill="black"/>
</svg>
