<svg width="214" height="251" viewBox="0 0 214 251" fill="none" xmlns="http://www.w3.org/2000/svg">
<path d="M176.427 157.92C164.69 165.745 62.2545 163.967 43.9246 160.766C25.5937 157.564 24.1978 147.961 29.1763 143.69C31.7095 141.517 33.1637 139.384 33.453 137.452C33.7328 135.587 33.4724 131.707 31.7399 130.071C18.1508 117.24 24.2676 103.053 26.6989 100.88C33.3328 94.9521 36.0785 91.8729 31.6669 76.9146C25.7659 56.908 45.5521 47.3325 62.59 46.5508C74.4665 46.0058 95.6555 51.2096 109.876 59.3975C124.096 67.5844 150.249 62.4756 160.351 62.5984C170.453 62.7213 187.608 74.4041 180.811 86.2245C174.326 97.4999 174.444 102.477 185.53 112.316C193.989 119.823 173.41 130.541 180.811 136.427C181.244 136.773 181.654 137.114 182.041 137.452C190.374 144.746 187.645 150.441 176.427 157.92Z" fill="#F8FEFA"/>
<path d="M161.615 137.453H182.04C182.04 137.453 192.721 132.453 191.52 128.581C190.32 124.709 185.613 131.981 184.146 132.991C182.679 134.002 183.251 130 187.919 123.953C192.588 117.907 191.387 109.566 187.519 105C183.651 100.434 177.249 100.701 178.85 104.302C180.45 107.904 186.185 114.793 184.051 119.951C181.917 125.109 176.636 133.579 176.636 133.579C176.636 133.579 174.422 129.408 176.636 123.324C178.85 117.24 179.25 101.422 172.981 92.2585C166.712 83.0947 162.488 89.9517 163.466 92.2585C164.444 94.5654 170.58 99.367 171.38 104.302C172.18 109.237 169.246 127.515 170.58 131.714C166.445 122.842 167.779 106.95 164.711 102.025C161.644 97.1001 159.974 95.7613 156.868 95.8275C153.762 95.8936 154.335 100.19 157.722 102.98C161.11 105.769 162.177 127.03 164.577 130.671C164.577 130.671 161.952 123.026 158.335 118.002C154.717 112.978 139.723 117.092 146.038 123.398C152.353 129.704 161.454 127.122 161.615 137.453Z" fill="#A2EEC5"/>
<path d="M176.427 157.919C164.69 165.744 62.2545 163.966 43.9246 160.765C25.5937 157.563 24.1977 147.96 29.1763 143.69C31.7094 141.517 33.1637 139.384 33.453 137.451H182.04C190.374 144.746 187.645 150.441 176.427 157.919Z" fill="#E8F4EE"/>
<path d="M173.089 148.049C173.319 145.383 157.309 141.828 137.331 140.109C117.353 138.391 100.972 139.159 100.742 141.826C100.513 144.493 116.522 148.047 136.501 149.766C156.479 151.484 172.86 150.716 173.089 148.049Z" fill="#CEE4D8"/>
<path d="M95.4428 66.5176H55.7428V137.544H95.4428V66.5176Z" fill="#EFC9B6"/>
<path d="M92.591 69.3613H58.1426V137.717H92.591V69.3613Z" fill="#FDDEC1"/>
<path d="M71.6058 89.6227C73.0138 84.601 71.486 87.4972 69.5466 89.7224L69.3121 92.4041C71.3712 92.3043 75.6231 91.8556 76.1576 90.8584C76.6921 89.8613 73.3458 89.6191 71.6058 89.6227Z" fill="#FEBE76"/>
<path d="M169.185 145.579L166.802 145.766L162.181 127.675L164.463 127.092L169.185 145.579Z" fill="#EFC9B6"/>
<path d="M162.227 127.853L162.965 130.743C162.965 130.743 163.942 130.951 165.161 129.824L164.463 127.092L162.227 127.853Z" fill="#CAA492"/>
<path d="M146.065 145.579L148.448 145.766L153.069 127.675L150.787 127.092L146.065 145.579Z" fill="#EFC9B6"/>
<path d="M148.402 136.429C148.402 136.429 150.643 135.478 151.071 135.496L151.664 133.176L149.335 132.779L148.402 136.429Z" fill="#CAA492"/>
<path d="M125.668 142.122L123.285 142.274L118.664 127.566L120.946 127.092L125.668 142.122Z" fill="#EFC9B6"/>
<path d="M118.709 127.711L119.447 130.06C119.447 130.06 120.425 130.23 121.643 129.313L120.946 127.092L118.709 127.711Z" fill="white"/>
<path d="M102.548 142.122L104.932 142.274L109.553 127.566L107.27 127.092L102.548 142.122Z" fill="#EFC9B6"/>
<path d="M104.885 134.683C104.885 134.683 107.126 133.909 107.554 133.924L108.147 132.038L105.818 131.715L104.885 134.683Z" fill="#CAA492"/>
<path d="M150.284 133.58C151.716 133.735 153.423 134.431 154.241 132.571C155.059 130.712 157.236 129.289 163.646 129.556C170.055 129.822 171.87 123.206 172.347 121.045C172.825 118.885 175.691 109.79 174.067 109.167C172.443 108.545 145.412 109.167 145.412 109.167H123.008L119.043 126.183C119.043 126.183 103.78 125.67 101.379 128.124C98.9787 130.578 102.05 132.592 102.05 132.592L150.284 133.58Z" fill="#FAF5F3"/>
<path d="M55.1504 145.081C62.3292 144.994 68.1366 143.938 68.1218 142.723C68.107 141.508 62.2755 140.594 55.0967 140.681C47.918 140.769 42.1105 141.825 42.1254 143.04C42.1402 144.255 47.9717 145.169 55.1504 145.081Z" fill="#CEE4D8"/>
<path d="M49.308 139.719C49.308 139.719 49.4718 140.654 51.0851 141.393C52.6985 142.134 54.883 142.342 55.082 143.781C55.2809 145.221 50.8636 144.088 49.0198 143.963C47.176 143.837 45.171 143.491 45.171 143.491L45.2818 138.352C45.2813 138.352 48.4806 138.611 49.308 139.719Z" fill="#424D55"/>
<path d="M55.0814 143.78L45.1888 142.637L45.1704 143.49C45.1704 143.49 55.5481 145.654 55.0814 143.78Z" fill="#67809F"/>
<path d="M60.3797 138.992C60.3797 138.992 60.5435 139.927 62.1568 140.667C63.7701 141.407 65.9546 141.615 66.1536 143.055C66.3526 144.494 61.9352 143.362 60.0914 143.236C58.2476 143.111 56.2427 142.765 56.2427 142.765L56.3534 137.625C56.3529 137.624 59.5523 137.884 60.3797 138.992Z" fill="#424D55"/>
<path d="M66.1536 143.054L56.261 141.91L56.2427 142.764C56.2427 142.764 66.6203 144.927 66.1536 143.054Z" fill="#67809F"/>
<path d="M48.9478 103.294C48.9478 103.294 48.8359 109.443 51.5906 116.947C54.1269 123.856 54.0796 124.056 54.3253 125.743C54.571 127.431 55.1758 140.507 55.7428 141.429C55.7428 141.429 57.6764 140.083 61.9845 140.083C61.9845 140.083 61.1955 133.038 60.7356 123.564C60.2757 114.089 59.4934 102.186 59.4934 102.186L48.9478 103.294Z" fill="#4893D8"/>
<path d="M44.3294 102.699C44.3294 102.699 43.1382 108.732 44.53 116.604C45.8115 123.851 45.7301 124.04 45.675 125.744C45.6199 127.448 44.9998 142.273 45.1888 142.639C45.5485 143.336 47.827 140.519 50.7397 140.867C51.3177 140.937 51.1555 134.132 52.3687 124.725C53.582 115.318 55.3707 103.496 55.3707 103.496L44.3294 102.699Z" fill="#68A7E2"/>
<path d="M56.093 90.8861C56.093 90.8861 59.2304 97.0396 61.4213 97.7446C63.6121 98.4492 71.3737 91.2515 71.3737 91.2515L69.8123 89.5846C69.8123 89.5846 63.6913 92.9367 62.4502 92.6107C61.2091 92.2847 58.3432 84.7168 58.3432 84.7168L56.093 90.8861Z" fill="#FEBE76"/>
<path d="M56.0196 93.9635C55.4673 91.0151 49.3227 80.5057 54.8084 80.638C57.3268 80.6989 62.4949 90.7736 62.4949 90.7736L56.0196 93.9635Z" fill="#4893D8"/>
<path d="M61.9846 92.1836C61.9846 92.1836 59.3922 93.2672 59.0409 94.954L58.3438 92.4965L61.5011 91.2617L61.9846 92.1836Z" fill="#F0932B"/>
<path d="M43.8033 110.464C43.8033 110.464 48.1682 113.06 54.223 112.712C60.2778 112.364 56.5283 107.04 56.5283 107.04L43.8926 106.738L43.8033 110.464Z" fill="#4893D8"/>
<path d="M60.1639 109.166C60.1639 109.166 47.7581 111.068 41.833 109.166C41.833 109.166 41.1153 103.881 41.0864 98.4003C41.0712 95.696 41.1636 92.7749 41.4718 90.0816C42.0472 85.0427 40.7761 80.3665 49.3888 79.6504C60.0505 81.554 56.7619 81.8648 58.1426 89.7845C58.7259 93.1287 59.4 97.848 59.4388 103.528C59.443 104.158 60.0447 104.731 60.0473 105.274C60.0536 107.376 60.1639 109.166 60.1639 109.166Z" fill="#68A7E2"/>
<path d="M60.051 105.783C57.0028 105.981 52.3571 106.079 47.7282 105.062C44.0012 104.243 42.0781 101.224 41.0864 98.401C41.0712 95.6967 41.1636 92.7756 41.4718 90.0824C42.8215 89.0287 44.6795 88.7798 45.0937 90.6982C45.7878 93.9159 46.0849 98.4714 48.355 100.533C49.0412 101.157 56.3791 104.07 56.649 103.322C56.9199 102.575 59.1133 99.7235 59.3002 100.983C59.5281 102.519 60.0484 105.239 60.051 105.783Z" fill="#4893D8"/>
<path d="M48.8491 98.9867C48.8491 98.9867 47.9403 94.215 47.9965 88.1418C48.0527 82.0687 45.2749 81.5547 45.2749 81.5547C45.2749 81.5547 47.5933 90.6235 46.9481 95.0414C46.3029 99.4598 47.9855 99.1311 48.8491 98.9867Z" fill="#4893D8"/>
<path d="M40.9489 89.014C40.9489 89.014 39.6931 99.4463 46.8693 102.121C53.3856 104.55 62.1568 104.76 62.1568 104.76C62.1568 104.76 62.4178 103.165 59.4326 102.764C56.5215 102.372 58.3369 100.844 58.8982 99.7009C59.4594 98.558 56.3188 100.944 55.9461 101.647C55.5733 102.349 48.7168 98.4383 48.1236 97.7243C46.1653 95.365 46.5087 90.8127 46.2708 87.5288C46.033 84.2449 40.9148 86.4342 40.9489 89.014Z" fill="#FEBE76"/>
<path d="M42.0823 97.3914C42.0823 97.3914 43.1255 95.7372 47.031 95.5634L46.2251 91.8086L41.057 93.6067C41.0565 93.6067 41.5337 96.3031 42.0823 97.3914Z" fill="#F0932B"/>
<path d="M40.2433 95.4012C39.691 92.4528 40.5866 81.7811 45.2744 80.6371C47.7219 80.0397 47.399 94.5213 47.399 94.5213L40.2433 95.4012Z" fill="#68A7E2"/>
<path d="M47.9403 72.7598C47.9403 72.7598 48.9263 77.1456 47.7587 80.3749C47.7587 80.3749 48.9147 82.5284 52.5183 81.2947L52.6795 74.5579L47.9403 72.7598Z" fill="#FEBE76"/>
<path d="M47.0016 69.566C47.0016 69.566 47.2709 76.6472 49.3368 77.4095C51.4027 78.1718 54.2513 78.2946 54.5805 75.9993C54.9097 73.704 54.9685 68.9339 54.1594 68.3664C53.3509 67.7983 47.3833 67.3815 47.0016 69.566Z" fill="#FEBE76"/>
<path d="M47.9269 75.1279C47.9269 75.1279 45.2535 71.7787 46.4904 68.5953C47.7273 65.4118 54.1537 65.6332 55.0695 67.1316C55.9852 68.63 52.3126 68.3692 51.8058 69.3393C51.2989 70.3094 50.9548 71.5801 50.9548 71.5801L49.941 71.5573C49.941 71.5573 49.6991 69.7982 48.7556 69.7168C47.3596 69.5961 48.6848 72.5046 48.6848 72.5046C48.6848 72.5046 48.856 74.3206 47.9269 75.1279Z" fill="#584B46"/>
<path d="M52.6002 77.8516C52.6002 77.8516 50.1343 77.44 49.3888 76.3848C49.3888 76.3848 49.508 78.2186 52.5755 78.8848L52.6002 77.8516Z" fill="#F0932B"/>
<path d="M88.1731 102.348C89.442 102.348 90.4706 101.172 90.4706 99.7218C90.4706 98.2714 89.442 97.0957 88.1731 97.0957C86.9043 97.0957 85.8757 98.2714 85.8757 99.7218C85.8757 101.172 86.9043 102.348 88.1731 102.348Z" fill="#E0BBA3"/>
<path d="M88.2803 100.051C88.8199 100.051 89.2573 99.5506 89.2573 98.9336C89.2573 98.3166 88.8199 97.8164 88.2803 97.8164C87.7407 97.8164 87.3032 98.3166 87.3032 98.9336C87.3032 99.5506 87.7407 100.051 88.2803 100.051Z" fill="#FEE8D3"/>
<path d="M120.503 72.6133H101.83V97.0442H120.503V72.6133Z" fill="#E0BBA3"/>
<path d="M119.448 73.1465H102.621V96.2879H119.448V73.1465Z" fill="white"/>
<path d="M112.055 82.9923H106.483C105.614 82.9923 104.906 82.2852 104.906 81.4158V77.7402H105.214V81.4158C105.214 82.1156 105.783 82.6847 106.483 82.6847H112.055V82.9923Z" fill="#FDDEC1"/>
<path d="M112.228 83.3791C112.525 83.3791 112.767 83.1377 112.767 82.84C112.767 82.5422 112.525 82.3008 112.228 82.3008C111.93 82.3008 111.688 82.5422 111.688 82.84C111.688 83.1377 111.93 83.3791 112.228 83.3791Z" fill="#FDDEC1"/>
<path d="M118.137 95.3677H117.829V93.5155C117.829 93.2493 117.308 92.9522 116.561 92.9522H110.988V92.6445H116.561C117.445 92.6445 118.137 93.0273 118.137 93.5155V95.3677Z" fill="#FDDEC1"/>
<path d="M110.906 93.3277C111.2 93.28 111.399 93.003 111.352 92.7091C111.304 92.4151 111.027 92.2155 110.733 92.2632C110.439 92.3109 110.24 92.5879 110.287 92.8818C110.335 93.1758 110.612 93.3754 110.906 93.3277Z" fill="#FDDEC1"/>
<path d="M117.091 94.6016H112.228V94.9092H117.091V94.6016Z" fill="#95AFC0"/>
<path d="M117.091 95.6738H112.228V95.9815H117.091V95.6738Z" fill="#95AFC0"/>
<path d="M107.902 74.0977H103.039V74.4053H107.902V74.0977Z" fill="#95AFC0"/>
<path d="M114.312 74.0977H109.449V74.4053H114.312V74.0977Z" fill="#95AFC0"/>
<path d="M114.312 77.7246H109.449V78.0323H114.312V77.7246Z" fill="#95AFC0"/>
<path d="M107.902 84.0137H103.039V84.3213H107.902V84.0137Z" fill="#95AFC0"/>
<path d="M107.902 88.8574H103.039V89.1651H107.902V88.8574Z" fill="#95AFC0"/>
<path d="M114.12 84.0137H109.257V84.3213H114.12V84.0137Z" fill="#95AFC0"/>
<path d="M107.902 75.1699H103.039V75.4776H107.902V75.1699Z" fill="#95AFC0"/>
<path d="M114.312 75.1699H109.449V75.4776H114.312V75.1699Z" fill="#95AFC0"/>
<path d="M114.312 78.7969H109.449V79.1045H114.312V78.7969Z" fill="#95AFC0"/>
<path d="M107.902 85.0859H103.039V85.3936H107.902V85.0859Z" fill="#95AFC0"/>
<path d="M107.902 89.9297H103.039V90.2373H107.902V89.9297Z" fill="#95AFC0"/>
<path d="M114.12 85.0859H109.257V85.3936H114.12V85.0859Z" fill="#95AFC0"/>
<path d="M107.902 75.9785H103.039V76.2862H107.902V75.9785Z" fill="#95AFC0"/>
<path d="M114.312 75.9785H109.449V76.2862H114.312V75.9785Z" fill="#95AFC0"/>
<path d="M114.312 79.6055H109.449V79.9131H114.312V79.6055Z" fill="#95AFC0"/>
<path d="M107.902 85.8945H103.039V86.2022H107.902V85.8945Z" fill="#95AFC0"/>
<path d="M107.902 90.7383H103.039V91.0459H107.902V90.7383Z" fill="#95AFC0"/>
<path d="M114.12 85.8945H109.257V86.2022H114.12V85.8945Z" fill="#95AFC0"/>
<path d="M107.902 76.916H103.039V77.2237H107.902V76.916Z" fill="#95AFC0"/>
<path d="M114.312 76.916H109.449V77.2237H114.312V76.916Z" fill="#95AFC0"/>
<path d="M114.312 80.543H109.449V80.8506H114.312V80.543Z" fill="#95AFC0"/>
<path d="M107.902 86.832H103.039V87.1397H107.902V86.832Z" fill="#95AFC0"/>
<path d="M107.902 91.6758H103.039V91.9834H107.902V91.6758Z" fill="#95AFC0"/>
<path d="M114.12 86.832H109.257V87.1397H114.12V86.832Z" fill="#95AFC0"/>
<path d="M33.4529 137.452C33.4529 137.452 28.2591 130.07 23.2049 128.923C18.1508 127.776 16.612 110.772 20.8183 107.102C20.8183 107.102 19.6565 118.339 26.2394 123.191C32.8224 128.042 31.7399 130.07 31.7399 130.07C31.7399 130.07 32.5557 122.976 28.5542 117.24C24.5526 111.504 20.0177 100.488 24.2859 92.2577C28.5542 84.0272 28.0439 76.3024 26.6983 73.0957C26.6983 73.0957 32.8224 80.5958 31.7551 87.2465C30.6883 93.8972 27.2201 104.2 29.0876 108.519C30.955 112.837 34.956 120.396 34.956 123.952C34.956 123.952 37.8902 111.468 34.956 105.884C32.0218 100.3 37.2581 85.7739 40.7756 80.3659C40.7756 80.3659 39.5067 108.614 40.8785 116.639C43.4552 131.714 37.1925 137.452 37.1925 137.452H33.4529Z" fill="#A2EEC5"/>
<path d="M29.9119 115.042C29.9119 115.042 22.4191 105.325 25.4425 96.9442C28.466 88.5637 28.6435 78.6895 28.6435 78.6895C28.6435 78.6895 30.4447 88.9637 26.6989 98.2783C26.6989 98.2777 25.3118 104.173 29.9119 115.042Z" fill="#E8F9F0"/>
<path d="M39.7518 89.4141C39.7518 89.4141 35.5791 94.8772 37.8907 107.103C40.2028 119.33 37.193 127.091 37.193 127.091C37.193 127.091 41.8991 115.35 38.4724 102.757C38.4724 102.757 38.0561 92.5761 39.7518 89.4141Z" fill="#E8F9F0"/>
<path d="M19.5735 113.689C19.5735 113.689 17.2467 122.581 24.7233 127.091C32.1998 131.6 26.85 125.705 24.7233 124.651C22.5965 123.597 20.6403 120.143 19.5735 113.689Z" fill="#E8F9F0"/>
<path d="M181.407 103.53C180.743 104.406 189.196 112.411 187.169 118.894C185.141 125.377 189.765 118.111 189.231 114.008C188.698 109.904 183.164 101.209 181.407 103.53Z" fill="#E8F9F0"/>
<path d="M166.903 89.4131C165.193 88.3752 171.626 96.4907 173.226 100.441C174.827 104.391 174.56 116.335 174.56 116.335C174.56 116.335 180.32 97.5543 166.903 89.4131Z" fill="#E8F9F0"/>
<path d="M28.4648 207V196.292H36.4409V207H35.2104V197.391H29.71V207H28.4648ZM46.1309 202.972C46.1309 203.631 46.0454 204.219 45.8745 204.737C45.7036 205.254 45.457 205.691 45.1348 206.048C44.8125 206.404 44.4219 206.678 43.9629 206.868C43.5088 207.054 42.9937 207.146 42.4175 207.146C41.8804 207.146 41.3872 207.054 40.938 206.868C40.4937 206.678 40.1079 206.404 39.7808 206.048C39.4585 205.691 39.207 205.254 39.0264 204.737C38.8506 204.219 38.7627 203.631 38.7627 202.972C38.7627 202.093 38.9116 201.346 39.2095 200.73C39.5073 200.11 39.9321 199.639 40.4839 199.317C41.0405 198.99 41.7021 198.826 42.4688 198.826C43.2012 198.826 43.8408 198.99 44.3877 199.317C44.9395 199.644 45.3667 200.118 45.6694 200.738C45.9771 201.353 46.1309 202.098 46.1309 202.972ZM40.0225 202.972C40.0225 203.616 40.1079 204.175 40.2788 204.649C40.4497 205.123 40.7134 205.489 41.0698 205.748C41.4263 206.006 41.8853 206.136 42.4468 206.136C43.0034 206.136 43.46 206.006 43.8164 205.748C44.1777 205.489 44.4438 205.123 44.6147 204.649C44.7856 204.175 44.8711 203.616 44.8711 202.972C44.8711 202.332 44.7856 201.78 44.6147 201.316C44.4438 200.848 44.1802 200.486 43.8237 200.232C43.4673 199.979 43.0059 199.852 42.4395 199.852C41.6045 199.852 40.9917 200.127 40.6011 200.679C40.2153 201.231 40.0225 201.995 40.0225 202.972ZM52.9131 198.973H54.2534L50.7891 202.847L54.5317 207H53.1035L49.4561 202.928V207H48.2329V198.973H49.4561V202.869L52.9131 198.973ZM58.9849 198.841C59.9419 198.841 60.6523 199.056 61.1162 199.485C61.5801 199.915 61.812 200.601 61.812 201.543V207H60.9258L60.6914 205.813H60.6328C60.4082 206.106 60.1738 206.353 59.9297 206.553C59.6855 206.749 59.4023 206.897 59.0801 207C58.7627 207.098 58.3721 207.146 57.9082 207.146C57.4199 207.146 56.9854 207.061 56.6045 206.89C56.2285 206.719 55.9307 206.46 55.7109 206.114C55.4961 205.767 55.3887 205.328 55.3887 204.795C55.3887 203.995 55.7061 203.379 56.3408 202.95C56.9756 202.52 57.9424 202.286 59.2412 202.247L60.6255 202.188V201.697C60.6255 201.004 60.4766 200.518 60.1787 200.24C59.8809 199.961 59.4609 199.822 58.9189 199.822C58.499 199.822 58.0986 199.883 57.7178 200.005C57.3369 200.127 56.9756 200.271 56.6338 200.438L56.2603 199.515C56.6216 199.329 57.0366 199.17 57.5054 199.039C57.9741 198.907 58.4673 198.841 58.9849 198.841ZM60.6108 203.045L59.3877 203.096C58.3867 203.135 57.6812 203.299 57.271 203.587C56.8608 203.875 56.6558 204.283 56.6558 204.81C56.6558 205.269 56.7949 205.608 57.0732 205.828C57.3516 206.048 57.7202 206.158 58.1792 206.158C58.8921 206.158 59.4756 205.96 59.9297 205.564C60.3838 205.169 60.6108 204.576 60.6108 203.785V203.045ZM69.4365 198.973V202.342H73.9116V198.973H75.1274V207H73.9116V203.375H69.4365V207H68.2134V198.973H69.4365ZM80.7964 198.826C81.48 198.826 82.0659 198.978 82.5542 199.28C83.0425 199.583 83.416 200.008 83.6748 200.555C83.9336 201.097 84.063 201.731 84.063 202.459V203.213H78.5186C78.5332 204.156 78.7676 204.874 79.2217 205.367C79.6758 205.86 80.3154 206.106 81.1406 206.106C81.6484 206.106 82.0977 206.06 82.4883 205.967C82.8789 205.875 83.2842 205.738 83.7041 205.557V206.626C83.2988 206.807 82.896 206.939 82.4956 207.022C82.1001 207.105 81.6313 207.146 81.0894 207.146C80.3179 207.146 79.644 206.99 79.0679 206.678C78.4966 206.36 78.0522 205.896 77.7349 205.286C77.4175 204.676 77.2588 203.929 77.2588 203.045C77.2588 202.181 77.4028 201.434 77.6909 200.804C77.9839 200.169 78.394 199.681 78.9214 199.339C79.4536 198.997 80.0786 198.826 80.7964 198.826ZM80.7817 199.822C80.1323 199.822 79.6147 200.035 79.229 200.459C78.8433 200.884 78.6138 201.478 78.5405 202.239H82.7886C82.7837 201.761 82.708 201.341 82.5615 200.979C82.4199 200.613 82.2026 200.33 81.9097 200.13C81.6167 199.925 81.2407 199.822 80.7817 199.822ZM91.5996 200.005H88.9556V207H87.7544V200.005H85.147V198.973H91.5996V200.005ZM103.809 198.973V207H102.586V200.02H98.3086V207H97.0854V198.973H103.809ZM113.309 202.972C113.309 203.631 113.223 204.219 113.052 204.737C112.881 205.254 112.635 205.691 112.312 206.048C111.99 206.404 111.6 206.678 111.141 206.868C110.687 207.054 110.171 207.146 109.595 207.146C109.058 207.146 108.565 207.054 108.116 206.868C107.671 206.678 107.286 206.404 106.958 206.048C106.636 205.691 106.385 205.254 106.204 204.737C106.028 204.219 105.94 203.631 105.94 202.972C105.94 202.093 106.089 201.346 106.387 200.73C106.685 200.11 107.11 199.639 107.662 199.317C108.218 198.99 108.88 198.826 109.646 198.826C110.379 198.826 111.019 198.99 111.565 199.317C112.117 199.644 112.544 200.118 112.847 200.738C113.155 201.353 113.309 202.098 113.309 202.972ZM107.2 202.972C107.2 203.616 107.286 204.175 107.457 204.649C107.627 205.123 107.891 205.489 108.248 205.748C108.604 206.006 109.063 206.136 109.625 206.136C110.181 206.136 110.638 206.006 110.994 205.748C111.355 205.489 111.622 205.123 111.792 204.649C111.963 204.175 112.049 203.616 112.049 202.972C112.049 202.332 111.963 201.78 111.792 201.316C111.622 200.848 111.358 200.486 111.001 200.232C110.645 199.979 110.184 199.852 109.617 199.852C108.782 199.852 108.169 200.127 107.779 200.679C107.393 201.231 107.2 201.995 107.2 202.972ZM118.626 207.146C117.903 207.146 117.266 206.998 116.714 206.7C116.163 206.402 115.733 205.948 115.425 205.337C115.118 204.727 114.964 203.958 114.964 203.03C114.964 202.059 115.125 201.265 115.447 200.65C115.774 200.03 116.224 199.571 116.795 199.273C117.366 198.975 118.016 198.826 118.743 198.826C119.144 198.826 119.529 198.868 119.9 198.951C120.276 199.029 120.584 199.129 120.823 199.251L120.457 200.269C120.213 200.171 119.93 200.083 119.607 200.005C119.29 199.927 118.992 199.888 118.714 199.888C118.157 199.888 117.693 200.008 117.322 200.247C116.956 200.486 116.68 200.838 116.495 201.302C116.314 201.766 116.224 202.337 116.224 203.016C116.224 203.665 116.312 204.219 116.487 204.678C116.668 205.137 116.934 205.489 117.286 205.733C117.642 205.972 118.086 206.092 118.619 206.092C119.043 206.092 119.427 206.048 119.769 205.96C120.11 205.867 120.42 205.76 120.699 205.638V206.722C120.43 206.858 120.13 206.963 119.798 207.037C119.471 207.11 119.08 207.146 118.626 207.146ZM125.694 198.826C126.377 198.826 126.963 198.978 127.452 199.28C127.94 199.583 128.313 200.008 128.572 200.555C128.831 201.097 128.96 201.731 128.96 202.459V203.213H123.416C123.431 204.156 123.665 204.874 124.119 205.367C124.573 205.86 125.213 206.106 126.038 206.106C126.546 206.106 126.995 206.06 127.386 205.967C127.776 205.875 128.182 205.738 128.602 205.557V206.626C128.196 206.807 127.793 206.939 127.393 207.022C126.998 207.105 126.529 207.146 125.987 207.146C125.215 207.146 124.542 206.99 123.965 206.678C123.394 206.36 122.95 205.896 122.632 205.286C122.315 204.676 122.156 203.929 122.156 203.045C122.156 202.181 122.3 201.434 122.588 200.804C122.881 200.169 123.292 199.681 123.819 199.339C124.351 198.997 124.976 198.826 125.694 198.826ZM125.679 199.822C125.03 199.822 124.512 200.035 124.126 200.459C123.741 200.884 123.511 201.478 123.438 202.239H127.686C127.681 201.761 127.605 201.341 127.459 200.979C127.317 200.613 127.1 200.33 126.807 200.13C126.514 199.925 126.138 199.822 125.679 199.822ZM141.785 198.973V205.982H142.935V209.761H141.712V207H131.026V198.973H132.242V205.967H135.794V198.973H137.017V205.967H140.577V198.973H141.785ZM147.579 198.826C148.262 198.826 148.848 198.978 149.336 199.28C149.825 199.583 150.198 200.008 150.457 200.555C150.716 201.097 150.845 201.731 150.845 202.459V203.213H145.301C145.315 204.156 145.55 204.874 146.004 205.367C146.458 205.86 147.098 206.106 147.923 206.106C148.431 206.106 148.88 206.06 149.271 205.967C149.661 205.875 150.066 205.738 150.486 205.557V206.626C150.081 206.807 149.678 206.939 149.278 207.022C148.882 207.105 148.414 207.146 147.872 207.146C147.1 207.146 146.426 206.99 145.85 206.678C145.279 206.36 144.834 205.896 144.517 205.286C144.2 204.676 144.041 203.929 144.041 203.045C144.041 202.181 144.185 201.434 144.473 200.804C144.766 200.169 145.176 199.681 145.704 199.339C146.236 198.997 146.861 198.826 147.579 198.826ZM147.564 199.822C146.915 199.822 146.397 200.035 146.011 200.459C145.625 200.884 145.396 201.478 145.323 202.239H149.571C149.566 201.761 149.49 201.341 149.344 200.979C149.202 200.613 148.985 200.33 148.692 200.13C148.399 199.925 148.023 199.822 147.564 199.822ZM154.134 198.973V202.342H158.609V198.973H159.825V207H158.609V203.375H154.134V207H152.911V198.973H154.134ZM163.56 198.973V204.019C163.56 204.117 163.558 204.244 163.553 204.4C163.548 204.551 163.541 204.715 163.531 204.891C163.521 205.062 163.511 205.228 163.501 205.389C163.497 205.545 163.489 205.674 163.479 205.777L167.859 198.973H169.354V207H168.218V202.078C168.218 201.922 168.221 201.722 168.226 201.478C168.23 201.233 168.238 200.994 168.248 200.76C168.257 200.521 168.265 200.335 168.27 200.203L163.904 207H162.403V198.973H163.56ZM173.096 198.973V204.019C173.096 204.117 173.094 204.244 173.089 204.4C173.084 204.551 173.077 204.715 173.067 204.891C173.057 205.062 173.047 205.228 173.038 205.389C173.033 205.545 173.025 205.674 173.016 205.777L177.396 198.973H178.89V207H177.754V202.078C177.754 201.922 177.757 201.722 177.762 201.478C177.767 201.233 177.774 200.994 177.784 200.76C177.793 200.521 177.801 200.335 177.806 200.203L173.44 207H171.939V198.973H173.096ZM178.289 195.669C178.245 196.163 178.121 196.575 177.916 196.907C177.715 197.239 177.42 197.491 177.029 197.662C176.639 197.828 176.138 197.911 175.528 197.911C174.898 197.911 174.39 197.83 174.004 197.669C173.624 197.503 173.34 197.254 173.155 196.922C172.974 196.59 172.867 196.172 172.833 195.669H173.975C174.029 196.207 174.173 196.573 174.407 196.768C174.642 196.963 175.022 197.061 175.55 197.061C176.019 197.061 176.387 196.958 176.656 196.753C176.924 196.548 177.085 196.187 177.139 195.669H178.289Z" fill="#B9BCC8"/>
<path d="M19.1157 221.539C18.6037 221.539 18.1424 221.627 17.7319 221.805C17.3257 221.979 16.9787 222.233 16.6909 222.567C16.4074 222.897 16.1895 223.297 16.0371 223.767C15.8848 224.236 15.8086 224.765 15.8086 225.354C15.8086 226.132 15.9292 226.809 16.1704 227.385C16.4159 227.956 16.7798 228.398 17.2622 228.711C17.7489 229.025 18.3561 229.181 19.084 229.181C19.4987 229.181 19.888 229.147 20.252 229.08C20.6201 229.008 20.9777 228.919 21.3247 228.813V229.752C20.9862 229.879 20.6307 229.972 20.2583 230.032C19.8859 230.095 19.4437 230.127 18.9316 230.127C17.988 230.127 17.1987 229.932 16.564 229.543C15.9334 229.149 15.4595 228.595 15.1421 227.88C14.8289 227.165 14.6724 226.32 14.6724 225.347C14.6724 224.645 14.7697 224.004 14.9644 223.424C15.1632 222.84 15.451 222.336 15.8276 221.913C16.2085 221.49 16.674 221.164 17.2241 220.936C17.7785 220.703 18.4132 220.586 19.1284 220.586C19.5981 220.586 20.0509 220.633 20.4868 220.726C20.9227 220.819 21.3162 220.952 21.6675 221.126L21.2358 222.04C20.9396 221.905 20.6138 221.788 20.2583 221.691C19.9071 221.589 19.5262 221.539 19.1157 221.539ZM29.1768 226.509C29.1768 227.08 29.1027 227.59 28.9546 228.039C28.8065 228.487 28.5928 228.866 28.3135 229.175C28.0342 229.484 27.6956 229.721 27.2979 229.886C26.9043 230.047 26.4578 230.127 25.9585 230.127C25.493 230.127 25.0656 230.047 24.6763 229.886C24.2912 229.721 23.9569 229.484 23.6733 229.175C23.394 228.866 23.1761 228.487 23.0195 228.039C22.8672 227.59 22.791 227.08 22.791 226.509C22.791 225.747 22.9201 225.1 23.1782 224.566C23.4364 224.029 23.8045 223.621 24.2827 223.341C24.7651 223.058 25.3385 222.916 26.0029 222.916C26.6377 222.916 27.1921 223.058 27.666 223.341C28.1442 223.625 28.5145 224.035 28.7769 224.573C29.0435 225.106 29.1768 225.751 29.1768 226.509ZM23.8828 226.509C23.8828 227.067 23.9569 227.552 24.105 227.962C24.2531 228.373 24.4816 228.69 24.7905 228.915C25.0994 229.139 25.4972 229.251 25.9839 229.251C26.4663 229.251 26.862 229.139 27.1709 228.915C27.484 228.69 27.7147 228.373 27.8628 227.962C28.0109 227.552 28.085 227.067 28.085 226.509C28.085 225.954 28.0109 225.476 27.8628 225.074C27.7147 224.668 27.4862 224.355 27.1772 224.135C26.8683 223.915 26.4684 223.805 25.9775 223.805C25.2539 223.805 24.7228 224.044 24.3843 224.522C24.05 225 23.8828 225.662 23.8828 226.509ZM32.7886 222.916C33.3091 222.916 33.7598 222.988 34.1406 223.132C34.5215 223.271 34.8156 223.477 35.0229 223.748C35.2303 224.018 35.334 224.348 35.334 224.738C35.334 225.157 35.2197 225.491 34.9912 225.741C34.7627 225.99 34.4474 226.17 34.0454 226.28V226.331C34.3289 226.407 34.585 226.517 34.8135 226.661C35.0462 226.801 35.2303 226.987 35.3657 227.22C35.5054 227.448 35.5752 227.734 35.5752 228.077C35.5752 228.466 35.4694 228.817 35.2578 229.13C35.0462 229.439 34.7246 229.683 34.293 229.86C33.8613 230.038 33.3154 230.127 32.6553 230.127C32.3294 230.127 32.0205 230.108 31.7285 230.07C31.4365 230.036 31.172 229.985 30.9351 229.917C30.6981 229.85 30.4907 229.769 30.313 229.676V228.718C30.6092 228.862 30.9562 228.989 31.354 229.099C31.7518 229.209 32.1813 229.264 32.6426 229.264C32.998 229.264 33.3175 229.223 33.6011 229.143C33.8846 229.058 34.1089 228.925 34.2739 228.743C34.4432 228.557 34.5278 228.314 34.5278 228.013C34.5278 227.738 34.4538 227.512 34.3057 227.334C34.1576 227.152 33.9354 227.019 33.6392 226.934C33.3472 226.845 32.9769 226.801 32.5283 226.801H31.5952V225.938H32.3633C32.96 225.938 33.436 225.853 33.7915 225.684C34.147 225.514 34.3247 225.229 34.3247 224.827C34.3247 224.48 34.1872 224.222 33.9121 224.052C33.637 223.879 33.2435 223.792 32.7314 223.792C32.3506 223.792 32.0142 223.832 31.7222 223.913C31.4302 223.989 31.1149 224.099 30.7764 224.243L30.4019 223.398C30.7658 223.238 31.1466 223.117 31.5444 223.037C31.9422 222.956 32.3569 222.916 32.7886 222.916ZM42.3799 223.043V229.105H43.3765V232.406H42.3545V230H37.4287V232.406H36.4194V229.105H36.9653C37.3631 228.555 37.6932 227.952 37.9556 227.296C38.2179 226.64 38.4168 225.952 38.5522 225.233C38.6877 224.509 38.7596 223.779 38.7681 223.043H42.3799ZM41.3579 223.881H39.7075C39.6694 224.499 39.5785 225.127 39.4346 225.766C39.2949 226.405 39.1087 227.014 38.876 227.594C38.6432 228.17 38.3724 228.673 38.0635 229.105H41.3579V223.881ZM47.3628 222.929C48.1922 222.929 48.8079 223.115 49.21 223.487C49.612 223.86 49.813 224.454 49.813 225.271V230H49.0449L48.8418 228.972H48.791C48.5964 229.226 48.3932 229.439 48.1816 229.613C47.9701 229.782 47.7246 229.911 47.4453 230C47.1702 230.085 46.8317 230.127 46.4297 230.127C46.0065 230.127 45.6299 230.053 45.2998 229.905C44.974 229.757 44.7158 229.532 44.5254 229.232C44.3392 228.931 44.2461 228.551 44.2461 228.089C44.2461 227.395 44.5212 226.862 45.0713 226.49C45.6214 226.117 46.4593 225.914 47.585 225.88L48.7847 225.83V225.404C48.7847 224.803 48.6556 224.382 48.3975 224.141C48.1393 223.9 47.7754 223.779 47.3057 223.779C46.9417 223.779 46.5947 223.832 46.2646 223.938C45.9346 224.044 45.6214 224.169 45.3252 224.312L45.0015 223.513C45.3146 223.352 45.6743 223.214 46.0806 223.1C46.4868 222.986 46.9142 222.929 47.3628 222.929ZM48.772 226.572L47.7119 226.617C46.8444 226.651 46.2329 226.792 45.8774 227.042C45.522 227.292 45.3442 227.645 45.3442 228.102C45.3442 228.5 45.4648 228.794 45.7061 228.984C45.9473 229.175 46.2668 229.27 46.6646 229.27C47.2824 229.27 47.7881 229.099 48.1816 228.756C48.5752 228.413 48.772 227.899 48.772 227.213V226.572ZM52.9868 223.043V227.417C52.9868 227.501 52.9847 227.611 52.9805 227.747C52.9762 227.878 52.9699 228.02 52.9614 228.172C52.953 228.32 52.9445 228.464 52.936 228.604C52.9318 228.739 52.9255 228.851 52.917 228.94L56.7129 223.043H58.0078V230H57.0239V225.734C57.0239 225.599 57.026 225.425 57.0303 225.214C57.0345 225.002 57.0409 224.795 57.0493 224.592C57.0578 224.384 57.0641 224.224 57.0684 224.109L53.2852 230H51.9839V223.043H52.9868ZM57.4873 220.18C57.4492 220.608 57.3413 220.965 57.1636 221.253C56.9901 221.541 56.734 221.759 56.3955 221.907C56.057 222.051 55.6232 222.123 55.0942 222.123C54.5483 222.123 54.1082 222.053 53.7739 221.913C53.4438 221.769 53.1984 221.553 53.0376 221.266C52.881 220.978 52.7879 220.616 52.7583 220.18H53.7485C53.7951 220.646 53.9199 220.963 54.123 221.132C54.3262 221.302 54.6562 221.386 55.1133 221.386C55.5195 221.386 55.839 221.297 56.0718 221.12C56.3045 220.942 56.4442 220.629 56.4907 220.18H57.4873ZM64.9902 223.938H62.6987V230H61.6577V223.938H59.3979V223.043H64.9902V223.938ZM69.0464 222.916C69.6388 222.916 70.1466 223.047 70.5698 223.31C70.993 223.572 71.3167 223.94 71.541 224.414C71.7653 224.884 71.8774 225.434 71.8774 226.064V226.718H67.0723C67.085 227.535 67.2881 228.157 67.6816 228.584C68.0752 229.012 68.6296 229.226 69.3447 229.226C69.7848 229.226 70.1742 229.185 70.5127 229.105C70.8512 229.025 71.2025 228.906 71.5664 228.75V229.676C71.2152 229.833 70.866 229.947 70.519 230.019C70.1763 230.091 69.77 230.127 69.3003 230.127C68.6317 230.127 68.0477 229.992 67.5483 229.721C67.0532 229.446 66.6681 229.044 66.3931 228.515C66.118 227.986 65.9805 227.338 65.9805 226.572C65.9805 225.823 66.1053 225.176 66.355 224.63C66.6089 224.08 66.9644 223.657 67.4214 223.36C67.8826 223.064 68.4243 222.916 69.0464 222.916ZM69.0337 223.779C68.4709 223.779 68.0223 223.963 67.688 224.332C67.3537 224.7 67.1548 225.214 67.0913 225.874H70.7729C70.7687 225.459 70.7031 225.095 70.5762 224.782C70.4535 224.465 70.2651 224.219 70.0112 224.046C69.7573 223.868 69.4315 223.779 69.0337 223.779ZM78.1045 223.043V225.963H81.9829V223.043H83.0366V230H81.9829V226.858H78.1045V230H77.0444V223.043H78.1045ZM91.2695 226.509C91.2695 227.08 91.1955 227.59 91.0474 228.039C90.8993 228.487 90.6855 228.866 90.4062 229.175C90.127 229.484 89.7884 229.721 89.3906 229.886C88.9971 230.047 88.5506 230.127 88.0513 230.127C87.5858 230.127 87.1584 230.047 86.769 229.886C86.384 229.721 86.0496 229.484 85.7661 229.175C85.4868 228.866 85.2689 228.487 85.1123 228.039C84.96 227.59 84.8838 227.08 84.8838 226.509C84.8838 225.747 85.0129 225.1 85.271 224.566C85.5291 224.029 85.8973 223.621 86.3755 223.341C86.8579 223.058 87.4313 222.916 88.0957 222.916C88.7305 222.916 89.2848 223.058 89.7588 223.341C90.237 223.625 90.6073 224.035 90.8696 224.573C91.1362 225.106 91.2695 225.751 91.2695 226.509ZM85.9756 226.509C85.9756 227.067 86.0496 227.552 86.1978 227.962C86.3459 228.373 86.5744 228.69 86.8833 228.915C87.1922 229.139 87.59 229.251 88.0767 229.251C88.5591 229.251 88.9548 229.139 89.2637 228.915C89.5768 228.69 89.8075 228.373 89.9556 227.962C90.1037 227.552 90.1777 227.067 90.1777 226.509C90.1777 225.954 90.1037 225.476 89.9556 225.074C89.8075 224.668 89.5789 224.355 89.27 224.135C88.9611 223.915 88.5612 223.805 88.0703 223.805C87.3467 223.805 86.8156 224.044 86.4771 224.522C86.1427 225 85.9756 225.662 85.9756 226.509ZM98.6201 224.789C98.6201 225.224 98.4932 225.565 98.2393 225.811C97.9854 226.052 97.6574 226.215 97.2554 226.299V226.35C97.6912 226.409 98.0658 226.566 98.3789 226.82C98.6963 227.069 98.855 227.452 98.855 227.969C98.855 228.367 98.7598 228.718 98.5693 229.022C98.3789 229.327 98.0806 229.566 97.6743 229.74C97.2681 229.913 96.7391 230 96.0874 230H93.0913V223.043H96.062C96.5614 223.043 97.0015 223.1 97.3823 223.214C97.7674 223.324 98.07 223.506 98.29 223.76C98.5101 224.014 98.6201 224.357 98.6201 224.789ZM97.7568 227.969C97.7568 227.558 97.6003 227.262 97.2871 227.08C96.9782 226.898 96.5275 226.807 95.9351 226.807H94.1514V229.143H95.9604C96.5444 229.143 96.9888 229.054 97.2935 228.876C97.6024 228.694 97.7568 228.392 97.7568 227.969ZM97.5474 224.909C97.5474 224.579 97.4268 224.334 97.1855 224.173C96.9443 224.008 96.5487 223.925 95.9985 223.925H94.1514V225.925H95.8145C96.3857 225.925 96.8174 225.842 97.1094 225.677C97.4014 225.512 97.5474 225.256 97.5474 224.909ZM106.555 226.509C106.555 227.08 106.481 227.59 106.333 228.039C106.184 228.487 105.971 228.866 105.691 229.175C105.412 229.484 105.074 229.721 104.676 229.886C104.282 230.047 103.836 230.127 103.336 230.127C102.871 230.127 102.444 230.047 102.054 229.886C101.669 229.721 101.335 229.484 101.051 229.175C100.772 228.866 100.554 228.487 100.397 228.039C100.245 227.59 100.169 227.08 100.169 226.509C100.169 225.747 100.298 225.1 100.556 224.566C100.814 224.029 101.182 223.621 101.661 223.341C102.143 223.058 102.716 222.916 103.381 222.916C104.016 222.916 104.57 223.058 105.044 223.341C105.522 223.625 105.892 224.035 106.155 224.573C106.421 225.106 106.555 225.751 106.555 226.509ZM101.261 226.509C101.261 227.067 101.335 227.552 101.483 227.962C101.631 228.373 101.86 228.69 102.168 228.915C102.477 229.139 102.875 229.251 103.362 229.251C103.844 229.251 104.24 229.139 104.549 228.915C104.862 228.69 105.093 228.373 105.241 227.962C105.389 227.552 105.463 227.067 105.463 226.509C105.463 225.954 105.389 225.476 105.241 225.074C105.093 224.668 104.864 224.355 104.555 224.135C104.246 223.915 103.846 223.805 103.355 223.805C102.632 223.805 102.101 224.044 101.762 224.522C101.428 225 101.261 225.662 101.261 226.509ZM111.055 222.916C111.648 222.916 112.155 223.047 112.579 223.31C113.002 223.572 113.326 223.94 113.55 224.414C113.774 224.884 113.886 225.434 113.886 226.064V226.718H109.081C109.094 227.535 109.297 228.157 109.69 228.584C110.084 229.012 110.638 229.226 111.354 229.226C111.794 229.226 112.183 229.185 112.521 229.105C112.86 229.025 113.211 228.906 113.575 228.75V229.676C113.224 229.833 112.875 229.947 112.528 230.019C112.185 230.091 111.779 230.127 111.309 230.127C110.64 230.127 110.056 229.992 109.557 229.721C109.062 229.446 108.677 229.044 108.402 228.515C108.127 227.986 107.989 227.338 107.989 226.572C107.989 225.823 108.114 225.176 108.364 224.63C108.618 224.08 108.973 223.657 109.43 223.36C109.891 223.064 110.433 222.916 111.055 222.916ZM111.042 223.779C110.48 223.779 110.031 223.963 109.697 224.332C109.362 224.7 109.164 225.214 109.1 225.874H112.782C112.778 225.459 112.712 225.095 112.585 224.782C112.462 224.465 112.274 224.219 112.02 224.046C111.766 223.868 111.44 223.779 111.042 223.779ZM124.88 223.043V230H123.82V223.951H120.113V230H119.053V223.043H124.88ZM133.113 226.509C133.113 227.08 133.039 227.59 132.891 228.039C132.743 228.487 132.529 228.866 132.25 229.175C131.971 229.484 131.632 229.721 131.234 229.886C130.841 230.047 130.394 230.127 129.895 230.127C129.43 230.127 129.002 230.047 128.613 229.886C128.228 229.721 127.893 229.484 127.61 229.175C127.331 228.866 127.113 228.487 126.956 228.039C126.804 227.59 126.728 227.08 126.728 226.509C126.728 225.747 126.857 225.1 127.115 224.566C127.373 224.029 127.741 223.621 128.219 223.341C128.702 223.058 129.275 222.916 129.939 222.916C130.574 222.916 131.129 223.058 131.603 223.341C132.081 223.625 132.451 224.035 132.713 224.573C132.98 225.106 133.113 225.751 133.113 226.509ZM127.819 226.509C127.819 227.067 127.893 227.552 128.042 227.962C128.19 228.373 128.418 228.69 128.727 228.915C129.036 229.139 129.434 229.251 129.92 229.251C130.403 229.251 130.799 229.139 131.107 228.915C131.421 228.69 131.651 228.373 131.799 227.962C131.947 227.552 132.021 227.067 132.021 226.509C132.021 225.954 131.947 225.476 131.799 225.074C131.651 224.668 131.423 224.355 131.114 224.135C130.805 223.915 130.405 223.805 129.914 223.805C129.19 223.805 128.659 224.044 128.321 224.522C127.986 225 127.819 225.662 127.819 226.509ZM137.722 230.127C137.095 230.127 136.543 229.998 136.065 229.74C135.587 229.482 135.214 229.088 134.948 228.559C134.681 228.03 134.548 227.364 134.548 226.56C134.548 225.717 134.688 225.03 134.967 224.497C135.25 223.959 135.64 223.561 136.135 223.303C136.63 223.045 137.193 222.916 137.823 222.916C138.17 222.916 138.505 222.952 138.826 223.024C139.152 223.092 139.419 223.178 139.626 223.284L139.309 224.167C139.097 224.082 138.852 224.006 138.572 223.938C138.297 223.87 138.039 223.836 137.798 223.836C137.315 223.836 136.913 223.94 136.592 224.147C136.274 224.355 136.035 224.66 135.875 225.062C135.718 225.464 135.64 225.959 135.64 226.547C135.64 227.11 135.716 227.59 135.868 227.988C136.025 228.386 136.255 228.69 136.56 228.902C136.869 229.109 137.254 229.213 137.715 229.213C138.083 229.213 138.416 229.175 138.712 229.099C139.008 229.018 139.277 228.925 139.518 228.819V229.759C139.285 229.877 139.025 229.968 138.737 230.032C138.454 230.095 138.115 230.127 137.722 230.127ZM143.847 222.916C144.44 222.916 144.947 223.047 145.371 223.31C145.794 223.572 146.118 223.94 146.342 224.414C146.566 224.884 146.678 225.434 146.678 226.064V226.718H141.873C141.886 227.535 142.089 228.157 142.482 228.584C142.876 229.012 143.43 229.226 144.146 229.226C144.586 229.226 144.975 229.185 145.313 229.105C145.652 229.025 146.003 228.906 146.367 228.75V229.676C146.016 229.833 145.667 229.947 145.32 230.019C144.977 230.091 144.571 230.127 144.101 230.127C143.432 230.127 142.848 229.992 142.349 229.721C141.854 229.446 141.469 229.044 141.194 228.515C140.919 227.986 140.781 227.338 140.781 226.572C140.781 225.823 140.906 225.176 141.156 224.63C141.41 224.08 141.765 223.657 142.222 223.36C142.683 223.064 143.225 222.916 143.847 222.916ZM143.834 223.779C143.272 223.779 142.823 223.963 142.489 224.332C142.154 224.7 141.956 225.214 141.892 225.874H145.574C145.569 225.459 145.504 225.095 145.377 224.782C145.254 224.465 145.066 224.219 144.812 224.046C144.558 223.868 144.232 223.779 143.834 223.779ZM157.793 223.043V229.118H158.79V232.393H157.729V230H148.468V223.043H149.522V229.105H152.601V223.043H153.661V229.105H156.746V223.043H157.793ZM162.814 222.916C163.406 222.916 163.914 223.047 164.337 223.31C164.761 223.572 165.084 223.94 165.309 224.414C165.533 224.884 165.645 225.434 165.645 226.064V226.718H160.84C160.853 227.535 161.056 228.157 161.449 228.584C161.843 229.012 162.397 229.226 163.112 229.226C163.552 229.226 163.942 229.185 164.28 229.105C164.619 229.025 164.97 228.906 165.334 228.75V229.676C164.983 229.833 164.634 229.947 164.287 230.019C163.944 230.091 163.538 230.127 163.068 230.127C162.399 230.127 161.815 229.992 161.316 229.721C160.821 229.446 160.436 229.044 160.161 228.515C159.886 227.986 159.748 227.338 159.748 226.572C159.748 225.823 159.873 225.176 160.123 224.63C160.376 224.08 160.732 223.657 161.189 223.36C161.65 223.064 162.192 222.916 162.814 222.916ZM162.801 223.779C162.238 223.779 161.79 223.963 161.456 224.332C161.121 224.7 160.922 225.214 160.859 225.874H164.541C164.536 225.459 164.471 225.095 164.344 224.782C164.221 224.465 164.033 224.219 163.779 224.046C163.525 223.868 163.199 223.779 162.801 223.779ZM168.495 223.043V225.963H172.374V223.043H173.427V230H172.374V226.858H168.495V230H167.435V223.043H168.495ZM176.665 223.043V227.417C176.665 227.501 176.662 227.611 176.658 227.747C176.654 227.878 176.648 228.02 176.639 228.172C176.631 228.32 176.622 228.464 176.614 228.604C176.61 228.739 176.603 228.851 176.595 228.94L180.391 223.043H181.686V230H180.702V225.734C180.702 225.599 180.704 225.425 180.708 225.214C180.712 225.002 180.719 224.795 180.727 224.592C180.736 224.384 180.742 224.224 180.746 224.109L176.963 230H175.662V223.043H176.665ZM186.605 222.916C187.197 222.916 187.705 223.047 188.128 223.31C188.552 223.572 188.875 223.94 189.1 224.414C189.324 224.884 189.436 225.434 189.436 226.064V226.718H184.631C184.644 227.535 184.847 228.157 185.24 228.584C185.634 229.012 186.188 229.226 186.903 229.226C187.343 229.226 187.733 229.185 188.071 229.105C188.41 229.025 188.761 228.906 189.125 228.75V229.676C188.774 229.833 188.425 229.947 188.078 230.019C187.735 230.091 187.329 230.127 186.859 230.127C186.19 230.127 185.606 229.992 185.107 229.721C184.612 229.446 184.227 229.044 183.952 228.515C183.677 227.986 183.539 227.338 183.539 226.572C183.539 225.823 183.664 225.176 183.914 224.63C184.167 224.08 184.523 223.657 184.98 223.36C185.441 223.064 185.983 222.916 186.605 222.916ZM186.592 223.779C186.029 223.779 185.581 223.963 185.247 224.332C184.912 224.7 184.713 225.214 184.65 225.874H188.332C188.327 225.459 188.262 225.095 188.135 224.782C188.012 224.465 187.824 224.219 187.57 224.046C187.316 223.868 186.99 223.779 186.592 223.779ZM192.432 228.489L192.515 228.635C192.438 228.944 192.341 229.274 192.223 229.625C192.108 229.977 191.981 230.328 191.842 230.679C191.706 231.035 191.569 231.367 191.429 231.676H190.642C190.731 231.337 190.818 230.98 190.902 230.603C190.987 230.231 191.063 229.862 191.131 229.499C191.203 229.13 191.26 228.794 191.302 228.489H192.432ZM198.97 223.043V227.417C198.97 227.501 198.968 227.611 198.964 227.747C198.96 227.878 198.953 228.02 198.945 228.172C198.936 228.32 198.928 228.464 198.919 228.604C198.915 228.739 198.909 228.851 198.9 228.94L202.696 223.043H203.991V230H203.007V225.734C203.007 225.599 203.009 225.425 203.014 225.214C203.018 225.002 203.024 224.795 203.033 224.592C203.041 224.384 203.048 224.224 203.052 224.109L199.269 230H197.967V223.043H198.97ZM18.5127 243.509C18.5127 244.08 18.4386 244.59 18.2905 245.039C18.1424 245.487 17.9287 245.866 17.6494 246.175C17.3701 246.484 17.0316 246.721 16.6338 246.886C16.2402 247.047 15.7938 247.127 15.2944 247.127C14.8289 247.127 14.4015 247.047 14.0122 246.886C13.6271 246.721 13.2928 246.484 13.0093 246.175C12.73 245.866 12.512 245.487 12.3555 245.039C12.2031 244.59 12.127 244.08 12.127 243.509C12.127 242.747 12.256 242.1 12.5142 241.566C12.7723 241.029 13.1405 240.621 13.6187 240.341C14.1011 240.058 14.6745 239.916 15.3389 239.916C15.9736 239.916 16.528 240.058 17.002 240.341C17.4801 240.625 17.8504 241.035 18.1128 241.573C18.3794 242.106 18.5127 242.751 18.5127 243.509ZM13.2188 243.509C13.2188 244.067 13.2928 244.552 13.4409 244.962C13.589 245.373 13.8175 245.69 14.1265 245.915C14.4354 246.139 14.8332 246.251 15.3198 246.251C15.8022 246.251 16.1979 246.139 16.5068 245.915C16.82 245.69 17.0506 245.373 17.1987 244.962C17.3468 244.552 17.4209 244.067 17.4209 243.509C17.4209 242.954 17.3468 242.476 17.1987 242.074C17.0506 241.668 16.8221 241.355 16.5132 241.135C16.2043 240.915 15.8044 240.805 15.3135 240.805C14.5898 240.805 14.0588 241.044 13.7202 241.522C13.3859 242 13.2188 242.662 13.2188 243.509ZM21.3945 240.043V242.963H25.2729V240.043H26.3267V247H25.2729V243.858H21.3945V247H20.3345V240.043H21.3945ZM34.5596 243.509C34.5596 244.08 34.4855 244.59 34.3374 245.039C34.1893 245.487 33.9756 245.866 33.6963 246.175C33.417 246.484 33.0785 246.721 32.6807 246.886C32.2871 247.047 31.8407 247.127 31.3413 247.127C30.8758 247.127 30.4484 247.047 30.0591 246.886C29.674 246.721 29.3397 246.484 29.0562 246.175C28.7769 245.866 28.5589 245.487 28.4023 245.039C28.25 244.59 28.1738 244.08 28.1738 243.509C28.1738 242.747 28.3029 242.1 28.561 241.566C28.8192 241.029 29.1873 240.621 29.6655 240.341C30.1479 240.058 30.7214 239.916 31.3857 239.916C32.0205 239.916 32.5749 240.058 33.0488 240.341C33.527 240.625 33.8973 241.035 34.1597 241.573C34.4263 242.106 34.5596 242.751 34.5596 243.509ZM29.2656 243.509C29.2656 244.067 29.3397 244.552 29.4878 244.962C29.6359 245.373 29.8644 245.69 30.1733 245.915C30.4823 246.139 30.88 246.251 31.3667 246.251C31.8491 246.251 32.2448 246.139 32.5537 245.915C32.8669 245.69 33.0975 245.373 33.2456 244.962C33.3937 244.552 33.4678 244.067 33.4678 243.509C33.4678 242.954 33.3937 242.476 33.2456 242.074C33.0975 241.668 32.869 241.355 32.5601 241.135C32.2511 240.915 31.8512 240.805 31.3604 240.805C30.6367 240.805 30.1056 241.044 29.7671 241.522C29.4328 242 29.2656 242.662 29.2656 243.509ZM39.3965 242.823C39.3965 241.833 39.4917 240.989 39.6821 240.291C39.8726 239.588 40.1667 239.025 40.5645 238.602C40.9665 238.175 41.4827 237.883 42.1133 237.726C42.6549 237.578 43.2051 237.451 43.7637 237.345C44.3223 237.235 44.866 237.14 45.395 237.06L45.5791 237.986C45.3125 238.024 45.0332 238.069 44.7412 238.12C44.4492 238.166 44.1572 238.217 43.8652 238.272C43.5732 238.323 43.2982 238.378 43.04 238.437C42.7819 238.492 42.5534 238.549 42.3545 238.608C41.9948 238.706 41.6838 238.875 41.4214 239.116C41.1632 239.357 40.958 239.69 40.8057 240.113C40.6576 240.536 40.5687 241.069 40.5391 241.712H40.6152C40.7422 241.526 40.9157 241.342 41.1357 241.16C41.3558 240.978 41.6182 240.828 41.9229 240.709C42.2275 240.587 42.5703 240.525 42.9512 240.525C43.5521 240.525 44.0535 240.657 44.4556 240.919C44.8576 241.177 45.1602 241.541 45.3633 242.011C45.5664 242.48 45.668 243.031 45.668 243.661C45.668 244.419 45.5368 245.056 45.2744 245.572C45.0163 246.088 44.6523 246.477 44.1826 246.74C43.7129 246.998 43.1606 247.127 42.5259 247.127C42.035 247.127 41.5949 247.032 41.2056 246.841C40.8205 246.651 40.4925 246.372 40.2217 246.003C39.9551 245.635 39.7498 245.185 39.606 244.651C39.4663 244.118 39.3965 243.509 39.3965 242.823ZM42.6084 246.251C43.0104 246.251 43.3553 246.166 43.6431 245.997C43.9351 245.828 44.1593 245.561 44.3159 245.197C44.4767 244.829 44.5571 244.351 44.5571 243.763C44.5571 243.026 44.4154 242.451 44.1318 242.036C43.8525 241.617 43.404 241.408 42.7861 241.408C42.401 241.408 42.0519 241.49 41.7388 241.655C41.4256 241.816 41.1611 242.009 40.9453 242.233C40.7295 242.457 40.5729 242.658 40.4756 242.836C40.4756 243.268 40.5073 243.687 40.5708 244.093C40.6343 244.499 40.7443 244.865 40.9009 245.191C41.0575 245.517 41.2733 245.775 41.5483 245.965C41.8276 246.156 42.181 246.251 42.6084 246.251ZM46.3916 240.043H47.5215L49.0576 244.08C49.1465 244.317 49.229 244.546 49.3052 244.766C49.3813 244.981 49.4491 245.189 49.5083 245.388C49.5675 245.587 49.6141 245.779 49.6479 245.965H49.6924C49.7516 245.754 49.8363 245.477 49.9463 245.134C50.0563 244.787 50.1748 244.433 50.3018 244.074L51.7554 240.043H52.8916L49.8638 248.022C49.703 248.449 49.5146 248.822 49.2988 249.139C49.0872 249.457 48.8291 249.7 48.5244 249.869C48.2197 250.043 47.8516 250.129 47.4199 250.129C47.221 250.129 47.0454 250.117 46.8931 250.091C46.7407 250.07 46.6095 250.045 46.4995 250.015V249.171C46.5926 249.192 46.7048 249.211 46.8359 249.228C46.9714 249.245 47.111 249.253 47.2549 249.253C47.5173 249.253 47.7437 249.203 47.9341 249.101C48.1287 249.004 48.2959 248.86 48.4355 248.669C48.5752 248.479 48.6958 248.253 48.7974 247.99L49.1782 247.013L46.3916 240.043ZM59.0996 240.043V246.105H60.0962V249.406H59.0742V247H54.1484V249.406H53.1392V246.105H53.6851C54.0828 245.555 54.4129 244.952 54.6753 244.296C54.9377 243.64 55.1366 242.952 55.272 242.233C55.4074 241.509 55.4793 240.779 55.4878 240.043H59.0996ZM58.0776 240.881H56.4272C56.3892 241.499 56.2982 242.127 56.1543 242.766C56.0146 243.405 55.8285 244.014 55.5957 244.594C55.363 245.17 55.0921 245.673 54.7832 246.105H58.0776V240.881ZM64.1587 239.916C64.7511 239.916 65.259 240.047 65.6821 240.31C66.1053 240.572 66.429 240.94 66.6533 241.414C66.8776 241.884 66.9897 242.434 66.9897 243.064V243.718H62.1846C62.1973 244.535 62.4004 245.157 62.7939 245.584C63.1875 246.012 63.7419 246.226 64.457 246.226C64.8971 246.226 65.2865 246.185 65.625 246.105C65.9635 246.025 66.3148 245.906 66.6787 245.75V246.676C66.3275 246.833 65.9784 246.947 65.6313 247.019C65.2886 247.091 64.8823 247.127 64.4126 247.127C63.744 247.127 63.16 246.992 62.6606 246.721C62.1655 246.446 61.7804 246.044 61.5054 245.515C61.2303 244.986 61.0928 244.338 61.0928 243.572C61.0928 242.823 61.2176 242.176 61.4673 241.63C61.7212 241.08 62.0767 240.657 62.5337 240.36C62.995 240.064 63.5366 239.916 64.1587 239.916ZM64.146 240.779C63.5832 240.779 63.1346 240.963 62.8003 241.332C62.466 241.7 62.2671 242.214 62.2036 242.874H65.8853C65.881 242.459 65.8154 242.095 65.6885 241.782C65.5658 241.465 65.3774 241.219 65.1235 241.046C64.8696 240.868 64.5438 240.779 64.146 240.779ZM73.5215 240.938H71.23V247H70.189V240.938H67.9292V240.043H73.5215V240.938ZM84.2744 243.509C84.2744 244.08 84.2004 244.59 84.0522 245.039C83.9041 245.487 83.6904 245.866 83.4111 246.175C83.1318 246.484 82.7933 246.721 82.3955 246.886C82.002 247.047 81.5555 247.127 81.0562 247.127C80.5907 247.127 80.1632 247.047 79.7739 246.886C79.3888 246.721 79.0545 246.484 78.771 246.175C78.4917 245.866 78.2738 245.487 78.1172 245.039C77.9648 244.59 77.8887 244.08 77.8887 243.509C77.8887 242.747 78.0177 242.1 78.2759 241.566C78.534 241.029 78.9022 240.621 79.3804 240.341C79.8628 240.058 80.4362 239.916 81.1006 239.916C81.7354 239.916 82.2897 240.058 82.7637 240.341C83.2419 240.625 83.6121 241.035 83.8745 241.573C84.1411 242.106 84.2744 242.751 84.2744 243.509ZM78.9805 243.509C78.9805 244.067 79.0545 244.552 79.2026 244.962C79.3507 245.373 79.5793 245.69 79.8882 245.915C80.1971 246.139 80.5949 246.251 81.0815 246.251C81.564 246.251 81.9596 246.139 82.2686 245.915C82.5817 245.69 82.8123 245.373 82.9604 244.962C83.1086 244.552 83.1826 244.067 83.1826 243.509C83.1826 242.954 83.1086 242.476 82.9604 242.074C82.8123 241.668 82.5838 241.355 82.2749 241.135C81.966 240.915 81.5661 240.805 81.0752 240.805C80.3516 240.805 79.8205 241.044 79.4819 241.522C79.1476 242 78.9805 242.662 78.9805 243.509ZM90.8379 240.938H88.5464V247H87.5054V240.938H85.2456V240.043H90.8379V240.938ZM98.2139 243.509C98.2139 244.08 98.1398 244.59 97.9917 245.039C97.8436 245.487 97.6299 245.866 97.3506 246.175C97.0713 246.484 96.7327 246.721 96.335 246.886C95.9414 247.047 95.495 247.127 94.9956 247.127C94.5301 247.127 94.1027 247.047 93.7134 246.886C93.3283 246.721 92.994 246.484 92.7104 246.175C92.4312 245.866 92.2132 245.487 92.0566 245.039C91.9043 244.59 91.8281 244.08 91.8281 243.509C91.8281 242.747 91.9572 242.1 92.2153 241.566C92.4735 241.029 92.8416 240.621 93.3198 240.341C93.8022 240.058 94.3757 239.916 95.04 239.916C95.6748 239.916 96.2292 240.058 96.7031 240.341C97.1813 240.625 97.5516 241.035 97.814 241.573C98.0806 242.106 98.2139 242.751 98.2139 243.509ZM92.9199 243.509C92.9199 244.067 92.994 244.552 93.1421 244.962C93.2902 245.373 93.5187 245.69 93.8276 245.915C94.1366 246.139 94.5343 246.251 95.021 246.251C95.5034 246.251 95.8991 246.139 96.208 245.915C96.5212 245.69 96.7518 245.373 96.8999 244.962C97.048 244.552 97.1221 244.067 97.1221 243.509C97.1221 242.954 97.048 242.476 96.8999 242.074C96.7518 241.668 96.5233 241.355 96.2144 241.135C95.9054 240.915 95.5055 240.805 95.0146 240.805C94.291 240.805 93.7599 241.044 93.4214 241.522C93.0871 242 92.9199 242.662 92.9199 243.509ZM99.6738 242.823C99.6738 241.833 99.769 240.989 99.9595 240.291C100.15 239.588 100.444 239.025 100.842 238.602C101.244 238.175 101.76 237.883 102.391 237.726C102.932 237.578 103.482 237.451 104.041 237.345C104.6 237.235 105.143 237.14 105.672 237.06L105.856 237.986C105.59 238.024 105.311 238.069 105.019 238.12C104.727 238.166 104.435 238.217 104.143 238.272C103.851 238.323 103.576 238.378 103.317 238.437C103.059 238.492 102.831 238.549 102.632 238.608C102.272 238.706 101.961 238.875 101.699 239.116C101.441 239.357 101.235 239.69 101.083 240.113C100.935 240.536 100.846 241.069 100.816 241.712H100.893C101.02 241.526 101.193 241.342 101.413 241.16C101.633 240.978 101.896 240.828 102.2 240.709C102.505 240.587 102.848 240.525 103.229 240.525C103.829 240.525 104.331 240.657 104.733 240.919C105.135 241.177 105.438 241.541 105.641 242.011C105.844 242.48 105.945 243.031 105.945 243.661C105.945 244.419 105.814 245.056 105.552 245.572C105.294 246.088 104.93 246.477 104.46 246.74C103.99 246.998 103.438 247.127 102.803 247.127C102.312 247.127 101.872 247.032 101.483 246.841C101.098 246.651 100.77 246.372 100.499 246.003C100.232 245.635 100.027 245.185 99.8833 244.651C99.7437 244.118 99.6738 243.509 99.6738 242.823ZM102.886 246.251C103.288 246.251 103.633 246.166 103.92 245.997C104.212 245.828 104.437 245.561 104.593 245.197C104.754 244.829 104.834 244.351 104.834 243.763C104.834 243.026 104.693 242.451 104.409 242.036C104.13 241.617 103.681 241.408 103.063 241.408C102.678 241.408 102.329 241.49 102.016 241.655C101.703 241.816 101.438 242.009 101.223 242.233C101.007 242.457 100.85 242.658 100.753 242.836C100.753 243.268 100.785 243.687 100.848 244.093C100.912 244.499 101.022 244.865 101.178 245.191C101.335 245.517 101.551 245.775 101.826 245.965C102.105 246.156 102.458 246.251 102.886 246.251ZM111.036 239.916C111.904 239.916 112.596 240.214 113.112 240.811C113.628 241.408 113.886 242.305 113.886 243.502C113.886 244.294 113.768 244.958 113.531 245.496C113.294 246.033 112.959 246.439 112.528 246.714C112.1 246.989 111.595 247.127 111.011 247.127C110.643 247.127 110.319 247.078 110.04 246.981C109.76 246.884 109.521 246.752 109.322 246.587C109.123 246.422 108.958 246.243 108.827 246.048H108.751C108.764 246.213 108.778 246.412 108.795 246.645C108.817 246.877 108.827 247.08 108.827 247.254V250.11H107.767V240.043H108.637L108.776 241.071H108.827C108.963 240.86 109.128 240.667 109.322 240.494C109.517 240.316 109.754 240.176 110.033 240.075C110.317 239.969 110.651 239.916 111.036 239.916ZM110.852 240.805C110.37 240.805 109.98 240.898 109.684 241.084C109.392 241.27 109.178 241.549 109.043 241.922C108.908 242.29 108.836 242.753 108.827 243.312V243.515C108.827 244.103 108.891 244.601 109.018 245.007C109.149 245.413 109.362 245.722 109.659 245.934C109.959 246.145 110.361 246.251 110.865 246.251C111.296 246.251 111.656 246.135 111.944 245.902C112.232 245.669 112.445 245.345 112.585 244.931C112.729 244.512 112.801 244.031 112.801 243.49C112.801 242.669 112.64 242.017 112.318 241.535C112.001 241.048 111.512 240.805 110.852 240.805ZM118.33 239.929C119.159 239.929 119.775 240.115 120.177 240.487C120.579 240.86 120.78 241.454 120.78 242.271V247H120.012L119.809 245.972H119.758C119.563 246.226 119.36 246.439 119.148 246.613C118.937 246.782 118.691 246.911 118.412 247C118.137 247.085 117.799 247.127 117.396 247.127C116.973 247.127 116.597 247.053 116.267 246.905C115.941 246.757 115.683 246.532 115.492 246.232C115.306 245.931 115.213 245.551 115.213 245.089C115.213 244.395 115.488 243.862 116.038 243.49C116.588 243.117 117.426 242.914 118.552 242.88L119.751 242.83V242.404C119.751 241.803 119.622 241.382 119.364 241.141C119.106 240.9 118.742 240.779 118.272 240.779C117.909 240.779 117.562 240.832 117.231 240.938C116.901 241.044 116.588 241.169 116.292 241.312L115.968 240.513C116.281 240.352 116.641 240.214 117.047 240.1C117.454 239.986 117.881 239.929 118.33 239.929ZM119.739 243.572L118.679 243.617C117.811 243.651 117.2 243.792 116.844 244.042C116.489 244.292 116.311 244.645 116.311 245.102C116.311 245.5 116.432 245.794 116.673 245.984C116.914 246.175 117.234 246.27 117.631 246.27C118.249 246.27 118.755 246.099 119.148 245.756C119.542 245.413 119.739 244.899 119.739 244.213V243.572ZM131.101 240.043L128.207 243.426L131.349 247H130.143L127.096 243.471V247H126.112V243.471L123.071 247H121.865L125.007 243.426L122.106 240.043H123.268L126.112 243.42V240.043H127.096V243.42L129.952 240.043H131.101ZM135.113 239.929C135.942 239.929 136.558 240.115 136.96 240.487C137.362 240.86 137.563 241.454 137.563 242.271V247H136.795L136.592 245.972H136.541C136.346 246.226 136.143 246.439 135.932 246.613C135.72 246.782 135.475 246.911 135.195 247C134.92 247.085 134.582 247.127 134.18 247.127C133.757 247.127 133.38 247.053 133.05 246.905C132.724 246.757 132.466 246.532 132.275 246.232C132.089 245.931 131.996 245.551 131.996 245.089C131.996 244.395 132.271 243.862 132.821 243.49C133.371 243.117 134.209 242.914 135.335 242.88L136.535 242.83V242.404C136.535 241.803 136.406 241.382 136.147 241.141C135.889 240.9 135.525 240.779 135.056 240.779C134.692 240.779 134.345 240.832 134.015 240.938C133.685 241.044 133.371 241.169 133.075 241.312L132.751 240.513C133.065 240.352 133.424 240.214 133.831 240.1C134.237 239.986 134.664 239.929 135.113 239.929ZM136.522 243.572L135.462 243.617C134.594 243.651 133.983 243.792 133.627 244.042C133.272 244.292 133.094 244.645 133.094 245.102C133.094 245.5 133.215 245.794 133.456 245.984C133.697 246.175 134.017 246.27 134.415 246.27C135.032 246.27 135.538 246.099 135.932 245.756C136.325 245.413 136.522 244.899 136.522 244.213V243.572ZM144.476 240.938H142.184V247H141.143V240.938H138.883V240.043H144.476V240.938ZM146.913 242.912H149.046C149.638 242.912 150.131 242.986 150.525 243.134C150.918 243.282 151.213 243.502 151.407 243.794C151.606 244.086 151.706 244.448 151.706 244.88C151.706 245.312 151.608 245.686 151.414 246.003C151.223 246.321 150.927 246.566 150.525 246.74C150.127 246.913 149.613 247 148.982 247H145.853V240.043H146.913V242.912ZM150.646 244.931C150.646 244.503 150.493 244.207 150.188 244.042C149.888 243.873 149.467 243.788 148.925 243.788H146.913V246.143H148.932C149.439 246.143 149.852 246.05 150.169 245.864C150.487 245.673 150.646 245.362 150.646 244.931ZM156.308 247.127C155.681 247.127 155.129 246.998 154.651 246.74C154.173 246.482 153.8 246.088 153.534 245.559C153.267 245.03 153.134 244.364 153.134 243.56C153.134 242.717 153.273 242.03 153.553 241.497C153.836 240.959 154.226 240.561 154.721 240.303C155.216 240.045 155.779 239.916 156.409 239.916C156.756 239.916 157.09 239.952 157.412 240.024C157.738 240.092 158.005 240.178 158.212 240.284L157.895 241.167C157.683 241.082 157.438 241.006 157.158 240.938C156.883 240.87 156.625 240.836 156.384 240.836C155.901 240.836 155.499 240.94 155.178 241.147C154.86 241.355 154.621 241.66 154.46 242.062C154.304 242.464 154.226 242.959 154.226 243.547C154.226 244.11 154.302 244.59 154.454 244.988C154.611 245.386 154.841 245.69 155.146 245.902C155.455 246.109 155.84 246.213 156.301 246.213C156.669 246.213 157.002 246.175 157.298 246.099C157.594 246.018 157.863 245.925 158.104 245.819V246.759C157.871 246.877 157.611 246.968 157.323 247.032C157.04 247.095 156.701 247.127 156.308 247.127ZM160.091 247H158.859L160.865 244.067C160.573 244.004 160.302 243.896 160.053 243.744C159.803 243.587 159.6 243.373 159.443 243.103C159.291 242.832 159.215 242.495 159.215 242.093C159.215 241.425 159.437 240.917 159.881 240.57C160.33 240.219 160.92 240.043 161.652 240.043H164.731V247H163.677V244.207H161.913L160.091 247ZM160.237 242.1C160.237 242.514 160.385 242.823 160.681 243.026C160.977 243.225 161.401 243.325 161.951 243.325H163.677V240.925H161.767C161.225 240.925 160.833 241.035 160.592 241.255C160.355 241.471 160.237 241.753 160.237 242.1ZM172.12 239.916C172.64 239.916 173.091 239.988 173.472 240.132C173.853 240.271 174.147 240.477 174.354 240.748C174.561 241.018 174.665 241.348 174.665 241.738C174.665 242.157 174.551 242.491 174.322 242.741C174.094 242.99 173.778 243.17 173.376 243.28V243.331C173.66 243.407 173.916 243.517 174.145 243.661C174.377 243.801 174.561 243.987 174.697 244.22C174.836 244.448 174.906 244.734 174.906 245.077C174.906 245.466 174.8 245.817 174.589 246.13C174.377 246.439 174.056 246.683 173.624 246.86C173.192 247.038 172.646 247.127 171.986 247.127C171.66 247.127 171.352 247.108 171.06 247.07C170.768 247.036 170.503 246.985 170.266 246.917C170.029 246.85 169.822 246.769 169.644 246.676V245.718C169.94 245.862 170.287 245.989 170.685 246.099C171.083 246.209 171.512 246.264 171.974 246.264C172.329 246.264 172.649 246.223 172.932 246.143C173.216 246.058 173.44 245.925 173.605 245.743C173.774 245.557 173.859 245.314 173.859 245.013C173.859 244.738 173.785 244.512 173.637 244.334C173.489 244.152 173.266 244.019 172.97 243.934C172.678 243.845 172.308 243.801 171.859 243.801H170.926V242.938H171.694C172.291 242.938 172.767 242.853 173.123 242.684C173.478 242.514 173.656 242.229 173.656 241.827C173.656 241.48 173.518 241.222 173.243 241.052C172.968 240.879 172.575 240.792 172.062 240.792C171.682 240.792 171.345 240.832 171.053 240.913C170.761 240.989 170.446 241.099 170.107 241.243L169.733 240.398C170.097 240.238 170.478 240.117 170.875 240.037C171.273 239.956 171.688 239.916 172.12 239.916ZM181.711 240.043V246.105H182.708V249.406H181.686V247H176.76V249.406H175.75V246.105H176.296C176.694 245.555 177.024 244.952 177.287 244.296C177.549 243.64 177.748 242.952 177.883 242.233C178.019 241.509 178.091 240.779 178.099 240.043H181.711ZM180.689 240.881H179.039C179 241.499 178.91 242.127 178.766 242.766C178.626 243.405 178.44 244.014 178.207 244.594C177.974 245.17 177.703 245.673 177.395 246.105H180.689V240.881ZM186.77 239.916C187.362 239.916 187.87 240.047 188.293 240.31C188.717 240.572 189.04 240.94 189.265 241.414C189.489 241.884 189.601 242.434 189.601 243.064V243.718H184.796C184.809 244.535 185.012 245.157 185.405 245.584C185.799 246.012 186.353 246.226 187.068 246.226C187.508 246.226 187.898 246.185 188.236 246.105C188.575 246.025 188.926 245.906 189.29 245.75V246.676C188.939 246.833 188.59 246.947 188.243 247.019C187.9 247.091 187.494 247.127 187.024 247.127C186.355 247.127 185.771 246.992 185.272 246.721C184.777 246.446 184.392 246.044 184.117 245.515C183.842 244.986 183.704 244.338 183.704 243.572C183.704 242.823 183.829 242.176 184.079 241.63C184.333 241.08 184.688 240.657 185.145 240.36C185.606 240.064 186.148 239.916 186.77 239.916ZM186.757 240.779C186.194 240.779 185.746 240.963 185.412 241.332C185.077 241.7 184.878 242.214 184.815 242.874H188.497C188.492 242.459 188.427 242.095 188.3 241.782C188.177 241.465 187.989 241.219 187.735 241.046C187.481 240.868 187.155 240.779 186.757 240.779ZM194.178 247.127C193.551 247.127 192.999 246.998 192.521 246.74C192.043 246.482 191.67 246.088 191.404 245.559C191.137 245.03 191.004 244.364 191.004 243.56C191.004 242.717 191.144 242.03 191.423 241.497C191.706 240.959 192.096 240.561 192.591 240.303C193.086 240.045 193.649 239.916 194.279 239.916C194.626 239.916 194.961 239.952 195.282 240.024C195.608 240.092 195.875 240.178 196.082 240.284L195.765 241.167C195.553 241.082 195.308 241.006 195.028 240.938C194.753 240.87 194.495 240.836 194.254 240.836C193.771 240.836 193.369 240.94 193.048 241.147C192.73 241.355 192.491 241.66 192.331 242.062C192.174 242.464 192.096 242.959 192.096 243.547C192.096 244.11 192.172 244.59 192.324 244.988C192.481 245.386 192.711 245.69 193.016 245.902C193.325 246.109 193.71 246.213 194.171 246.213C194.54 246.213 194.872 246.175 195.168 246.099C195.464 246.018 195.733 245.925 195.974 245.819V246.759C195.741 246.877 195.481 246.968 195.193 247.032C194.91 247.095 194.571 247.127 194.178 247.127ZM198.685 242.912H200.817C201.41 242.912 201.903 242.986 202.296 243.134C202.69 243.282 202.984 243.502 203.179 243.794C203.378 244.086 203.477 244.448 203.477 244.88C203.477 245.312 203.38 245.686 203.185 246.003C202.995 246.321 202.698 246.566 202.296 246.74C201.899 246.913 201.384 247 200.754 247H197.625V240.043H198.685V242.912ZM202.417 244.931C202.417 244.503 202.265 244.207 201.96 244.042C201.66 243.873 201.238 243.788 200.697 243.788H198.685V246.143H200.703C201.211 246.143 201.624 246.05 201.941 245.864C202.258 245.673 202.417 245.362 202.417 244.931ZM205.134 246.34C205.134 246.044 205.206 245.834 205.35 245.711C205.493 245.584 205.669 245.521 205.876 245.521C206.092 245.521 206.274 245.584 206.422 245.711C206.57 245.834 206.645 246.044 206.645 246.34C206.645 246.632 206.57 246.846 206.422 246.981C206.274 247.112 206.092 247.178 205.876 247.178C205.669 247.178 205.493 247.112 205.35 246.981C205.206 246.846 205.134 246.632 205.134 246.34Z" fill="#B9BCC8"/>
</svg>
