<svg width="214" height="256" viewBox="0 0 214 256" fill="none" xmlns="http://www.w3.org/2000/svg">
<path d="M176.427 157.92C164.69 165.745 62.2545 163.967 43.9246 160.766C25.5937 157.564 24.1978 147.961 29.1763 143.69C31.7095 141.517 33.1637 139.384 33.453 137.452C33.7328 135.587 33.4724 131.707 31.7399 130.071C18.1508 117.24 24.2676 103.053 26.6989 100.88C33.3328 94.9521 36.0785 91.8729 31.6669 76.9146C25.7659 56.908 45.5521 47.3325 62.59 46.5508C74.4665 46.0058 95.6555 51.2096 109.876 59.3975C124.096 67.5844 150.249 62.4756 160.351 62.5984C170.453 62.7213 187.608 74.4041 180.811 86.2245C174.326 97.4999 174.444 102.477 185.53 112.316C193.989 119.823 173.41 130.541 180.811 136.427C181.244 136.773 181.654 137.114 182.041 137.452C190.374 144.746 187.645 150.441 176.427 157.92Z" fill="#F8FEFA"/>
<path d="M161.616 137.453H182.04C182.04 137.453 192.721 132.453 191.521 128.581C190.32 124.709 185.613 131.981 184.146 132.991C182.679 134.002 183.251 130 187.92 123.953C192.588 117.907 191.387 109.566 187.52 105C183.651 100.434 177.249 100.701 178.85 104.302C180.45 107.904 186.186 114.793 184.051 119.951C181.917 125.109 176.636 133.579 176.636 133.579C176.636 133.579 174.422 129.408 176.636 123.324C178.85 117.24 179.25 101.422 172.981 92.2585C166.712 83.0947 162.488 89.9517 163.466 92.2585C164.444 94.5654 170.58 99.367 171.38 104.302C172.18 109.237 169.246 127.515 170.58 131.714C166.445 122.842 167.779 106.95 164.711 102.025C161.644 97.1001 159.974 95.7613 156.868 95.8275C153.762 95.8936 154.335 100.19 157.722 102.98C161.11 105.769 162.177 127.03 164.578 130.671C164.578 130.671 161.953 123.026 158.335 118.002C154.717 112.978 139.724 117.092 146.038 123.398C152.353 129.704 161.454 127.122 161.616 137.453Z" fill="#A2EEC5"/>
<path d="M176.427 157.919C164.69 165.744 62.2545 163.966 43.9247 160.765C25.5938 157.563 24.1978 147.96 29.1764 143.69C31.7095 141.517 33.1637 139.384 33.453 137.451H182.04C190.374 144.746 187.645 150.441 176.427 157.919Z" fill="#E8F4EE"/>
<path d="M173.089 148.049C173.319 145.383 157.309 141.828 137.331 140.109C117.353 138.391 100.972 139.159 100.742 141.826C100.513 144.493 116.522 148.047 136.501 149.766C156.479 151.484 172.86 150.716 173.089 148.049Z" fill="#CEE4D8"/>
<path d="M95.4429 66.5176H55.7429V137.544H95.4429V66.5176Z" fill="#EFC9B6"/>
<path d="M92.5911 69.3613H58.1427V137.717H92.5911V69.3613Z" fill="#FDDEC1"/>
<path d="M71.6058 89.6227C73.0138 84.601 71.4861 87.4972 69.5467 89.7224L69.3122 92.4041C71.3713 92.3043 75.6232 91.8556 76.1577 90.8584C76.6922 89.8613 73.3458 89.6191 71.6058 89.6227Z" fill="#FEBE76"/>
<path d="M169.185 145.579L166.802 145.766L162.181 127.674L164.463 127.091L169.185 145.579Z" fill="#EFC9B6"/>
<path d="M162.227 127.853L162.965 130.742C162.965 130.742 163.942 130.951 165.161 129.823L164.463 127.091L162.227 127.853Z" fill="#CAA492"/>
<path d="M146.065 145.579L148.448 145.766L153.069 127.674L150.787 127.091L146.065 145.579Z" fill="#EFC9B6"/>
<path d="M148.402 136.429C148.402 136.429 150.643 135.477 151.071 135.496L151.664 133.176L149.335 132.779L148.402 136.429Z" fill="#CAA492"/>
<path d="M125.668 142.122L123.285 142.273L118.664 127.565L120.946 127.091L125.668 142.122Z" fill="#EFC9B6"/>
<path d="M118.709 127.71L119.447 130.06C119.447 130.06 120.425 130.229 121.644 129.313L120.946 127.091L118.709 127.71Z" fill="white"/>
<path d="M102.548 142.122L104.932 142.273L109.553 127.565L107.271 127.091L102.548 142.122Z" fill="#EFC9B6"/>
<path d="M104.886 134.682C104.886 134.682 107.126 133.909 107.555 133.924L108.147 132.037L105.818 131.714L104.886 134.682Z" fill="#CAA492"/>
<path d="M150.284 133.58C151.716 133.735 153.423 134.431 154.241 132.571C155.059 130.712 157.236 129.289 163.646 129.556C170.055 129.822 171.87 123.206 172.348 121.045C172.825 118.885 175.691 109.79 174.067 109.167C172.443 108.545 145.412 109.167 145.412 109.167H123.008L119.043 126.183C119.043 126.183 103.78 125.67 101.38 128.124C98.9788 130.578 102.05 132.592 102.05 132.592L150.284 133.58Z" fill="#FAF5F3"/>
<path d="M55.1504 145.082C62.3292 144.995 68.1366 143.939 68.1218 142.724C68.107 141.509 62.2755 140.595 55.0967 140.682C47.918 140.77 42.1105 141.826 42.1254 143.041C42.1402 144.256 47.9717 145.17 55.1504 145.082Z" fill="#CEE4D8"/>
<path d="M49.3081 139.72C49.3081 139.72 49.4719 140.655 51.0852 141.394C52.6985 142.134 54.8831 142.342 55.082 143.782C55.281 145.221 50.8637 144.089 49.0199 143.964C47.1761 143.838 45.1711 143.492 45.1711 143.492L45.2819 138.352C45.2813 138.352 48.4807 138.612 49.3081 139.72Z" fill="#424D55"/>
<path d="M55.0814 143.782L45.1888 142.638L45.1705 143.492C45.1705 143.492 55.5481 145.656 55.0814 143.782Z" fill="#67809F"/>
<path d="M60.3797 138.993C60.3797 138.993 60.5435 139.928 62.1569 140.668C63.7702 141.408 65.9547 141.616 66.1537 143.055C66.3527 144.495 61.9353 143.362 60.0915 143.237C58.2477 143.111 56.2427 142.765 56.2427 142.765L56.3535 137.626C56.353 137.625 59.5523 137.885 60.3797 138.993Z" fill="#424D55"/>
<path d="M66.1537 143.055L56.2611 141.912L56.2427 142.766C56.2427 142.766 66.6204 144.929 66.1537 143.055Z" fill="#67809F"/>
<path d="M48.9478 103.295C48.9478 103.295 48.836 109.443 51.5907 116.948C54.1269 123.857 54.0797 124.057 54.3254 125.744C54.5711 127.431 55.1759 140.507 55.7429 141.429C55.7429 141.429 57.6765 140.083 61.9846 140.083C61.9846 140.083 61.1955 133.038 60.7356 123.564C60.2757 114.09 59.4935 102.186 59.4935 102.186L48.9478 103.295Z" fill="#4893D8"/>
<path d="M44.3294 102.699C44.3294 102.699 43.1382 108.732 44.53 116.604C45.8115 123.851 45.7301 124.04 45.675 125.744C45.6199 127.448 44.9998 142.273 45.1888 142.639C45.5485 143.336 47.827 140.519 50.7397 140.867C51.3177 140.936 51.1555 134.132 52.3687 124.725C53.582 115.318 55.3707 103.496 55.3707 103.496L44.3294 102.699Z" fill="#68A7E2"/>
<path d="M56.0931 90.8865C56.0931 90.8865 59.2305 97.0401 61.4213 97.7451C63.6121 98.4497 71.3737 91.2519 71.3737 91.2519L69.8124 89.5851C69.8124 89.5851 63.6914 92.9372 62.4503 92.6112C61.2092 92.2851 58.3432 84.7173 58.3432 84.7173L56.0931 90.8865Z" fill="#FEBE76"/>
<path d="M56.0196 93.9636C55.4673 91.0152 49.3227 80.5058 54.8084 80.6381C57.3269 80.699 62.495 90.7737 62.495 90.7737L56.0196 93.9636Z" fill="#4893D8"/>
<path d="M61.9846 92.1844C61.9846 92.1844 59.3922 93.268 59.0409 94.9548L58.3438 92.4972L61.5011 91.2625L61.9846 92.1844Z" fill="#F0932B"/>
<path d="M43.8033 110.464C43.8033 110.464 48.1682 113.061 54.223 112.713C60.2778 112.365 56.5283 107.041 56.5283 107.041L43.8926 106.739L43.8033 110.464Z" fill="#4893D8"/>
<path d="M60.1639 109.167C60.1639 109.167 47.7582 111.068 41.833 109.167C41.833 109.167 41.1154 103.881 41.0865 98.4004C41.0713 95.6961 41.1637 92.775 41.4718 90.0818C42.0472 85.0428 40.7762 80.3666 49.3888 79.6505C60.0505 81.5542 56.7619 81.865 58.1427 89.7846C58.726 93.1289 59.4001 97.8481 59.4389 103.529C59.4431 104.158 60.0448 104.731 60.0474 105.274C60.0537 107.376 60.1639 109.167 60.1639 109.167Z" fill="#68A7E2"/>
<path d="M60.0511 105.782C57.0029 105.981 52.3572 106.079 47.7283 105.062C44.0013 104.243 42.0782 101.223 41.0865 98.4004C41.0713 95.6961 41.1637 92.775 41.4718 90.0818C42.8216 89.0281 44.6796 88.7792 45.0938 90.6976C45.7879 93.9153 46.085 98.4708 48.3551 100.532C49.0413 101.157 56.3792 104.07 56.6491 103.322C56.92 102.575 59.1134 99.7229 59.3003 100.983C59.5282 102.518 60.0484 105.239 60.0511 105.782Z" fill="#4893D8"/>
<path d="M48.8492 98.9863C48.8492 98.9863 47.9404 94.2145 47.9966 88.1414C48.0527 82.0682 45.275 81.5542 45.275 81.5542C45.275 81.5542 47.5934 90.623 46.9481 95.0409C46.3029 99.4593 47.9855 99.1306 48.8492 98.9863Z" fill="#4893D8"/>
<path d="M40.9489 89.0139C40.9489 89.0139 39.6931 99.4462 46.8693 102.121C53.3856 104.55 62.1568 104.76 62.1568 104.76C62.1568 104.76 62.4178 103.165 59.4326 102.764C56.5215 102.372 58.3369 100.844 58.8982 99.7008C59.4594 98.5579 56.3188 100.943 55.9461 101.646C55.5733 102.349 48.7168 98.4382 48.1236 97.7242C46.1653 95.3648 46.5087 90.8126 46.2708 87.5287C46.033 84.2448 40.9148 86.4341 40.9489 89.0139Z" fill="#FEBE76"/>
<path d="M42.0824 97.3908C42.0824 97.3908 43.1256 95.7366 47.031 95.5628L46.2252 91.808L41.0571 93.6061C41.0565 93.6061 41.5338 96.3025 42.0824 97.3908Z" fill="#F0932B"/>
<path d="M40.2433 95.4011C39.691 92.4527 40.5867 81.781 45.2744 80.637C47.722 80.0396 47.3991 94.5212 47.3991 94.5212L40.2433 95.4011Z" fill="#68A7E2"/>
<path d="M47.9404 72.7604C47.9404 72.7604 48.9263 77.1462 47.7587 80.3755C47.7587 80.3755 48.9148 82.529 52.5184 81.2953L52.6796 74.5585L47.9404 72.7604Z" fill="#FEBE76"/>
<path d="M47.0016 69.5652C47.0016 69.5652 47.271 76.6464 49.3368 77.4087C51.4027 78.171 54.2514 78.2939 54.5805 75.9986C54.9097 73.7033 54.9685 68.9332 54.1595 68.3656C53.351 67.7976 47.3833 67.3807 47.0016 69.5652Z" fill="#FEBE76"/>
<path d="M47.927 75.1279C47.927 75.1279 45.2536 71.7787 46.4905 68.5953C47.7274 65.4118 54.1538 65.6332 55.0695 67.1316C55.9853 68.63 52.3127 68.3692 51.8058 69.3393C51.299 70.3094 50.9548 71.5801 50.9548 71.5801L49.9411 71.5573C49.9411 71.5573 49.6992 69.7982 48.7556 69.7168C47.3597 69.5961 48.6849 72.5046 48.6849 72.5046C48.6849 72.5046 48.856 74.3206 47.927 75.1279Z" fill="#584B46"/>
<path d="M52.6003 77.8514C52.6003 77.8514 50.1344 77.4398 49.3889 76.3845C49.3889 76.3845 49.508 78.2183 52.5756 78.8846L52.6003 77.8514Z" fill="#F0932B"/>
<path d="M88.1733 102.348C89.4421 102.348 90.4707 101.172 90.4707 99.7218C90.4707 98.2714 89.4421 97.0957 88.1733 97.0957C86.9044 97.0957 85.8759 98.2714 85.8759 99.7218C85.8759 101.172 86.9044 102.348 88.1733 102.348Z" fill="#E0BBA3"/>
<path d="M88.2803 100.051C88.8199 100.051 89.2574 99.5506 89.2574 98.9336C89.2574 98.3166 88.8199 97.8164 88.2803 97.8164C87.7407 97.8164 87.3033 98.3166 87.3033 98.9336C87.3033 99.5506 87.7407 100.051 88.2803 100.051Z" fill="#FEE8D3"/>
<path d="M120.503 72.6133H101.83V97.0442H120.503V72.6133Z" fill="#E0BBA3"/>
<path d="M119.448 73.1472H102.621V96.2887H119.448V73.1472Z" fill="white"/>
<path d="M112.055 82.9931H106.483C105.614 82.9931 104.907 82.2859 104.907 81.4165V77.741H105.214V81.4165C105.214 82.1163 105.783 82.6854 106.483 82.6854H112.055V82.9931Z" fill="#FDDEC1"/>
<path d="M112.228 83.3784C112.525 83.3784 112.767 83.137 112.767 82.8392C112.767 82.5414 112.525 82.3 112.228 82.3C111.93 82.3 111.688 82.5414 111.688 82.8392C111.688 83.137 111.93 83.3784 112.228 83.3784Z" fill="#FDDEC1"/>
<path d="M118.137 95.3678H117.829V93.5156C117.829 93.2494 117.308 92.9523 116.561 92.9523H110.988V92.6447H116.561C117.445 92.6447 118.137 93.0274 118.137 93.5156V95.3678Z" fill="#FDDEC1"/>
<path d="M110.906 93.3294C111.2 93.2817 111.399 93.0047 111.352 92.7108C111.304 92.4168 111.027 92.2172 110.733 92.2649C110.439 92.3126 110.24 92.5896 110.287 92.8835C110.335 93.1775 110.612 93.3771 110.906 93.3294Z" fill="#FDDEC1"/>
<path d="M117.091 94.6008H112.228V94.9085H117.091V94.6008Z" fill="#95AFC0"/>
<path d="M117.091 95.6733H112.228V95.981H117.091V95.6733Z" fill="#95AFC0"/>
<path d="M107.902 74.0969H103.039V74.4046H107.902V74.0969Z" fill="#95AFC0"/>
<path d="M114.312 74.0969H109.449V74.4046H114.312V74.0969Z" fill="#95AFC0"/>
<path d="M114.312 77.7247H109.449V78.0324H114.312V77.7247Z" fill="#95AFC0"/>
<path d="M107.902 84.0132H103.039V84.3208H107.902V84.0132Z" fill="#95AFC0"/>
<path d="M107.902 88.8572H103.039V89.1648H107.902V88.8572Z" fill="#95AFC0"/>
<path d="M114.12 84.0132H109.257V84.3208H114.12V84.0132Z" fill="#95AFC0"/>
<path d="M107.902 75.17H103.039V75.4777H107.902V75.17Z" fill="#95AFC0"/>
<path d="M114.312 75.17H109.449V75.4777H114.312V75.17Z" fill="#95AFC0"/>
<path d="M114.312 78.7979H109.449V79.1055H114.312V78.7979Z" fill="#95AFC0"/>
<path d="M107.902 85.0863H103.039V85.3939H107.902V85.0863Z" fill="#95AFC0"/>
<path d="M107.902 89.9304H103.039V90.2381H107.902V89.9304Z" fill="#95AFC0"/>
<path d="M114.12 85.0863H109.257V85.3939H114.12V85.0863Z" fill="#95AFC0"/>
<path d="M107.902 75.979H103.039V76.2867H107.902V75.979Z" fill="#95AFC0"/>
<path d="M114.312 75.979H109.449V76.2867H114.312V75.979Z" fill="#95AFC0"/>
<path d="M114.312 79.6068H109.449V79.9145H114.312V79.6068Z" fill="#95AFC0"/>
<path d="M107.902 85.8953H103.039V86.2029H107.902V85.8953Z" fill="#95AFC0"/>
<path d="M107.902 90.7394H103.039V91.047H107.902V90.7394Z" fill="#95AFC0"/>
<path d="M114.12 85.8953H109.257V86.2029H114.12V85.8953Z" fill="#95AFC0"/>
<path d="M107.902 76.9152H103.039V77.2228H107.902V76.9152Z" fill="#95AFC0"/>
<path d="M114.312 76.9152H109.449V77.2228H114.312V76.9152Z" fill="#95AFC0"/>
<path d="M114.312 80.543H109.449V80.8506H114.312V80.543Z" fill="#95AFC0"/>
<path d="M107.902 86.8314H103.039V87.1391H107.902V86.8314Z" fill="#95AFC0"/>
<path d="M107.902 91.6755H103.039V91.9832H107.902V91.6755Z" fill="#95AFC0"/>
<path d="M114.12 86.8314H109.257V87.1391H114.12V86.8314Z" fill="#95AFC0"/>
<path d="M33.453 137.452C33.453 137.452 28.2592 130.07 23.205 128.923C18.1508 127.776 16.612 110.772 20.8184 107.102C20.8184 107.102 19.6565 118.339 26.2395 123.191C32.8225 128.042 31.7399 130.07 31.7399 130.07C31.7399 130.07 32.5558 122.976 28.5542 117.24C24.5527 111.504 20.0177 100.488 24.286 92.2577C28.5542 84.0272 28.0439 76.3024 26.6984 73.0957C26.6984 73.0957 32.8225 80.5958 31.7552 87.2465C30.6884 93.8972 27.2202 104.2 29.0876 108.519C30.9551 112.837 34.9561 120.396 34.9561 123.952C34.9561 123.952 37.8903 111.468 34.9561 105.884C32.0219 100.3 37.2582 85.7739 40.7757 80.3659C40.7757 80.3659 39.5068 108.614 40.8786 116.639C43.4553 131.714 37.1926 137.452 37.1926 137.452H33.453Z" fill="#A2EEC5"/>
<path d="M29.9119 115.042C29.9119 115.042 22.4191 105.325 25.4425 96.9442C28.466 88.5637 28.6435 78.6895 28.6435 78.6895C28.6435 78.6895 30.4447 88.9637 26.6989 98.2783C26.6989 98.2777 25.3118 104.173 29.9119 115.042Z" fill="#E8F9F0"/>
<path d="M39.752 89.4141C39.752 89.4141 35.5793 94.8772 37.8908 107.103C40.2029 119.33 37.1931 127.091 37.1931 127.091C37.1931 127.091 41.8992 115.35 38.4725 102.757C38.4725 102.757 38.0562 92.5761 39.752 89.4141Z" fill="#E8F9F0"/>
<path d="M19.5736 113.689C19.5736 113.689 17.2468 122.581 24.7233 127.091C32.1999 131.6 26.8501 125.705 24.7233 124.651C22.5966 123.597 20.6404 120.143 19.5736 113.689Z" fill="#E8F9F0"/>
<path d="M181.407 103.53C180.743 104.406 189.196 112.411 187.169 118.894C185.141 125.377 189.766 118.111 189.232 114.008C188.698 109.904 183.164 101.209 181.407 103.53Z" fill="#E8F9F0"/>
<path d="M166.903 89.4131C165.193 88.3752 171.626 96.4907 173.226 100.441C174.827 104.391 174.56 116.335 174.56 116.335C174.56 116.335 180.32 97.5543 166.903 89.4131Z" fill="#E8F9F0"/>
<path d="M36.4648 207V196.292H44.4409V207H43.2104V197.391H37.71V207H36.4648ZM54.1309 202.972C54.1309 203.631 54.0454 204.219 53.8745 204.737C53.7036 205.254 53.457 205.691 53.1348 206.048C52.8125 206.404 52.4219 206.678 51.9629 206.868C51.5088 207.054 50.9937 207.146 50.4175 207.146C49.8804 207.146 49.3872 207.054 48.938 206.868C48.4937 206.678 48.1079 206.404 47.7808 206.048C47.4585 205.691 47.207 205.254 47.0264 204.737C46.8506 204.219 46.7627 203.631 46.7627 202.972C46.7627 202.093 46.9116 201.346 47.2095 200.73C47.5073 200.11 47.9321 199.639 48.4839 199.317C49.0405 198.99 49.7021 198.826 50.4688 198.826C51.2012 198.826 51.8408 198.99 52.3877 199.317C52.9395 199.644 53.3667 200.118 53.6694 200.738C53.9771 201.353 54.1309 202.098 54.1309 202.972ZM48.0225 202.972C48.0225 203.616 48.1079 204.175 48.2788 204.649C48.4497 205.123 48.7134 205.489 49.0698 205.748C49.4263 206.006 49.8853 206.136 50.4468 206.136C51.0034 206.136 51.46 206.006 51.8164 205.748C52.1777 205.489 52.4438 205.123 52.6147 204.649C52.7856 204.175 52.8711 203.616 52.8711 202.972C52.8711 202.332 52.7856 201.78 52.6147 201.316C52.4438 200.848 52.1802 200.486 51.8237 200.232C51.4673 199.979 51.0059 199.852 50.4395 199.852C49.6045 199.852 48.9917 200.127 48.6011 200.679C48.2153 201.231 48.0225 201.995 48.0225 202.972ZM60.9131 198.973H62.2534L58.7891 202.847L62.5317 207H61.1035L57.4561 202.928V207H56.2329V198.973H57.4561V202.869L60.9131 198.973ZM66.9849 198.841C67.9419 198.841 68.6523 199.056 69.1162 199.485C69.5801 199.915 69.812 200.601 69.812 201.543V207H68.9258L68.6914 205.813H68.6328C68.4082 206.106 68.1738 206.353 67.9297 206.553C67.6855 206.749 67.4023 206.897 67.0801 207C66.7627 207.098 66.3721 207.146 65.9082 207.146C65.4199 207.146 64.9854 207.061 64.6045 206.89C64.2285 206.719 63.9307 206.46 63.7109 206.114C63.4961 205.767 63.3887 205.328 63.3887 204.795C63.3887 203.995 63.7061 203.379 64.3408 202.95C64.9756 202.52 65.9424 202.286 67.2412 202.247L68.6255 202.188V201.697C68.6255 201.004 68.4766 200.518 68.1787 200.24C67.8809 199.961 67.4609 199.822 66.9189 199.822C66.499 199.822 66.0986 199.883 65.7178 200.005C65.3369 200.127 64.9756 200.271 64.6338 200.438L64.2603 199.515C64.6216 199.329 65.0366 199.17 65.5054 199.039C65.9741 198.907 66.4673 198.841 66.9849 198.841ZM68.6108 203.045L67.3877 203.096C66.3867 203.135 65.6812 203.299 65.271 203.587C64.8608 203.875 64.6558 204.283 64.6558 204.81C64.6558 205.269 64.7949 205.608 65.0732 205.828C65.3516 206.048 65.7202 206.158 66.1792 206.158C66.8921 206.158 67.4756 205.96 67.9297 205.564C68.3838 205.169 68.6108 204.576 68.6108 203.785V203.045ZM77.4365 198.973V202.342H81.9116V198.973H83.1274V207H81.9116V203.375H77.4365V207H76.2134V198.973H77.4365ZM88.7964 198.826C89.48 198.826 90.0659 198.978 90.5542 199.28C91.0425 199.583 91.416 200.008 91.6748 200.555C91.9336 201.097 92.063 201.731 92.063 202.459V203.213H86.5186C86.5332 204.156 86.7676 204.874 87.2217 205.367C87.6758 205.86 88.3154 206.106 89.1406 206.106C89.6484 206.106 90.0977 206.06 90.4883 205.967C90.8789 205.875 91.2842 205.738 91.7041 205.557V206.626C91.2988 206.807 90.896 206.939 90.4956 207.022C90.1001 207.105 89.6313 207.146 89.0894 207.146C88.3179 207.146 87.644 206.99 87.0679 206.678C86.4966 206.36 86.0522 205.896 85.7349 205.286C85.4175 204.676 85.2588 203.929 85.2588 203.045C85.2588 202.181 85.4028 201.434 85.6909 200.804C85.9839 200.169 86.394 199.681 86.9214 199.339C87.4536 198.997 88.0786 198.826 88.7964 198.826ZM88.7817 199.822C88.1323 199.822 87.6147 200.035 87.229 200.459C86.8433 200.884 86.6138 201.478 86.5405 202.239H90.7886C90.7837 201.761 90.708 201.341 90.5615 200.979C90.4199 200.613 90.2026 200.33 89.9097 200.13C89.6167 199.925 89.2407 199.822 88.7817 199.822ZM99.5996 200.005H96.9556V207H95.7544V200.005H93.147V198.973H99.5996V200.005ZM111.809 198.973V207H110.586V200.02H106.309V207H105.085V198.973H111.809ZM117.39 198.841C118.347 198.841 119.058 199.056 119.521 199.485C119.985 199.915 120.217 200.601 120.217 201.543V207H119.331L119.097 205.813H119.038C118.813 206.106 118.579 206.353 118.335 206.553C118.091 206.749 117.808 206.897 117.485 207C117.168 207.098 116.777 207.146 116.313 207.146C115.825 207.146 115.391 207.061 115.01 206.89C114.634 206.719 114.336 206.46 114.116 206.114C113.901 205.767 113.794 205.328 113.794 204.795C113.794 203.995 114.111 203.379 114.746 202.95C115.381 202.52 116.348 202.286 117.646 202.247L119.031 202.188V201.697C119.031 201.004 118.882 200.518 118.584 200.24C118.286 199.961 117.866 199.822 117.324 199.822C116.904 199.822 116.504 199.883 116.123 200.005C115.742 200.127 115.381 200.271 115.039 200.438L114.666 199.515C115.027 199.329 115.442 199.17 115.911 199.039C116.379 198.907 116.873 198.841 117.39 198.841ZM119.016 203.045L117.793 203.096C116.792 203.135 116.086 203.299 115.676 203.587C115.266 203.875 115.061 204.283 115.061 204.81C115.061 205.269 115.2 205.608 115.479 205.828C115.757 206.048 116.125 206.158 116.584 206.158C117.297 206.158 117.881 205.96 118.335 205.564C118.789 205.169 119.016 204.576 119.016 203.785V203.045ZM130.537 209.776H129.351V207H122.722V198.973H123.945V205.967H128.201V198.973H129.417V205.982H130.537V209.776ZM133.269 198.973V204.019C133.269 204.117 133.267 204.244 133.262 204.4C133.257 204.551 133.25 204.715 133.24 204.891C133.23 205.062 133.22 205.228 133.21 205.389C133.206 205.545 133.198 205.674 133.188 205.777L137.568 198.973H139.062V207H137.927V202.078C137.927 201.922 137.93 201.722 137.935 201.478C137.939 201.233 137.947 200.994 137.957 200.76C137.966 200.521 137.974 200.335 137.979 200.203L133.613 207H132.112V198.973H133.269ZM144.739 198.826C145.422 198.826 146.008 198.978 146.497 199.28C146.985 199.583 147.358 200.008 147.617 200.555C147.876 201.097 148.005 201.731 148.005 202.459V203.213H142.461C142.476 204.156 142.71 204.874 143.164 205.367C143.618 205.86 144.258 206.106 145.083 206.106C145.591 206.106 146.04 206.06 146.431 205.967C146.821 205.875 147.227 205.738 147.646 205.557V206.626C147.241 206.807 146.838 206.939 146.438 207.022C146.042 207.105 145.574 207.146 145.032 207.146C144.26 207.146 143.586 206.99 143.01 206.678C142.439 206.36 141.995 205.896 141.677 205.286C141.36 204.676 141.201 203.929 141.201 203.045C141.201 202.181 141.345 201.434 141.633 200.804C141.926 200.169 142.336 199.681 142.864 199.339C143.396 198.997 144.021 198.826 144.739 198.826ZM144.724 199.822C144.075 199.822 143.557 200.035 143.171 200.459C142.786 200.884 142.556 201.478 142.483 202.239H146.731C146.726 201.761 146.65 201.341 146.504 200.979C146.362 200.613 146.145 200.33 145.852 200.13C145.559 199.925 145.183 199.822 144.724 199.822ZM151.294 198.973V202.342H155.769V198.973H156.985V207H155.769V203.375H151.294V207H150.071V198.973H151.294ZM165.034 200.005H162.39V207H161.189V200.005H158.582V198.973H165.034V200.005ZM173.545 202.972C173.545 203.631 173.459 204.219 173.289 204.737C173.118 205.254 172.871 205.691 172.549 206.048C172.227 206.404 171.836 206.678 171.377 206.868C170.923 207.054 170.408 207.146 169.832 207.146C169.294 207.146 168.801 207.054 168.352 206.868C167.908 206.678 167.522 206.404 167.195 206.048C166.873 205.691 166.621 205.254 166.44 204.737C166.265 204.219 166.177 203.631 166.177 202.972C166.177 202.093 166.326 201.346 166.624 200.73C166.921 200.11 167.346 199.639 167.898 199.317C168.455 198.99 169.116 198.826 169.883 198.826C170.615 198.826 171.255 198.99 171.802 199.317C172.354 199.644 172.781 200.118 173.083 200.738C173.391 201.353 173.545 202.098 173.545 202.972ZM167.437 202.972C167.437 203.616 167.522 204.175 167.693 204.649C167.864 205.123 168.127 205.489 168.484 205.748C168.84 206.006 169.299 206.136 169.861 206.136C170.417 206.136 170.874 206.006 171.23 205.748C171.592 205.489 171.858 205.123 172.029 204.649C172.2 204.175 172.285 203.616 172.285 202.972C172.285 202.332 172.2 201.78 172.029 201.316C171.858 200.848 171.594 200.486 171.238 200.232C170.881 199.979 170.42 199.852 169.854 199.852C169.019 199.852 168.406 200.127 168.015 200.679C167.629 201.231 167.437 201.995 167.437 202.972ZM182.026 200.987C182.026 201.49 181.88 201.883 181.587 202.166C181.294 202.444 180.916 202.632 180.452 202.73V202.789C180.955 202.857 181.387 203.038 181.748 203.331C182.114 203.619 182.297 204.061 182.297 204.656C182.297 205.115 182.188 205.521 181.968 205.872C181.748 206.224 181.404 206.5 180.935 206.7C180.466 206.9 179.856 207 179.104 207H175.647V198.973H179.075C179.651 198.973 180.159 199.039 180.598 199.17C181.042 199.297 181.392 199.507 181.646 199.8C181.899 200.093 182.026 200.489 182.026 200.987ZM181.03 204.656C181.03 204.183 180.85 203.841 180.488 203.631C180.132 203.421 179.612 203.316 178.928 203.316H176.87V206.011H178.958C179.631 206.011 180.144 205.909 180.496 205.704C180.852 205.494 181.03 205.145 181.03 204.656ZM180.789 201.126C180.789 200.745 180.649 200.462 180.371 200.276C180.093 200.086 179.636 199.991 179.001 199.991H176.87V202.298H178.789C179.448 202.298 179.946 202.203 180.283 202.012C180.62 201.822 180.789 201.526 180.789 201.126Z" fill="#B9BCC8"/>
<path d="M13.8789 225.72V234.035H15.0215V237.425H13.9868V235H7.5376V237.425H6.50293V234.035H7.21387C7.53125 233.493 7.82747 232.886 8.10254 232.213C8.38184 231.536 8.62939 230.83 8.84521 230.093C9.06527 229.353 9.243 228.61 9.37842 227.865C9.51807 227.12 9.60693 226.405 9.64502 225.72H13.8789ZM12.8062 226.691H10.5972C10.5591 227.216 10.4744 227.802 10.3433 228.449C10.2121 229.092 10.0428 229.753 9.83545 230.43C9.63232 231.107 9.40381 231.756 9.1499 232.378C8.90023 233 8.63574 233.553 8.35645 234.035H12.8062V226.691ZM22.4355 231.509C22.4355 232.08 22.3615 232.59 22.2134 233.039C22.0653 233.487 21.8516 233.866 21.5723 234.175C21.293 234.484 20.9544 234.721 20.5566 234.886C20.1631 235.047 19.7166 235.127 19.2173 235.127C18.7518 235.127 18.3244 235.047 17.9351 234.886C17.55 234.721 17.2157 234.484 16.9321 234.175C16.6528 233.866 16.4349 233.487 16.2783 233.039C16.126 232.59 16.0498 232.08 16.0498 231.509C16.0498 230.747 16.1789 230.1 16.437 229.566C16.6951 229.029 17.0633 228.621 17.5415 228.341C18.0239 228.058 18.5973 227.916 19.2617 227.916C19.8965 227.916 20.4508 228.058 20.9248 228.341C21.403 228.625 21.7733 229.035 22.0356 229.573C22.3022 230.106 22.4355 230.751 22.4355 231.509ZM17.1416 231.509C17.1416 232.067 17.2157 232.552 17.3638 232.962C17.5119 233.373 17.7404 233.69 18.0493 233.915C18.3582 234.139 18.756 234.251 19.2427 234.251C19.7251 234.251 20.1208 234.139 20.4297 233.915C20.7428 233.69 20.9735 233.373 21.1216 232.962C21.2697 232.552 21.3438 232.067 21.3438 231.509C21.3438 230.954 21.2697 230.476 21.1216 230.074C20.9735 229.668 20.745 229.355 20.436 229.135C20.1271 228.915 19.7272 228.805 19.2363 228.805C18.5127 228.805 17.9816 229.044 17.6431 229.522C17.3088 230 17.1416 230.662 17.1416 231.509ZM23.8955 230.823C23.8955 229.833 23.9907 228.989 24.1812 228.291C24.3716 227.588 24.6657 227.025 25.0635 226.602C25.4655 226.175 25.9818 225.883 26.6123 225.726C27.154 225.578 27.7041 225.451 28.2627 225.345C28.8213 225.235 29.3651 225.14 29.894 225.06L30.0781 225.986C29.8115 226.024 29.5322 226.069 29.2402 226.12C28.9482 226.166 28.6562 226.217 28.3643 226.272C28.0723 226.323 27.7972 226.378 27.5391 226.437C27.2809 226.492 27.0524 226.549 26.8535 226.608C26.4938 226.706 26.1828 226.875 25.9204 227.116C25.6623 227.357 25.457 227.69 25.3047 228.113C25.1566 228.536 25.0677 229.069 25.0381 229.712H25.1143C25.2412 229.526 25.4147 229.342 25.6348 229.16C25.8548 228.978 26.1172 228.828 26.4219 228.709C26.7266 228.587 27.0693 228.525 27.4502 228.525C28.0511 228.525 28.5526 228.657 28.9546 228.919C29.3566 229.177 29.6592 229.541 29.8623 230.011C30.0654 230.48 30.167 231.031 30.167 231.661C30.167 232.419 30.0358 233.056 29.7734 233.572C29.5153 234.088 29.1514 234.477 28.6816 234.74C28.2119 234.998 27.6597 235.127 27.0249 235.127C26.534 235.127 26.0939 235.032 25.7046 234.841C25.3195 234.651 24.9915 234.372 24.7207 234.003C24.4541 233.635 24.2489 233.185 24.105 232.651C23.9653 232.118 23.8955 231.509 23.8955 230.823ZM27.1074 234.251C27.5094 234.251 27.8543 234.166 28.1421 233.997C28.4341 233.828 28.6584 233.561 28.8149 233.197C28.9757 232.829 29.0562 232.351 29.0562 231.763C29.0562 231.026 28.9144 230.451 28.6309 230.036C28.3516 229.617 27.903 229.408 27.2852 229.408C26.9001 229.408 26.5509 229.49 26.2378 229.655C25.9246 229.816 25.6602 230.009 25.4443 230.233C25.2285 230.457 25.0719 230.658 24.9746 230.836C24.9746 231.268 25.0063 231.687 25.0698 232.093C25.1333 232.499 25.2433 232.865 25.3999 233.191C25.5565 233.517 25.7723 233.775 26.0474 233.965C26.3267 234.156 26.68 234.251 27.1074 234.251ZM34.5913 227.929C35.4207 227.929 36.0365 228.115 36.4385 228.487C36.8405 228.86 37.0415 229.454 37.0415 230.271V235H36.2734L36.0703 233.972H36.0195C35.8249 234.226 35.6217 234.439 35.4102 234.613C35.1986 234.782 34.9531 234.911 34.6738 235C34.3988 235.085 34.0602 235.127 33.6582 235.127C33.235 235.127 32.8584 235.053 32.5283 234.905C32.2025 234.757 31.9443 234.532 31.7539 234.232C31.5677 233.931 31.4746 233.551 31.4746 233.089C31.4746 232.395 31.7497 231.862 32.2998 231.49C32.8499 231.117 33.6878 230.914 34.8135 230.88L36.0132 230.83V230.404C36.0132 229.803 35.8841 229.382 35.626 229.141C35.3678 228.9 35.0039 228.779 34.5342 228.779C34.1702 228.779 33.8232 228.832 33.4932 228.938C33.1631 229.044 32.8499 229.169 32.5537 229.312L32.23 228.513C32.5431 228.352 32.9028 228.214 33.3091 228.1C33.7153 227.986 34.1427 227.929 34.5913 227.929ZM36.0005 231.572L34.9404 231.617C34.0729 231.651 33.4614 231.792 33.106 232.042C32.7505 232.292 32.5728 232.645 32.5728 233.102C32.5728 233.5 32.6934 233.794 32.9346 233.984C33.1758 234.175 33.4953 234.27 33.8931 234.27C34.5109 234.27 35.0166 234.099 35.4102 233.756C35.8037 233.413 36.0005 232.899 36.0005 232.213V231.572ZM44.7412 229.789C44.7412 230.224 44.6143 230.565 44.3604 230.811C44.1064 231.052 43.7785 231.215 43.3765 231.299V231.35C43.8123 231.409 44.1868 231.566 44.5 231.82C44.8174 232.069 44.9761 232.452 44.9761 232.969C44.9761 233.367 44.8809 233.718 44.6904 234.022C44.5 234.327 44.2017 234.566 43.7954 234.74C43.3892 234.913 42.8602 235 42.2085 235H39.2124V228.043H42.1831C42.6825 228.043 43.1226 228.1 43.5034 228.214C43.8885 228.324 44.1911 228.506 44.4111 228.76C44.6312 229.014 44.7412 229.357 44.7412 229.789ZM43.8779 232.969C43.8779 232.558 43.7214 232.262 43.4082 232.08C43.0993 231.898 42.6486 231.807 42.0562 231.807H40.2725V234.143H42.0815C42.6655 234.143 43.1099 234.054 43.4146 233.876C43.7235 233.694 43.8779 233.392 43.8779 232.969ZM43.6685 229.909C43.6685 229.579 43.5479 229.334 43.3066 229.173C43.0654 229.008 42.6698 228.925 42.1196 228.925H40.2725V230.925H41.9355C42.5068 230.925 42.9385 230.842 43.2305 230.677C43.5225 230.512 43.6685 230.256 43.6685 229.909ZM51.895 235H50.8223V228.925H48.7085C48.6239 230.021 48.516 230.961 48.3848 231.744C48.2578 232.522 48.097 233.159 47.9023 233.654C47.7119 234.145 47.4792 234.507 47.2041 234.74C46.9333 234.968 46.6095 235.083 46.2329 235.083C46.1187 235.083 46.0107 235.076 45.9092 235.063C45.8076 235.051 45.7209 235.03 45.6489 235V234.2C45.7039 234.217 45.7611 234.23 45.8203 234.238C45.8838 234.247 45.9494 234.251 46.0171 234.251C46.2075 234.251 46.381 234.173 46.5376 234.016C46.6984 233.855 46.8423 233.614 46.9692 233.292C47.1004 232.971 47.2168 232.565 47.3184 232.074C47.4199 231.579 47.5088 230.997 47.585 230.328C47.6654 229.655 47.7352 228.894 47.7944 228.043H51.895V235ZM54.4531 235H53.2217L55.2275 232.067C54.9355 232.004 54.6647 231.896 54.415 231.744C54.1654 231.587 53.9622 231.373 53.8057 231.103C53.6533 230.832 53.5771 230.495 53.5771 230.093C53.5771 229.425 53.7993 228.917 54.2437 228.57C54.6922 228.219 55.2826 228.043 56.0146 228.043H59.0933V235H58.0396V232.207H56.2749L54.4531 235ZM54.5991 230.1C54.5991 230.514 54.7472 230.823 55.0435 231.026C55.3397 231.225 55.7629 231.325 56.313 231.325H58.0396V228.925H56.1289C55.5872 228.925 55.1958 229.035 54.9546 229.255C54.7176 229.471 54.5991 229.753 54.5991 230.1ZM62.3179 228.043V232.417C62.3179 232.501 62.3158 232.611 62.3115 232.747C62.3073 232.878 62.3009 233.02 62.2925 233.172C62.284 233.32 62.2756 233.464 62.2671 233.604C62.2629 233.739 62.2565 233.851 62.248 233.94L66.0439 228.043H67.3389V235H66.355V230.734C66.355 230.599 66.3571 230.425 66.3613 230.214C66.3656 230.002 66.3719 229.795 66.3804 229.592C66.3888 229.384 66.3952 229.224 66.3994 229.109L62.6162 235H61.3149V228.043H62.3179ZM66.8184 225.18C66.7803 225.608 66.6724 225.965 66.4946 226.253C66.3211 226.541 66.0651 226.759 65.7266 226.907C65.388 227.051 64.9543 227.123 64.4253 227.123C63.8794 227.123 63.4393 227.053 63.105 226.913C62.7749 226.769 62.5295 226.553 62.3687 226.266C62.2121 225.978 62.119 225.616 62.0894 225.18H63.0796C63.1261 225.646 63.251 225.963 63.4541 226.132C63.6572 226.302 63.9873 226.386 64.4443 226.386C64.8506 226.386 65.1701 226.297 65.4028 226.12C65.6356 225.942 65.7752 225.629 65.8218 225.18H66.8184ZM74.3213 228.938H72.0298V235H70.9888V228.938H68.729V228.043H74.3213V228.938ZM78.3774 227.916C78.9699 227.916 79.4777 228.047 79.9009 228.31C80.3241 228.572 80.6478 228.94 80.8721 229.414C81.0964 229.884 81.2085 230.434 81.2085 231.064V231.718H76.4033C76.416 232.535 76.6191 233.157 77.0127 233.584C77.4062 234.012 77.9606 234.226 78.6758 234.226C79.1159 234.226 79.5052 234.185 79.8438 234.105C80.1823 234.025 80.5335 233.906 80.8975 233.75V234.676C80.5462 234.833 80.1971 234.947 79.8501 235.019C79.5073 235.091 79.1011 235.127 78.6313 235.127C77.9627 235.127 77.3787 234.992 76.8794 234.721C76.3843 234.446 75.9992 234.044 75.7241 233.515C75.4491 232.986 75.3115 232.338 75.3115 231.572C75.3115 230.823 75.4364 230.176 75.686 229.63C75.9399 229.08 76.2954 228.657 76.7524 228.36C77.2137 228.064 77.7554 227.916 78.3774 227.916ZM78.3647 228.779C77.8019 228.779 77.3534 228.963 77.019 229.332C76.6847 229.7 76.4858 230.214 76.4224 230.874H80.104C80.0998 230.459 80.0342 230.095 79.9072 229.782C79.7845 229.465 79.5962 229.219 79.3423 229.046C79.0884 228.868 78.7625 228.779 78.3647 228.779ZM87.4355 228.043V230.963H91.314V228.043H92.3677V235H91.314V231.858H87.4355V235H86.3755V228.043H87.4355ZM100.601 231.509C100.601 232.08 100.527 232.59 100.378 233.039C100.23 233.487 100.017 233.866 99.7373 234.175C99.458 234.484 99.1195 234.721 98.7217 234.886C98.3281 235.047 97.8817 235.127 97.3823 235.127C96.9168 235.127 96.4894 235.047 96.1001 234.886C95.715 234.721 95.3807 234.484 95.0972 234.175C94.8179 233.866 94.5999 233.487 94.4434 233.039C94.291 232.59 94.2148 232.08 94.2148 231.509C94.2148 230.747 94.3439 230.1 94.6021 229.566C94.8602 229.029 95.2284 228.621 95.7065 228.341C96.189 228.058 96.7624 227.916 97.4268 227.916C98.0615 227.916 98.6159 228.058 99.0898 228.341C99.568 228.625 99.9383 229.035 100.201 229.573C100.467 230.106 100.601 230.751 100.601 231.509ZM95.3066 231.509C95.3066 232.067 95.3807 232.552 95.5288 232.962C95.6769 233.373 95.9054 233.69 96.2144 233.915C96.5233 234.139 96.9211 234.251 97.4077 234.251C97.8901 234.251 98.2858 234.139 98.5947 233.915C98.9079 233.69 99.1385 233.373 99.2866 232.962C99.4347 232.552 99.5088 232.067 99.5088 231.509C99.5088 230.954 99.4347 230.476 99.2866 230.074C99.1385 229.668 98.91 229.355 98.6011 229.135C98.2922 228.915 97.8923 228.805 97.4014 228.805C96.6777 228.805 96.1466 229.044 95.8081 229.522C95.4738 230 95.3066 230.662 95.3066 231.509ZM107.951 229.789C107.951 230.224 107.824 230.565 107.57 230.811C107.316 231.052 106.988 231.215 106.586 231.299V231.35C107.022 231.409 107.397 231.566 107.71 231.82C108.027 232.069 108.186 232.452 108.186 232.969C108.186 233.367 108.091 233.718 107.9 234.022C107.71 234.327 107.412 234.566 107.005 234.74C106.599 234.913 106.07 235 105.418 235H102.422V228.043H105.393C105.892 228.043 106.333 228.1 106.713 228.214C107.098 228.324 107.401 228.506 107.621 228.76C107.841 229.014 107.951 229.357 107.951 229.789ZM107.088 232.969C107.088 232.558 106.931 232.262 106.618 232.08C106.309 231.898 105.859 231.807 105.266 231.807H103.482V234.143H105.292C105.875 234.143 106.32 234.054 106.625 233.876C106.933 233.694 107.088 233.392 107.088 232.969ZM106.878 229.909C106.878 229.579 106.758 229.334 106.517 229.173C106.275 229.008 105.88 228.925 105.33 228.925H103.482V230.925H105.146C105.717 230.925 106.148 230.842 106.44 230.677C106.732 230.512 106.878 230.256 106.878 229.909ZM109.887 235V228.043H110.947V230.912H112.852C113.444 230.912 113.931 230.986 114.312 231.134C114.697 231.282 114.982 231.502 115.168 231.794C115.355 232.086 115.448 232.448 115.448 232.88C115.448 233.312 115.355 233.686 115.168 234.003C114.986 234.321 114.699 234.566 114.305 234.74C113.916 234.913 113.408 235 112.782 235H109.887ZM110.947 234.143H112.68C113.205 234.143 113.624 234.05 113.937 233.864C114.25 233.678 114.407 233.367 114.407 232.931C114.407 232.503 114.261 232.207 113.969 232.042C113.677 231.873 113.258 231.788 112.712 231.788H110.947V234.143ZM116.597 235V228.043H117.65V235H116.597ZM121.535 231.439L119.129 228.043H120.335L122.17 230.722L123.998 228.043H125.191L122.786 231.439L125.325 235H124.119L122.17 232.163L120.208 235H119.015L121.535 231.439ZM135.887 228.043V235H134.827V228.951H131.12V235H130.06V228.043H135.887ZM140.724 227.929C141.554 227.929 142.169 228.115 142.571 228.487C142.973 228.86 143.174 229.454 143.174 230.271V235H142.406L142.203 233.972H142.152C141.958 234.226 141.755 234.439 141.543 234.613C141.331 234.782 141.086 234.911 140.807 235C140.532 235.085 140.193 235.127 139.791 235.127C139.368 235.127 138.991 235.053 138.661 234.905C138.335 234.757 138.077 234.532 137.887 234.232C137.701 233.931 137.607 233.551 137.607 233.089C137.607 232.395 137.882 231.862 138.433 231.49C138.983 231.117 139.821 230.914 140.946 230.88L142.146 230.83V230.404C142.146 229.803 142.017 229.382 141.759 229.141C141.501 228.9 141.137 228.779 140.667 228.779C140.303 228.779 139.956 228.832 139.626 228.938C139.296 229.044 138.983 229.169 138.687 229.312L138.363 228.513C138.676 228.352 139.036 228.214 139.442 228.1C139.848 227.986 140.276 227.929 140.724 227.929ZM142.133 231.572L141.073 231.617C140.206 231.651 139.594 231.792 139.239 232.042C138.883 232.292 138.706 232.645 138.706 233.102C138.706 233.5 138.826 233.794 139.067 233.984C139.309 234.175 139.628 234.27 140.026 234.27C140.644 234.27 141.149 234.099 141.543 233.756C141.937 233.413 142.133 232.899 142.133 232.213V231.572ZM152.118 237.406H151.09V235H145.345V228.043H146.405V234.105H150.093V228.043H151.147V234.118H152.118V237.406ZM154.486 228.043V232.417C154.486 232.501 154.484 232.611 154.479 232.747C154.475 232.878 154.469 233.02 154.46 233.172C154.452 233.32 154.444 233.464 154.435 233.604C154.431 233.739 154.424 233.851 154.416 233.94L158.212 228.043H159.507V235H158.523V230.734C158.523 230.599 158.525 230.425 158.529 230.214C158.534 230.002 158.54 229.795 158.548 229.592C158.557 229.384 158.563 229.224 158.567 229.109L154.784 235H153.483V228.043H154.486ZM164.426 227.916C165.019 227.916 165.527 228.047 165.95 228.31C166.373 228.572 166.697 228.94 166.921 229.414C167.145 229.884 167.257 230.434 167.257 231.064V231.718H162.452C162.465 232.535 162.668 233.157 163.062 233.584C163.455 234.012 164.009 234.226 164.725 234.226C165.165 234.226 165.554 234.185 165.893 234.105C166.231 234.025 166.582 233.906 166.946 233.75V234.676C166.595 234.833 166.246 234.947 165.899 235.019C165.556 235.091 165.15 235.127 164.68 235.127C164.012 235.127 163.428 234.992 162.928 234.721C162.433 234.446 162.048 234.044 161.773 233.515C161.498 232.986 161.36 232.338 161.36 231.572C161.36 230.823 161.485 230.176 161.735 229.63C161.989 229.08 162.344 228.657 162.801 228.36C163.263 228.064 163.804 227.916 164.426 227.916ZM164.414 228.779C163.851 228.779 163.402 228.963 163.068 229.332C162.734 229.7 162.535 230.214 162.471 230.874H166.153C166.149 230.459 166.083 230.095 165.956 229.782C165.833 229.465 165.645 229.219 165.391 229.046C165.137 228.868 164.811 228.779 164.414 228.779ZM170.107 228.043V230.963H173.986V228.043H175.04V235H173.986V231.858H170.107V235H169.047V228.043H170.107ZM182.016 228.938H179.724V235H178.683V228.938H176.423V228.043H182.016V228.938ZM189.392 231.509C189.392 232.08 189.318 232.59 189.169 233.039C189.021 233.487 188.808 233.866 188.528 234.175C188.249 234.484 187.91 234.721 187.513 234.886C187.119 235.047 186.673 235.127 186.173 235.127C185.708 235.127 185.28 235.047 184.891 234.886C184.506 234.721 184.172 234.484 183.888 234.175C183.609 233.866 183.391 233.487 183.234 233.039C183.082 232.59 183.006 232.08 183.006 231.509C183.006 230.747 183.135 230.1 183.393 229.566C183.651 229.029 184.019 228.621 184.498 228.341C184.98 228.058 185.553 227.916 186.218 227.916C186.853 227.916 187.407 228.058 187.881 228.341C188.359 228.625 188.729 229.035 188.992 229.573C189.258 230.106 189.392 230.751 189.392 231.509ZM184.098 231.509C184.098 232.067 184.172 232.552 184.32 232.962C184.468 233.373 184.696 233.69 185.005 233.915C185.314 234.139 185.712 234.251 186.199 234.251C186.681 234.251 187.077 234.139 187.386 233.915C187.699 233.69 187.93 233.373 188.078 232.962C188.226 232.552 188.3 232.067 188.3 231.509C188.3 230.954 188.226 230.476 188.078 230.074C187.93 229.668 187.701 229.355 187.392 229.135C187.083 228.915 186.683 228.805 186.192 228.805C185.469 228.805 184.938 229.044 184.599 229.522C184.265 230 184.098 230.662 184.098 231.509ZM196.742 229.789C196.742 230.224 196.615 230.565 196.361 230.811C196.107 231.052 195.779 231.215 195.377 231.299V231.35C195.813 231.409 196.188 231.566 196.501 231.82C196.818 232.069 196.977 232.452 196.977 232.969C196.977 233.367 196.882 233.718 196.691 234.022C196.501 234.327 196.203 234.566 195.796 234.74C195.39 234.913 194.861 235 194.209 235H191.213V228.043H194.184C194.683 228.043 195.124 228.1 195.504 228.214C195.889 228.324 196.192 228.506 196.412 228.76C196.632 229.014 196.742 229.357 196.742 229.789ZM195.879 232.969C195.879 232.558 195.722 232.262 195.409 232.08C195.1 231.898 194.65 231.807 194.057 231.807H192.273V234.143H194.083C194.667 234.143 195.111 234.054 195.416 233.876C195.724 233.694 195.879 233.392 195.879 232.969ZM195.669 229.909C195.669 229.579 195.549 229.334 195.308 229.173C195.066 229.008 194.671 228.925 194.121 228.925H192.273V230.925H193.937C194.508 230.925 194.939 230.842 195.231 230.677C195.523 230.512 195.669 230.256 195.669 229.909ZM199.884 233.489L199.967 233.635C199.891 233.944 199.793 234.274 199.675 234.625C199.561 234.977 199.434 235.328 199.294 235.679C199.159 236.035 199.021 236.367 198.881 236.676H198.094C198.183 236.337 198.27 235.98 198.354 235.603C198.439 235.231 198.515 234.862 198.583 234.499C198.655 234.13 198.712 233.794 198.754 233.489H199.884ZM206.422 228.043V232.417C206.422 232.501 206.42 232.611 206.416 232.747C206.412 232.878 206.405 233.02 206.397 233.172C206.389 233.32 206.38 233.464 206.372 233.604C206.367 233.739 206.361 233.851 206.353 233.94L210.148 228.043H211.443V235H210.459V230.734C210.459 230.599 210.462 230.425 210.466 230.214C210.47 230.002 210.476 229.795 210.485 229.592C210.493 229.384 210.5 229.224 210.504 229.109L206.721 235H205.419V228.043H206.422ZM18.6841 248.509C18.6841 249.08 18.61 249.59 18.4619 250.039C18.3138 250.487 18.1001 250.866 17.8208 251.175C17.5415 251.484 17.203 251.721 16.8052 251.886C16.4116 252.047 15.9652 252.127 15.4658 252.127C15.0003 252.127 14.5729 252.047 14.1836 251.886C13.7985 251.721 13.4642 251.484 13.1807 251.175C12.9014 250.866 12.6834 250.487 12.5269 250.039C12.3745 249.59 12.2983 249.08 12.2983 248.509C12.2983 247.747 12.4274 247.1 12.6855 246.566C12.9437 246.029 13.3118 245.621 13.79 245.341C14.2725 245.058 14.8459 244.916 15.5103 244.916C16.145 244.916 16.6994 245.058 17.1733 245.341C17.6515 245.625 18.0218 246.035 18.2842 246.573C18.5508 247.106 18.6841 247.751 18.6841 248.509ZM13.3901 248.509C13.3901 249.067 13.4642 249.552 13.6123 249.962C13.7604 250.373 13.9889 250.69 14.2979 250.915C14.6068 251.139 15.0046 251.251 15.4912 251.251C15.9736 251.251 16.3693 251.139 16.6782 250.915C16.9914 250.69 17.222 250.373 17.3701 249.962C17.5182 249.552 17.5923 249.067 17.5923 248.509C17.5923 247.954 17.5182 247.476 17.3701 247.074C17.222 246.668 16.9935 246.355 16.6846 246.135C16.3757 245.915 15.9757 245.805 15.4849 245.805C14.7612 245.805 14.2301 246.044 13.8916 246.522C13.5573 247 13.3901 247.662 13.3901 248.509ZM21.5659 245.043V247.963H25.4443V245.043H26.498V252H25.4443V248.858H21.5659V252H20.5059V245.043H21.5659ZM29.7354 245.043V249.417C29.7354 249.501 29.7332 249.611 29.729 249.747C29.7248 249.878 29.7184 250.02 29.71 250.172C29.7015 250.32 29.693 250.464 29.6846 250.604C29.6803 250.739 29.674 250.851 29.6655 250.94L33.4614 245.043H34.7563V252H33.7725V247.734C33.7725 247.599 33.7746 247.425 33.7788 247.214C33.783 247.002 33.7894 246.795 33.7979 246.592C33.8063 246.384 33.8127 246.224 33.8169 246.109L30.0337 252H28.7324V245.043H29.7354ZM40.0122 247.823C40.0122 246.833 40.1074 245.989 40.2979 245.291C40.4883 244.588 40.7824 244.025 41.1802 243.602C41.5822 243.175 42.0985 242.883 42.729 242.726C43.2707 242.578 43.8208 242.451 44.3794 242.345C44.938 242.235 45.4818 242.14 46.0107 242.06L46.1948 242.986C45.9282 243.024 45.6489 243.069 45.3569 243.12C45.0649 243.166 44.7729 243.217 44.481 243.272C44.189 243.323 43.9139 243.378 43.6558 243.437C43.3976 243.492 43.1691 243.549 42.9702 243.608C42.6105 243.706 42.2995 243.875 42.0371 244.116C41.779 244.357 41.5737 244.69 41.4214 245.113C41.2733 245.536 41.1844 246.069 41.1548 246.712H41.231C41.3579 246.526 41.5314 246.342 41.7515 246.16C41.9715 245.978 42.2339 245.828 42.5386 245.709C42.8433 245.587 43.186 245.525 43.5669 245.525C44.1678 245.525 44.6693 245.657 45.0713 245.919C45.4733 246.177 45.7759 246.541 45.979 247.011C46.1821 247.48 46.2837 248.031 46.2837 248.661C46.2837 249.419 46.1525 250.056 45.8901 250.572C45.632 251.088 45.2681 251.477 44.7983 251.74C44.3286 251.998 43.7764 252.127 43.1416 252.127C42.6507 252.127 42.2106 252.032 41.8213 251.841C41.4362 251.651 41.1082 251.372 40.8374 251.003C40.5708 250.635 40.3656 250.185 40.2217 249.651C40.082 249.118 40.0122 248.509 40.0122 247.823ZM43.2241 251.251C43.6261 251.251 43.971 251.166 44.2588 250.997C44.5508 250.828 44.7751 250.561 44.9316 250.197C45.0924 249.829 45.1729 249.351 45.1729 248.763C45.1729 248.026 45.0311 247.451 44.7476 247.036C44.4683 246.617 44.0197 246.408 43.4019 246.408C43.0168 246.408 42.6676 246.49 42.3545 246.655C42.0413 246.816 41.7769 247.009 41.561 247.233C41.3452 247.457 41.1886 247.658 41.0913 247.836C41.0913 248.268 41.123 248.687 41.1865 249.093C41.25 249.499 41.36 249.865 41.5166 250.191C41.6732 250.517 41.889 250.775 42.1641 250.965C42.4434 251.156 42.7967 251.251 43.2241 251.251ZM47.0073 245.043H48.1372L49.6733 249.08C49.7622 249.317 49.8447 249.546 49.9209 249.766C49.9971 249.981 50.0648 250.189 50.124 250.388C50.1833 250.587 50.2298 250.779 50.2637 250.965H50.3081C50.3674 250.754 50.452 250.477 50.562 250.134C50.672 249.787 50.7905 249.433 50.9175 249.074L52.3711 245.043H53.5073L50.4795 253.022C50.3187 253.449 50.1304 253.822 49.9146 254.139C49.703 254.457 49.4448 254.7 49.1401 254.869C48.8354 255.043 48.4673 255.129 48.0356 255.129C47.8368 255.129 47.6611 255.117 47.5088 255.091C47.3564 255.07 47.2253 255.045 47.1152 255.015V254.171C47.2083 254.192 47.3205 254.211 47.4517 254.228C47.5871 254.245 47.7267 254.253 47.8706 254.253C48.133 254.253 48.3594 254.203 48.5498 254.101C48.7445 254.004 48.9116 253.86 49.0513 253.669C49.1909 253.479 49.3115 253.253 49.4131 252.99L49.7939 252.013L47.0073 245.043ZM59.7153 245.043V251.105H60.7119V254.406H59.6899V252H54.7642V254.406H53.7549V251.105H54.3008C54.6986 250.555 55.0286 249.952 55.291 249.296C55.5534 248.64 55.7523 247.952 55.8877 247.233C56.0231 246.509 56.0951 245.779 56.1035 245.043H59.7153ZM58.6934 245.881H57.043C57.0049 246.499 56.9139 247.127 56.77 247.766C56.6304 248.405 56.4442 249.014 56.2114 249.594C55.9787 250.17 55.7078 250.673 55.3989 251.105H58.6934V245.881ZM60.9976 245.043H62.1274L63.6636 249.08C63.7524 249.317 63.835 249.546 63.9111 249.766C63.9873 249.981 64.055 250.189 64.1143 250.388C64.1735 250.587 64.2201 250.779 64.2539 250.965H64.2983C64.3576 250.754 64.4422 250.477 64.5522 250.134C64.6623 249.787 64.7808 249.433 64.9077 249.074L66.3613 245.043H67.4976L64.4697 253.022C64.3089 253.449 64.1206 253.822 63.9048 254.139C63.6932 254.457 63.4351 254.7 63.1304 254.869C62.8257 255.043 62.4575 255.129 62.0259 255.129C61.827 255.129 61.6514 255.117 61.499 255.091C61.3467 255.07 61.2155 255.045 61.1055 255.015V254.171C61.1986 254.192 61.3107 254.211 61.4419 254.228C61.5773 254.245 61.717 254.253 61.8608 254.253C62.1232 254.253 62.3496 254.203 62.54 254.101C62.7347 254.004 62.9019 253.86 63.0415 253.669C63.1812 253.479 63.3018 253.253 63.4033 252.99L63.7842 252.013L60.9976 245.043ZM73.3501 245.938H71.0586V252H70.0176V245.938H67.7578V245.043H73.3501V245.938ZM84.103 248.509C84.103 249.08 84.029 249.59 83.8809 250.039C83.7327 250.487 83.519 250.866 83.2397 251.175C82.9604 251.484 82.6219 251.721 82.2241 251.886C81.8306 252.047 81.3841 252.127 80.8848 252.127C80.4193 252.127 79.9919 252.047 79.6025 251.886C79.2174 251.721 78.8831 251.484 78.5996 251.175C78.3203 250.866 78.1024 250.487 77.9458 250.039C77.7935 249.59 77.7173 249.08 77.7173 248.509C77.7173 247.747 77.8464 247.1 78.1045 246.566C78.3626 246.029 78.7308 245.621 79.209 245.341C79.6914 245.058 80.2648 244.916 80.9292 244.916C81.564 244.916 82.1183 245.058 82.5923 245.341C83.0705 245.625 83.4408 246.035 83.7031 246.573C83.9697 247.106 84.103 247.751 84.103 248.509ZM78.8091 248.509C78.8091 249.067 78.8831 249.552 79.0312 249.962C79.1794 250.373 79.4079 250.69 79.7168 250.915C80.0257 251.139 80.4235 251.251 80.9102 251.251C81.3926 251.251 81.7882 251.139 82.0972 250.915C82.4103 250.69 82.641 250.373 82.7891 249.962C82.9372 249.552 83.0112 249.067 83.0112 248.509C83.0112 247.954 82.9372 247.476 82.7891 247.074C82.641 246.668 82.4124 246.355 82.1035 246.135C81.7946 245.915 81.3947 245.805 80.9038 245.805C80.1802 245.805 79.6491 246.044 79.3105 246.522C78.9762 247 78.8091 247.662 78.8091 248.509ZM90.6665 245.938H88.375V252H87.334V245.938H85.0742V245.043H90.6665V245.938ZM98.0425 248.509C98.0425 249.08 97.9684 249.59 97.8203 250.039C97.6722 250.487 97.4585 250.866 97.1792 251.175C96.8999 251.484 96.5614 251.721 96.1636 251.886C95.77 252.047 95.3236 252.127 94.8242 252.127C94.3587 252.127 93.9313 252.047 93.542 251.886C93.1569 251.721 92.8226 251.484 92.5391 251.175C92.2598 250.866 92.0418 250.487 91.8853 250.039C91.7329 249.59 91.6567 249.08 91.6567 248.509C91.6567 247.747 91.7858 247.1 92.0439 246.566C92.3021 246.029 92.6702 245.621 93.1484 245.341C93.6309 245.058 94.2043 244.916 94.8687 244.916C95.5034 244.916 96.0578 245.058 96.5317 245.341C97.0099 245.625 97.3802 246.035 97.6426 246.573C97.9092 247.106 98.0425 247.751 98.0425 248.509ZM92.7485 248.509C92.7485 249.067 92.8226 249.552 92.9707 249.962C93.1188 250.373 93.3473 250.69 93.6562 250.915C93.9652 251.139 94.363 251.251 94.8496 251.251C95.332 251.251 95.7277 251.139 96.0366 250.915C96.3498 250.69 96.5804 250.373 96.7285 249.962C96.8766 249.552 96.9507 249.067 96.9507 248.509C96.9507 247.954 96.8766 247.476 96.7285 247.074C96.5804 246.668 96.3519 246.355 96.043 246.135C95.734 245.915 95.3341 245.805 94.8433 245.805C94.1196 245.805 93.5885 246.044 93.25 246.522C92.9157 247 92.7485 247.662 92.7485 248.509ZM99.5024 247.823C99.5024 246.833 99.5977 245.989 99.7881 245.291C99.9785 244.588 100.273 244.025 100.67 243.602C101.072 243.175 101.589 242.883 102.219 242.726C102.761 242.578 103.311 242.451 103.87 242.345C104.428 242.235 104.972 242.14 105.501 242.06L105.685 242.986C105.418 243.024 105.139 243.069 104.847 243.12C104.555 243.166 104.263 243.217 103.971 243.272C103.679 243.323 103.404 243.378 103.146 243.437C102.888 243.492 102.659 243.549 102.46 243.608C102.101 243.706 101.79 243.875 101.527 244.116C101.269 244.357 101.064 244.69 100.912 245.113C100.764 245.536 100.675 246.069 100.645 246.712H100.721C100.848 246.526 101.022 246.342 101.242 246.16C101.462 245.978 101.724 245.828 102.029 245.709C102.333 245.587 102.676 245.525 103.057 245.525C103.658 245.525 104.16 245.657 104.562 245.919C104.964 246.177 105.266 246.541 105.469 247.011C105.672 247.48 105.774 248.031 105.774 248.661C105.774 249.419 105.643 250.056 105.38 250.572C105.122 251.088 104.758 251.477 104.289 251.74C103.819 251.998 103.267 252.127 102.632 252.127C102.141 252.127 101.701 252.032 101.312 251.841C100.926 251.651 100.598 251.372 100.328 251.003C100.061 250.635 99.8558 250.185 99.7119 249.651C99.5723 249.118 99.5024 248.509 99.5024 247.823ZM102.714 251.251C103.116 251.251 103.461 251.166 103.749 250.997C104.041 250.828 104.265 250.561 104.422 250.197C104.583 249.829 104.663 249.351 104.663 248.763C104.663 248.026 104.521 247.451 104.238 247.036C103.958 246.617 103.51 246.408 102.892 246.408C102.507 246.408 102.158 246.49 101.845 246.655C101.532 246.816 101.267 247.009 101.051 247.233C100.835 247.457 100.679 247.658 100.582 247.836C100.582 248.268 100.613 248.687 100.677 249.093C100.74 249.499 100.85 249.865 101.007 250.191C101.163 250.517 101.379 250.775 101.654 250.965C101.934 251.156 102.287 251.251 102.714 251.251ZM110.865 244.916C111.732 244.916 112.424 245.214 112.94 245.811C113.457 246.408 113.715 247.305 113.715 248.502C113.715 249.294 113.596 249.958 113.359 250.496C113.122 251.033 112.788 251.439 112.356 251.714C111.929 251.989 111.423 252.127 110.839 252.127C110.471 252.127 110.147 252.078 109.868 251.981C109.589 251.884 109.35 251.752 109.151 251.587C108.952 251.422 108.787 251.243 108.656 251.048H108.58C108.592 251.213 108.607 251.412 108.624 251.645C108.645 251.877 108.656 252.08 108.656 252.254V255.11H107.596V245.043H108.465L108.605 246.071H108.656C108.791 245.86 108.956 245.667 109.151 245.494C109.346 245.316 109.583 245.176 109.862 245.075C110.145 244.969 110.48 244.916 110.865 244.916ZM110.681 245.805C110.198 245.805 109.809 245.898 109.513 246.084C109.221 246.27 109.007 246.549 108.872 246.922C108.736 247.29 108.664 247.753 108.656 248.312V248.515C108.656 249.103 108.719 249.601 108.846 250.007C108.977 250.413 109.191 250.722 109.487 250.934C109.788 251.145 110.19 251.251 110.693 251.251C111.125 251.251 111.485 251.135 111.772 250.902C112.06 250.669 112.274 250.345 112.414 249.931C112.557 249.512 112.629 249.031 112.629 248.49C112.629 247.669 112.469 247.017 112.147 246.535C111.83 246.048 111.341 245.805 110.681 245.805ZM118.158 244.929C118.988 244.929 119.603 245.115 120.005 245.487C120.407 245.86 120.608 246.454 120.608 247.271V252H119.84L119.637 250.972H119.586C119.392 251.226 119.189 251.439 118.977 251.613C118.765 251.782 118.52 251.911 118.241 252C117.966 252.085 117.627 252.127 117.225 252.127C116.802 252.127 116.425 252.053 116.095 251.905C115.769 251.757 115.511 251.532 115.321 251.232C115.135 250.931 115.042 250.551 115.042 250.089C115.042 249.395 115.317 248.862 115.867 248.49C116.417 248.117 117.255 247.914 118.38 247.88L119.58 247.83V247.404C119.58 246.803 119.451 246.382 119.193 246.141C118.935 245.9 118.571 245.779 118.101 245.779C117.737 245.779 117.39 245.832 117.06 245.938C116.73 246.044 116.417 246.169 116.121 246.312L115.797 245.513C116.11 245.352 116.47 245.214 116.876 245.1C117.282 244.986 117.71 244.929 118.158 244.929ZM119.567 248.572L118.507 248.617C117.64 248.651 117.028 248.792 116.673 249.042C116.317 249.292 116.14 249.645 116.14 250.102C116.14 250.5 116.26 250.794 116.501 250.984C116.743 251.175 117.062 251.27 117.46 251.27C118.078 251.27 118.583 251.099 118.977 250.756C119.371 250.413 119.567 249.899 119.567 249.213V248.572ZM130.93 245.043L128.035 248.426L131.177 252H129.971L126.924 248.471V252H125.94V248.471L122.9 252H121.694L124.836 248.426L121.935 245.043H123.097L125.94 248.42V245.043H126.924V248.42L129.781 245.043H130.93ZM134.941 244.929C135.771 244.929 136.387 245.115 136.789 245.487C137.191 245.86 137.392 246.454 137.392 247.271V252H136.624L136.42 250.972H136.37C136.175 251.226 135.972 251.439 135.76 251.613C135.549 251.782 135.303 251.911 135.024 252C134.749 252.085 134.41 252.127 134.008 252.127C133.585 252.127 133.208 252.053 132.878 251.905C132.553 251.757 132.294 251.532 132.104 251.232C131.918 250.931 131.825 250.551 131.825 250.089C131.825 249.395 132.1 248.862 132.65 248.49C133.2 248.117 134.038 247.914 135.164 247.88L136.363 247.83V247.404C136.363 246.803 136.234 246.382 135.976 246.141C135.718 245.9 135.354 245.779 134.884 245.779C134.52 245.779 134.173 245.832 133.843 245.938C133.513 246.044 133.2 246.169 132.904 246.312L132.58 245.513C132.893 245.352 133.253 245.214 133.659 245.1C134.065 244.986 134.493 244.929 134.941 244.929ZM136.351 248.572L135.291 248.617C134.423 248.651 133.812 248.792 133.456 249.042C133.101 249.292 132.923 249.645 132.923 250.102C132.923 250.5 133.043 250.794 133.285 250.984C133.526 251.175 133.845 251.27 134.243 251.27C134.861 251.27 135.367 251.099 135.76 250.756C136.154 250.413 136.351 249.899 136.351 249.213V248.572ZM144.304 245.938H142.013V252H140.972V245.938H138.712V245.043H144.304V245.938ZM146.742 247.912H148.875C149.467 247.912 149.96 247.986 150.354 248.134C150.747 248.282 151.041 248.502 151.236 248.794C151.435 249.086 151.534 249.448 151.534 249.88C151.534 250.312 151.437 250.686 151.242 251.003C151.052 251.321 150.756 251.566 150.354 251.74C149.956 251.913 149.442 252 148.811 252H145.682V245.043H146.742V247.912ZM150.474 249.931C150.474 249.503 150.322 249.207 150.017 249.042C149.717 248.873 149.296 248.788 148.754 248.788H146.742V251.143H148.76C149.268 251.143 149.681 251.05 149.998 250.864C150.315 250.673 150.474 250.362 150.474 249.931ZM156.136 252.127C155.51 252.127 154.958 251.998 154.479 251.74C154.001 251.482 153.629 251.088 153.362 250.559C153.096 250.03 152.962 249.364 152.962 248.56C152.962 247.717 153.102 247.03 153.381 246.497C153.665 245.959 154.054 245.561 154.549 245.303C155.044 245.045 155.607 244.916 156.238 244.916C156.585 244.916 156.919 244.952 157.241 245.024C157.567 245.092 157.833 245.178 158.041 245.284L157.723 246.167C157.512 246.082 157.266 246.006 156.987 245.938C156.712 245.87 156.454 245.836 156.212 245.836C155.73 245.836 155.328 245.94 155.006 246.147C154.689 246.355 154.45 246.66 154.289 247.062C154.132 247.464 154.054 247.959 154.054 248.547C154.054 249.11 154.13 249.59 154.283 249.988C154.439 250.386 154.67 250.69 154.975 250.902C155.284 251.109 155.669 251.213 156.13 251.213C156.498 251.213 156.83 251.175 157.126 251.099C157.423 251.018 157.691 250.925 157.933 250.819V251.759C157.7 251.877 157.44 251.968 157.152 252.032C156.868 252.095 156.53 252.127 156.136 252.127ZM159.919 252H158.688L160.694 249.067C160.402 249.004 160.131 248.896 159.881 248.744C159.632 248.587 159.429 248.373 159.272 248.103C159.12 247.832 159.043 247.495 159.043 247.093C159.043 246.425 159.266 245.917 159.71 245.57C160.159 245.219 160.749 245.043 161.481 245.043H164.56V252H163.506V249.207H161.741L159.919 252ZM160.065 247.1C160.065 247.514 160.214 247.823 160.51 248.026C160.806 248.225 161.229 248.325 161.779 248.325H163.506V245.925H161.595C161.054 245.925 160.662 246.035 160.421 246.255C160.184 246.471 160.065 246.753 160.065 247.1ZM171.948 244.916C172.469 244.916 172.919 244.988 173.3 245.132C173.681 245.271 173.975 245.477 174.183 245.748C174.39 246.018 174.494 246.348 174.494 246.738C174.494 247.157 174.379 247.491 174.151 247.741C173.922 247.99 173.607 248.17 173.205 248.28V248.331C173.489 248.407 173.745 248.517 173.973 248.661C174.206 248.801 174.39 248.987 174.525 249.22C174.665 249.448 174.735 249.734 174.735 250.077C174.735 250.466 174.629 250.817 174.417 251.13C174.206 251.439 173.884 251.683 173.453 251.86C173.021 252.038 172.475 252.127 171.815 252.127C171.489 252.127 171.18 252.108 170.888 252.07C170.596 252.036 170.332 251.985 170.095 251.917C169.858 251.85 169.65 251.769 169.473 251.676V250.718C169.769 250.862 170.116 250.989 170.514 251.099C170.911 251.209 171.341 251.264 171.802 251.264C172.158 251.264 172.477 251.223 172.761 251.143C173.044 251.058 173.269 250.925 173.434 250.743C173.603 250.557 173.688 250.314 173.688 250.013C173.688 249.738 173.613 249.512 173.465 249.334C173.317 249.152 173.095 249.019 172.799 248.934C172.507 248.845 172.137 248.801 171.688 248.801H170.755V247.938H171.523C172.12 247.938 172.596 247.853 172.951 247.684C173.307 247.514 173.484 247.229 173.484 246.827C173.484 246.48 173.347 246.222 173.072 246.052C172.797 245.879 172.403 245.792 171.891 245.792C171.51 245.792 171.174 245.832 170.882 245.913C170.59 245.989 170.275 246.099 169.936 246.243L169.562 245.398C169.925 245.238 170.306 245.117 170.704 245.037C171.102 244.956 171.517 244.916 171.948 244.916ZM181.54 245.043V251.105H182.536V254.406H181.514V252H176.588V254.406H175.579V251.105H176.125C176.523 250.555 176.853 249.952 177.115 249.296C177.378 248.64 177.576 247.952 177.712 247.233C177.847 246.509 177.919 245.779 177.928 245.043H181.54ZM180.518 245.881H178.867C178.829 246.499 178.738 247.127 178.594 247.766C178.455 248.405 178.268 249.014 178.036 249.594C177.803 250.17 177.532 250.673 177.223 251.105H180.518V245.881ZM186.599 244.916C187.191 244.916 187.699 245.047 188.122 245.31C188.545 245.572 188.869 245.94 189.093 246.414C189.318 246.884 189.43 247.434 189.43 248.064V248.718H184.625C184.637 249.535 184.84 250.157 185.234 250.584C185.627 251.012 186.182 251.226 186.897 251.226C187.337 251.226 187.726 251.185 188.065 251.105C188.403 251.025 188.755 250.906 189.119 250.75V251.676C188.767 251.833 188.418 251.947 188.071 252.019C187.729 252.091 187.322 252.127 186.853 252.127C186.184 252.127 185.6 251.992 185.101 251.721C184.605 251.446 184.22 251.044 183.945 250.515C183.67 249.986 183.533 249.338 183.533 248.572C183.533 247.823 183.658 247.176 183.907 246.63C184.161 246.08 184.517 245.657 184.974 245.36C185.435 245.064 185.977 244.916 186.599 244.916ZM186.586 245.779C186.023 245.779 185.575 245.963 185.24 246.332C184.906 246.7 184.707 247.214 184.644 247.874H188.325C188.321 247.459 188.255 247.095 188.128 246.782C188.006 246.465 187.817 246.219 187.563 246.046C187.31 245.868 186.984 245.779 186.586 245.779ZM194.006 252.127C193.38 252.127 192.828 251.998 192.35 251.74C191.871 251.482 191.499 251.088 191.232 250.559C190.966 250.03 190.833 249.364 190.833 248.56C190.833 247.717 190.972 247.03 191.251 246.497C191.535 245.959 191.924 245.561 192.419 245.303C192.915 245.045 193.477 244.916 194.108 244.916C194.455 244.916 194.789 244.952 195.111 245.024C195.437 245.092 195.703 245.178 195.911 245.284L195.593 246.167C195.382 246.082 195.136 246.006 194.857 245.938C194.582 245.87 194.324 245.836 194.083 245.836C193.6 245.836 193.198 245.94 192.876 246.147C192.559 246.355 192.32 246.66 192.159 247.062C192.003 247.464 191.924 247.959 191.924 248.547C191.924 249.11 192 249.59 192.153 249.988C192.309 250.386 192.54 250.69 192.845 250.902C193.154 251.109 193.539 251.213 194 251.213C194.368 251.213 194.7 251.175 194.997 251.099C195.293 251.018 195.562 250.925 195.803 250.819V251.759C195.57 251.877 195.31 251.968 195.022 252.032C194.738 252.095 194.4 252.127 194.006 252.127ZM198.513 247.912H200.646C201.238 247.912 201.731 247.986 202.125 248.134C202.519 248.282 202.813 248.502 203.007 248.794C203.206 249.086 203.306 249.448 203.306 249.88C203.306 250.312 203.208 250.686 203.014 251.003C202.823 251.321 202.527 251.566 202.125 251.74C201.727 251.913 201.213 252 200.583 252H197.453V245.043H198.513V247.912ZM202.246 249.931C202.246 249.503 202.093 249.207 201.789 249.042C201.488 248.873 201.067 248.788 200.525 248.788H198.513V251.143H200.532C201.04 251.143 201.452 251.05 201.77 250.864C202.087 250.673 202.246 250.362 202.246 249.931ZM204.962 251.34C204.962 251.044 205.034 250.834 205.178 250.711C205.322 250.584 205.498 250.521 205.705 250.521C205.921 250.521 206.103 250.584 206.251 250.711C206.399 250.834 206.473 251.044 206.473 251.34C206.473 251.632 206.399 251.846 206.251 251.981C206.103 252.112 205.921 252.178 205.705 252.178C205.498 252.178 205.322 252.112 205.178 251.981C205.034 251.846 204.962 251.632 204.962 251.34Z" fill="#B9BCC8"/>
</svg>
