<svg width="12" height="60" viewBox="0 0 12 60" fill="none" xmlns="http://www.w3.org/2000/svg">
<path d="M3.17687 60C3.98637 59.8085 6.03278 59.5405 7.74244 60H11.4338C11.9195 59.6718 12.5412 58.9825 11.1423 58.8512L11.1268 58.8497C9.37772 58.6856 6.67189 58.4317 5.99393 55.3226C5.44994 52.828 6.15583 49.5785 6.57677 48.2655V45.3935C7.09485 45.1473 7.97558 44.0641 7.35389 41.7008C9.60753 39.9283 9.78238 33.5769 9.5881 30.6228C10.009 28.9816 10.8315 25.6172 10.7538 25.2889C11.0452 24.7966 10.4624 21.3501 11.4338 16.8368C11.8223 17.0338 11.8547 16.6454 11.8223 16.4265C11.4014 15.0315 9.70467 11.6999 6.28535 9.53355C6.51848 8.87707 6.70629 8.2206 6.77105 7.97442C7.12723 8.24795 8.09215 8.71295 9.1024 8.38472C9.49096 8.25342 9.2643 7.56412 9.1024 7.23589C9.39382 7.04441 9.86009 6.49735 9.39382 5.84088C9.86009 5.84088 10.1709 5.67676 10.2681 5.5947L9.39382 4.44587C9.62048 3.65263 9.74353 1.86921 8.42242 1.08144V0.342904C5.60537 -0.31357 0.223821 -0.477689 1.23408 4.11763C3.48777 6.61224 2.56171 8.76766 1.81697 9.53355C0.586496 10.7644 -1.25275 14.2437 1.23408 18.3139C2.78839 22.9092 2.72365 25.371 2.49699 26.0275C1.23417 27.3951 -0.533776 30.8361 2.49699 33.659C1.23417 38.5005 1.81701 40.7161 2.49699 41.4546C2.30271 42.5214 2.59413 42.1932 2.10843 43.0958C1.71987 43.8179 1.94653 44.7643 2.10843 45.1473C1.49321 46.3508 0.631902 49.7918 2.10843 53.9276C2.96318 56.0284 2.72362 57.7024 2.49699 58.2768C2.23788 58.7144 2.01112 59.6717 3.17687 60Z" fill="#252525"/>
</svg>
