<svg width="14" height="16" viewBox="0 0 14 16" fill="none" xmlns="http://www.w3.org/2000/svg">
<path d="M7.70049 1.33398C7.70049 0.947385 7.38709 0.633984 7.00049 0.633984C6.61389 0.633984 6.30049 0.947385 6.30049 1.33398H7.70049ZM6.50551 11.829C6.77888 12.1023 7.2221 12.1023 7.49546 11.829L11.9502 7.37419C12.2236 7.10082 12.2236 6.6576 11.9502 6.38424C11.6769 6.11087 11.2337 6.11087 10.9603 6.38424L7.00049 10.344L3.04069 6.38424C2.76732 6.11087 2.32411 6.11087 2.05074 6.38424C1.77737 6.6576 1.77737 7.10082 2.05074 7.37419L6.50551 11.829ZM6.30049 1.33398L6.30049 11.334H7.70049L7.70049 1.33398H6.30049Z" fill="#13293D"/>
<path d="M1.66699 13.967C1.28039 13.967 0.966992 14.2804 0.966992 14.667C0.966992 15.0536 1.28039 15.367 1.66699 15.367V13.967ZM12.667 15.367C13.0536 15.367 13.367 15.0536 13.367 14.667C13.367 14.2804 13.0536 13.967 12.667 13.967V15.367ZM1.66699 15.367H12.667V13.967H1.66699V15.367Z" fill="#13293D"/>
</svg>
