<svg width="388" height="659" viewBox="0 0 388 659" fill="none" xmlns="http://www.w3.org/2000/svg">
<line x1="16.5" y1="2.18557e-08" x2="16.5" y2="640" stroke="white" stroke-opacity="0.7"/>
<line x1="26.5" y1="2.18557e-08" x2="26.5" y2="640" stroke="white" stroke-opacity="0.7"/>
<line x1="36.5" y1="2.18557e-08" x2="36.5" y2="640" stroke="white" stroke-opacity="0.7"/>
<line x1="46.75" y1="3.27835e-08" x2="46.75" y2="640" stroke="white" stroke-opacity="0.7" stroke-width="1.5"/>
<line x1="56.5" y1="2.18557e-08" x2="56.5" y2="640" stroke="white" stroke-opacity="0.7"/>
<line x1="66.5" y1="2.18557e-08" x2="66.5" y2="640" stroke="white" stroke-opacity="0.7"/>
<line x1="76.5" y1="2.18557e-08" x2="76.5" y2="640" stroke="white" stroke-opacity="0.7"/>
<line x1="86.5" y1="2.18557e-08" x2="86.5" y2="640" stroke="white" stroke-opacity="0.7"/>
<line x1="96.5" y1="2.18557e-08" x2="96.5" y2="640" stroke="white" stroke-opacity="0.7"/>
<line x1="106.75" y1="3.27835e-08" x2="106.75" y2="640" stroke="white" stroke-opacity="0.7" stroke-width="1.5"/>
<line x1="116.5" y1="2.18557e-08" x2="116.5" y2="640" stroke="white" stroke-opacity="0.7"/>
<line x1="126.5" y1="2.18557e-08" x2="126.5" y2="640" stroke="white" stroke-opacity="0.7"/>
<line x1="136.5" y1="2.18557e-08" x2="136.5" y2="640" stroke="white" stroke-opacity="0.7"/>
<line x1="146.5" y1="2.18557e-08" x2="146.5" y2="640" stroke="white" stroke-opacity="0.7"/>
<line x1="156.5" y1="2.18557e-08" x2="156.5" y2="640" stroke="white" stroke-opacity="0.7"/>
<line x1="166.75" y1="3.27835e-08" x2="166.75" y2="640" stroke="white" stroke-opacity="0.7" stroke-width="1.5"/>
<line x1="176.5" y1="2.18557e-08" x2="176.5" y2="640" stroke="white" stroke-opacity="0.7"/>
<line x1="186.5" y1="2.18557e-08" x2="186.5" y2="640" stroke="white" stroke-opacity="0.7"/>
<line x1="196.5" y1="2.18557e-08" x2="196.5" y2="640" stroke="white" stroke-opacity="0.7"/>
<line x1="206.5" y1="2.18557e-08" x2="206.5" y2="640" stroke="white" stroke-opacity="0.7"/>
<line x1="216.5" y1="2.18557e-08" x2="216.5" y2="640" stroke="white" stroke-opacity="0.7"/>
<line x1="226.75" y1="3.27835e-08" x2="226.75" y2="640" stroke="white" stroke-opacity="0.7" stroke-width="1.5"/>
<line x1="236.5" y1="2.18557e-08" x2="236.5" y2="640" stroke="white" stroke-opacity="0.7"/>
<line x1="246.5" y1="2.18557e-08" x2="246.5" y2="640" stroke="white" stroke-opacity="0.7"/>
<line x1="256.5" y1="2.18557e-08" x2="256.5" y2="640" stroke="white" stroke-opacity="0.7"/>
<line x1="266.5" y1="2.18557e-08" x2="266.5" y2="640" stroke="white" stroke-opacity="0.7"/>
<line x1="276.5" y1="2.18557e-08" x2="276.5" y2="640" stroke="white" stroke-opacity="0.7"/>
<line x1="286.75" y1="3.27835e-08" x2="286.75" y2="640" stroke="white" stroke-opacity="0.7" stroke-width="1.5"/>
<line x1="296.5" y1="2.18557e-08" x2="296.5" y2="640" stroke="white" stroke-opacity="0.7"/>
<line x1="306.5" y1="2.18557e-08" x2="306.5" y2="640" stroke="white" stroke-opacity="0.7"/>
<line x1="316.5" y1="2.18557e-08" x2="316.5" y2="640" stroke="white" stroke-opacity="0.7"/>
<line x1="326.5" y1="2.18557e-08" x2="326.5" y2="640" stroke="white" stroke-opacity="0.7"/>
<line x1="336.5" y1="2.18557e-08" x2="336.5" y2="640" stroke="white" stroke-opacity="0.7"/>
<line x1="346.752" y1="3.27835e-08" x2="346.752" y2="640" stroke="white" stroke-opacity="0.7" stroke-width="1.5"/>
<line x1="356.502" y1="2.18557e-08" x2="356.502" y2="640" stroke="white" stroke-opacity="0.7"/>
<line x1="366.502" y1="2.18557e-08" x2="366.502" y2="640" stroke="white" stroke-opacity="0.7"/>
<line x1="376.502" y1="2.18557e-08" x2="376.502" y2="640" stroke="white" stroke-opacity="0.7"/>
<line x1="386.502" y1="2.18557e-08" x2="386.502" y2="640" stroke="white" stroke-opacity="0.7"/>
<line y1="18.5" x2="375" y2="18.5" stroke="white" stroke-opacity="0.7"/>
<line y1="28.25" x2="375" y2="28.25" stroke="white" stroke-opacity="0.7" stroke-width="1.5"/>
<line y1="38.5" x2="375" y2="38.5" stroke="white" stroke-opacity="0.7"/>
<line y1="48.5" x2="375" y2="48.5" stroke="white" stroke-opacity="0.7"/>
<line y1="58.5" x2="375" y2="58.5" stroke="white" stroke-opacity="0.7"/>
<line y1="68.5" x2="375" y2="68.5" stroke="white" stroke-opacity="0.7"/>
<line y1="78.5" x2="375" y2="78.5" stroke="white" stroke-opacity="0.7"/>
<line y1="88.25" x2="375" y2="88.25" stroke="white" stroke-opacity="0.7" stroke-width="1.5"/>
<line y1="98.5" x2="375" y2="98.5" stroke="white" stroke-opacity="0.7"/>
<line y1="108.5" x2="375" y2="108.5" stroke="white" stroke-opacity="0.7"/>
<line y1="118.5" x2="375" y2="118.5" stroke="white" stroke-opacity="0.7"/>
<line y1="128.5" x2="375" y2="128.5" stroke="white" stroke-opacity="0.7"/>
<line y1="138.5" x2="375" y2="138.5" stroke="white" stroke-opacity="0.7"/>
<line y1="148.25" x2="375" y2="148.25" stroke="white" stroke-opacity="0.7" stroke-width="1.5"/>
<line y1="158.5" x2="375" y2="158.5" stroke="white" stroke-opacity="0.7"/>
<line y1="168.5" x2="375" y2="168.5" stroke="white" stroke-opacity="0.7"/>
<line y1="178.5" x2="375" y2="178.5" stroke="white" stroke-opacity="0.7"/>
<line y1="188.5" x2="375" y2="188.5" stroke="white" stroke-opacity="0.7"/>
<line y1="198.5" x2="375" y2="198.5" stroke="white" stroke-opacity="0.7"/>
<line y1="208.25" x2="375" y2="208.25" stroke="white" stroke-opacity="0.7" stroke-width="1.5"/>
<line y1="218.5" x2="375" y2="218.5" stroke="white" stroke-opacity="0.7"/>
<line y1="228.5" x2="375" y2="228.5" stroke="white" stroke-opacity="0.7"/>
<line y1="238.5" x2="375" y2="238.5" stroke="white" stroke-opacity="0.7"/>
<line y1="248.5" x2="375" y2="248.5" stroke="white" stroke-opacity="0.7"/>
<line y1="258.5" x2="375" y2="258.5" stroke="white" stroke-opacity="0.7"/>
<line y1="268.25" x2="375" y2="268.25" stroke="white" stroke-opacity="0.7" stroke-width="1.5"/>
<line y1="278.5" x2="375" y2="278.5" stroke="white" stroke-opacity="0.7"/>
<line y1="288.5" x2="375" y2="288.5" stroke="white" stroke-opacity="0.7"/>
<line y1="298.5" x2="375" y2="298.5" stroke="white" stroke-opacity="0.7"/>
<line y1="308.5" x2="375" y2="308.5" stroke="white" stroke-opacity="0.7"/>
<line y1="318.5" x2="375" y2="318.5" stroke="white" stroke-opacity="0.7"/>
<line y1="328.5" x2="375" y2="328.5" stroke="white" stroke-opacity="0.7"/>
<line y1="338.25" x2="375" y2="338.25" stroke="white" stroke-opacity="0.7" stroke-width="1.5"/>
<line y1="348.5" x2="375" y2="348.5" stroke="white" stroke-opacity="0.7"/>
<line y1="358.5" x2="375" y2="358.5" stroke="white" stroke-opacity="0.7"/>
<line y1="368.5" x2="375" y2="368.5" stroke="white" stroke-opacity="0.7"/>
<line y1="378.5" x2="375" y2="378.5" stroke="white" stroke-opacity="0.7"/>
<line y1="388.5" x2="375" y2="388.5" stroke="white" stroke-opacity="0.7"/>
<line y1="398.25" x2="375" y2="398.25" stroke="white" stroke-opacity="0.7" stroke-width="1.5"/>
<line y1="408.5" x2="375" y2="408.5" stroke="white" stroke-opacity="0.7"/>
<line y1="418.5" x2="375" y2="418.5" stroke="white" stroke-opacity="0.7"/>
<line y1="428.5" x2="375" y2="428.5" stroke="white" stroke-opacity="0.7"/>
<line y1="438.5" x2="375" y2="438.5" stroke="white" stroke-opacity="0.7"/>
<line y1="448.5" x2="375" y2="448.5" stroke="white" stroke-opacity="0.7"/>
<line y1="458.25" x2="375" y2="458.25" stroke="white" stroke-opacity="0.7" stroke-width="1.5"/>
<line y1="468.5" x2="375" y2="468.5" stroke="white" stroke-opacity="0.7"/>
<line y1="478.5" x2="375" y2="478.5" stroke="white" stroke-opacity="0.7"/>
<line y1="488.5" x2="375" y2="488.5" stroke="white" stroke-opacity="0.7"/>
<line y1="498.5" x2="375" y2="498.5" stroke="white" stroke-opacity="0.7"/>
<line y1="508.5" x2="375" y2="508.5" stroke="white" stroke-opacity="0.7"/>
<line y1="518.25" x2="375" y2="518.25" stroke="white" stroke-opacity="0.7" stroke-width="1.5"/>
<line y1="528.5" x2="375" y2="528.5" stroke="white" stroke-opacity="0.7"/>
<line y1="538.5" x2="375" y2="538.5" stroke="white" stroke-opacity="0.7"/>
<line y1="548.5" x2="375" y2="548.5" stroke="white" stroke-opacity="0.7"/>
<line y1="558.5" x2="375" y2="558.5" stroke="white" stroke-opacity="0.7"/>
<line y1="568.5" x2="375" y2="568.5" stroke="white" stroke-opacity="0.7"/>
<line y1="578.5" x2="375" y2="578.5" stroke="white" stroke-opacity="0.7"/>
<line y1="588.5" x2="375" y2="588.5" stroke="white" stroke-opacity="0.7"/>
<line y1="598.5" x2="375" y2="598.5" stroke="white" stroke-opacity="0.7"/>
<line y1="608.5" x2="375" y2="608.5" stroke="white" stroke-opacity="0.7"/>
<line y1="618.5" x2="375" y2="618.5" stroke="white" stroke-opacity="0.7"/>
<line y1="628.5" x2="375" y2="628.5" stroke="white" stroke-opacity="0.7"/>
<line y1="638.5" x2="375" y2="638.5" stroke="white" stroke-opacity="0.7"/>
<line y1="648.5" x2="375" y2="648.5" stroke="white" stroke-opacity="0.7"/>
<line y1="658.5" x2="375" y2="658.5" stroke="white" stroke-opacity="0.7"/>
</svg>
