<svg width="160" height="180" viewBox="0 0 160 180" fill="none" xmlns="http://www.w3.org/2000/svg">
<rect width="160" height="180" rx="4" fill="white"/>
<path d="M41 151.08V152C40.9988 154.157 40.3005 156.255 39.0093 157.982C37.7182 159.709 35.9033 160.973 33.8354 161.584C31.7674 162.195 29.5573 162.122 27.5345 161.375C25.5117 160.627 23.7847 159.246 22.611 157.437C21.4373 155.628 20.8798 153.488 21.0217 151.336C21.1636 149.185 21.9972 147.136 23.3983 145.497C24.7994 143.858 26.6928 142.715 28.7962 142.24C30.8996 141.765 33.1003 141.982 35.07 142.86" stroke="#00A499" stroke-width="2" stroke-linecap="round" stroke-linejoin="round"/>
<path d="M41 144L31 154.01L28 151.01" stroke="#00A499" stroke-width="2" stroke-linecap="round" stroke-linejoin="round"/>
<path d="M55.0043 146.136L58.6747 156.544H58.8196L62.4901 146.136H64.0597L59.5199 158.5H57.9744L53.4347 146.136H55.0043ZM65.7923 158.5V149.227H67.217V158.5H65.7923ZM66.5167 147.682C66.239 147.682 65.9995 147.587 65.7983 147.398C65.6011 147.209 65.5025 146.982 65.5025 146.716C65.5025 146.45 65.6011 146.223 65.7983 146.034C65.9995 145.845 66.239 145.75 66.5167 145.75C66.7944 145.75 67.0318 145.845 67.229 146.034C67.4303 146.223 67.5309 146.45 67.5309 146.716C67.5309 146.982 67.4303 147.209 67.229 147.398C67.0318 147.587 66.7944 147.682 66.5167 147.682ZM73.7142 158.693C72.8208 158.693 72.05 158.496 71.4021 158.102C70.7581 157.703 70.2611 157.148 69.911 156.435C69.5648 155.719 69.3918 154.886 69.3918 153.936C69.3918 152.986 69.5648 152.149 69.911 151.425C70.2611 150.696 70.7481 150.129 71.3719 149.722C71.9997 149.312 72.7322 149.107 73.5693 149.107C74.0523 149.107 74.5292 149.187 75.0001 149.348C75.471 149.509 75.8996 149.771 76.286 150.133C76.6723 150.491 76.9802 150.966 77.2096 151.558C77.439 152.149 77.5537 152.878 77.5537 153.743V154.347H70.406V153.115H76.1048C76.1048 152.592 76.0002 152.125 75.7909 151.714C75.5857 151.304 75.2919 150.98 74.9095 150.743C74.5312 150.505 74.0845 150.386 73.5693 150.386C73.0019 150.386 72.5109 150.527 72.0963 150.809C71.6858 151.087 71.3699 151.449 71.1485 151.896C70.9272 152.342 70.8165 152.821 70.8165 153.332V154.153C70.8165 154.854 70.9372 155.447 71.1787 155.934C71.4242 156.417 71.7643 156.786 72.199 157.039C72.6336 157.289 73.1387 157.413 73.7142 157.413C74.0885 157.413 74.4266 157.361 74.7284 157.256C75.0343 157.148 75.2979 156.987 75.5193 156.773C75.7406 156.556 75.9117 156.286 76.0324 155.964L77.4088 156.351C77.2639 156.818 77.0204 157.228 76.6784 157.582C76.3363 157.933 75.9137 158.206 75.4106 158.403C74.9075 158.597 74.3421 158.693 73.7142 158.693ZM81.8218 158.5L78.9965 149.227H80.4937L82.498 156.327H82.5945L84.5747 149.227H86.096L88.0519 156.303H88.1485L90.1528 149.227H91.6499L88.8247 158.5H87.4241L85.3957 151.376H85.2508L83.2224 158.5H81.8218ZM98.3147 158.5V149.227H99.6911V150.628H99.7877C99.9568 150.169 100.263 149.797 100.705 149.511C101.148 149.225 101.647 149.082 102.203 149.082C102.307 149.082 102.438 149.084 102.595 149.088C102.752 149.092 102.871 149.098 102.951 149.107V150.555C102.903 150.543 102.792 150.525 102.619 150.501C102.45 150.473 102.271 150.459 102.082 150.459C101.631 150.459 101.229 150.553 100.874 150.743C100.524 150.928 100.247 151.185 100.041 151.515C99.8401 151.841 99.7394 152.214 99.7394 152.632V158.5H98.3147ZM108.245 158.693C107.352 158.693 106.581 158.496 105.933 158.102C105.289 157.703 104.792 157.148 104.442 156.435C104.096 155.719 103.923 154.886 103.923 153.936C103.923 152.986 104.096 152.149 104.442 151.425C104.792 150.696 105.279 150.129 105.903 149.722C106.531 149.312 107.263 149.107 108.101 149.107C108.584 149.107 109.06 149.187 109.531 149.348C110.002 149.509 110.431 149.771 110.817 150.133C111.204 150.491 111.511 150.966 111.741 151.558C111.97 152.149 112.085 152.878 112.085 153.743V154.347H104.937V153.115H110.636C110.636 152.592 110.531 152.125 110.322 151.714C110.117 151.304 109.823 150.98 109.441 150.743C109.062 150.505 108.616 150.386 108.101 150.386C107.533 150.386 107.042 150.527 106.628 150.809C106.217 151.087 105.901 151.449 105.68 151.896C105.458 152.342 105.348 152.821 105.348 153.332V154.153C105.348 154.854 105.468 155.447 105.71 155.934C105.955 156.417 106.296 156.786 106.73 157.039C107.165 157.289 107.67 157.413 108.245 157.413C108.62 157.413 108.958 157.361 109.26 157.256C109.566 157.148 109.829 156.987 110.051 156.773C110.272 156.556 110.443 156.286 110.564 155.964L111.94 156.351C111.795 156.818 111.552 157.228 111.21 157.582C110.868 157.933 110.445 158.206 109.942 158.403C109.439 158.597 108.873 158.693 108.245 158.693ZM120.82 151.304L119.541 151.666C119.46 151.453 119.341 151.246 119.184 151.044C119.031 150.839 118.822 150.67 118.557 150.537C118.291 150.404 117.951 150.338 117.536 150.338C116.969 150.338 116.496 150.469 116.118 150.73C115.743 150.988 115.556 151.316 115.556 151.714C115.556 152.069 115.685 152.348 115.943 152.554C116.2 152.759 116.603 152.93 117.15 153.067L118.526 153.405C119.355 153.606 119.973 153.914 120.38 154.328C120.786 154.739 120.989 155.268 120.989 155.916C120.989 156.447 120.837 156.922 120.531 157.341C120.229 157.759 119.806 158.089 119.263 158.331C118.72 158.572 118.088 158.693 117.367 158.693C116.421 158.693 115.639 158.488 115.019 158.077C114.399 157.667 114.007 157.067 113.842 156.278L115.194 155.94C115.323 156.439 115.566 156.814 115.924 157.063C116.287 157.313 116.76 157.438 117.343 157.438C118.007 157.438 118.534 157.297 118.925 157.015C119.319 156.729 119.516 156.387 119.516 155.989C119.516 155.667 119.404 155.397 119.178 155.18C118.953 154.958 118.607 154.793 118.14 154.685L116.595 154.322C115.745 154.121 115.122 153.809 114.723 153.387C114.329 152.96 114.131 152.427 114.131 151.787C114.131 151.264 114.278 150.801 114.572 150.398C114.87 149.996 115.274 149.68 115.786 149.451C116.301 149.221 116.884 149.107 117.536 149.107C118.454 149.107 119.174 149.308 119.698 149.71C120.225 150.113 120.599 150.644 120.82 151.304ZM128.978 154.709V149.227H130.403V158.5H128.978V156.93H128.881C128.664 157.401 128.326 157.802 127.867 158.132C127.408 158.458 126.829 158.621 126.128 158.621C125.549 158.621 125.034 158.494 124.583 158.24C124.132 157.983 123.778 157.596 123.52 157.081C123.263 156.562 123.134 155.908 123.134 155.119V149.227H124.559V155.023C124.559 155.699 124.748 156.238 125.126 156.641C125.509 157.043 125.996 157.244 126.587 157.244C126.941 157.244 127.302 157.154 127.668 156.973C128.038 156.792 128.348 156.514 128.597 156.14C128.851 155.765 128.978 155.288 128.978 154.709ZM134.437 146.136V158.5H133.012V146.136H134.437ZM141.079 149.227V150.435H136.273V149.227H141.079ZM137.674 147.006H139.099V155.844C139.099 156.246 139.157 156.548 139.274 156.749C139.395 156.946 139.547 157.079 139.733 157.148C139.922 157.212 140.121 157.244 140.33 157.244C140.487 157.244 140.616 157.236 140.717 157.22C140.817 157.2 140.898 157.184 140.958 157.172L141.248 158.452C141.151 158.488 141.016 158.524 140.843 158.56C140.67 158.601 140.451 158.621 140.185 158.621C139.783 158.621 139.388 158.534 139.002 158.361C138.62 158.188 138.302 157.924 138.048 157.57C137.799 157.216 137.674 156.769 137.674 156.23V147.006Z" fill="#00A499"/>
<path d="M82.8231 132C82.0136 131.735 79.9672 131.364 78.2576 132H74.5662C74.0805 131.546 73.4588 130.592 74.8577 130.411L74.8732 130.409C76.6223 130.182 79.3281 129.83 80.0061 125.53C80.5501 122.079 79.8442 117.584 79.4232 115.767V111.794C78.9052 111.454 78.0244 109.955 78.6461 106.686C76.3925 104.234 76.2176 95.4481 76.4119 91.3615C75.991 89.0912 75.1685 84.4371 75.2462 83.983C74.9548 83.3019 75.5376 78.5343 74.5662 72.2909C74.1777 72.5634 74.1453 72.0261 74.1777 71.7234C74.5986 69.7936 76.2953 65.1849 79.7147 62.1881C79.4815 61.2799 79.2937 60.3718 79.229 60.0313C78.8728 60.4097 77.9079 61.0529 76.8976 60.5989C76.509 60.4172 76.7357 59.4637 76.8976 59.0096C76.6062 58.7448 76.1399 57.988 76.6062 57.0799C76.1399 57.0799 75.8291 56.8528 75.7319 56.7393L76.6062 55.1501C76.3795 54.0528 76.2565 51.5857 77.5776 50.496V49.4744C80.3946 48.5662 85.7762 48.3392 84.7659 54.6961C82.5122 58.1469 83.4383 61.1286 84.183 62.1881C85.4135 63.8908 87.2528 68.7039 84.7659 74.3342C83.2116 80.6911 83.2764 84.0965 83.503 85.0047C84.7658 86.8966 86.5338 91.6567 83.503 95.5616C84.7658 102.259 84.183 105.324 83.503 106.346C83.6973 107.821 83.4059 107.367 83.8916 108.616C84.2801 109.615 84.0535 110.924 83.8916 111.454C84.5068 113.119 85.3681 117.879 83.8916 123.6C83.0368 126.506 83.2764 128.822 83.503 129.616C83.7621 130.222 83.9889 131.546 82.8231 132Z" fill="#00A499"/>
<path d="M9.23295 22V11.8182H10.4659V20.9062H15.1989V22H9.23295ZM20.1506 22.1591C19.4148 22.1591 18.7801 21.9967 18.2464 21.6719C17.7161 21.3438 17.3068 20.8864 17.0185 20.2997C16.7334 19.7098 16.5909 19.0237 16.5909 18.2415C16.5909 17.4593 16.7334 16.7699 17.0185 16.1733C17.3068 15.5734 17.7079 15.1061 18.2216 14.7713C18.7386 14.4332 19.3419 14.2642 20.0312 14.2642C20.429 14.2642 20.8217 14.3305 21.2095 14.4631C21.5973 14.5956 21.9503 14.8111 22.2685 15.1094C22.5866 15.4044 22.8402 15.7955 23.0291 16.2827C23.218 16.7699 23.3125 17.3698 23.3125 18.0824V18.5795H17.4261V17.5653H22.1193C22.1193 17.1345 22.0331 16.75 21.8608 16.4119C21.6918 16.0739 21.4498 15.8071 21.1349 15.6115C20.8234 15.416 20.4555 15.3182 20.0312 15.3182C19.5639 15.3182 19.1596 15.4342 18.8182 15.6662C18.4801 15.8949 18.2199 16.1932 18.0376 16.5611C17.8554 16.929 17.7642 17.3234 17.7642 17.7443V18.4205C17.7642 18.9972 17.8636 19.486 18.0625 19.8871C18.2647 20.2848 18.5447 20.5881 18.9027 20.7969C19.2607 21.0024 19.6766 21.1051 20.1506 21.1051C20.4588 21.1051 20.7372 21.062 20.9858 20.9759C21.2377 20.8864 21.4548 20.7538 21.6371 20.5781C21.8194 20.3991 21.9602 20.1771 22.0597 19.9119L23.1932 20.2301C23.0739 20.6146 22.8733 20.9527 22.5916 21.2443C22.3099 21.5327 21.9619 21.758 21.5476 21.9205C21.1333 22.0795 20.6676 22.1591 20.1506 22.1591ZM28.4979 14.3636V15.358H24.3814V14.3636H28.4979ZM25.6143 22V13.3097C25.6143 12.8722 25.7171 12.5076 25.9226 12.2159C26.1281 11.9242 26.3949 11.7055 26.723 11.5597C27.0511 11.4138 27.3975 11.3409 27.7621 11.3409C28.0504 11.3409 28.2857 11.3641 28.468 11.4105C28.6503 11.4569 28.7862 11.5 28.8757 11.5398L28.5376 12.554C28.478 12.5341 28.3951 12.5092 28.2891 12.4794C28.1863 12.4496 28.0504 12.4347 27.8814 12.4347C27.4936 12.4347 27.2135 12.5324 27.0412 12.728C26.8722 12.9235 26.7876 13.2102 26.7876 13.5881V22H25.6143ZM33.4632 14.3636V15.358H29.5059V14.3636H33.4632ZM30.6593 12.5341H31.8326V19.8125C31.8326 20.1439 31.8806 20.3925 31.9767 20.5582C32.0762 20.7206 32.2021 20.83 32.3546 20.8864C32.5104 20.9394 32.6744 20.9659 32.8468 20.9659C32.976 20.9659 33.0821 20.9593 33.165 20.946C33.2478 20.9295 33.3141 20.9162 33.3638 20.9062L33.6025 21.9602C33.5229 21.9901 33.4119 22.0199 33.2694 22.0497C33.1268 22.0829 32.9462 22.0994 32.7275 22.0994C32.396 22.0994 32.0712 22.0282 31.753 21.8857C31.4382 21.7431 31.1763 21.526 30.9675 21.2344C30.762 20.9427 30.6593 20.5748 30.6593 20.1307V12.5341Z" fill="#00A499"/>
</svg>
