<svg width="160" height="180" viewBox="0 0 160 180" fill="none" xmlns="http://www.w3.org/2000/svg">
<rect width="160" height="180" rx="4" fill="white"/>
<path d="M77.1769 132C77.9864 131.735 80.0328 131.364 81.7424 132H85.4338C85.9195 131.546 86.5412 130.592 85.1423 130.411L85.1268 130.409C83.3777 130.182 80.6719 129.83 79.9939 125.53C79.4499 122.079 80.1558 117.584 80.5768 115.767V111.794C81.0948 111.454 81.9756 109.955 81.3539 106.686C83.6075 104.234 83.7824 95.4481 83.5881 91.3615C84.009 89.0912 84.8315 84.4371 84.7538 83.983C85.0452 83.3019 84.4624 78.5343 85.4338 72.2909C85.8223 72.5634 85.8547 72.0261 85.8223 71.7234C85.4014 69.7936 83.7047 65.1849 80.2853 62.1881C80.5185 61.2799 80.7063 60.3718 80.771 60.0313C81.1272 60.4097 82.0921 61.0529 83.1024 60.5989C83.491 60.4172 83.2643 59.4637 83.1024 59.0096C83.3938 58.7448 83.8601 57.988 83.3938 57.0799C83.8601 57.0799 84.1709 56.8528 84.2681 56.7393L83.3938 55.1501C83.6205 54.0528 83.7435 51.5857 82.4224 50.496V49.4744C79.6054 48.5662 74.2238 48.3392 75.2341 54.6961C77.4878 58.1469 76.5617 61.1286 75.817 62.1881C74.5865 63.8908 72.7472 68.7039 75.2341 74.3342C76.7884 80.6911 76.7236 84.0965 76.497 85.0047C75.2342 86.8966 73.4662 91.6567 76.497 95.5616C75.2342 102.259 75.817 105.324 76.497 106.346C76.3027 107.821 76.5941 107.367 76.1084 108.616C75.7199 109.615 75.9465 110.924 76.1084 111.454C75.4932 113.119 74.6319 117.879 76.1084 123.6C76.9632 126.506 76.7236 128.822 76.497 129.616C76.2379 130.222 76.0111 131.546 77.1769 132Z" fill="url(#paint0_linear_744_3765)"/>
<path d="M54.8864 148.364L58.3409 158.159H58.4773L61.9318 148.364H63.4091L59.1364 160H57.6818L53.4091 148.364H54.8864ZM65.0398 160V151.273H66.3807V160H65.0398ZM65.7216 149.818C65.4602 149.818 65.2348 149.729 65.0455 149.551C64.8598 149.373 64.767 149.159 64.767 148.909C64.767 148.659 64.8598 148.445 65.0455 148.267C65.2348 148.089 65.4602 148 65.7216 148C65.983 148 66.2064 148.089 66.392 148.267C66.5814 148.445 66.6761 148.659 66.6761 148.909C66.6761 149.159 66.5814 149.373 66.392 149.551C66.2064 149.729 65.983 149.818 65.7216 149.818ZM72.4957 160.182C71.6548 160.182 70.9295 159.996 70.3196 159.625C69.7135 159.25 69.2457 158.727 68.9162 158.057C68.5904 157.383 68.4276 156.598 68.4276 155.705C68.4276 154.811 68.5904 154.023 68.9162 153.341C69.2457 152.655 69.7041 152.121 70.2912 151.739C70.8821 151.352 71.5715 151.159 72.3594 151.159C72.8139 151.159 73.2628 151.235 73.706 151.386C74.1491 151.538 74.5526 151.784 74.9162 152.125C75.2798 152.462 75.5696 152.909 75.7855 153.466C76.0014 154.023 76.1094 154.708 76.1094 155.523V156.091H69.3821V154.932H74.7457C74.7457 154.439 74.6473 154 74.4503 153.614C74.2571 153.227 73.9806 152.922 73.6207 152.699C73.2647 152.475 72.8442 152.364 72.3594 152.364C71.8253 152.364 71.3632 152.496 70.973 152.761C70.5866 153.023 70.2893 153.364 70.081 153.784C69.8726 154.205 69.7685 154.655 69.7685 155.136V155.909C69.7685 156.568 69.8821 157.127 70.1094 157.585C70.3404 158.04 70.6605 158.386 71.0696 158.625C71.4787 158.86 71.9541 158.977 72.4957 158.977C72.848 158.977 73.1662 158.928 73.4503 158.83C73.7382 158.727 73.9863 158.576 74.1946 158.375C74.4029 158.17 74.5639 157.917 74.6776 157.614L75.973 157.977C75.8366 158.417 75.6075 158.803 75.2855 159.136C74.9635 159.466 74.5658 159.723 74.0923 159.909C73.6188 160.091 73.0866 160.182 72.4957 160.182ZM80.1264 160L77.4673 151.273H78.8764L80.7628 157.955H80.8537L82.7173 151.273H84.1491L85.9901 157.932H86.081L87.9673 151.273H89.3764L86.7173 160H85.3991L83.4901 153.295H83.3537L81.4446 160H80.1264ZM95.6491 160V151.273H96.9446V152.591H97.0355C97.1946 152.159 97.4825 151.809 97.8991 151.54C98.3158 151.271 98.7855 151.136 99.3082 151.136C99.4067 151.136 99.5298 151.138 99.6776 151.142C99.8253 151.146 99.937 151.152 100.013 151.159V152.523C99.9673 152.511 99.8632 152.494 99.7003 152.472C99.5412 152.445 99.3726 152.432 99.1946 152.432C98.7704 152.432 98.3916 152.521 98.0582 152.699C97.7287 152.873 97.4673 153.116 97.2741 153.426C97.0848 153.733 96.9901 154.083 96.9901 154.477V160H95.6491ZM104.996 160.182C104.155 160.182 103.429 159.996 102.82 159.625C102.214 159.25 101.746 158.727 101.416 158.057C101.09 157.383 100.928 156.598 100.928 155.705C100.928 154.811 101.09 154.023 101.416 153.341C101.746 152.655 102.204 152.121 102.791 151.739C103.382 151.352 104.071 151.159 104.859 151.159C105.314 151.159 105.763 151.235 106.206 151.386C106.649 151.538 107.053 151.784 107.416 152.125C107.78 152.462 108.07 152.909 108.286 153.466C108.501 154.023 108.609 154.708 108.609 155.523V156.091H101.882V154.932H107.246C107.246 154.439 107.147 154 106.95 153.614C106.757 153.227 106.481 152.922 106.121 152.699C105.765 152.475 105.344 152.364 104.859 152.364C104.325 152.364 103.863 152.496 103.473 152.761C103.087 153.023 102.789 153.364 102.581 153.784C102.373 154.205 102.268 154.655 102.268 155.136V155.909C102.268 156.568 102.382 157.127 102.609 157.585C102.84 158.04 103.161 158.386 103.57 158.625C103.979 158.86 104.454 158.977 104.996 158.977C105.348 158.977 105.666 158.928 105.95 158.83C106.238 158.727 106.486 158.576 106.695 158.375C106.903 158.17 107.064 157.917 107.178 157.614L108.473 157.977C108.337 158.417 108.107 158.803 107.786 159.136C107.464 159.466 107.066 159.723 106.592 159.909C106.119 160.091 105.587 160.182 104.996 160.182ZM116.831 153.227L115.626 153.568C115.551 153.367 115.439 153.172 115.291 152.983C115.147 152.79 114.95 152.631 114.7 152.506C114.45 152.381 114.13 152.318 113.74 152.318C113.206 152.318 112.761 152.441 112.405 152.688C112.053 152.93 111.876 153.239 111.876 153.614C111.876 153.947 111.998 154.21 112.24 154.403C112.482 154.597 112.861 154.758 113.376 154.886L114.672 155.205C115.452 155.394 116.034 155.684 116.416 156.074C116.799 156.46 116.99 156.958 116.99 157.568C116.99 158.068 116.846 158.515 116.558 158.909C116.274 159.303 115.876 159.614 115.365 159.841C114.854 160.068 114.259 160.182 113.581 160.182C112.691 160.182 111.954 159.989 111.371 159.602C110.787 159.216 110.418 158.652 110.263 157.909L111.536 157.591C111.657 158.061 111.886 158.413 112.223 158.648C112.564 158.883 113.009 159 113.558 159C114.183 159 114.679 158.867 115.047 158.602C115.418 158.333 115.604 158.011 115.604 157.636C115.604 157.333 115.498 157.08 115.286 156.875C115.073 156.667 114.748 156.511 114.308 156.409L112.854 156.068C112.054 155.879 111.467 155.585 111.092 155.188C110.721 154.786 110.536 154.284 110.536 153.682C110.536 153.189 110.674 152.754 110.95 152.375C111.231 151.996 111.611 151.699 112.092 151.483C112.577 151.267 113.126 151.159 113.74 151.159C114.604 151.159 115.282 151.348 115.774 151.727C116.27 152.106 116.623 152.606 116.831 153.227ZM124.509 156.432V151.273H125.849V160H124.509V158.523H124.418C124.213 158.966 123.895 159.343 123.463 159.653C123.031 159.96 122.486 160.114 121.827 160.114C121.281 160.114 120.796 159.994 120.372 159.756C119.948 159.513 119.615 159.15 119.372 158.665C119.13 158.176 119.009 157.561 119.009 156.818V151.273H120.349V156.727C120.349 157.364 120.527 157.871 120.884 158.25C121.243 158.629 121.702 158.818 122.259 158.818C122.592 158.818 122.931 158.733 123.276 158.562C123.624 158.392 123.916 158.131 124.151 157.778C124.389 157.426 124.509 156.977 124.509 156.432ZM129.646 148.364V160H128.305V148.364H129.646ZM135.898 151.273V152.409H131.375V151.273H135.898ZM132.693 149.182H134.034V157.5C134.034 157.879 134.089 158.163 134.199 158.352C134.313 158.538 134.456 158.663 134.631 158.727C134.809 158.788 134.996 158.818 135.193 158.818C135.341 158.818 135.462 158.811 135.557 158.795C135.652 158.777 135.727 158.761 135.784 158.75L136.057 159.955C135.966 159.989 135.839 160.023 135.676 160.057C135.513 160.095 135.307 160.114 135.057 160.114C134.678 160.114 134.307 160.032 133.943 159.869C133.583 159.706 133.284 159.458 133.045 159.125C132.811 158.792 132.693 158.371 132.693 157.864V149.182Z" fill="#00A499"/>
<path d="M9.23295 22V11.8182H12.6733C13.4688 11.8182 14.1217 11.9541 14.6321 12.2259C15.1425 12.4943 15.5204 12.8639 15.7656 13.3345C16.0109 13.8052 16.1335 14.3404 16.1335 14.9403C16.1335 15.5402 16.0109 16.0722 15.7656 16.5362C15.5204 17.0002 15.1442 17.3648 14.6371 17.63C14.13 17.8918 13.482 18.0227 12.6932 18.0227H9.90909V16.9091H12.6534C13.197 16.9091 13.6345 16.8295 13.9659 16.6705C14.3007 16.5114 14.5426 16.286 14.6918 15.9943C14.8442 15.6993 14.9205 15.348 14.9205 14.9403C14.9205 14.5327 14.8442 14.1764 14.6918 13.8714C14.5393 13.5665 14.2957 13.3312 13.9609 13.1655C13.6262 12.9964 13.1837 12.9119 12.6335 12.9119H10.4659V22H9.23295ZM14.0256 17.4261L16.5312 22H15.0994L12.6335 17.4261H14.0256ZM18.0289 22V14.3636H19.2022V22H18.0289ZM18.6255 13.0909C18.3968 13.0909 18.1996 13.013 18.0339 12.8572C17.8715 12.7015 17.7903 12.5142 17.7903 12.2955C17.7903 12.0767 17.8715 11.8894 18.0339 11.7337C18.1996 11.5779 18.3968 11.5 18.6255 11.5C18.8542 11.5 19.0498 11.5779 19.2122 11.7337C19.3779 11.8894 19.4608 12.0767 19.4608 12.2955C19.4608 12.5142 19.3779 12.7015 19.2122 12.8572C19.0498 13.013 18.8542 13.0909 18.6255 13.0909ZM24.4336 25.0227C23.8668 25.0227 23.3796 24.9498 22.9719 24.804C22.5643 24.6615 22.2246 24.4725 21.9528 24.2372C21.6843 24.0052 21.4705 23.7566 21.3114 23.4915L22.2461 22.8352C22.3522 22.9744 22.4864 23.1335 22.6488 23.3125C22.8112 23.4948 23.0333 23.6522 23.315 23.7848C23.6 23.9207 23.9729 23.9886 24.4336 23.9886C25.0501 23.9886 25.5588 23.8395 25.9599 23.5412C26.3609 23.2429 26.5614 22.7756 26.5614 22.1392V20.5881H26.462C26.3758 20.7273 26.2532 20.8996 26.0941 21.1051C25.9383 21.3073 25.7129 21.4879 25.418 21.647C25.1263 21.8028 24.7319 21.8807 24.2347 21.8807C23.6183 21.8807 23.0647 21.7348 22.5742 21.4432C22.087 21.1515 21.7009 20.7273 21.4158 20.1705C21.1341 19.6136 20.9933 18.9375 20.9933 18.142C20.9933 17.3598 21.1308 16.6787 21.4059 16.0987C21.681 15.5154 22.0638 15.0646 22.5543 14.7464C23.0449 14.425 23.6116 14.2642 24.2546 14.2642C24.7518 14.2642 25.1462 14.3471 25.4379 14.5128C25.7328 14.6752 25.9582 14.8608 26.114 15.0696C26.2731 15.2751 26.3957 15.4441 26.4819 15.5767H26.6012V14.3636H27.7347V22.2188C27.7347 22.875 27.5856 23.4086 27.2873 23.8196C26.9923 24.2339 26.5946 24.5372 26.0941 24.7294C25.5969 24.925 25.0434 25.0227 24.4336 25.0227ZM24.3938 20.8267C24.8645 20.8267 25.2622 20.719 25.587 20.5036C25.9118 20.2881 26.1587 19.9782 26.3278 19.5739C26.4968 19.1695 26.5813 18.6856 26.5813 18.1222C26.5813 17.572 26.4985 17.0864 26.3327 16.6655C26.167 16.2446 25.9218 15.9148 25.5969 15.6761C25.2721 15.4375 24.8711 15.3182 24.3938 15.3182C23.8967 15.3182 23.4824 15.4441 23.1509 15.696C22.8228 15.9479 22.5759 16.286 22.4102 16.7102C22.2478 17.1345 22.1665 17.6051 22.1665 18.1222C22.1665 18.6525 22.2494 19.1214 22.4151 19.5291C22.5842 19.9335 22.8327 20.2517 23.1609 20.4837C23.4923 20.7124 23.9033 20.8267 24.3938 20.8267ZM31.0558 17.4062V22H29.8825V11.8182H31.0558V15.5568H31.1552C31.3342 15.1624 31.6026 14.8492 31.9606 14.6172C32.3219 14.3819 32.8024 14.2642 33.4023 14.2642C33.9227 14.2642 34.3784 14.3686 34.7695 14.5774C35.1606 14.7829 35.4639 15.0994 35.6793 15.527C35.8981 15.9512 36.0075 16.4915 36.0075 17.1477V22H34.8342V17.2273C34.8342 16.6207 34.6767 16.1518 34.3619 15.8203C34.0503 15.4856 33.6178 15.3182 33.0643 15.3182C32.6798 15.3182 32.3351 15.3994 32.0302 15.5618C31.7286 15.7242 31.4899 15.9612 31.3143 16.2727C31.1419 16.5843 31.0558 16.9621 31.0558 17.4062ZM41.475 14.3636V15.358H37.5176V14.3636H41.475ZM38.671 12.5341H39.8443V19.8125C39.8443 20.1439 39.8923 20.3925 39.9885 20.5582C40.0879 20.7206 40.2138 20.83 40.3663 20.8864C40.5221 20.9394 40.6861 20.9659 40.8585 20.9659C40.9877 20.9659 41.0938 20.9593 41.1767 20.946C41.2595 20.9295 41.3258 20.9162 41.3755 20.9062L41.6142 21.9602C41.5346 21.9901 41.4236 22.0199 41.2811 22.0497C41.1386 22.0829 40.9579 22.0994 40.7392 22.0994C40.4077 22.0994 40.0829 22.0282 39.7647 21.8857C39.4499 21.7431 39.188 21.526 38.9792 21.2344C38.7737 20.9427 38.671 20.5748 38.671 20.1307V12.5341Z" fill="#00A499"/>
<path d="M45 153.08V154C44.9988 156.157 44.3005 158.255 43.0093 159.982C41.7182 161.709 39.9033 162.973 37.8354 163.584C35.7674 164.195 33.5573 164.122 31.5345 163.375C29.5117 162.627 27.7847 161.246 26.611 159.437C25.4373 157.628 24.8798 155.488 25.0217 153.336C25.1636 151.185 25.9972 149.136 27.3983 147.497C28.7994 145.858 30.6928 144.715 32.7962 144.24C34.8996 143.765 37.1003 143.982 39.07 144.86" stroke="#00A499" stroke-width="2" stroke-linecap="round" stroke-linejoin="round"/>
<path d="M45 146L35 156.01L32 153.01" stroke="#00A499" stroke-width="2" stroke-linecap="round" stroke-linejoin="round"/>
<defs>
<linearGradient id="paint0_linear_744_3765" x1="75.8545" y1="49.9022" x2="84.6224" y2="49.9372" gradientUnits="userSpaceOnUse">
<stop stop-color="#009E94"/>
<stop offset="1" stop-color="#00B594"/>
</linearGradient>
</defs>
</svg>
