<svg width="160" height="180" viewBox="0 0 160 180" fill="none" xmlns="http://www.w3.org/2000/svg">
<rect width="160" height="180" rx="4" fill="white"/>
<path d="M44.4972 159V146.636H48.6747C49.6406 146.636 50.4335 146.801 51.0533 147.131C51.6731 147.457 52.1319 147.906 52.4297 148.478C52.7275 149.049 52.8764 149.699 52.8764 150.428C52.8764 151.156 52.7275 151.802 52.4297 152.365C52.1319 152.929 51.6751 153.372 51.0593 153.694C50.4435 154.011 49.6567 154.17 48.6989 154.17H45.3182V152.818H48.6506C49.3106 152.818 49.8419 152.722 50.2443 152.528C50.6508 152.335 50.9446 152.062 51.1257 151.707C51.3108 151.349 51.4034 150.923 51.4034 150.428C51.4034 149.933 51.3108 149.5 51.1257 149.13C50.9406 148.759 50.6448 148.474 50.2383 148.272C49.8318 148.067 49.2945 147.964 48.6264 147.964H45.9943V159H44.4972ZM50.3168 153.446L53.3594 159H51.6207L48.6264 153.446H50.3168ZM58.9662 159.193C58.0727 159.193 57.302 158.996 56.654 158.602C56.0101 158.203 55.5131 157.648 55.1629 156.935C54.8168 156.219 54.6437 155.386 54.6437 154.436C54.6437 153.486 54.8168 152.649 55.1629 151.925C55.5131 151.196 56 150.629 56.6238 150.222C57.2517 149.812 57.9842 149.607 58.8213 149.607C59.3042 149.607 59.7812 149.687 60.252 149.848C60.7229 150.009 61.1515 150.271 61.5379 150.633C61.9243 150.991 62.2322 151.466 62.4616 152.058C62.691 152.649 62.8057 153.378 62.8057 154.243V154.847H55.6579V153.615H61.3568C61.3568 153.092 61.2522 152.625 61.0429 152.214C60.8376 151.804 60.5438 151.48 60.1615 151.243C59.7832 151.005 59.3364 150.886 58.8213 150.886C58.2538 150.886 57.7628 151.027 57.3483 151.309C56.9378 151.587 56.6218 151.949 56.4005 152.396C56.1791 152.842 56.0684 153.321 56.0684 153.832V154.653C56.0684 155.354 56.1892 155.947 56.4307 156.434C56.6762 156.917 57.0162 157.286 57.4509 157.539C57.8856 157.789 58.3907 157.913 58.9662 157.913C59.3405 157.913 59.6785 157.861 59.9804 157.756C60.2863 157.648 60.5499 157.487 60.7712 157.273C60.9926 157.056 61.1636 156.786 61.2844 156.464L62.6608 156.851C62.5159 157.318 62.2724 157.728 61.9303 158.082C61.5882 158.433 61.1656 158.706 60.6626 158.903C60.1595 159.097 59.594 159.193 58.9662 159.193ZM69.0056 149.727V150.935H64.2002V149.727H69.0056ZM65.6008 147.506H67.0255V156.344C67.0255 156.746 67.0838 157.048 67.2006 157.249C67.3213 157.446 67.4742 157.579 67.6594 157.648C67.8485 157.712 68.0477 157.744 68.257 157.744C68.414 157.744 68.5428 157.736 68.6434 157.72C68.744 157.7 68.8245 157.684 68.8849 157.672L69.1746 158.952C69.078 158.988 68.9432 159.024 68.7702 159.06C68.5971 159.101 68.3778 159.121 68.1121 159.121C67.7097 159.121 67.3153 159.034 66.9289 158.861C66.5465 158.688 66.2286 158.424 65.9751 158.07C65.7255 157.716 65.6008 157.269 65.6008 156.73V147.506ZM73.8774 159.217C73.2898 159.217 72.7565 159.107 72.2776 158.885C71.7987 158.66 71.4184 158.336 71.1366 157.913C70.8549 157.487 70.714 156.972 70.714 156.368C70.714 155.837 70.8187 155.406 71.028 155.076C71.2372 154.742 71.517 154.48 71.8671 154.291C72.2172 154.102 72.6036 153.961 73.0262 153.869C73.4528 153.772 73.8814 153.696 74.3121 153.639C74.8755 153.567 75.3323 153.512 75.6824 153.476C76.0366 153.436 76.2942 153.37 76.4552 153.277C76.6202 153.184 76.7027 153.023 76.7027 152.794V152.746C76.7027 152.15 76.5397 151.687 76.2137 151.357C75.8917 151.027 75.4027 150.862 74.7467 150.862C74.0666 150.862 73.5333 151.011 73.1469 151.309C72.7606 151.607 72.4889 151.925 72.3319 152.263L70.9797 151.78C71.2211 151.216 71.5431 150.778 71.9456 150.464C72.3521 150.146 72.7948 149.924 73.2737 149.8C73.7567 149.671 74.2316 149.607 74.6984 149.607C74.9962 149.607 75.3383 149.643 75.7247 149.715C76.1151 149.784 76.4914 149.926 76.8536 150.144C77.2198 150.361 77.5237 150.689 77.7652 151.128C78.0067 151.567 78.1274 152.154 78.1274 152.891V159H76.7027V157.744H76.6302C76.5336 157.946 76.3727 158.161 76.1473 158.39C75.9219 158.62 75.6221 158.815 75.2478 158.976C74.8735 159.137 74.4167 159.217 73.8774 159.217ZM74.0947 157.938C74.6582 157.938 75.1331 157.827 75.5194 157.605C75.9098 157.384 76.2036 157.098 76.4008 156.748C76.6021 156.398 76.7027 156.03 76.7027 155.643V154.339C76.6423 154.412 76.5095 154.478 76.3042 154.539C76.103 154.595 75.8696 154.645 75.604 154.69C75.3424 154.73 75.0868 154.766 74.8373 154.798C74.5918 154.826 74.3925 154.851 74.2396 154.871C73.8693 154.919 73.5232 154.998 73.2013 155.106C72.8833 155.211 72.6257 155.37 72.4285 155.583C72.2354 155.792 72.1388 156.078 72.1388 156.44C72.1388 156.935 72.3219 157.31 72.6881 157.563C73.0584 157.813 73.5273 157.938 74.0947 157.938ZM82.0559 155.619L82.0318 153.857H82.3216L86.3784 149.727H88.1412L83.8187 154.098H83.698L82.0559 155.619ZM80.7278 159V146.636H82.1525V159H80.7278ZM86.6199 159L82.9977 154.412L84.0119 153.422L88.4309 159H86.6199ZM93.4808 159.193C92.5874 159.193 91.8166 158.996 91.1687 158.602C90.5247 158.203 90.0277 157.648 89.6776 156.935C89.3314 156.219 89.1584 155.386 89.1584 154.436C89.1584 153.486 89.3314 152.649 89.6776 151.925C90.0277 151.196 90.5147 150.629 91.1385 150.222C91.7663 149.812 92.4988 149.607 93.3359 149.607C93.8189 149.607 94.2958 149.687 94.7667 149.848C95.2376 150.009 95.6662 150.271 96.0526 150.633C96.4389 150.991 96.7468 151.466 96.9762 152.058C97.2056 152.649 97.3203 153.378 97.3203 154.243V154.847H90.1726V153.615H95.8714C95.8714 153.092 95.7668 152.625 95.5575 152.214C95.3523 151.804 95.0585 151.48 94.6761 151.243C94.2978 151.005 93.8511 150.886 93.3359 150.886C92.7685 150.886 92.2775 151.027 91.8629 151.309C91.4524 151.587 91.1365 151.949 90.9151 152.396C90.6938 152.842 90.5831 153.321 90.5831 153.832V154.653C90.5831 155.354 90.7038 155.947 90.9453 156.434C91.1908 156.917 91.5309 157.286 91.9656 157.539C92.4002 157.789 92.9053 157.913 93.4808 157.913C93.8551 157.913 94.1932 157.861 94.495 157.756C94.8009 157.648 95.0645 157.487 95.2859 157.273C95.5072 157.056 95.6783 156.786 95.799 156.464L97.1754 156.851C97.0305 157.318 96.7871 157.728 96.445 158.082C96.1029 158.433 95.6803 158.706 95.1772 158.903C94.6741 159.097 94.1087 159.193 93.4808 159.193ZM104.269 162.477V149.727H105.645V151.2H105.814C105.919 151.039 106.064 150.834 106.249 150.585C106.438 150.331 106.708 150.106 107.058 149.908C107.412 149.707 107.891 149.607 108.495 149.607C109.275 149.607 109.964 149.802 110.559 150.192C111.155 150.583 111.62 151.136 111.954 151.852C112.288 152.569 112.455 153.414 112.455 154.388C112.455 155.37 112.288 156.221 111.954 156.941C111.62 157.658 111.157 158.213 110.565 158.608C109.974 158.998 109.292 159.193 108.519 159.193C107.923 159.193 107.446 159.095 107.088 158.897C106.73 158.696 106.454 158.469 106.261 158.215C106.068 157.958 105.919 157.744 105.814 157.575H105.694V162.477H104.269ZM105.669 154.364C105.669 155.064 105.772 155.682 105.977 156.217C106.183 156.748 106.482 157.165 106.877 157.467C107.271 157.764 107.754 157.913 108.326 157.913C108.921 157.913 109.418 157.756 109.817 157.442C110.219 157.125 110.521 156.698 110.722 156.163C110.928 155.623 111.03 155.024 111.03 154.364C111.03 153.712 110.93 153.124 110.728 152.601C110.531 152.074 110.231 151.657 109.829 151.351C109.43 151.041 108.929 150.886 108.326 150.886C107.746 150.886 107.259 151.033 106.865 151.327C106.47 151.617 106.172 152.023 105.971 152.547C105.77 153.066 105.669 153.671 105.669 154.364ZM116.053 153.422V159H114.628V146.636H116.053V151.176H116.174C116.391 150.697 116.717 150.317 117.152 150.035C117.59 149.749 118.174 149.607 118.902 149.607C119.534 149.607 120.088 149.733 120.562 149.987C121.037 150.236 121.406 150.621 121.667 151.14C121.933 151.655 122.066 152.311 122.066 153.108V159H120.641V153.205C120.641 152.468 120.45 151.899 120.067 151.496C119.689 151.09 119.164 150.886 118.492 150.886C118.025 150.886 117.606 150.985 117.236 151.182C116.87 151.379 116.58 151.667 116.367 152.045C116.158 152.424 116.053 152.883 116.053 153.422ZM128.439 159.193C127.602 159.193 126.868 158.994 126.236 158.596C125.608 158.197 125.117 157.64 124.763 156.923C124.413 156.207 124.237 155.37 124.237 154.412C124.237 153.446 124.413 152.603 124.763 151.882C125.117 151.162 125.608 150.603 126.236 150.204C126.868 149.806 127.602 149.607 128.439 149.607C129.276 149.607 130.009 149.806 130.637 150.204C131.268 150.603 131.759 151.162 132.11 151.882C132.464 152.603 132.641 153.446 132.641 154.412C132.641 155.37 132.464 156.207 132.11 156.923C131.759 157.64 131.268 158.197 130.637 158.596C130.009 158.994 129.276 159.193 128.439 159.193ZM128.439 157.913C129.075 157.913 129.598 157.75 130.009 157.424C130.419 157.098 130.723 156.67 130.92 156.138C131.118 155.607 131.216 155.032 131.216 154.412C131.216 153.792 131.118 153.215 130.92 152.679C130.723 152.144 130.419 151.711 130.009 151.381C129.598 151.051 129.075 150.886 128.439 150.886C127.803 150.886 127.28 151.051 126.87 151.381C126.459 151.711 126.155 152.144 125.958 152.679C125.761 153.215 125.662 153.792 125.662 154.412C125.662 155.032 125.761 155.607 125.958 156.138C126.155 156.67 126.459 157.098 126.87 157.424C127.28 157.75 127.803 157.913 128.439 157.913ZM138.848 149.727V150.935H134.043V149.727H138.848ZM135.444 147.506H136.868V156.344C136.868 156.746 136.927 157.048 137.043 157.249C137.164 157.446 137.317 157.579 137.502 157.648C137.691 157.712 137.891 157.744 138.1 157.744C138.257 157.744 138.386 157.736 138.486 157.72C138.587 157.7 138.667 157.684 138.728 157.672L139.017 158.952C138.921 158.988 138.786 159.024 138.613 159.06C138.44 159.101 138.221 159.121 137.955 159.121C137.552 159.121 137.158 159.034 136.772 158.861C136.389 158.688 136.071 158.424 135.818 158.07C135.568 157.716 135.444 157.269 135.444 156.73V147.506ZM144.659 159.193C143.822 159.193 143.087 158.994 142.455 158.596C141.828 158.197 141.337 157.64 140.982 156.923C140.632 156.207 140.457 155.37 140.457 154.412C140.457 153.446 140.632 152.603 140.982 151.882C141.337 151.162 141.828 150.603 142.455 150.204C143.087 149.806 143.822 149.607 144.659 149.607C145.496 149.607 146.229 149.806 146.856 150.204C147.488 150.603 147.979 151.162 148.329 151.882C148.684 152.603 148.861 153.446 148.861 154.412C148.861 155.37 148.684 156.207 148.329 156.923C147.979 157.64 147.488 158.197 146.856 158.596C146.229 158.994 145.496 159.193 144.659 159.193ZM144.659 157.913C145.295 157.913 145.818 157.75 146.229 157.424C146.639 157.098 146.943 156.67 147.14 156.138C147.337 155.607 147.436 155.032 147.436 154.412C147.436 153.792 147.337 153.215 147.14 152.679C146.943 152.144 146.639 151.711 146.229 151.381C145.818 151.051 145.295 150.886 144.659 150.886C144.023 150.886 143.5 151.051 143.089 151.381C142.679 151.711 142.375 152.144 142.178 152.679C141.981 153.215 141.882 153.792 141.882 154.412C141.882 155.032 141.981 155.607 142.178 156.138C142.375 156.67 142.679 157.098 143.089 157.424C143.5 157.75 144.023 157.913 144.659 157.913Z" fill="#F1B314"/>
<path d="M9.23295 22V11.8182H12.6733C13.4688 11.8182 14.1217 11.9541 14.6321 12.2259C15.1425 12.4943 15.5204 12.8639 15.7656 13.3345C16.0109 13.8052 16.1335 14.3404 16.1335 14.9403C16.1335 15.5402 16.0109 16.0722 15.7656 16.5362C15.5204 17.0002 15.1442 17.3648 14.6371 17.63C14.13 17.8918 13.482 18.0227 12.6932 18.0227H9.90909V16.9091H12.6534C13.197 16.9091 13.6345 16.8295 13.9659 16.6705C14.3007 16.5114 14.5426 16.286 14.6918 15.9943C14.8442 15.6993 14.9205 15.348 14.9205 14.9403C14.9205 14.5327 14.8442 14.1764 14.6918 13.8714C14.5393 13.5665 14.2957 13.3312 13.9609 13.1655C13.6262 12.9964 13.1837 12.9119 12.6335 12.9119H10.4659V22H9.23295ZM14.0256 17.4261L16.5312 22H15.0994L12.6335 17.4261H14.0256ZM18.0289 22V14.3636H19.2022V22H18.0289ZM18.6255 13.0909C18.3968 13.0909 18.1996 13.013 18.0339 12.8572C17.8715 12.7015 17.7903 12.5142 17.7903 12.2955C17.7903 12.0767 17.8715 11.8894 18.0339 11.7337C18.1996 11.5779 18.3968 11.5 18.6255 11.5C18.8542 11.5 19.0498 11.5779 19.2122 11.7337C19.3779 11.8894 19.4608 12.0767 19.4608 12.2955C19.4608 12.5142 19.3779 12.7015 19.2122 12.8572C19.0498 13.013 18.8542 13.0909 18.6255 13.0909ZM24.4336 25.0227C23.8668 25.0227 23.3796 24.9498 22.9719 24.804C22.5643 24.6615 22.2246 24.4725 21.9528 24.2372C21.6843 24.0052 21.4705 23.7566 21.3114 23.4915L22.2461 22.8352C22.3522 22.9744 22.4864 23.1335 22.6488 23.3125C22.8112 23.4948 23.0333 23.6522 23.315 23.7848C23.6 23.9207 23.9729 23.9886 24.4336 23.9886C25.0501 23.9886 25.5588 23.8395 25.9599 23.5412C26.3609 23.2429 26.5614 22.7756 26.5614 22.1392V20.5881H26.462C26.3758 20.7273 26.2532 20.8996 26.0941 21.1051C25.9383 21.3073 25.7129 21.4879 25.418 21.647C25.1263 21.8028 24.7319 21.8807 24.2347 21.8807C23.6183 21.8807 23.0647 21.7348 22.5742 21.4432C22.087 21.1515 21.7009 20.7273 21.4158 20.1705C21.1341 19.6136 20.9933 18.9375 20.9933 18.142C20.9933 17.3598 21.1308 16.6787 21.4059 16.0987C21.681 15.5154 22.0638 15.0646 22.5543 14.7464C23.0449 14.425 23.6116 14.2642 24.2546 14.2642C24.7518 14.2642 25.1462 14.3471 25.4379 14.5128C25.7328 14.6752 25.9582 14.8608 26.114 15.0696C26.2731 15.2751 26.3957 15.4441 26.4819 15.5767H26.6012V14.3636H27.7347V22.2188C27.7347 22.875 27.5856 23.4086 27.2873 23.8196C26.9923 24.2339 26.5946 24.5372 26.0941 24.7294C25.5969 24.925 25.0434 25.0227 24.4336 25.0227ZM24.3938 20.8267C24.8645 20.8267 25.2622 20.719 25.587 20.5036C25.9118 20.2881 26.1587 19.9782 26.3278 19.5739C26.4968 19.1695 26.5813 18.6856 26.5813 18.1222C26.5813 17.572 26.4985 17.0864 26.3327 16.6655C26.167 16.2446 25.9218 15.9148 25.5969 15.6761C25.2721 15.4375 24.8711 15.3182 24.3938 15.3182C23.8967 15.3182 23.4824 15.4441 23.1509 15.696C22.8228 15.9479 22.5759 16.286 22.4102 16.7102C22.2478 17.1345 22.1665 17.6051 22.1665 18.1222C22.1665 18.6525 22.2494 19.1214 22.4151 19.5291C22.5842 19.9335 22.8327 20.2517 23.1609 20.4837C23.4923 20.7124 23.9033 20.8267 24.3938 20.8267ZM31.0558 17.4062V22H29.8825V11.8182H31.0558V15.5568H31.1552C31.3342 15.1624 31.6026 14.8492 31.9606 14.6172C32.3219 14.3819 32.8024 14.2642 33.4023 14.2642C33.9227 14.2642 34.3784 14.3686 34.7695 14.5774C35.1606 14.7829 35.4639 15.0994 35.6793 15.527C35.8981 15.9512 36.0075 16.4915 36.0075 17.1477V22H34.8342V17.2273C34.8342 16.6207 34.6767 16.1518 34.3619 15.8203C34.0503 15.4856 33.6178 15.3182 33.0643 15.3182C32.6798 15.3182 32.3351 15.3994 32.0302 15.5618C31.7286 15.7242 31.4899 15.9612 31.3143 16.2727C31.1419 16.5843 31.0558 16.9621 31.0558 17.4062ZM41.475 14.3636V15.358H37.5176V14.3636H41.475ZM38.671 12.5341H39.8443V19.8125C39.8443 20.1439 39.8923 20.3925 39.9885 20.5582C40.0879 20.7206 40.2138 20.83 40.3663 20.8864C40.5221 20.9394 40.6861 20.9659 40.8585 20.9659C40.9877 20.9659 41.0938 20.9593 41.1767 20.946C41.2595 20.9295 41.3258 20.9162 41.3755 20.9062L41.6142 21.9602C41.5346 21.9901 41.4236 22.0199 41.2811 22.0497C41.1386 22.0829 40.9579 22.0994 40.7392 22.0994C40.4077 22.0994 40.0829 22.0282 39.7647 21.8857C39.4499 21.7431 39.188 21.526 38.9792 21.2344C38.7737 20.9427 38.671 20.5748 38.671 20.1307V12.5341Z" fill="#F1B314"/>
<path d="M34 159C34 159.53 33.7893 160.039 33.4142 160.414C33.0391 160.789 32.5304 161 32 161H14C13.4696 161 12.9609 160.789 12.5858 160.414C12.2107 160.039 12 159.53 12 159V148C12 147.47 12.2107 146.961 12.5858 146.586C12.9609 146.211 13.4696 146 14 146H18L20 143H26L28 146H32C32.5304 146 33.0391 146.211 33.4142 146.586C33.7893 146.961 34 147.47 34 148V159Z" stroke="#F1B314" stroke-width="2" stroke-linecap="round" stroke-linejoin="round"/>
<path d="M23 157C25.2091 157 27 155.209 27 153C27 150.791 25.2091 149 23 149C20.7909 149 19 150.791 19 153C19 155.209 20.7909 157 23 157Z" stroke="#F1B314" stroke-width="2" stroke-linecap="round" stroke-linejoin="round"/>
<path d="M75.0125 66.2584L50.3083 107.5C49.799 108.382 49.5295 109.382 49.5266 110.401C49.5238 111.419 49.7877 112.421 50.2921 113.306C50.7965 114.191 51.5238 114.928 52.4016 115.445C53.2795 115.961 54.2773 116.239 55.2958 116.25H104.704C105.723 116.239 106.72 115.961 107.598 115.445C108.476 114.928 109.204 114.191 109.708 113.306C110.212 112.421 110.476 111.419 110.473 110.401C110.471 109.382 110.201 108.382 109.692 107.5L84.9875 66.2584C84.4675 65.4013 83.7354 64.6925 82.8618 64.2007C81.9882 63.7088 81.0026 63.4504 80 63.4504C78.9974 63.4504 78.0118 63.7088 77.1382 64.2007C76.2646 64.6925 75.5325 65.4013 75.0125 66.2584V66.2584Z" stroke="#F1B314" stroke-width="2" stroke-linecap="round" stroke-linejoin="round"/>
<path d="M80 81.25V92.9167" stroke="#F1B314" stroke-width="2" stroke-linecap="round" stroke-linejoin="round"/>
<path d="M80 104.583H80.0292" stroke="#F1B314" stroke-width="2" stroke-linecap="round" stroke-linejoin="round"/>
</svg>
