<svg width="160" height="180" viewBox="0 0 160 180" fill="none" xmlns="http://www.w3.org/2000/svg">
<rect width="160" height="180" rx="4" fill="white"/>
<path d="M44.4972 159V146.636H48.6747C49.6406 146.636 50.4335 146.801 51.0533 147.131C51.6731 147.457 52.1319 147.906 52.4297 148.478C52.7275 149.049 52.8764 149.699 52.8764 150.428C52.8764 151.156 52.7275 151.802 52.4297 152.365C52.1319 152.929 51.6751 153.372 51.0593 153.694C50.4435 154.011 49.6567 154.17 48.6989 154.17H45.3182V152.818H48.6506C49.3106 152.818 49.8419 152.722 50.2443 152.528C50.6508 152.335 50.9446 152.062 51.1257 151.707C51.3108 151.349 51.4034 150.923 51.4034 150.428C51.4034 149.933 51.3108 149.5 51.1257 149.13C50.9406 148.759 50.6448 148.474 50.2383 148.272C49.8318 148.067 49.2945 147.964 48.6264 147.964H45.9943V159H44.4972ZM50.3168 153.446L53.3594 159H51.6207L48.6264 153.446H50.3168ZM58.9662 159.193C58.0727 159.193 57.302 158.996 56.654 158.602C56.0101 158.203 55.5131 157.648 55.1629 156.935C54.8168 156.219 54.6437 155.386 54.6437 154.436C54.6437 153.486 54.8168 152.649 55.1629 151.925C55.5131 151.196 56 150.629 56.6238 150.222C57.2517 149.812 57.9842 149.607 58.8213 149.607C59.3042 149.607 59.7812 149.687 60.252 149.848C60.7229 150.009 61.1515 150.271 61.5379 150.633C61.9243 150.991 62.2322 151.466 62.4616 152.058C62.691 152.649 62.8057 153.378 62.8057 154.243V154.847H55.6579V153.615H61.3568C61.3568 153.092 61.2522 152.625 61.0429 152.214C60.8376 151.804 60.5438 151.48 60.1615 151.243C59.7832 151.005 59.3364 150.886 58.8213 150.886C58.2538 150.886 57.7628 151.027 57.3483 151.309C56.9378 151.587 56.6218 151.949 56.4005 152.396C56.1791 152.842 56.0684 153.321 56.0684 153.832V154.653C56.0684 155.354 56.1892 155.947 56.4307 156.434C56.6762 156.917 57.0162 157.286 57.4509 157.539C57.8856 157.789 58.3907 157.913 58.9662 157.913C59.3405 157.913 59.6785 157.861 59.9804 157.756C60.2863 157.648 60.5499 157.487 60.7712 157.273C60.9926 157.056 61.1636 156.786 61.2844 156.464L62.6608 156.851C62.5159 157.318 62.2724 157.728 61.9303 158.082C61.5882 158.433 61.1656 158.706 60.6626 158.903C60.1595 159.097 59.594 159.193 58.9662 159.193ZM69.0056 149.727V150.935H64.2002V149.727H69.0056ZM65.6008 147.506H67.0255V156.344C67.0255 156.746 67.0838 157.048 67.2006 157.249C67.3213 157.446 67.4742 157.579 67.6594 157.648C67.8485 157.712 68.0477 157.744 68.257 157.744C68.414 157.744 68.5428 157.736 68.6434 157.72C68.744 157.7 68.8245 157.684 68.8849 157.672L69.1746 158.952C69.078 158.988 68.9432 159.024 68.7702 159.06C68.5971 159.101 68.3778 159.121 68.1121 159.121C67.7097 159.121 67.3153 159.034 66.9289 158.861C66.5465 158.688 66.2286 158.424 65.9751 158.07C65.7255 157.716 65.6008 157.269 65.6008 156.73V147.506ZM73.8774 159.217C73.2898 159.217 72.7565 159.107 72.2776 158.885C71.7987 158.66 71.4184 158.336 71.1366 157.913C70.8549 157.487 70.714 156.972 70.714 156.368C70.714 155.837 70.8187 155.406 71.028 155.076C71.2372 154.742 71.517 154.48 71.8671 154.291C72.2172 154.102 72.6036 153.961 73.0262 153.869C73.4528 153.772 73.8814 153.696 74.3121 153.639C74.8755 153.567 75.3323 153.512 75.6824 153.476C76.0366 153.436 76.2942 153.37 76.4552 153.277C76.6202 153.184 76.7027 153.023 76.7027 152.794V152.746C76.7027 152.15 76.5397 151.687 76.2137 151.357C75.8917 151.027 75.4027 150.862 74.7467 150.862C74.0666 150.862 73.5333 151.011 73.1469 151.309C72.7606 151.607 72.4889 151.925 72.3319 152.263L70.9797 151.78C71.2211 151.216 71.5431 150.778 71.9456 150.464C72.3521 150.146 72.7948 149.924 73.2737 149.8C73.7567 149.671 74.2316 149.607 74.6984 149.607C74.9962 149.607 75.3383 149.643 75.7247 149.715C76.1151 149.784 76.4914 149.926 76.8536 150.144C77.2198 150.361 77.5237 150.689 77.7652 151.128C78.0067 151.567 78.1274 152.154 78.1274 152.891V159H76.7027V157.744H76.6302C76.5336 157.946 76.3727 158.161 76.1473 158.39C75.9219 158.62 75.6221 158.815 75.2478 158.976C74.8735 159.137 74.4167 159.217 73.8774 159.217ZM74.0947 157.938C74.6582 157.938 75.1331 157.827 75.5194 157.605C75.9098 157.384 76.2036 157.098 76.4008 156.748C76.6021 156.398 76.7027 156.03 76.7027 155.643V154.339C76.6423 154.412 76.5095 154.478 76.3042 154.539C76.103 154.595 75.8696 154.645 75.604 154.69C75.3424 154.73 75.0868 154.766 74.8373 154.798C74.5918 154.826 74.3925 154.851 74.2396 154.871C73.8693 154.919 73.5232 154.998 73.2013 155.106C72.8833 155.211 72.6257 155.37 72.4285 155.583C72.2354 155.792 72.1388 156.078 72.1388 156.44C72.1388 156.935 72.3219 157.31 72.6881 157.563C73.0584 157.813 73.5273 157.938 74.0947 157.938ZM82.0559 155.619L82.0318 153.857H82.3216L86.3784 149.727H88.1412L83.8187 154.098H83.698L82.0559 155.619ZM80.7278 159V146.636H82.1525V159H80.7278ZM86.6199 159L82.9977 154.412L84.0119 153.422L88.4309 159H86.6199ZM93.4808 159.193C92.5874 159.193 91.8166 158.996 91.1687 158.602C90.5247 158.203 90.0277 157.648 89.6776 156.935C89.3314 156.219 89.1584 155.386 89.1584 154.436C89.1584 153.486 89.3314 152.649 89.6776 151.925C90.0277 151.196 90.5147 150.629 91.1385 150.222C91.7663 149.812 92.4988 149.607 93.3359 149.607C93.8189 149.607 94.2958 149.687 94.7667 149.848C95.2376 150.009 95.6662 150.271 96.0526 150.633C96.4389 150.991 96.7468 151.466 96.9762 152.058C97.2056 152.649 97.3203 153.378 97.3203 154.243V154.847H90.1726V153.615H95.8714C95.8714 153.092 95.7668 152.625 95.5575 152.214C95.3523 151.804 95.0585 151.48 94.6761 151.243C94.2978 151.005 93.8511 150.886 93.3359 150.886C92.7685 150.886 92.2775 151.027 91.8629 151.309C91.4524 151.587 91.1365 151.949 90.9151 152.396C90.6938 152.842 90.5831 153.321 90.5831 153.832V154.653C90.5831 155.354 90.7038 155.947 90.9453 156.434C91.1908 156.917 91.5309 157.286 91.9656 157.539C92.4002 157.789 92.9053 157.913 93.4808 157.913C93.8551 157.913 94.1932 157.861 94.495 157.756C94.8009 157.648 95.0645 157.487 95.2859 157.273C95.5072 157.056 95.6783 156.786 95.799 156.464L97.1754 156.851C97.0305 157.318 96.7871 157.728 96.445 158.082C96.1029 158.433 95.6803 158.706 95.1772 158.903C94.6741 159.097 94.1087 159.193 93.4808 159.193ZM104.269 162.477V149.727H105.645V151.2H105.814C105.919 151.039 106.064 150.834 106.249 150.585C106.438 150.331 106.708 150.106 107.058 149.908C107.412 149.707 107.891 149.607 108.495 149.607C109.275 149.607 109.964 149.802 110.559 150.192C111.155 150.583 111.62 151.136 111.954 151.852C112.288 152.569 112.455 153.414 112.455 154.388C112.455 155.37 112.288 156.221 111.954 156.941C111.62 157.658 111.157 158.213 110.565 158.608C109.974 158.998 109.292 159.193 108.519 159.193C107.923 159.193 107.446 159.095 107.088 158.897C106.73 158.696 106.454 158.469 106.261 158.215C106.068 157.958 105.919 157.744 105.814 157.575H105.694V162.477H104.269ZM105.669 154.364C105.669 155.064 105.772 155.682 105.977 156.217C106.183 156.748 106.482 157.165 106.877 157.467C107.271 157.764 107.754 157.913 108.326 157.913C108.921 157.913 109.418 157.756 109.817 157.442C110.219 157.125 110.521 156.698 110.722 156.163C110.928 155.623 111.03 155.024 111.03 154.364C111.03 153.712 110.93 153.124 110.728 152.601C110.531 152.074 110.231 151.657 109.829 151.351C109.43 151.041 108.929 150.886 108.326 150.886C107.746 150.886 107.259 151.033 106.865 151.327C106.47 151.617 106.172 152.023 105.971 152.547C105.77 153.066 105.669 153.671 105.669 154.364ZM116.053 153.422V159H114.628V146.636H116.053V151.176H116.174C116.391 150.697 116.717 150.317 117.152 150.035C117.59 149.749 118.174 149.607 118.902 149.607C119.534 149.607 120.088 149.733 120.562 149.987C121.037 150.236 121.406 150.621 121.667 151.14C121.933 151.655 122.066 152.311 122.066 153.108V159H120.641V153.205C120.641 152.468 120.45 151.899 120.067 151.496C119.689 151.09 119.164 150.886 118.492 150.886C118.025 150.886 117.606 150.985 117.236 151.182C116.87 151.379 116.58 151.667 116.367 152.045C116.158 152.424 116.053 152.883 116.053 153.422ZM128.439 159.193C127.602 159.193 126.868 158.994 126.236 158.596C125.608 158.197 125.117 157.64 124.763 156.923C124.413 156.207 124.237 155.37 124.237 154.412C124.237 153.446 124.413 152.603 124.763 151.882C125.117 151.162 125.608 150.603 126.236 150.204C126.868 149.806 127.602 149.607 128.439 149.607C129.276 149.607 130.009 149.806 130.637 150.204C131.268 150.603 131.759 151.162 132.11 151.882C132.464 152.603 132.641 153.446 132.641 154.412C132.641 155.37 132.464 156.207 132.11 156.923C131.759 157.64 131.268 158.197 130.637 158.596C130.009 158.994 129.276 159.193 128.439 159.193ZM128.439 157.913C129.075 157.913 129.598 157.75 130.009 157.424C130.419 157.098 130.723 156.67 130.92 156.138C131.118 155.607 131.216 155.032 131.216 154.412C131.216 153.792 131.118 153.215 130.92 152.679C130.723 152.144 130.419 151.711 130.009 151.381C129.598 151.051 129.075 150.886 128.439 150.886C127.803 150.886 127.28 151.051 126.87 151.381C126.459 151.711 126.155 152.144 125.958 152.679C125.761 153.215 125.662 153.792 125.662 154.412C125.662 155.032 125.761 155.607 125.958 156.138C126.155 156.67 126.459 157.098 126.87 157.424C127.28 157.75 127.803 157.913 128.439 157.913ZM138.848 149.727V150.935H134.043V149.727H138.848ZM135.444 147.506H136.868V156.344C136.868 156.746 136.927 157.048 137.043 157.249C137.164 157.446 137.317 157.579 137.502 157.648C137.691 157.712 137.891 157.744 138.1 157.744C138.257 157.744 138.386 157.736 138.486 157.72C138.587 157.7 138.667 157.684 138.728 157.672L139.017 158.952C138.921 158.988 138.786 159.024 138.613 159.06C138.44 159.101 138.221 159.121 137.955 159.121C137.552 159.121 137.158 159.034 136.772 158.861C136.389 158.688 136.071 158.424 135.818 158.07C135.568 157.716 135.444 157.269 135.444 156.73V147.506ZM144.659 159.193C143.822 159.193 143.087 158.994 142.455 158.596C141.828 158.197 141.337 157.64 140.982 156.923C140.632 156.207 140.457 155.37 140.457 154.412C140.457 153.446 140.632 152.603 140.982 151.882C141.337 151.162 141.828 150.603 142.455 150.204C143.087 149.806 143.822 149.607 144.659 149.607C145.496 149.607 146.229 149.806 146.856 150.204C147.488 150.603 147.979 151.162 148.329 151.882C148.684 152.603 148.861 153.446 148.861 154.412C148.861 155.37 148.684 156.207 148.329 156.923C147.979 157.64 147.488 158.197 146.856 158.596C146.229 158.994 145.496 159.193 144.659 159.193ZM144.659 157.913C145.295 157.913 145.818 157.75 146.229 157.424C146.639 157.098 146.943 156.67 147.14 156.138C147.337 155.607 147.436 155.032 147.436 154.412C147.436 153.792 147.337 153.215 147.14 152.679C146.943 152.144 146.639 151.711 146.229 151.381C145.818 151.051 145.295 150.886 144.659 150.886C144.023 150.886 143.5 151.051 143.089 151.381C142.679 151.711 142.375 152.144 142.178 152.679C141.981 153.215 141.882 153.792 141.882 154.412C141.882 155.032 141.981 155.607 142.178 156.138C142.375 156.67 142.679 157.098 143.089 157.424C143.5 157.75 144.023 157.913 144.659 157.913Z" fill="#F1B314"/>
<path d="M9.23295 22V11.8182H12.7926C13.5019 11.8182 14.0869 11.9408 14.5476 12.1861C15.0083 12.428 15.3513 12.7545 15.5767 13.1655C15.8021 13.5732 15.9148 14.0256 15.9148 14.5227C15.9148 14.9602 15.8369 15.3215 15.6811 15.6065C15.5286 15.8916 15.3265 16.117 15.0746 16.2827C14.826 16.4484 14.5559 16.571 14.2642 16.6506V16.75C14.5758 16.7699 14.889 16.8793 15.2038 17.0781C15.5187 17.277 15.7822 17.562 15.9943 17.9332C16.2064 18.3045 16.3125 18.7585 16.3125 19.2955C16.3125 19.8059 16.1965 20.2649 15.9645 20.6726C15.7325 21.0803 15.3662 21.4034 14.8658 21.642C14.3653 21.8807 13.714 22 12.9119 22H9.23295ZM10.4659 20.9062H12.9119C13.7173 20.9062 14.2891 20.7505 14.6271 20.4389C14.9685 20.1241 15.1392 19.7429 15.1392 19.2955C15.1392 18.9508 15.0514 18.6326 14.8757 18.3409C14.7 18.0459 14.4498 17.8106 14.125 17.6349C13.8002 17.456 13.4157 17.3665 12.9716 17.3665H10.4659V20.9062ZM10.4659 16.2926H12.7528C13.1241 16.2926 13.4588 16.2197 13.7571 16.0739C14.0587 15.928 14.2973 15.7225 14.473 15.4574C14.652 15.1922 14.7415 14.8807 14.7415 14.5227C14.7415 14.0753 14.5857 13.6958 14.2741 13.3842C13.9626 13.0694 13.4688 12.9119 12.7926 12.9119H10.4659V16.2926ZM20.4265 22.179C19.9426 22.179 19.5034 22.0878 19.109 21.9055C18.7146 21.7199 18.4014 21.4531 18.1694 21.1051C17.9374 20.7538 17.8214 20.3295 17.8214 19.8324C17.8214 19.3949 17.9076 19.0402 18.0799 18.7685C18.2522 18.4934 18.4826 18.2779 18.771 18.1222C19.0593 17.9664 19.3775 17.8504 19.7255 17.7741C20.0768 17.6946 20.4298 17.6316 20.7844 17.5852C21.2485 17.5256 21.6246 17.4808 21.913 17.451C22.2047 17.4179 22.4168 17.3632 22.5494 17.2869C22.6853 17.2107 22.7532 17.0781 22.7532 16.8892V16.8494C22.7532 16.3589 22.619 15.9777 22.3505 15.706C22.0853 15.4342 21.6826 15.2983 21.1424 15.2983C20.5823 15.2983 20.1431 15.4209 19.8249 15.6662C19.5067 15.9115 19.283 16.1733 19.1538 16.4517L18.0401 16.054C18.239 15.59 18.5041 15.2287 18.8356 14.9702C19.1703 14.7083 19.5349 14.526 19.9293 14.4233C20.3271 14.3172 20.7182 14.2642 21.1026 14.2642C21.3479 14.2642 21.6296 14.294 21.9478 14.3537C22.2693 14.41 22.5792 14.5277 22.8775 14.7067C23.1791 14.8857 23.4293 15.1558 23.6282 15.517C23.8271 15.8783 23.9265 16.3622 23.9265 16.9688V22H22.7532V20.9659H22.6935C22.614 21.1316 22.4814 21.3089 22.2958 21.4979C22.1102 21.6868 21.8633 21.8475 21.555 21.9801C21.2468 22.1127 20.8706 22.179 20.4265 22.179ZM20.6055 21.125C21.0695 21.125 21.4606 21.0339 21.7788 20.8516C22.1003 20.6693 22.3422 20.4339 22.5046 20.1456C22.6703 19.8572 22.7532 19.554 22.7532 19.2358V18.1619C22.7035 18.2216 22.5941 18.2763 22.4251 18.326C22.2594 18.3724 22.0671 18.4138 21.8484 18.4503C21.6329 18.4834 21.4225 18.5133 21.217 18.5398C21.0148 18.563 20.8507 18.5829 20.7248 18.5994C20.4199 18.6392 20.1348 18.7038 19.8697 18.7933C19.6078 18.8795 19.3957 19.0104 19.2333 19.1861C19.0742 19.3584 18.9947 19.5937 18.9947 19.892C18.9947 20.2997 19.1455 20.608 19.4471 20.8168C19.752 21.0223 20.1381 21.125 20.6055 21.125ZM29.1703 22.1591C28.4544 22.1591 27.8379 21.9901 27.3208 21.652C26.8038 21.3139 26.4061 20.8482 26.1277 20.255C25.8493 19.6617 25.71 18.9839 25.71 18.2216C25.71 17.446 25.8526 16.7616 26.1376 16.1683C26.426 15.5717 26.827 15.1061 27.3407 14.7713C27.8578 14.4332 28.461 14.2642 29.1504 14.2642C29.6873 14.2642 30.1712 14.3636 30.6021 14.5625C31.033 14.7614 31.3859 15.0398 31.661 15.3977C31.9361 15.7557 32.1068 16.1733 32.1731 16.6506H30.9998C30.9103 16.3026 30.7115 15.9943 30.4032 15.7259C30.0983 15.4541 29.6873 15.3182 29.1703 15.3182C28.7129 15.3182 28.3118 15.4375 27.9672 15.6761C27.6258 15.9115 27.359 16.2446 27.1667 16.6754C26.9778 17.103 26.8833 17.6051 26.8833 18.1818C26.8833 18.7718 26.9761 19.2855 27.1618 19.723C27.3507 20.1605 27.6158 20.5002 27.9572 20.7422C28.3019 20.9841 28.7063 21.1051 29.1703 21.1051C29.4752 21.1051 29.752 21.0521 30.0005 20.946C30.2491 20.84 30.4596 20.6875 30.6319 20.4886C30.8043 20.2898 30.9269 20.0511 30.9998 19.7727H32.1731C32.1068 20.2235 31.9428 20.6295 31.6809 20.9908C31.4224 21.3487 31.0794 21.6338 30.6518 21.8459C30.2276 22.0547 29.7337 22.1591 29.1703 22.1591ZM34.9821 19.2159L34.9622 17.7642H35.2008L38.5417 14.3636H39.9934L36.4338 17.9631H36.3343L34.9821 19.2159ZM33.8883 22V11.8182H35.0616V22H33.8883ZM38.7406 22L35.7576 18.2216L36.5929 17.4062L40.2321 22H38.7406Z" fill="#F1B314"/>
<path d="M34 159C34 159.53 33.7893 160.039 33.4142 160.414C33.0391 160.789 32.5304 161 32 161H14C13.4696 161 12.9609 160.789 12.5858 160.414C12.2107 160.039 12 159.53 12 159V148C12 147.47 12.2107 146.961 12.5858 146.586C12.9609 146.211 13.4696 146 14 146H18L20 143H26L28 146H32C32.5304 146 33.0391 146.211 33.4142 146.586C33.7893 146.961 34 147.47 34 148V159Z" stroke="#F1B314" stroke-width="2" stroke-linecap="round" stroke-linejoin="round"/>
<path d="M23 157C25.2091 157 27 155.209 27 153C27 150.791 25.2091 149 23 149C20.7909 149 19 150.791 19 153C19 155.209 20.7909 157 23 157Z" stroke="#F1B314" stroke-width="2" stroke-linecap="round" stroke-linejoin="round"/>
<path d="M75.0125 66.2584L50.3083 107.5C49.799 108.382 49.5295 109.382 49.5266 110.401C49.5238 111.419 49.7877 112.421 50.2921 113.306C50.7965 114.191 51.5238 114.928 52.4016 115.445C53.2795 115.961 54.2773 116.239 55.2958 116.25H104.704C105.723 116.239 106.72 115.961 107.598 115.445C108.476 114.928 109.204 114.191 109.708 113.306C110.212 112.421 110.476 111.419 110.473 110.401C110.471 109.382 110.201 108.382 109.692 107.5L84.9875 66.2584C84.4675 65.4013 83.7354 64.6925 82.8618 64.2007C81.9882 63.7088 81.0026 63.4504 80 63.4504C78.9974 63.4504 78.0118 63.7088 77.1382 64.2007C76.2646 64.6925 75.5325 65.4013 75.0125 66.2584V66.2584Z" stroke="#F1B314" stroke-width="2" stroke-linecap="round" stroke-linejoin="round"/>
<path d="M80 81.25V92.9167" stroke="#F1B314" stroke-width="2" stroke-linecap="round" stroke-linejoin="round"/>
<path d="M80 104.583H80.0292" stroke="#F1B314" stroke-width="2" stroke-linecap="round" stroke-linejoin="round"/>
</svg>
