<svg width="160" height="180" viewBox="0 0 160 180" fill="none" xmlns="http://www.w3.org/2000/svg">
<path d="M35 159C35 159.53 34.7893 160.039 34.4142 160.414C34.0391 160.789 33.5304 161 33 161H15C14.4696 161 13.9609 160.789 13.5858 160.414C13.2107 160.039 13 159.53 13 159V148C13 147.47 13.2107 146.961 13.5858 146.586C13.9609 146.211 14.4696 146 15 146H19L21 143H27L29 146H33C33.5304 146 34.0391 146.211 34.4142 146.586C34.7893 146.961 35 147.47 35 148V159Z" stroke="#B9BCC8" stroke-width="2" stroke-linecap="round" stroke-linejoin="round"/>
<path d="M24 157C26.2091 157 28 155.209 28 153C28 150.791 26.2091 149 24 149C21.7909 149 20 150.791 20 153C20 155.209 21.7909 157 24 157Z" stroke="#B9BCC8" stroke-width="2" stroke-linecap="round" stroke-linejoin="round"/>
<path d="M44.821 147.964V146.636H54.0938V147.964H50.206V159H48.7088V147.964H44.821ZM57.6782 159.217C57.0906 159.217 56.5573 159.107 56.0784 158.885C55.5995 158.66 55.2191 158.336 54.9374 157.913C54.6557 157.487 54.5148 156.972 54.5148 156.368C54.5148 155.837 54.6195 155.406 54.8287 155.076C55.038 154.742 55.3177 154.48 55.6679 154.291C56.018 154.102 56.4044 153.961 56.827 153.869C57.2536 153.772 57.6822 153.696 58.1128 153.639C58.6763 153.567 59.1331 153.512 59.4832 153.476C59.8374 153.436 60.095 153.37 60.2559 153.277C60.421 153.184 60.5035 153.023 60.5035 152.794V152.746C60.5035 152.15 60.3405 151.687 60.0145 151.357C59.6925 151.027 59.2035 150.862 58.5475 150.862C57.8673 150.862 57.3341 151.011 56.9477 151.309C56.5613 151.607 56.2897 151.925 56.1327 152.263L54.7805 151.78C55.0219 151.216 55.3439 150.778 55.7464 150.464C56.1528 150.146 56.5956 149.924 57.0745 149.8C57.5574 149.671 58.0323 149.607 58.4992 149.607C58.797 149.607 59.1391 149.643 59.5255 149.715C59.9159 149.784 60.2922 149.926 60.6544 150.144C61.0206 150.361 61.3245 150.689 61.566 151.128C61.8074 151.567 61.9282 152.154 61.9282 152.891V159H60.5035V157.744H60.431C60.3344 157.946 60.1734 158.161 59.9481 158.39C59.7227 158.62 59.4229 158.815 59.0486 158.976C58.6743 159.137 58.2175 159.217 57.6782 159.217ZM57.8955 157.938C58.459 157.938 58.9339 157.827 59.3202 157.605C59.7106 157.384 60.0044 157.098 60.2016 156.748C60.4028 156.398 60.5035 156.03 60.5035 155.643V154.339C60.4431 154.412 60.3103 154.478 60.105 154.539C59.9038 154.595 59.6704 154.645 59.4047 154.69C59.1431 154.73 58.8876 154.766 58.6381 154.798C58.3925 154.826 58.1933 154.851 58.0404 154.871C57.6701 154.919 57.324 154.998 57.002 155.106C56.6841 155.211 56.4265 155.37 56.2293 155.583C56.0361 155.792 55.9395 156.078 55.9395 156.44C55.9395 156.935 56.1227 157.31 56.4889 157.563C56.8592 157.813 57.328 157.938 57.8955 157.938ZM65.8567 155.619L65.8326 153.857H66.1223L70.1792 149.727H71.9419L67.6195 154.098H67.4988L65.8567 155.619ZM64.5286 159V146.636H65.9533V159H64.5286ZM70.4206 159L66.7985 154.412L67.8127 153.422L72.2317 159H70.4206ZM77.2816 159.193C76.3881 159.193 75.6174 158.996 74.9695 158.602C74.3255 158.203 73.8285 157.648 73.4783 156.935C73.1322 156.219 72.9592 155.386 72.9592 154.436C72.9592 153.486 73.1322 152.649 73.4783 151.925C73.8285 151.196 74.3155 150.629 74.9393 150.222C75.5671 149.812 76.2996 149.607 77.1367 149.607C77.6197 149.607 78.0966 149.687 78.5675 149.848C79.0384 150.009 79.467 150.271 79.8533 150.633C80.2397 150.991 80.5476 151.466 80.777 152.058C81.0064 152.649 81.1211 153.378 81.1211 154.243V154.847H73.9734V153.615H79.6722C79.6722 153.092 79.5676 152.625 79.3583 152.214C79.1531 151.804 78.8593 151.48 78.4769 151.243C78.0986 151.005 77.6519 150.886 77.1367 150.886C76.5692 150.886 76.0782 151.027 75.6637 151.309C75.2532 151.587 74.9373 151.949 74.7159 152.396C74.4946 152.842 74.3839 153.321 74.3839 153.832V154.653C74.3839 155.354 74.5046 155.947 74.7461 156.434C74.9916 156.917 75.3317 157.286 75.7663 157.539C76.201 157.789 76.7061 157.913 77.2816 157.913C77.6559 157.913 77.994 157.861 78.2958 157.756C78.6017 157.648 78.8653 157.487 79.0866 157.273C79.308 157.056 79.479 156.786 79.5998 156.464L80.9762 156.851C80.8313 157.318 80.5878 157.728 80.2457 158.082C79.9036 158.433 79.4811 158.706 78.978 158.903C78.4749 159.097 77.9094 159.193 77.2816 159.193ZM90.7983 159.217C90.2107 159.217 89.6774 159.107 89.1985 158.885C88.7196 158.66 88.3393 158.336 88.0575 157.913C87.7758 157.487 87.6349 156.972 87.6349 156.368C87.6349 155.837 87.7396 155.406 87.9489 155.076C88.1581 154.742 88.4379 154.48 88.788 154.291C89.1381 154.102 89.5245 153.961 89.9471 153.869C90.3737 153.772 90.8023 153.696 91.233 153.639C91.7964 153.567 92.2532 153.512 92.6033 153.476C92.9575 153.436 93.2151 153.37 93.3761 153.277C93.5411 153.184 93.6236 153.023 93.6236 152.794V152.746C93.6236 152.15 93.4606 151.687 93.1346 151.357C92.8126 151.027 92.3236 150.862 91.6676 150.862C90.9875 150.862 90.4542 151.011 90.0678 151.309C89.6815 151.607 89.4098 151.925 89.2528 152.263L87.9006 151.78C88.142 151.216 88.464 150.778 88.8665 150.464C89.273 150.146 89.7157 149.924 90.1946 149.8C90.6776 149.671 91.1525 149.607 91.6193 149.607C91.9171 149.607 92.2592 149.643 92.6456 149.715C93.036 149.784 93.4123 149.926 93.7745 150.144C94.1407 150.361 94.4446 150.689 94.6861 151.128C94.9276 151.567 95.0483 152.154 95.0483 152.891V159H93.6236V157.744H93.5511C93.4545 157.946 93.2936 158.161 93.0682 158.39C92.8428 158.62 92.543 158.815 92.1687 158.976C91.7944 159.137 91.3376 159.217 90.7983 159.217ZM91.0156 157.938C91.5791 157.938 92.054 157.827 92.4403 157.605C92.8307 157.384 93.1245 157.098 93.3217 156.748C93.523 156.398 93.6236 156.03 93.6236 155.643V154.339C93.5632 154.412 93.4304 154.478 93.2251 154.539C93.0239 154.595 92.7905 154.645 92.5249 154.69C92.2633 154.73 92.0077 154.766 91.7582 154.798C91.5127 154.826 91.3134 154.851 91.1605 154.871C90.7902 154.919 90.4441 154.998 90.1222 155.106C89.8042 155.211 89.5466 155.37 89.3494 155.583C89.1563 155.792 89.0597 156.078 89.0597 156.44C89.0597 156.935 89.2428 157.31 89.609 157.563C89.9793 157.813 90.4482 157.938 91.0156 157.938ZM102.43 162.477V149.727H103.806V151.2H103.975C104.08 151.039 104.225 150.834 104.41 150.585C104.599 150.331 104.869 150.106 105.219 149.908C105.573 149.707 106.052 149.607 106.656 149.607C107.437 149.607 108.125 149.802 108.72 150.192C109.316 150.583 109.781 151.136 110.115 151.852C110.449 152.569 110.616 153.414 110.616 154.388C110.616 155.37 110.449 156.221 110.115 156.941C109.781 157.658 109.318 158.213 108.726 158.608C108.135 158.998 107.453 159.193 106.68 159.193C106.084 159.193 105.607 159.095 105.249 158.897C104.891 158.696 104.615 158.469 104.422 158.215C104.229 157.958 104.08 157.744 103.975 157.575H103.855V162.477H102.43ZM103.831 154.364C103.831 155.064 103.933 155.682 104.138 156.217C104.344 156.748 104.643 157.165 105.038 157.467C105.432 157.764 105.915 157.913 106.487 157.913C107.082 157.913 107.579 157.756 107.978 157.442C108.38 157.125 108.682 156.698 108.883 156.163C109.089 155.623 109.191 155.024 109.191 154.364C109.191 153.712 109.091 153.124 108.889 152.601C108.692 152.074 108.392 151.657 107.99 151.351C107.592 151.041 107.09 150.886 106.487 150.886C105.907 150.886 105.42 151.033 105.026 151.327C104.631 151.617 104.334 152.023 104.132 152.547C103.931 153.066 103.831 153.671 103.831 154.364ZM114.214 153.422V159H112.789V146.636H114.214V151.176H114.335C114.552 150.697 114.878 150.317 115.313 150.035C115.751 149.749 116.335 149.607 117.063 149.607C117.695 149.607 118.249 149.733 118.724 149.987C119.199 150.236 119.567 150.621 119.828 151.14C120.094 151.655 120.227 152.311 120.227 153.108V159H118.802V153.205C118.802 152.468 118.611 151.899 118.229 151.496C117.85 151.09 117.325 150.886 116.653 150.886C116.186 150.886 115.768 150.985 115.397 151.182C115.031 151.379 114.741 151.667 114.528 152.045C114.319 152.424 114.214 152.883 114.214 153.422ZM126.6 159.193C125.763 159.193 125.029 158.994 124.397 158.596C123.769 158.197 123.278 157.64 122.924 156.923C122.574 156.207 122.399 155.37 122.399 154.412C122.399 153.446 122.574 152.603 122.924 151.882C123.278 151.162 123.769 150.603 124.397 150.204C125.029 149.806 125.763 149.607 126.6 149.607C127.437 149.607 128.17 149.806 128.798 150.204C129.43 150.603 129.921 151.162 130.271 151.882C130.625 152.603 130.802 153.446 130.802 154.412C130.802 155.37 130.625 156.207 130.271 156.923C129.921 157.64 129.43 158.197 128.798 158.596C128.17 158.994 127.437 159.193 126.6 159.193ZM126.6 157.913C127.236 157.913 127.759 157.75 128.17 157.424C128.58 157.098 128.884 156.67 129.081 156.138C129.279 155.607 129.377 155.032 129.377 154.412C129.377 153.792 129.279 153.215 129.081 152.679C128.884 152.144 128.58 151.711 128.17 151.381C127.759 151.051 127.236 150.886 126.6 150.886C125.964 150.886 125.441 151.051 125.031 151.381C124.62 151.711 124.316 152.144 124.119 152.679C123.922 153.215 123.823 153.792 123.823 154.412C123.823 155.032 123.922 155.607 124.119 156.138C124.316 156.67 124.62 157.098 125.031 157.424C125.441 157.75 125.964 157.913 126.6 157.913ZM137.009 149.727V150.935H132.204V149.727H137.009ZM133.605 147.506H135.029V156.344C135.029 156.746 135.088 157.048 135.204 157.249C135.325 157.446 135.478 157.579 135.663 157.648C135.852 157.712 136.052 157.744 136.261 157.744C136.418 157.744 136.547 157.736 136.647 157.72C136.748 157.7 136.828 157.684 136.889 157.672L137.179 158.952C137.082 158.988 136.947 159.024 136.774 159.06C136.601 159.101 136.382 159.121 136.116 159.121C135.714 159.121 135.319 159.034 134.933 158.861C134.55 158.688 134.233 158.424 133.979 158.07C133.729 157.716 133.605 157.269 133.605 156.73V147.506ZM142.82 159.193C141.983 159.193 141.248 158.994 140.617 158.596C139.989 158.197 139.498 157.64 139.144 156.923C138.793 156.207 138.618 155.37 138.618 154.412C138.618 153.446 138.793 152.603 139.144 151.882C139.498 151.162 139.989 150.603 140.617 150.204C141.248 149.806 141.983 149.607 142.82 149.607C143.657 149.607 144.39 149.806 145.017 150.204C145.649 150.603 146.14 151.162 146.491 151.882C146.845 152.603 147.022 153.446 147.022 154.412C147.022 155.37 146.845 156.207 146.491 156.923C146.14 157.64 145.649 158.197 145.017 158.596C144.39 158.994 143.657 159.193 142.82 159.193ZM142.82 157.913C143.456 157.913 143.979 157.75 144.39 157.424C144.8 157.098 145.104 156.67 145.301 156.138C145.498 155.607 145.597 155.032 145.597 154.412C145.597 153.792 145.498 153.215 145.301 152.679C145.104 152.144 144.8 151.711 144.39 151.381C143.979 151.051 143.456 150.886 142.82 150.886C142.184 150.886 141.661 151.051 141.25 151.381C140.84 151.711 140.536 152.144 140.339 152.679C140.142 153.215 140.043 153.792 140.043 154.412C140.043 155.032 140.142 155.607 140.339 156.138C140.536 156.67 140.84 157.098 141.25 157.424C141.661 157.75 142.184 157.913 142.82 157.913Z" fill="#B9BCC8"/>
<path d="M77.1769 132C77.9864 131.735 80.0328 131.364 81.7424 132H85.4338C85.9195 131.546 86.5412 130.592 85.1423 130.411L85.1268 130.409C83.3777 130.182 80.6719 129.83 79.9939 125.53C79.4499 122.079 80.1558 117.584 80.5768 115.767V111.794C81.0948 111.454 81.9756 109.955 81.3539 106.686C83.6075 104.234 83.7824 95.4481 83.5881 91.3615C84.009 89.0912 84.8315 84.4371 84.7538 83.983C85.0452 83.3019 84.4624 78.5343 85.4338 72.2909C85.8223 72.5634 85.8547 72.0261 85.8223 71.7234C85.4014 69.7936 83.7047 65.1849 80.2853 62.1881C80.5185 61.2799 80.7063 60.3718 80.771 60.0313C81.1272 60.4097 82.0921 61.0529 83.1024 60.5989C83.491 60.4172 83.2643 59.4637 83.1024 59.0096C83.3938 58.7448 83.8601 57.988 83.3938 57.0799C83.8601 57.0799 84.1709 56.8528 84.2681 56.7393L83.3938 55.1501C83.6205 54.0528 83.7435 51.5857 82.4224 50.496V49.4744C79.6054 48.5662 74.2238 48.3392 75.2341 54.6961C77.4878 58.1469 76.5617 61.1286 75.817 62.1881C74.5865 63.8908 72.7472 68.7039 75.2341 74.3342C76.7884 80.6911 76.7236 84.0965 76.497 85.0047C75.2342 86.8966 73.4662 91.6567 76.497 95.5616C75.2342 102.259 75.817 105.324 76.497 106.346C76.3027 107.821 76.5941 107.367 76.1084 108.616C75.7199 109.615 75.9465 110.924 76.1084 111.454C75.4932 113.119 74.6319 117.879 76.1084 123.6C76.9632 126.506 76.7236 128.822 76.497 129.616C76.2379 130.222 76.0111 131.546 77.1769 132Z" fill="#B9BCC8"/>
<path d="M9.23295 23V12.8182H12.6733C13.4688 12.8182 14.1217 12.9541 14.6321 13.2259C15.1425 13.4943 15.5204 13.8639 15.7656 14.3345C16.0109 14.8052 16.1335 15.3404 16.1335 15.9403C16.1335 16.5402 16.0109 17.0722 15.7656 17.5362C15.5204 18.0002 15.1442 18.3648 14.6371 18.63C14.13 18.8918 13.482 19.0227 12.6932 19.0227H9.90909V17.9091H12.6534C13.197 17.9091 13.6345 17.8295 13.9659 17.6705C14.3007 17.5114 14.5426 17.286 14.6918 16.9943C14.8442 16.6993 14.9205 16.348 14.9205 15.9403C14.9205 15.5327 14.8442 15.1764 14.6918 14.8714C14.5393 14.5665 14.2957 14.3312 13.9609 14.1655C13.6262 13.9964 13.1837 13.9119 12.6335 13.9119H10.4659V23H9.23295ZM14.0256 18.4261L16.5312 23H15.0994L12.6335 18.4261H14.0256ZM18.0289 23V15.3636H19.2022V23H18.0289ZM18.6255 14.0909C18.3968 14.0909 18.1996 14.013 18.0339 13.8572C17.8715 13.7015 17.7903 13.5142 17.7903 13.2955C17.7903 13.0767 17.8715 12.8894 18.0339 12.7337C18.1996 12.5779 18.3968 12.5 18.6255 12.5C18.8542 12.5 19.0498 12.5779 19.2122 12.7337C19.3779 12.8894 19.4608 13.0767 19.4608 13.2955C19.4608 13.5142 19.3779 13.7015 19.2122 13.8572C19.0498 14.013 18.8542 14.0909 18.6255 14.0909ZM24.4336 26.0227C23.8668 26.0227 23.3796 25.9498 22.9719 25.804C22.5643 25.6615 22.2246 25.4725 21.9528 25.2372C21.6843 25.0052 21.4705 24.7566 21.3114 24.4915L22.2461 23.8352C22.3522 23.9744 22.4864 24.1335 22.6488 24.3125C22.8112 24.4948 23.0333 24.6522 23.315 24.7848C23.6 24.9207 23.9729 24.9886 24.4336 24.9886C25.0501 24.9886 25.5588 24.8395 25.9599 24.5412C26.3609 24.2429 26.5614 23.7756 26.5614 23.1392V21.5881H26.462C26.3758 21.7273 26.2532 21.8996 26.0941 22.1051C25.9383 22.3073 25.7129 22.4879 25.418 22.647C25.1263 22.8028 24.7319 22.8807 24.2347 22.8807C23.6183 22.8807 23.0647 22.7348 22.5742 22.4432C22.087 22.1515 21.7009 21.7273 21.4158 21.1705C21.1341 20.6136 20.9933 19.9375 20.9933 19.142C20.9933 18.3598 21.1308 17.6787 21.4059 17.0987C21.681 16.5154 22.0638 16.0646 22.5543 15.7464C23.0449 15.425 23.6116 15.2642 24.2546 15.2642C24.7518 15.2642 25.1462 15.3471 25.4379 15.5128C25.7328 15.6752 25.9582 15.8608 26.114 16.0696C26.2731 16.2751 26.3957 16.4441 26.4819 16.5767H26.6012V15.3636H27.7347V23.2188C27.7347 23.875 27.5856 24.4086 27.2873 24.8196C26.9923 25.2339 26.5946 25.5372 26.0941 25.7294C25.5969 25.925 25.0434 26.0227 24.4336 26.0227ZM24.3938 21.8267C24.8645 21.8267 25.2622 21.719 25.587 21.5036C25.9118 21.2881 26.1587 20.9782 26.3278 20.5739C26.4968 20.1695 26.5813 19.6856 26.5813 19.1222C26.5813 18.572 26.4985 18.0864 26.3327 17.6655C26.167 17.2446 25.9218 16.9148 25.5969 16.6761C25.2721 16.4375 24.8711 16.3182 24.3938 16.3182C23.8967 16.3182 23.4824 16.4441 23.1509 16.696C22.8228 16.9479 22.5759 17.286 22.4102 17.7102C22.2478 18.1345 22.1665 18.6051 22.1665 19.1222C22.1665 19.6525 22.2494 20.1214 22.4151 20.5291C22.5842 20.9335 22.8327 21.2517 23.1609 21.4837C23.4923 21.7124 23.9033 21.8267 24.3938 21.8267ZM31.0558 18.4062V23H29.8825V12.8182H31.0558V16.5568H31.1552C31.3342 16.1624 31.6026 15.8492 31.9606 15.6172C32.3219 15.3819 32.8024 15.2642 33.4023 15.2642C33.9227 15.2642 34.3784 15.3686 34.7695 15.5774C35.1606 15.7829 35.4639 16.0994 35.6793 16.527C35.8981 16.9512 36.0075 17.4915 36.0075 18.1477V23H34.8342V18.2273C34.8342 17.6207 34.6767 17.1518 34.3619 16.8203C34.0503 16.4856 33.6178 16.3182 33.0643 16.3182C32.6798 16.3182 32.3351 16.3994 32.0302 16.5618C31.7286 16.7242 31.4899 16.9612 31.3143 17.2727C31.1419 17.5843 31.0558 17.9621 31.0558 18.4062ZM41.475 15.3636V16.358H37.5176V15.3636H41.475ZM38.671 13.5341H39.8443V20.8125C39.8443 21.1439 39.8923 21.3925 39.9885 21.5582C40.0879 21.7206 40.2138 21.83 40.3663 21.8864C40.5221 21.9394 40.6861 21.9659 40.8585 21.9659C40.9877 21.9659 41.0938 21.9593 41.1767 21.946C41.2595 21.9295 41.3258 21.9162 41.3755 21.9062L41.6142 22.9602C41.5346 22.9901 41.4236 23.0199 41.2811 23.0497C41.1386 23.0829 40.9579 23.0994 40.7392 23.0994C40.4077 23.0994 40.0829 23.0282 39.7647 22.8857C39.4499 22.7431 39.188 22.526 38.9792 22.2344C38.7737 21.9427 38.671 21.5748 38.671 21.1307V13.5341Z" fill="#B9BCC8"/>
<rect x="0.5" y="0.5" width="159" height="179" rx="3.5" stroke="#B9BCC8" stroke-dasharray="20 20"/>
</svg>
