<svg width="160" height="180" viewBox="0 0 160 180" fill="none" xmlns="http://www.w3.org/2000/svg">
<rect width="160" height="180" rx="4" fill="white"/>
<path d="M41 151.08V152C40.9988 154.157 40.3005 156.255 39.0093 157.982C37.7182 159.709 35.9033 160.973 33.8354 161.584C31.7674 162.195 29.5573 162.122 27.5345 161.375C25.5117 160.627 23.7847 159.246 22.611 157.437C21.4373 155.628 20.8798 153.488 21.0217 151.336C21.1636 149.185 21.9972 147.136 23.3983 145.497C24.7994 143.858 26.6928 142.715 28.7962 142.24C30.8996 141.765 33.1003 141.982 35.07 142.86" stroke="#00A499" stroke-width="2" stroke-linecap="round" stroke-linejoin="round"/>
<path d="M41 144L31 154.01L28 151.01" stroke="#00A499" stroke-width="2" stroke-linecap="round" stroke-linejoin="round"/>
<path d="M55.0043 146.136L58.6747 156.544H58.8196L62.4901 146.136H64.0597L59.5199 158.5H57.9744L53.4347 146.136H55.0043ZM65.7923 158.5V149.227H67.217V158.5H65.7923ZM66.5167 147.682C66.239 147.682 65.9995 147.587 65.7983 147.398C65.6011 147.209 65.5025 146.982 65.5025 146.716C65.5025 146.45 65.6011 146.223 65.7983 146.034C65.9995 145.845 66.239 145.75 66.5167 145.75C66.7944 145.75 67.0318 145.845 67.229 146.034C67.4303 146.223 67.5309 146.45 67.5309 146.716C67.5309 146.982 67.4303 147.209 67.229 147.398C67.0318 147.587 66.7944 147.682 66.5167 147.682ZM73.7142 158.693C72.8208 158.693 72.05 158.496 71.4021 158.102C70.7581 157.703 70.2611 157.148 69.911 156.435C69.5648 155.719 69.3918 154.886 69.3918 153.936C69.3918 152.986 69.5648 152.149 69.911 151.425C70.2611 150.696 70.7481 150.129 71.3719 149.722C71.9997 149.312 72.7322 149.107 73.5693 149.107C74.0523 149.107 74.5292 149.187 75.0001 149.348C75.471 149.509 75.8996 149.771 76.286 150.133C76.6723 150.491 76.9802 150.966 77.2096 151.558C77.439 152.149 77.5537 152.878 77.5537 153.743V154.347H70.406V153.115H76.1048C76.1048 152.592 76.0002 152.125 75.7909 151.714C75.5857 151.304 75.2919 150.98 74.9095 150.743C74.5312 150.505 74.0845 150.386 73.5693 150.386C73.0019 150.386 72.5109 150.527 72.0963 150.809C71.6858 151.087 71.3699 151.449 71.1485 151.896C70.9272 152.342 70.8165 152.821 70.8165 153.332V154.153C70.8165 154.854 70.9372 155.447 71.1787 155.934C71.4242 156.417 71.7643 156.786 72.199 157.039C72.6336 157.289 73.1387 157.413 73.7142 157.413C74.0885 157.413 74.4266 157.361 74.7284 157.256C75.0343 157.148 75.2979 156.987 75.5193 156.773C75.7406 156.556 75.9117 156.286 76.0324 155.964L77.4088 156.351C77.2639 156.818 77.0204 157.228 76.6784 157.582C76.3363 157.933 75.9137 158.206 75.4106 158.403C74.9075 158.597 74.3421 158.693 73.7142 158.693ZM81.8218 158.5L78.9965 149.227H80.4937L82.498 156.327H82.5945L84.5747 149.227H86.096L88.0519 156.303H88.1485L90.1528 149.227H91.6499L88.8247 158.5H87.4241L85.3957 151.376H85.2508L83.2224 158.5H81.8218ZM98.3147 158.5V149.227H99.6911V150.628H99.7877C99.9568 150.169 100.263 149.797 100.705 149.511C101.148 149.225 101.647 149.082 102.203 149.082C102.307 149.082 102.438 149.084 102.595 149.088C102.752 149.092 102.871 149.098 102.951 149.107V150.555C102.903 150.543 102.792 150.525 102.619 150.501C102.45 150.473 102.271 150.459 102.082 150.459C101.631 150.459 101.229 150.553 100.874 150.743C100.524 150.928 100.247 151.185 100.041 151.515C99.8401 151.841 99.7394 152.214 99.7394 152.632V158.5H98.3147ZM108.245 158.693C107.352 158.693 106.581 158.496 105.933 158.102C105.289 157.703 104.792 157.148 104.442 156.435C104.096 155.719 103.923 154.886 103.923 153.936C103.923 152.986 104.096 152.149 104.442 151.425C104.792 150.696 105.279 150.129 105.903 149.722C106.531 149.312 107.263 149.107 108.101 149.107C108.584 149.107 109.06 149.187 109.531 149.348C110.002 149.509 110.431 149.771 110.817 150.133C111.204 150.491 111.511 150.966 111.741 151.558C111.97 152.149 112.085 152.878 112.085 153.743V154.347H104.937V153.115H110.636C110.636 152.592 110.531 152.125 110.322 151.714C110.117 151.304 109.823 150.98 109.441 150.743C109.062 150.505 108.616 150.386 108.101 150.386C107.533 150.386 107.042 150.527 106.628 150.809C106.217 151.087 105.901 151.449 105.68 151.896C105.458 152.342 105.348 152.821 105.348 153.332V154.153C105.348 154.854 105.468 155.447 105.71 155.934C105.955 156.417 106.296 156.786 106.73 157.039C107.165 157.289 107.67 157.413 108.245 157.413C108.62 157.413 108.958 157.361 109.26 157.256C109.566 157.148 109.829 156.987 110.051 156.773C110.272 156.556 110.443 156.286 110.564 155.964L111.94 156.351C111.795 156.818 111.552 157.228 111.21 157.582C110.868 157.933 110.445 158.206 109.942 158.403C109.439 158.597 108.873 158.693 108.245 158.693ZM120.82 151.304L119.541 151.666C119.46 151.453 119.341 151.246 119.184 151.044C119.031 150.839 118.822 150.67 118.557 150.537C118.291 150.404 117.951 150.338 117.536 150.338C116.969 150.338 116.496 150.469 116.118 150.73C115.743 150.988 115.556 151.316 115.556 151.714C115.556 152.069 115.685 152.348 115.943 152.554C116.2 152.759 116.603 152.93 117.15 153.067L118.526 153.405C119.355 153.606 119.973 153.914 120.38 154.328C120.786 154.739 120.989 155.268 120.989 155.916C120.989 156.447 120.837 156.922 120.531 157.341C120.229 157.759 119.806 158.089 119.263 158.331C118.72 158.572 118.088 158.693 117.367 158.693C116.421 158.693 115.639 158.488 115.019 158.077C114.399 157.667 114.007 157.067 113.842 156.278L115.194 155.94C115.323 156.439 115.566 156.814 115.924 157.063C116.287 157.313 116.76 157.438 117.343 157.438C118.007 157.438 118.534 157.297 118.925 157.015C119.319 156.729 119.516 156.387 119.516 155.989C119.516 155.667 119.404 155.397 119.178 155.18C118.953 154.958 118.607 154.793 118.14 154.685L116.595 154.322C115.745 154.121 115.122 153.809 114.723 153.387C114.329 152.96 114.131 152.427 114.131 151.787C114.131 151.264 114.278 150.801 114.572 150.398C114.87 149.996 115.274 149.68 115.786 149.451C116.301 149.221 116.884 149.107 117.536 149.107C118.454 149.107 119.174 149.308 119.698 149.71C120.225 150.113 120.599 150.644 120.82 151.304ZM128.978 154.709V149.227H130.403V158.5H128.978V156.93H128.881C128.664 157.401 128.326 157.802 127.867 158.132C127.408 158.458 126.829 158.621 126.128 158.621C125.549 158.621 125.034 158.494 124.583 158.24C124.132 157.983 123.778 157.596 123.52 157.081C123.263 156.562 123.134 155.908 123.134 155.119V149.227H124.559V155.023C124.559 155.699 124.748 156.238 125.126 156.641C125.509 157.043 125.996 157.244 126.587 157.244C126.941 157.244 127.302 157.154 127.668 156.973C128.038 156.792 128.348 156.514 128.597 156.14C128.851 155.765 128.978 155.288 128.978 154.709ZM134.437 146.136V158.5H133.012V146.136H134.437ZM141.079 149.227V150.435H136.273V149.227H141.079ZM137.674 147.006H139.099V155.844C139.099 156.246 139.157 156.548 139.274 156.749C139.395 156.946 139.547 157.079 139.733 157.148C139.922 157.212 140.121 157.244 140.33 157.244C140.487 157.244 140.616 157.236 140.717 157.22C140.817 157.2 140.898 157.184 140.958 157.172L141.248 158.452C141.151 158.488 141.016 158.524 140.843 158.56C140.67 158.601 140.451 158.621 140.185 158.621C139.783 158.621 139.388 158.534 139.002 158.361C138.62 158.188 138.302 157.924 138.048 157.57C137.799 157.216 137.674 156.769 137.674 156.23V147.006Z" fill="#00A499"/>
<path fill-rule="evenodd" clip-rule="evenodd" d="M80.5216 49.0125C79.7712 48.9501 78.6482 49.1091 77.7307 49.7799C76.8067 50.4556 76.1077 51.6383 76.1912 53.5935C76.1182 53.6082 76.0456 53.6408 75.9813 53.6958C75.8822 53.7803 75.8108 53.9106 75.7796 54.0909C75.7182 54.4454 75.807 55.0204 76.1946 55.9242C76.1644 56.5437 76.4322 58.0389 77.7257 59.3632C77.7391 59.5977 77.7174 59.9652 77.6095 60.3385C77.4961 60.7309 77.291 61.1175 76.9457 61.368C76.4944 61.6953 75.565 62.1438 74.5105 62.5374C73.4574 62.9305 72.2948 63.2631 71.3814 63.3651C70.4157 63.4728 69.6386 64.1983 69.1021 65.1594C68.5652 66.1211 68.2545 67.3428 68.2317 68.501C67.9215 69.5012 67.5051 71.1547 67.2578 72.8855C67.0125 74.6028 66.9315 76.4091 67.2951 77.7289C67.1025 78.021 66.8348 78.4871 66.6266 78.9838C66.4115 79.4972 66.2523 80.0606 66.322 80.5009C66.353 80.6968 66.3486 81.1267 66.3183 81.7064C66.2881 82.2821 66.233 82.9956 66.1657 83.752C66.0318 85.2582 65.8501 86.9315 65.7229 88.0179C65.3054 88.9712 64.9014 90.5857 65.0215 92.3779C65.1423 94.1794 65.7932 96.1659 67.4991 97.8384C67.5489 97.8872 67.621 97.9094 67.6899 97.8974C67.7618 97.885 67.8223 97.8361 67.8395 97.7632C67.9147 97.4453 67.8843 96.7894 67.4122 95.7833C67.4105 95.4504 67.3671 94.7103 67.1979 94.2454C67.2749 93.9213 67.4463 93.1596 67.6435 92.1802C67.7543 92.8923 68.0202 93.8323 68.5768 94.5656C68.6404 94.6493 68.708 94.7167 68.7826 94.748C68.823 94.7649 68.8694 94.773 68.9178 94.763C68.9655 94.7531 69.0026 94.7281 69.0301 94.6998C69.0816 94.6467 69.1131 94.5676 69.1347 94.484C69.1572 94.3968 69.1727 94.2899 69.1825 94.1686C69.2216 93.6847 69.1746 92.9255 69.0824 92.1386C68.9901 91.3503 68.8514 90.5268 68.7046 89.9121C68.6314 89.6055 68.5552 89.3468 68.4803 89.1695C68.4434 89.0822 68.4036 89.0069 68.3597 88.9554C68.35 88.9439 68.3388 88.9322 68.3261 88.9212C68.908 87.854 69.7495 86.2059 70.4489 84.6072C70.8091 83.7835 71.1323 82.9716 71.3629 82.2582C71.5925 81.5476 71.7335 80.9252 71.7222 80.4847C71.6937 79.3776 71.6482 78.8635 71.6082 78.6558C71.6082 78.6549 71.6082 78.6539 71.6083 78.6528C71.6085 78.6486 71.6089 78.6432 71.6093 78.6367C71.6106 78.6193 71.6126 78.5966 71.6149 78.5737C71.6172 78.5508 71.6197 78.5284 71.6219 78.5115C71.6226 78.5067 71.6232 78.5026 71.6237 78.4993C71.8793 78.0582 72.2973 76.915 72.5079 74.8817C72.645 75.1242 72.8006 75.4118 72.9344 75.6837C73.032 75.8821 73.117 76.0703 73.1748 76.2258C73.2037 76.3035 73.2251 76.3714 73.238 76.4272C73.2513 76.4851 73.2535 76.5218 73.2506 76.5411C73.2385 76.6215 73.2321 76.8894 73.2286 77.2587C73.2252 77.6326 73.2248 78.1204 73.2264 78.649C73.2296 79.6968 73.2403 80.9059 73.2494 81.7084C72.8937 82.4376 72.3388 84.594 72.8111 87.6733C72.3195 89.3287 71.7246 92.104 71.5285 95.0823C71.3322 98.0636 71.5345 101.26 72.6503 103.742C72.6865 104.552 72.7296 105.815 72.7422 106.989C72.755 108.177 72.7363 109.262 72.6511 109.706C72.4305 110.856 71.7211 117.39 74.3987 125.168C74.433 125.318 74.48 125.702 74.3976 126.054C74.3732 126.158 74.3445 126.205 74.3182 126.24C74.313 126.247 74.307 126.255 74.3006 126.263C74.2735 126.297 74.2377 126.343 74.2109 126.409C74.1778 126.492 74.1568 126.606 74.1498 126.791C74.1429 126.977 74.1498 127.241 74.1769 127.627C74.1394 128.197 73.7361 129.583 72.417 130.551L72.399 130.565L72.3885 130.583C72.3108 130.721 72.2249 130.944 72.2239 131.164C72.2229 131.389 72.3119 131.626 72.6025 131.752L72.6189 131.759L72.6369 131.761C72.7237 131.77 72.8564 131.776 72.9711 131.762C73.0274 131.755 73.0894 131.742 73.1404 131.716C73.1511 131.727 73.1635 131.738 73.1766 131.749C73.2451 131.805 73.3436 131.845 73.4748 131.832C73.5816 131.821 73.7026 131.776 73.842 131.687C73.9357 131.758 74.0658 131.829 74.2128 131.854C74.3095 131.871 74.415 131.867 74.5204 131.83C74.595 131.804 74.6659 131.761 74.7316 131.701C74.8306 131.776 74.9628 131.849 75.1072 131.876C75.2064 131.894 75.3146 131.891 75.4196 131.848C75.4899 131.819 75.5541 131.774 75.6111 131.712C75.8989 131.938 76.5863 132.212 77.3483 131.744C78.0899 131.289 78.2255 130.835 78.1594 130.612L78.051 127.321C78.1062 126.921 78.0692 125.938 77.4889 125.091C77.4291 125.004 77.3808 124.867 77.3472 124.681C77.3139 124.497 77.2963 124.274 77.2923 124.019C77.2842 123.511 77.3305 122.888 77.4078 122.23C77.5623 120.914 77.8399 119.468 78.0486 118.539L78.049 118.538L78.0493 118.536C78.1969 117.748 78.3776 114.897 77.9426 109.731C78.0913 109.158 78.399 107.484 78.4865 105.189C78.9372 104.127 79.9134 100.788 80.5 95.3946C81.0866 100.788 82.0628 104.127 82.5135 105.189C82.601 107.484 82.9087 109.158 83.0574 109.731C82.6224 114.897 82.8031 117.748 82.9507 118.536L82.951 118.538L82.9514 118.539C83.1601 119.468 83.4377 120.914 83.5922 122.23C83.6695 122.888 83.7158 123.511 83.7077 124.019C83.7037 124.274 83.6861 124.497 83.6528 124.681C83.6192 124.867 83.5709 125.004 83.5111 125.091C82.9308 125.938 82.8938 126.921 82.949 127.321L82.8406 130.612C82.7745 130.835 82.9101 131.289 83.6517 131.744C84.4137 132.212 85.1011 131.938 85.3889 131.712C85.4459 131.774 85.5101 131.819 85.5804 131.848C85.6854 131.891 85.7936 131.894 85.8928 131.876C86.0372 131.849 86.1694 131.776 86.2684 131.701C86.3341 131.761 86.405 131.804 86.4796 131.83C86.585 131.867 86.6905 131.871 86.7872 131.854C86.9342 131.829 87.0643 131.758 87.158 131.687C87.2974 131.776 87.4184 131.821 87.5252 131.832C87.6564 131.845 87.7549 131.805 87.8234 131.749C87.8365 131.738 87.8484 131.727 87.8592 131.716C87.9101 131.742 87.9726 131.755 88.0289 131.762C88.1436 131.776 88.2763 131.77 88.3631 131.761L88.3811 131.759L88.3975 131.752C88.6881 131.626 88.7771 131.389 88.7761 131.164C88.7751 130.944 88.6892 130.721 88.6115 130.583L88.601 130.565L88.583 130.551C87.2639 129.583 86.8606 128.197 86.8231 127.627C86.8502 127.241 86.8571 126.977 86.8502 126.791C86.8432 126.606 86.8222 126.492 86.7891 126.409C86.7623 126.343 86.7265 126.297 86.6994 126.263C86.6968 126.26 86.6942 126.256 86.6917 126.253C86.6882 126.249 86.6848 126.244 86.6818 126.24C86.6555 126.205 86.6268 126.158 86.6024 126.054C86.52 125.702 86.567 125.318 86.6013 125.168C89.2789 117.39 88.5695 110.856 88.3489 109.706C88.2637 109.262 88.245 108.177 88.2578 106.989C88.2704 105.815 88.3135 104.552 88.3497 103.742C89.4655 101.26 89.6678 98.0636 89.4715 95.0823C89.2754 92.104 88.6805 89.3288 88.1889 87.6733C88.6612 84.594 88.1063 82.4376 87.7506 81.7084C87.7597 80.906 87.7704 79.6968 87.7736 78.649C87.7752 78.1204 87.7748 77.6326 87.7714 77.2587C87.7679 76.8894 87.7615 76.6215 87.7494 76.5411C87.7465 76.5218 87.7487 76.4851 87.762 76.4272C87.7749 76.3714 87.7963 76.3036 87.8252 76.2258C87.883 76.0703 87.968 75.8821 88.0656 75.6837C88.1994 75.4118 88.355 75.1242 88.4921 74.8817C88.7027 76.915 89.1207 78.0582 89.3763 78.4993C89.3768 78.5026 89.3774 78.5067 89.3781 78.5115C89.3803 78.5284 89.3828 78.5508 89.3851 78.5737C89.3866 78.5884 89.3879 78.6029 89.389 78.616C89.3897 78.6234 89.3902 78.6304 89.3907 78.6367C89.3913 78.6448 89.3916 78.6513 89.3919 78.6559C89.3518 78.8635 89.3063 79.3776 89.2778 80.4847C89.2665 80.9252 89.4075 81.5476 89.6371 82.2582C89.8677 82.9716 90.1909 83.7836 90.5511 84.6072C91.2505 86.2059 92.092 87.8541 92.6739 88.9212C92.6612 88.9322 92.65 88.9439 92.6403 88.9554C92.5964 89.0069 92.5566 89.0822 92.5197 89.1695C92.4448 89.3468 92.3686 89.6055 92.2954 89.9121C92.1486 90.5268 92.0099 91.3503 91.9176 92.1386C91.8254 92.9255 91.7784 93.6847 91.8175 94.1686C91.8273 94.2899 91.8428 94.3968 91.8653 94.484C91.8869 94.5676 91.9184 94.6467 91.9699 94.6998C91.9974 94.7282 92.0345 94.7531 92.0822 94.763C92.1306 94.773 92.177 94.7649 92.2174 94.748C92.292 94.7167 92.3596 94.6493 92.4232 94.5656C92.9798 93.8323 93.2457 92.8923 93.3565 92.1802C93.5537 93.1596 93.7251 93.9214 93.8021 94.2454C93.6329 94.7103 93.5895 95.4504 93.5878 95.7833C93.1157 96.7894 93.0853 97.4453 93.1605 97.7632C93.1777 97.8361 93.2382 97.885 93.3101 97.8974C93.379 97.9094 93.4511 97.8872 93.5009 97.8384C95.2068 96.1659 95.8577 94.1794 95.9785 92.3779C96.0986 90.5857 95.6946 88.9712 95.2771 88.0179C95.1499 86.9315 94.9682 85.2582 94.8343 83.752C94.767 82.9957 94.7119 82.2821 94.6817 81.7064C94.6514 81.1267 94.647 80.6968 94.678 80.5009C94.7475 80.0615 94.5891 79.4994 94.3747 78.987C94.1663 78.489 93.8979 78.0216 93.7049 77.7289C94.0687 76.4085 93.9875 74.601 93.7418 72.8829C93.4945 71.1531 93.0783 69.5007 92.7683 68.501C92.7455 67.3428 92.4348 66.1211 91.8979 65.1594C91.3614 64.1983 90.5843 63.4728 89.6186 63.3651C88.7052 63.2631 87.5426 62.9305 86.4895 62.5374C85.435 62.1438 84.5056 61.6953 84.0543 61.368C83.709 61.1175 83.5039 60.7309 83.3905 60.3385C83.2826 59.9652 83.2609 59.5977 83.2743 59.3632C84.5678 58.0389 84.8356 56.5437 84.8054 55.9242C85.1929 55.0204 85.2818 54.4454 85.2204 54.0909C85.1892 53.9106 85.1178 53.7803 85.0187 53.6958C84.9544 53.6408 84.8818 53.6082 84.8088 53.5935C84.8927 51.6388 84.2046 50.4562 83.2914 49.7803C82.3844 49.1091 81.2716 48.9501 80.5216 49.0125ZM80.5054 49.2091C79.8 49.1496 78.7345 49.2997 77.8682 49.9332C76.9942 50.5723 76.3062 51.716 76.4139 53.6783L76.42 53.788L76.2985 53.7816C76.2448 53.7787 76.1848 53.7934 76.1313 53.839C76.0769 53.8855 76.0215 53.9709 75.9954 54.1214C75.9427 54.4257 76.0158 54.9662 76.4066 55.8724L76.4152 55.8923L76.4139 55.9136C76.379 56.477 76.6259 57.9546 77.9139 59.2577L77.9389 59.2829L77.9414 59.3166C77.9603 59.5676 77.9405 59.9742 77.8208 60.3883C77.7015 60.8013 77.4791 61.234 77.0825 61.5217C76.6063 61.8671 75.6535 62.3241 74.594 62.7196C73.533 63.1157 72.3496 63.4557 71.4082 63.5607C70.5512 63.6564 69.8218 64.3083 69.2971 65.2481C68.7748 66.1838 68.4701 67.3812 68.4499 68.517C68.4492 68.5572 68.4488 68.5973 68.4488 68.6374H68.4165C68.1117 69.6367 67.7135 71.2377 67.4745 72.9107C67.2272 74.6411 67.1524 76.4352 67.5179 77.72L67.5293 77.7601L67.5055 77.7956C67.3175 78.0758 67.0424 78.549 66.8309 79.0536C66.6178 79.5622 66.4769 80.0854 66.5382 80.473C66.5727 80.6911 66.5666 81.1409 66.5365 81.7157C66.5061 82.2946 66.4508 83.0105 66.3835 83.7677C66.2488 85.2823 66.0659 86.9649 65.9386 88.0521L65.937 88.0656L65.9314 88.0782C65.523 89.0046 65.1209 90.5967 65.2395 92.366C65.3574 94.125 65.9894 96.0538 67.6346 97.68C67.6859 97.3949 67.6501 96.7904 67.2043 95.8459C67.1979 95.8322 67.1938 95.8166 67.1938 95.7997C67.1934 95.4717 67.1493 94.7256 66.9834 94.2882C66.9761 94.2689 66.974 94.2473 66.9793 94.2252C67.0708 93.8424 67.3168 92.747 67.5773 91.3884L67.7941 91.4052C67.7941 92 67.9893 93.4428 68.757 94.4541C68.8107 94.5248 68.8484 94.5555 68.8689 94.5664C68.8834 94.5492 68.9035 94.5105 68.922 94.4391C68.9409 94.3659 68.9552 94.2702 68.9646 94.1542C69.0022 93.6889 68.9571 92.9442 68.8652 92.1594C68.7734 91.376 68.6359 90.5598 68.4911 89.9536C68.4185 89.6497 68.3451 89.4028 68.2762 89.2398C68.2418 89.1585 68.2115 89.1055 68.1878 89.077L67.9397 89.1815L68.078 88.9294C68.659 87.8705 69.5278 86.1758 70.2457 84.5347C70.6046 83.7142 70.9252 82.9084 71.1532 82.203C71.382 81.4949 71.5143 80.8974 71.5038 80.4893C71.4749 79.3643 71.4284 78.8667 71.3915 78.6824C71.3895 78.6725 71.3896 78.6632 71.3896 78.6614C71.3896 78.6576 71.3897 78.6534 71.3898 78.6498C71.3901 78.6424 71.3907 78.6334 71.3914 78.6238C71.3928 78.6044 71.3949 78.5801 71.3973 78.556C71.3997 78.532 71.4025 78.5075 71.4051 78.488C71.4064 78.4783 71.4077 78.4689 71.4092 78.4611C71.4098 78.4572 71.4108 78.4526 71.4119 78.448C71.4123 78.4463 71.4155 78.4328 71.4234 78.4194C71.6716 77.9992 72.1244 76.7828 72.3225 74.5285L72.3519 74.1935L72.5276 74.4898C72.6921 74.7672 72.9362 75.2015 73.134 75.6036C73.2328 75.8045 73.321 75.9992 73.3819 76.1631C73.4123 76.2449 73.4366 76.3208 73.4518 76.387C73.4666 76.4511 73.475 76.5144 73.467 76.5676C73.4573 76.6321 73.4505 76.8829 73.447 77.2604C73.4436 77.6332 73.4432 78.1201 73.4448 78.6485C73.448 79.705 73.4589 80.926 73.468 81.7278L73.4683 81.7496L73.4583 81.7695C73.1231 82.4387 72.5526 84.5752 73.0305 87.6659L73.0336 87.6858L73.0278 87.7051C72.5386 89.3464 71.9425 92.1185 71.7466 95.094C71.5505 98.0716 71.7561 101.241 72.8598 103.683L72.867 103.699L72.8678 103.716C72.9042 104.528 72.9479 105.802 72.9606 106.987C72.9733 108.168 72.9557 109.274 72.8663 109.74C72.6504 110.866 71.9416 117.37 74.6088 125.114L74.6103 125.118L74.6113 125.122C74.6497 125.286 74.7028 125.705 74.6113 126.095C74.5812 126.223 74.5418 126.293 74.4998 126.35C74.4893 126.364 74.4801 126.376 74.4718 126.386C74.4478 126.417 74.4321 126.437 74.4162 126.477C74.3947 126.53 74.3748 126.62 74.3681 126.798C74.3615 126.975 74.3681 127.234 74.3953 127.62L74.3957 127.626L74.3953 127.632C74.3578 128.236 73.941 129.676 72.5733 130.691C72.5086 130.812 72.4431 130.993 72.4423 131.165C72.4416 131.337 72.5035 131.484 72.6807 131.567C72.7565 131.574 72.8589 131.576 72.9418 131.566C72.9861 131.561 73.0156 131.553 73.0315 131.545L73.0317 131.541C73.0319 131.536 73.0323 131.531 73.033 131.527C73.0334 131.523 73.0357 131.506 73.0456 131.489C73.0509 131.48 73.0657 131.458 73.0973 131.444C73.1344 131.429 73.1699 131.435 73.1919 131.445C73.2105 131.453 73.222 131.464 73.2265 131.469C73.232 131.474 73.2358 131.479 73.238 131.482C73.2423 131.488 73.2456 131.494 73.2473 131.497C73.2498 131.501 73.253 131.507 73.2556 131.512L73.2579 131.517C73.2723 131.544 73.292 131.577 73.3228 131.602C73.3497 131.624 73.3876 131.642 73.4508 131.636C73.5196 131.629 73.6267 131.592 73.7822 131.482L73.8603 131.426L73.9289 131.491C74.001 131.56 74.1235 131.638 74.2533 131.66C74.3162 131.671 74.3792 131.668 74.4405 131.647C74.5018 131.625 74.5687 131.581 74.6349 131.501L74.7123 131.406L74.8018 131.491C74.8847 131.57 75.0187 131.658 75.1511 131.683C75.2147 131.694 75.2743 131.691 75.329 131.668C75.3838 131.646 75.4441 131.6 75.5008 131.51L75.6665 131.596L75.7262 131.54C75.937 131.725 76.5384 132.003 77.2255 131.581C77.9515 131.136 77.9793 130.751 77.9466 130.658L77.942 130.645L77.8321 127.311L77.8333 127.303C77.8856 126.939 77.8537 125.998 77.3031 125.195C77.221 125.075 77.1669 124.908 77.1316 124.713C77.0959 124.516 77.078 124.282 77.0739 124.022C77.0656 123.502 77.1128 122.87 77.1906 122.209C77.346 120.886 77.6246 119.435 77.8342 118.502C77.9773 117.735 78.1596 114.9 77.7236 109.73L77.7223 109.715L77.7262 109.7C77.8697 109.156 78.1818 107.479 78.2689 105.166L78.2695 105.149L78.2762 105.134C78.742 104.046 79.8217 100.352 80.3904 94.3124C80.3887 94.2948 80.3871 94.2771 80.3854 94.2594L80.3954 94.2586C80.3959 94.2534 80.3964 94.2481 80.3969 94.2429L80.5 94.2507L80.6031 94.2429C80.6036 94.2481 80.6041 94.2534 80.6046 94.2586L80.6146 94.2594C80.6129 94.2771 80.6113 94.2948 80.6096 94.3124C81.1783 100.352 82.258 104.046 82.7238 105.134L82.7305 105.149L82.7311 105.166C82.8182 107.479 83.1303 109.156 83.2738 109.7L83.2777 109.715L83.2764 109.73C82.8404 114.9 83.0227 117.735 83.1658 118.502C83.3754 119.435 83.654 120.886 83.8094 122.209C83.8872 122.87 83.9344 123.502 83.9261 124.022C83.922 124.282 83.9041 124.516 83.8684 124.713C83.8331 124.908 83.779 125.075 83.6969 125.195C83.1463 125.998 83.1144 126.939 83.1667 127.303L83.1679 127.311L83.058 130.645L83.0534 130.658C83.0207 130.751 83.0485 131.136 83.7745 131.581C84.4616 132.003 85.063 131.725 85.2738 131.54L85.3335 131.596L85.4992 131.51C85.5559 131.6 85.6162 131.646 85.671 131.668C85.7257 131.691 85.7853 131.694 85.8489 131.683C85.9813 131.658 86.1153 131.57 86.1982 131.491L86.2877 131.406L86.3651 131.501C86.4313 131.581 86.4982 131.625 86.5595 131.647C86.6208 131.668 86.6838 131.671 86.7467 131.66C86.8765 131.638 86.999 131.56 87.0711 131.491L87.1397 131.426L87.2178 131.482C87.3733 131.592 87.4804 131.629 87.5492 131.636C87.6124 131.642 87.6503 131.624 87.6772 131.602C87.708 131.577 87.7277 131.544 87.7421 131.517L87.7444 131.512C87.747 131.507 87.7502 131.501 87.7527 131.497L87.7546 131.493C87.7565 131.49 87.759 131.486 87.762 131.482C87.7642 131.479 87.768 131.474 87.7735 131.469C87.778 131.464 87.7895 131.453 87.8081 131.445C87.8301 131.435 87.8656 131.429 87.9027 131.444C87.9343 131.458 87.9491 131.48 87.9544 131.489C87.9643 131.506 87.9665 131.523 87.967 131.526C87.9678 131.532 87.9683 131.539 87.9685 131.545C87.9844 131.553 88.0139 131.561 88.0582 131.566C88.1411 131.576 88.2435 131.574 88.3193 131.567C88.4965 131.484 88.5584 131.337 88.5576 131.165C88.5569 130.993 88.4914 130.812 88.4267 130.691C87.059 129.676 86.6422 128.236 86.6047 127.632L86.6043 127.626L86.6047 127.62C86.6319 127.234 86.6385 126.975 86.6319 126.798C86.6252 126.62 86.6053 126.53 86.5838 126.477C86.5679 126.437 86.5522 126.417 86.5282 126.386C86.5234 126.38 86.5182 126.374 86.5127 126.366C86.5087 126.361 86.5045 126.356 86.5002 126.35C86.4582 126.293 86.4188 126.223 86.3887 126.095C86.2972 125.705 86.3503 125.286 86.3887 125.122L86.3897 125.118L86.3912 125.114C89.0584 117.37 88.3496 110.866 88.1337 109.74C88.0443 109.274 88.0267 108.168 88.0394 106.987C88.0521 105.802 88.0958 104.528 88.1322 103.716L88.133 103.699L88.1402 103.683C89.2439 101.241 89.4495 98.0716 89.2534 95.094C89.0575 92.1185 88.4614 89.3464 87.9722 87.7051L87.9664 87.6858L87.9695 87.6659C88.4474 84.5752 87.8769 82.4387 87.5417 81.7695L87.5317 81.7496L87.532 81.7279C87.5411 80.926 87.552 79.705 87.5552 78.6485C87.5568 78.1202 87.5564 77.6332 87.553 77.2604C87.5495 76.8829 87.5427 76.6321 87.533 76.5677C87.525 76.5144 87.5334 76.4511 87.5482 76.387C87.5634 76.3208 87.5877 76.2449 87.6181 76.1631C87.679 75.9992 87.7672 75.8046 87.866 75.6037C88.0638 75.2015 88.3079 74.7672 88.4724 74.4898L88.6481 74.1935L88.6775 74.5285C88.8756 76.7828 89.3284 77.9992 89.5766 78.4194C89.5846 78.4328 89.5877 78.4461 89.5881 78.4478C89.5892 78.4525 89.5902 78.4572 89.5908 78.4611C89.5923 78.4689 89.5936 78.4783 89.5949 78.488C89.5975 78.5075 89.6003 78.532 89.6027 78.556C89.6051 78.5801 89.6072 78.6044 89.6086 78.6238C89.6089 78.6273 89.6091 78.6307 89.6093 78.634C89.6097 78.6397 89.61 78.6451 89.6102 78.6498C89.6103 78.6534 89.6104 78.6574 89.6104 78.6611C89.6104 78.663 89.6104 78.6725 89.6085 78.6825C89.5716 78.8668 89.5251 79.3643 89.4962 80.4893C89.4857 80.8974 89.618 81.4949 89.8468 82.203C90.0748 82.9084 90.3954 83.7142 90.7543 84.5347C91.4722 86.1758 92.341 87.8705 92.922 88.9294L93.0603 89.1815L92.8122 89.077C92.7885 89.1055 92.7582 89.1585 92.7238 89.2398C92.6549 89.4028 92.5815 89.6498 92.5089 89.9536C92.3641 90.5598 92.2266 91.376 92.1348 92.1594C92.0429 92.9442 91.9978 93.6889 92.0354 94.1542C92.0448 94.2702 92.0591 94.3659 92.078 94.4391C92.0965 94.5105 92.1166 94.5492 92.1311 94.5664C92.1516 94.5555 92.1893 94.5248 92.243 94.4541C93.0107 93.4428 93.2059 92 93.2059 91.4052L93.4227 91.3884C93.6832 92.747 93.9292 93.8424 94.0207 94.2252C94.0261 94.2473 94.0239 94.2689 94.0166 94.2882C93.8507 94.7257 93.8066 95.4717 93.8062 95.7997C93.8062 95.8166 93.8021 95.8322 93.7957 95.8459C93.3499 96.7905 93.3141 97.3949 93.3654 97.68C95.0106 96.0538 95.6426 94.125 95.7605 92.366C95.8791 90.5967 95.477 89.0046 95.0686 88.0782L95.063 88.0656L95.0614 88.0521C94.9341 86.9649 94.7512 85.2823 94.6165 83.7677C94.5492 83.0105 94.4939 82.2946 94.4635 81.7157C94.4334 81.1409 94.4273 80.6911 94.4618 80.4731C94.523 80.0862 94.3828 79.5643 94.1703 79.0566C93.9596 78.553 93.6851 78.0802 93.4967 77.7989C93.4796 77.7734 93.4754 77.7435 93.4832 77.7161C93.8477 76.4309 93.7724 74.6375 93.5252 72.9081C93.2861 71.2361 92.8881 69.6362 92.5835 68.6374H92.5512C92.5512 68.5973 92.5508 68.5572 92.5501 68.517C92.5299 67.3812 92.2252 66.1838 91.7029 65.2481C91.1782 64.3083 90.4488 63.6564 89.5918 63.5607C88.6504 63.4557 87.467 63.1157 86.406 62.7196C85.3465 62.3241 84.3937 61.8671 83.9175 61.5217C83.5209 61.234 83.2985 60.8013 83.1792 60.3883C83.0595 59.9742 83.0397 59.5676 83.0586 59.3166L83.0611 59.2829L83.0861 59.2577C84.3741 57.9546 84.621 56.477 84.5861 55.9137L84.5848 55.8923L84.5934 55.8724C84.9842 54.9662 85.0573 54.4257 85.0046 54.1214C84.9785 53.9709 84.9231 53.8855 84.8687 53.839C84.8152 53.7934 84.7552 53.7787 84.7015 53.7816L84.58 53.788L84.5861 53.6783C84.6938 51.7154 84.0162 50.5717 83.1529 49.9328C82.2974 49.2997 81.2427 49.1496 80.5378 49.2091L80.5374 49.212C80.5322 49.2115 80.5269 49.211 80.5216 49.2105C80.5163 49.211 80.511 49.2115 80.5057 49.212L80.5054 49.2091Z" fill="#00A499"/>
<path d="M77.8682 49.9332C78.7345 49.2997 79.8 49.1496 80.5054 49.2091L80.5057 49.212L80.5216 49.2105L80.5374 49.212L80.5378 49.2091C81.2427 49.1496 82.2974 49.2997 83.1529 49.9328C84.0162 50.5717 84.6938 51.7154 84.5861 53.6783L84.58 53.788L84.7015 53.7816C84.7552 53.7787 84.8152 53.7934 84.8687 53.839C84.9231 53.8855 84.9785 53.9709 85.0046 54.1214C85.0573 54.4257 84.9842 54.9662 84.5934 55.8724L84.5848 55.8923L84.5861 55.9137C84.621 56.477 84.3741 57.9546 83.0861 59.2577L83.0611 59.2829L83.0586 59.3166C83.0397 59.5676 83.0595 59.9742 83.1792 60.3883C83.2985 60.8013 83.5209 61.234 83.9175 61.5217C84.3937 61.8671 85.3465 62.3241 86.406 62.7196C87.467 63.1157 88.6504 63.4557 89.5918 63.5607C90.4488 63.6564 91.1782 64.3083 91.7029 65.2481C92.2252 66.1838 92.5299 67.3812 92.5501 68.517C92.5508 68.5572 92.5512 68.5973 92.5512 68.6374H92.5835C92.8881 69.6362 93.2861 71.2361 93.5252 72.9081C93.7724 74.6375 93.8477 76.4309 93.4832 77.7161C93.4754 77.7435 93.4796 77.7734 93.4967 77.7989C93.6851 78.0802 93.9596 78.553 94.1703 79.0566C94.3828 79.5643 94.523 80.0862 94.4618 80.4731C94.4273 80.6911 94.4334 81.1409 94.4635 81.7157C94.4939 82.2946 94.5492 83.0105 94.6165 83.7677C94.7512 85.2823 94.9341 86.9649 95.0614 88.0521L95.063 88.0656L95.0686 88.0782C95.477 89.0046 95.8791 90.5967 95.7605 92.366C95.6426 94.125 95.0106 96.0538 93.3654 97.68C93.3141 97.3949 93.3499 96.7905 93.7957 95.8459C93.8021 95.8322 93.8062 95.8166 93.8062 95.7997C93.8066 95.4717 93.8507 94.7257 94.0166 94.2882C94.0239 94.2689 94.0261 94.2473 94.0207 94.2252C93.9292 93.8424 93.6832 92.747 93.4227 91.3884L93.2059 91.4052C93.2059 92 93.0107 93.4428 92.243 94.4541C92.1893 94.5248 92.1516 94.5555 92.1311 94.5664C92.1166 94.5492 92.0965 94.5105 92.078 94.4391C92.0591 94.3659 92.0448 94.2702 92.0354 94.1542C91.9978 93.6889 92.0429 92.9442 92.1348 92.1594C92.2266 91.376 92.3641 90.5598 92.5089 89.9536C92.5815 89.6498 92.6549 89.4028 92.7238 89.2398C92.7582 89.1585 92.7885 89.1055 92.8122 89.077L93.0603 89.1815L92.922 88.9294C92.341 87.8705 91.4722 86.1758 90.7543 84.5347C90.3954 83.7142 90.0748 82.9084 89.8468 82.203C89.618 81.4949 89.4857 80.8974 89.4962 80.4893C89.5251 79.3643 89.5716 78.8668 89.6085 78.6825C89.6104 78.6725 89.6104 78.663 89.6104 78.6611C89.6104 78.6574 89.6103 78.6534 89.6102 78.6498L89.6093 78.634L89.6086 78.6238C89.6072 78.6044 89.6051 78.5801 89.6027 78.556C89.6003 78.532 89.5975 78.5075 89.5949 78.488C89.5936 78.4783 89.5923 78.4689 89.5908 78.4611C89.5902 78.4572 89.5892 78.4525 89.5881 78.4478C89.5877 78.4461 89.5846 78.4328 89.5766 78.4194C89.3284 77.9992 88.8756 76.7828 88.6775 74.5285L88.6481 74.1935L88.4724 74.4898C88.3079 74.7672 88.0638 75.2015 87.866 75.6037C87.7672 75.8046 87.679 75.9992 87.6181 76.1631C87.5877 76.2449 87.5634 76.3208 87.5482 76.387C87.5334 76.4511 87.525 76.5144 87.533 76.5677C87.5427 76.6321 87.5495 76.8829 87.553 77.2604C87.5564 77.6332 87.5568 78.1202 87.5552 78.6485C87.552 79.705 87.5411 80.926 87.532 81.7279L87.5317 81.7496L87.5417 81.7695C87.8769 82.4387 88.4474 84.5752 87.9695 87.6659L87.9664 87.6858L87.9722 87.7051C88.4614 89.3464 89.0575 92.1185 89.2534 95.094C89.4495 98.0716 89.2439 101.241 88.1402 103.683L88.133 103.699L88.1322 103.716C88.0958 104.528 88.0521 105.802 88.0394 106.987C88.0267 108.168 88.0443 109.274 88.1337 109.74C88.3496 110.866 89.0584 117.37 86.3912 125.114L86.3897 125.118L86.3887 125.122C86.3503 125.286 86.2972 125.705 86.3887 126.095C86.4188 126.223 86.4582 126.293 86.5002 126.35L86.5127 126.366L86.5282 126.386C86.5522 126.417 86.5679 126.437 86.5838 126.477C86.6053 126.53 86.6252 126.62 86.6319 126.798C86.6385 126.975 86.6319 127.234 86.6047 127.62L86.6043 127.626L86.6047 127.632C86.6422 128.236 87.059 129.676 88.4267 130.691C88.4914 130.812 88.5569 130.993 88.5576 131.165C88.5584 131.337 88.4965 131.484 88.3193 131.567C88.2435 131.574 88.1411 131.576 88.0582 131.566C88.0139 131.561 87.9844 131.553 87.9685 131.545C87.9683 131.539 87.9678 131.532 87.967 131.526C87.9665 131.523 87.9643 131.506 87.9544 131.489C87.9491 131.48 87.9343 131.458 87.9027 131.444C87.8656 131.429 87.8301 131.435 87.8081 131.445C87.7895 131.453 87.778 131.464 87.7735 131.469C87.768 131.474 87.7642 131.479 87.762 131.482C87.759 131.486 87.7565 131.49 87.7546 131.493L87.7527 131.497C87.7502 131.501 87.747 131.507 87.7444 131.512L87.7421 131.517C87.7277 131.544 87.708 131.577 87.6772 131.602C87.6503 131.624 87.6124 131.642 87.5492 131.636C87.4804 131.629 87.3733 131.592 87.2178 131.482L87.1397 131.426L87.0711 131.491C86.999 131.56 86.8765 131.638 86.7467 131.66C86.6838 131.671 86.6208 131.668 86.5595 131.647C86.4982 131.625 86.4313 131.581 86.3651 131.501L86.2877 131.406L86.1982 131.491C86.1153 131.57 85.9813 131.658 85.8489 131.683C85.7853 131.694 85.7257 131.691 85.671 131.668C85.6162 131.646 85.5559 131.6 85.4992 131.51L85.3335 131.596L85.2738 131.54C85.063 131.725 84.4616 132.003 83.7745 131.581C83.0485 131.136 83.0207 130.751 83.0534 130.658L83.058 130.645L83.1679 127.311L83.1667 127.303C83.1144 126.939 83.1463 125.998 83.6969 125.195C83.779 125.075 83.8331 124.908 83.8684 124.713C83.9041 124.516 83.922 124.282 83.9261 124.022C83.9344 123.502 83.8872 122.87 83.8094 122.209C83.654 120.886 83.3754 119.435 83.1658 118.502C83.0227 117.735 82.8404 114.9 83.2764 109.73L83.2777 109.715L83.2738 109.7C83.1303 109.156 82.8182 107.479 82.7311 105.166L82.7305 105.149L82.7238 105.134C82.258 104.046 81.1783 100.352 80.6096 94.3124L80.6146 94.2594L80.6046 94.2586L80.6031 94.2429L80.5 94.2507L80.3969 94.2429L80.3954 94.2586L80.3854 94.2594L80.3904 94.3124C79.8217 100.352 78.742 104.046 78.2762 105.134L78.2695 105.149L78.2689 105.166C78.1818 107.479 77.8697 109.156 77.7262 109.7L77.7223 109.715L77.7236 109.73C78.1596 114.9 77.9773 117.735 77.8342 118.502C77.6246 119.435 77.346 120.886 77.1906 122.209C77.1128 122.87 77.0656 123.502 77.0739 124.022C77.078 124.282 77.0959 124.516 77.1316 124.713C77.1669 124.908 77.221 125.075 77.3031 125.195C77.8537 125.998 77.8856 126.939 77.8333 127.303L77.8321 127.311L77.942 130.645L77.9466 130.658C77.9793 130.751 77.9515 131.136 77.2255 131.581C76.5384 132.003 75.937 131.725 75.7262 131.54L75.6665 131.596L75.5008 131.51C75.4441 131.6 75.3838 131.646 75.329 131.668C75.2743 131.691 75.2147 131.694 75.1511 131.683C75.0187 131.658 74.8847 131.57 74.8018 131.491L74.7123 131.406L74.6349 131.501C74.5687 131.581 74.5018 131.625 74.4405 131.647C74.3792 131.668 74.3162 131.671 74.2533 131.66C74.1235 131.638 74.001 131.56 73.9289 131.491L73.8603 131.426L73.7822 131.482C73.6267 131.592 73.5196 131.629 73.4508 131.636C73.3876 131.642 73.3497 131.624 73.3228 131.602C73.292 131.577 73.2723 131.544 73.2579 131.517L73.2556 131.512C73.253 131.507 73.2498 131.501 73.2473 131.497C73.2456 131.494 73.2423 131.488 73.238 131.482C73.2358 131.479 73.232 131.474 73.2265 131.469C73.222 131.464 73.2105 131.453 73.1919 131.445C73.1699 131.435 73.1344 131.429 73.0973 131.444C73.0657 131.458 73.0509 131.48 73.0456 131.489C73.0357 131.506 73.0334 131.523 73.033 131.527C73.0323 131.531 73.0319 131.536 73.0317 131.541L73.0315 131.545C73.0156 131.553 72.9861 131.561 72.9418 131.566C72.8589 131.576 72.7565 131.574 72.6807 131.567C72.5035 131.484 72.4416 131.337 72.4423 131.165C72.4431 130.993 72.5086 130.812 72.5733 130.691C73.941 129.676 74.3578 128.236 74.3953 127.632L74.3957 127.626L74.3953 127.62C74.3681 127.234 74.3615 126.975 74.3681 126.798C74.3748 126.62 74.3947 126.53 74.4162 126.477C74.4321 126.437 74.4478 126.417 74.4718 126.386C74.4801 126.376 74.4893 126.364 74.4998 126.35C74.5418 126.293 74.5812 126.223 74.6113 126.095C74.7028 125.705 74.6497 125.286 74.6113 125.122L74.6103 125.118L74.6088 125.114C71.9416 117.37 72.6504 110.866 72.8663 109.74C72.9557 109.274 72.9733 108.168 72.9606 106.987C72.9479 105.802 72.9042 104.528 72.8678 103.716L72.867 103.699L72.8598 103.683C71.7561 101.241 71.5505 98.0716 71.7466 95.094C71.9425 92.1185 72.5386 89.3464 73.0278 87.7051L73.0336 87.6858L73.0305 87.6659C72.5526 84.5752 73.1231 82.4387 73.4583 81.7695L73.4683 81.7496L73.468 81.7278C73.4589 80.926 73.448 79.705 73.4448 78.6485C73.4432 78.1201 73.4436 77.6332 73.447 77.2604C73.4505 76.8829 73.4573 76.6321 73.467 76.5676C73.475 76.5144 73.4666 76.4511 73.4518 76.387C73.4366 76.3208 73.4123 76.2449 73.3819 76.1631C73.321 75.9992 73.2328 75.8045 73.134 75.6036C72.9362 75.2015 72.6921 74.7672 72.5276 74.4898L72.3519 74.1935L72.3225 74.5285C72.1244 76.7828 71.6716 77.9992 71.4234 78.4194C71.4155 78.4328 71.4123 78.4463 71.4119 78.448C71.4108 78.4526 71.4098 78.4572 71.4092 78.4611C71.4077 78.4689 71.4064 78.4783 71.4051 78.488C71.4025 78.5075 71.3997 78.532 71.3973 78.556C71.3949 78.5801 71.3928 78.6044 71.3914 78.6238C71.3907 78.6334 71.3901 78.6424 71.3898 78.6498C71.3897 78.6534 71.3896 78.6576 71.3896 78.6614C71.3896 78.6632 71.3895 78.6725 71.3915 78.6824C71.4284 78.8667 71.4749 79.3643 71.5038 80.4893C71.5143 80.8974 71.382 81.4949 71.1532 82.203C70.9252 82.9084 70.6046 83.7142 70.2457 84.5347C69.5278 86.1758 68.659 87.8705 68.078 88.9294L67.9397 89.1815L68.1878 89.077C68.2115 89.1055 68.2418 89.1585 68.2762 89.2398C68.3451 89.4028 68.4185 89.6497 68.4911 89.9536C68.6359 90.5598 68.7734 91.376 68.8652 92.1594C68.9571 92.9442 69.0022 93.6889 68.9646 94.1542C68.9552 94.2702 68.9409 94.3659 68.922 94.4391C68.9035 94.5105 68.8834 94.5492 68.8689 94.5664C68.8484 94.5555 68.8107 94.5248 68.757 94.4541C67.9893 93.4428 67.7941 92 67.7941 91.4052L67.5773 91.3884C67.3168 92.747 67.0708 93.8424 66.9793 94.2252C66.974 94.2473 66.9761 94.2689 66.9834 94.2882C67.1493 94.7256 67.1934 95.4717 67.1938 95.7997C67.1938 95.8166 67.1979 95.8322 67.2043 95.8459C67.6501 96.7904 67.6859 97.3949 67.6346 97.68C65.9894 96.0538 65.3574 94.125 65.2395 92.366C65.1209 90.5967 65.523 89.0046 65.9314 88.0782L65.937 88.0656L65.9386 88.0521C66.0659 86.9649 66.2488 85.2823 66.3835 83.7677C66.4508 83.0105 66.5061 82.2946 66.5365 81.7157C66.5666 81.1409 66.5727 80.6911 66.5382 80.473C66.4769 80.0854 66.6178 79.5622 66.8309 79.0536C67.0424 78.549 67.3175 78.0758 67.5055 77.7956L67.5293 77.7601L67.5179 77.72C67.1524 76.4352 67.2272 74.6411 67.4745 72.9107C67.7135 71.2377 68.1117 69.6367 68.4165 68.6374H68.4488C68.4488 68.5973 68.4492 68.5572 68.4499 68.517C68.4701 67.3812 68.7748 66.1838 69.2971 65.2481C69.8218 64.3083 70.5512 63.6564 71.4082 63.5607C72.3496 63.4557 73.533 63.1157 74.594 62.7196C75.6535 62.3241 76.6063 61.8671 77.0825 61.5217C77.4791 61.234 77.7015 60.8013 77.8208 60.3883C77.9405 59.9742 77.9603 59.5676 77.9414 59.3166L77.9389 59.2829L77.9139 59.2577C76.6259 57.9546 76.379 56.477 76.4139 55.9136L76.4152 55.8923L76.4066 55.8724C76.0158 54.9662 75.9427 54.4257 75.9954 54.1214C76.0215 53.9709 76.0769 53.8855 76.1313 53.839C76.1848 53.7934 76.2448 53.7787 76.2985 53.7816L76.42 53.788L76.4139 53.6783C76.3062 51.716 76.9942 50.5723 77.8682 49.9332Z" fill="#00A499"/>
<path d="M9.23295 22V11.8182H12.7926C13.5019 11.8182 14.0869 11.9408 14.5476 12.1861C15.0083 12.428 15.3513 12.7545 15.5767 13.1655C15.8021 13.5732 15.9148 14.0256 15.9148 14.5227C15.9148 14.9602 15.8369 15.3215 15.6811 15.6065C15.5286 15.8916 15.3265 16.117 15.0746 16.2827C14.826 16.4484 14.5559 16.571 14.2642 16.6506V16.75C14.5758 16.7699 14.889 16.8793 15.2038 17.0781C15.5187 17.277 15.7822 17.562 15.9943 17.9332C16.2064 18.3045 16.3125 18.7585 16.3125 19.2955C16.3125 19.8059 16.1965 20.2649 15.9645 20.6726C15.7325 21.0803 15.3662 21.4034 14.8658 21.642C14.3653 21.8807 13.714 22 12.9119 22H9.23295ZM10.4659 20.9062H12.9119C13.7173 20.9062 14.2891 20.7505 14.6271 20.4389C14.9685 20.1241 15.1392 19.7429 15.1392 19.2955C15.1392 18.9508 15.0514 18.6326 14.8757 18.3409C14.7 18.0459 14.4498 17.8106 14.125 17.6349C13.8002 17.456 13.4157 17.3665 12.9716 17.3665H10.4659V20.9062ZM10.4659 16.2926H12.7528C13.1241 16.2926 13.4588 16.2197 13.7571 16.0739C14.0587 15.928 14.2973 15.7225 14.473 15.4574C14.652 15.1922 14.7415 14.8807 14.7415 14.5227C14.7415 14.0753 14.5857 13.6958 14.2741 13.3842C13.9626 13.0694 13.4688 12.9119 12.7926 12.9119H10.4659V16.2926ZM20.4265 22.179C19.9426 22.179 19.5034 22.0878 19.109 21.9055C18.7146 21.7199 18.4014 21.4531 18.1694 21.1051C17.9374 20.7538 17.8214 20.3295 17.8214 19.8324C17.8214 19.3949 17.9076 19.0402 18.0799 18.7685C18.2522 18.4934 18.4826 18.2779 18.771 18.1222C19.0593 17.9664 19.3775 17.8504 19.7255 17.7741C20.0768 17.6946 20.4298 17.6316 20.7844 17.5852C21.2485 17.5256 21.6246 17.4808 21.913 17.451C22.2047 17.4179 22.4168 17.3632 22.5494 17.2869C22.6853 17.2107 22.7532 17.0781 22.7532 16.8892V16.8494C22.7532 16.3589 22.619 15.9777 22.3505 15.706C22.0853 15.4342 21.6826 15.2983 21.1424 15.2983C20.5823 15.2983 20.1431 15.4209 19.8249 15.6662C19.5067 15.9115 19.283 16.1733 19.1538 16.4517L18.0401 16.054C18.239 15.59 18.5041 15.2287 18.8356 14.9702C19.1703 14.7083 19.5349 14.526 19.9293 14.4233C20.3271 14.3172 20.7182 14.2642 21.1026 14.2642C21.3479 14.2642 21.6296 14.294 21.9478 14.3537C22.2693 14.41 22.5792 14.5277 22.8775 14.7067C23.1791 14.8857 23.4293 15.1558 23.6282 15.517C23.8271 15.8783 23.9265 16.3622 23.9265 16.9688V22H22.7532V20.9659H22.6935C22.614 21.1316 22.4814 21.3089 22.2958 21.4979C22.1102 21.6868 21.8633 21.8475 21.555 21.9801C21.2468 22.1127 20.8706 22.179 20.4265 22.179ZM20.6055 21.125C21.0695 21.125 21.4606 21.0339 21.7788 20.8516C22.1003 20.6693 22.3422 20.4339 22.5046 20.1456C22.6703 19.8572 22.7532 19.554 22.7532 19.2358V18.1619C22.7035 18.2216 22.5941 18.2763 22.4251 18.326C22.2594 18.3724 22.0671 18.4138 21.8484 18.4503C21.6329 18.4834 21.4225 18.5133 21.217 18.5398C21.0148 18.563 20.8507 18.5829 20.7248 18.5994C20.4199 18.6392 20.1348 18.7038 19.8697 18.7933C19.6078 18.8795 19.3957 19.0104 19.2333 19.1861C19.0742 19.3584 18.9947 19.5937 18.9947 19.892C18.9947 20.2997 19.1455 20.608 19.4471 20.8168C19.752 21.0223 20.1381 21.125 20.6055 21.125ZM29.1703 22.1591C28.4544 22.1591 27.8379 21.9901 27.3208 21.652C26.8038 21.3139 26.4061 20.8482 26.1277 20.255C25.8493 19.6617 25.71 18.9839 25.71 18.2216C25.71 17.446 25.8526 16.7616 26.1376 16.1683C26.426 15.5717 26.827 15.1061 27.3407 14.7713C27.8578 14.4332 28.461 14.2642 29.1504 14.2642C29.6873 14.2642 30.1712 14.3636 30.6021 14.5625C31.033 14.7614 31.3859 15.0398 31.661 15.3977C31.9361 15.7557 32.1068 16.1733 32.1731 16.6506H30.9998C30.9103 16.3026 30.7115 15.9943 30.4032 15.7259C30.0983 15.4541 29.6873 15.3182 29.1703 15.3182C28.7129 15.3182 28.3118 15.4375 27.9672 15.6761C27.6258 15.9115 27.359 16.2446 27.1667 16.6754C26.9778 17.103 26.8833 17.6051 26.8833 18.1818C26.8833 18.7718 26.9761 19.2855 27.1618 19.723C27.3507 20.1605 27.6158 20.5002 27.9572 20.7422C28.3019 20.9841 28.7063 21.1051 29.1703 21.1051C29.4752 21.1051 29.752 21.0521 30.0005 20.946C30.2491 20.84 30.4596 20.6875 30.6319 20.4886C30.8043 20.2898 30.9269 20.0511 30.9998 19.7727H32.1731C32.1068 20.2235 31.9428 20.6295 31.6809 20.9908C31.4224 21.3487 31.0794 21.6338 30.6518 21.8459C30.2276 22.0547 29.7337 22.1591 29.1703 22.1591ZM34.9821 19.2159L34.9622 17.7642H35.2008L38.5417 14.3636H39.9934L36.4338 17.9631H36.3343L34.9821 19.2159ZM33.8883 22V11.8182H35.0616V22H33.8883ZM38.7406 22L35.7576 18.2216L36.5929 17.4062L40.2321 22H38.7406Z" fill="#00A499"/>
</svg>
