<svg width="160" height="180" viewBox="0 0 160 180" fill="none" xmlns="http://www.w3.org/2000/svg">
<path d="M35 160C35 160.53 34.7893 161.039 34.4142 161.414C34.0391 161.789 33.5304 162 33 162H15C14.4696 162 13.9609 161.789 13.5858 161.414C13.2107 161.039 13 160.53 13 160V149C13 148.47 13.2107 147.961 13.5858 147.586C13.9609 147.211 14.4696 147 15 147H19L21 144H27L29 147H33C33.5304 147 34.0391 147.211 34.4142 147.586C34.7893 147.961 35 148.47 35 149V160Z" stroke="#B9BCC8" stroke-width="2" stroke-linecap="round" stroke-linejoin="round"/>
<path d="M24 158C26.2091 158 28 156.209 28 154C28 151.791 26.2091 150 24 150C21.7909 150 20 151.791 20 154C20 156.209 21.7909 158 24 158Z" stroke="#B9BCC8" stroke-width="2" stroke-linecap="round" stroke-linejoin="round"/>
<path d="M44.821 148.964V147.636H54.0938V148.964H50.206V160H48.7088V148.964H44.821ZM57.6782 160.217C57.0906 160.217 56.5573 160.107 56.0784 159.885C55.5995 159.66 55.2191 159.336 54.9374 158.913C54.6557 158.487 54.5148 157.972 54.5148 157.368C54.5148 156.837 54.6195 156.406 54.8287 156.076C55.038 155.742 55.3177 155.48 55.6679 155.291C56.018 155.102 56.4044 154.961 56.827 154.869C57.2536 154.772 57.6822 154.696 58.1128 154.639C58.6763 154.567 59.1331 154.512 59.4832 154.476C59.8374 154.436 60.095 154.37 60.2559 154.277C60.421 154.184 60.5035 154.023 60.5035 153.794V153.746C60.5035 153.15 60.3405 152.687 60.0145 152.357C59.6925 152.027 59.2035 151.862 58.5475 151.862C57.8673 151.862 57.3341 152.011 56.9477 152.309C56.5613 152.607 56.2897 152.925 56.1327 153.263L54.7805 152.78C55.0219 152.216 55.3439 151.778 55.7464 151.464C56.1528 151.146 56.5956 150.924 57.0745 150.8C57.5574 150.671 58.0323 150.607 58.4992 150.607C58.797 150.607 59.1391 150.643 59.5255 150.715C59.9159 150.784 60.2922 150.926 60.6544 151.144C61.0206 151.361 61.3245 151.689 61.566 152.128C61.8074 152.567 61.9282 153.154 61.9282 153.891V160H60.5035V158.744H60.431C60.3344 158.946 60.1734 159.161 59.9481 159.39C59.7227 159.62 59.4229 159.815 59.0486 159.976C58.6743 160.137 58.2175 160.217 57.6782 160.217ZM57.8955 158.938C58.459 158.938 58.9339 158.827 59.3202 158.605C59.7106 158.384 60.0044 158.098 60.2016 157.748C60.4028 157.398 60.5035 157.03 60.5035 156.643V155.339C60.4431 155.412 60.3103 155.478 60.105 155.539C59.9038 155.595 59.6704 155.645 59.4047 155.69C59.1431 155.73 58.8876 155.766 58.6381 155.798C58.3925 155.826 58.1933 155.851 58.0404 155.871C57.6701 155.919 57.324 155.998 57.002 156.106C56.6841 156.211 56.4265 156.37 56.2293 156.583C56.0361 156.792 55.9395 157.078 55.9395 157.44C55.9395 157.935 56.1227 158.31 56.4889 158.563C56.8592 158.813 57.328 158.938 57.8955 158.938ZM65.8567 156.619L65.8326 154.857H66.1223L70.1792 150.727H71.9419L67.6195 155.098H67.4988L65.8567 156.619ZM64.5286 160V147.636H65.9533V160H64.5286ZM70.4206 160L66.7985 155.412L67.8127 154.422L72.2317 160H70.4206ZM77.2816 160.193C76.3881 160.193 75.6174 159.996 74.9695 159.602C74.3255 159.203 73.8285 158.648 73.4783 157.935C73.1322 157.219 72.9592 156.386 72.9592 155.436C72.9592 154.486 73.1322 153.649 73.4783 152.925C73.8285 152.196 74.3155 151.629 74.9393 151.222C75.5671 150.812 76.2996 150.607 77.1367 150.607C77.6197 150.607 78.0966 150.687 78.5675 150.848C79.0384 151.009 79.467 151.271 79.8533 151.633C80.2397 151.991 80.5476 152.466 80.777 153.058C81.0064 153.649 81.1211 154.378 81.1211 155.243V155.847H73.9734V154.615H79.6722C79.6722 154.092 79.5676 153.625 79.3583 153.214C79.1531 152.804 78.8593 152.48 78.4769 152.243C78.0986 152.005 77.6519 151.886 77.1367 151.886C76.5692 151.886 76.0782 152.027 75.6637 152.309C75.2532 152.587 74.9373 152.949 74.7159 153.396C74.4946 153.842 74.3839 154.321 74.3839 154.832V155.653C74.3839 156.354 74.5046 156.947 74.7461 157.434C74.9916 157.917 75.3317 158.286 75.7663 158.539C76.201 158.789 76.7061 158.913 77.2816 158.913C77.6559 158.913 77.994 158.861 78.2958 158.756C78.6017 158.648 78.8653 158.487 79.0866 158.273C79.308 158.056 79.479 157.786 79.5998 157.464L80.9762 157.851C80.8313 158.318 80.5878 158.728 80.2457 159.082C79.9036 159.433 79.4811 159.706 78.978 159.903C78.4749 160.097 77.9094 160.193 77.2816 160.193ZM90.7983 160.217C90.2107 160.217 89.6774 160.107 89.1985 159.885C88.7196 159.66 88.3393 159.336 88.0575 158.913C87.7758 158.487 87.6349 157.972 87.6349 157.368C87.6349 156.837 87.7396 156.406 87.9489 156.076C88.1581 155.742 88.4379 155.48 88.788 155.291C89.1381 155.102 89.5245 154.961 89.9471 154.869C90.3737 154.772 90.8023 154.696 91.233 154.639C91.7964 154.567 92.2532 154.512 92.6033 154.476C92.9575 154.436 93.2151 154.37 93.3761 154.277C93.5411 154.184 93.6236 154.023 93.6236 153.794V153.746C93.6236 153.15 93.4606 152.687 93.1346 152.357C92.8126 152.027 92.3236 151.862 91.6676 151.862C90.9875 151.862 90.4542 152.011 90.0678 152.309C89.6815 152.607 89.4098 152.925 89.2528 153.263L87.9006 152.78C88.142 152.216 88.464 151.778 88.8665 151.464C89.273 151.146 89.7157 150.924 90.1946 150.8C90.6776 150.671 91.1525 150.607 91.6193 150.607C91.9171 150.607 92.2592 150.643 92.6456 150.715C93.036 150.784 93.4123 150.926 93.7745 151.144C94.1407 151.361 94.4446 151.689 94.6861 152.128C94.9276 152.567 95.0483 153.154 95.0483 153.891V160H93.6236V158.744H93.5511C93.4545 158.946 93.2936 159.161 93.0682 159.39C92.8428 159.62 92.543 159.815 92.1687 159.976C91.7944 160.137 91.3376 160.217 90.7983 160.217ZM91.0156 158.938C91.5791 158.938 92.054 158.827 92.4403 158.605C92.8307 158.384 93.1245 158.098 93.3217 157.748C93.523 157.398 93.6236 157.03 93.6236 156.643V155.339C93.5632 155.412 93.4304 155.478 93.2251 155.539C93.0239 155.595 92.7905 155.645 92.5249 155.69C92.2633 155.73 92.0077 155.766 91.7582 155.798C91.5127 155.826 91.3134 155.851 91.1605 155.871C90.7902 155.919 90.4441 155.998 90.1222 156.106C89.8042 156.211 89.5466 156.37 89.3494 156.583C89.1563 156.792 89.0597 157.078 89.0597 157.44C89.0597 157.935 89.2428 158.31 89.609 158.563C89.9793 158.813 90.4482 158.938 91.0156 158.938ZM102.43 163.477V150.727H103.806V152.2H103.975C104.08 152.039 104.225 151.834 104.41 151.585C104.599 151.331 104.869 151.106 105.219 150.908C105.573 150.707 106.052 150.607 106.656 150.607C107.437 150.607 108.125 150.802 108.72 151.192C109.316 151.583 109.781 152.136 110.115 152.852C110.449 153.569 110.616 154.414 110.616 155.388C110.616 156.37 110.449 157.221 110.115 157.941C109.781 158.658 109.318 159.213 108.726 159.608C108.135 159.998 107.453 160.193 106.68 160.193C106.084 160.193 105.607 160.095 105.249 159.897C104.891 159.696 104.615 159.469 104.422 159.215C104.229 158.958 104.08 158.744 103.975 158.575H103.855V163.477H102.43ZM103.831 155.364C103.831 156.064 103.933 156.682 104.138 157.217C104.344 157.748 104.643 158.165 105.038 158.467C105.432 158.764 105.915 158.913 106.487 158.913C107.082 158.913 107.579 158.756 107.978 158.442C108.38 158.125 108.682 157.698 108.883 157.163C109.089 156.623 109.191 156.024 109.191 155.364C109.191 154.712 109.091 154.124 108.889 153.601C108.692 153.074 108.392 152.657 107.99 152.351C107.592 152.041 107.09 151.886 106.487 151.886C105.907 151.886 105.42 152.033 105.026 152.327C104.631 152.617 104.334 153.023 104.132 153.547C103.931 154.066 103.831 154.671 103.831 155.364ZM114.214 154.422V160H112.789V147.636H114.214V152.176H114.335C114.552 151.697 114.878 151.317 115.313 151.035C115.751 150.749 116.335 150.607 117.063 150.607C117.695 150.607 118.249 150.733 118.724 150.987C119.199 151.236 119.567 151.621 119.828 152.14C120.094 152.655 120.227 153.311 120.227 154.108V160H118.802V154.205C118.802 153.468 118.611 152.899 118.229 152.496C117.85 152.09 117.325 151.886 116.653 151.886C116.186 151.886 115.768 151.985 115.397 152.182C115.031 152.379 114.741 152.667 114.528 153.045C114.319 153.424 114.214 153.883 114.214 154.422ZM126.6 160.193C125.763 160.193 125.029 159.994 124.397 159.596C123.769 159.197 123.278 158.64 122.924 157.923C122.574 157.207 122.399 156.37 122.399 155.412C122.399 154.446 122.574 153.603 122.924 152.882C123.278 152.162 123.769 151.603 124.397 151.204C125.029 150.806 125.763 150.607 126.6 150.607C127.437 150.607 128.17 150.806 128.798 151.204C129.43 151.603 129.921 152.162 130.271 152.882C130.625 153.603 130.802 154.446 130.802 155.412C130.802 156.37 130.625 157.207 130.271 157.923C129.921 158.64 129.43 159.197 128.798 159.596C128.17 159.994 127.437 160.193 126.6 160.193ZM126.6 158.913C127.236 158.913 127.759 158.75 128.17 158.424C128.58 158.098 128.884 157.67 129.081 157.138C129.279 156.607 129.377 156.032 129.377 155.412C129.377 154.792 129.279 154.215 129.081 153.679C128.884 153.144 128.58 152.711 128.17 152.381C127.759 152.051 127.236 151.886 126.6 151.886C125.964 151.886 125.441 152.051 125.031 152.381C124.62 152.711 124.316 153.144 124.119 153.679C123.922 154.215 123.823 154.792 123.823 155.412C123.823 156.032 123.922 156.607 124.119 157.138C124.316 157.67 124.62 158.098 125.031 158.424C125.441 158.75 125.964 158.913 126.6 158.913ZM137.009 150.727V151.935H132.204V150.727H137.009ZM133.605 148.506H135.029V157.344C135.029 157.746 135.088 158.048 135.204 158.249C135.325 158.446 135.478 158.579 135.663 158.648C135.852 158.712 136.052 158.744 136.261 158.744C136.418 158.744 136.547 158.736 136.647 158.72C136.748 158.7 136.828 158.684 136.889 158.672L137.179 159.952C137.082 159.988 136.947 160.024 136.774 160.06C136.601 160.101 136.382 160.121 136.116 160.121C135.714 160.121 135.319 160.034 134.933 159.861C134.55 159.688 134.233 159.424 133.979 159.07C133.729 158.716 133.605 158.269 133.605 157.73V148.506ZM142.82 160.193C141.983 160.193 141.248 159.994 140.617 159.596C139.989 159.197 139.498 158.64 139.144 157.923C138.793 157.207 138.618 156.37 138.618 155.412C138.618 154.446 138.793 153.603 139.144 152.882C139.498 152.162 139.989 151.603 140.617 151.204C141.248 150.806 141.983 150.607 142.82 150.607C143.657 150.607 144.39 150.806 145.017 151.204C145.649 151.603 146.14 152.162 146.491 152.882C146.845 153.603 147.022 154.446 147.022 155.412C147.022 156.37 146.845 157.207 146.491 157.923C146.14 158.64 145.649 159.197 145.017 159.596C144.39 159.994 143.657 160.193 142.82 160.193ZM142.82 158.913C143.456 158.913 143.979 158.75 144.39 158.424C144.8 158.098 145.104 157.67 145.301 157.138C145.498 156.607 145.597 156.032 145.597 155.412C145.597 154.792 145.498 154.215 145.301 153.679C145.104 153.144 144.8 152.711 144.39 152.381C143.979 152.051 143.456 151.886 142.82 151.886C142.184 151.886 141.661 152.051 141.25 152.381C140.84 152.711 140.536 153.144 140.339 153.679C140.142 154.215 140.043 154.792 140.043 155.412C140.043 156.032 140.142 156.607 140.339 157.138C140.536 157.67 140.84 158.098 141.25 158.424C141.661 158.75 142.184 158.913 142.82 158.913Z" fill="#B9BCC8"/>
<path d="M82.8231 132C82.0136 131.735 79.9672 131.364 78.2576 132H74.5662C74.0805 131.546 73.4588 130.592 74.8577 130.411L74.8732 130.409C76.6223 130.182 79.3281 129.83 80.0061 125.53C80.5501 122.079 79.8442 117.584 79.4232 115.767V111.794C78.9052 111.454 78.0244 109.955 78.6461 106.686C76.3925 104.234 76.2176 95.4481 76.4119 91.3615C75.991 89.0912 75.1685 84.4371 75.2462 83.983C74.9548 83.3019 75.5376 78.5343 74.5662 72.2909C74.1777 72.5634 74.1453 72.0261 74.1777 71.7234C74.5986 69.7936 76.2953 65.1849 79.7147 62.1881C79.4815 61.2799 79.2937 60.3718 79.229 60.0313C78.8728 60.4097 77.9079 61.0529 76.8976 60.5989C76.509 60.4172 76.7357 59.4637 76.8976 59.0096C76.6062 58.7448 76.1399 57.988 76.6062 57.0799C76.1399 57.0799 75.8291 56.8528 75.7319 56.7393L76.6062 55.1501C76.3795 54.0528 76.2565 51.5857 77.5776 50.496V49.4744C80.3946 48.5662 85.7762 48.3392 84.7659 54.6961C82.5122 58.1469 83.4383 61.1286 84.183 62.1881C85.4135 63.8908 87.2528 68.7039 84.7659 74.3342C83.2116 80.6911 83.2764 84.0965 83.503 85.0047C84.7658 86.8966 86.5338 91.6567 83.503 95.5616C84.7658 102.259 84.183 105.324 83.503 106.346C83.6973 107.821 83.4059 107.367 83.8916 108.616C84.2801 109.615 84.0535 110.924 83.8916 111.454C84.5068 113.119 85.3681 117.879 83.8916 123.6C83.0368 126.506 83.2764 128.822 83.503 129.616C83.7621 130.222 83.9889 131.546 82.8231 132Z" fill="#B9BCC8"/>
<path d="M9.23295 22V11.8182H10.4659V20.9062H15.1989V22H9.23295ZM20.1506 22.1591C19.4148 22.1591 18.7801 21.9967 18.2464 21.6719C17.7161 21.3438 17.3068 20.8864 17.0185 20.2997C16.7334 19.7098 16.5909 19.0237 16.5909 18.2415C16.5909 17.4593 16.7334 16.7699 17.0185 16.1733C17.3068 15.5734 17.7079 15.1061 18.2216 14.7713C18.7386 14.4332 19.3419 14.2642 20.0312 14.2642C20.429 14.2642 20.8217 14.3305 21.2095 14.4631C21.5973 14.5956 21.9503 14.8111 22.2685 15.1094C22.5866 15.4044 22.8402 15.7955 23.0291 16.2827C23.218 16.7699 23.3125 17.3698 23.3125 18.0824V18.5795H17.4261V17.5653H22.1193C22.1193 17.1345 22.0331 16.75 21.8608 16.4119C21.6918 16.0739 21.4498 15.8071 21.1349 15.6115C20.8234 15.416 20.4555 15.3182 20.0312 15.3182C19.5639 15.3182 19.1596 15.4342 18.8182 15.6662C18.4801 15.8949 18.2199 16.1932 18.0376 16.5611C17.8554 16.929 17.7642 17.3234 17.7642 17.7443V18.4205C17.7642 18.9972 17.8636 19.486 18.0625 19.8871C18.2647 20.2848 18.5447 20.5881 18.9027 20.7969C19.2607 21.0024 19.6766 21.1051 20.1506 21.1051C20.4588 21.1051 20.7372 21.062 20.9858 20.9759C21.2377 20.8864 21.4548 20.7538 21.6371 20.5781C21.8194 20.3991 21.9602 20.1771 22.0597 19.9119L23.1932 20.2301C23.0739 20.6146 22.8733 20.9527 22.5916 21.2443C22.3099 21.5327 21.9619 21.758 21.5476 21.9205C21.1333 22.0795 20.6676 22.1591 20.1506 22.1591ZM28.4979 14.3636V15.358H24.3814V14.3636H28.4979ZM25.6143 22V13.3097C25.6143 12.8722 25.7171 12.5076 25.9226 12.2159C26.1281 11.9242 26.3949 11.7055 26.723 11.5597C27.0511 11.4138 27.3975 11.3409 27.7621 11.3409C28.0504 11.3409 28.2857 11.3641 28.468 11.4105C28.6503 11.4569 28.7862 11.5 28.8757 11.5398L28.5376 12.554C28.478 12.5341 28.3951 12.5092 28.2891 12.4794C28.1863 12.4496 28.0504 12.4347 27.8814 12.4347C27.4936 12.4347 27.2135 12.5324 27.0412 12.728C26.8722 12.9235 26.7876 13.2102 26.7876 13.5881V22H25.6143ZM33.4632 14.3636V15.358H29.5059V14.3636H33.4632ZM30.6593 12.5341H31.8326V19.8125C31.8326 20.1439 31.8806 20.3925 31.9767 20.5582C32.0762 20.7206 32.2021 20.83 32.3546 20.8864C32.5104 20.9394 32.6744 20.9659 32.8468 20.9659C32.976 20.9659 33.0821 20.9593 33.165 20.946C33.2478 20.9295 33.3141 20.9162 33.3638 20.9062L33.6025 21.9602C33.5229 21.9901 33.4119 22.0199 33.2694 22.0497C33.1268 22.0829 32.9462 22.0994 32.7275 22.0994C32.396 22.0994 32.0712 22.0282 31.753 21.8857C31.4382 21.7431 31.1763 21.526 30.9675 21.2344C30.762 20.9427 30.6593 20.5748 30.6593 20.1307V12.5341Z" fill="#B9BCC8"/>
<rect x="0.5" y="0.5" width="159" height="179" rx="3.5" stroke="#B9BCC8" stroke-dasharray="20 20"/>
</svg>
